<?xml version="1.0" encoding="utf-8"?>
<!-- Generator: Adobe Illustrator 26.3.1, SVG Export Plug-In . SVG Version: 6.00 Build 0)  -->
<svg version="1.0" id="Layer_1" xmlns="http://www.w3.org/2000/svg" xmlns:xlink="http://www.w3.org/1999/xlink" x="0px" y="0px"
	 viewBox="0 0 60 60" enable-background="new 0 0 60 60" xml:space="preserve">
<metadata><?xpacket begin="﻿" id="W5M0MpCehiHzreSzNTczkc9d"?>
<x:xmpmeta xmlns:x="adobe:ns:meta/" x:xmptk="Adobe XMP Core 7.1-c000 79.4d2f597, 2021/09/01-20:51:22        ">
   <rdf:RDF xmlns:rdf="http://www.w3.org/1999/02/22-rdf-syntax-ns#">
      <rdf:Description rdf:about=""
            xmlns:xmp="http://ns.adobe.com/xap/1.0/"
            xmlns:xmpMM="http://ns.adobe.com/xap/1.0/mm/"
            xmlns:stEvt="http://ns.adobe.com/xap/1.0/sType/ResourceEvent#">
         <xmp:Label>Second</xmp:Label>
         <xmp:MetadataDate>2023-03-09T09:21:18+01:00</xmp:MetadataDate>
         <xmpMM:InstanceID>xmp.iid:b9a35a66-f819-43fd-9ecd-08fc6d2d699b</xmpMM:InstanceID>
         <xmpMM:DocumentID>xmp.did:b9a35a66-f819-43fd-9ecd-08fc6d2d699b</xmpMM:DocumentID>
         <xmpMM:OriginalDocumentID>xmp.did:b9a35a66-f819-43fd-9ecd-08fc6d2d699b</xmpMM:OriginalDocumentID>
         <xmpMM:History>
            <rdf:Seq>
               <rdf:li>
                  <rdf:Description>
                     <stEvt:action>saved</stEvt:action>
                     <stEvt:instanceID>xmp.iid:b9a35a66-f819-43fd-9ecd-08fc6d2d699b</stEvt:instanceID>
                     <stEvt:when>2023-03-09T09:21:18+01:00</stEvt:when>
                     <stEvt:softwareAgent>Adobe Bridge 2022 (Macintosh)</stEvt:softwareAgent>
                     <stEvt:changed>/metadata</stEvt:changed>
                  </rdf:Description>
               </rdf:li>
            </rdf:Seq>
         </xmpMM:History>
      </rdf:Description>
   </rdf:RDF>
</x:xmpmeta>
                                                                                                    
                                                                                                    
                                                                                                    
                                                                                                    
                                                                                                    
                                                                                                    
                                                                                                    
                                                                                                    
                                                                                                    
                                                                                                    
                                                                                                    
                                                                                                    
                                                                                                    
                                                                                                    
                                                                                                    
                                                                                                    
                                                                                                    
                                                                                                    
                                                                                                    
                                                                                                    
                           
<?xpacket end="w"?></metadata>
<g>
	<defs>
		<path id="SVGID_1_" d="M-305.1,1495.5l-1.3-3.2c4.7-2,7.8-6.5,7.9-11.6c0-5.3-3-9-6.3-12.9c-2.1-2.4-3.9-5-5.4-7.8
			c-1.5,2.8-3.3,5.4-5.4,7.8c-0.8,1-1.5,1.8-2.2,2.7l-2.7-2.1c0.7-1,1.5-1.9,2.3-2.8c2.9-3.5,5.6-6.8,6.4-11.4
			c0.1-0.8,0.9-1.4,1.7-1.4c0.8,0,1.6,0.6,1.7,1.4c0.8,4.6,3.5,7.9,6.4,11.4c3.5,4.2,7.1,8.6,7.1,15.1
			C-295.2,1487.2-299.1,1493-305.1,1495.5z"/>
	</defs>
	<clipPath id="SVGID_00000089554770131134101080000011998102153518079675_">
		<use xlink:href="#SVGID_1_"  overflow="visible"/>
	</clipPath>
	<g clip-path="url(#SVGID_00000089554770131134101080000011998102153518079675_)">
		<defs>
			<rect id="SVGID_00000108267811388346493150000012312762776347901097_" x="-1125.6" y="-3629.4" width="1920" height="12072"/>
		</defs>
		<clipPath id="SVGID_00000124163742234875450190000012886091571879304866_">
			<use xlink:href="#SVGID_00000108267811388346493150000012312762776347901097_"  overflow="visible"/>
		</clipPath>
	</g>
</g>
<g>
	<defs>
		<path id="SVGID_00000040555526843880686760000008846812319349116806_" d="M-328.2,1509.1c-9.9-0.2-18-8.2-18.2-18.2h3.4
			c0.2,8,6.7,14.5,14.7,14.7V1509.1L-328.2,1509.1z M-331.4,1461.7c-2.2,5-5.7,9-9.2,13c-5.1,5.8-10,11.2-10,19.2
			c0,10,9,18.7,19.2,18.7c10.2,0,19.1-8.7,19.1-18.7c0-7.9-4.8-13.4-9.9-19.2C-325.7,1470.7-329.2,1466.7-331.4,1461.7z
			 M-331.4,1516c-12.1,0-22.6-10.3-22.6-22.1c0-9.2,5.5-15.4,10.8-21.4c4.6-5.2,8.9-10,10.1-16.8c0.2-0.8,0.9-1.4,1.7-1.4
			c0.8,0,1.5,0.6,1.7,1.4c1.3,6.8,5.6,11.6,10.1,16.8c5.3,6,10.8,12.2,10.8,21.4C-308.8,1505.7-319.4,1516-331.4,1516z"/>
	</defs>
	<clipPath id="SVGID_00000018935357790479871160000001156059948861231492_">
		<use xlink:href="#SVGID_00000040555526843880686760000008846812319349116806_"  overflow="visible"/>
	</clipPath>
	<g clip-path="url(#SVGID_00000018935357790479871160000001156059948861231492_)">
		<defs>
			<rect id="SVGID_00000137828580103463092390000005893560656580736909_" x="-1125.6" y="-3629.4" width="1920" height="12072"/>
		</defs>
		<clipPath id="SVGID_00000049191676193850648490000002705635100169478820_">
			<use xlink:href="#SVGID_00000137828580103463092390000005893560656580736909_"  overflow="visible"/>
		</clipPath>
	</g>
</g>
<g>
	<defs>
		<path id="SVGID_00000134939632707205449900000017256236639130741421_" d="M195.1,1297l-11.8-16.8l6,0.1c-0.2-7.4,2.8-14.9,8.4-21
			c6.2-6.8,14.5-10.6,22.7-10.3c16.5,0.4,24.5,12.2,24.8,12.7l-2.8,1.8c-0.1-0.1-7.4-10.9-22.1-11.3c-7.2-0.2-14.7,3.3-20.2,9.2
			c-5.4,5.8-8,13.2-7.4,20.2l0.2,1.9l-3.1,0l5.1,7.3l4.1-7.1l-3.5,0.1l0.1-1.8c0-0.4,0.6-10.4,7-17.5c7.4-8.3,17.3-7.9,17.7-7.8
			l-0.2,3.4c-0.1,0-8.8-0.3-15.1,6.7c-4.1,4.6-5.5,10.7-6,13.7l5.7-0.1L195.1,1297z"/>
	</defs>
	<clipPath id="SVGID_00000128486346153365192640000004832223531952004515_">
		<use xlink:href="#SVGID_00000134939632707205449900000017256236639130741421_"  overflow="visible"/>
	</clipPath>
	<g clip-path="url(#SVGID_00000128486346153365192640000004832223531952004515_)">
		<defs>
			<rect id="SVGID_00000006670576694047841790000004139676621961469832_" x="-579.8" y="-3629.4" width="1920" height="12072"/>
		</defs>
		<clipPath id="SVGID_00000009562622113683099080000007568668822766956951_">
			<use xlink:href="#SVGID_00000006670576694047841790000004139676621961469832_"  overflow="visible"/>
		</clipPath>
	</g>
</g>
<g>
	<defs>
		<path id="SVGID_00000127003041089429666480000007555990999360775073_" d="M220.8,1312.8c-0.2,0-0.4,0-0.6,0
			c-16.5-0.4-24.5-12.2-24.8-12.7l2.8-1.8c0.1,0.1,7.4,10.9,22.1,11.3c7.2,0.2,14.7-3.3,20.2-9.2c5.4-5.8,8-13.2,7.4-20.2l-0.2-1.9
			l3.1,0l-5.1-7.3l-4.1,7.1l3.5-0.1l-0.1,1.8c0,0.4-0.6,10.4-7,17.5c-7.4,8.3-17.3,7.9-17.7,7.8l0.2-3.4c0.1,0,8.8,0.3,15.1-6.7
			c4.1-4.6,5.5-10.7,6-13.7l-5.7,0.1l9.8-16.7l11.8,16.8l-6-0.1c0.2,7.4-2.8,14.9-8.4,21C236.8,1309.1,228.8,1312.8,220.8,1312.8z"
			/>
	</defs>
	<clipPath id="SVGID_00000179616130919960731500000012757819092347200398_">
		<use xlink:href="#SVGID_00000127003041089429666480000007555990999360775073_"  overflow="visible"/>
	</clipPath>
	<g clip-path="url(#SVGID_00000179616130919960731500000012757819092347200398_)">
		<defs>
			<rect id="SVGID_00000019667571724228082400000011520319451714757018_" x="-579.8" y="-3629.4" width="1920" height="12072"/>
		</defs>
		<clipPath id="SVGID_00000091012360637641074280000015607483151194947457_">
			<use xlink:href="#SVGID_00000019667571724228082400000011520319451714757018_"  overflow="visible"/>
		</clipPath>
	</g>
</g>
<g>
	<defs>
		<path id="SVGID_00000154409077146637708850000001094815923641299354_" d="M220.4,1277.3c-1.9,0-3.5,1.6-3.5,3.5
			c0,2,1.6,3.5,3.5,3.5s3.5-1.6,3.5-3.5C223.9,1278.9,222.3,1277.3,220.4,1277.3z M220.4,1287.7c-3.8,0-6.8-3.1-6.8-6.9
			c0-3.8,3-6.9,6.8-6.9c3.8,0,6.8,3.1,6.8,6.9S224.1,1287.7,220.4,1287.7z"/>
	</defs>
	<clipPath id="SVGID_00000092454732146196086860000010356693577852069530_">
		<use xlink:href="#SVGID_00000154409077146637708850000001094815923641299354_"  overflow="visible"/>
	</clipPath>
	<g clip-path="url(#SVGID_00000092454732146196086860000010356693577852069530_)">
		<defs>
			<rect id="SVGID_00000114774102560959543330000002539481809566903214_" x="-579.8" y="-3629.4" width="1920" height="12072"/>
		</defs>
		<clipPath id="SVGID_00000141413592576350831180000007427581389924707262_">
			<use xlink:href="#SVGID_00000114774102560959543330000002539481809566903214_"  overflow="visible"/>
		</clipPath>
	</g>
</g>
<g>
	<path fill="#FFFFFF" d="M34.6,14.2H14.3c-1.4,0-2.6,1.2-2.6,2.8v37.2c0,1.5,1.1,2.8,2.6,2.8h20.3c1.4,0,2.6-1.2,2.6-2.8V17
		C37.1,15.5,36,14.2,34.6,14.2z M13.7,21.6h21.4v26.4H13.7V21.6z M14.3,16.2h20.3c0.3,0,0.6,0.4,0.6,0.8v2.5H13.7V17
		C13.7,16.6,14,16.2,14.3,16.2z M34.6,55H14.3c-0.3,0-0.6-0.4-0.6-0.8v-4.3h21.4v4.3C35.1,54.6,34.9,55,34.6,55z"/>
	<path fill="#FFFFFF" d="M24.5,51.7c-0.1,0-0.1-0.1-0.2-0.1c-0.2-0.1-0.5-0.1-0.8,0c-0.1,0-0.2,0.1-0.3,0.2
		c-0.2,0.2-0.3,0.4-0.3,0.7c0,0.1,0,0.3,0.1,0.4s0.1,0.2,0.2,0.3c0.1,0.1,0.2,0.2,0.3,0.2s0.2,0.1,0.4,0.1s0.3,0,0.4-0.1
		c0.1,0,0.2-0.1,0.3-0.2c0.1-0.1,0.2-0.2,0.2-0.3c0.1-0.1,0.1-0.2,0.1-0.4c0-0.3-0.1-0.5-0.3-0.7C24.6,51.7,24.6,51.7,24.5,51.7z"/>
	<path fill="#FFFFFF" d="M21.8,18.9h4.7c0.6,0,1-0.4,1-1s-0.4-1-1-1h-4.7c-0.6,0-1,0.4-1,1S21.2,18.9,21.8,18.9z"/>
	<path fill="#FFFFFF" d="M34.1,7.9c-0.6,0-1,0.5-1,1c0,0.6,0.5,1,1,1c3.7-0.2,7,2.7,7.2,6.5c0,0.5,0.5,1,1,1c0,0,0,0,0,0
		c0.6,0,1-0.5,1-1C43.1,11.4,38.9,7.7,34.1,7.9z"/>
	<path fill="#FFFFFF" d="M35.2,3c-0.6,0-1,0.5-1,1c0,0.6,0.5,1,1,1c5.8-0.3,10.7,4.2,11,9.9c0,0.5,0.5,1,1,1c0,0,0,0,0,0
		c0.6,0,1-0.5,1-1C47.9,8,42.1,2.7,35.2,3z"/>
</g>
</svg>
