<?xml version="1.0" encoding="UTF-8"?>
<svg id="Layer_2" data-name="Layer 2" xmlns="http://www.w3.org/2000/svg" viewBox="0 0 95.9 84.14">
  <defs>
    <style>
      .cls-1 {
        fill: #fff;
      }
    </style>
  </defs>
  <g id="Layer_1-2" data-name="Layer 1">
    <g>
      <path class="cls-1" d="m14.07,61.78L0,42.09l5.88-.02C5.88,18.87,24.75,0,47.95,0c13.4,0,26.12,6.47,34.02,17.32l-3.21,2.34c-7.16-9.82-18.67-15.68-30.81-15.68C26.94,3.97,9.86,21.06,9.86,42.07v3.99h-2.13l5.97,8.36,4.78-8.36h-2.57v-3.99c0-17.67,14.38-32.05,32.05-32.05v3.97c-15.48,0-28.07,12.59-28.07,28.07v.02h5.44l-11.25,19.69Z"/>
      <path class="cls-1" d="m47.95,84.14c-13.4,0-26.12-6.47-34.02-17.32l3.21-2.34c7.16,9.82,18.67,15.68,30.81,15.68,21.01,0,38.09-17.09,38.09-38.09v-3.99h2.13l-5.97-8.36-4.78,8.36h2.57v3.99c0,17.67-14.38,32.05-32.05,32.05v-3.97c15.48,0,28.07-12.59,28.07-28.07v-.02h-5.44l11.25-19.69,14.07,19.69-5.88.02c0,23.2-18.87,42.07-42.07,42.07Z"/>
      <path class="cls-1" d="m53.94,62.09h-11.99v-5.24c-1.35-.55-2.63-1.3-3.8-2.21l-4.55,2.63-6-10.39,4.54-2.62c-.11-.75-.17-1.51-.17-2.25s.05-1.44.15-2.16l-4.52-2.61,6-10.38,4.48,2.59c1.18-.93,2.48-1.69,3.87-2.26v-5.15h11.99v5.12c1.4.56,2.72,1.33,3.92,2.26l4.43-2.56,6,10.38-4.44,2.56c.11.75.16,1.48.16,2.21s-.06,1.52-.17,2.3l4.45,2.57-6,10.39-4.5-2.6c-1.18.91-2.48,1.66-3.85,2.21v5.21Zm-8.02-3.97h4.04v-4.13l1.43-.42c1.78-.52,3.44-1.48,4.82-2.76l1.08-1.01,3.55,2.05,2.02-3.5-3.53-2.03.35-1.45c.23-.96.35-1.92.35-2.84s-.11-1.83-.34-2.77l-.34-1.44,3.49-2.02-2.02-3.5-3.49,2.02-1.08-1.02c-1.38-1.31-3.06-2.28-4.87-2.81l-1.43-.42v-4.04h-4.04v4.05l-1.41.42c-1.79.54-3.46,1.52-4.82,2.82l-1.08,1.03-3.55-2.05-2.02,3.5,3.57,2.06-.34,1.44c-.22.92-.32,1.84-.32,2.73s.11,1.85.34,2.8l.34,1.44-3.6,2.08,2.02,3.5,3.61-2.08,1.08,1.01c1.36,1.28,3.01,2.24,4.77,2.77l1.41.43v4.14Z"/>
      <path class="cls-1" d="m47.95,50.07c-4.41,0-8-3.59-8-8s3.59-8,8-8,8,3.59,8,8-3.59,8-8,8Zm0-12.02c-2.22,0-4.02,1.8-4.02,4.02s1.8,4.02,4.02,4.02,4.03-1.8,4.03-4.02-1.81-4.02-4.03-4.02Z"/>
    </g>
  </g>
</svg>