<?xml version="1.0" encoding="UTF-8"?>
<svg id="Layer_2" data-name="Layer 2" xmlns="http://www.w3.org/2000/svg" viewBox="0 0 88.24 86.22">
  <defs>
    <style>
      .cls-1 {
        fill: #fff;
      }
    </style>
  </defs>
  <g id="Layer_1-2" data-name="Layer 1">
    <g>
      <g>
        <path class="cls-1" d="m15.13,73.86l-3.81-1.12c3.65-12.44,11.47-23.52,22.63-32.05l1.8-1.38,1.13,1.97c2.09,3.65,2.09,8.52,2.09,10.11h-3.97c0-1.01,0-3.56-.67-5.93-9.39,7.77-16.01,17.54-19.19,28.39Z"/>
        <path class="cls-1" d="m32.84,86.22c-4.02,0-8.36-.54-12.86-1.89l1.14-3.81c11.52,3.46,22.55,1.03,28.7-1.98-1.4-.95-2.83-1.71-4.47-2.38l1.51-3.68c2.95,1.21,5.29,2.64,7.83,4.77l2.01,1.69-2.18,1.47c-3.61,2.44-11.64,5.8-21.68,5.8Z"/>
        <path class="cls-1" d="m50.43,78.82l-1.37-3.73c14.43-5.3,24.67-15.04,27.27-18.9-2-.33-5.19-.07-7.73.75l-1.21-3.78c3.22-1.03,9.51-1.88,12.67.24l.89.61-.02,1.08c-.09,4.75-14.38,17.81-30.51,23.73Z"/>
        <path class="cls-1" d="m76.75,56.41l-2.9-2.72c8.75-9.32,10.2-18.14,10.39-28.32-10.56,4.88-17.87,5.96-23.32,6.77-8.85,1.31-13.29,1.97-22.25,16.65l-3.39-2.07c9.93-16.26,15.62-17.11,25.05-18.51,5.99-.89,13.45-2,25.03-7.79l2.88-1.44v3.22c0,12.02-.87,22.9-11.49,34.22Z"/>
        <path class="cls-1" d="m.94,86.18l-.94-3.86c22.36-5.4,49.76-28.29,61.12-39.63l2.81,2.81C52.29,57.12,24.15,80.57.94,86.18Z"/>
      </g>
      <path class="cls-1" d="m76.31,80.1c-.32,0-.65-.02-.98-.04-2.78-.26-5.3-1.59-7.08-3.75l3.06-2.53c1.11,1.34,2.66,2.16,4.38,2.32,1.73.16,3.4-.36,4.73-1.47,2.75-2.3,3.13-6.42.84-9.18l3.06-2.53c3.68,4.45,3.07,11.07-1.35,14.77-1.89,1.58-4.23,2.43-6.66,2.43Z"/>
      <path class="cls-1" d="m36.07,34.43c-2.67-4.22-1.43-9.92,2.78-12.7,2.07-1.37,4.53-1.83,6.91-1.32,2.36.51,4.38,1.92,5.67,3.97l-3.36,2.12c-.72-1.14-1.84-1.92-3.15-2.2-1.33-.29-2.72-.02-3.89.75-2.41,1.6-3.14,4.85-1.61,7.26l-3.36,2.13Z"/>
      <path class="cls-1" d="m67.06,15.5c-4.26,0-7.72-3.48-7.72-7.75s3.46-7.75,7.72-7.75,7.72,3.48,7.72,7.75-3.46,7.75-7.72,7.75Zm0-11.53c-2.06,0-3.74,1.69-3.74,3.78s1.68,3.78,3.74,3.78,3.74-1.69,3.74-3.78-1.68-3.78-3.74-3.78Z"/>
    </g>
  </g>
</svg>