<svg width="207" height="50" viewBox="0 0 207 50" fill="none" xmlns="http://www.w3.org/2000/svg">
<g clip-path="url(#clip0_29497_7880)">
<path d="M0.73 18.5902C0.46 11.0402 3.28 4.30017 10.66 1.52017C18.94 -1.59983 35.22 -0.429831 38.2 9.77017L38.96 9.54017C39.98 7.48017 42.59 5.44017 44.54 4.18017C58.81 -5.07983 78.82 1.99017 83 18.5902H73.82C69.28 6.63017 51.64 5.09017 44.65 15.6802C37.32 26.7702 45.3 41.2702 58.4 41.0002V49.8102C50.78 49.4302 44.29 46.2802 38.93 41.0002V49.8102H0C0.75 41.6202 -0.85 36.5002 6.49 31.1402C12.1 27.0402 24.34 24.0202 27.92 19.8802C30.83 16.5202 29.51 10.8702 25.27 9.30017C17.93 6.57017 9.05 9.37017 10.66 18.5902H0.73ZM11.39 40.6302H38.02L38.39 39.9002C35.89 36.6202 33.9 33.1502 34.69 28.8602C35.01 27.1402 36.12 25.7002 36.72 24.1002C31.06 30.3402 21.49 31.0802 14.94 35.1802C13.05 36.3602 10.94 38.1002 11.39 40.6202V40.6302Z" fill="white"/>
<path d="M68.6798 23.74V27.04C69.5598 27.24 69.2798 26.89 69.4998 26.56C70.1198 25.66 70.2298 25.05 71.2798 24.31C74.1398 22.31 79.4198 23.38 79.3398 27.41L80.0998 27.18C81.2598 23.17 87.7098 21.84 90.1498 25.23C90.3298 25.48 91.0898 26.76 91.0898 26.86V49.81H84.8498V30.9C84.8498 28.9 80.9198 28.14 80.0098 31.2C79.1698 34.05 79.5698 43.92 79.6898 47.44C79.7198 48.26 80.0598 49 80.0698 49.81H73.4598V30.16C73.4598 29.15 70.3398 28.9 69.5098 29.7C69.4498 29.76 68.6798 31.17 68.6798 31.26V49.81H62.0698V23.73H68.6798V23.74Z" fill="white"/>
<path d="M113.12 23.7402V27.0402C114.15 27.1402 114.11 25.8302 114.95 25.0102C117.86 22.1602 125.11 22.7902 125.43 27.5802C125.84 33.7702 125.03 41.0402 125.23 47.4402C125.25 48.1502 125.52 48.7602 125.62 49.4402H118.27V30.1602C118.27 27.8002 113.13 29.2102 113.13 31.2602V49.4402H106.15V23.7302H113.13L113.12 23.7402Z" fill="white"/>
<path d="M136.26 23.7402V43.3902C136.26 44.8902 141.4 44.6902 141.4 41.9202V23.7402H148.38V49.4502H141.4V46.1502C140.3 46.0602 140.57 47.5202 139.65 48.3602C137.76 50.0702 133.81 50.3302 131.6 49.1602C129.39 47.9902 129.13 45.5502 129.06 43.3302C128.86 37.4302 129.46 31.3302 129.31 25.3802C129.29 24.7502 129.19 24.3002 128.92 23.7502H136.27L136.26 23.7402Z" fill="white"/>
<path d="M185.47 41C185.81 45.4 184.97 49.01 180.11 49.79C177.15 50.27 172.58 50.09 170.22 47.99C166.47 44.65 166.77 30.56 169.37 26.56C171.54 23.22 176.5 22.92 180.11 23.41C186.81 24.33 185.96 33.13 185.47 38.07H174.08C174.01 40.39 173.92 43.03 175.54 44.87L178.7 44.72L179.58 41.01H185.46L185.47 41ZM174.09 35.12H179.6V29.79C179.6 29.65 178.78 28.17 178.42 28.01C174.27 26.2 174.16 32.44 174.09 35.11V35.12Z" fill="white"/>
<path d="M205.67 31.8202H199.79C200.58 28.4202 199.04 26.8802 195.62 28.1102C193.13 35.7702 205.12 33.2102 206.04 40.8102C207.1 49.5002 201.44 50.5502 194.1 49.8102C188.75 49.2702 188.04 45.7702 188.4 41.0002H194.28C194.28 42.7802 193.75 44.8202 196.01 45.3302C199.52 46.1202 200.27 42.5502 198.29 40.4802C195.19 37.2302 189.29 38.8802 188.44 31.9702C187.38 23.3602 193.25 22.6702 200.33 23.3802C205.43 23.8902 206.07 27.3002 205.66 31.8202H205.67Z" fill="white"/>
<path d="M160.13 19.3301L159.92 23.3901L165.27 23.7401C165.45 23.8701 164.9 24.2101 164.9 24.2901V30.3501H159.76V41.5501C160.98 43.1101 163.23 42.6901 164.9 42.1001L165.64 49.4401C162 49.7401 157.4 50.8101 154.6 47.8101C154.29 47.4801 153.15 45.8301 153.15 45.5901V29.9801H151.31V23.7401H153.15V19.3301H160.13Z" fill="white"/>
<path d="M102.1 23.7402L101.55 49.8102H94.7598V23.7402H102.1Z" fill="white"/>
<path d="M94.8502 18.31C96.6402 17.52 102.93 16.85 102.48 19.86C102.12 22.23 96.1903 22.26 94.7303 20.64C94.1403 19.95 94.4002 19 94.8502 18.31Z" fill="white"/>
</g>
<defs>
<clipPath id="clip0_29497_7880">
<rect width="206.18" height="50" fill="white"/>
</clipPath>
</defs>
</svg>
