<?xml version="1.0" encoding="UTF-8"?>
<svg id="Layer_1" xmlns="http://www.w3.org/2000/svg" version="1.1" viewBox="0 0 60 60">
  <!-- Generator: Adobe Illustrator 29.5.1, SVG Export Plug-In . SVG Version: 2.1.0 Build 141)  -->
  <defs>
    <style>
      .st0 {
        fill: #fff;
      }
    </style>
  </defs>
  <path class="st0" d="M44.6,32.5l-3-6-6-3,6-3,3-6,3,6,6,3-6,3-3,6ZM41.9,23.5l1.8.9.9,1.8.9-1.8,1.8-.9-1.8-.9-.9-1.8-.9,1.8-1.8.9Z"/>
  <path class="st0" d="M9,23.6l-3-6L0,14.6l6-3,3-6,3,6,6,3-6,3-3,6ZM6.3,14.6l1.8.9.9,1.8.9-1.8,1.8-.9-1.8-.9-.9-1.8-.9,1.8-1.8.9Z"/>
  <path class="st0" d="M30.4,45.6c-8.4,0-15.2-6.8-15.2-15.2s6.8-15.2,15.2-15.2,3.8.4,5.6,1.1l-1,2.6c-1.4-.6-3-.9-4.5-.9-6.8,0-12.4,5.6-12.4,12.4s5.6,12.4,12.4,12.4,10.1-3.4,11.8-8.5l2.7.9c-2.1,6.3-7.9,10.5-14.5,10.5h0Z"/>
  <path class="st0" d="M30.4,36.8c-3.6,0-6.5-2.9-6.5-6.5s2.9-6.5,6.5-6.5,6.5,2.9,6.5,6.5-2.9,6.5-6.5,6.5ZM30.4,26.7c-2,0-3.6,1.6-3.6,3.6s1.6,3.6,3.6,3.6,3.6-1.6,3.6-3.6-1.6-3.6-3.6-3.6Z"/>
  <path class="st0" d="M31.4,58.6c-15.8,0-28.6-12.8-28.6-28.6s.2-3.8.6-5.6l2.8.6c-.3,1.7-.5,3.4-.5,5.1,0,14.2,11.5,25.7,25.7,25.7s25.7-11.5,25.7-25.7S45.6,4.3,31.4,4.3s-10.5,1.6-14.8,4.7l-1.6-2.3C19.8,3.2,25.5,1.4,31.4,1.4c15.8,0,28.6,12.8,28.6,28.6s-12.8,28.6-28.6,28.6Z"/>
</svg>