<svg width="60" height="60" viewBox="0 0 60 60" fill="none" xmlns="http://www.w3.org/2000/svg">
<g clip-path="url(#clip0_6428_5305)">
<path d="M8.63837 42.6263L0 30.5279H3.60433V30.4077C3.60433 15.8462 15.4505 4 30.012 4C38.4221 4 46.4117 8.0609 51.3736 14.8731L49.5354 16.2187C45.006 9.99521 37.7133 6.28273 30.024 6.28273C16.7241 6.28273 5.89908 17.1077 5.89908 30.4077V32.8106H4.44533L8.43412 38.3973L11.63 32.8106H9.92391V30.4077C9.92391 19.3304 18.9347 10.3196 30.012 10.3196V12.6023C20.1962 12.6023 12.2066 20.5919 12.2066 30.4077V30.5279H15.5587L8.65038 42.6263H8.63837Z" fill="white"/>
<path d="M30.012 56.8156C21.6019 56.8156 13.6123 52.7547 8.65039 45.9425L10.4886 44.5969C15.018 50.8204 22.3108 54.5328 30 54.5328C43.3 54.5328 54.125 43.7078 54.125 30.4079V28.005H55.5787L51.5779 22.4183L48.3821 28.005H50.0881V30.4079C50.0881 41.4852 41.0773 50.508 30 50.508V48.2253C39.8158 48.2253 47.8054 40.2357 47.8054 30.4079V30.2877H44.4534L51.3616 18.1892L60 30.2877H56.3957V30.4079C56.3957 44.9694 44.5495 56.8156 29.988 56.8156H30.012Z" fill="white"/>
<path d="M32.5351 42.9267H27.477C26.8523 42.9267 26.3357 42.4221 26.3357 41.7854V39.6588C25.4466 39.2984 24.6056 38.8058 23.8367 38.2051L21.9864 39.2744C21.4458 39.5987 20.749 39.3945 20.4246 38.8538L17.9015 34.4806C17.7454 34.2163 17.7093 33.9039 17.7934 33.6155C17.8775 33.3272 18.0577 33.0749 18.3221 32.9187L20.1603 31.8614C20.0882 31.3568 20.0401 30.8643 20.0401 30.3837C20.0401 29.9031 20.0762 29.4346 20.1482 28.954L18.31 27.8967C18.0457 27.7405 17.8535 27.5002 17.7814 27.1998C17.7093 26.8995 17.7454 26.5991 17.8895 26.3348L20.4126 21.9616C20.5687 21.6973 20.809 21.505 21.1094 21.4329C21.3977 21.3488 21.7101 21.3969 21.9744 21.5411L23.7766 22.5863C24.5455 21.9736 25.4106 21.469 26.3116 21.0965V19.0301C26.3116 18.4053 26.8162 17.8887 27.453 17.8887H32.5111C33.1358 17.8887 33.6525 18.3933 33.6525 19.0301V21.0725C34.5776 21.433 35.4426 21.9375 36.2235 22.5623L38.0017 21.5411C38.266 21.3849 38.5663 21.3488 38.8667 21.4329C39.1551 21.505 39.4074 21.6973 39.5635 21.9616L42.0866 26.3348C42.3989 26.8755 42.2187 27.5723 41.6661 27.8967L39.8879 28.9299C39.96 29.4225 39.9961 29.9031 39.9961 30.3837C39.9961 30.8643 39.96 31.3809 39.8759 31.8855L41.6661 32.9187C42.2067 33.2311 42.3989 33.9279 42.0866 34.4806L39.5635 38.8538C39.2512 39.3945 38.5543 39.5867 38.0017 39.2744L36.1875 38.2291C35.4186 38.8298 34.5655 39.3224 33.6525 39.6828V41.7854C33.6525 42.4101 33.1478 42.9267 32.5111 42.9267H32.5351ZM28.6304 40.644H31.4058V38.8659C31.4058 38.3613 31.7422 37.9167 32.2227 37.7726C33.3641 37.4362 34.4214 36.8234 35.2984 36.0064C35.6709 35.658 36.2115 35.5979 36.644 35.8502L38.1699 36.7273L39.5515 34.3244L38.0377 33.4474C37.6052 33.1951 37.3769 32.6784 37.4971 32.1978C37.6412 31.5851 37.7253 30.9724 37.7253 30.3837C37.7253 29.795 37.6532 29.2183 37.5091 28.6055C37.3889 28.113 37.6172 27.6083 38.0497 27.356L39.5395 26.491L38.1579 24.0881L36.6681 24.9532C36.2356 25.2055 35.6829 25.1334 35.3104 24.797C34.4214 23.956 33.3521 23.3312 32.1987 22.9948C31.7181 22.8506 31.3817 22.4061 31.3817 21.9015V20.1834H28.6064V21.9135C28.6064 22.4181 28.282 22.8627 27.7894 23.0068C26.648 23.3552 25.5788 23.98 24.7017 24.809C24.3293 25.1574 23.7766 25.2175 23.3441 24.9652L21.8182 24.0881L20.4366 26.491L21.9864 27.3801C22.419 27.6324 22.6352 28.137 22.5271 28.6296C22.3829 29.2303 22.3229 29.807 22.3229 30.3837C22.3229 30.9604 22.3949 31.5491 22.5391 32.1738C22.6593 32.6664 22.443 33.171 21.9985 33.4233L20.4366 34.3244L21.8182 36.7273L23.3801 35.8262C23.8126 35.5739 24.3653 35.634 24.7378 35.9824C25.6028 36.7994 26.6601 37.4121 27.7894 37.7605C28.27 37.9047 28.6064 38.3492 28.6064 38.8538V40.644H28.6304Z" fill="white"/>
<path d="M30.0118 35.3455C27.2966 35.3455 25.0859 33.1349 25.0859 30.4076C25.0859 27.6803 27.2966 25.4817 30.0118 25.4817C32.7271 25.4817 34.9498 27.6923 34.9498 30.4076C34.9498 33.1229 32.7391 35.3455 30.0118 35.3455ZM30.0118 27.7644C28.5461 27.7644 27.3687 28.9539 27.3687 30.4076C27.3687 31.8614 28.5581 33.0628 30.0118 33.0628C31.4656 33.0628 32.667 31.8734 32.667 30.4076C32.667 28.9418 31.4776 27.7644 30.0118 27.7644Z" fill="white"/>
</g>
<defs>
<clipPath id="clip0_6428_5305">
<rect width="60" height="60" fill="white"/>
</clipPath>
</defs>
</svg>
