<svg width="298" height="50" viewBox="0 0 298 50" fill="none" xmlns="http://www.w3.org/2000/svg">
<g clip-path="url(#clip0_29497_7921)">
<path d="M50.13 13.8002C50.19 11.4002 49.88 8.99021 49.12 6.71021C47.92 3.80021 45.45 1.59021 42.41 0.64021C40.39 0.14021 38.36 -0.0497898 36.34 0.0102102H13.82C11.73 -0.0497898 9.70997 0.14021 7.74997 0.64021C4.70997 1.53021 2.29997 3.74021 1.03997 6.65021C0.219971 8.93021 -0.100029 11.3402 0.0299709 13.7402V36.2602C-0.0300291 38.6602 0.279971 41.0702 1.03997 43.3502C2.23997 46.2602 4.70997 48.4702 7.74997 49.3602C9.76997 49.8702 11.8 50.0602 13.82 49.9902H36.34C38.43 50.0502 40.45 49.8602 42.41 49.3602C45.38 48.4702 47.85 46.2602 49.12 43.3502C49.88 41.0702 50.2 38.6702 50.13 36.2602V13.8002ZM29.32 33.9802C29.19 35.5002 28.94 37.5202 28.62 39.6102C28.49 40.5602 28.3 41.5102 28.05 42.4602C27.54 43.6002 26.34 44.2902 25.08 44.1702C23.81 44.3602 22.61 43.6602 22.11 42.4602C21.86 41.5102 21.67 40.5602 21.54 39.6102C21.22 37.5902 20.97 35.5002 20.84 33.9802C20.71 32.7102 20.71 31.4502 20.78 30.1802C20.84 29.6102 21.1 29.1002 21.48 28.7202C22.43 27.7702 23.76 27.3302 25.09 27.3902C26.42 27.3302 27.68 27.8302 28.7 28.7202C29.14 29.1002 29.4 29.6102 29.4 30.1802C29.53 31.4502 29.46 32.7102 29.34 33.9802H29.32ZM18.5 30.1202C18.69 30.2502 18.75 30.5002 18.75 30.6902C18.69 31.3902 18.69 32.0202 18.75 32.7102C18.75 32.7702 18.69 32.7702 18.69 32.8402C18.63 32.9702 18.5 32.9702 18.37 32.9002C17.17 32.0802 16.09 31.0002 15.27 29.8002C11.6 24.4202 12.99 17.0802 18.37 13.4202C23.75 9.75021 31.09 11.1402 34.75 16.5202C38.41 21.9002 37.03 29.2402 31.65 32.9002C31.61 32.9402 31.5666 32.9602 31.52 32.9602C31.39 32.9602 31.27 32.8302 31.27 32.7102C31.33 32.0102 31.33 31.3802 31.27 30.6902C31.27 30.5002 31.4 30.2502 31.52 30.1202C33.54 28.2202 34.68 25.5702 34.56 22.7802C34.37 17.5302 29.94 13.4202 24.69 13.6102C22.16 13.6702 19.82 14.7502 18.05 16.6502C14.44 20.5102 14.63 26.5202 18.49 30.1202H18.5ZM29.19 21.7102C29.19 23.9902 27.36 25.8202 25.08 25.8202C22.8 25.8202 20.97 23.9902 20.97 21.7102C20.97 19.4302 22.8 17.6002 25.08 17.6002C27.36 17.6002 29.19 19.4302 29.19 21.7102ZM30.77 39.6102H30.64C30.51 39.6102 30.45 39.4802 30.45 39.3602C30.51 38.7902 30.64 38.1602 30.7 37.5902C30.76 37.4002 30.89 37.2102 31.08 37.1502C34.69 35.5702 37.53 32.7202 39.05 29.1802C42.4 21.4002 38.86 12.3502 31.08 9.00021C23.3 5.65021 14.25 9.19021 10.9 16.9702C7.54997 24.7502 11.09 33.8002 18.87 37.1502C19.06 37.2802 19.25 37.4702 19.25 37.6602C19.31 38.2302 19.38 38.8602 19.5 39.4302V39.5602C19.44 39.6902 19.31 39.7502 19.18 39.6902C12.16 37.2202 7.40997 30.6402 7.40997 23.1802C7.34997 13.4402 15.19 5.53021 24.93 5.53021C32.46 5.53021 39.1 10.2102 41.5 17.2302C44.73 26.4002 39.92 36.4002 30.75 39.6202L30.77 39.6102Z" fill="white"/>
<path d="M77.0198 27.7204H67.5898L65.3098 34.3604H61.3198L70.2398 9.69043H74.3498L83.2698 34.3604H79.2198L77.0098 27.7204H77.0198ZM68.5398 24.6204H76.0698L72.3998 13.8004H72.2698L68.5398 24.6204Z" fill="white"/>
<path d="M102.57 25.3803C102.57 30.9503 99.5996 34.5503 95.0396 34.5503C92.6996 34.6803 90.4896 33.4703 89.4096 31.3903H89.3496V40.3103H85.6196V16.4003H89.2296V19.3703H89.2896C90.4896 17.3503 92.6396 16.0803 95.0496 16.2103C99.5396 16.2103 102.58 19.8203 102.58 25.3803H102.57ZM98.7796 25.3803C98.7796 21.7103 96.8796 19.3103 94.0396 19.3103C91.1996 19.3103 89.2996 21.7803 89.2996 25.3803C89.2996 28.9803 91.1996 31.4503 94.0396 31.4503C96.8796 31.4503 98.7796 29.0503 98.7796 25.3803Z" fill="white"/>
<path d="M122.37 25.3803C122.37 30.9503 119.4 34.5503 114.84 34.5503C112.5 34.6803 110.29 33.4703 109.21 31.3903H109.08V40.3103H105.41V16.4003H109.02V19.3703H109.08C110.28 17.3503 112.43 16.0803 114.84 16.2103C119.33 16.2103 122.37 19.8203 122.37 25.3803ZM118.58 25.3803C118.58 21.7103 116.68 19.3103 113.84 19.3103C111 19.3103 109.1 21.7803 109.1 25.3803C109.1 28.9803 111 31.4503 113.84 31.4503C116.62 31.4503 118.58 29.0503 118.58 25.3803Z" fill="white"/>
<path d="M125.35 9.69043H129.02V34.3604H125.35V9.69043Z" fill="white"/>
<path d="M148.25 29.1205C147.74 32.4104 144.58 34.6204 140.47 34.6204C135.22 34.6204 131.99 31.1405 131.99 25.5105C131.99 19.8805 135.28 16.2104 140.34 16.2104C145.4 16.2104 148.44 19.6304 148.44 25.0704V26.3405H135.72V26.5905C135.72 29.6905 137.68 31.6504 140.59 31.6504C142.61 31.6504 144.26 30.6405 144.77 29.1205H148.25ZM135.79 23.7404H144.84C144.78 21.0204 143.01 19.1905 140.41 19.1905C137.88 19.1305 135.86 21.1505 135.79 23.6805V23.7404Z" fill="white"/>
<path d="M168.18 9.69045C172.42 9.50045 176.09 12.7905 176.28 17.0305V17.7905C176.28 22.6005 172.86 25.9505 168.06 25.9505H162.75V34.3605H158.89V9.69045H168.19H168.18ZM162.74 22.7304H167.17C170.52 22.7304 172.42 20.9604 172.42 17.8004C172.42 14.6404 170.52 12.8705 167.23 12.8705H162.8V22.7404H162.74V22.7304Z" fill="white"/>
<path d="M177.6 25.3806C177.6 19.7506 180.95 16.1406 186.14 16.1406C191.33 16.1406 194.68 19.6806 194.68 25.3806C194.68 31.0806 191.39 34.6206 186.14 34.6206C180.89 34.6206 177.6 31.0806 177.6 25.3806ZM190.95 25.3806C190.95 21.4606 189.18 19.1806 186.21 19.1806C183.24 19.1806 181.47 21.4606 181.47 25.3806C181.47 29.3006 183.24 31.5806 186.21 31.5806C189.12 31.5206 190.95 29.3006 190.95 25.3806Z" fill="white"/>
<path d="M197.28 25.3804C197.28 19.8104 200.32 16.2104 204.81 16.2104C207.15 16.0804 209.36 17.3504 210.44 19.3704H210.5V9.69043H214.23V34.3604H210.62V31.3204H210.56C209.42 33.4104 207.21 34.6704 204.8 34.5504C200.37 34.5504 197.27 30.9404 197.27 25.3804H197.28ZM201.07 25.3804C201.07 29.0504 202.97 31.4504 205.81 31.4504C208.65 31.4504 210.55 29.0504 210.55 25.3804C210.55 21.7104 208.65 19.3704 205.81 19.3704C202.97 19.3704 201.07 21.7104 201.07 25.3804Z" fill="white"/>
<path d="M229.98 22.5404C229.66 20.5204 227.83 19.0604 225.74 19.2504C222.89 19.2504 221 21.6504 221 25.3904C221 29.1304 222.9 31.5304 225.74 31.5304C228.02 31.5304 229.54 30.3904 229.98 28.3004H233.52C233.08 32.1004 230.1 34.6304 225.74 34.6304C220.62 34.6304 217.26 31.1504 217.26 25.3904C217.26 19.6304 220.61 16.1504 225.74 16.1504C230.36 16.1504 233.2 19.1204 233.58 22.5404H229.97H229.98Z" fill="white"/>
<path d="M235.8 29.2404C235.8 26.0805 238.2 24.1805 242.51 23.9305L247.44 23.6805V22.3505C247.44 20.3905 246.11 19.2505 243.9 19.2505C241.88 19.2505 240.42 20.2605 240.1 21.7805H236.62C236.75 18.5505 239.72 16.2104 243.96 16.2104C248.2 16.2104 251.11 18.5505 251.11 22.0905V34.3605H247.57V31.3904H247.51C246.37 33.4104 244.16 34.6805 241.82 34.6805C238.28 34.6805 235.81 32.4704 235.81 29.2404H235.8ZM247.38 27.6604V26.2705L242.95 26.5205C240.74 26.6505 239.47 27.6005 239.47 29.1805C239.47 30.7605 240.74 31.7705 242.76 31.7705C245.1 31.9605 247.19 30.1305 247.38 27.7805V27.6504V27.6604Z" fill="white"/>
<path d="M261.36 16.1504C265.35 16.1504 268.26 18.3604 268.26 21.5304H264.78C264.65 19.9504 263.26 18.9404 261.24 18.9404C259.22 18.9404 257.89 19.8304 257.89 21.2804C257.89 22.3604 258.78 23.0504 260.67 23.5604L263.71 24.2604C267.32 25.1504 268.71 26.4704 268.71 29.0704C268.71 32.3004 265.61 34.5104 261.25 34.5104C256.89 34.5104 254.16 32.3604 253.91 29.0704H257.58C257.83 30.7804 259.22 31.7304 261.5 31.7304C263.78 31.7304 265.11 30.8404 265.11 29.3904C265.11 28.2504 264.41 27.6804 262.52 27.1804L259.29 26.4204C256.06 25.6604 254.36 23.9504 254.36 21.4904C254.36 18.3904 257.21 16.1804 261.38 16.1804L261.36 16.1504Z" fill="white"/>
<path d="M276.73 12.1006V16.4006H280.15V19.3706H276.73V29.1806C276.73 30.7006 277.43 31.4606 278.94 31.4606C279.32 31.4606 279.95 31.4006 280.14 31.4006V34.3706C279.44 34.5006 278.75 34.5606 278.12 34.5606C274.45 34.5606 273.06 33.1706 273.06 29.6906V19.3806H270.4V16.5306H272.99V12.2306H276.72V12.1006H276.73Z" fill="white"/>
<path d="M290.08 16.1504C294.07 16.1504 296.98 18.3604 296.98 21.5304H293.5C293.37 19.9504 291.98 18.9404 289.96 18.9404C287.94 18.9404 286.61 19.8304 286.61 21.2804C286.61 22.3604 287.5 23.0504 289.33 23.5604L292.37 24.2604C295.98 25.1504 297.37 26.4704 297.37 29.0704C297.37 32.3004 294.27 34.5104 289.91 34.5104C285.55 34.5104 282.82 32.3604 282.51 29.0704H286.24C286.49 30.7804 287.88 31.7304 290.1 31.7304C292.32 31.7304 293.71 30.8404 293.71 29.3904C293.71 28.2504 293.01 27.6804 291.12 27.1804L287.89 26.4204C284.66 25.6604 282.96 23.9504 282.96 21.4904C283.09 18.3904 285.93 16.1804 290.11 16.1804L290.08 16.1504Z" fill="white"/>
</g>
<defs>
<clipPath id="clip0_29497_7921">
<rect width="297.36" height="50" fill="white"/>
</clipPath>
</defs>
</svg>
