<svg width="308" height="67" viewBox="0 0 308 67" xmlns="http://www.w3.org/2000/svg">
    <g fill="none" fill-rule="evenodd">
        <g fill="#FFF" fill-rule="nonzero">
            <path d="M45 21.846h-3.362c-.105-.62-.21-1.135-.315-1.755 0-.206-.105-.31-.42-.31h-4.097c-.21 0-.315.104-.315.207-.21.516-.42 1.136-.63 1.652a.23.23 0 0 1-.21.206h-3.677l.63-1.548L37.331 9.15a1.64 1.64 0 0 1 1.786-1.136h2.942c.105.413.21.93.315 1.342.735 3.613 1.575 7.329 2.31 10.942.106.516.21.929.316 1.548zm-4.412-4.955c-.315-1.651-.735-3.406-1.05-5.058-.631 1.652-1.261 3.407-1.892 5.058h2.942zM29.46 8.108c.402.109.905.109 1.307.217.412.112.815.257 1.207.434-.201 1.083-.403 2.058-.604 3.034-.502-.217-1.106-.326-1.608-.542a3.846 3.846 0 0 0-2.212 0 1.96 1.96 0 0 0-.805.433.835.835 0 0 0-.301.65c0 .256.111.497.301.65l.905.65 2.112 1.3c.836.532 1.394 1.454 1.508 2.493.275 1.764-.484 3.529-1.91 4.443a6.387 6.387 0 0 1-3.117 1.083 10.843 10.843 0 0 1-4.525-.541c-.1 0-.201-.109-.302-.109-.055 0-.1-.048-.1-.108.2-1.084.402-2.059.603-3.143.201.109.503.217.704.326a4.964 4.964 0 0 0 3.519.433c.319-.098.623-.244.905-.433.266-.187.434-.499.454-.84a1.124 1.124 0 0 0-.354-.894c-.386-.314-.789-.603-1.206-.867-.603-.433-1.307-.759-1.91-1.192-.782-.522-1.3-1.4-1.408-2.384-.18-1.466.4-2.92 1.508-3.792A6.526 6.526 0 0 1 27.45 8h.201c.6.084 1.205.12 1.81.108zM16.579 8.002a7.21 7.21 0 0 0-.512 1.343c-1.74 4.132-3.377 8.16-5.117 12.293-.102.206-.204.206-.41.206H7.369a.275.275 0 0 1-.228-.08.28.28 0 0 1-.079-.23 203.353 203.353 0 0 1-2.763-10.64A2.063 2.063 0 0 0 3.173 9.45c-1.024-.414-2.047-.724-3.07-1.033H0c0-.414 0-.414.41-.414h5.628a1.672 1.672 0 0 1 1.74 1.447c.511 2.479.92 5.061 1.433 7.54a.79.79 0 0 0 .102.413c0-.103.102-.103.102-.206 1.126-2.996 2.354-5.991 3.48-8.884.102-.206.102-.206.307-.206h3.275c-.103-.104 0-.104.102-.104zM15.395 21.843c1.11-4.648 2.11-9.194 3.22-13.843H22.5c-.111.723-.333 1.343-.444 2.066-.888 3.823-1.776 7.645-2.665 11.364-.11.31-.11.31-.444.31h-3.22a.43.43 0 0 1-.332.103z"/>
            <g>
                <path d="M38.972 53.16c-.216 1.594-1.404 1.594-2.591 1.594h-.756l.432-2.87a.343.343 0 0 1 .324-.319h.324c.678-.1 1.371.05 1.943.425.324.213.432.532.324 1.17m-.54-4.146h-4.426a.677.677 0 0 0-.648.532l-1.835 11.16c0 .212.108.424.324.424h2.267c.216 0 .431-.106.431-.318l.54-3.189a.602.602 0 0 1 .648-.531h1.403c2.915 0 4.642-1.382 5.074-4.145a3.264 3.264 0 0 0-.54-2.763 4.118 4.118 0 0 0-3.238-1.17M7.449 53.16c-.216 1.487-1.511 1.487-2.699 1.487h-.648l.432-2.87a.343.343 0 0 1 .324-.318h.324c.679-.1 1.371.05 1.943.425.344.331.469.824.324 1.275m-.54-4.145H2.483a.677.677 0 0 0-.648.532L0 60.706c0 .212.108.424.324.424h2.159a.677.677 0 0 0 .648-.531l.432-2.976a.602.602 0 0 1 .647-.531h1.404c2.914 0 4.642-1.382 5.074-4.145a3.264 3.264 0 0 0-.54-2.763 4.118 4.118 0 0 0-3.239-1.17M17.165 57.092c-.185 1.154-1.189 2.007-2.375 2.02a1.884 1.884 0 0 1-1.404-.532 1.827 1.827 0 0 1-.323-1.488c.184-1.154 1.188-2.008 2.374-2.02a1.884 1.884 0 0 1 1.404.532c.32.427.438.969.324 1.488m2.915-4.039h-2.16a.294.294 0 0 0-.24.082.284.284 0 0 0-.083.237l-.108.531-.108-.212a2.942 2.942 0 0 0-2.483-.85c-2.408.031-4.43 1.795-4.75 4.145a4.085 4.085 0 0 0 .755 3.188 3.45 3.45 0 0 0 2.7 1.063c1.089 0 2.135-.42 2.914-1.17l-.108.532c0 .213.108.425.324.425h1.943a.677.677 0 0 0 .648-.531l1.187-7.015a.39.39 0 0 0-.115-.311.403.403 0 0 0-.316-.114M48.688 57.092c-.185 1.154-1.19 2.007-2.376 2.02a1.884 1.884 0 0 1-1.403-.532 1.649 1.649 0 0 1-.324-1.488c.185-1.154 1.189-2.008 2.375-2.02a1.884 1.884 0 0 1 1.404.532c.32.427.437.969.324 1.488m3.022-4.039h-2.159a.294.294 0 0 0-.24.082.284.284 0 0 0-.084.237l-.108.531-.108-.212a3.325 3.325 0 0 0-2.59-.85c-2.409.031-4.43 1.795-4.75 4.145a4.085 4.085 0 0 0 .755 3.188 3.45 3.45 0 0 0 2.699 1.063c1.09 0 2.136-.42 2.915-1.17l-.108.532c0 .213.108.425.324.425h1.943a.677.677 0 0 0 .648-.531l1.187-7.121a.343.343 0 0 0-.324-.319M31.415 53.053h-2.16a.827.827 0 0 0-.54.213l-2.914 4.25-1.328-4.038a.71.71 0 0 0-.54-.425h-2.05a.379.379 0 0 0-.307.18.367.367 0 0 0-.017.352l2.375 6.801-2.16 3.083c-.215.212 0 .531.324.531h2.16c.2-.004.392-.08.54-.213l7.124-9.99c-.108-.425-.216-.744-.54-.744M54.193 49.333l-1.835 11.372c0 .213.108.425.324.425h1.835a.677.677 0 0 0 .648-.531L57 49.439c0-.212-.108-.425-.324-.425h-2.051c-.324 0-.432.213-.432.32"/>
            </g>
        </g>
        <g fill-rule="nonzero">
            <path fill="#FFF" d="M188 25h-25V0h25v12.498z"/>
            <path d="M188 25v-3.962h-3.017l-1.553-1.717-1.56 1.717h-9.944v-8.002h-3.21l3.982-9.01h3.839l1.37 3.087V4.026h4.753l.825 2.326.831-2.326H188V0h-25v25h25zm-2.508-4.963H188l-3.318-3.518L188 13.04h-2.468l-2.05 2.238-2.029-2.238h-2.509l3.299 3.498-3.299 3.499h2.44l2.058-2.26 2.05 2.259zm.586-3.516L188 18.565v-4.07l-1.922 2.026zm-11.18 1.896v-1.089h3.947V15.75h-3.948V14.66h4.047v-1.62h-5.956v6.998h5.956v-1.62h-4.047zm11.212-6.392H188V5.03h-2.94l-1.569 4.357-1.559-4.357h-2.988v6.996h1.889V7.128l1.799 4.897h1.678l1.8-4.907v4.907zm-9.315 0h2.149l-3.089-6.996h-2.459l-3.088 6.996h2.099l.58-1.4h3.218l.59 1.4zm-1.25-2.969h-1.899l.95-2.288.95 2.288z" fill="#0072BB"/>
            <g fill="#FFF">
                <path d="M172.26 49.572a3.517 3.517 0 0 0 .894-2.572 4.029 4.029 0 0 0-2.49 1.154 3.275 3.275 0 0 0-.894 2.445 3.01 3.01 0 0 0 2.526-1.084m.858 1.315c-1.39-.07-2.574.738-3.215.738-.64 0-1.68-.692-2.78-.692-1.447.037-2.764.806-3.457 2.018-1.462 2.446-.41 6.068 1.064 8.075.689.98 1.547 2.065 2.647 2.03 1.1-.034 1.462-.669 2.72-.669 1.256 0 1.631.67 2.78.623 1.148-.046 1.873-.969 2.562-1.984a7.697 7.697 0 0 0 1.136-2.25c-1.273-.523-2.132-1.681-2.226-3-.094-1.32.592-2.58 1.779-3.263-.686-.949-1.803-1.53-3.01-1.569M185.15 48.34c1.373-.072 2.714.408 3.691 1.32.977.914 1.498 2.175 1.434 3.471.053 1.31-.48 2.579-1.47 3.497-.989.918-2.342 1.4-3.728 1.329h-3.315v4.986h-2.429V48.34h5.817zm-3.388 7.726h2.745a3.012 3.012 0 0 0 2.334-.737 2.66 2.66 0 0 0 .896-2.163 2.637 2.637 0 0 0-.903-2.18 2.99 2.99 0 0 0-2.364-.708h-2.805v5.73l.097.058zm9.12 3.897c0-1.846 1.518-3.003 4.214-3.164l3.109-.149v-.814c0-1.203-.85-1.89-2.247-1.89-1.09-.135-2.11.527-2.368 1.535h-2.21c.121-1.925 1.882-3.358 4.663-3.358 2.781 0 4.493 1.352 4.493 3.519v7.335h-2.21v-1.73c-.727 1.222-2.109 1.967-3.594 1.936a3.61 3.61 0 0 1-2.68-.805 3.203 3.203 0 0 1-1.17-2.415zm7.286-.963v-.848l-2.78.149c-1.385.08-2.162.664-2.162 1.593 0 .928.813 1.536 2.04 1.536.73.053 1.45-.175 1.998-.634a2.49 2.49 0 0 0 .904-1.796zm4.384 7.92v-1.777c.247.018.494.018.74 0 .98.065 1.85-.586 2.005-1.501l.206-.654-4.092-10.659h2.428l2.866 8.688 2.866-8.688H212l-4.214 11.233c-.984 2.59-2.089 3.438-4.42 3.438-.158 0-.729 0-.935-.08h.121z"/>
            </g>
        </g>
        <g fill-rule="nonzero">
            <path d="M94.682 29.838v-1.942c0-.732-.449-1.224-1.171-1.23-.38-.007-.773.116-1.047.55a1.085 1.085 0 0 0-.984-.55c-.318 0-.63.097-.872.46v-.383h-.648v3.095h.654v-1.716c0-.537.287-.822.729-.822.43 0 .648.291.648.816v1.722h.654v-1.716c0-.537.299-.822.729-.822.442 0 .654.291.654.816v1.722h.654zm9.677-3.095H103.3v-.939h-.654v.94h-.604v.614h.604v1.412c0 .718.268 1.146 1.034 1.146.28 0 .604-.09.81-.24l-.187-.576a1.162 1.162 0 0 1-.573.175c-.324 0-.43-.207-.43-.518v-1.399h1.059v-.615zm5.525-.078c-.373 0-.616.182-.784.454v-.376h-.642v3.095h.648v-1.735c0-.512.212-.797.635-.797.131 0 .268.02.405.078l.2-.634a1.337 1.337 0 0 0-.462-.085zm-8.353.324c-.312-.213-.741-.324-1.215-.324-.754 0-1.24.376-1.24.991 0 .505.362.816 1.028.913l.306.045c.355.052.523.15.523.324 0 .24-.237.376-.68.376-.448 0-.772-.15-.99-.324l-.305.524c.355.272.804.402 1.29.402.86 0 1.358-.421 1.358-1.01 0-.544-.393-.829-1.04-.926l-.306-.045c-.28-.04-.504-.098-.504-.305 0-.226.211-.362.566-.362.38 0 .748.149.929.265l.28-.544zm17.352-.324c-.374 0-.617.182-.785.454v-.376h-.642v3.095h.648v-1.735c0-.512.212-.797.635-.797.131 0 .268.02.405.078l.2-.634a1.337 1.337 0 0 0-.461-.085zm-8.345 1.626c0 .938.63 1.625 1.589 1.625.448 0 .747-.104 1.071-.37l-.311-.543a1.277 1.277 0 0 1-.779.278c-.517-.006-.897-.395-.897-.99 0-.596.38-.985.897-.991.28 0 .536.097.779.278l.311-.543c-.324-.266-.623-.37-1.071-.37-.96 0-1.589.687-1.589 1.626zm6.068 0v-1.548h-.648v.376c-.206-.279-.517-.454-.94-.454-.835 0-1.49.68-1.49 1.626 0 .945.655 1.625 1.49 1.625.423 0 .734-.175.94-.453v.375h.648v-1.547zm-2.41 0c0-.544.342-.991.902-.991.536 0 .897.427.897.99 0 .564-.36.991-.897.991-.56 0-.903-.446-.903-.99zm-7.819-1.626c-.872 0-1.482.66-1.482 1.626 0 .984.635 1.625 1.526 1.625.448 0 .86-.117 1.22-.434l-.317-.499c-.249.208-.567.324-.866.324-.417 0-.797-.2-.89-.757h2.21c.007-.085.013-.169.013-.26-.006-.964-.579-1.625-1.414-1.625zm-.012.603c.417 0 .685.272.754.75h-1.545c.068-.446.33-.75.79-.75zm16.249 1.023V25.5h-.648v1.619c-.205-.279-.517-.454-.94-.454-.835 0-1.49.68-1.49 1.626 0 .945.655 1.625 1.49 1.625.423 0 .735-.175.94-.453v.375h.648v-1.547zm1.08 1.097a.297.297 0 0 1 .281.185.304.304 0 0 1-.162.401.289.289 0 0 1-.237 0 .342.342 0 0 1-.096-.065.304.304 0 0 1 .215-.521zm0 .547a.216.216 0 0 0 .163-.071.252.252 0 0 0 .05-.265.252.252 0 0 0-.122-.13.216.216 0 0 0-.18 0 .241.241 0 0 0-.125.317.241.241 0 0 0 .215.149zm.02-.382c.034 0 .062.01.08.026a.085.085 0 0 1 .028.068.08.08 0 0 1-.021.058.104.104 0 0 1-.066.03l.09.106h-.071l-.084-.106h-.028v.106h-.06v-.285h.131v-.003zm-.07.052v.078h.07a.064.064 0 0 0 .037-.01c.01-.006.012-.016.012-.03 0-.012-.003-.022-.012-.028a.064.064 0 0 0-.038-.01h-.068zm-3.44-1.314c0-.544.342-.991.902-.991.536 0 .898.427.898.99 0 .564-.362.991-.898.991-.56 0-.903-.446-.903-.99zm-21.875 0v-1.548h-.648v.376c-.205-.279-.517-.454-.94-.454-.835 0-1.49.68-1.49 1.626 0 .945.655 1.625 1.49 1.625.423 0 .735-.175.94-.453v.375h.648v-1.547zm-2.41 0c0-.544.342-.991.903-.991.535 0 .897.427.897.99 0 .564-.362.991-.897.991-.561 0-.904-.446-.904-.99z" fill="#FFF"/>
            <path fill="#FF5F00" d="M100.488 2.581h9.962v18.612h-9.962z"/>
            <path d="M101.12 11.888c0-3.774 1.701-7.137 4.348-9.304C103.533 1 101.088.053 98.432.053c-6.287 0-11.385 5.3-11.385 11.835 0 6.536 5.098 11.836 11.385 11.836 2.656 0 5.098-.947 7.036-2.532-2.647-2.166-4.348-5.53-4.348-9.304z" fill="#EB001B"/>
            <path d="M123.89 11.888c0 6.536-5.098 11.836-11.385 11.836-2.657 0-5.098-.947-7.037-2.532 2.647-2.166 4.349-5.53 4.349-9.304s-1.702-7.137-4.349-9.304C107.404 1 109.848.053 112.505.053c6.287 0 11.384 5.296 11.384 11.835zM123.024 20.667v-1.58h.294v-.328h-.744v.327h.294v1.581h.156zm1.445 0v-1.908h-.225l-.263 1.309-.262-1.309h-.226v1.908h.163v-1.43l.244 1.24h.169l.244-1.24v1.444h.156v-.014z" fill="#F79E1B"/>
            <g>
                <g fill="#FFF">
                    <path d="M108.555 56.86v5.825h-1.715V48.33h4.539a3.925 3.925 0 0 1 2.937 1.247c1.557 1.572 1.646 4.178.199 5.864l-.2.212a3.94 3.94 0 0 1-2.936 1.227l-2.824-.02zm0-6.789v5.03h2.843a2.128 2.128 0 0 0 1.686-.745c.9-1.003.878-2.585-.047-3.56a2.245 2.245 0 0 0-1.64-.715l-2.842-.01zM119.499 52.525a4.139 4.139 0 0 1 2.965 1.087 4.058 4.058 0 0 1 1.1 3.017v6.036h-1.64v-1.348h-.076c-.596 1.06-1.68 1.7-2.842 1.68a3.513 3.513 0 0 1-2.52-.956 3.154 3.154 0 0 1-1.014-2.414c-.03-.946.372-1.85 1.08-2.424a4.273 4.273 0 0 1 2.842-.906 4.836 4.836 0 0 1 2.511.594v-.423c0-.628-.255-1.226-.701-1.64a2.412 2.412 0 0 0-1.649-.673c-.922-.023-1.787.475-2.274 1.308l-1.506-1.006c.824-1.308 2.246-2.045 3.724-1.932zm-2.208 7.142c-.002.473.205.92.559 1.207.38.318.852.485 1.336.473a2.617 2.617 0 0 0 1.895-.855 2.823 2.823 0 0 0 .853-2.012 3.287 3.287 0 0 0-2.237-.674 2.725 2.725 0 0 0-1.743.543 1.608 1.608 0 0 0-.663 1.318zM133 52.847 127.277 67h-1.762l2.122-4.949-3.752-9.204h1.857l2.72 7.062h.028l2.653-7.062z"/>
                </g>
                <path d="M102.459 55.443a10.832 10.832 0 0 0-.137-1.687h-7.426v3.191h4.25a3.863 3.863 0 0 1-1.56 2.515v2.07h2.534c1.575-1.596 2.425-3.808 2.339-6.09z" fill="#4285F4"/>
                <path d="M94.906 63.531a7.278 7.278 0 0 0 5.214-2.02l-2.534-2.05a4.595 4.595 0 0 1-4.18.514c-1.395-.515-2.477-1.677-2.924-3.139H87.84v2.14c1.324 2.791 4.064 4.558 7.065 4.555z" fill="#34A853"/>
                <path d="M90.482 56.836a5.223 5.223 0 0 1 0-3.17v-2.132H87.84a8.633 8.633 0 0 0 0 7.433l2.64-2.13z" fill="#FBBC04"/>
                <path d="M94.906 50.252a4.085 4.085 0 0 1 3.012 1.242l2.26-2.343a7.411 7.411 0 0 0-5.272-2.15c-2.994 0-5.73 1.756-7.065 4.533l2.621 2.141c.609-2.018 2.403-3.4 4.444-3.423z" fill="#EA4335"/>
            </g>
        </g>
        <g transform="translate(242)">
            <path d="M0 0h28.333v25H0z"/>
            <path d="M2.357 2.318v20.376h12.086c7.973 0 11.43-4.388 11.43-10.208 0-5.797-3.457-10.168-11.43-10.168H2.357z" fill="#FFF" fill-rule="nonzero"/>
            <path d="M3.663 3.603h10.782c7.318 0 10.123 3.928 10.123 8.883 0 5.941-3.917 8.923-10.123 8.923H3.663V3.603zM4.708 4.63v15.752h9.737c5.878 0 9.076-2.692 9.076-7.896 0-5.348-3.467-7.856-9.076-7.856H4.708z" fill="#000" fill-rule="nonzero"/>
            <path fill="#000" fill-rule="nonzero" d="M6.014 13.644h3.117v5.453H6.014z"/>
            <ellipse fill="#000" fill-rule="nonzero" cx="7.573" cy="10.897" rx="1.937" ry="1.904"/>
            <path d="M15.668 11.788v.883h-2.221V9.128h2.15v.882h-1.252v.41h1.184v.883h-1.184v.485h1.323zm.388.883 1.087-3.545h1.277l1.087 3.545h-.935l-.204-.685h-1.174l-.204.685h-.934zm1.401-1.567h.65l-.298-1.002h-.054l-.298 1.002zm2.501-1.977h.899v2.661h1.33c-.365-4.829-4.229-5.872-7.742-5.872h-3.744v3.213h.554c1.01 0 1.638.673 1.638 1.757 0 1.118-.613 1.785-1.638 1.785h-.554V19.1h3.744c5.71 0 7.697-2.606 7.768-6.428h-2.255V9.127zm-9.258.884v1.777h.555c.384 0 .74-.11.74-.903 0-.775-.396-.874-.74-.874H10.7z" fill="#D50072" fill-rule="nonzero"/>
        </g>
        <g fill-rule="nonzero">
            <path d="M255.859 49h-11.216c-1.46 0-2.643 1.147-2.643 2.563v10.874c0 1.415 1.183 2.563 2.643 2.563h11.216c1.46 0 2.642-1.148 2.642-2.563V51.563c0-1.416-1.182-2.563-2.642-2.563" fill="#FFF"/>
            <path d="M246.459 61.304c-2.567 0-3.326-1.96-2.058-3.033.424-.363 1.197-.54 1.61-.58 1.525-.146 2.936.418 4.602 1.207-1.17 1.481-2.662 2.406-4.154 2.406m9.127-2.257c-.66-.215-1.546-.543-2.533-.889a12.687 12.687 0 0 0 1.377-3.373h-3.253v-1.136h3.985v-.634h-3.985v-1.894h-1.626c-.285 0-.285.273-.285.273v1.621h-4.03v.634h4.03v1.136h-3.327v.634h6.453c-.236.789-.553 1.53-.93 2.202-2.094-.67-4.328-1.212-5.732-.878-.897.214-1.475.597-1.815.998-1.56 1.84-.441 4.633 2.851 4.633 1.947 0 3.822-1.053 5.276-2.787 2.167 1.01 6.46 2.745 6.46 2.745V59.86s-.54-.042-2.916-.813" fill="#050E23"/>
            <path d="M277.831 51.342c0 .828.63 1.385 1.507 1.385.877 0 1.506-.557 1.506-1.385 0-.812-.629-1.385-1.506-1.385-.878 0-1.507.573-1.507 1.385M273.625 61.928h2.616v-11.62h-2.616zM265.23 57.9l1.557-5.173h.066l1.474 5.174h-3.097zm3.809-7.194h-3.51l-3.925 11.222h2.418l.662-2.197h4.156l.63 2.197h3.096l-3.527-11.222zM278.03 61.928h2.616v-8.532h-2.616zM307.984 53.412l.016-.016h-2.467l-1.556 5.19h-.083l-1.788-5.19h-2.931l3.527 8.564-1.474 2.61v.064h2.302zM285.498 60.464a2.96 2.96 0 0 1-.894-.128V55.72c.546-.366.993-.541 1.556-.541.977 0 1.755.748 1.755 2.34 0 2.037-1.142 2.945-2.417 2.945m1.656-7.243c-.96 0-1.706.35-2.55 1.018v-.843h-2.617v11.238h2.617V61.85c.496.127.96.19 1.523.19 2.335 0 4.437-1.655 4.437-4.6 0-2.642-1.523-4.218-3.41-4.218M296.045 59.859c-.695.366-1.093.51-1.556.51-.63 0-1.026-.399-1.026-1.035 0-.24.05-.478.248-.669.314-.303.927-.525 2.334-.844v2.038zm2.617-.064V56.23c0-1.942-1.192-3.008-3.295-3.008-1.342 0-2.269.222-3.958.716l.464 1.958c1.54-.669 2.219-.955 2.93-.955.862 0 1.242.589 1.242 1.496v.064c-2.997.541-3.924.844-4.503 1.4-.43.415-.613 1.004-.613 1.688 0 1.64 1.325 2.515 2.567 2.515.927 0 1.672-.334 2.682-1.066l.182.891h2.616l-.314-2.133z" fill="#FFF"/>
        </g>
    </g>
</svg>
