<svg width="335" height="86" viewBox="0 0 335 86" xmlns="http://www.w3.org/2000/svg">
    <g fill="none" fill-rule="evenodd">
        <g fill="#FFF" fill-rule="nonzero">
            <path d="M45.19 70.991c-.25 1.913-1.627 1.913-3.004 1.913h-.876l.5-3.443a.404.404 0 0 1 .376-.383h.376c.787-.12 1.59.061 2.253.51.375.255.5.638.375 1.403m-.626-4.974h-5.132a.793.793 0 0 0-.751.638l-2.128 13.391c0 .255.125.51.375.51h2.63c.25 0 .5-.127.5-.382l.626-3.826a.705.705 0 0 1 .75-.638h1.628c3.38 0 5.383-1.658 5.884-4.974a4.027 4.027 0 0 0-.626-3.316 4.682 4.682 0 0 0-3.756-1.403M8.637 70.991c-.25 1.786-1.752 1.786-3.129 1.786h-.751l.5-3.444a.404.404 0 0 1 .376-.382h.376c.787-.121 1.59.06 2.253.51.399.397.544.989.375 1.53m-.625-4.974H2.879a.793.793 0 0 0-.75.638L0 80.046c0 .255.125.51.376.51h2.503a.793.793 0 0 0 .751-.637l.501-3.571a.705.705 0 0 1 .751-.638H6.51c3.38 0 5.383-1.658 5.884-4.974a4.027 4.027 0 0 0-.626-3.316 4.682 4.682 0 0 0-3.755-1.403M19.904 75.71c-.214 1.385-1.379 2.41-2.754 2.423a2.144 2.144 0 0 1-1.628-.637 2.252 2.252 0 0 1-.375-1.786c.214-1.384 1.378-2.409 2.754-2.423a2.144 2.144 0 0 1 1.627.638c.371.512.508 1.163.376 1.785m3.38-4.846H20.78a.334.334 0 0 0-.279.098.348.348 0 0 0-.096.284l-.126.638-.125-.255a3.343 3.343 0 0 0-2.879-1.02c-2.792.038-5.136 2.154-5.508 4.974a5.033 5.033 0 0 0 .876 3.826 3.93 3.93 0 0 0 3.13 1.275 4.786 4.786 0 0 0 3.38-1.403l-.125.638c0 .255.125.51.375.51h2.253a.793.793 0 0 0 .751-.638l1.377-8.417A.477.477 0 0 0 23.65 71a.458.458 0 0 0-.366-.136M56.457 75.71c-.214 1.385-1.379 2.41-2.754 2.423a2.144 2.144 0 0 1-1.628-.637 2.031 2.031 0 0 1-.375-1.786c.214-1.384 1.378-2.409 2.754-2.423a2.144 2.144 0 0 1 1.627.638c.371.512.508 1.163.376 1.785m3.505-4.846h-2.504a.334.334 0 0 0-.279.098.348.348 0 0 0-.096.284l-.126.638-.125-.255a3.774 3.774 0 0 0-3.004-1.02c-2.792.038-5.136 2.154-5.508 4.974a5.033 5.033 0 0 0 .876 3.826 3.93 3.93 0 0 0 3.13 1.275 4.786 4.786 0 0 0 3.38-1.403l-.126.638c0 .255.126.51.376.51h2.253a.793.793 0 0 0 .751-.638l1.377-8.545a.404.404 0 0 0-.375-.382M36.428 70.864h-2.504a.942.942 0 0 0-.626.255l-3.38 5.101-1.54-4.846a.83.83 0 0 0-.625-.51h-2.379a.437.437 0 0 0-.355.216.454.454 0 0 0-.02.421l2.754 8.163-2.504 3.698c-.25.255 0 .638.376.638h2.503a.942.942 0 0 0 .626-.255l8.262-11.988c-.125-.51-.25-.893-.626-.893M62.84 66.4l-2.127 13.646c0 .255.125.51.375.51h2.128a.793.793 0 0 0 .752-.637l2.128-13.391c0-.256-.126-.51-.376-.51h-2.378c-.376 0-.501.254-.501.382"/>
            <g>
                <path d="M56.238 24.835h-3.54c-.11-.694-.221-1.272-.332-1.965 0-.231-.11-.347-.442-.347h-4.315c-.221 0-.332.116-.332.231-.221.578-.442 1.272-.664 1.85a.249.249 0 0 1-.22.23H42.52l.664-1.733 4.978-12.483c.243-.849 1.04-1.388 1.88-1.271h3.099c.11.462.22 1.04.331 1.502.775 4.046 1.66 8.207 2.434 12.252.11.578.221 1.04.332 1.734zm-4.646-5.548c-.332-1.85-.775-3.814-1.107-5.664-.663 1.85-1.327 3.814-1.99 5.664h3.097zM42.188 9.347c.453.119.897.273 1.328.462-.221 1.156-.443 2.196-.664 3.236-.553-.23-1.217-.346-1.77-.578a4.36 4.36 0 0 0-2.434 0c-.324.083-.627.24-.885.463a.88.88 0 0 0-.332.693c0 .273.123.53.332.694l.996.693 2.323 1.387c.92.567 1.534 1.55 1.66 2.659.302 1.881-.533 3.763-2.102 4.738a7.173 7.173 0 0 1-3.43 1.156 12.282 12.282 0 0 1-4.978-.578c-.11 0-.221-.115-.332-.115a.113.113 0 0 1-.11-.116c.22-1.156.442-2.196.663-3.352.221.116.553.231.775.347a5.615 5.615 0 0 0 3.871.462c.351-.105.686-.26.996-.462.293-.2.478-.531.5-.896a1.18 1.18 0 0 0-.39-.953 13.788 13.788 0 0 0-1.327-.925c-.664-.462-1.438-.809-2.102-1.271a3.485 3.485 0 0 1-1.548-2.543c-.197-1.564.439-3.116 1.659-4.045 1.22-.93 2.327-1.35 3.65-1.503h.222c.66.09 1.326.129 1.991.116.443.115.996.115 1.438.23zM26.922 9.347c-.232.48-.418.983-.553 1.502-1.881 4.624-3.651 9.131-5.532 13.755-.11.23-.221.23-.442.23h-3.43a.291.291 0 0 1-.246-.089.32.32 0 0 1-.086-.257c-1.106-3.93-2.102-7.975-2.987-11.905a2.297 2.297 0 0 0-1.217-1.618c-1.106-.462-2.212-.81-3.318-1.156H9c0-.462 0-.462.443-.462h6.084c.934-.052 1.75.65 1.88 1.618.554 2.774.996 5.663 1.55 8.437a.91.91 0 0 0 .11.463c0-.116.11-.116.11-.231 1.218-3.352 2.545-6.704 3.762-9.94.11-.232.11-.232.332-.232h3.54c-.11-.115 0-.115.11-.115zM25.373 24.835c1.106-5.201 2.102-10.287 3.208-15.488h3.872c-.11.809-.332 1.502-.442 2.311-.885 4.277-1.77 8.553-2.655 12.714-.111.347-.111.347-.443.347h-3.208a.399.399 0 0 1-.332.116z"/>
            </g>
        </g>
        <g fill-rule="nonzero">
            <g fill="#FFF">
                <path d="M191.846 66.842A3.945 3.945 0 0 0 192.81 64a4.302 4.302 0 0 0-2.686 1.275 3.671 3.671 0 0 0-.965 2.702 3.212 3.212 0 0 0 2.725-1.198m.926 1.453c-1.5-.077-2.778.816-3.469.816-.69 0-1.812-.765-2.999-.765-1.56.04-2.981.89-3.729 2.23-1.578 2.703-.443 6.705 1.148 8.923.743 1.083 1.669 2.281 2.855 2.243 1.187-.038 1.578-.74 2.934-.74s1.76.74 2.999.689c1.239-.05 2.02-1.07 2.764-2.192a8.586 8.586 0 0 0 1.226-2.486c-1.373-.578-2.3-1.858-2.402-3.317a3.877 3.877 0 0 1 1.92-3.604 4.132 4.132 0 0 0-3.247-1.734M205.68 65.25a5.283 5.283 0 0 1 3.963 1.467 5.037 5.037 0 0 1 1.54 3.86 5.114 5.114 0 0 1-1.578 3.888 5.363 5.363 0 0 1-4.003 1.478h-3.56v5.545h-2.608V65.249h6.246zm-3.638 8.59h2.947a3.161 3.161 0 0 0 2.506-.819 3.01 3.01 0 0 0 .962-2.406c.068-.91-.288-1.8-.97-2.424a3.136 3.136 0 0 0-2.537-.788h-3.012v6.373l.104.064zm9.792 4.334c0-2.052 1.63-3.34 4.525-3.518l3.338-.166v-.905c0-1.338-.913-2.103-2.412-2.103-1.17-.15-2.266.587-2.543 1.708h-2.373c.13-2.141 2.021-3.735 5.007-3.735 2.986 0 4.824 1.504 4.824 3.913v8.158h-2.373v-1.925c-.78 1.36-2.264 2.189-3.86 2.155a3.785 3.785 0 0 1-2.877-.896 3.611 3.611 0 0 1-1.256-2.686zm7.824-1.07v-.944l-2.986.166c-1.487.089-2.321.739-2.321 1.771 0 1.033.873 1.708 2.19 1.708a2.937 2.937 0 0 0 2.145-.704c.588-.51.939-1.23.972-1.998zm4.707 8.807v-1.976c.264.02.53.02.795 0 1.051.072 1.985-.652 2.152-1.67l.221-.726-4.394-11.854h2.608l3.077 9.661 3.077-9.661h2.608l-4.525 12.491c-1.056 2.88-2.242 3.824-4.746 3.824-.17 0-.782 0-1.004-.09h.13z"/>
            </g>
            <path fill="#FFF" d="M207.947 32h-15.09V2h29.999v30z"/>
            <path d="M222.856 32v-4.754h-3.62l-1.863-2.06-1.873 2.06h-11.932v-9.603h-3.851l4.777-10.812h4.607l1.645 3.704V6.831h5.703l.99 2.792.997-2.792h4.42V2h-30v30h30zm-3.009-5.956h3.01l-3.982-4.221 3.982-4.174h-2.962l-2.459 2.686-2.435-2.686h-3.01l3.957 4.198-3.958 4.198h2.927l2.47-2.71 2.46 2.71zm.704-4.219 2.306 2.453v-4.885l-2.306 2.432zm-13.418 2.276v-1.307h4.738V20.9h-4.738v-1.307h4.857V17.65h-7.148v8.396h7.148v-1.943h-4.857v-.001zm13.456-7.67h2.267V8.033h-3.527l-1.883 5.23-1.87-5.23h-3.587v8.396h2.267v-5.876l2.159 5.876h2.014l2.16-5.889v5.89zm-11.178 0h2.578l-3.706-8.397h-2.95l-3.707 8.396h2.52l.695-1.679h3.862l.708 1.68zm-1.5-3.563h-2.279l1.14-2.746 1.14 2.746z" fill="#0072BB"/>
        </g>
        <g fill-rule="nonzero">
            <g fill="#FFF">
                <path d="M122.308 74.68v6.434h-1.969V65.256h5.21a4.592 4.592 0 0 1 3.37 1.378c1.789 1.737 1.89 4.615.23 6.479l-.23.233a4.612 4.612 0 0 1-3.37 1.356l-3.241-.022zm0-7.501v5.556h3.262a2.486 2.486 0 0 0 1.936-.822 2.856 2.856 0 0 0-.054-3.934 2.625 2.625 0 0 0-1.882-.79l-3.262-.01zM134.869 69.89a4.861 4.861 0 0 1 3.404 1.2 4.386 4.386 0 0 1 1.261 3.334v6.668h-1.881v-1.49h-.087a3.713 3.713 0 0 1-3.263 1.857 4.122 4.122 0 0 1-2.893-1.056 3.422 3.422 0 0 1-1.163-2.667 3.261 3.261 0 0 1 1.24-2.678 5.035 5.035 0 0 1 3.262-1c1-.038 1.992.187 2.882.655v-.467c0-.694-.293-1.355-.805-1.811a2.826 2.826 0 0 0-1.892-.745 2.975 2.975 0 0 0-2.61 1.445l-1.73-1.111a4.697 4.697 0 0 1 4.275-2.134zm-2.534 7.89a1.68 1.68 0 0 0 .641 1.334c.437.35.979.535 1.534.522a3.057 3.057 0 0 0 2.175-.945c.616-.568.97-1.374.979-2.222a3.876 3.876 0 0 0-2.567-.745 3.213 3.213 0 0 0-2.001.6c-.477.325-.763.871-.761 1.456zM150.366 70.246l-6.569 15.635h-2.023l2.436-5.467-4.306-10.168h2.131l3.122 7.8h.032l3.045-7.8z"/>
            </g>
            <path d="M114.347 73.29a11.758 11.758 0 0 0-.152-1.855h-8.287v3.511h4.741a4.243 4.243 0 0 1-1.74 2.768v2.278h2.828a8.994 8.994 0 0 0 2.61-6.701z" fill="#4285F4"/>
            <path d="M105.918 82.192a8.186 8.186 0 0 0 5.819-2.223l-2.828-2.255a5.189 5.189 0 0 1-4.665.565 5.35 5.35 0 0 1-3.263-3.455h-2.947v2.356c1.477 3.071 4.536 5.015 7.884 5.012z" fill="#34A853"/>
            <path d="M100.981 74.824a5.672 5.672 0 0 1 0-3.49V68.99h-2.947a9.382 9.382 0 0 0 0 8.179l2.947-2.345z" fill="#FBBC04"/>
            <path d="M105.918 67.579a4.591 4.591 0 0 1 3.36 1.367l2.524-2.579A8.331 8.331 0 0 0 105.918 64c-3.341 0-6.395 1.933-7.884 4.99l2.925 2.356c.68-2.222 2.682-3.743 4.96-3.767z" fill="#EA4335"/>
            <g>
                <path d="M110.308 34.807v-2.318c0-.873-.558-1.46-1.457-1.468-.472-.008-.96.139-1.301.657-.256-.41-.659-.657-1.224-.657-.395 0-.783.116-1.085.549v-.456h-.806v3.693h.814v-2.048c0-.64.356-.98.906-.98.535 0 .806.347.806.973v2.055h.813v-2.048c0-.64.372-.98.907-.98.55 0 .813.347.813.973v2.055h.814zm12.035-3.693h-1.317v-1.12h-.813v1.12h-.752v.734h.752v1.684c0 .858.333 1.368 1.286 1.368.349 0 .751-.109 1.007-.286l-.232-.688a1.49 1.49 0 0 1-.713.209c-.403 0-.535-.248-.535-.618v-1.67h1.317v-.733zm6.872-.093c-.465 0-.767.216-.976.54v-.447h-.798v3.693h.806v-2.07c0-.611.263-.951.79-.951.163 0 .333.023.504.093l.248-.758c-.179-.07-.411-.1-.574-.1zm-10.389.386c-.387-.255-.922-.386-1.51-.386-.938 0-1.542.448-1.542 1.182 0 .603.449.974 1.278 1.09l.38.054c.441.061.65.177.65.386 0 .286-.294.448-.844.448-.558 0-.96-.178-1.232-.386l-.38.626c.442.324 1 .479 1.604.479 1.07 0 1.689-.503 1.689-1.206 0-.649-.488-.989-1.294-1.105l-.38-.054c-.348-.046-.627-.116-.627-.363 0-.27.263-.432.705-.432.473 0 .93.177 1.154.316l.349-.649zm21.58-.386c-.465 0-.767.216-.976.54v-.447h-.798v3.693h.806v-2.07c0-.611.263-.951.79-.951.163 0 .333.023.504.093l.248-.758c-.179-.07-.411-.1-.574-.1zm-10.377 1.94c0 1.12.782 1.939 1.975 1.939.558 0 .93-.124 1.333-.44l-.388-.65c-.302.216-.62.332-.968.332-.643-.007-1.116-.47-1.116-1.182 0-.71.473-1.174 1.116-1.182.349 0 .666.116.968.332l.388-.649c-.403-.316-.775-.44-1.333-.44-1.193 0-1.975.819-1.975 1.94zm7.546 0v-1.847h-.806v.448c-.256-.332-.643-.541-1.17-.541-1.038 0-1.852.811-1.852 1.94 0 1.127.814 1.939 1.852 1.939.527 0 .914-.21 1.17-.541v.448h.806V32.96zm-2.999 0c0-.65.427-1.183 1.124-1.183.666 0 1.115.51 1.115 1.182 0 .672-.449 1.182-1.115 1.182-.697 0-1.124-.533-1.124-1.182zm-9.723-1.94c-1.084 0-1.843.788-1.843 1.94 0 1.174.79 1.939 1.898 1.939.558 0 1.069-.14 1.518-.518l-.395-.595c-.31.247-.705.386-1.077.386-.519 0-.991-.24-1.108-.904h2.75c.008-.1.016-.2.016-.309-.008-1.15-.72-1.939-1.759-1.939zm-.015.719c.52 0 .852.324.937.896h-1.92c.084-.533.41-.896.983-.896zm20.209 1.22v-3.33h-.806v1.932c-.255-.332-.643-.541-1.17-.541-1.038 0-1.851.811-1.851 1.94 0 1.127.813 1.939 1.851 1.939.527 0 .915-.21 1.17-.541v.448h.806V32.96zm1.344 1.31a.383.383 0 0 1 .267.104.393.393 0 0 1 .082.116.35.35 0 0 1-.082.402.356.356 0 0 1-.12.077.372.372 0 0 1-.294 0 .427.427 0 0 1-.12-.077.393.393 0 0 1-.081-.116.35.35 0 0 1 .08-.402.356.356 0 0 1 .121-.077.453.453 0 0 1 .147-.027zm0 .653a.279.279 0 0 0 .202-.085.3.3 0 0 0 .085-.205.3.3 0 0 0-.174-.267.279.279 0 0 0-.225 0 .3.3 0 0 0-.093.062.3.3 0 0 0-.085.205.3.3 0 0 0 .085.205.3.3 0 0 0 .205.085zm.023-.456c.043 0 .078.011.101.03a.1.1 0 0 1 .035.082c0 .027-.008.05-.027.07a.132.132 0 0 1-.081.034l.112.128h-.09l-.104-.128h-.035v.128h-.073v-.34h.162v-.004zm-.085.062v.092h.085c.02 0 .035-.003.047-.011.012-.008.015-.02.015-.035 0-.015-.003-.027-.015-.035a.083.083 0 0 0-.047-.011h-.085zm-4.28-1.569c0-.649.426-1.182 1.123-1.182.666 0 1.116.51 1.116 1.182 0 .672-.45 1.182-1.116 1.182-.697 0-1.123-.533-1.123-1.182zm-27.205 0v-1.846h-.806v.448c-.256-.332-.643-.541-1.17-.541-1.038 0-1.851.811-1.851 1.94 0 1.127.813 1.939 1.851 1.939.527 0 .914-.21 1.17-.541v.448h.806V32.96zm-2.998 0c0-.649.426-1.182 1.123-1.182.666 0 1.116.51 1.116 1.182 0 .672-.45 1.182-1.116 1.182-.697 0-1.123-.533-1.123-1.182z" fill="#FFF"/>
                <path fill="#FF5F00" d="M118.559 2.971h12.202V24.84h-12.202z"/>
                <path d="M119.333 13.907c0-4.435 2.085-8.387 5.327-10.932A13.909 13.909 0 0 0 116.04 0c-7.7 0-13.944 6.227-13.944 13.907s6.244 13.908 13.945 13.908c3.254 0 6.244-1.113 8.619-2.975-3.242-2.546-5.327-6.498-5.327-10.933z" fill="#EB001B"/>
                <path d="M147.224 13.907c0 7.68-6.244 13.908-13.945 13.908a13.917 13.917 0 0 1-8.62-2.975c3.243-2.546 5.327-6.498 5.327-10.933s-2.084-8.387-5.326-10.932A13.909 13.909 0 0 1 133.279 0c7.7 0 13.945 6.224 13.945 13.907zM146.061 23.851v-1.55h.293v-.32h-.741v.32h.292v1.55h.156zm1.44 0v-1.87h-.224l-.262 1.282-.262-1.282h-.224v1.87h.162V22.45l.243 1.215h.168l.243-1.215v1.416h.156v-.014z" fill="#F79E1B"/>
            </g>
        </g>
        <g fill-rule="nonzero">
            <path d="M279.976 67h-11.708c-1.524 0-2.759 1.219-2.759 2.723v11.554c0 1.504 1.235 2.723 2.76 2.723h11.707c1.524 0 2.758-1.22 2.758-2.723V69.723c0-1.504-1.234-2.723-2.758-2.723" fill="#FFF"/>
            <path d="M270.163 80.073c-2.68 0-3.472-2.083-2.147-3.223.442-.385 1.25-.573 1.68-.615 1.591-.156 3.065.444 4.804 1.282-1.222 1.573-2.78 2.556-4.337 2.556m9.528-2.399c-.69-.227-1.614-.576-2.644-.944a13.617 13.617 0 0 0 1.437-3.583h-3.395V71.94h4.16v-.674h-4.16v-2.012h-1.698c-.297 0-.297.29-.297.29v1.722h-4.207v.674h4.207v1.207h-3.474v.673h6.737a11.763 11.763 0 0 1-.97 2.34c-2.186-.712-4.519-1.288-5.984-.933-.937.227-1.54.634-1.895 1.06-1.628 1.954-.46 4.922 2.976 4.922 2.032 0 3.99-1.118 5.507-2.96 2.263 1.073 6.743 2.916 6.743 2.916v-2.627s-.563-.044-3.043-.864" fill="#050E23"/>
            <path d="M302.912 69.489c0 .88.656 1.471 1.572 1.471s1.573-.592 1.573-1.471c0-.863-.657-1.472-1.573-1.472-.916 0-1.572.61-1.572 1.472M298.521 80.736h2.731V68.39h-2.73zM289.758 76.457l1.625-5.497h.07l1.538 5.497h-3.233zm3.976-7.645h-3.665l-4.096 11.924h2.524l.691-2.334h4.338l.657 2.334h3.232l-3.681-11.924zM303.119 80.736h2.73V71.67h-2.73zM334.387 71.687l.017-.016h-2.576l-1.624 5.513h-.087l-1.866-5.513h-3.06l3.682 9.1-1.538 2.773v.068h2.402zM310.914 79.18c-.31 0-.605-.034-.933-.135V74.14c.57-.389 1.037-.575 1.625-.575 1.02 0 1.832.795 1.832 2.486 0 2.165-1.193 3.13-2.524 3.13m1.729-7.697c-1.003 0-1.78.373-2.662 1.083v-.897h-2.73v11.942h2.73v-2.96a6.011 6.011 0 0 0 1.59.203c2.437 0 4.632-1.76 4.632-4.888 0-2.808-1.59-4.483-3.56-4.483M321.925 78.537c-.726.39-1.141.542-1.625.542-.657 0-1.071-.423-1.071-1.1 0-.253.051-.507.259-.71.328-.321.968-.558 2.437-.896v2.164zm2.73-.067V74.68c0-2.063-1.244-3.196-3.439-3.196-1.4 0-2.368.236-4.13.76l.483 2.081c1.608-.71 2.316-1.015 3.06-1.015.898 0 1.296.626 1.296 1.59v.068c-3.129.575-4.097.896-4.701 1.488-.45.44-.64 1.066-.64 1.793 0 1.742 1.383 2.672 2.68 2.672.967 0 1.745-.355 2.8-1.133l.19.947h2.73l-.328-2.266z" fill="#FFF"/>
        </g>
        <g transform="translate(280.509 2)">
            <path d="M0 0h38v34H0z"/>
            <path d="M3.16 3.152v27.712h16.21c10.694 0 15.33-5.968 15.33-13.883 0-7.884-4.636-13.829-15.33-13.829H3.16z" fill="#FFF" fill-rule="nonzero"/>
            <path d="M4.913 4.9h14.46c9.814 0 13.576 5.342 13.576 12.08 0 8.081-5.253 12.136-13.576 12.136H4.913V4.9zm1.401 1.397V27.72h13.059c7.884 0 12.173-3.661 12.173-10.738 0-7.273-4.65-10.684-12.173-10.684H6.314z" fill="#000" fill-rule="nonzero"/>
            <path fill="#000" fill-rule="nonzero" d="M8.066 18.556h4.18v7.415h-4.18z"/>
            <ellipse fill="#000" fill-rule="nonzero" cx="10.156" cy="14.82" rx="2.598" ry="2.589"/>
            <path d="M21.013 16.031v1.2h-2.979v-4.817h2.884v1.2h-1.68v.558h1.589v1.2h-1.588v.66h1.774zm.521 1.202 1.458-4.821h1.713l1.457 4.82H24.91l-.274-.932H23.06l-.274.933h-1.252zm1.879-2.132h.872l-.4-1.362h-.073l-.4 1.362zm3.355-2.689h1.205v3.62h1.784c-.49-6.567-5.672-7.986-10.384-7.986h-5.021v4.369h.743c1.355 0 2.196.916 2.196 2.39 0 1.52-.82 2.428-2.196 2.428h-.743v8.742h5.022c7.656 0 10.323-3.545 10.417-8.743h-3.023v-4.82zM14.35 13.615v2.417h.744c.515 0 .992-.149.992-1.228 0-1.054-.53-1.189-.992-1.189h-.744z" fill="#D50072" fill-rule="nonzero"/>
        </g>
    </g>
</svg>
