<?xml version="1.0" encoding="UTF-8"?><svg id="a" xmlns="http://www.w3.org/2000/svg" viewBox="0 0 140.75 127"><defs><style>.b{fill:#fff;}</style></defs><polygon class="b" points="54.94 75.51 55.79 75.51 55.38 74.55 54.94 75.51"/><polygon class="b" points="74.11 75.51 74.96 75.51 74.55 74.55 74.11 75.51"/><path class="b" d="M80.64,78.59c-.01-.1-.04-.2-.06-.29-.03-.09-.07-.18-.12-.25-.05-.07-.12-.13-.2-.17-.08-.04-.18-.07-.3-.07s-.22,.02-.3,.07c-.08,.04-.15,.1-.2,.17-.05,.07-.1,.15-.12,.25-.03,.09-.05,.19-.06,.29-.01,.1-.02,.2-.02,.3,0,.1,0,.19,0,.27,0,.13,0,.27,.01,.42,0,.16,.03,.3,.08,.44,.04,.14,.12,.25,.21,.35,.1,.09,.24,.14,.41,.14s.31-.05,.41-.14c.1-.09,.17-.21,.21-.35,.04-.14,.07-.28,.08-.44s.01-.3,.01-.42c0-.08,0-.17,0-.27,0-.1,0-.2-.02-.3Z"/><path class="b" d="M85.77,76.13c.13-.04,.24-.11,.34-.2,.21-.19,.31-.44,.31-.74s-.1-.56-.31-.75c-.19-.17-.46-.26-.82-.26h-.19v2.01h.19c.19,0,.35-.02,.48-.06Z"/><path class="b" d="M73.3,78.39c0-.17-.05-.31-.15-.42-.1-.11-.26-.16-.48-.16h-1.16v1.18h.97c.11,0,.21,0,.31-.02,.1-.02,.18-.05,.26-.09,.07-.05,.13-.11,.18-.18,.04-.08,.07-.18,.07-.3Z"/><path class="b" d="M66.42,82.58c-.07-.1-.17-.18-.29-.24s-.26-.09-.42-.09-.3,.03-.42,.09c-.12,.06-.21,.14-.29,.24-.07,.1-.13,.21-.16,.34-.03,.13-.05,.25-.05,.38s.02,.26,.05,.38,.09,.24,.16,.34c.07,.1,.17,.18,.29,.24,.12,.06,.26,.09,.42,.09s.3-.03,.42-.09c.12-.06,.21-.14,.29-.24,.07-.1,.13-.21,.16-.34s.05-.25,.05-.38-.02-.26-.05-.38c-.03-.13-.09-.24-.16-.34Z"/><path class="b" d="M58.65,74.18h-.19v2.01h.19c.19,0,.35-.02,.48-.06,.13-.04,.24-.11,.34-.2,.21-.19,.31-.44,.31-.74s-.1-.56-.31-.75c-.19-.17-.46-.26-.82-.26Z"/><polygon class="b" points="80.3 75.51 81.15 75.51 80.73 74.55 80.3 75.51"/><path class="b" d="M83.6,74.61c0-.29-.2-.43-.59-.43h-.15v.89h.13c.4,0,.6-.15,.6-.46Z"/><path class="b" d="M86.17,78.05c-.06-.07-.14-.13-.22-.17-.09-.04-.19-.06-.31-.06-.12,0-.23,.02-.32,.07-.09,.04-.16,.1-.21,.18-.05,.07-.09,.16-.12,.25-.02,.09-.04,.19-.04,.3,0,.09,.02,.18,.05,.26,.03,.09,.08,.16,.14,.23,.06,.07,.13,.12,.22,.16,.08,.04,.18,.06,.28,.06,.11,0,.21-.02,.3-.06,.09-.04,.16-.09,.23-.16,.06-.07,.11-.15,.14-.24,.03-.09,.05-.18,.05-.28,0-.1-.02-.2-.05-.29-.03-.09-.08-.17-.14-.24Z"/><path class="b" d="M86.41,82.57c-.07-.08-.16-.15-.27-.19-.11-.04-.25-.07-.41-.07h-.6v1.99h.59s.09,0,.15,0c.06,0,.12-.02,.19-.04s.13-.06,.2-.1c.07-.04,.12-.1,.18-.18,.05-.07,.1-.17,.13-.28,.03-.11,.05-.25,.05-.4s-.02-.29-.05-.41c-.03-.12-.08-.22-.15-.31Z"/><path class="b" d="M140.73,59.94l-1.43,.12c-.06,0-1.48,.13-3.32,.72-2.51,.82-4.55,1.97-6.06,3.41-2.01,1.88-3.11,4.14-3.76,5.67l-.02,.05c-.34,.89-.59,1.57-.75,2.11-.04,.14-.08,.27-.11,.39l-.1,.07c-.07,.05-.14,.09-.21,.13,1.31-4.71,2.01-9.55,2.11-14.38,.3-.32,.6-.67,.93-1.08l1.19-1.47,.11-.14c.58-.13,1.58-.4,2.73-.9,2.51-1.09,4.42-2.72,5.52-4.7,.64-1.11,1.1-2.41,1.39-3.86,.26-1.33,.2-2.54,.14-3.62v-.09c-.09-1.12-.25-2.07-.36-2.65-.13-.71-.29-1.14-.32-1.22l-.5-1.29-1.27,.55c-.05,.02-1.33,.59-2.92,1.73-1.47,1.06-3.48,2.82-4.72,5.19-.28,.52-.47,1.01-.65,1.49l-.09,.22c-.22,.56-.41,1.15-.56,1.74-.25,1.01-.4,2.07-.45,3.2,0,.39-.02,.76-.05,1.14-.02,.34-.02,.69-.02,1.03,0,.15,0,.29,.01,.41-.03,.03-.06,.07-.08,.11l-.1,.12c-.25-4.85-1.11-9.65-2.58-14.27l.54-1.22c.2-.46,.35-.91,.51-1.34,.06-.16,.11-.32,.18-.5,.02-.05,.04-.11,.06-.16,.51-.31,1.36-.89,2.29-1.72,.85-.78,1.59-1.63,2.19-2.53,.82-1.24,1.35-2.49,1.56-3.72,.45-2.49,.07-5.43-1-7.67-.85-1.96-1.76-3.27-1.8-3.32l-.86-1.23-1.12,1s-1.11,1-2.24,2.59c-1.05,1.47-2.38,3.78-2.79,6.43-.21,1.41-.25,2.66-.15,3.68,.1,1.18,.37,2.22,.59,3.06,.25,1.14,.58,2.05,.8,2.59-.01,.04-.03,.08-.04,.12-.02,.06-.04,.11-.06,.17-1.78-4.49-4.15-8.77-7.03-12.71l.12-1.35,.07-.96,.02-1.02c0-.05,0-.11,0-.16,.38-.46,1.01-1.27,1.62-2.36,1.3-2.35,1.85-4.79,1.59-7.07v-.03c-.18-1.26-.61-2.57-1.27-3.88-.28-.55-.6-1.1-.97-1.67-.33-.49-.7-.9-1.02-1.27l-.12-.13c-1.44-1.59-2.74-2.54-2.79-2.58l-1.21-.88-.74,1.3c-.03,.05-.73,1.3-1.3,3.16-.52,1.72-1.05,4.31-.59,6.93,.17,1.23,.51,2.44,1.02,3.57,.32,.75,.7,1.38,1.05,1.94,.15,.25,.3,.49,.43,.73l.03,.05c.61,1,1.22,1.77,1.61,2.21v.34c-2.5-2.97-5.29-5.69-8.32-8.09-.02-.15-.05-.32-.09-.51v-.06c-.16-.58-.43-1.48-.89-2.53-.57-1.28-1.19-2.33-1.89-3.22l-.04-.05c-.98-1.12-2.09-2.05-3.31-2.75-.34-.19-.68-.37-1.01-.52l-.1-.04c-.34-.12-.69-.23-1.05-.33-.66-.18-1.36-.31-2.08-.39-1.53-.15-2.73-.11-3.75,.12-2.16,.42-3.58,1.12-3.64,1.15l-1.16,.58,.54,1.17c.03,.06,.69,1.49,1.86,3.1l.03,.04c.16,.2,.32,.42,.49,.65,.44,.6,.95,1.28,1.54,1.89,.45,.47,.93,.89,1.41,1.25,.25,.18,.5,.36,.76,.51,.27,.2,.53,.37,.79,.52,1.06,.61,2.24,1.02,3.63,1.24,1.13,.23,2.24,.36,3.28,.38,.17,0,.34,0,.51,0,.67,0,1.35-.03,2.04-.09,.18,0,.34-.02,.47-.03,8.01,6.35,14.26,15.06,17.64,24.62,4.06,11.32,4.19,23.94,.35,35.53-3.72,11.43-11.36,21.46-21.53,28.25-4.85,3.29-10.37,5.79-16.4,7.43l-.1,.03c-1.24,.45-2.59,.89-4.01,1.35-2.93,.96-6.13,2.01-9.24,3.39-3.11-1.38-6.31-2.44-9.24-3.39-1.42-.46-2.77-.9-4.01-1.35l-.1-.03c-6.03-1.64-11.55-4.14-16.41-7.43-10.16-6.78-17.8-16.82-21.52-28.26-3.84-11.59-3.71-24.21,.35-35.53,3.38-9.56,9.63-18.26,17.64-24.62,.14,0,.29,.02,.47,.03,.69,.06,1.37,.09,2.04,.09,.17,0,.33,0,.5,0,1.05-.02,2.16-.15,3.29-.38,1.39-.22,2.58-.63,3.63-1.24,.26-.15,.52-.32,.79-.52,.26-.16,.51-.33,.76-.51,.48-.36,.95-.78,1.4-1.24,.61-.62,1.11-1.3,1.55-1.9,.17-.23,.33-.45,.49-.65l.03-.04c1.17-1.61,1.83-3.04,1.86-3.1l.54-1.17-1.16-.58c-.06-.03-1.48-.73-3.6-1.14-1.06-.24-2.26-.28-3.81-.12-.7,.08-1.4,.21-2.06,.38-.36,.1-.71,.21-1.05,.33l-.1,.04c-.33,.15-.67,.33-1.01,.52-1.21,.7-2.32,1.62-3.3,2.74l-.04,.05c-.7,.88-1.32,1.94-1.89,3.22-.45,1.04-.72,1.94-.87,2.52v.06c-.05,.19-.08,.36-.11,.51-3.03,2.4-5.82,5.12-8.31,8.09v-.21s0-.09,0-.13c.38-.44,.99-1.2,1.61-2.21l.03-.05c.13-.24,.28-.48,.43-.73,.34-.56,.73-1.19,1.03-1.91,.52-1.15,.86-2.36,1.03-3.6,.46-2.62-.07-5.21-.59-6.93-.57-1.86-1.27-3.11-1.3-3.16l-.74-1.3-1.21,.88c-.05,.04-1.35,.99-2.8,2.6l-.1,.12c-.32,.36-.68,.77-1.03,1.28-.36,.55-.68,1.1-.96,1.65-.67,1.32-1.09,2.62-1.27,3.89v.03c-.27,2.28,.28,4.72,1.59,7.08,.61,1.08,1.23,1.89,1.61,2.35,0,.06,0,.11,0,.17v.93l.21,2.38c-2.87,3.94-5.25,8.22-7.03,12.71-.02-.05-.04-.1-.05-.15l-.05-.13c.22-.54,.54-1.45,.8-2.59,.22-.84,.49-1.88,.58-3.03,.11-1.05,.06-2.3-.14-3.71-.4-2.64-1.74-4.95-2.78-6.42-1.13-1.59-2.19-2.55-2.24-2.59l-1.12-1-.86,1.23c-.04,.06-.95,1.36-1.8,3.32-1.06,2.24-1.45,5.18-1,7.67,.21,1.22,.74,2.48,1.56,3.72,.6,.9,1.33,1.75,2.19,2.53,.92,.84,1.77,1.41,2.28,1.72l.06,.18c.06,.16,.12,.32,.17,.48,.15,.43,.31,.88,.51,1.36l.54,1.21c-1.47,4.62-2.34,9.42-2.58,14.27l-.09-.11s-.06-.08-.09-.12c0-.12,0-.25,.01-.41,0-.34,0-.69-.02-1.07-.03-.34-.04-.72-.05-1.14-.04-1.09-.19-2.15-.45-3.16-.15-.6-.34-1.18-.56-1.74l-.09-.23c-.19-.48-.38-.97-.65-1.48-1.24-2.38-3.25-4.14-4.72-5.2-1.59-1.15-2.87-1.71-2.92-1.73l-1.27-.55-.5,1.29c-.03,.08-.19,.51-.31,1.2-.12,.6-.28,1.56-.36,2.7v.07c-.06,1.08-.12,2.29,.14,3.62,.29,1.45,.75,2.75,1.39,3.86,1.1,1.98,3.01,3.61,5.52,4.7,1.15,.5,2.15,.77,2.73,.9,.04,.05,.08,.1,.12,.15l1.18,1.45c.34,.42,.64,.76,.93,1.08,.1,4.84,.8,9.68,2.11,14.38-.07-.04-.13-.08-.2-.12l-.12-.08c-.03-.11-.07-.24-.11-.38-.16-.54-.41-1.22-.75-2.11l-.02-.05c-.65-1.53-1.74-3.79-3.75-5.66-1.52-1.45-3.56-2.6-6.08-3.42-1.83-.59-3.25-.71-3.31-.71l-1.43-.12L0,61.38s0,.45,.04,1.07c.03,.74,.2,1.7,.48,2.76,.34,1.34,.78,2.46,1.32,3.44,.75,1.38,1.58,2.45,2.55,3.27,1.01,.87,2.16,1.54,3.43,2,1.02,.36,2.12,.59,3.27,.69,.51,.05,.99,.06,1.42,.06,.6,0,1.09-.03,1.44-.07l.15,.1c.97,.63,1.99,1.22,2.88,1.73,1.61,4.57,3.81,8.92,6.54,12.93l-.19-.05-.16-.04c-.06-.09-.14-.2-.22-.31-.33-.48-.79-1.11-1.4-1.8-1.7-1.93-3.46-3.3-5.37-4.18-2.56-1.14-5.15-1.34-6.86-1.29-1.95,.04-3.32,.37-3.38,.38l-1.38,.33,.42,1.35s.15,.47,.45,1.1c.26,.56,.69,1.42,1.31,2.39,.65,.98,1.46,1.95,2.35,2.83,1.02,.96,2.21,1.75,3.44,2.28h.03c1.28,.53,2.68,.8,4.13,.8,1,0,2.04-.12,3.08-.37,1.23-.3,2.2-.69,2.74-.94l2.01,.5,1.4,.27c2.99,3.8,6.47,7.23,10.36,10.19-.13,.01-.26,.02-.39,.03-.08-.06-.17-.13-.28-.21-.6-.45-1.25-.88-1.93-1.25-.92-.56-1.87-1.03-2.82-1.37-1.21-.48-2.42-.78-3.58-.89-2.09-.25-4.42,.07-6.93,.95-1.82,.64-3.03,1.4-3.08,1.44l-1.21,.76,.85,1.15c.04,.06,1.03,1.39,2.74,2.71,.89,.73,1.98,1.41,3.13,1.94,1.24,.6,2.63,.98,4.01,1.08,.25,.02,.51,.03,.77,.03,1.05,0,2.12-.17,3.2-.52,1.02-.33,2.04-.8,3.02-1.41,1.07-.67,1.87-1.35,2.3-1.75,1.18-.08,2.35-.2,3.49-.36,3.97,2.64,8.36,4.77,13.07,6.38-.08,.03-.15,.07-.23,.1l-.13,.05c-.11-.04-.23-.08-.36-.12-.49-.16-1.12-.31-1.84-.49l-.39-.09c-2.53-.52-4.75-.55-6.79-.1-1.17,.25-2.36,.7-3.54,1.33-.94,.49-1.86,1.09-2.73,1.77-1.52,1.19-2.43,2.3-2.47,2.34l-.93,1.14,1.22,.81s.38,.25,.95,.57c.82,.46,1.67,.85,2.5,1.13,1.09,.4,2.93,.93,5,.93,.88,0,1.8-.1,2.72-.34,2.24-.57,4.32-1.96,6.01-4.02,.79-.96,1.32-1.84,1.61-2.37l.18-.07c1.12-.48,2.19-.98,3-1.38,1.22,.44,2.51,.86,3.88,1.3,2.2,.72,4.56,1.49,6.91,2.43-3.73,2.05-7.11,4.74-9.4,8.56-.38,.63-.17,1.45,.46,1.83,.21,.13,.45,.19,.68,.19,.45,0,.89-.23,1.14-.65,2.36-3.93,6.15-6.58,10.27-8.56,4.13,1.98,7.92,4.62,10.27,8.56,.25,.42,.69,.65,1.14,.65,.23,0,.47-.06,.68-.19,.63-.38,.84-1.2,.46-1.83-2.29-3.82-5.67-6.52-9.4-8.56,2.34-.93,4.71-1.71,6.91-2.43,1.36-.45,2.66-.87,3.88-1.3,.82,.39,1.89,.9,3.03,1.39l.15,.06c.29,.52,.82,1.4,1.61,2.37,1.69,2.06,3.77,3.45,6.01,4.02,.93,.24,1.85,.34,2.73,.34,2.07,0,3.9-.53,4.96-.92,.86-.29,1.71-.67,2.52-1.13,.58-.32,.92-.55,.96-.57l1.22-.81-.93-1.14s-.94-1.15-2.47-2.34c-.87-.68-1.79-1.28-2.72-1.77-1.19-.64-2.38-1.08-3.54-1.33-2.05-.45-4.27-.42-6.8,.1l-.39,.09c-.73,.18-1.35,.33-1.82,.48-.14,.05-.27,.09-.38,.13l-.1-.04c-.08-.04-.17-.07-.26-.11,4.72-1.6,9.11-3.74,13.07-6.38,1.14,.16,2.31,.28,3.49,.36,.44,.4,1.23,1.08,2.3,1.75,.98,.61,1.99,1.08,3.01,1.4,1.08,.35,2.15,.52,3.2,.52,.26,0,.51-.01,.77-.03,1.38-.1,2.77-.48,3.99-1.07,1.17-.54,2.26-1.22,3.12-1.93,1.74-1.35,2.73-2.68,2.77-2.74l.85-1.15-1.21-.76c-.05-.03-1.26-.79-3.08-1.44-2.5-.88-4.83-1.2-6.89-.95-1.19,.11-2.41,.41-3.62,.89-.95,.34-1.9,.81-2.82,1.37-.68,.38-1.33,.8-1.94,1.26-.1,.08-.19,.15-.27,.21-.13,0-.26-.02-.39-.03,3.89-2.96,7.37-6.39,10.36-10.18l1.34-.26,1.92-.46,.16-.04c.54,.25,1.51,.63,2.74,.93,1.04,.25,2.07,.37,3.08,.37,1.46,0,2.85-.26,4.13-.78h.03c1.23-.54,2.42-1.33,3.46-2.31,.87-.85,1.68-1.83,2.35-2.84,.6-.95,1.03-1.81,1.28-2.35,.31-.64,.44-1.07,.46-1.11l.42-1.35-1.38-.33c-.06-.01-1.43-.34-3.37-.38-1.72-.05-4.31,.15-6.88,1.3-1.9,.88-3.66,2.24-5.35,4.17-.62,.69-1.08,1.32-1.41,1.8-.08,.11-.15,.21-.22,.3l-.35,.09c2.72-4.01,4.93-8.35,6.53-12.92,.89-.51,1.91-1.1,2.89-1.74l.14-.09c.35,.03,.84,.07,1.44,.07,.43,0,.91-.02,1.42-.06,1.15-.1,2.25-.34,3.28-.7,1.26-.45,2.41-1.12,3.42-1.99,.97-.82,1.8-1.89,2.54-3.26,.55-.99,.99-2.12,1.33-3.44,.28-1.07,.45-2.03,.48-2.73,.05-.66,.05-1.07,.04-1.11l-.02-1.43Zm-10.8-8.56c.03-.9,.16-1.78,.37-2.61,.12-.48,.27-.96,.46-1.42l.09-.24c.16-.42,.32-.82,.52-1.21,1-1.92,2.69-3.38,3.92-4.28,.35-.25,.68-.47,.98-.65,.07,.44,.14,.97,.18,1.54v.07c.05,.96,.11,1.96-.09,2.96-.23,1.17-.6,2.2-1.09,3.06v.02c-.83,1.49-2.27,2.69-4.27,3.56-.4,.17-.78,.31-1.11,.42,.03-.4,.05-.82,.05-1.22ZM100.7,11.68c-.9-.01-1.85-.13-2.82-.33h-.07c-1.07-.18-1.96-.48-2.74-.93-.2-.11-.4-.25-.61-.4l-.1-.07c-.2-.12-.4-.25-.59-.4-.36-.27-.73-.59-1.09-.97-.48-.48-.9-1.06-1.31-1.62-.18-.24-.35-.48-.52-.69-.36-.49-.66-.97-.9-1.38,.46-.15,1.04-.3,1.7-.43,.77-.17,1.7-.2,2.92-.08,.57,.06,1.13,.17,1.67,.31,.27,.07,.53,.15,.78,.24,.24,.11,.48,.24,.73,.38,.95,.55,1.83,1.28,2.61,2.16,.56,.71,1.04,1.54,1.52,2.61,.25,.58,.44,1.11,.57,1.54-.59,.04-1.17,.05-1.75,.04Zm14.23,5.56c-.2-.27-.41-.59-.63-.94-.15-.27-.31-.53-.48-.81-.31-.5-.62-1.02-.87-1.61-.42-.93-.69-1.9-.83-2.89v-.06c-.38-2.11,.06-4.27,.51-5.72,.13-.41,.26-.79,.39-1.12,.34,.32,.72,.69,1.11,1.12l.11,.12c.29,.33,.57,.65,.8,.98,.3,.47,.58,.93,.81,1.4,.53,1.05,.87,2.07,1.01,3.03,.25,2.17-.55,4.16-1.27,5.45-.22,.39-.44,.73-.64,1.03ZM38.86,10.11c.48-1.08,.97-1.91,1.52-2.62,.78-.89,1.66-1.62,2.61-2.16,.25-.14,.49-.27,.73-.38,.25-.09,.52-.17,.78-.24,.54-.14,1.1-.25,1.66-.31,1.23-.13,2.17-.1,2.98,.08,.64,.12,1.2,.28,1.66,.42-.24,.41-.55,.88-.9,1.38-.17,.22-.34,.45-.52,.69-.41,.56-.84,1.13-1.32,1.63-.35,.37-.71,.69-1.08,.96-.19,.14-.39,.28-.59,.4l-.1,.07c-.21,.16-.41,.29-.61,.4-.77,.45-1.67,.75-2.74,.92h-.07c-.98,.22-1.93,.33-2.83,.34-.57,.01-1.15,0-1.74-.04,.13-.43,.31-.96,.57-1.53Zm-14.96,.65c.14-.96,.47-1.98,1.01-3.04,.23-.46,.51-.93,.8-1.38,.24-.35,.51-.66,.81-1l.09-.11c.4-.44,.78-.82,1.12-1.14,.13,.33,.26,.71,.39,1.12,.44,1.45,.89,3.61,.51,5.72v.06c-.14,.99-.42,1.96-.85,2.91-.24,.56-.55,1.08-.86,1.58-.17,.28-.33,.54-.48,.81-.22,.35-.43,.67-.63,.94-.2-.3-.42-.64-.64-1.03-.72-1.29-1.52-3.29-1.27-5.46ZM9.75,52.18c-2-.87-3.43-2.07-4.26-3.56v-.02c-.5-.86-.87-1.89-1.1-3.06-.2-1-.15-1.99-.09-2.96v-.04c.04-.58,.11-1.11,.18-1.56,.3,.18,.63,.4,.97,.65,1.23,.89,2.92,2.36,3.93,4.29,.2,.37,.35,.77,.52,1.19l.09,.24c.18,.45,.33,.92,.45,1.41,.21,.83,.33,1.71,.37,2.57,0,.45,.02,.88,.05,1.25h0c-.34-.1-.71-.24-1.11-.41Zm1.58,19.77c-.93-.09-1.82-.27-2.62-.55-.95-.34-1.82-.85-2.58-1.5h-.01c-.72-.62-1.33-1.42-1.94-2.54-.44-.78-.79-1.71-1.08-2.83-.15-.55-.26-1.08-.33-1.54,.35,.08,.74,.19,1.16,.32,2.12,.69,3.82,1.64,5.07,2.83,1.63,1.53,2.56,3.43,3.11,4.74,.16,.42,.3,.8,.42,1.13-.36-.01-.76-.01-1.2-.05Zm4.94-42.03c-.08,.96-.31,1.85-.52,2.63v.05c-.1,.41-.2,.78-.3,1.11-.29-.22-.6-.47-.93-.77-.69-.63-1.28-1.31-1.76-2.03-.62-.93-1.01-1.84-1.16-2.7h0c-.35-1.96-.04-4.35,.79-6.09l.02-.05c.23-.54,.47-1.02,.69-1.43,.23,.27,.47,.59,.72,.94,.88,1.23,2,3.15,2.32,5.27,.17,1.19,.22,2.21,.13,3.07Zm2.86,60.27c-2.03,.49-3.91,.39-5.57-.28-.95-.41-1.87-1.02-2.64-1.75-.74-.72-1.42-1.55-1.95-2.35-.32-.5-.58-.98-.79-1.39,.35-.03,.76-.06,1.19-.07,1.45-.03,3.61,.12,5.7,1.06,1.56,.72,3.02,1.87,4.49,3.53,.29,.32,.53,.63,.75,.91-.34,.12-.74,.24-1.17,.34Zm13.23,14.79c-.79,.49-1.6,.87-2.42,1.13-1.01,.32-1.99,.45-2.94,.37h-.01c-1.05-.08-2.11-.36-3.07-.83-.97-.45-1.85-1-2.6-1.61-.46-.36-.86-.71-1.18-1.03,.33-.14,.7-.29,1.1-.44,2.12-.74,4.04-1.02,5.77-.81,.96,.09,1.9,.32,2.89,.72l.05,.02c.8,.29,1.6,.68,2.38,1.16l.05,.03c.38,.21,.71,.42,1,.61-.29,.22-.62,.46-1,.69Zm17.22,9.84c-1.35,1.64-2.9,2.7-4.61,3.13h-.01c-2.4,.63-4.87-.05-6.16-.52-.48-.16-.96-.36-1.44-.6,.27-.24,.57-.51,.92-.78,.74-.58,1.52-1.09,2.33-1.51,.97-.52,1.93-.88,2.86-1.08,1.67-.37,3.53-.33,5.67,.11l.32,.08c.31,.07,.59,.14,.85,.21-.2,.3-.44,.62-.72,.97Zm41.73-1.17l.32-.08c2.14-.44,4-.47,5.68-.1,.92,.2,1.88,.56,2.86,1.08,.8,.42,1.58,.92,2.32,1.51,.35,.27,.65,.53,.92,.78-.48,.23-.96,.44-1.47,.61-1.26,.46-3.74,1.15-6.13,.52h-.01c-1.71-.44-3.26-1.49-4.61-3.13-.28-.34-.52-.67-.72-.97,.26-.07,.55-.14,.85-.21Zm17.09-9.96l.05-.03c.78-.48,1.59-.87,2.38-1.16l.05-.02c.99-.4,1.93-.63,2.92-.72,1.69-.2,3.61,.07,5.73,.81,.41,.14,.78,.3,1.11,.44-.33,.32-.74,.69-1.21,1.06-.71,.59-1.6,1.14-2.59,1.6-.94,.46-2,.74-3.05,.82h-.01c-.94,.08-1.93-.05-2.94-.37-.81-.26-1.63-.64-2.42-1.13-.38-.24-.71-.47-1-.69,.28-.19,.62-.4,1-.61Zm12.81-14.75c1.45-1.65,2.92-2.8,4.46-3.51,2.11-.94,4.27-1.09,5.72-1.06,.43,0,.83,.03,1.19,.07-.21,.4-.47,.87-.77,1.36-.55,.83-1.23,1.65-1.95,2.36-.79,.75-1.71,1.36-2.66,1.77-1.66,.67-3.54,.77-5.56,.28-.44-.11-.83-.23-1.18-.34,.21-.28,.46-.59,.75-.92Zm3.4-62.07c.32-2.12,1.44-4.04,2.32-5.28,.25-.35,.49-.66,.72-.94,.22,.41,.45,.89,.69,1.43l.02,.05c.83,1.74,1.14,4.13,.79,6.08h0c-.15,.87-.54,1.78-1.16,2.71-.48,.72-1.07,1.4-1.76,2.03-.33,.3-.64,.55-.93,.77-.1-.33-.2-.7-.29-1.1v-.05c-.22-.78-.45-1.67-.53-2.66-.09-.83-.05-1.85,.13-3.03Zm13.04,37.69c-.29,1.11-.64,2.03-1.09,2.83-.6,1.1-1.21,1.9-1.93,2.51h-.01c-.76,.67-1.63,1.17-2.57,1.51-.81,.28-1.7,.47-2.63,.56-.44,.04-.85,.07-1.2,.05,.12-.33,.26-.71,.42-1.13,.55-1.31,1.48-3.21,3.12-4.75,1.23-1.18,2.93-2.12,5.05-2.81,.42-.14,.82-.24,1.17-.32-.07,.45-.18,.99-.33,1.55Z"/><path class="b" d="M27.85,57.43c0,23.5,19.12,42.63,42.63,42.63s42.62-19.12,42.62-42.63S93.98,14.8,70.48,14.8,27.85,33.93,27.85,57.43Zm28.57,27.15h-.22l-.09-.32c-.1,.13-.23,.23-.39,.29-.15,.06-.31,.09-.47,.09-.2,0-.38-.04-.53-.11s-.29-.17-.4-.28c-.11-.12-.19-.26-.25-.41-.06-.16-.09-.32-.09-.48,0-.19,.03-.36,.08-.53,.05-.17,.13-.32,.24-.44,.11-.13,.24-.23,.4-.3s.34-.11,.55-.11c.14,0,.28,.02,.41,.05,.13,.03,.24,.08,.34,.15,.1,.07,.19,.16,.25,.26,.07,.11,.11,.23,.14,.39h-.35c-.02-.1-.05-.18-.1-.25-.05-.07-.11-.13-.18-.17-.07-.05-.15-.08-.24-.1-.09-.02-.18-.03-.28-.03-.16,0-.3,.03-.42,.09-.12,.06-.21,.14-.28,.25-.07,.1-.13,.22-.16,.35-.03,.13-.05,.26-.05,.4s.02,.26,.06,.39c.04,.12,.1,.23,.18,.33,.08,.09,.17,.17,.29,.23,.11,.06,.24,.08,.39,.08,.14,0,.26-.02,.37-.06,.11-.04,.2-.1,.27-.18,.07-.08,.13-.16,.17-.27,.04-.1,.05-.21,.05-.33h-.85v-.29h1.17v1.35Zm8.5-15.35c-.52,.21-1.07,.34-1.63,.4-.4,.04-.81,.06-1.21,.09-.8-.01-1.59-.09-2.36-.32-.77-.23-1.45-.61-1.99-1.22-.46-.53-.73-1.15-.89-1.82-.18-.76-.2-1.53-.14-2.31,.12-1.55,.48-3.06,.93-4.55,.41-1.36,.9-2.69,1.55-3.96,.37-.72,.78-1.41,1.32-2.01,.24-.26,.5-.5,.8-.68,.54-.32,1.07-.32,1.61,0,.35,.2,.64,.48,.9,.79,.5,.58,.89,1.24,1.23,1.92,.65,1.29,1.15,2.64,1.55,4.02,.31,1.04,.56,2.09,.73,3.16,.14,.85,.22,1.7,.17,2.57-.04,.59-.15,1.16-.36,1.72-.42,1.06-1.17,1.78-2.21,2.21Zm.3,4.55v2.81h-.42v-2.81h.42Zm-3.04,1.07v.4h-1.09v.94h1.13v.4h-1.55v-2.81h1.55v.4h-1.13v.68h1.09Zm-5.24-1.2l.36,.14-.52,1.04-.28-.11,.43-1.07Zm-.22,2.93h-.46l-.29-.68h-1.2l-.31,.68h-.46l1.39-2.99,1.34,2.99Zm.81,4.23h-.49l-.8-2.84h0l-.81,2.84h-.49l-.9-3.38h.48l.69,2.81h0l.79-2.81h.51l.78,2.81h0l.71-2.81h.47l-.94,3.38Zm2.02,0h-.47v-3.38h.47v3.38Zm.2-4.59c-.15,.13-.31,.23-.48,.28-.16,.05-.38,.08-.66,.08h-.58v-2.81h.59c.28,0,.51,.03,.67,.08,.18,.05,.34,.15,.48,.28,.29,.26,.44,.61,.44,1.04s-.15,.78-.45,1.05Zm3.53,4.59h-.51l-1.84-2.71h0v2.71h-.44v-3.38h.5l1.85,2.74h0v-2.74h.44v3.38Zm.18-4.18c-.24,0-.45-.07-.6-.22-.16-.14-.25-.35-.29-.61l.43-.09c.02,.17,.05,.28,.1,.34,.09,.12,.21,.18,.38,.18,.13,0,.24-.04,.33-.13,.09-.09,.13-.2,.13-.34,0-.05,0-.1-.02-.15-.02-.05-.04-.09-.07-.13-.03-.04-.07-.07-.12-.11-.05-.03-.11-.07-.18-.1l-.27-.11c-.38-.16-.58-.4-.58-.71,0-.21,.08-.39,.24-.53,.16-.14,.36-.21,.6-.21,.32,0,.58,.16,.76,.47l-.34,.2c-.06-.11-.13-.18-.18-.22-.06-.04-.14-.06-.23-.06-.12,0-.22,.03-.29,.1-.08,.07-.12,.15-.12,.25,0,.14,.1,.25,.31,.33l.28,.11c.23,.09,.4,.2,.5,.34,.11,.13,.16,.3,.16,.49,0,.26-.09,.47-.26,.64-.17,.17-.39,.25-.65,.25Zm.73,.8h.5l1.85,2.74h0v-2.74h.44v3.38h-.51l-1.84-2.71h0v2.71h-.44v-3.38Zm2.72,6.37c-.05,.16-.13,.3-.24,.43-.11,.12-.24,.22-.4,.3-.16,.07-.34,.11-.56,.11s-.4-.04-.56-.11c-.16-.07-.29-.17-.4-.3-.11-.12-.19-.27-.24-.43-.05-.16-.08-.33-.08-.5s.03-.34,.08-.5c.05-.16,.13-.3,.24-.43,.11-.12,.24-.22,.4-.3,.16-.07,.34-.11,.56-.11s.4,.04,.56,.11c.16,.07,.29,.17,.4,.3,.11,.12,.19,.27,.24,.43,.05,.16,.08,.33,.08,.5s-.03,.34-.08,.5Zm-.8-7.59c-.28-.29-.42-.63-.42-1.03s.14-.75,.43-1.04c.29-.29,.63-.43,1.04-.43,.22,0,.42,.04,.62,.13,.18,.09,.36,.24,.54,.44l-.3,.29c-.23-.31-.51-.46-.84-.46-.3,0-.55,.1-.75,.31-.2,.2-.3,.45-.3,.76s.11,.57,.34,.77c.21,.19,.44,.28,.68,.28,.21,0,.4-.07,.56-.21,.17-.14,.26-.31,.28-.51h-.7v-.4h1.16v.09c0,.21-.02,.4-.07,.56-.05,.15-.13,.29-.25,.42-.26,.29-.59,.44-1,.44s-.73-.14-1.01-.43Zm4.22,4.6h-2.44v-3.38h2.43v.38h-1.96v1.07h1.83v.38h-1.83v1.17h1.97v.38Zm-1.01-6.2v1.97h-.42v-3l2.05,2.14v-1.95h.42v2.98l-2.05-2.14Zm4.05,6.2s-.05-.08-.07-.14c-.01-.06-.02-.13-.02-.2,0-.07,0-.15,0-.24,0-.09-.01-.17-.03-.25-.01-.08-.03-.16-.05-.23-.02-.07-.05-.14-.09-.19-.04-.06-.1-.1-.17-.13-.07-.03-.16-.05-.28-.05h-1.14v1.44h-.47v-3.38h1.65c.33,0,.6,.08,.78,.24,.19,.16,.28,.37,.28,.65,0,.21-.05,.38-.15,.54-.1,.15-.25,.26-.46,.32h0c.1,.03,.18,.06,.25,.1,.06,.04,.11,.1,.15,.16s.07,.13,.08,.21c.02,.08,.03,.15,.04,.24,0,.08,.01,.17,.01,.25,0,.09,.01,.17,.02,.25,.01,.08,.03,.16,.06,.23,.02,.07,.06,.14,.11,.2h-.52Zm.26-4.23h-.46l1.39-2.99,1.34,2.99h-.46l-.29-.68h-1.2l-.31,.68Zm3.2,7.99h-1.76v-2.56h.35v2.27h1.41v.29Zm1.27-4.12v.35h-2.28c.02-.2,.05-.37,.11-.51,.06-.14,.13-.26,.22-.37,.09-.1,.19-.2,.3-.27,.11-.08,.23-.15,.35-.22,.15-.09,.28-.17,.39-.24,.11-.07,.2-.15,.28-.22,.07-.08,.13-.16,.17-.25,.04-.09,.06-.19,.06-.31,0-.09-.02-.17-.05-.25-.04-.07-.08-.14-.15-.19-.06-.05-.13-.09-.21-.12-.08-.03-.17-.04-.26-.04-.12,0-.23,.02-.31,.07-.09,.05-.16,.11-.21,.19-.06,.08-.1,.17-.12,.27s-.04,.2-.03,.3h-.42c0-.17,0-.33,.05-.47,.05-.15,.12-.27,.21-.38,.1-.11,.22-.19,.36-.25,.14-.06,.31-.09,.49-.09,.15,0,.29,.02,.43,.06,.13,.04,.25,.1,.35,.18,.1,.08,.18,.18,.23,.3,.06,.12,.09,.26,.09,.42,0,.15-.02,.28-.07,.39-.05,.11-.11,.22-.19,.31s-.17,.17-.27,.24c-.1,.07-.21,.14-.31,.21-.11,.06-.22,.13-.32,.19-.11,.06-.21,.13-.3,.2-.09,.07-.17,.14-.23,.22s-.11,.17-.13,.28h1.79Zm-.43-5.69l-.75,1.99-1.19-2.99h.46l.73,1.88,.76-2.02,.73,2.02,.78-1.88h.46l-1.26,2.99-.72-1.99Zm3.44,4.78c0,.13-.02,.26-.05,.39-.03,.13-.06,.25-.11,.36-.05,.11-.12,.21-.2,.3-.09,.09-.19,.15-.32,.2-.13,.05-.28,.07-.47,.07s-.34-.02-.47-.07c-.13-.05-.24-.12-.32-.2-.09-.09-.15-.18-.2-.3-.05-.11-.09-.23-.11-.36-.03-.13-.04-.26-.05-.39s0-.26,0-.38,0-.25,0-.38c0-.13,.02-.26,.05-.39,.03-.13,.06-.25,.11-.36,.05-.11,.12-.21,.2-.3,.09-.09,.19-.15,.32-.2,.13-.05,.28-.08,.47-.08s.34,.03,.46,.08c.13,.05,.24,.12,.32,.2,.09,.09,.15,.18,.2,.3,.05,.11,.09,.23,.11,.36,.03,.13,.04,.26,.05,.39,0,.13,0,.26,0,.38s0,.25,0,.38Zm.23-3.65h-1.2l-.31,.68h-.46l1.39-2.99,1.34,2.99h-.46l-.29-.68Zm1.89,4.91h-.42v-2.4h-.91v-.32c.12,0,.23,0,.34-.03,.11-.02,.21-.05,.3-.1,.09-.05,.17-.11,.23-.19,.06-.08,.1-.19,.13-.31h.32v3.35Zm.53-4.23l-.8-1.15h-.08v1.15h-.42v-2.81h.5c.37,0,.64,.07,.8,.21,.18,.16,.27,.36,.27,.62,0,.2-.06,.37-.17,.51-.11,.14-.26,.23-.45,.27l.87,1.2h-.52Zm2.68,2.63c-.08,.14-.19,.25-.33,.34-.14,.08-.3,.13-.47,.13s-.33-.03-.47-.08c-.14-.06-.25-.13-.35-.23-.09-.1-.16-.22-.21-.35-.05-.14-.07-.29-.07-.45s.03-.31,.08-.44c.06-.13,.13-.25,.24-.35,.1-.1,.22-.17,.36-.22,.14-.05,.3-.08,.46-.08s.32,.02,.46,.07c.14,.05,.27,.13,.38,.25,.11,.12,.19,.28,.26,.49,.06,.21,.1,.47,.1,.79,0,.58-.1,1.03-.29,1.34-.19,.31-.5,.47-.92,.47-.29,0-.53-.07-.73-.21-.19-.14-.3-.36-.33-.65h.42c.02,.16,.09,.29,.21,.38,.12,.09,.27,.13,.43,.13,.26,0,.45-.11,.58-.32s.2-.54,.21-.98h0Zm-1.74-2.63v-2.81h.59c.28,0,.51,.03,.67,.08,.18,.05,.34,.15,.48,.28,.29,.26,.44,.61,.44,1.04s-.15,.78-.45,1.05c-.15,.13-.31,.23-.48,.28-.16,.05-.38,.08-.66,.08h-.58Zm2.21,7.23c-.05,.17-.13,.31-.23,.42-.1,.11-.24,.2-.4,.26-.16,.06-.35,.09-.57,.09h-.91v-2.56h.91c.41,0,.73,.1,.95,.3,.22,.2,.33,.51,.33,.92,0,.21-.02,.41-.07,.57ZM53.98,29.22h33v41h-13.36l-11.12-30.98-8.34,23.25h-.17V29.22Z"/></svg>