<?xml version="1.0" encoding="utf-8"?>
<!-- Generator: Adobe Illustrator 26.2.1, SVG Export Plug-In . SVG Version: 6.00 Build 0)  -->
<svg version="1.0" id="Layer_1" xmlns="http://www.w3.org/2000/svg" xmlns:xlink="http://www.w3.org/1999/xlink" x="0px" y="0px"
	 viewBox="0 0 150 135" enable-background="new 0 0 150 135" xml:space="preserve">
<g>
	<g>
		<path fill="#FFFFFF" d="M139.6,65.6l0-1.3l-1.3,0.1c-0.1,0-1.4,0.1-3,0.7c-2.3,0.7-4.2,1.8-5.6,3.1c-1.8,1.7-2.9,3.8-3.4,5.2l0,0
			c-0.3,0.8-0.5,1.4-0.7,1.9c0,0.1-0.1,0.2-0.1,0.4l-0.1,0.1c-0.1,0-0.1,0.1-0.2,0.1c1.2-4.3,1.8-8.8,1.9-13.2
			c0.3-0.3,0.5-0.6,0.9-1l1.1-1.3c0,0,0.1-0.1,0.1-0.1c0.5-0.1,1.5-0.4,2.5-0.8c2.3-1,4.1-2.5,5.1-4.3c0.6-1,1-2.2,1.3-3.5
			c0.2-1.2,0.2-2.3,0.1-3.3l0-0.1c-0.1-1-0.2-1.9-0.3-2.4c-0.1-0.7-0.3-1-0.3-1.1l-0.5-1.2l-1.2,0.5c0,0-1.2,0.5-2.7,1.6
			c-1.3,1-3.2,2.6-4.3,4.8c-0.3,0.5-0.4,0.9-0.6,1.4l-0.1,0.2c-0.2,0.5-0.4,1.1-0.5,1.6c-0.2,0.9-0.4,1.9-0.4,2.9c0,0.4,0,0.7,0,1
			c0,0.3,0,0.6,0,0.9c0,0.1,0,0.3,0,0.4c0,0-0.1,0.1-0.1,0.1l-0.1,0.1c-0.2-4.4-1-8.9-2.4-13.1l0.5-1.1c0.2-0.4,0.3-0.8,0.5-1.2
			c0.1-0.1,0.1-0.3,0.2-0.5c0,0,0-0.1,0.1-0.1c0.5-0.3,1.3-0.8,2.1-1.6c0.8-0.7,1.5-1.5,2-2.3c0.8-1.1,1.2-2.3,1.4-3.4
			c0.4-2.3,0.1-5-0.9-7c-0.8-1.8-1.6-3-1.7-3l-0.8-1.1l-1,0.9c0,0-1,0.9-2.1,2.4c-1,1.3-2.2,3.5-2.6,5.9c-0.2,1.3-0.2,2.4-0.1,3.4
			c0.1,1.1,0.3,2,0.5,2.8c0.2,1,0.5,1.9,0.7,2.4c0,0,0,0.1,0,0.1c0,0.1,0,0.1-0.1,0.2c-1.6-4.1-3.8-8.1-6.4-11.7l0.1-1.2l0.1-0.9
			l0-0.9c0,0,0-0.1,0-0.2c0.4-0.4,0.9-1.2,1.5-2.2c1.2-2.2,1.7-4.4,1.5-6.5l0,0c-0.2-1.2-0.6-2.4-1.2-3.6c-0.3-0.5-0.5-1-0.9-1.5
			c-0.3-0.5-0.6-0.8-0.9-1.2l-0.1-0.1c-1.3-1.5-2.5-2.3-2.6-2.4l-1.1-0.8l-0.7,1.2c0,0-0.7,1.2-1.2,2.9c-0.5,1.6-1,4-0.5,6.4
			c0.2,1.1,0.5,2.2,0.9,3.3c0.3,0.7,0.6,1.3,1,1.8c0.1,0.2,0.3,0.5,0.4,0.7l0,0c0.6,0.9,1.1,1.6,1.5,2c0,0,0,0.1,0,0.1l0,0.2
			c-2.3-2.7-4.9-5.2-7.6-7.4c0-0.1-0.1-0.3-0.1-0.5l0-0.1c-0.1-0.5-0.4-1.4-0.8-2.3c-0.5-1.2-1.1-2.1-1.7-3l0,0
			c-0.9-1-1.9-1.9-3-2.5c-0.3-0.2-0.6-0.3-0.9-0.5l-0.1,0c-0.3-0.1-0.6-0.2-1-0.3c-0.6-0.2-1.2-0.3-1.9-0.4
			c-1.4-0.1-2.5-0.1-3.4,0.1c-2,0.4-3.3,1-3.3,1.1l-1.1,0.5l0.5,1.1c0,0.1,0.6,1.4,1.7,2.8l0,0c0.1,0.2,0.3,0.4,0.5,0.6
			c0.4,0.6,0.9,1.2,1.4,1.7c0.4,0.4,0.8,0.8,1.3,1.1c0.2,0.2,0.5,0.3,0.7,0.5c0.2,0.2,0.5,0.3,0.7,0.5c1,0.6,2.1,0.9,3.3,1.1
			c1,0.2,2.1,0.3,3,0.3c0.2,0,0.3,0,0.5,0c0.6,0,1.2,0,1.9-0.1c0.2,0,0.3,0,0.4,0c7.3,5.8,13.1,13.8,16.2,22.6
			c3.7,10.4,3.8,22,0.3,32.6c-3.4,10.5-10.4,19.7-19.8,25.9c-4.5,3-9.5,5.3-15,6.8l-0.1,0c-1.1,0.4-2.4,0.8-3.7,1.2
			c-7,2.3-15.6,5.1-20,12.4c-0.3,0.6-0.2,1.3,0.4,1.7c0.2,0.1,0.4,0.2,0.6,0.2c0.4,0,0.8-0.2,1.1-0.6c3.9-6.5,12.1-9.2,18.7-11.3
			c1.3-0.4,2.4-0.8,3.6-1.2c0.8,0.4,1.7,0.8,2.8,1.3l0.1,0.1c0.3,0.5,0.8,1.3,1.5,2.2c1.6,1.9,3.5,3.2,5.5,3.7
			c0.8,0.2,1.7,0.3,2.5,0.3c1.9,0,3.6-0.5,4.6-0.8c0.8-0.3,1.6-0.6,2.3-1c0.5-0.3,0.8-0.5,0.9-0.5l1.1-0.7l-0.8-1
			c0,0-0.9-1.1-2.3-2.1c-0.8-0.6-1.6-1.2-2.5-1.6c-1.1-0.6-2.2-1-3.3-1.2c-1.9-0.4-3.9-0.4-6.2,0.1l-0.4,0.1
			c-0.7,0.2-1.2,0.3-1.7,0.4c-0.1,0-0.2,0.1-0.3,0.1l-0.1,0c-0.1,0-0.2-0.1-0.2-0.1c4.3-1.5,8.4-3.4,12-5.9c1.1,0.1,2.1,0.3,3.2,0.3
			c0.4,0.4,1.1,1,2.1,1.6c0.9,0.6,1.8,1,2.8,1.3c1,0.3,2,0.5,2.9,0.5c0.2,0,0.5,0,0.7,0c1.3-0.1,2.5-0.4,3.7-1
			c1.1-0.5,2.1-1.1,2.9-1.8c1.6-1.2,2.5-2.5,2.5-2.5l0.8-1.1l-1.1-0.7c0,0-1.2-0.7-2.8-1.3c-2.3-0.8-4.4-1.1-6.3-0.9
			c-1.1,0.1-2.2,0.4-3.3,0.8c-0.9,0.3-1.7,0.7-2.6,1.3c-0.6,0.3-1.2,0.7-1.8,1.2c-0.1,0.1-0.2,0.1-0.2,0.2c-0.1,0-0.2,0-0.4,0
			c3.6-2.7,6.8-5.9,9.5-9.3L117,94l1.8-0.4l0.2,0c0.5,0.2,1.4,0.6,2.5,0.9c1,0.2,1.9,0.3,2.8,0.3c1.3,0,2.6-0.2,3.8-0.7l0,0
			c1.1-0.5,2.2-1.2,3.2-2.1c0.8-0.8,1.5-1.7,2.2-2.6c0.5-0.9,0.9-1.7,1.2-2.2c0.3-0.6,0.4-1,0.4-1l0.4-1.2l-1.3-0.3
			c-0.1,0-1.3-0.3-3.1-0.3c-1.6,0-4,0.1-6.3,1.2c-1.7,0.8-3.4,2.1-4.9,3.8c-0.6,0.6-1,1.2-1.3,1.7c-0.1,0.1-0.1,0.2-0.2,0.3
			l-0.3,0.1c2.5-3.7,4.5-7.7,6-11.9c0.8-0.5,1.8-1,2.7-1.6l0.1-0.1c0.3,0,0.8,0.1,1.3,0.1c0.4,0,0.8,0,1.3-0.1
			c1.1-0.1,2.1-0.3,3-0.6c1.2-0.4,2.2-1,3.1-1.8c0.9-0.8,1.7-1.7,2.3-3c0.5-0.9,0.9-1.9,1.2-3.2c0.3-1,0.4-1.9,0.4-2.5
			C139.6,66,139.6,65.6,139.6,65.6z M129.7,56.4c0-0.8,0.1-1.6,0.3-2.4c0.1-0.4,0.3-0.9,0.4-1.3l0.1-0.2c0.2-0.4,0.3-0.8,0.5-1.1
			c0.9-1.8,2.5-3.1,3.6-3.9c0.3-0.2,0.6-0.4,0.9-0.6c0.1,0.4,0.1,0.9,0.2,1.4l0,0.1c0,0.9,0.1,1.8-0.1,2.7c-0.2,1.1-0.5,2-1,2.8l0,0
			c-0.8,1.4-2.1,2.5-3.9,3.3c-0.4,0.2-0.7,0.3-1,0.4C129.6,57.1,129.7,56.7,129.7,56.4z M113.3,19.3L113.3,19.3
			c-0.4-2,0.1-4,0.5-5.3c0.1-0.4,0.2-0.7,0.4-1c0.3,0.3,0.7,0.6,1,1l0.1,0.1c0.3,0.3,0.5,0.6,0.7,0.9c0.3,0.4,0.5,0.9,0.7,1.3
			c0.5,1,0.8,1.9,0.9,2.8c0.2,2-0.5,3.8-1.2,5c-0.2,0.4-0.4,0.7-0.6,0.9c-0.2-0.3-0.4-0.5-0.6-0.9c-0.1-0.2-0.3-0.5-0.4-0.7
			c-0.3-0.5-0.6-0.9-0.8-1.5C113.7,21.1,113.4,20.2,113.3,19.3z M102.8,20c-0.8,0-1.7-0.1-2.6-0.3l-0.1,0c-1-0.2-1.8-0.4-2.5-0.8
			c-0.2-0.1-0.4-0.2-0.6-0.4L97,18.4c-0.2-0.1-0.4-0.2-0.5-0.4c-0.3-0.2-0.7-0.5-1-0.9c-0.4-0.4-0.8-1-1.2-1.5
			c-0.2-0.2-0.3-0.4-0.5-0.6c-0.3-0.5-0.6-0.9-0.8-1.3c0.4-0.1,1-0.3,1.6-0.4c0.7-0.2,1.6-0.2,2.7-0.1c0.5,0.1,1,0.2,1.5,0.3
			c0.2,0.1,0.5,0.1,0.7,0.2c0.2,0.1,0.4,0.2,0.7,0.3c0.9,0.5,1.7,1.2,2.4,2c0.5,0.7,1,1.4,1.4,2.4c0.2,0.5,0.4,1,0.5,1.4
			C103.9,20,103.4,20,102.8,20z M94.2,113.5l0.3-0.1c2-0.4,3.7-0.4,5.2-0.1c0.8,0.2,1.7,0.5,2.6,1c0.7,0.4,1.4,0.8,2.1,1.4
			c0.3,0.2,0.6,0.5,0.8,0.7c-0.4,0.2-0.9,0.4-1.3,0.6c-1.2,0.4-3.4,1.1-5.6,0.5l0,0c-1.6-0.4-3-1.4-4.2-2.9
			c-0.3-0.3-0.5-0.6-0.7-0.9C93.7,113.6,93.9,113.6,94.2,113.5z M109.9,104.4L109.9,104.4c0.8-0.5,1.5-0.8,2.2-1.1l0,0
			c0.9-0.4,1.8-0.6,2.7-0.7c1.5-0.2,3.3,0.1,5.3,0.7c0.4,0.1,0.7,0.3,1,0.4c-0.3,0.3-0.7,0.6-1.1,1c-0.7,0.5-1.5,1-2.4,1.5
			c-0.9,0.4-1.8,0.7-2.8,0.8l0,0c-0.9,0.1-1.8,0-2.7-0.3c-0.7-0.2-1.5-0.6-2.2-1c-0.3-0.2-0.7-0.4-0.9-0.6
			C109.2,104.8,109.5,104.6,109.9,104.4z M121.6,90.8c1.3-1.5,2.7-2.6,4.1-3.2c1.9-0.9,3.9-1,5.3-1c0.4,0,0.8,0,1.1,0.1
			c-0.2,0.4-0.4,0.8-0.7,1.2c-0.5,0.8-1.1,1.5-1.8,2.2c-0.7,0.7-1.6,1.2-2.4,1.6c-1.5,0.6-3.2,0.7-5.1,0.3c-0.4-0.1-0.8-0.2-1.1-0.3
			C121.1,91.4,121.4,91.1,121.6,90.8z M124.8,33.9c0.3-1.9,1.3-3.7,2.1-4.8c0.2-0.3,0.5-0.6,0.7-0.9c0.2,0.4,0.4,0.8,0.6,1.3l0,0
			c0.8,1.6,1,3.8,0.7,5.6l0,0c-0.1,0.8-0.5,1.6-1.1,2.5c-0.4,0.7-1,1.3-1.6,1.9c-0.3,0.3-0.6,0.5-0.9,0.7c-0.1-0.3-0.2-0.6-0.3-1
			l0,0c-0.2-0.7-0.4-1.5-0.5-2.4C124.6,35.9,124.6,35,124.8,33.9z M136.7,68.5c-0.3,1-0.6,1.9-1,2.6c-0.5,1-1.1,1.7-1.8,2.3l0,0
			c-0.7,0.6-1.5,1.1-2.4,1.4c-0.7,0.3-1.6,0.4-2.4,0.5c-0.4,0-0.8,0.1-1.1,0c0.1-0.3,0.2-0.6,0.4-1c0.5-1.2,1.4-2.9,2.9-4.4
			c1.1-1.1,2.7-1.9,4.6-2.6c0.4-0.1,0.8-0.2,1.1-0.3C137,67.4,136.9,67.9,136.7,68.5z"/>
		<path fill="#FFFFFF" d="M86.5,123.9c-4.4-7.3-13-10.1-20-12.4c-1.3-0.4-2.5-0.8-3.7-1.2l-0.1,0c-5.5-1.5-10.6-3.8-15.1-6.8
			C38.4,97.2,31.4,88,27.9,77.5c-3.5-10.6-3.4-22.2,0.3-32.6c3.1-8.8,8.8-16.8,16.2-22.6c0.1,0,0.3,0,0.4,0c0.6,0.1,1.3,0.1,1.9,0.1
			c0.2,0,0.3,0,0.5,0c1,0,2-0.1,3-0.3c1.3-0.2,2.4-0.6,3.3-1.1c0.2-0.1,0.5-0.3,0.7-0.5c0.2-0.1,0.5-0.3,0.7-0.5
			c0.4-0.3,0.9-0.7,1.3-1.1c0.6-0.6,1-1.2,1.4-1.7c0.2-0.2,0.3-0.4,0.5-0.6l0,0c1.1-1.5,1.7-2.8,1.7-2.8l0.5-1.1L59.3,12
			c-0.1,0-1.4-0.7-3.3-1c-1-0.2-2.1-0.3-3.5-0.1c-0.6,0.1-1.3,0.2-1.9,0.4c-0.3,0.1-0.7,0.2-1,0.3l-0.1,0c-0.3,0.1-0.6,0.3-0.9,0.5
			c-1.1,0.6-2.1,1.5-3,2.5l0,0c-0.6,0.8-1.2,1.8-1.7,3c-0.4,1-0.7,1.8-0.8,2.3l0,0.1c0,0.2-0.1,0.3-0.1,0.5
			c-2.8,2.2-5.3,4.7-7.6,7.4l0-0.2c0,0,0-0.1,0-0.1c0.4-0.4,0.9-1.1,1.5-2l0,0c0.1-0.2,0.3-0.4,0.4-0.7c0.3-0.5,0.7-1.1,0.9-1.8
			c0.5-1.1,0.8-2.2,0.9-3.3c0.4-2.4-0.1-4.8-0.5-6.4c-0.5-1.7-1.2-2.9-1.2-2.9l-0.7-1.2L35.6,10c-0.1,0-1.2,0.9-2.6,2.4l-0.1,0.1
			c-0.3,0.3-0.6,0.7-0.9,1.2c-0.3,0.5-0.6,1-0.9,1.5c-0.6,1.2-1,2.4-1.2,3.6l0,0c-0.2,2.1,0.3,4.3,1.5,6.5c0.6,1,1.1,1.7,1.5,2.2
			c0,0.1,0,0.1,0,0.2l0,0.9l0.2,2.2c-2.6,3.6-4.8,7.5-6.5,11.7c0,0,0-0.1,0-0.1l0-0.1c0.2-0.5,0.5-1.3,0.7-2.4
			c0.2-0.8,0.4-1.7,0.5-2.8c0.1-1,0.1-2.1-0.1-3.4c-0.4-2.4-1.6-4.5-2.6-5.9c-1-1.5-2-2.3-2.1-2.4l-1-0.9l-0.8,1.1
			c0,0.1-0.9,1.2-1.7,3c-1,2.1-1.3,4.7-0.9,7c0.2,1.1,0.7,2.3,1.4,3.4c0.5,0.8,1.2,1.6,2,2.3c0.8,0.8,1.6,1.3,2.1,1.6l0.1,0.2
			c0.1,0.1,0.1,0.3,0.2,0.4c0.1,0.4,0.3,0.8,0.5,1.2l0.5,1.1C24,50,23.2,54.4,23,58.9l-0.1-0.1c0,0-0.1-0.1-0.1-0.1
			c0-0.1,0-0.2,0-0.4c0-0.3,0-0.6,0-1c0-0.3,0-0.7,0-1c0-1-0.2-2-0.4-2.9c-0.1-0.5-0.3-1.1-0.5-1.6l-0.1-0.2
			c-0.2-0.4-0.3-0.9-0.6-1.4c-1.1-2.2-3-3.8-4.3-4.8c-1.5-1.1-2.6-1.6-2.7-1.6L13,43.4l-0.5,1.2c0,0.1-0.2,0.5-0.3,1.1
			c-0.1,0.6-0.3,1.4-0.3,2.5l0,0.1c-0.1,1-0.1,2.1,0.1,3.3c0.3,1.3,0.7,2.5,1.3,3.5c1,1.8,2.8,3.3,5.1,4.3c1.1,0.5,2,0.7,2.5,0.8
			c0,0,0.1,0.1,0.1,0.1l1.1,1.3c0.3,0.4,0.6,0.7,0.9,1c0.1,4.4,0.7,8.9,1.9,13.2c-0.1,0-0.1-0.1-0.2-0.1l-0.1-0.1
			c0-0.1-0.1-0.2-0.1-0.3c-0.1-0.5-0.4-1.1-0.7-1.9l0,0c-0.6-1.4-1.6-3.5-3.4-5.2c-1.4-1.3-3.3-2.4-5.6-3.1c-1.7-0.5-3-0.7-3-0.7
			l-1.3-0.1l0,1.3c0,0,0,0.4,0,1c0,0.7,0.2,1.6,0.4,2.5c0.3,1.2,0.7,2.3,1.2,3.2c0.7,1.3,1.5,2.3,2.3,3c0.9,0.8,2,1.4,3.1,1.8
			c0.9,0.3,1.9,0.5,3,0.6c0.5,0,0.9,0.1,1.3,0.1c0.6,0,1,0,1.3-0.1l0.1,0.1c0.9,0.6,1.8,1.1,2.6,1.6c1.5,4.2,3.5,8.2,6,11.9l-0.2,0
			l-0.1,0c-0.1-0.1-0.1-0.2-0.2-0.3c-0.3-0.4-0.7-1-1.3-1.6c-1.6-1.8-3.2-3-4.9-3.8c-2.3-1.1-4.7-1.2-6.3-1.2c-1.8,0-3,0.3-3.1,0.3
			l-1.3,0.3l0.4,1.2c0,0,0.1,0.4,0.4,1c0.2,0.5,0.6,1.3,1.2,2.2c0.6,0.9,1.3,1.8,2.2,2.6c0.9,0.9,2,1.6,3.2,2.1l0,0
			c1.2,0.5,2.5,0.7,3.8,0.7c0.9,0,1.9-0.1,2.8-0.3c1.1-0.3,2-0.6,2.5-0.9l1.8,0.5l1.3,0.2c2.7,3.5,5.9,6.6,9.5,9.3
			c-0.1,0-0.2,0-0.4,0c-0.1-0.1-0.2-0.1-0.3-0.2c-0.6-0.4-1.1-0.8-1.8-1.2c-0.8-0.5-1.7-0.9-2.6-1.3c-1.1-0.4-2.2-0.7-3.3-0.8
			c-1.9-0.2-4.1,0.1-6.4,0.9c-1.7,0.6-2.8,1.3-2.8,1.3l-1.1,0.7l0.8,1.1c0,0.1,0.9,1.3,2.5,2.5c0.8,0.7,1.8,1.3,2.9,1.8
			c1.1,0.6,2.4,0.9,3.7,1c0.2,0,0.5,0,0.7,0c1,0,1.9-0.2,2.9-0.5c0.9-0.3,1.9-0.7,2.8-1.3c1-0.6,1.7-1.2,2.1-1.6
			c1.1-0.1,2.2-0.2,3.2-0.3c3.6,2.4,7.7,4.4,12,5.9c-0.1,0-0.1,0.1-0.2,0.1l-0.1,0c-0.1,0-0.2-0.1-0.3-0.1c-0.4-0.2-1-0.3-1.7-0.4
			L56,111c-2.3-0.5-4.4-0.5-6.2-0.1c-1.1,0.2-2.2,0.6-3.2,1.2c-0.9,0.5-1.7,1-2.5,1.6c-1.4,1.1-2.2,2.1-2.3,2.2l-0.8,1l1.1,0.7
			c0,0,0.3,0.2,0.9,0.5c0.8,0.4,1.5,0.8,2.3,1c1,0.4,2.7,0.9,4.6,0.9c0.8,0,1.7-0.1,2.5-0.3c2.1-0.5,4-1.8,5.5-3.7
			c0.7-0.9,1.2-1.7,1.5-2.2l0.2-0.1c1-0.4,2-0.9,2.8-1.3c1.1,0.4,2.3,0.8,3.6,1.2c6.6,2.2,14.8,4.8,18.7,11.3
			c0.2,0.4,0.6,0.6,1.1,0.6c0.2,0,0.4-0.1,0.6-0.2C86.7,125.2,86.9,124.5,86.5,123.9z M46.1,18.5c0.4-1,0.9-1.8,1.4-2.4
			c0.7-0.8,1.5-1.5,2.4-2c0.2-0.1,0.5-0.2,0.7-0.3c0.2-0.1,0.5-0.2,0.7-0.2c0.5-0.1,1-0.2,1.5-0.3c1.1-0.1,2-0.1,2.7,0.1
			c0.6,0.1,1.1,0.3,1.5,0.4c-0.2,0.4-0.5,0.8-0.8,1.3c-0.2,0.2-0.3,0.4-0.5,0.6c-0.4,0.5-0.8,1-1.2,1.5c-0.3,0.3-0.7,0.6-1,0.9
			c-0.2,0.1-0.4,0.3-0.5,0.4l-0.1,0.1c-0.2,0.1-0.4,0.3-0.6,0.4c-0.7,0.4-1.5,0.7-2.5,0.8l-0.1,0c-0.9,0.2-1.8,0.3-2.6,0.3
			c-0.5,0-1.1,0-1.6,0C45.7,19.5,45.9,19,46.1,18.5z M32.4,19.1c0.1-0.9,0.4-1.8,0.9-2.8c0.2-0.4,0.5-0.9,0.7-1.3
			c0.2-0.3,0.5-0.6,0.7-0.9l0.1-0.1c0.4-0.4,0.7-0.8,1-1c0.1,0.3,0.2,0.7,0.4,1c0.4,1.3,0.8,3.3,0.5,5.2l0,0.1
			c-0.1,0.9-0.4,1.8-0.8,2.7c-0.2,0.5-0.5,1-0.8,1.5c-0.2,0.3-0.3,0.5-0.4,0.7c-0.2,0.3-0.4,0.6-0.6,0.9c-0.2-0.3-0.4-0.6-0.6-0.9
			C32.9,22.9,32.1,21.1,32.4,19.1z M19.4,57.1c-1.8-0.8-3.2-1.9-3.9-3.3l0,0c-0.5-0.8-0.8-1.7-1-2.8c-0.2-0.9-0.1-1.8-0.1-2.7l0,0
			c0-0.5,0.1-1,0.2-1.4c0.3,0.2,0.6,0.4,0.9,0.6c1.1,0.8,2.7,2.2,3.6,3.9c0.2,0.3,0.3,0.7,0.5,1.1l0.1,0.2c0.2,0.4,0.3,0.8,0.4,1.3
			c0.2,0.8,0.3,1.6,0.3,2.4c0,0.4,0,0.8,0,1.1c0,0,0,0,0,0C20.1,57.4,19.7,57.3,19.4,57.1z M22.1,37.6c-0.6-0.9-0.9-1.7-1.1-2.5l0,0
			c-0.3-1.8,0-4,0.7-5.6l0,0c0.2-0.5,0.4-0.9,0.6-1.3c0.2,0.3,0.4,0.5,0.7,0.9c0.8,1.1,1.8,2.9,2.1,4.8c0.2,1.1,0.2,2,0.1,2.8
			c-0.1,0.9-0.3,1.7-0.5,2.4l0,0c-0.1,0.4-0.2,0.7-0.3,1c-0.3-0.2-0.6-0.4-0.9-0.7C23.1,38.9,22.6,38.3,22.1,37.6z M20.8,75.3
			c-0.9-0.1-1.7-0.2-2.4-0.5c-0.9-0.3-1.7-0.8-2.4-1.4l0,0c-0.7-0.6-1.2-1.3-1.8-2.3c-0.4-0.7-0.7-1.6-1-2.6c-0.1-0.5-0.2-1-0.3-1.4
			c0.3,0.1,0.7,0.2,1.1,0.3c1.9,0.6,3.5,1.5,4.6,2.6c1.5,1.4,2.3,3.1,2.9,4.3c0.1,0.4,0.3,0.7,0.4,1C21.6,75.3,21.2,75.3,20.8,75.3z
			 M28,92c-1.9,0.4-3.6,0.4-5.1-0.3c-0.9-0.4-1.7-0.9-2.4-1.6c-0.7-0.7-1.3-1.4-1.8-2.2c-0.3-0.5-0.5-0.9-0.7-1.3
			c0.3,0,0.7-0.1,1.1-0.1c1.3,0,3.3,0.1,5.2,1c1.4,0.7,2.8,1.7,4.1,3.2c0.3,0.3,0.5,0.6,0.7,0.8C28.7,91.8,28.4,91.9,28,92z
			 M40.1,105.6c-0.7,0.5-1.5,0.8-2.2,1c-0.9,0.3-1.8,0.4-2.7,0.3l0,0c-1-0.1-1.9-0.3-2.8-0.8c-0.9-0.4-1.7-0.9-2.4-1.5
			c-0.4-0.3-0.8-0.7-1.1-0.9c0.3-0.1,0.6-0.3,1-0.4c1.9-0.7,3.7-0.9,5.3-0.7c0.9,0.1,1.7,0.3,2.6,0.7l0,0c0.7,0.3,1.5,0.6,2.2,1.1
			l0,0c0.3,0.2,0.7,0.4,0.9,0.6C40.8,105.1,40.5,105.3,40.1,105.6z M55.9,114.6c-1.2,1.5-2.7,2.5-4.2,2.9l0,0
			c-2.2,0.6-4.5,0-5.7-0.5c-0.4-0.1-0.9-0.3-1.3-0.5c0.2-0.2,0.5-0.5,0.8-0.7c0.7-0.5,1.4-1,2.1-1.4c0.9-0.5,1.8-0.8,2.6-1
			c1.5-0.3,3.2-0.3,5.2,0.1l0.3,0.1c0.3,0.1,0.5,0.1,0.8,0.2C56.4,114,56.2,114.3,55.9,114.6z"/>
	</g>
	<g>
		<path fill="#FFFFFF" d="M100.5,71.6c-0.1-0.1-0.1-0.2-0.2-0.2c-0.1-0.1-0.2-0.1-0.3-0.1c-0.1,0-0.2,0-0.3,0.1
			c-0.1,0.1-0.1,0.1-0.2,0.2c-0.1,0.1-0.1,0.2-0.1,0.4c0,0.1,0,0.3,0,0.5c0,0.2,0,0.3,0,0.5s0.1,0.3,0.1,0.4
			c0.1,0.1,0.1,0.2,0.2,0.2s0.2,0.1,0.3,0.1c0.1,0,0.2,0,0.3-0.1c0.1-0.1,0.1-0.1,0.2-0.2c0.1-0.1,0.1-0.2,0.1-0.4s0-0.3,0-0.5
			c0-0.2,0-0.3,0-0.5C100.6,71.8,100.5,71.7,100.5,71.6z"/>
		<polygon fill="#FFFFFF" points="50.9,75.6 53.4,75.6 52.2,72.8 		"/>
		<polygon fill="#FFFFFF" points="68.1,75.6 70.6,75.6 69.4,72.8 		"/>
		<path fill="#FFFFFF" d="M77.6,73c0-0.8-0.6-1.3-1.7-1.3h-0.4v2.6h0.4C77,74.3,77.6,73.9,77.6,73z"/>
		<path fill="#FFFFFF" d="M82.4,71.7h-0.6v5.9h0.6c0.6,0,1-0.1,1.4-0.2c0.4-0.1,0.7-0.3,1-0.6c0.6-0.6,0.9-1.3,0.9-2.2
			c0-0.9-0.3-1.6-0.9-2.2C84.3,71.9,83.5,71.7,82.4,71.7z"/>
		<polygon fill="#FFFFFF" points="57.1,61.3 57.1,61.3 57.1,61.3 		"/>
		<path fill="#FFFFFF" d="M100.5,76.3c-0.1-0.1-0.1-0.2-0.2-0.2c-0.1-0.1-0.2-0.1-0.3-0.1c-0.1,0-0.2,0-0.3,0.1s-0.1,0.1-0.2,0.2
			c-0.1,0.1-0.1,0.2-0.1,0.4c0,0.1,0,0.3,0,0.5c0,0.2,0,0.3,0,0.5s0.1,0.3,0.1,0.4c0.1,0.1,0.1,0.2,0.2,0.2c0.1,0.1,0.2,0.1,0.3,0.1
			c0.1,0,0.2,0,0.3-0.1c0.1-0.1,0.1-0.1,0.2-0.2c0.1-0.1,0.1-0.2,0.1-0.4s0-0.3,0-0.5c0-0.2,0-0.3,0-0.5
			C100.6,76.5,100.5,76.4,100.5,76.3z"/>
		<path fill="#FFFFFF" d="M71.9,54.7c0.5,0,1.1,0,1.6,0c1.1-0.1,1.7-0.6,1.7-1.7c0.1-1-0.3-1.8-1.6-1.9c-0.6,0-1.1,0-1.7,0
			c-0.2,0-0.2,0.1-0.2,0.2c0,0.6,0,1.2,0,1.8c0,0.5,0,1,0,1.5C71.9,54.6,71.9,54.7,71.9,54.7z"/>
		<path fill="#FFFFFF" d="M75.1,22.7c-21.6,0-39.2,17.6-39.2,39.2s17.6,39.2,39.2,39.2s39.2-17.6,39.2-39.2S96.7,22.7,75.1,22.7z
			 M49.5,78.8h-1.3l4.1-8.8l4,8.8h-1.4l-0.9-2h-3.6L49.5,78.8z M60.7,73.5l-2.2,5.9L55,70.5h1.4l2.2,5.5l2.3-6l2.2,6l2.3-5.5h1.4
			l-3.7,8.8L60.7,73.5z M72,78.8l-0.9-2h-3.6l-0.9,2h-1.3l4.1-8.8l4,8.8H72z M78,78.8l-2.4-3.4h-0.2v3.4h-1.3v-8.3h1.5
			c1.1,0,1.9,0.2,2.4,0.6c0.5,0.5,0.8,1.1,0.8,1.8c0,0.6-0.2,1.1-0.5,1.5c-0.3,0.4-0.8,0.7-1.3,0.8l2.6,3.5H78z M85.7,77.8
			c-0.4,0.4-0.9,0.7-1.4,0.8c-0.5,0.2-1.1,0.2-2,0.2h-1.7v-8.3h1.7c0.8,0,1.5,0.1,2,0.2c0.5,0.2,1,0.4,1.4,0.8
			c0.9,0.8,1.3,1.8,1.3,3.1C87,75.9,86.5,77,85.7,77.8z M91.9,76c0-0.1-0.1-0.3-0.2-0.4c-0.1-0.1-0.2-0.2-0.4-0.3S91,75.1,90.8,75
			L90,74.7c-1.1-0.5-1.7-1.2-1.7-2.1c0-0.6,0.2-1.1,0.7-1.6c0.5-0.4,1.1-0.6,1.8-0.6c1,0,1.7,0.5,2.2,1.4l-1,0.6
			c-0.2-0.3-0.4-0.5-0.5-0.6c-0.2-0.1-0.4-0.2-0.7-0.2c-0.3,0-0.6,0.1-0.9,0.3c-0.2,0.2-0.3,0.4-0.3,0.7c0,0.4,0.3,0.7,0.9,1
			l0.8,0.3c0.7,0.3,1.2,0.6,1.5,1c0.3,0.4,0.5,0.9,0.5,1.4c0,0.8-0.3,1.4-0.8,1.9C92,78.7,91.3,79,90.6,79c-0.7,0-1.3-0.2-1.8-0.6
			c-0.5-0.4-0.8-1-0.9-1.8l1.3-0.3c0.1,0.5,0.2,0.8,0.3,1c0.3,0.4,0.6,0.5,1.1,0.5c0.4,0,0.7-0.1,1-0.4c0.3-0.3,0.4-0.6,0.4-1
			C92,76.2,92,76.1,91.9,76z M97.9,79h-3l0.9-1c0.2-0.3,0.4-0.5,0.6-0.7c0.1-0.2,0.2-0.3,0.3-0.5c0.1-0.1,0.1-0.2,0.1-0.3
			c0-0.1,0-0.1,0-0.2c0-0.1,0-0.1,0-0.2c0-0.1,0-0.1-0.1-0.1c0,0-0.1-0.1-0.1-0.1c-0.1,0-0.1,0-0.2,0c-0.1,0-0.2,0-0.3,0.1
			c-0.1,0.1-0.1,0.2-0.1,0.3c0,0,0,0.1,0,0.2H95c0-0.2,0-0.4,0.1-0.6c0.1-0.2,0.2-0.3,0.3-0.5s0.3-0.2,0.5-0.3
			c0.2-0.1,0.4-0.1,0.6-0.1c0.2,0,0.4,0,0.6,0.1c0.2,0.1,0.3,0.2,0.5,0.3c0.1,0.1,0.2,0.3,0.3,0.4c0.1,0.2,0.1,0.3,0.1,0.5
			c0,0.2,0,0.4-0.1,0.6c-0.1,0.2-0.2,0.4-0.4,0.5l-0.6,0.6h1.2V79z M97.9,74.3h-3l0.9-1c0.2-0.3,0.4-0.5,0.6-0.7
			c0.1-0.2,0.2-0.3,0.3-0.5c0.1-0.1,0.1-0.2,0.1-0.3c0-0.1,0-0.1,0-0.2c0-0.1,0-0.1,0-0.2c0-0.1,0-0.1-0.1-0.1c0,0-0.1-0.1-0.1-0.1
			c-0.1,0-0.1,0-0.2,0c-0.1,0-0.2,0-0.3,0.1c-0.1,0.1-0.1,0.2-0.1,0.3c0,0,0,0.1,0,0.2H95c0-0.2,0-0.4,0.1-0.6
			c0.1-0.2,0.2-0.3,0.3-0.5c0.1-0.1,0.3-0.2,0.5-0.3c0.2-0.1,0.4-0.1,0.6-0.1c0.2,0,0.4,0,0.6,0.1c0.2,0.1,0.3,0.2,0.5,0.3
			c0.1,0.1,0.2,0.3,0.3,0.4c0.1,0.2,0.1,0.3,0.1,0.5c0,0.2,0,0.4-0.1,0.6c-0.1,0.2-0.2,0.4-0.4,0.5l-0.6,0.6h1.2V74.3z M101.5,77.9
			c-0.1,0.2-0.2,0.5-0.3,0.6c-0.1,0.2-0.3,0.3-0.5,0.4c-0.2,0.1-0.4,0.1-0.6,0.1c-0.2,0-0.5,0-0.6-0.1c-0.2-0.1-0.4-0.2-0.5-0.4
			c-0.1-0.2-0.3-0.4-0.3-0.6c-0.1-0.2-0.1-0.5-0.1-0.8c0-0.3,0-0.6,0.1-0.8c0.1-0.2,0.2-0.5,0.3-0.6c0.1-0.2,0.3-0.3,0.5-0.4
			c0.2-0.1,0.4-0.1,0.6-0.1c0.2,0,0.5,0,0.6,0.1c0.2,0.1,0.4,0.2,0.5,0.4c0.1,0.2,0.3,0.4,0.3,0.6c0.1,0.2,0.1,0.5,0.1,0.8
			C101.6,77.4,101.6,77.6,101.5,77.9z M101.5,73.2c-0.1,0.2-0.2,0.5-0.3,0.6c-0.1,0.2-0.3,0.3-0.5,0.4c-0.2,0.1-0.4,0.1-0.6,0.1
			c-0.2,0-0.5,0-0.6-0.1S99,74,98.9,73.8c-0.1-0.2-0.3-0.4-0.3-0.6c-0.1-0.2-0.1-0.5-0.1-0.8s0-0.6,0.1-0.8c0.1-0.2,0.2-0.5,0.3-0.6
			c0.1-0.2,0.3-0.3,0.5-0.4s0.4-0.1,0.6-0.1c0.2,0,0.5,0,0.6,0.1c0.2,0.1,0.4,0.2,0.5,0.4c0.1,0.2,0.3,0.4,0.3,0.6
			c0.1,0.2,0.1,0.5,0.1,0.8S101.6,73,101.5,73.2z M101.9,62.3h-0.2v-0.8l-0.3,0.8h-0.2l-0.3-0.8v0.8h-0.2v-1h0.3l0.2,0.7l0.2-0.7
			h0.3V62.3z M95.5,62.7c0.1,0,0.2,0,0.4,0c1.9,0,3.8,0,5.6,0c0.4,0,0.4,0,0.4,0.4c0,1.5,0,3,0,4.5c0,0.2-0.1,0.3-0.3,0.3
			c-6.6,0-13.2,0-19.8,0c-0.3,0-0.4,0-0.4-0.3c0-1.1,0-2.3,0-3.4c0,0,0-0.1,0-0.2c-0.2,0.4-0.3,0.7-0.5,1c-0.9,1.5-2.2,2.4-3.8,2.7
			c-0.7,0.2-1.4,0.2-2.2,0.2c-5.2,0-10.4,0-15.6,0c-0.1,0-0.1,0-0.2,0h-0.3l-1.7-6.6c0,0.1,0,0.1-0.1,0.2l-1.7,6.4h-0.4
			c-0.1,0-0.1,0-0.2,0c-2.3,0-4.6,0-6.8,0c-0.1,0-0.2,0-0.3,0c0.1-0.2,0.1-0.5,0.2-0.7c0.8-2.6,1.7-5.3,2.5-7.9c0.3-1,0.7-2,1-3.1
			c0-0.1,0-0.2,0-0.3c-1-3.1-2-6.2-3-9.3c0-0.1-0.1-0.2-0.1-0.4c0.1,0,0.2,0,0.3,0c1.3,0,2.7,0,4,0l0,0h2.9l0.1,0.2c0,0,0,0.1,0,0.1
			c0.3,1.1,0.6,2.1,0.9,3.2L57,52l-0.8,2.6c0,0,0,0,0,0.1c-0.1,0.2-0.2,0.3-0.4,0.3c-0.9,0-1.8,0-2.7,0c-0.1,0-0.1,0-0.2,0
			c0.4,0.4,0.8,0.7,1.2,1.1c0.4,0.4,0.8,0.8,1.3,1.1c0.1,0.1,0.2,0.2,0.1,0.4c-0.3,1.1-0.6,2.2-0.9,3.3c0.3-0.2,0.5-0.4,0.8-0.6
			c0.5-0.4,1-0.9,1.5-1.3c0.2-0.2,0.3-0.1,0.5,0c0.7,0.6,1.4,1.2,2.1,1.8c0.1,0,0.1,0.1,0.2,0.2c-0.2-0.8-0.4-1.5-0.6-2.2
			c-0.1-0.4-0.2-0.8-0.3-1.1c0-0.2,0-0.3,0.1-0.4c0.8-0.7,1.5-1.3,2.2-2c0,0,0.1-0.1,0.1-0.1c-0.1,0-0.2,0-0.2,0c-0.9,0-1.8,0-2.7,0
			c-0.2,0-0.3-0.1-0.4-0.3l-0.2-0.7c-0.2-0.6-0.4-1.2-0.5-1.8c0,0,0,0,0,0L57.2,52l0.4-1.2c0.4-1.4,0.8-2.8,1.2-4.2c0,0,0-0.1,0-0.1
			l0.1-0.2h2.9l0,0c4,0,8,0,11.9,0c1.7,0,3.4,0.4,4.8,1.4c1.5,1,2.3,2.4,2.5,4.2c0.1,0.8,0,1.7-0.2,2.5c-0.4,1.4-1.4,2.3-2.9,2.5
			c1.6,0.3,2.9,1,3.6,2.6c0-0.2,0-0.4,0-0.7c0-4,0-8.1,0-12.1c0-0.4,0-0.4,0.4-0.4c1.7,0,3.4,0,5.2,0c0.4,0,0.4,0,0.4,0.3
			c0,6.3,0,12.7,0,19c0,0.4,0,0.8,0,1.2c0,0,0,0,0.1,0c2.3-5.1,4.5-10.2,6.8-15.4c-0.1,0-0.2,0-0.3,0c-1.7,0-3.5,0-5.2,0
			c-0.5,0-0.5,0-0.5-0.5c0-1.5,0-2.9,0-4.4c0-0.3,0.1-0.3,0.3-0.3c4.6,0,9.1,0,13.7,0c0.1,0,0.2,0,0.4,0
			C100.2,51.8,97.8,57.3,95.5,62.7z M99.8,61.5v-0.2h0.8v0.2h-0.3v0.8h-0.2v-0.8H99.8z"/>
		<path fill="#FFFFFF" d="M74.6,59.4c-0.9-0.4-1.9-0.2-2.8-0.2c0,0.1,0,0.1,0,0.1c0,1.3,0,2.5,0,3.8c0,0.2,0.1,0.2,0.2,0.2
			c0.5,0,1,0,1.5,0c0.4,0,0.8-0.1,1.2-0.3c0.7-0.3,1.1-1,1.1-1.8C75.8,60.3,75.4,59.6,74.6,59.4z"/>
		<path fill="#FFFFFF" d="M64.7,50.6c-0.5,1.6-0.9,3.1-1.4,4.7c-0.2,0.6-0.2,1.1,0,1.7c0.7,2.1,1.3,4.2,1.9,6.3
			c0.2,0.7,0.4,1.4,0.6,2.2c0,0,0,0,0,0c0-6.2,0-12.4,0-18.6c0,0.1-0.1,0.1-0.1,0.2C65.4,48.1,65.1,49.3,64.7,50.6z"/>
	</g>
</g>
</svg>
