<?xml version="1.0" encoding="utf-8"?>
<!-- Generator: Adobe Illustrator 26.0.3, SVG Export Plug-In . SVG Version: 6.00 Build 0)  -->
<svg version="1.0" id="Layer_1" xmlns="http://www.w3.org/2000/svg" xmlns:xlink="http://www.w3.org/1999/xlink" x="0px" y="0px"
	 viewBox="0 0 150 135" enable-background="new 0 0 150 135" xml:space="preserve">
<g>
	<path fill="#FFFFFF" d="M11.5,69.1c0.3,1.2,0.7,2.2,1.2,3.1c0.7,1.3,1.4,2.2,2.3,3c0.9,0.8,2,1.4,3.1,1.8c0.9,0.3,1.9,0.5,3,0.6
		c0.5,0,0.9,0.1,1.3,0.1c0.5,0,1,0,1.3-0.1l0.1,0.1c0.9,0.6,1.8,1.1,2.6,1.6c1.5,4.2,3.5,8.1,5.9,11.8l-0.2,0l-0.1,0
		c-0.1-0.1-0.1-0.2-0.2-0.3c-0.3-0.4-0.7-1-1.3-1.6c-1.5-1.8-3.1-3-4.9-3.8c-2.3-1-4.7-1.2-6.2-1.2c-1.8,0-3,0.3-3.1,0.3l-1.3,0.3
		l0.4,1.2c0,0,0.1,0.4,0.4,1c0.2,0.5,0.6,1.3,1.2,2.2c0.6,0.9,1.3,1.8,2.1,2.6c0.9,0.9,2,1.6,3.1,2.1l0,0c1.2,0.5,2.4,0.7,3.8,0.7
		c0.9,0,1.9-0.1,2.8-0.3c1.1-0.3,2-0.6,2.5-0.9l1.8,0.5l1.3,0.2c2.7,3.5,5.9,6.6,9.4,9.3c-0.1,0-0.2,0-0.4,0
		c-0.1-0.1-0.2-0.1-0.3-0.2c-0.5-0.4-1.1-0.8-1.8-1.1c-0.8-0.5-1.7-0.9-2.6-1.2c-1.1-0.4-2.2-0.7-3.3-0.8c-1.9-0.2-4,0.1-6.3,0.9
		c-1.7,0.6-2.8,1.3-2.8,1.3l-1.1,0.7l0.8,1c0,0.1,0.9,1.3,2.5,2.5c0.8,0.7,1.8,1.3,2.8,1.8c1.1,0.5,2.4,0.9,3.7,1c0.2,0,0.5,0,0.7,0
		c1,0,1.9-0.2,2.9-0.5c0.9-0.3,1.9-0.7,2.7-1.3c1-0.6,1.7-1.2,2.1-1.6c1.1-0.1,2.1-0.2,3.2-0.3c3.6,2.4,7.6,4.3,11.9,5.8
		c-0.1,0-0.1,0.1-0.2,0.1l-0.1,0c-0.1,0-0.2-0.1-0.3-0.1c-0.4-0.1-1-0.3-1.7-0.4l-0.4-0.1c-2.3-0.5-4.3-0.5-6.2-0.1
		c-1.1,0.2-2.1,0.6-3.2,1.2c-0.9,0.4-1.7,1-2.5,1.6c-1.4,1.1-2.2,2.1-2.2,2.1l-0.8,1l1.1,0.7c0,0,0.3,0.2,0.9,0.5
		c0.7,0.4,1.5,0.8,2.3,1c1,0.4,2.7,0.8,4.5,0.8c0.8,0,1.6-0.1,2.5-0.3c2-0.5,3.9-1.8,5.5-3.7c0.7-0.9,1.2-1.7,1.5-2.2l0.2-0.1
		c1-0.4,2-0.9,2.7-1.3c1.1,0.4,2.3,0.8,3.5,1.2c2,0.7,4.1,1.4,6.3,2.2c-3.4,1.9-6.5,4.3-8.5,7.8c-0.3,0.6-0.2,1.3,0.4,1.7
		c0.2,0.1,0.4,0.2,0.6,0.2c0.4,0,0.8-0.2,1-0.6c2.1-3.6,5.6-6,9.3-7.8c3.8,1.8,7.2,4.2,9.3,7.8c0.2,0.4,0.6,0.6,1,0.6
		c0.2,0,0.4-0.1,0.6-0.2c0.6-0.3,0.8-1.1,0.4-1.7c-2.1-3.5-5.2-5.9-8.5-7.8c2.1-0.8,4.3-1.6,6.3-2.2c1.2-0.4,2.4-0.8,3.5-1.2
		c0.7,0.4,1.7,0.8,2.8,1.3l0.1,0.1c0.3,0.5,0.7,1.3,1.5,2.2c1.5,1.9,3.4,3.1,5.5,3.7c0.8,0.2,1.7,0.3,2.5,0.3c1.9,0,3.5-0.5,4.5-0.8
		c0.8-0.3,1.6-0.6,2.3-1c0.5-0.3,0.8-0.5,0.9-0.5l1.1-0.7l-0.8-1c0,0-0.9-1-2.2-2.1c-0.8-0.6-1.6-1.2-2.5-1.6
		c-1.1-0.6-2.2-1-3.2-1.2c-1.9-0.4-3.9-0.4-6.2,0.1l-0.4,0.1c-0.7,0.2-1.2,0.3-1.7,0.4c-0.1,0-0.2,0.1-0.3,0.1l-0.1,0
		c-0.1,0-0.2-0.1-0.2-0.1c4.3-1.5,8.3-3.4,11.9-5.8c1,0.1,2.1,0.3,3.2,0.3c0.4,0.4,1.1,1,2.1,1.6c0.9,0.6,1.8,1,2.7,1.3
		c1,0.3,2,0.5,2.9,0.5c0.2,0,0.5,0,0.7,0c1.3-0.1,2.5-0.4,3.6-1c1.1-0.5,2.1-1.1,2.8-1.8c1.6-1.2,2.5-2.4,2.5-2.5l0.8-1l-1.1-0.7
		c0,0-1.1-0.7-2.8-1.3c-2.3-0.8-4.4-1.1-6.3-0.9c-1.1,0.1-2.2,0.4-3.3,0.8c-0.9,0.3-1.7,0.7-2.6,1.2c-0.6,0.3-1.2,0.7-1.8,1.1
		c-0.1,0.1-0.2,0.1-0.2,0.2c-0.1,0-0.2,0-0.4,0c3.5-2.7,6.7-5.8,9.4-9.3l1.2-0.2l1.7-0.4l0.1,0c0.5,0.2,1.4,0.6,2.5,0.8
		c0.9,0.2,1.9,0.3,2.8,0.3c1.3,0,2.6-0.2,3.8-0.7l0,0c1.1-0.5,2.2-1.2,3.1-2.1c0.8-0.8,1.5-1.7,2.1-2.6c0.5-0.9,0.9-1.6,1.2-2.1
		c0.3-0.6,0.4-1,0.4-1l0.4-1.2l-1.3-0.3c-0.1,0-1.3-0.3-3.1-0.3c-1.6,0-3.9,0.1-6.3,1.2c-1.7,0.8-3.3,2-4.9,3.8
		c-0.6,0.6-1,1.2-1.3,1.6c-0.1,0.1-0.1,0.2-0.2,0.3l-0.3,0.1c2.5-3.6,4.5-7.6,5.9-11.7c0.8-0.5,1.7-1,2.6-1.6l0.1-0.1
		c0.3,0,0.8,0.1,1.3,0.1c0.4,0,0.8,0,1.3-0.1c1-0.1,2-0.3,3-0.6c1.1-0.4,2.2-1,3.1-1.8c0.9-0.7,1.6-1.7,2.3-3
		c0.5-0.9,0.9-1.9,1.2-3.1c0.3-1,0.4-1.8,0.4-2.5c0-0.6,0-1,0-1l0-1.3l-1.3,0.1c-0.1,0-1.3,0.1-3,0.7c-2.3,0.7-4.1,1.8-5.5,3.1
		c-1.8,1.7-2.8,3.8-3.4,5.2l0,0c-0.3,0.8-0.5,1.4-0.7,1.9c0,0.1-0.1,0.2-0.1,0.4l-0.1,0.1c-0.1,0-0.1,0.1-0.2,0.1
		c1.2-4.3,1.8-8.7,1.9-13.1c0.3-0.3,0.5-0.6,0.8-1l1.1-1.3c0,0,0.1-0.1,0.1-0.1c0.5-0.1,1.4-0.4,2.5-0.8c2.3-1,4-2.5,5-4.3
		c0.6-1,1-2.2,1.3-3.5c0.2-1.2,0.2-2.3,0.1-3.3l0-0.1c-0.1-1-0.2-1.9-0.3-2.4c-0.1-0.6-0.3-1-0.3-1.1l-0.5-1.2l-1.2,0.5
		c0,0-1.2,0.5-2.7,1.6c-1.3,1-3.2,2.6-4.3,4.7c-0.3,0.5-0.4,0.9-0.6,1.4l-0.1,0.2c-0.2,0.5-0.4,1-0.5,1.6c-0.2,0.9-0.4,1.9-0.4,2.9
		c0,0.4,0,0.7,0,1c0,0.3,0,0.6,0,0.9c0,0.1,0,0.3,0,0.4c0,0-0.1,0.1-0.1,0.1l-0.1,0.1c-0.2-4.4-1-8.8-2.4-13l0.5-1.1
		c0.2-0.4,0.3-0.8,0.5-1.2c0.1-0.1,0.1-0.3,0.2-0.5c0,0,0-0.1,0.1-0.1c0.5-0.3,1.2-0.8,2.1-1.6c0.8-0.7,1.4-1.5,2-2.3
		c0.7-1.1,1.2-2.3,1.4-3.4c0.4-2.3,0.1-4.9-0.9-7c-0.8-1.8-1.6-3-1.6-3l-0.8-1.1l-1,0.9c0,0-1,0.9-2,2.4c-1,1.3-2.2,3.4-2.5,5.8
		c-0.2,1.3-0.2,2.4-0.1,3.3c0.1,1.1,0.3,2,0.5,2.8c0.2,1,0.5,1.9,0.7,2.4c0,0,0,0.1,0,0.1c0,0.1,0,0.1-0.1,0.2
		c-1.6-4.1-3.8-8-6.4-11.6l0.1-1.2l0.1-0.9l0-0.9c0,0,0-0.1,0-0.1c0.3-0.4,0.9-1.2,1.5-2.1c1.2-2.1,1.7-4.4,1.4-6.4l0,0
		c-0.2-1.1-0.5-2.3-1.2-3.5c-0.3-0.5-0.5-1-0.9-1.5c-0.3-0.4-0.6-0.8-0.9-1.2l-0.1-0.1c-1.3-1.5-2.5-2.3-2.5-2.3L113,9.8l-0.7,1.2
		c0,0-0.7,1.2-1.2,2.9c-0.5,1.6-1,3.9-0.5,6.3c0.2,1.1,0.5,2.2,0.9,3.2c0.3,0.7,0.6,1.3,1,1.8c0.1,0.2,0.3,0.4,0.4,0.7l0,0
		c0.6,0.9,1.1,1.6,1.5,2c0,0,0,0.1,0,0.1l0,0.2c-2.3-2.7-4.8-5.2-7.6-7.4c0-0.1,0-0.3-0.1-0.5l0-0.1c-0.1-0.5-0.4-1.3-0.8-2.3
		c-0.5-1.2-1.1-2.1-1.7-2.9l0,0c-0.9-1-1.9-1.9-3-2.5c-0.3-0.2-0.6-0.3-0.9-0.5l-0.1,0c-0.3-0.1-0.6-0.2-1-0.3
		c-0.6-0.2-1.2-0.3-1.9-0.4c-1.4-0.1-2.5-0.1-3.4,0.1c-2,0.4-3.3,1-3.3,1L89.5,13l0.5,1.1c0,0.1,0.6,1.4,1.7,2.8l0,0
		c0.1,0.2,0.3,0.4,0.4,0.6c0.4,0.5,0.9,1.2,1.4,1.7c0.4,0.4,0.8,0.8,1.3,1.1c0.2,0.2,0.5,0.3,0.7,0.5c0.2,0.2,0.5,0.3,0.7,0.5
		c1,0.6,2,0.9,3.3,1.1c1,0.2,2,0.3,3,0.3c0.2,0,0.3,0,0.5,0c0.6,0,1.2,0,1.9-0.1c0.2,0,0.3,0,0.4,0c7.3,5.8,13,13.7,16,22.4
		c3.7,10.3,3.8,21.8,0.3,32.3c-3.4,10.4-10.3,19.5-19.6,25.7c-4.4,3-9.4,5.3-14.9,6.8l-0.1,0c-1.1,0.4-2.4,0.8-3.6,1.2
		c-2.7,0.9-5.6,1.8-8.4,3.1c-2.8-1.3-5.7-2.2-8.4-3.1c-1.3-0.4-2.5-0.8-3.6-1.2l-0.1,0c-5.5-1.5-10.5-3.8-14.9-6.8
		c-9.2-6.2-16.2-15.3-19.6-25.7c-3.5-10.5-3.4-22,0.3-32.3c3.1-8.7,8.8-16.6,16-22.4c0.1,0,0.3,0,0.4,0c0.6,0.1,1.2,0.1,1.9,0.1
		c0.2,0,0.3,0,0.5,0c1,0,2-0.1,3-0.3c1.3-0.2,2.3-0.6,3.3-1.1c0.2-0.1,0.5-0.3,0.7-0.5c0.2-0.1,0.5-0.3,0.7-0.5
		c0.4-0.3,0.9-0.7,1.3-1.1c0.6-0.6,1-1.2,1.4-1.7c0.2-0.2,0.3-0.4,0.4-0.6l0,0c1.1-1.5,1.7-2.8,1.7-2.8l0.5-1.1l-1.1-0.5
		c-0.1,0-1.3-0.7-3.3-1c-1-0.2-2.1-0.3-3.5-0.1c-0.6,0.1-1.3,0.2-1.9,0.3c-0.3,0.1-0.6,0.2-1,0.3l-0.1,0c-0.3,0.1-0.6,0.3-0.9,0.5
		c-1.1,0.6-2.1,1.5-3,2.5l0,0c-0.6,0.8-1.2,1.8-1.7,2.9c-0.4,0.9-0.7,1.8-0.8,2.3l0,0.1c0,0.2-0.1,0.3-0.1,0.5
		c-2.8,2.2-5.3,4.7-7.6,7.4l0-0.2c0,0,0-0.1,0-0.1c0.3-0.4,0.9-1.1,1.5-2l0,0c0.1-0.2,0.3-0.4,0.4-0.7c0.3-0.5,0.7-1.1,0.9-1.7
		c0.5-1,0.8-2.1,0.9-3.3c0.4-2.4-0.1-4.7-0.5-6.3c-0.5-1.7-1.2-2.8-1.2-2.9L37,9.8l-1.1,0.8c0,0-1.2,0.9-2.6,2.4L33.3,13
		c-0.3,0.3-0.6,0.7-0.9,1.2c-0.3,0.5-0.6,1-0.9,1.5c-0.6,1.2-1,2.4-1.2,3.5l0,0c-0.2,2.1,0.3,4.3,1.4,6.4c0.6,1,1.1,1.7,1.5,2.1
		c0,0.1,0,0.1,0,0.2l0,0.8l0.2,2.2c-2.6,3.6-4.8,7.5-6.4,11.6c0,0,0-0.1,0-0.1l0-0.1c0.2-0.5,0.5-1.3,0.7-2.4
		c0.2-0.8,0.4-1.7,0.5-2.8c0.1-1,0.1-2.1-0.1-3.4c-0.4-2.4-1.6-4.5-2.5-5.8c-1-1.4-2-2.3-2-2.4l-1-0.9l-0.8,1.1c0,0.1-0.9,1.2-1.6,3
		c-1,2-1.3,4.7-0.9,7c0.2,1.1,0.7,2.3,1.4,3.4c0.5,0.8,1.2,1.6,2,2.3c0.8,0.8,1.6,1.3,2.1,1.6l0.1,0.2c0.1,0.1,0.1,0.3,0.2,0.4
		c0.1,0.4,0.3,0.8,0.5,1.2l0.5,1.1c-1.3,4.2-2.1,8.6-2.4,13l-0.1-0.1c0,0-0.1-0.1-0.1-0.1c0-0.1,0-0.2,0-0.4c0-0.3,0-0.6,0-1
		c0-0.3,0-0.7,0-1c0-1-0.2-2-0.4-2.9c-0.1-0.5-0.3-1.1-0.5-1.6l-0.1-0.2c-0.2-0.4-0.3-0.9-0.6-1.3c-1.1-2.2-3-3.8-4.3-4.7
		c-1.4-1-2.6-1.6-2.7-1.6l-1.2-0.5l-0.5,1.2c0,0.1-0.2,0.5-0.3,1.1c-0.1,0.5-0.3,1.4-0.3,2.5l0,0.1c-0.1,1-0.1,2.1,0.1,3.3
		c0.3,1.3,0.7,2.5,1.3,3.5c1,1.8,2.7,3.3,5,4.3c1,0.5,2,0.7,2.5,0.8c0,0,0.1,0.1,0.1,0.1l1.1,1.3c0.3,0.4,0.6,0.7,0.8,1
		c0.1,4.4,0.7,8.8,1.9,13.1c-0.1,0-0.1-0.1-0.2-0.1l-0.1-0.1c0-0.1-0.1-0.2-0.1-0.3c-0.1-0.5-0.4-1.1-0.7-1.9l0,0
		c-0.6-1.4-1.6-3.4-3.4-5.1c-1.4-1.3-3.2-2.4-5.5-3.1c-1.7-0.5-3-0.6-3-0.6L11,64.3l0,1.3c0,0,0,0.4,0,1
		C11.1,67.2,11.2,68.1,11.5,69.1z M28.4,91.8c-1.8,0.4-3.6,0.4-5.1-0.3c-0.9-0.4-1.7-0.9-2.4-1.6c-0.7-0.7-1.3-1.4-1.8-2.1
		c-0.3-0.5-0.5-0.9-0.7-1.3c0.3,0,0.7-0.1,1.1-0.1c1.3,0,3.3,0.1,5.2,1c1.4,0.7,2.8,1.7,4.1,3.2c0.3,0.3,0.5,0.6,0.7,0.8
		C29.2,91.6,28.8,91.7,28.4,91.8z M40.4,105.2c-0.7,0.4-1.5,0.8-2.2,1c-0.9,0.3-1.8,0.4-2.7,0.3l0,0c-1-0.1-1.9-0.3-2.8-0.8
		c-0.9-0.4-1.7-0.9-2.4-1.5c-0.4-0.3-0.8-0.6-1.1-0.9c0.3-0.1,0.6-0.3,1-0.4c1.9-0.7,3.7-0.9,5.2-0.7c0.9,0.1,1.7,0.3,2.6,0.7l0,0
		c0.7,0.3,1.5,0.6,2.2,1.1l0,0c0.3,0.2,0.6,0.4,0.9,0.6C41.1,104.8,40.8,105,40.4,105.2z M56.1,114.2c-1.2,1.5-2.6,2.5-4.2,2.8l0,0
		c-2.2,0.6-4.4,0-5.6-0.5c-0.4-0.1-0.9-0.3-1.3-0.5c0.2-0.2,0.5-0.5,0.8-0.7c0.7-0.5,1.4-1,2.1-1.4c0.9-0.5,1.8-0.8,2.6-1
		c1.5-0.3,3.2-0.3,5.2,0.1l0.3,0.1c0.3,0.1,0.5,0.1,0.8,0.2C56.6,113.6,56.3,113.9,56.1,114.2z M94,113.1l0.3-0.1
		c1.9-0.4,3.6-0.4,5.2-0.1c0.8,0.2,1.7,0.5,2.6,1c0.7,0.4,1.4,0.8,2.1,1.4c0.3,0.2,0.6,0.5,0.8,0.7c-0.4,0.2-0.9,0.4-1.3,0.6
		c-1.1,0.4-3.4,1-5.6,0.5l0,0c-1.6-0.4-3-1.4-4.2-2.8c-0.3-0.3-0.5-0.6-0.7-0.9C93.5,113.2,93.8,113.2,94,113.1z M109.6,104
		L109.6,104c0.8-0.5,1.5-0.8,2.2-1.1l0,0c0.9-0.4,1.8-0.6,2.7-0.7c1.5-0.2,3.3,0.1,5.2,0.7c0.4,0.1,0.7,0.3,1,0.4
		c-0.3,0.3-0.7,0.6-1.1,1c-0.6,0.5-1.5,1-2.4,1.5c-0.9,0.4-1.8,0.7-2.8,0.7l0,0c-0.9,0.1-1.8,0-2.7-0.3c-0.7-0.2-1.5-0.6-2.2-1
		c-0.3-0.2-0.6-0.4-0.9-0.6C108.9,104.4,109.2,104.2,109.6,104z M121.2,90.6c1.3-1.5,2.7-2.5,4.1-3.2c1.9-0.9,3.9-1,5.2-1
		c0.4,0,0.8,0,1.1,0.1c-0.2,0.4-0.4,0.8-0.7,1.2c-0.5,0.8-1.1,1.5-1.8,2.1c-0.7,0.7-1.6,1.2-2.4,1.6c-1.5,0.6-3.2,0.7-5.1,0.3
		c-0.4-0.1-0.8-0.2-1.1-0.3C120.7,91.2,121,90.9,121.2,90.6z M128,74.2c0.5-1.2,1.3-2.9,2.8-4.3c1.1-1.1,2.7-1.9,4.6-2.6
		c0.4-0.1,0.7-0.2,1.1-0.3c-0.1,0.4-0.2,0.9-0.3,1.4c-0.3,1-0.6,1.8-1,2.6c-0.5,1-1.1,1.7-1.8,2.3l0,0c-0.7,0.6-1.5,1.1-2.3,1.4
		c-0.7,0.3-1.5,0.4-2.4,0.5c-0.4,0-0.8,0.1-1.1,0C127.7,74.9,127.8,74.6,128,74.2z M129.2,56.5c0-0.8,0.1-1.6,0.3-2.4
		c0.1-0.4,0.2-0.9,0.4-1.3l0.1-0.2c0.1-0.4,0.3-0.7,0.5-1.1c0.9-1.7,2.4-3.1,3.6-3.9c0.3-0.2,0.6-0.4,0.9-0.6
		c0.1,0.4,0.1,0.9,0.2,1.4l0,0.1c0,0.9,0.1,1.8-0.1,2.7c-0.2,1.1-0.5,2-1,2.8l0,0c-0.8,1.4-2.1,2.4-3.9,3.2c-0.4,0.2-0.7,0.3-1,0.4
		C129.1,57.2,129.2,56.8,129.2,56.5z M102.6,20.4c-0.8,0-1.7-0.1-2.6-0.3l-0.1,0c-1-0.2-1.8-0.4-2.5-0.8c-0.2-0.1-0.4-0.2-0.6-0.4
		l-0.1-0.1c-0.2-0.1-0.4-0.2-0.5-0.4c-0.3-0.2-0.7-0.5-1-0.9c-0.4-0.4-0.8-1-1.2-1.5c-0.2-0.2-0.3-0.4-0.5-0.6
		c-0.3-0.4-0.6-0.9-0.8-1.3c0.4-0.1,0.9-0.3,1.5-0.4c0.7-0.2,1.5-0.2,2.7-0.1c0.5,0.1,1,0.2,1.5,0.3c0.2,0.1,0.5,0.1,0.7,0.2
		c0.2,0.1,0.4,0.2,0.7,0.3c0.9,0.5,1.7,1.2,2.4,2c0.5,0.6,1,1.4,1.4,2.4c0.2,0.5,0.4,1,0.5,1.4C103.6,20.4,103.1,20.4,102.6,20.4z
		 M115.5,25.4c-0.2-0.2-0.4-0.5-0.6-0.9c-0.1-0.2-0.3-0.5-0.4-0.7c-0.3-0.5-0.6-0.9-0.8-1.5c-0.4-0.8-0.6-1.7-0.8-2.6l0-0.1
		c-0.3-1.9,0.1-3.9,0.5-5.2c0.1-0.4,0.2-0.7,0.4-1c0.3,0.3,0.7,0.6,1,1l0.1,0.1c0.3,0.3,0.5,0.6,0.7,0.9c0.3,0.4,0.5,0.9,0.7,1.3
		c0.5,1,0.8,1.9,0.9,2.8c0.2,2-0.5,3.8-1.2,5C115.9,24.9,115.7,25.2,115.5,25.4z M124.3,34.2c0.3-1.9,1.3-3.7,2.1-4.8
		c0.2-0.3,0.4-0.6,0.7-0.9c0.2,0.4,0.4,0.8,0.6,1.3l0,0c0.8,1.6,1,3.8,0.7,5.5l0,0c-0.1,0.8-0.5,1.6-1.1,2.5c-0.4,0.7-1,1.3-1.6,1.8
		c-0.3,0.3-0.6,0.5-0.8,0.7c-0.1-0.3-0.2-0.6-0.3-1l0,0c-0.2-0.7-0.4-1.5-0.5-2.4C124.1,36.2,124.2,35.3,124.3,34.2z M46.3,19
		c0.4-1,0.9-1.7,1.4-2.4c0.7-0.8,1.5-1.5,2.4-2c0.2-0.1,0.4-0.2,0.7-0.3c0.2-0.1,0.5-0.2,0.7-0.2c0.5-0.1,1-0.2,1.5-0.3
		c1.1-0.1,2-0.1,2.7,0.1c0.6,0.1,1.1,0.3,1.5,0.4c-0.2,0.4-0.5,0.8-0.8,1.3c-0.2,0.2-0.3,0.4-0.5,0.6c-0.4,0.5-0.8,1-1.2,1.5
		c-0.3,0.3-0.6,0.6-1,0.9c-0.2,0.1-0.4,0.3-0.5,0.4l-0.1,0.1c-0.2,0.1-0.4,0.3-0.6,0.4c-0.7,0.4-1.5,0.7-2.5,0.8l-0.1,0
		c-0.9,0.2-1.8,0.3-2.6,0.3c-0.5,0-1,0-1.6,0C45.9,20,46.1,19.5,46.3,19z M32.7,19.5c0.1-0.9,0.4-1.8,0.9-2.8
		c0.2-0.4,0.5-0.8,0.7-1.3c0.2-0.3,0.5-0.6,0.7-0.9l0.1-0.1c0.4-0.4,0.7-0.7,1-1c0.1,0.3,0.2,0.6,0.4,1c0.4,1.3,0.8,3.3,0.5,5.2
		l0,0.1c-0.1,0.9-0.4,1.8-0.8,2.7c-0.2,0.5-0.5,1-0.8,1.4c-0.2,0.3-0.3,0.5-0.4,0.7c-0.2,0.3-0.4,0.6-0.6,0.9
		c-0.2-0.3-0.4-0.6-0.6-0.9C33.2,23.3,32.5,21.5,32.7,19.5z M25.8,37c-0.1,0.9-0.3,1.7-0.5,2.4l0,0c-0.1,0.4-0.2,0.7-0.3,1
		c-0.3-0.2-0.5-0.4-0.8-0.7c-0.6-0.6-1.2-1.2-1.6-1.8c-0.6-0.8-0.9-1.7-1.1-2.5l0,0c-0.3-1.8,0-3.9,0.7-5.5l0,0
		c0.2-0.5,0.4-0.9,0.6-1.3c0.2,0.2,0.4,0.5,0.7,0.9c0.8,1.1,1.8,2.9,2.1,4.8C25.8,35.3,25.9,36.2,25.8,37z M19.9,57.2
		c-1.8-0.8-3.1-1.9-3.9-3.2l0,0c-0.4-0.8-0.8-1.7-1-2.8c-0.2-0.9-0.1-1.8-0.1-2.7l0,0c0-0.5,0.1-1,0.2-1.4c0.3,0.2,0.6,0.4,0.9,0.6
		c1.1,0.8,2.7,2.1,3.6,3.9c0.2,0.3,0.3,0.7,0.5,1.1l0.1,0.2c0.2,0.4,0.3,0.8,0.4,1.3c0.2,0.8,0.3,1.6,0.3,2.3c0,0.4,0,0.8,0,1.1
		c0,0,0,0,0,0C20.6,57.5,20.2,57.4,19.9,57.2z M14.6,67.3c1.9,0.6,3.5,1.5,4.6,2.6c1.5,1.4,2.3,3.1,2.8,4.3c0.1,0.4,0.3,0.7,0.4,1
		c-0.3,0-0.7,0-1.1,0c-0.8-0.1-1.7-0.2-2.4-0.5c-0.9-0.3-1.7-0.8-2.3-1.4l0,0c-0.7-0.6-1.2-1.3-1.8-2.3c-0.4-0.7-0.7-1.6-1-2.6
		c-0.1-0.5-0.2-1-0.3-1.4C13.8,67.1,14.2,67.2,14.6,67.3z"/>
	<path fill="#FFFFFF" d="M36.3,62c0,21.4,17.4,38.8,38.8,38.8s38.8-17.4,38.8-38.8c0-21.4-17.4-38.8-38.8-38.8S36.3,40.6,36.3,62z
		 M54.6,85.4l-0.9-2h-3.5l-0.9,2H48l4.1-8.7l3.9,8.7H54.6z M54,68.5v1.9h-3.8v2.7H54v2h-5.9V63.6l5.9,0v2.1h-3.8v2.8H54z M60.5,80.1
		l-2.2,5.8l-3.5-8.8h1.3l2.1,5.5l2.2-5.9l2.1,5.9l2.3-5.5h1.3l-3.7,8.7L60.5,80.1z M57.4,70.9c0,1.2,0.3,2.3,1.8,2.3
		c1.6,0,2-0.9,2.1-2.3c0-1,0-4.2,0-7.4h2.1c0,0,0,6.7,0,7.8c-0.1,2.3-1.7,3.9-3.9,3.9c-2.4,0-4.1-1.5-4.2-3.9c-0.1-1.1,0-7.8,0-7.8
		h2.1C57.4,66.8,57.4,69.9,57.4,70.9z M72.1,75h-2.4l-3-4v4l-2.1,0V64.7v-1c0,0,3.3-0.1,4.4,0c1.6,0.2,2.8,1,3.1,2.7
		c0.3,1.7-0.2,3.3-1.9,4c-0.4,0.2-1.3,0.4-1.3,0.4L72.1,75z M71.6,85.4l-0.9-2h-3.5l-0.9,2H65l4.1-8.7l3.9,8.7H71.6z M72.7,69.4
		c0-3.3,2.6-6,5.9-6.1c3.3-0.1,6,2.6,6,5.9c0,3.3-2.5,6-5.9,6C75.4,75.3,72.7,72.7,72.7,69.4z M77.6,85.4L75.3,82H75v3.4h-1.2v-8.2
		h1.5c1.1,0,1.9,0.2,2.4,0.6c0.5,0.5,0.8,1.1,0.8,1.8c0,0.6-0.2,1.1-0.5,1.5c-0.3,0.4-0.8,0.7-1.3,0.8l2.5,3.5H77.6z M85.2,84.3
		c-0.4,0.4-0.9,0.7-1.4,0.8c-0.5,0.2-1.1,0.2-1.9,0.2h-1.7v-8.2h1.7c0.8,0,1.5,0.1,2,0.2c0.5,0.2,1,0.4,1.4,0.8
		c0.8,0.8,1.3,1.8,1.3,3.1C86.5,82.5,86.1,83.6,85.2,84.3z M85.5,75V64.6v-1c0,0,3.3-0.1,4.4,0c1.6,0.2,2.8,1,3.1,2.7
		c0.3,1.7-0.2,3.3-1.9,4c-0.4,0.2-1.3,0.4-1.3,0.4L87.5,71v4L85.5,75z M92,84.8c-0.5,0.5-1.1,0.7-1.9,0.7c-0.7,0-1.3-0.2-1.8-0.6
		c-0.5-0.4-0.7-1-0.9-1.8l1.3-0.3c0.1,0.5,0.2,0.8,0.3,1c0.3,0.4,0.6,0.5,1.1,0.5c0.4,0,0.7-0.1,1-0.4c0.3-0.3,0.4-0.6,0.4-1
		c0-0.2,0-0.3-0.1-0.4c0-0.1-0.1-0.3-0.2-0.4c-0.1-0.1-0.2-0.2-0.4-0.3c-0.1-0.1-0.3-0.2-0.5-0.3l-0.8-0.3c-1.1-0.5-1.7-1.2-1.7-2.1
		c0-0.6,0.2-1.1,0.7-1.6c0.5-0.4,1.1-0.6,1.8-0.6c0.9,0,1.7,0.5,2.2,1.4l-1,0.6c-0.2-0.3-0.4-0.5-0.5-0.6c-0.2-0.1-0.4-0.2-0.7-0.2
		c-0.3,0-0.6,0.1-0.9,0.3c-0.2,0.2-0.3,0.4-0.3,0.7c0,0.4,0.3,0.7,0.9,1l0.8,0.3c0.7,0.3,1.2,0.6,1.5,1c0.3,0.4,0.5,0.9,0.5,1.4
		C92.7,83.7,92.5,84.3,92,84.8z M98.4,85.5h-3l0.9-1c0.2-0.3,0.4-0.5,0.6-0.6c0.1-0.2,0.2-0.3,0.3-0.5c0.1-0.1,0.1-0.2,0.1-0.3
		c0-0.1,0-0.1,0-0.2c0-0.1,0-0.1,0-0.2c0-0.1,0-0.1-0.1-0.1c0,0-0.1-0.1-0.1-0.1c-0.1,0-0.1,0-0.2,0c-0.1,0-0.2,0-0.3,0.1
		c-0.1,0.1-0.1,0.2-0.1,0.3c0,0,0,0.1,0,0.2h-1.1c0-0.2,0-0.4,0.1-0.6c0.1-0.2,0.2-0.3,0.3-0.5c0.1-0.1,0.3-0.2,0.5-0.3
		c0.2-0.1,0.4-0.1,0.6-0.1c0.2,0,0.4,0,0.6,0.1c0.2,0.1,0.3,0.2,0.5,0.3s0.2,0.3,0.3,0.4s0.1,0.3,0.1,0.5c0,0.2,0,0.4-0.1,0.6
		c-0.1,0.2-0.2,0.4-0.4,0.5l-0.6,0.6h1.2V85.5z M98.4,80.5h-3l0.9-1c0.2-0.3,0.4-0.5,0.6-0.6c0.1-0.2,0.2-0.3,0.3-0.5
		c0.1-0.1,0.1-0.2,0.1-0.3c0-0.1,0-0.1,0-0.2c0-0.1,0-0.1,0-0.2c0-0.1,0-0.1-0.1-0.1c0,0-0.1-0.1-0.1-0.1c-0.1,0-0.1,0-0.2,0
		c-0.1,0-0.2,0-0.3,0.1c-0.1,0.1-0.1,0.2-0.1,0.3c0,0,0,0.1,0,0.2h-1.1c0-0.2,0-0.4,0.1-0.6c0.1-0.2,0.2-0.3,0.3-0.5
		c0.1-0.1,0.3-0.2,0.5-0.3c0.2-0.1,0.4-0.1,0.6-0.1c0.2,0,0.4,0,0.6,0.1c0.2,0.1,0.3,0.2,0.5,0.3s0.2,0.3,0.3,0.4
		c0.1,0.2,0.1,0.3,0.1,0.5c0,0.2,0,0.4-0.1,0.6c-0.1,0.2-0.2,0.4-0.4,0.5l-0.6,0.6h1.2V80.5z M95,72l-1.1,3h-2.1l3.7-11.4h1.4H98
		l3.9,11.4h-2.2l-0.9-3H95z M101.1,55.5h-0.2l-0.3-0.8v0.8h-0.2v-1h0.3l0.2,0.7l0.2-0.7h0.3v1h-0.2v-0.8L101.1,55.5z M101.2,85.5h-1
		v-2.9h-0.5v-0.8h1.5V85.5z M101.9,79.5c-0.1,0.2-0.2,0.5-0.3,0.6c-0.1,0.2-0.3,0.3-0.5,0.4c-0.2,0.1-0.4,0.1-0.6,0.1
		c-0.2,0-0.5,0-0.6-0.1s-0.4-0.2-0.5-0.4c-0.1-0.2-0.3-0.4-0.3-0.6c-0.1-0.2-0.1-0.5-0.1-0.8s0-0.6,0.1-0.8c0.1-0.2,0.2-0.5,0.3-0.6
		c0.1-0.2,0.3-0.3,0.5-0.4s0.4-0.1,0.6-0.1c0.2,0,0.4,0,0.6,0.1c0.2,0.1,0.4,0.2,0.5,0.4c0.1,0.2,0.2,0.4,0.3,0.6
		c0.1,0.2,0.1,0.5,0.1,0.8S102,79.2,101.9,79.5z M48,60.4c0.8-2.6,1.7-5.2,2.5-7.8c0.3-1,0.6-2,1-3c0-0.1,0-0.2,0-0.3
		c-1-3.1-2-6.1-3-9.2c0-0.1-0.1-0.2-0.1-0.3c0.1,0,0.2,0,0.3,0c1.3,0,2.7,0,4,0l0,0h2.8l0.1,0.2c0,0,0,0.1,0,0.1
		c0.3,1.1,0.6,2.1,0.9,3.2l0.6,2.2l-0.7,2.6c0,0,0,0,0,0.1c-0.1,0.2-0.2,0.2-0.3,0.2c-0.9,0-1.8,0-2.7,0c-0.1,0-0.1,0-0.2,0
		c0.4,0.4,0.8,0.7,1.1,1c0.4,0.4,0.8,0.7,1.2,1.1c0.1,0.1,0.2,0.2,0.1,0.4c-0.3,1.1-0.6,2.2-0.9,3.3c0.3-0.2,0.5-0.4,0.8-0.6
		c0.5-0.4,1-0.9,1.5-1.3c0.2-0.2,0.3-0.1,0.5,0c0.7,0.6,1.4,1.2,2.1,1.8c0.1,0,0.1,0.1,0.2,0.2c-0.2-0.8-0.4-1.5-0.6-2.2
		c-0.1-0.4-0.2-0.8-0.3-1.1c0-0.2,0-0.3,0.1-0.4c0.7-0.7,1.5-1.3,2.2-2c0,0,0.1-0.1,0.1-0.1c-0.1,0-0.2,0-0.2,0c-0.9,0-1.8,0-2.7,0
		c-0.2,0-0.3-0.1-0.4-0.3l-0.2-0.7c-0.2-0.6-0.4-1.2-0.5-1.8c0,0,0,0,0,0l-0.1-0.2l0.3-1.2c0.4-1.4,0.8-2.8,1.2-4.2c0,0,0-0.1,0-0.1
		l0.1-0.2h2.8l0,0c3.9,0,7.9,0,11.8,0c1.7,0,3.3,0.4,4.8,1.4c1.5,1,2.3,2.4,2.4,4.1c0.1,0.8,0,1.7-0.2,2.4c-0.4,1.4-1.3,2.3-2.9,2.5
		c1.6,0.3,2.9,1,3.6,2.6c0-0.2,0-0.4,0-0.7c0-4,0-8,0-12c0-0.4,0-0.4,0.4-0.4c1.7,0,3.4,0,5.1,0c0.3,0,0.4,0,0.4,0.3
		c0,6.3,0,12.6,0,18.8c0,0.4,0,0.8,0,1.2c0,0,0,0,0.1,0c2.2-5.1,4.5-10.1,6.7-15.3c-0.1,0-0.2,0-0.3,0c-1.7,0-3.4,0-5.2,0
		c-0.5,0-0.5,0-0.5-0.4c0-1.5,0-2.9,0-4.4c0-0.3,0.1-0.3,0.3-0.3c4.5,0,9,0,13.6,0c0.1,0,0.2,0,0.4,0c-2.4,5.5-4.7,10.8-7,16.3
		c0.1,0,0.2,0,0.4,0c1.9,0,3.7,0,5.6,0c0.4,0,0.4,0,0.4,0.4c0,1.5,0,3,0,4.5c0,0.2-0.1,0.3-0.3,0.3c-6.5,0-13.1,0-19.6,0
		c-0.3,0-0.3,0-0.3-0.3c0-1.1,0-2.3,0-3.4c0,0,0-0.1,0-0.2c-0.2,0.4-0.3,0.7-0.5,1c-0.9,1.5-2.2,2.3-3.8,2.7
		c-0.7,0.2-1.4,0.2-2.1,0.2c-5.2,0-10.3,0-15.5,0c-0.1,0-0.1,0-0.2,0h-0.3l-1.7-6.5c0,0.1,0,0.1-0.1,0.2l-1.6,6.3H55
		c-0.1,0-0.1,0-0.2,0c-2.3,0-4.5,0-6.8,0c-0.1,0-0.2,0-0.3,0C47.8,60.8,47.9,60.6,48,60.4z M99.5,54.7v-0.2h0.8v0.2H100v0.8h-0.2
		v-0.8H99.5z"/>
	<polygon fill="#FFFFFF" points="95.5,69.9 98,69.9 96.8,65.8 	"/>
	<polygon fill="#FFFFFF" points="50.7,82.2 53.2,82.2 52,79.4 	"/>
	<path fill="#FFFFFF" d="M91,67.3c0-1.8-2.4-1.8-2.4-1.8h-1.1v1.7v1.8h1.2C88.8,69.1,91,69.1,91,67.3z"/>
	<path fill="#FFFFFF" d="M77.2,79.6c0-0.8-0.6-1.3-1.7-1.3H75v2.6h0.4C76.6,80.9,77.2,80.5,77.2,79.6z"/>
	<path fill="#FFFFFF" d="M100.9,77.8c-0.1-0.1-0.1-0.2-0.2-0.2c-0.1-0.1-0.2-0.1-0.3-0.1c-0.1,0-0.2,0-0.3,0.1s-0.1,0.1-0.2,0.2
		c-0.1,0.1-0.1,0.2-0.1,0.4c0,0.1,0,0.3,0,0.5c0,0.2,0,0.3,0,0.5c0,0.1,0.1,0.3,0.1,0.4c0.1,0.1,0.1,0.2,0.2,0.2s0.2,0.1,0.3,0.1
		c0.1,0,0.2,0,0.3-0.1c0.1-0.1,0.1-0.1,0.2-0.2c0.1-0.1,0.1-0.2,0.1-0.4c0-0.1,0-0.3,0-0.5c0-0.2,0-0.3,0-0.5
		C101,78.1,101,77.9,100.9,77.8z"/>
	<path fill="#FFFFFF" d="M81.9,78.3h-0.6v5.9h0.6c0.6,0,1-0.1,1.4-0.2c0.4-0.1,0.7-0.3,1-0.6c0.6-0.6,0.9-1.3,0.9-2.2
		c0-0.9-0.3-1.6-0.9-2.2C83.8,78.6,83,78.3,81.9,78.3z"/>
	<path fill="#FFFFFF" d="M71.7,47.9c0.1,0,0.1,0,0.1,0c0.5,0,1.1,0,1.6,0c1.1-0.1,1.7-0.6,1.7-1.7c0.1-1-0.3-1.8-1.5-1.9
		c-0.6,0-1.1,0-1.7,0c-0.2,0-0.2,0.1-0.2,0.2c0,0.6,0,1.2,0,1.8C71.7,46.9,71.7,47.4,71.7,47.9z"/>
	<path fill="#FFFFFF" d="M65.2,56.4c0.2,0.7,0.4,1.4,0.6,2.1c0,0,0,0,0,0c0-6.1,0-12.3,0-18.5c0,0.1-0.1,0.1-0.1,0.2
		c-0.4,1.2-0.7,2.4-1.1,3.6c-0.5,1.6-0.9,3.1-1.4,4.7c-0.2,0.6-0.2,1.1,0,1.7C64,52.3,64.6,54.4,65.2,56.4z"/>
	<path fill="#FFFFFF" d="M67.7,65.6h-1.1v1.7v1.8h1.2c0,0,2.2,0,2.2-1.8C70.1,65.5,67.7,65.6,67.7,65.6z"/>
	<path fill="#FFFFFF" d="M74.6,52.6c-0.9-0.4-1.9-0.2-2.8-0.2c0,0.1,0,0.1,0,0.1c0,1.3,0,2.5,0,3.8c0,0.2,0.1,0.2,0.2,0.2
		c0.5,0,1,0,1.5,0c0.4,0,0.8-0.1,1.2-0.3c0.7-0.3,1.1-1,1.1-1.8C75.7,53.5,75.3,52.9,74.6,52.6z"/>
	<path fill="#FFFFFF" d="M78.7,73.2c2.1,0,3.8-1.8,3.8-3.9c0-2.2-1.9-4-3.9-4c-2.1,0.1-3.7,1.8-3.7,4C74.8,71.6,76.5,73.3,78.7,73.2
		z"/>
	<polygon fill="#FFFFFF" points="57.1,54.5 57.1,54.5 57.2,54.5 	"/>
	<polygon fill="#FFFFFF" points="67.8,82.2 70.3,82.2 69,79.4 	"/>
</g>
</svg>
