<?xml version="1.0" encoding="UTF-8"?><svg id="a" xmlns="http://www.w3.org/2000/svg" viewBox="0 0 140.75 127"><defs><style>.b{fill:#fff;}</style></defs><g><path class="b" d="M140.75,61.38l-.02-1.43-1.43,.12c-.06,0-1.48,.13-3.32,.72-2.51,.82-4.55,1.97-6.06,3.41-2.01,1.88-3.11,4.14-3.76,5.67l-.02,.05c-.34,.89-.59,1.57-.75,2.11-.04,.14-.08,.27-.11,.39l-.1,.07c-.07,.05-.14,.09-.21,.13,1.31-4.71,2.01-9.55,2.11-14.38,.3-.32,.6-.67,.93-1.08l1.19-1.47,.11-.14c.58-.13,1.58-.4,2.73-.9,2.51-1.09,4.42-2.72,5.52-4.7,.64-1.11,1.1-2.41,1.39-3.86,.26-1.33,.2-2.54,.14-3.62v-.09c-.09-1.12-.25-2.07-.36-2.65-.13-.71-.29-1.14-.32-1.22l-.5-1.29-1.27,.55c-.05,.02-1.33,.59-2.92,1.73-1.47,1.06-3.48,2.82-4.72,5.19-.28,.52-.47,1.01-.65,1.49l-.09,.22c-.22,.56-.41,1.15-.56,1.74-.25,1.01-.4,2.07-.45,3.2,0,.39-.02,.76-.05,1.14-.02,.34-.02,.69-.02,1.03,0,.15,0,.29,.01,.41-.03,.03-.06,.07-.08,.11l-.1,.12c-.25-4.85-1.11-9.65-2.58-14.27l.54-1.22c.2-.46,.35-.91,.51-1.34,.06-.16,.11-.32,.18-.5,.02-.05,.04-.11,.06-.16,.51-.31,1.36-.89,2.29-1.72,.85-.78,1.59-1.63,2.19-2.53,.82-1.24,1.35-2.49,1.56-3.72,.45-2.49,.07-5.43-1-7.67-.85-1.96-1.76-3.27-1.8-3.32l-.86-1.23-1.12,1s-1.11,1-2.24,2.59c-1.05,1.47-2.38,3.78-2.79,6.43-.21,1.41-.25,2.66-.15,3.68,.1,1.18,.37,2.22,.59,3.06,.25,1.14,.58,2.05,.8,2.59-.01,.04-.03,.08-.04,.12-.02,.06-.04,.11-.06,.17-1.78-4.49-4.15-8.77-7.03-12.71l.12-1.35,.07-.96,.02-1.02c0-.05,0-.11,0-.16,.38-.46,1.01-1.27,1.62-2.36,1.3-2.35,1.85-4.79,1.59-7.07v-.03c-.18-1.26-.61-2.57-1.27-3.88-.28-.55-.6-1.1-.97-1.67-.33-.49-.7-.9-1.02-1.27l-.12-.13c-1.44-1.59-2.74-2.54-2.79-2.58l-1.21-.88-.74,1.3c-.03,.05-.73,1.3-1.3,3.16-.52,1.72-1.05,4.31-.59,6.93,.17,1.23,.51,2.44,1.02,3.57,.32,.75,.7,1.38,1.05,1.94,.15,.25,.3,.49,.43,.73l.03,.05c.61,1,1.22,1.77,1.61,2.21v.34c-2.5-2.97-5.29-5.69-8.32-8.09-.02-.15-.05-.32-.09-.51v-.06c-.16-.58-.43-1.48-.89-2.53-.57-1.28-1.19-2.33-1.89-3.22l-.04-.05c-.98-1.12-2.09-2.05-3.31-2.75-.34-.19-.68-.37-1.01-.52l-.1-.04c-.34-.12-.69-.23-1.05-.33-.66-.18-1.36-.31-2.08-.39-1.53-.15-2.73-.11-3.75,.12-2.16,.42-3.58,1.12-3.64,1.15l-1.16,.58,.54,1.17c.03,.06,.69,1.49,1.86,3.1l.03,.04c.16,.2,.32,.42,.49,.65,.44,.6,.95,1.28,1.54,1.89,.45,.47,.93,.89,1.41,1.25,.25,.18,.5,.36,.76,.51,.27,.2,.53,.37,.79,.52,1.06,.61,2.24,1.02,3.63,1.24,1.13,.23,2.24,.36,3.28,.38,.17,0,.34,0,.51,0,.67,0,1.35-.03,2.04-.09,.18,0,.34-.02,.47-.03,8.01,6.35,14.26,15.06,17.64,24.62,4.06,11.32,4.19,23.94,.35,35.53-3.72,11.43-11.36,21.46-21.53,28.25-4.85,3.29-10.37,5.79-16.4,7.43l-.1,.03c-1.24,.45-2.59,.89-4.01,1.35-7.59,2.48-17.03,5.57-21.8,13.52-.38,.63-.17,1.45,.46,1.83,.21,.13,.45,.19,.68,.19,.45,0,.89-.23,1.14-.65,4.26-7.1,13.17-10.02,20.34-12.36,1.36-.45,2.66-.87,3.88-1.3,.82,.39,1.89,.9,3.03,1.39l.15,.06c.29,.52,.82,1.4,1.61,2.37,1.69,2.06,3.77,3.45,6.01,4.02,.93,.24,1.85,.34,2.73,.34,2.07,0,3.9-.53,4.96-.92,.86-.29,1.71-.67,2.52-1.13,.58-.32,.92-.55,.96-.57l1.22-.81-.93-1.14s-.94-1.15-2.47-2.34c-.87-.68-1.79-1.28-2.72-1.77-1.19-.64-2.38-1.08-3.54-1.33-2.05-.45-4.27-.42-6.8,.1l-.39,.09c-.73,.18-1.35,.33-1.82,.48-.14,.05-.27,.09-.38,.13l-.1-.04c-.08-.04-.17-.07-.26-.11,4.72-1.6,9.11-3.74,13.07-6.38,1.14,.16,2.31,.28,3.49,.36,.44,.4,1.23,1.08,2.3,1.75,.98,.61,1.99,1.08,3.01,1.4,1.08,.35,2.15,.52,3.2,.52,.26,0,.51-.01,.77-.03,1.38-.1,2.77-.48,3.99-1.07,1.17-.54,2.26-1.22,3.12-1.93,1.74-1.35,2.73-2.68,2.77-2.74l.85-1.15-1.21-.76c-.05-.03-1.26-.79-3.08-1.44-2.5-.88-4.83-1.2-6.89-.95-1.19,.11-2.41,.41-3.62,.89-.95,.34-1.9,.81-2.82,1.37-.68,.38-1.33,.8-1.94,1.26-.1,.08-.19,.15-.27,.21-.13,0-.26-.02-.39-.03,3.89-2.96,7.37-6.39,10.36-10.18l1.34-.26,1.92-.46,.16-.04c.54,.25,1.51,.63,2.74,.93,1.04,.25,2.07,.37,3.07,.37,1.46,0,2.85-.26,4.13-.78h.03c1.23-.54,2.42-1.33,3.46-2.31,.87-.85,1.68-1.83,2.35-2.84,.6-.95,1.03-1.81,1.28-2.35,.31-.64,.44-1.07,.46-1.11l.42-1.35-1.38-.33c-.06-.01-1.43-.34-3.37-.38-1.72-.05-4.31,.15-6.88,1.3-1.9,.88-3.66,2.24-5.35,4.17-.62,.69-1.08,1.32-1.41,1.8-.08,.11-.15,.21-.22,.3l-.35,.09c2.72-4.01,4.93-8.35,6.53-12.92,.89-.51,1.91-1.1,2.89-1.74l.14-.09c.35,.03,.84,.07,1.44,.07,.43,0,.91-.02,1.42-.06,1.15-.1,2.25-.34,3.28-.7,1.26-.45,2.41-1.12,3.42-1.99,.97-.82,1.8-1.89,2.54-3.26,.55-.99,.99-2.12,1.33-3.44,.28-1.07,.45-2.03,.48-2.73,.05-.66,.05-1.07,.04-1.11Zm-10.81-9.99c.03-.9,.16-1.78,.37-2.61,.12-.48,.27-.96,.46-1.41l.09-.24c.16-.42,.32-.82,.52-1.21,1-1.92,2.69-3.38,3.92-4.28,.35-.25,.68-.47,.98-.65,.07,.44,.14,.97,.18,1.54v.07c.05,.96,.11,1.96-.09,2.96-.23,1.17-.6,2.2-1.09,3.06v.02c-.83,1.49-2.27,2.69-4.27,3.56-.4,.17-.78,.31-1.11,.42,.03-.4,.05-.82,.05-1.22ZM112.13,11v-.06c-.38-2.11,.06-4.27,.51-5.72,.13-.41,.26-.79,.39-1.12,.34,.32,.72,.69,1.11,1.12l.11,.12c.29,.33,.57,.65,.8,.98,.3,.47,.58,.93,.81,1.4,.53,1.05,.87,2.07,1.01,3.03,.25,2.17-.55,4.16-1.27,5.45-.22,.39-.44,.73-.64,1.03-.2-.27-.41-.59-.63-.94-.15-.27-.31-.53-.48-.81-.31-.5-.62-1.02-.87-1.61-.42-.93-.69-1.9-.83-2.89Zm-11.42,.68c-.9-.01-1.85-.13-2.82-.33h-.07c-1.07-.18-1.96-.48-2.74-.93-.2-.11-.4-.25-.61-.4l-.1-.07c-.2-.12-.4-.25-.59-.4-.36-.27-.73-.59-1.09-.97-.48-.48-.9-1.06-1.31-1.62-.18-.24-.35-.48-.52-.69-.36-.49-.66-.97-.9-1.38,.46-.15,1.04-.3,1.7-.43,.77-.17,1.7-.2,2.92-.08,.57,.06,1.13,.17,1.67,.31,.27,.07,.53,.15,.78,.24,.24,.11,.48,.24,.73,.38,.95,.55,1.83,1.28,2.61,2.16,.56,.71,1.04,1.54,1.52,2.61,.25,.58,.44,1.11,.57,1.54-.59,.04-1.17,.05-1.75,.04Zm-9.4,101.96l.32-.08c2.14-.44,4-.47,5.68-.1,.92,.2,1.88,.56,2.86,1.08,.8,.42,1.58,.92,2.32,1.51,.35,.27,.65,.53,.92,.78-.48,.23-.96,.44-1.47,.61-1.26,.46-3.74,1.15-6.13,.52h-.01c-1.71-.44-3.26-1.49-4.61-3.13-.28-.34-.52-.67-.72-.97,.26-.07,.55-.14,.85-.21Zm17.09-9.96l.05-.03c.78-.48,1.59-.87,2.38-1.16l.05-.02c.99-.4,1.93-.63,2.92-.72,1.69-.2,3.61,.07,5.73,.81,.41,.14,.78,.3,1.11,.44-.33,.32-.74,.69-1.21,1.06-.71,.59-1.6,1.14-2.59,1.6-.94,.46-2,.74-3.05,.82h-.01c-.94,.08-1.93-.05-2.94-.37-.81-.26-1.63-.64-2.42-1.13-.38-.24-.71-.47-1-.69,.28-.19,.62-.4,1-.61Zm12.81-14.75c1.45-1.65,2.92-2.8,4.46-3.51,2.11-.94,4.27-1.09,5.72-1.06,.43,0,.83,.03,1.19,.07-.21,.4-.47,.87-.77,1.36-.55,.83-1.23,1.65-1.95,2.36-.79,.75-1.71,1.36-2.66,1.77-1.66,.67-3.54,.77-5.56,.28-.44-.11-.83-.23-1.18-.34,.21-.28,.46-.59,.75-.92Zm3.4-62.07c.32-2.12,1.44-4.04,2.32-5.28,.25-.35,.49-.66,.72-.94,.22,.41,.45,.89,.69,1.43l.02,.05c.83,1.74,1.14,4.13,.79,6.08h0c-.15,.87-.54,1.78-1.16,2.71-.48,.72-1.07,1.4-1.76,2.03-.33,.3-.64,.55-.93,.77-.1-.33-.2-.7-.29-1.1v-.05c-.22-.78-.45-1.67-.53-2.66-.09-.83-.05-1.85,.13-3.03Zm13.04,37.69c-.29,1.11-.64,2.03-1.09,2.83-.6,1.1-1.21,1.9-1.93,2.51h-.01c-.76,.67-1.63,1.17-2.57,1.51-.81,.28-1.7,.47-2.63,.56-.44,.04-.85,.07-1.2,.05,.12-.33,.26-.71,.42-1.13,.55-1.31,1.48-3.21,3.12-4.75,1.23-1.18,2.93-2.12,5.05-2.81,.42-.14,.82-.24,1.17-.32-.07,.45-.18,.99-.33,1.55Z"/><path class="b" d="M82.93,124.98c-4.77-7.95-14.21-11.04-21.8-13.52-1.42-.46-2.77-.9-4.01-1.35l-.1-.03c-6.03-1.64-11.55-4.14-16.41-7.43-10.16-6.78-17.8-16.82-21.52-28.25-3.84-11.59-3.71-24.21,.35-35.53,3.38-9.56,9.63-18.26,17.64-24.62,.14,0,.29,.02,.47,.03,.69,.06,1.37,.09,2.04,.09,.17,0,.33,0,.5,0,1.05-.02,2.16-.15,3.29-.38,1.39-.22,2.58-.63,3.63-1.24,.26-.15,.52-.32,.79-.52,.26-.16,.51-.33,.76-.51,.48-.36,.95-.78,1.4-1.24,.61-.62,1.11-1.3,1.55-1.9,.17-.23,.33-.45,.49-.65l.03-.04c1.17-1.61,1.83-3.04,1.86-3.1l.54-1.17-1.16-.58c-.06-.03-1.48-.73-3.6-1.14-1.06-.24-2.26-.28-3.81-.12-.7,.08-1.4,.21-2.06,.38-.36,.1-.71,.21-1.05,.33l-.1,.04c-.33,.15-.67,.33-1.01,.52-1.21,.7-2.32,1.62-3.3,2.74l-.04,.05c-.7,.88-1.32,1.94-1.89,3.22-.45,1.04-.72,1.94-.87,2.52v.06c-.05,.19-.08,.36-.11,.51-3.03,2.4-5.82,5.12-8.31,8.09v-.21s0-.09,0-.13c.38-.44,.99-1.2,1.61-2.21l.03-.05c.13-.24,.28-.48,.43-.73,.34-.56,.73-1.19,1.03-1.91,.52-1.15,.86-2.36,1.03-3.6,.46-2.62-.07-5.21-.59-6.93-.57-1.86-1.27-3.11-1.3-3.16l-.74-1.3-1.21,.88c-.05,.04-1.35,.99-2.8,2.6l-.1,.12c-.32,.36-.68,.77-1.03,1.28-.36,.55-.68,1.1-.96,1.65-.67,1.32-1.09,2.62-1.27,3.89v.03c-.27,2.28,.28,4.72,1.59,7.08,.61,1.08,1.23,1.89,1.61,2.35,0,.06,0,.11,0,.17v.93l.21,2.38c-2.87,3.94-5.25,8.22-7.03,12.71-.02-.05-.04-.1-.05-.15l-.05-.13c.22-.54,.54-1.45,.8-2.59,.22-.84,.49-1.88,.58-3.03,.11-1.05,.06-2.3-.14-3.71-.4-2.64-1.74-4.95-2.78-6.42-1.13-1.59-2.19-2.55-2.24-2.59l-1.12-1-.86,1.23c-.04,.06-.95,1.36-1.8,3.32-1.06,2.24-1.45,5.18-1,7.67,.21,1.22,.74,2.48,1.56,3.72,.6,.9,1.33,1.75,2.19,2.53,.92,.84,1.77,1.41,2.28,1.72l.06,.18c.06,.16,.12,.32,.17,.48,.15,.43,.31,.88,.51,1.36l.54,1.21c-1.47,4.62-2.34,9.42-2.58,14.27l-.09-.11s-.06-.08-.09-.12c0-.12,0-.25,.01-.41,0-.34,0-.69-.02-1.07-.03-.34-.04-.72-.05-1.14-.04-1.09-.19-2.15-.45-3.16-.15-.6-.34-1.18-.56-1.74l-.09-.23c-.19-.48-.38-.97-.65-1.48-1.24-2.38-3.25-4.14-4.72-5.2-1.59-1.15-2.87-1.71-2.92-1.73l-1.27-.55-.5,1.29c-.03,.08-.19,.51-.31,1.2-.12,.6-.28,1.56-.36,2.7v.07c-.06,1.08-.12,2.29,.14,3.62,.29,1.45,.75,2.75,1.39,3.86,1.1,1.98,3.01,3.61,5.52,4.7,1.15,.5,2.15,.77,2.73,.9,.04,.05,.08,.1,.12,.15l1.18,1.45c.34,.42,.64,.76,.93,1.08,.1,4.84,.8,9.68,2.11,14.38-.06-.04-.13-.08-.2-.12l-.12-.08c-.03-.11-.07-.24-.11-.38-.16-.54-.41-1.22-.75-2.11l-.02-.05c-.65-1.53-1.74-3.79-3.75-5.66-1.52-1.45-3.56-2.6-6.08-3.42-1.83-.59-3.25-.71-3.31-.71l-1.43-.12L0,61.38s0,.45,.04,1.07c.03,.74,.2,1.7,.48,2.76,.34,1.34,.78,2.46,1.32,3.44,.75,1.38,1.58,2.45,2.55,3.27,1.01,.87,2.16,1.54,3.43,2,1.02,.36,2.12,.59,3.27,.69,.51,.05,.99,.06,1.42,.06,.6,0,1.09-.03,1.44-.07l.15,.1c.97,.63,1.99,1.22,2.88,1.73,1.61,4.57,3.81,8.92,6.54,12.93l-.19-.05-.16-.04c-.06-.09-.14-.2-.22-.31-.33-.48-.79-1.11-1.4-1.8-1.7-1.93-3.46-3.3-5.37-4.18-2.56-1.14-5.15-1.34-6.86-1.29-1.95,.04-3.32,.37-3.38,.38l-1.38,.33,.42,1.35s.15,.47,.45,1.1c.26,.56,.69,1.42,1.31,2.39,.65,.98,1.46,1.95,2.35,2.83,1.02,.96,2.21,1.75,3.44,2.28h.03c1.28,.53,2.68,.8,4.13,.8,1,0,2.04-.12,3.08-.37,1.23-.3,2.2-.69,2.74-.94l2.01,.5,1.4,.27c2.99,3.8,6.47,7.23,10.36,10.19-.13,.01-.26,.02-.39,.03-.08-.06-.17-.13-.28-.21-.6-.45-1.25-.88-1.93-1.25-.92-.56-1.87-1.03-2.82-1.37-1.21-.48-2.42-.78-3.58-.89-2.09-.25-4.42,.07-6.93,.95-1.82,.64-3.03,1.4-3.08,1.44l-1.21,.76,.85,1.15c.04,.06,1.03,1.39,2.74,2.71,.89,.73,1.98,1.41,3.13,1.94,1.24,.6,2.63,.98,4.01,1.08,.25,.02,.51,.03,.77,.03,1.05,0,2.12-.17,3.2-.52,1.02-.33,2.04-.8,3.02-1.41,1.07-.67,1.87-1.35,2.3-1.75,1.18-.08,2.35-.2,3.49-.36,3.97,2.64,8.36,4.77,13.07,6.38-.08,.03-.15,.07-.23,.1l-.13,.05c-.11-.04-.23-.08-.36-.12-.49-.16-1.12-.31-1.84-.49l-.39-.09c-2.53-.52-4.75-.55-6.79-.1-1.17,.25-2.36,.7-3.54,1.33-.94,.49-1.86,1.09-2.73,1.77-1.52,1.19-2.43,2.3-2.47,2.34l-.93,1.14,1.22,.81s.38,.25,.95,.57c.82,.46,1.67,.85,2.5,1.13,1.09,.4,2.93,.93,5,.93,.88,0,1.8-.1,2.72-.34,2.24-.57,4.32-1.96,6.01-4.02,.79-.96,1.32-1.84,1.61-2.37l.18-.07c1.12-.48,2.19-.98,3-1.38,1.22,.44,2.51,.86,3.88,1.3,7.17,2.34,16.08,5.26,20.34,12.36,.25,.42,.69,.65,1.14,.65,.23,0,.47-.06,.68-.19,.63-.38,.84-1.2,.46-1.83ZM38.86,10.11c.48-1.08,.97-1.91,1.52-2.62,.78-.89,1.66-1.62,2.61-2.16,.25-.14,.49-.27,.73-.38,.25-.09,.52-.17,.78-.24,.54-.14,1.1-.25,1.66-.31,1.23-.13,2.17-.1,2.98,.08,.64,.12,1.2,.28,1.66,.42-.24,.41-.55,.88-.9,1.38-.17,.22-.34,.45-.52,.69-.41,.56-.84,1.13-1.32,1.63-.35,.37-.71,.69-1.08,.96-.19,.14-.39,.28-.59,.4l-.1,.07c-.21,.16-.41,.29-.61,.4-.77,.45-1.67,.75-2.74,.92h-.07c-.98,.22-1.93,.33-2.83,.34-.57,.01-1.15,0-1.74-.04,.13-.43,.31-.96,.57-1.53Zm-14.96,.65c.14-.96,.47-1.98,1.01-3.04,.23-.46,.51-.93,.8-1.38,.24-.35,.51-.66,.81-1l.09-.11c.4-.44,.78-.82,1.12-1.14,.13,.33,.26,.71,.39,1.12,.44,1.45,.89,3.61,.51,5.72v.06c-.14,.99-.42,1.96-.85,2.91-.24,.56-.55,1.08-.86,1.58-.17,.28-.33,.54-.48,.81-.22,.35-.43,.67-.63,.94-.2-.3-.42-.64-.64-1.03-.72-1.29-1.52-3.29-1.27-5.46ZM9.75,52.18c-2-.87-3.43-2.07-4.26-3.56v-.02c-.5-.86-.87-1.89-1.1-3.06-.2-1-.15-1.99-.1-2.96v-.04c.04-.58,.11-1.11,.18-1.56,.3,.18,.63,.4,.97,.65,1.23,.89,2.92,2.36,3.93,4.29,.2,.37,.35,.77,.52,1.19l.09,.24c.18,.45,.33,.92,.45,1.41,.21,.83,.33,1.71,.37,2.57,0,.45,.02,.88,.05,1.25h0c-.34-.1-.71-.24-1.11-.41Zm3.01-21.27c-.62-.93-1.01-1.84-1.16-2.7h0c-.35-1.96-.04-4.35,.79-6.09l.02-.05c.23-.54,.47-1.02,.69-1.43,.23,.27,.47,.59,.72,.94,.88,1.23,2,3.15,2.32,5.27,.17,1.19,.22,2.21,.13,3.07-.08,.96-.31,1.85-.52,2.63v.05c-.1,.41-.2,.78-.3,1.11-.29-.22-.6-.47-.93-.77-.69-.63-1.28-1.31-1.76-2.03Zm-1.43,41.04c-.93-.09-1.82-.27-2.62-.55-.95-.34-1.82-.85-2.58-1.5h-.01c-.72-.62-1.33-1.42-1.94-2.54-.44-.78-.79-1.71-1.08-2.83-.15-.55-.26-1.08-.33-1.54,.35,.08,.74,.19,1.16,.32,2.12,.69,3.82,1.64,5.07,2.83,1.63,1.53,2.56,3.43,3.11,4.74,.16,.42,.3,.8,.42,1.13-.36-.01-.76-.01-1.2-.05Zm7.8,18.24c-2.03,.49-3.91,.39-5.57-.28-.95-.41-1.87-1.02-2.64-1.75-.74-.72-1.42-1.55-1.95-2.35-.32-.5-.58-.98-.79-1.39,.35-.03,.76-.06,1.19-.07,1.45-.03,3.61,.12,5.7,1.06,1.56,.72,3.02,1.87,4.49,3.53,.29,.32,.53,.63,.75,.91-.34,.12-.74,.24-1.17,.34Zm13.23,14.79c-.79,.49-1.6,.87-2.42,1.13-1.01,.32-1.99,.45-2.94,.37h-.01c-1.05-.08-2.11-.36-3.07-.83-.97-.45-1.85-1-2.6-1.61-.46-.36-.86-.71-1.18-1.03,.33-.14,.7-.29,1.1-.44,2.12-.74,4.04-1.02,5.77-.81,.96,.09,1.9,.32,2.89,.72l.05,.02c.8,.29,1.6,.68,2.38,1.16l.05,.03c.38,.21,.71,.42,1,.61-.29,.22-.62,.46-1,.69Zm17.22,9.84c-1.35,1.64-2.9,2.7-4.61,3.13h-.01c-2.4,.63-4.87-.05-6.16-.52-.48-.16-.96-.36-1.44-.6,.27-.24,.57-.51,.92-.78,.74-.58,1.52-1.09,2.33-1.51,.97-.52,1.93-.88,2.86-1.08,1.67-.37,3.53-.33,5.67,.11l.32,.08c.31,.07,.59,.14,.85,.21-.2,.3-.44,.62-.72,.97Z"/></g><g><path class="b" d="M78.36,64.98c-.49,0-.83,.59-.82,1.87,0,1.27,.32,1.87,.83,1.87s.81-.63,.81-1.88-.28-1.86-.81-1.86Z"/><path class="b" d="M91.92,56.63c-.32,0-.51,.02-.6,.04v1.57h.53c.67,0,1.06-.33,1.06-.82,0-.52-.37-.79-.99-.79Z"/><path class="b" d="M86.42,56.68h-.02c-.09,.34-.18,.77-.27,1.1l-.36,1.21h1.31l-.37-1.21c-.1-.34-.21-.77-.3-1.1Z"/><path class="b" d="M75.25,50.29c0-1.19-.72-1.81-1.87-1.81-.29,0-.49,.02-.61,.05v3.74c.12,.02,.3,.02,.47,.02,1.22,.01,2.01-.64,2.01-2Z"/><path class="b" d="M73.94,57.78c-.1-.34-.21-.77-.3-1.1h-.02c-.09,.34-.18,.77-.27,1.1l-.35,1.21h1.31l-.37-1.21Z"/><path class="b" d="M87.72,64.95c-.45,0-.79,.39-.78,.96,0,.47,.27,.88,.81,.88,.37,0,.62-.16,.75-.36,.04-.08,.06-.16,.06-.32,0-.59-.23-1.16-.84-1.16Z"/><path class="b" d="M70.48,14.8c-23.51,0-42.63,19.12-42.63,42.63s19.12,42.63,42.63,42.63,42.63-19.12,42.63-42.63S93.98,14.8,70.48,14.8Zm-21.5,55.04h-6.2v-14.2h6.2v14.2Zm-3.06-15.93c-1.91,0-3.46-1.55-3.46-3.46s1.55-3.46,3.46-3.46,3.46,1.55,3.46,3.46-1.55,3.46-3.46,3.46Zm11.26,15.93h-6.2v-22.44h6.2v22.44Zm8.17-8.12h-6.2v-6.2h6.2v6.2Zm0-8.12h-6.2v-6.2h6.2v6.2Zm26.77-6.12c.77,0,1.36,.14,1.65,.27l-.28,1.03c-.33-.14-.73-.24-1.38-.24-1.12,0-1.97,.6-1.97,1.85s.77,1.87,1.87,1.87c.3,0,.55-.03,.66-.08v-1.2h-.92v-1.01h2.21v3.01c-.42,.14-1.2,.32-1.98,.32-1.08,0-1.87-.26-2.41-.77-.54-.5-.84-1.24-.84-2.08,0-1.9,1.45-2.98,3.39-2.98Zm-5.44,.06h1.34v5.71h-1.34v-5.71Zm-3.1,3.31c-.99-.34-1.64-.86-1.64-1.69,0-.97,.85-1.71,2.25-1.71,.68,0,1.17,.13,1.52,.29l-.3,1.03c-.24-.11-.66-.27-1.24-.27s-.86,.26-.86,.55c0,.36,.33,.52,1.1,.8,1.05,.38,1.54,.9,1.54,1.71,0,.95-.76,1.77-2.39,1.77-.67,0-1.35-.18-1.68-.35l.27-1.07c.36,.18,.91,.36,1.49,.36,.62,0,.94-.25,.94-.62,0-.35-.28-.56-.99-.8Zm-6.01-3.31h3.66v1.06h-2.31v1.19h2.18v1.05h-2.18v1.36h2.44v1.06h-3.78v-5.71Zm-6.13,.08c.49-.08,1.14-.12,1.81-.12,1.13,0,1.86,.2,2.43,.61,.62,.44,1,1.14,1,2.15,0,1.09-.41,1.85-.98,2.31-.62,.5-1.58,.74-2.74,.74-.7,0-1.19-.04-1.52-.08v-5.6Zm1.38,8.1h1.76l1.85,5.71h-1.45l-.46-1.47h-1.71l-.42,1.47h-1.39l1.81-5.71Zm2.47,13.89h-4.06v-.78l.74-.64c1.25-1.08,1.86-1.7,1.87-2.34,0-.45-.27-.8-.94-.8-.49,0-.92,.24-1.23,.45l-.38-.92c.43-.31,1.1-.57,1.87-.57,1.3,0,2.01,.73,2.01,1.72,0,.92-.69,1.67-1.52,2.37l-.53,.42v.02h2.17v1.06Zm3.06,.09c-1.48,0-2.13-1.28-2.14-2.83,0-1.6,.7-2.86,2.18-2.86s2.14,1.31,2.14,2.82c0,1.7-.72,2.87-2.17,2.87Zm2.16-10.73c-.12-.57-.21-1.11-.29-1.76h-.02c-.1,.64-.2,1.18-.34,1.76l-.57,2.45h-1.47l-1.41-5.71h1.44l.45,2.35c.13,.68,.25,1.42,.35,2h.02c.1-.62,.24-1.3,.39-2.01l.51-2.33h1.43l.47,2.41c.13,.67,.23,1.28,.31,1.91h.02c.09-.64,.22-1.3,.35-1.98l.48-2.33h1.36l-1.53,5.71h-1.45l-.51-2.46Zm3.32,10.64h-1.29v-4.36h-.02l-1.09,.5-.22-.97,1.52-.68h1.1v5.5Zm1.35-8.18h-1.39l1.81-5.71h1.76l1.85,5.71h-1.45l-.46-1.47h-1.71l-.42,1.47Zm3.75,7.49c-.55,.48-1.3,.73-2.19,.77-.22,.02-.45,0-.61,0v-1c.17,.02,.32,.01,.58,0,.41-.02,.82-.14,1.13-.34,.38-.24,.62-.6,.72-1.02h-.02c-.26,.24-.63,.39-1.15,.39-.97,0-1.78-.65-1.78-1.72s.9-1.98,2.16-1.98c1.47,0,2.16,1.08,2.16,2.37,0,1.15-.38,1.98-1,2.54Zm4.17-7.49c-.09-.17-.24-.62-.41-1.33-.17-.71-.41-.9-.97-.91h-.4v2.24h-1.33v-5.63c.43-.07,1.07-.12,1.78-.12,.88,0,1.5,.13,1.92,.45,.35,.27,.55,.67,.55,1.2,0,.72-.54,1.23-1.05,1.4v.03c.41,.16,.64,.54,.79,1.06,.18,.65,.36,1.39,.48,1.61h-1.37Zm1.74-13.89h1.56l1.23,2.09c.36,.6,.7,1.31,.97,1.96h.02c-.08-.76-.11-1.52-.11-2.39v-1.66h1.23v5.71h-1.41l-1.27-2.2c-.35-.62-.74-1.35-1.03-2.02h-.03c.04,.76,.06,1.57,.06,2.5v1.72h-1.23v-5.71Zm4.64,13.21c-.62,.5-1.58,.74-2.74,.74-.7,0-1.19-.04-1.52-.08v-5.6c.49-.08,1.14-.12,1.81-.12,1.13,0,1.86,.2,2.43,.61,.62,.44,1,1.14,1,2.15,0,1.09-.41,1.85-.98,2.31Z"/><path class="b" d="M97.16,56.66c-.29,0-.49,.02-.61,.05v3.74c.12,.02,.3,.02,.47,.02,1.22,.01,2.01-.64,2.01-2,0-1.19-.72-1.81-1.87-1.81Z"/></g></svg>