<?xml version="1.0" encoding="UTF-8"?><svg id="a" xmlns="http://www.w3.org/2000/svg" viewBox="0 0 150 135"><defs><style>.b{fill:#fff;}</style></defs><g><path class="b" d="M139.58,65.55l-.02-1.31-1.31,.11c-.05,0-1.36,.12-3.05,.66-2.3,.75-4.17,1.81-5.56,3.13-1.85,1.73-2.85,3.8-3.45,5.21l-.02,.04c-.31,.82-.54,1.44-.69,1.93-.04,.13-.07,.25-.1,.35l-.1,.06c-.06,.04-.13,.08-.19,.12,1.2-4.32,1.85-8.76,1.94-13.2,.27-.29,.55-.61,.86-.99l1.09-1.34,.1-.13c.53-.12,1.45-.37,2.51-.83,2.31-1,4.06-2.49,5.07-4.31,.58-1.02,1.01-2.21,1.28-3.54,.24-1.22,.18-2.33,.13-3.32v-.08c-.08-1.03-.23-1.9-.33-2.43-.12-.65-.26-1.05-.29-1.12l-.46-1.19-1.17,.51s-1.22,.54-2.68,1.59c-1.35,.97-3.19,2.59-4.33,4.76-.25,.47-.43,.93-.6,1.37l-.08,.2c-.2,.51-.38,1.05-.52,1.6-.23,.92-.37,1.9-.41,2.93,0,.36-.02,.7-.04,1.05-.02,.32-.02,.63-.02,.95,0,.14,0,.26,.01,.37-.02,.03-.05,.07-.08,.1l-.09,.11c-.23-4.45-1.02-8.85-2.37-13.09l.5-1.12c.18-.42,.33-.83,.46-1.23,.05-.15,.1-.3,.16-.46,.02-.05,.03-.1,.05-.15,.47-.29,1.25-.81,2.1-1.58,.78-.71,1.46-1.49,2.01-2.32,.76-1.14,1.24-2.29,1.43-3.41,.41-2.29,.06-4.98-.92-7.04-.78-1.8-1.61-3-1.65-3.05l-.79-1.13-1.02,.92s-1.02,.92-2.05,2.37c-.96,1.35-2.19,3.47-2.56,5.9-.19,1.29-.23,2.44-.13,3.37,.09,1.08,.34,2.03,.54,2.8,.23,1.05,.53,1.88,.73,2.37-.01,.03-.02,.07-.04,.11-.02,.05-.04,.1-.05,.15-1.63-4.12-3.81-8.05-6.45-11.66l.11-1.24,.06-.88,.02-.93s0-.1,0-.15c.35-.42,.92-1.17,1.48-2.16,1.2-2.15,1.7-4.4,1.46-6.49v-.03c-.17-1.16-.56-2.36-1.17-3.56-.25-.5-.55-1.01-.89-1.53-.31-.45-.64-.83-.93-1.16l-.11-.12c-1.32-1.46-2.51-2.33-2.56-2.37l-1.11-.8-.68,1.19s-.67,1.19-1.19,2.9c-.48,1.58-.97,3.96-.55,6.36,.15,1.13,.47,2.24,.94,3.27,.29,.69,.65,1.27,.96,1.78,.14,.23,.28,.45,.4,.67l.03,.04c.56,.92,1.12,1.62,1.47,2.03v.31c-2.29-2.72-4.85-5.22-7.63-7.42-.02-.14-.05-.29-.09-.47v-.06c-.15-.53-.39-1.36-.82-2.32-.52-1.17-1.09-2.14-1.73-2.95l-.04-.04c-.9-1.03-1.92-1.88-3.03-2.52-.31-.18-.62-.34-.93-.48l-.09-.04c-.31-.11-.64-.21-.97-.3-.61-.16-1.25-.28-1.9-.35-1.4-.14-2.51-.1-3.44,.11-1.98,.38-3.28,1.02-3.34,1.05l-1.06,.53,.5,1.08c.03,.05,.64,1.37,1.71,2.84l.03,.04c.15,.19,.3,.39,.45,.6,.41,.55,.87,1.17,1.41,1.73,.42,.43,.85,.82,1.29,1.15,.23,.17,.46,.33,.7,.47,.25,.18,.49,.34,.73,.47,.97,.56,2.06,.94,3.33,1.14,1.04,.21,2.05,.33,3.01,.35,.15,0,.31,0,.46,0,.61,0,1.24-.03,1.87-.08,.16,0,.31-.01,.43-.02,7.35,5.83,13.08,13.81,16.19,22.59,3.73,10.39,3.84,21.96,.32,32.61-3.41,10.49-10.42,19.7-19.75,25.93-4.45,3.02-9.51,5.31-15.05,6.82l-.09,.03c-1.14,.41-2.38,.81-3.68,1.24-6.96,2.28-15.63,5.11-20,12.41-.35,.58-.16,1.33,.42,1.68,.2,.12,.41,.17,.63,.17,.42,0,.82-.21,1.05-.59,3.91-6.51,12.09-9.19,18.66-11.34,1.25-.41,2.44-.8,3.56-1.2,.75,.36,1.74,.83,2.78,1.28l.14,.06c.26,.48,.75,1.29,1.48,2.17,1.55,1.89,3.46,3.17,5.52,3.69,.85,.22,1.7,.31,2.5,.31,1.9,0,3.57-.48,4.55-.84,.79-.27,1.57-.62,2.31-1.04,.53-.3,.84-.5,.88-.52l1.12-.75-.85-1.04s-.87-1.06-2.26-2.15c-.8-.63-1.64-1.17-2.5-1.62-1.09-.58-2.19-.99-3.25-1.22-1.88-.41-3.92-.38-6.24,.09l-.35,.08c-.67,.16-1.24,.3-1.67,.44-.13,.04-.25,.08-.35,.12l-.09-.04c-.08-.03-.16-.07-.23-.1,4.33-1.47,8.36-3.43,12-5.85,1.05,.14,2.12,.25,3.2,.33,.4,.37,1.13,.99,2.11,1.61,.9,.56,1.83,.99,2.76,1.29,.99,.32,1.97,.48,2.94,.48,.24,0,.47,0,.7-.03,1.27-.09,2.54-.44,3.66-.98,1.08-.5,2.07-1.12,2.86-1.77,1.6-1.24,2.5-2.46,2.54-2.51l.78-1.06-1.11-.7s-1.16-.73-2.83-1.32c-2.3-.81-4.44-1.1-6.32-.87-1.1,.1-2.21,.37-3.32,.82-.87,.32-1.74,.74-2.59,1.26-.62,.35-1.22,.73-1.78,1.16-.09,.07-.17,.13-.25,.19-.12,0-.24-.02-.35-.03,3.57-2.71,6.76-5.86,9.51-9.35l1.23-.24,1.76-.43,.15-.04c.5,.23,1.38,.58,2.51,.86,.96,.23,1.9,.34,2.82,.34,1.34,0,2.62-.24,3.79-.72h.03c1.13-.5,2.22-1.22,3.17-2.12,.8-.78,1.54-1.68,2.15-2.6,.55-.87,.94-1.66,1.18-2.16,.28-.59,.4-.98,.42-1.02l.38-1.24-1.26-.31c-.05-.01-1.31-.31-3.09-.35-1.58-.04-3.95,.14-6.32,1.19-1.75,.81-3.36,2.06-4.91,3.82-.57,.63-.99,1.22-1.29,1.65-.07,.1-.14,.19-.2,.28l-.32,.08c2.5-3.68,4.52-7.66,5.99-11.85,.81-.47,1.75-1.01,2.65-1.6l.13-.09c.32,.03,.77,.06,1.32,.06,.39,0,.83-.02,1.31-.06,1.06-.1,2.06-.31,3.01-.64,1.16-.41,2.21-1.03,3.14-1.83,.89-.75,1.65-1.73,2.33-2.99,.51-.91,.91-1.94,1.22-3.16,.26-.98,.41-1.86,.44-2.5,.04-.61,.04-.98,.04-1.02Zm-9.92-9.17c.03-.83,.15-1.64,.34-2.4,.11-.44,.25-.88,.42-1.3l.08-.22c.15-.39,.29-.75,.48-1.11,.92-1.76,2.46-3.11,3.6-3.92,.32-.23,.62-.43,.9-.6,.06,.41,.12,.89,.16,1.41v.06c.05,.88,.1,1.8-.08,2.72-.21,1.07-.55,2.02-1,2.81v.02c-.77,1.37-2.08,2.46-3.92,3.26-.37,.16-.71,.29-1.02,.39,.03-.37,.04-.76,.05-1.12Zm-16.34-37.05v-.05c-.35-1.93,.06-3.92,.46-5.25,.12-.38,.24-.72,.36-1.03,.31,.29,.66,.64,1.01,1.03l.1,.11c.27,.31,.52,.59,.73,.9,.28,.43,.53,.86,.74,1.28,.49,.96,.8,1.9,.92,2.78,.23,1.99-.51,3.82-1.16,5-.2,.36-.4,.67-.59,.95-.18-.25-.38-.54-.58-.86-.14-.24-.29-.49-.44-.74-.28-.46-.57-.93-.8-1.48-.38-.85-.64-1.74-.76-2.65Zm-10.48,.62c-.82-.01-1.69-.12-2.59-.3h-.06c-.98-.16-1.8-.44-2.51-.85-.18-.11-.36-.23-.56-.37l-.09-.06c-.18-.11-.37-.23-.54-.36-.33-.25-.67-.54-1-.89-.44-.44-.83-.97-1.2-1.48-.17-.22-.32-.44-.48-.64-.33-.45-.6-.89-.83-1.26,.43-.13,.95-.28,1.56-.39,.71-.16,1.56-.18,2.68-.07,.53,.06,1.04,.15,1.53,.29,.24,.07,.49,.14,.72,.22,.22,.1,.44,.22,.67,.35,.87,.5,1.68,1.17,2.39,1.99,.51,.65,.96,1.42,1.4,2.4,.23,.53,.4,1.02,.52,1.41-.54,.04-1.08,.05-1.6,.03Zm-8.63,93.56l.29-.07c1.97-.4,3.67-.43,5.21-.1,.85,.18,1.73,.51,2.63,.99,.73,.38,1.45,.85,2.13,1.38,.32,.25,.6,.49,.84,.71-.44,.21-.88,.4-1.35,.56-1.16,.42-3.43,1.05-5.63,.47h0c-1.57-.4-2.99-1.37-4.23-2.88-.26-.31-.48-.61-.66-.89,.24-.06,.5-.12,.78-.19Zm15.68-9.14l.05-.03c.72-.44,1.45-.8,2.19-1.06l.04-.02c.9-.36,1.77-.58,2.68-.66,1.55-.18,3.32,.07,5.25,.75,.37,.13,.72,.27,1.01,.4-.31,.3-.68,.63-1.11,.97-.65,.54-1.47,1.05-2.38,1.47-.87,.42-1.84,.68-2.8,.75h-.01c-.86,.07-1.77-.04-2.7-.34-.75-.24-1.49-.59-2.22-1.04-.35-.22-.66-.43-.92-.64,.26-.17,.57-.36,.91-.56Zm11.75-13.53c1.33-1.51,2.68-2.57,4.1-3.22,1.93-.86,3.92-1,5.25-.98,.4,0,.76,.03,1.09,.06-.19,.37-.43,.8-.71,1.25-.5,.76-1.13,1.51-1.79,2.16-.73,.68-1.57,1.25-2.44,1.62-1.53,.62-3.24,.71-5.1,.26-.4-.1-.76-.21-1.08-.32,.2-.26,.43-.54,.69-.84Zm3.12-56.96c.3-1.95,1.32-3.71,2.13-4.84,.23-.32,.45-.61,.66-.86,.2,.37,.42,.82,.63,1.31l.02,.04c.76,1.6,1.05,3.79,.73,5.58h0c-.14,.8-.49,1.63-1.06,2.49-.44,.66-.98,1.28-1.61,1.86-.3,.27-.59,.51-.85,.7-.09-.3-.18-.64-.27-1.01v-.05c-.2-.72-.41-1.53-.49-2.44-.08-.76-.04-1.7,.12-2.78Zm11.97,34.58c-.26,1.02-.59,1.86-1,2.6-.55,1.01-1.11,1.74-1.77,2.3h-.01c-.7,.61-1.49,1.08-2.36,1.38-.75,.26-1.56,.43-2.41,.51-.4,.04-.78,.06-1.1,.05,.11-.3,.24-.65,.39-1.03,.51-1.2,1.36-2.95,2.86-4.36,1.13-1.08,2.69-1.95,4.63-2.58,.39-.12,.75-.22,1.08-.3-.06,.41-.17,.91-.3,1.42Z"/><path class="b" d="M86.52,123.92c-4.38-7.3-13.04-10.13-20-12.41-1.31-.43-2.54-.83-3.68-1.24l-.09-.03c-5.53-1.5-10.6-3.8-15.06-6.82-9.32-6.23-16.33-15.43-19.75-25.93-3.52-10.64-3.41-22.21,.32-32.61,3.1-8.77,8.84-16.76,16.18-22.59,.12,0,.27,.02,.43,.02,.63,.06,1.26,.08,1.87,.08,.15,0,.31,0,.46,0,.97-.02,1.98-.13,3.02-.35,1.27-.2,2.36-.58,3.33-1.14,.24-.14,.48-.3,.73-.47,.24-.14,.47-.3,.7-.47,.44-.33,.88-.72,1.28-1.14,.56-.57,1.02-1.19,1.42-1.74,.16-.21,.31-.41,.45-.6l.03-.04c1.07-1.48,1.68-2.79,1.71-2.84l.5-1.08-1.06-.53c-.05-.03-1.36-.67-3.3-1.04-.97-.22-2.08-.26-3.49-.11-.65,.07-1.28,.19-1.89,.35-.33,.09-.65,.19-.97,.3l-.09,.04c-.31,.14-.62,.3-.93,.48-1.11,.64-2.13,1.49-3.03,2.52l-.04,.04c-.64,.81-1.21,1.78-1.74,2.96-.42,.95-.66,1.78-.8,2.31v.06c-.05,.18-.08,.33-.1,.47-2.78,2.2-5.34,4.7-7.63,7.42v-.19s0-.08,0-.12c.35-.4,.91-1.1,1.47-2.03l.03-.04c.12-.22,.26-.44,.4-.67,.31-.51,.67-1.09,.95-1.75,.47-1.06,.79-2.17,.95-3.3,.42-2.4-.06-4.78-.54-6.36-.52-1.71-1.16-2.85-1.19-2.9l-.68-1.19-1.11,.8c-.05,.04-1.24,.91-2.57,2.38l-.09,.11c-.29,.33-.63,.71-.94,1.18-.33,.5-.62,1.01-.88,1.51-.61,1.21-1,2.41-1.17,3.57v.03c-.25,2.09,.26,4.34,1.45,6.49,.56,.99,1.13,1.74,1.48,2.16,0,.05,0,.1,0,.16v.85l.19,2.19c-2.64,3.61-4.82,7.55-6.45,11.67-.02-.05-.03-.09-.05-.14l-.04-.12c.2-.49,.5-1.33,.73-2.37,.2-.77,.45-1.73,.54-2.78,.1-.97,.06-2.11-.13-3.41-.37-2.43-1.59-4.54-2.55-5.89-1.04-1.46-2.01-2.34-2.05-2.37l-1.02-.92-.79,1.13c-.04,.05-.87,1.25-1.65,3.05-.98,2.06-1.33,4.75-.92,7.04,.19,1.12,.68,2.27,1.43,3.41,.55,.82,1.22,1.6,2.01,2.32,.85,.77,1.63,1.29,2.1,1.58l.06,.16c.05,.15,.11,.3,.16,.44,.14,.4,.28,.81,.47,1.24l.49,1.11c-1.35,4.24-2.14,8.65-2.37,13.09l-.08-.1s-.06-.07-.08-.11c0-.11,0-.23,.01-.37,0-.31,0-.63-.02-.98-.02-.32-.04-.66-.04-1.05-.04-1-.18-1.97-.41-2.9-.14-.55-.31-1.09-.51-1.59l-.08-.21c-.17-.44-.35-.89-.59-1.36-1.14-2.18-2.99-3.8-4.33-4.77-1.46-1.05-2.63-1.57-2.68-1.59l-1.17-.51-.46,1.19c-.03,.07-.17,.47-.29,1.1-.11,.55-.26,1.43-.33,2.48v.06c-.06,.99-.11,2.11,.13,3.32,.26,1.33,.69,2.52,1.28,3.54,1.01,1.82,2.76,3.31,5.07,4.31,1.06,.46,1.97,.71,2.51,.83,.04,.05,.07,.09,.11,.14l1.08,1.33c.31,.38,.58,.7,.86,.99,.09,4.44,.73,8.88,1.94,13.2-.06-.04-.12-.08-.18-.11l-.11-.07c-.03-.1-.06-.22-.1-.35-.15-.5-.38-1.12-.69-1.94l-.02-.04c-.59-1.41-1.6-3.48-3.44-5.2-1.4-1.33-3.27-2.39-5.58-3.14-1.68-.54-2.98-.65-3.04-.65l-1.31-.11-.02,1.31s0,.41,.04,.98c.03,.68,.18,1.56,.44,2.53,.32,1.23,.72,2.26,1.21,3.15,.69,1.27,1.45,2.25,2.34,3,.92,.8,1.98,1.41,3.15,1.83,.94,.33,1.94,.54,3,.64,.47,.04,.91,.06,1.3,.06,.55,0,1-.03,1.32-.06l.14,.09c.89,.58,1.83,1.12,2.64,1.59,1.48,4.2,3.5,8.18,6,11.86l-.18-.04-.15-.04c-.06-.08-.13-.18-.2-.28-.3-.44-.72-1.02-1.29-1.65-1.56-1.77-3.17-3.03-4.93-3.84-2.35-1.05-4.72-1.23-6.3-1.19-1.79,.04-3.05,.34-3.1,.35l-1.26,.31,.38,1.24s.14,.43,.41,1.01c.24,.51,.64,1.3,1.2,2.2,.6,.9,1.34,1.79,2.15,2.59,.93,.88,2.03,1.6,3.15,2.09h.03c1.17,.49,2.46,.73,3.79,.73,.92,0,1.87-.11,2.83-.34,1.13-.28,2.02-.64,2.52-.86l1.84,.46,1.29,.25c2.75,3.49,5.94,6.63,9.51,9.35-.12,0-.24,.02-.35,.03-.08-.06-.16-.12-.25-.2-.55-.42-1.15-.8-1.77-1.15-.85-.52-1.72-.94-2.59-1.26-1.11-.44-2.22-.72-3.28-.81-1.92-.23-4.06,.06-6.36,.87-1.67,.59-2.78,1.29-2.82,1.32l-1.11,.7,.78,1.06c.04,.05,.94,1.27,2.51,2.49,.81,.67,1.81,1.29,2.87,1.78,1.14,.55,2.41,.89,3.68,.99,.23,.02,.47,.03,.7,.03,.96,0,1.95-.16,2.93-.48,.94-.3,1.87-.73,2.77-1.29,.99-.61,1.71-1.24,2.11-1.61,1.08-.08,2.15-.19,3.21-.33,3.64,2.42,7.67,4.38,12,5.85-.07,.03-.14,.06-.21,.09l-.12,.05c-.1-.03-.21-.07-.33-.11-.45-.15-1.02-.29-1.69-.45l-.35-.08c-2.32-.48-4.36-.51-6.23-.1-1.07,.23-2.17,.64-3.25,1.22-.86,.45-1.71,1-2.5,1.62-1.4,1.09-2.23,2.11-2.26,2.15l-.85,1.04,1.12,.75s.34,.23,.87,.52c.75,.43,1.53,.78,2.3,1.03,1,.37,2.69,.85,4.59,.85,.81,0,1.65-.09,2.5-.31,2.06-.52,3.96-1.8,5.52-3.69,.72-.88,1.21-1.69,1.48-2.17l.17-.07c1.02-.44,2.01-.9,2.76-1.26,1.12,.4,2.31,.79,3.56,1.2,6.58,2.15,14.76,4.83,18.66,11.34,.23,.38,.63,.59,1.05,.59,.21,0,.43-.06,.63-.17,.58-.35,.77-1.1,.42-1.68ZM46.08,18.51c.44-.99,.89-1.75,1.4-2.4,.72-.82,1.52-1.48,2.39-1.99,.22-.13,.45-.25,.67-.35,.23-.08,.47-.16,.72-.22,.49-.13,1.01-.23,1.52-.28,1.13-.12,1.99-.09,2.73,.08,.59,.11,1.1,.25,1.52,.39-.22,.37-.5,.81-.83,1.26-.16,.2-.31,.41-.48,.64-.38,.51-.77,1.04-1.21,1.49-.32,.34-.65,.63-.99,.88-.18,.13-.36,.25-.54,.36l-.09,.06c-.2,.14-.38,.26-.56,.37-.71,.41-1.53,.69-2.51,.84h-.06c-.9,.2-1.77,.3-2.6,.31-.52,.01-1.06,0-1.6-.03,.12-.39,.29-.88,.52-1.4Zm-13.72,.6c.13-.88,.44-1.82,.92-2.79,.21-.42,.46-.85,.73-1.26,.22-.32,.47-.61,.74-.92l.09-.1c.36-.4,.71-.75,1.03-1.04,.12,.3,.24,.65,.36,1.03,.4,1.33,.82,3.31,.47,5.24v.05c-.13,.91-.38,1.8-.78,2.67-.22,.52-.51,.99-.79,1.45-.15,.25-.3,.5-.44,.74-.2,.32-.39,.61-.58,.86-.19-.27-.39-.59-.59-.94-.66-1.19-1.39-3.01-1.17-5.01Zm-12.99,38c-1.84-.8-3.15-1.9-3.91-3.26v-.02c-.46-.79-.8-1.73-1.01-2.81-.18-.92-.13-1.83-.09-2.71v-.04c.04-.53,.1-1.02,.16-1.43,.27,.17,.58,.37,.89,.6,1.13,.82,2.68,2.16,3.6,3.94,.18,.34,.33,.71,.48,1.1l.09,.22c.16,.41,.3,.85,.42,1.29,.19,.76,.3,1.57,.34,2.36,0,.41,.02,.81,.05,1.15h0c-.31-.09-.65-.22-1.02-.38Zm2.76-19.52c-.57-.86-.93-1.69-1.06-2.48h0c-.32-1.8-.04-3.99,.73-5.59l.02-.04c.21-.49,.43-.94,.63-1.31,.21,.25,.43,.54,.66,.86,.81,1.13,1.83,2.89,2.13,4.84,.16,1.09,.2,2.03,.12,2.82-.07,.88-.29,1.69-.47,2.41v.05c-.09,.37-.19,.71-.28,1.01-.26-.2-.55-.43-.85-.7-.63-.58-1.18-1.2-1.62-1.86Zm-1.32,37.66c-.86-.08-1.67-.25-2.41-.51-.87-.31-1.67-.78-2.37-1.38h-.01c-.66-.57-1.22-1.3-1.78-2.33-.4-.72-.73-1.57-.99-2.59-.14-.51-.24-.99-.3-1.42,.32,.08,.68,.17,1.07,.29,1.95,.64,3.51,1.5,4.65,2.59,1.5,1.4,2.35,3.15,2.85,4.35,.15,.38,.28,.73,.39,1.03-.33-.01-.7-.01-1.1-.05Zm7.15,16.74c-1.87,.45-3.58,.36-5.11-.26-.87-.38-1.71-.94-2.42-1.61-.68-.66-1.3-1.42-1.79-2.15-.29-.46-.53-.9-.73-1.27,.33-.03,.69-.05,1.09-.06,1.33-.03,3.31,.11,5.23,.97,1.43,.66,2.78,1.72,4.12,3.24,.26,.29,.49,.57,.68,.83-.31,.11-.68,.22-1.08,.31Zm12.14,13.57c-.73,.45-1.47,.8-2.22,1.04-.92,.3-1.83,.41-2.7,.34h-.01c-.97-.07-1.94-.33-2.82-.76-.89-.41-1.7-.91-2.39-1.48-.42-.33-.79-.65-1.09-.95,.3-.13,.64-.27,1.01-.4,1.94-.68,3.71-.93,5.29-.75,.88,.08,1.74,.3,2.65,.66l.04,.02c.73,.26,1.47,.62,2.19,1.06l.05,.03c.35,.19,.65,.38,.91,.56-.26,.2-.57,.42-.92,.63Zm15.8,9.02c-1.24,1.51-2.66,2.48-4.23,2.87h0c-2.2,.58-4.47-.05-5.66-.48-.44-.15-.88-.33-1.32-.55,.24-.22,.53-.47,.84-.71,.68-.53,1.4-1,2.14-1.39,.89-.47,1.77-.81,2.62-.99,1.53-.34,3.24-.31,5.2,.1l.29,.07c.28,.07,.54,.13,.78,.19-.19,.27-.41,.57-.66,.89Z"/></g><g><path class="b" d="M106.72,56.59s0-.05-.02-.06c-.01-.02-.03-.03-.05-.04s-.04-.01-.07-.02-.05,0-.07,0h-.17v.26h.18c.06,0,.1,0,.14-.02,.04-.02,.05-.05,.05-.11Z"/><path class="b" d="M59.07,58.33c-.21-.27-.5-.47-.85-.61-.35-.14-.79-.21-1.3-.21h-1.5v5.79h1.87c.3,0,.6-.05,.88-.14,.29-.09,.54-.25,.76-.47,.22-.22,.4-.5,.53-.85,.13-.35,.2-.78,.2-1.29,0-.46-.05-.88-.14-1.25s-.25-.69-.46-.96Z"/><path class="b" d="M73.1,69.62c-.08-.21-.18-.35-.31-.43s-.29-.12-.49-.12-.37,.05-.5,.15-.23,.27-.3,.5c-.07,.24-.12,.55-.15,.94-.03,.39-.04,.88-.04,1.46v.99c0,.57,.01,1.04,.04,1.41,.03,.36,.08,.65,.16,.86,.08,.21,.18,.35,.31,.43,.13,.08,.29,.12,.49,.12s.37-.05,.5-.15c.13-.1,.23-.27,.3-.5,.07-.24,.12-.55,.15-.94,.03-.39,.04-.88,.04-1.46v-.99c0-.57-.02-1.04-.04-1.41-.03-.36-.08-.65-.16-.86Z"/><path class="b" d="M85.15,69.58c-.07-.16-.18-.28-.31-.37-.13-.09-.31-.13-.52-.13s-.4,.04-.53,.13c-.13,.09-.23,.22-.3,.38-.07,.16-.11,.35-.13,.57-.02,.22-.03,.46-.03,.71,0,.62,.08,1.06,.23,1.32,.15,.27,.41,.4,.77,.4s.63-.13,.78-.4c.15-.27,.23-.71,.23-1.32,0-.26-.01-.5-.04-.72-.03-.22-.08-.41-.15-.57Z"/><polygon class="b" points="47.41 58.07 46.17 61.44 48.64 61.44 47.44 58.07 47.41 58.07"/><path class="b" d="M75.09,22.75c-21.61,0-39.18,17.58-39.18,39.18s17.58,39.18,39.18,39.18,39.18-17.58,39.18-39.18-17.58-39.18-39.18-39.18Zm-2.26,33.06h2.02v7.48h4.47v1.7h-6.49v-9.18Zm-9.78,0h2.1v5.71c0,.25,.02,.49,.07,.73,.04,.24,.14,.45,.28,.64,.14,.18,.34,.33,.6,.45,.25,.12,.59,.17,1.02,.17,.75,0,1.27-.16,1.55-.48,.29-.32,.43-.82,.43-1.51v-5.71h2.1v5.71c0,1.24-.36,2.17-1.08,2.77s-1.72,.91-3,.91-2.29-.3-3-.9c-.71-.6-1.06-1.53-1.06-2.78v-5.71Zm-13.14,9.18l-.72-2.04h-3.57l-.75,2.04h-2.11l3.61-9.18h2.15l3.57,9.18h-2.18Zm11.59-2.79c-.18,.57-.45,1.05-.81,1.47s-.81,.74-1.35,.97c-.54,.24-1.17,.35-1.91,.35h-4.12v-9.18h4.12c.62,0,1.19,.09,1.72,.28,.53,.19,.99,.47,1.38,.85,.39,.38,.69,.85,.91,1.41,.22,.57,.33,1.23,.33,1.99,0,.67-.09,1.29-.27,1.85Zm7,14.76h-5.6c0-.4,.04-.78,.12-1.13,.08-.35,.21-.68,.37-1,.17-.32,.38-.63,.63-.93,.25-.3,.55-.61,.88-.92l.74-.69c.21-.18,.37-.35,.49-.5,.12-.15,.22-.31,.29-.46,.07-.15,.11-.32,.13-.5,.02-.18,.03-.39,.03-.62,0-.75-.3-1.13-.9-1.13-.23,0-.41,.05-.55,.14-.13,.09-.24,.22-.31,.39-.07,.16-.12,.35-.14,.56-.02,.21-.03,.44-.03,.68h-1.77v-.35c0-.85,.23-1.5,.68-1.95,.45-.45,1.17-.68,2.14-.68,.92,0,1.61,.21,2.05,.64,.44,.43,.67,1.04,.67,1.84,0,.29-.03,.56-.08,.82-.05,.25-.13,.49-.24,.73-.11,.23-.26,.46-.44,.67-.18,.22-.4,.44-.65,.67l-1.03,.95c-.27,.25-.49,.49-.64,.73-.15,.24-.25,.44-.3,.61h3.43v1.44Zm6.58-2.85c-.04,.58-.16,1.1-.35,1.55-.19,.45-.47,.8-.85,1.06-.38,.26-.91,.39-1.59,.39-.55,0-1.01-.07-1.37-.22-.37-.15-.66-.39-.88-.74-.22-.35-.37-.81-.46-1.37-.09-.56-.13-1.24-.13-2.05,0-.63,.02-1.24,.06-1.82,.04-.58,.16-1.1,.35-1.55,.19-.45,.47-.81,.85-1.08,.38-.27,.91-.4,1.59-.4,.56,0,1.02,.08,1.38,.24,.36,.16,.65,.41,.87,.76,.22,.35,.37,.81,.46,1.37,.09,.56,.13,1.24,.13,2.05,0,.63-.02,1.24-.06,1.82Zm4.61,2.85h-1.85v-6.42h-1.81v-1.21h.17c.62,0,1.1-.12,1.46-.35,.35-.23,.58-.6,.67-1.12h1.36v9.09Zm-1.27-19.46v-1.7h7.52v1.7h-2.75v7.48h-2.02v-7.48h-2.75Zm8.79,16.5c-.04,.6-.15,1.14-.35,1.6-.19,.46-.5,.83-.91,1.1-.42,.27-.99,.4-1.74,.4-.33,0-.64-.03-.94-.1-.3-.06-.57-.18-.8-.36-.23-.18-.42-.41-.56-.71-.14-.3-.22-.66-.22-1.1h1.77c0,.34,.06,.61,.19,.8,.12,.19,.34,.29,.65,.29,.25,0,.44-.06,.59-.17,.15-.12,.26-.28,.34-.48,.08-.21,.13-.45,.16-.73,.03-.28,.04-.59,.04-.92v-.44h-.03c-.15,.23-.37,.42-.66,.56-.29,.14-.64,.21-1.05,.21s-.74-.07-1.03-.21c-.28-.14-.51-.34-.69-.59-.18-.25-.3-.55-.39-.9-.08-.35-.12-.73-.12-1.14,0-1.05,.23-1.86,.7-2.41,.47-.56,1.21-.83,2.24-.83,.63,0,1.14,.12,1.51,.35,.38,.24,.67,.55,.87,.94,.2,.39,.33,.84,.39,1.35,.06,.51,.09,1.05,.09,1.6,0,.65-.02,1.28-.06,1.88Zm6.63-9.01h-6.97v-9.18h6.87v1.7h-4.85v1.97h4.45v1.57h-4.45v2.25h4.95v1.7Zm5.92-2.68l-2.08,2.68h-2.93l3.49-4.56-3.49-4.62h3.07l1.94,2.73v.79h0c-.06,0-.11,0-.17,0-.59,0-1.08,.48-1.08,1.08s.48,1.08,1.08,1.08c.06,0,.11,0,.17-.01v.85Zm5.35,2.68h-2.93l-2.08-2.68v-1.21h-.58c-.41,0-.74-.33-.74-.74s.33-.74,.74-.74h.58v-1.08l1.94-2.73h3.07l-3.49,4.62,3.49,4.56Zm2.24-7.81c-.05,.11-.12,.2-.2,.28-.08,.08-.18,.14-.29,.18-.11,.04-.23,.06-.35,.06s-.24-.02-.35-.06c-.11-.04-.21-.1-.29-.18-.08-.08-.15-.17-.2-.28-.05-.11-.08-.23-.08-.37s.03-.26,.08-.37c.05-.11,.12-.2,.2-.28s.18-.14,.29-.18c.11-.04,.23-.06,.35-.06s.24,.02,.35,.06c.11,.04,.21,.1,.29,.18,.08,.08,.15,.17,.2,.28,.05,.11,.08,.23,.08,.37s-.03,.26-.08,.37Z"/><path class="b" d="M106.98,56.31c-.06-.06-.13-.11-.21-.15-.08-.03-.17-.05-.26-.05s-.18,.02-.26,.05c-.08,.04-.15,.08-.21,.15-.06,.06-.11,.14-.14,.22-.03,.09-.05,.18-.05,.28s.02,.2,.05,.28c.04,.09,.08,.16,.14,.22,.06,.06,.13,.11,.21,.15,.08,.04,.17,.05,.26,.05s.18-.02,.26-.05c.08-.03,.15-.08,.21-.15,.06-.06,.11-.14,.14-.22,.04-.09,.05-.18,.05-.28s-.02-.2-.05-.28c-.04-.09-.08-.16-.14-.22Zm-.26,1l-.24-.43h-.12v.43h-.2v-1h.38c.13,0,.22,.02,.29,.07s.1,.12,.1,.23c0,.05,0,.09-.02,.12-.01,.03-.03,.06-.06,.08-.02,.02-.05,.04-.08,.05-.03,.01-.07,.02-.1,.02l.27,.44h-.21Z"/></g></svg>