<svg width="283" height="50" viewBox="0 0 283 50" fill="none" xmlns="http://www.w3.org/2000/svg">
<g clip-path="url(#clip0_30760_11736)">
<path d="M78.8201 25.1298C81.7601 23.6198 83.2301 21.0898 83.2301 17.5498C83.2301 14.3698 82.2501 12.0798 80.2801 10.6698C78.3101 9.2598 75.6701 8.5498 72.3601 8.5498H61.3901V43.8998H74.7901C78.3901 43.8998 81.2201 42.9998 83.2701 41.1998C85.3301 39.4098 86.3501 37.0198 86.3501 34.0398C86.3501 28.9898 83.8401 26.0198 78.8101 25.1298H78.8201ZM69.4401 14.7698H70.0801C73.6501 14.7698 75.4401 15.9698 75.4401 18.3698C75.4401 19.7998 75.0001 20.8298 74.1101 21.4598C73.2301 22.0898 71.8801 22.3998 70.0801 22.3998H69.4401V14.7698ZM71.9701 37.6898H69.4401V29.3398H71.9701C73.9401 29.3398 75.4201 29.6798 76.4001 30.3698C77.3901 31.0598 77.8801 32.1898 77.8801 33.7498C77.8801 36.3798 75.9101 37.6898 71.9701 37.6898Z" fill="white"/>
<path d="M93.25 43.8998H113.47V36.8298H101.31V29.7198H112.96V22.6498H101.31V15.6198H113.47V8.5498H93.25V43.8998Z" fill="white"/>
<path d="M131.68 8.5498H121.44V43.8998H131.68C136.62 43.8998 140.82 42.2198 144.29 38.8698C147.76 35.5098 149.5 31.2898 149.5 26.2098C149.5 21.1498 147.75 16.9498 144.27 13.5898C140.79 10.2298 136.59 8.5598 131.68 8.5598V8.5498ZM137.94 33.7298C136.07 35.7098 133.66 36.7098 130.72 36.7098H129.49V15.7498H130.72C133.69 15.7498 136.11 16.7498 137.98 18.7498C139.85 20.7498 140.79 23.2498 140.79 26.2398C140.76 29.2398 139.81 31.7298 137.94 33.7198V33.7298Z" fill="white"/>
<path d="M173.83 25.1298C176.77 23.6198 178.24 21.0898 178.24 17.5498C178.24 14.3798 177.25 12.0798 175.28 10.6698C173.31 9.2598 170.67 8.5498 167.36 8.5498H156.39V43.8998H169.8C173.4 43.8998 176.23 42.9898 178.28 41.1998C180.34 39.4098 181.37 37.0198 181.37 34.0398C181.37 28.9898 178.85 26.0198 173.83 25.1298ZM164.44 14.7698H165.08C168.65 14.7698 170.44 15.9698 170.44 18.3698C170.44 19.7998 170 20.8298 169.11 21.4598C168.23 22.0898 166.88 22.3998 165.08 22.3998H164.44V14.7698ZM166.97 37.6898H164.44V29.3398H166.97C168.94 29.3398 170.42 29.6798 171.4 30.3698C172.39 31.0598 172.88 32.1898 172.88 33.7498C172.88 36.3798 170.91 37.6898 166.97 37.6898Z" fill="white"/>
<path d="M220.73 25.1298C223.67 23.6198 225.14 21.0898 225.14 17.5498C225.14 14.3798 224.15 12.0798 222.18 10.6698C220.21 9.2598 217.57 8.5498 214.26 8.5498H203.29V43.8898H216.7C220.3 43.8898 223.12 42.9898 225.18 41.1898C227.24 39.3998 228.27 37.0098 228.27 34.0298C228.27 28.9798 225.75 26.0098 220.73 25.1198V25.1298ZM211.35 14.7698H211.99C215.56 14.7698 217.35 15.9698 217.35 18.3698C217.35 19.7998 216.9 20.8298 216.02 21.4598C215.14 22.0898 213.8 22.3998 212 22.3998H211.36V14.7698H211.35ZM213.87 37.6898H211.34V29.3398H213.87C215.84 29.3398 217.31 29.6798 218.3 30.3698C219.29 31.0598 219.78 32.1898 219.78 33.7498C219.78 36.3798 217.81 37.6898 213.87 37.6898Z" fill="white"/>
<path d="M243.22 8.5498H235.16V43.8998H255.38V36.8298H243.22V8.5498Z" fill="white"/>
<path d="M262.7 43.8998H282.92V36.8298H270.76V29.7198H282.41V22.6498H270.76V15.6198H282.92V8.5498H262.7V43.8998Z" fill="white"/>
<path d="M191.53 10.7702C190.49 7.55018 186.29 7.60018 185.62 11.0502C185.01 14.1802 191.53 19.1302 191.53 19.1302C191.53 19.1302 198.05 14.1902 197.44 11.0502C196.77 7.59018 192.57 7.54018 191.53 10.7702Z" fill="white"/>
<path d="M25 0C20.06 0 15.22 1.47 11.11 4.21C6.99998 6.96 3.79998 10.86 1.89998 15.43C0.00998402 20 -0.480016 25.03 0.479984 29.88C1.43998 34.73 3.82998 39.18 7.31998 42.68C10.82 46.18 15.27 48.56 20.12 49.52C24.97 50.48 30 49.99 34.56 48.1C39.13 46.21 43.03 43 45.78 38.89C48.53 34.78 49.99 29.95 49.99 25C49.99 18.37 47.36 12.01 42.67 7.32C37.99 2.63 31.63 0 25 0ZM42.27 36.98L25.22 41.36L39.93 36.05V12.44L42.28 11.8V36.97L42.27 36.98ZM7.61998 11.8L9.95998 12.44V36.05L24.67 41.36L7.61998 36.98V11.8ZM24.67 40.77L10.6 35.2V10.62L12.86 9.1L13.21 32.8L13.47 9.07C17.52 12.67 21.46 11.08 24.78 14.63L24.76 20.47C23.06 16.64 17.8 16.91 16.92 21.4C16.18 25.23 23.24 31.04 24.71 32.2L24.68 40.77H24.67ZM33.03 21.4C32.15 16.87 26.82 16.64 25.16 20.55L25.14 14.63C28.45 11.08 32.4 12.67 36.45 9.07L36.72 32.8L37.07 9.1L39.33 10.62V35.2L25.26 40.77L25.23 32.23C26.63 31.13 33.8 25.26 33.06 21.4H33.03Z" fill="white"/>
<path d="M194.96 22.1201H187.96V43.9201H194.96V22.1201Z" fill="white"/>
</g>
<defs>
<clipPath id="clip0_30760_11736">
<rect width="283" height="50" fill="white"/>
</clipPath>
</defs>
</svg>
