<svg width="24" height="24" viewBox="0 0 24 24" xmlns="http://www.w3.org/2000/svg">
    <path d="M22 0H2C.894 0 0 .894 0 2v20c0 1.106.894 2 2 2h20c1.106 0 2-.894 2-2V2c0-1.106-.894-2-2-2zm-3.281 8.406L10.362 16.8h-.006c-.106.106-.394.344-.725.344-.237 0-.506-.132-.731-.356l-3.5-3.5c-.1-.1-.1-.257 0-.357l1.113-1.112a.247.247 0 0 1 .175-.075c.062 0 .125.025.174.075l2.776 2.775 7.625-7.681a.247.247 0 0 1 .174-.076c.07 0 .132.026.175.076l1.094 1.13c.113.107.113.263.013.363z" fill="#FFF" fill-rule="evenodd"/>
</svg>
