<?xml version="1.0" encoding="UTF-8"?>
<svg width="20px" height="19px" viewBox="0 0 20 19" version="1.1" xmlns="http://www.w3.org/2000/svg" xmlns:xlink="http://www.w3.org/1999/xlink">
    <!-- Generator: Sketch 63.1 (92452) - https://sketch.com -->
    <title>Icon/48/ios-checkbox0</title>
    <desc>Created with Sketch.</desc>
    <g id="Playground" stroke="none" stroke-width="1" fill="none" fill-rule="evenodd">
        <g id="Hex-desktop_step2" transform="translate(-478.000000, -1176.000000)" fill="#000000">
            <g id="Info" transform="translate(440.000000, 306.000000)">
                <g id="Icon/48/ios-checkbox" transform="translate(35.227865, 867.000000)">
                    <path d="M20.3125,3.12499998 L4.68749998,3.12499998 C3.82324217,3.12499998 3.12499998,3.82324217 3.12499998,4.68749998 L3.12499998,20.3125 C3.12499998,21.1767578 3.82324217,21.875 4.68749998,21.875 L20.3125,21.875 C21.1767578,21.875 21.875,21.1767578 21.875,20.3125 L21.875,4.68749998 C21.875,3.82324217 21.1767578,3.12499998 20.3125,3.12499998 Z M17.7490234,9.69238281 L11.2207031,16.25 C11.2207031,16.25 11.2207031,16.25 11.2158203,16.25 C11.1328125,16.3330078 10.9082031,16.5185547 10.6494141,16.5185547 C10.4638672,16.5185547 10.2539062,16.4160156 10.078125,16.2402344 L7.34374999,13.5058594 C7.26562499,13.4277344 7.26562499,13.3056641 7.34374999,13.2275391 L8.21289062,12.3583984 C8.25195312,12.3193359 8.30078124,12.2998047 8.34960937,12.2998047 C8.39843749,12.2998047 8.44726562,12.3193359 8.48632812,12.3583984 L10.6542969,14.5263672 L16.6113281,8.52539062 C16.6503906,8.48632812 16.6992188,8.46679687 16.7480469,8.46679687 C16.7480469,8.46679687 16.7480469,8.46679687 16.7480469,8.46679687 C16.8017578,8.46679687 16.8505859,8.48632812 16.8847656,8.52539062 L17.7392578,9.40917968 C17.8271484,9.49218749 17.8271484,9.61425781 17.7490234,9.69238281 Z" id="ios-checkbox"></path>
                </g>
            </g>
        </g>
    </g>
</svg>