<?xml version="1.0" encoding="utf-8"?>
<!-- Generator: Adobe Illustrator 26.0.3, SVG Export Plug-In . SVG Version: 6.00 Build 0)  -->
<svg version="1.0" id="Layer_1" xmlns="http://www.w3.org/2000/svg" xmlns:xlink="http://www.w3.org/1999/xlink" x="0px" y="0px"
	 viewBox="0 0 60 60" enable-background="new 0 0 60 60" xml:space="preserve">
<g>
	<path fill="#FFFFFF" d="M52.7,17.6c-6.4,3.2-10.4,3.8-13.7,4.3c-4.7,0.7-7.8,1.2-12.5,8.2c-0.1-0.4-0.3-0.7-0.5-1.1l-0.6-1
		l-0.9,0.7c-6.1,4.7-10.4,10.7-12.4,17.5l1.9,0.6c1.8-6,5.4-11.4,10.6-15.7c0.4,1.3,0.4,2.8,0.4,3.4h2c0-0.3,0-0.9-0.1-1.6
		c4.9-7.9,7.3-8.3,12.2-9c3-0.4,7-1,12.9-3.8c-0.1,5.4-0.8,10-5,14.9c-1.5-0.1-3.2,0.2-4.3,0.6l0.6,1.9c1.4-0.4,3.2-0.6,4.3-0.4
		l0.1,0.1c-1.3,2-6.6,7.1-14.1,10.1c-0.7-0.4-1.4-0.8-2.2-1.1L30.7,48c1,0.4,1.8,0.8,2.6,1.4c-3.4,1.7-9.5,3.1-15.9,1.2l-0.6,1.9
		c2.5,0.7,4.8,1,7,1c5.5,0,9.9-1.8,11.8-3.2l1.1-0.7l-1-0.9c-0.1-0.1-0.1-0.1-0.2-0.2c7.9-3.5,14.5-9.7,14.6-12.1l0-0.5l-0.5-0.3
		c-0.1-0.1-0.2-0.1-0.4-0.2c4.4-5.6,4.8-11,4.8-17v-1.6L52.7,17.6z"/>
	<path fill="#FFFFFF" d="M39.4,29.8c-6.2,6.2-21.3,18.8-33.5,21.7l0.5,1.9c12.7-3.1,28.1-15.9,34.5-22.3L39.4,29.8z"/>
	<path fill="#FFFFFF" d="M50.4,42.2c1.3,1.6,1.1,3.9-0.5,5.2c-0.7,0.6-1.7,0.9-2.7,0.8c-1-0.1-1.8-0.6-2.5-1.3l-1.5,1.3
		c1,1.2,2.3,1.9,3.8,2c0.2,0,0.4,0,0.5,0c1.3,0,2.6-0.5,3.6-1.3c2.4-2,2.7-5.6,0.7-8L50.4,42.2z"/>
	<path fill="#FFFFFF" d="M27.4,24.1c-0.9-1.4-0.5-3.2,0.9-4.1c0.7-0.4,1.4-0.6,2.2-0.4c0.7,0.2,1.4,0.6,1.8,1.2l1.7-1.1
		c-0.7-1.1-1.8-1.9-3.1-2.1c-1.3-0.3-2.6,0-3.7,0.7c-2.3,1.5-2.9,4.6-1.5,6.8L27.4,24.1z"/>
	<path fill="#FFFFFF" d="M42.6,14.8c2.3,0,4.1-1.9,4.1-4.2s-1.9-4.2-4.1-4.2s-4.1,1.9-4.1,4.2S40.3,14.8,42.6,14.8z M42.6,8.5
		c1.2,0,2.1,1,2.1,2.2s-1,2.2-2.1,2.2s-2.1-1-2.1-2.2S41.4,8.5,42.6,8.5z"/>
</g>
</svg>
