<?xml version="1.0" encoding="utf-8"?>
<!-- Generator: Adobe Illustrator 26.0.3, SVG Export Plug-In . SVG Version: 6.00 Build 0)  -->
<svg version="1.0" id="Layer_1" xmlns="http://www.w3.org/2000/svg" xmlns:xlink="http://www.w3.org/1999/xlink" x="0px" y="0px"
	 viewBox="0 0 60 60" enable-background="new 0 0 60 60" xml:space="preserve">
<g>
	<path fill="#FFFFFF" d="M9.3,21.1l-1.4-1.4c-5.3,5.3-5.3,14,0,19.3l1.4-1.4C4.8,33,4.8,25.6,9.3,21.1z"/>
	<path fill="#FFFFFF" d="M11.9,25.4l-1.7-1c-1.9,3.1-1.8,7.1,0.1,10.2l1.7-1.1C10.4,31,10.4,27.8,11.9,25.4z"/>
	<path fill="#FFFFFF" d="M52.1,19.6l-1.4,1.4c2.2,2.2,3.4,5.1,3.4,8.3c0,3.1-1.2,6.1-3.4,8.3l1.4,1.4c2.6-2.6,4-6,4-9.7
		C56.1,25.7,54.7,22.2,52.1,19.6z"/>
	<path fill="#FFFFFF" d="M49.8,24.3l-1.7,1c1.5,2.5,1.5,5.6-0.1,8.1l1.7,1.1C51.7,31.4,51.7,27.4,49.8,24.3z"/>
	<path fill="#FFFFFF" d="M43.3,33.2c0,0.9-0.8,1.7-1.7,1.7s-1.7-0.8-1.7-1.7V21.7c0-2-1.7-3.7-3.7-3.7s-3.7,1.7-3.7,3.7v23.5
		c0,0.9-0.8,1.7-1.7,1.7s-1.7-0.8-1.7-1.7V15.4c0-2-1.7-3.7-3.7-3.7s-3.7,1.7-3.7,3.7v21.8c0,0.9-0.8,1.7-1.7,1.7
		c-0.9,0-1.7-0.8-1.7-1.7V24.8h-2v12.4c0,2,1.7,3.7,3.7,3.7s3.7-1.7,3.7-3.7V15.4c0-0.9,0.8-1.7,1.7-1.7c0.9,0,1.7,0.8,1.7,1.7v29.8
		c0,2,1.7,3.7,3.7,3.7c2,0,3.7-1.7,3.7-3.7V21.7c0-0.9,0.8-1.7,1.7-1.7s1.7,0.8,1.7,1.7v11.5c0,2,1.7,3.7,3.7,3.7s3.7-1.7,3.7-3.7
		v-8.4h-2V33.2z"/>
</g>
</svg>
