<?xml version="1.0" encoding="utf-8"?>
<!-- Generator: Adobe Illustrator 26.0.3, SVG Export Plug-In . SVG Version: 6.00 Build 0)  -->
<svg version="1.0" id="Layer_1" xmlns="http://www.w3.org/2000/svg" xmlns:xlink="http://www.w3.org/1999/xlink" x="0px" y="0px"
	 viewBox="0 0 60 60" enable-background="new 0 0 60 60" xml:space="preserve">
<g>
	<path fill="#FFFFFF" d="M49,41.3c0-3.1-2.3-5.8-6.3-7.6l-0.8,1.8c3.3,1.4,5.1,3.5,5.1,5.7c0,2.9-4.9,5.7-11.7,6.6L34.4,48l0.1,1.8
		l-3.9-2.1l3.6-2.6l0.1,1.2l1.1-0.2c5.9-0.9,9.5-3.2,9.5-6l-2,0c0,1.3-2.3,3-6.7,3.8L36,41.4l-9.1,6.5l9.9,5.3l-0.2-3.5
		C44,48.5,49,45.2,49,41.3z"/>
	<path fill="#FFFFFF" d="M13,37.7c0-3.6,4.6-5.9,7.3-7l0.9-0.4L21,29.7l2.3,0.5l-1.7,2l-0.3-0.7l-0.9,0.3c-2.3,0.8-5,2.6-5,5.2h2
		c0-1.3,1.5-2.4,2.8-3l0.8,2l5.9-7l-9-2l0.8,2.3c-5,2.2-7.7,5.1-7.7,8.5c0,5.1,4.7,9.4,11.8,10.5l0.3-2C17.1,45.3,13,41.9,13,37.7z"
		/>
	<path fill="#FFFFFF" d="M30.8,31.6c1.1-2.2,1.5-4.8,1.5-6.4c0-3.1,0.7-6,1.9-8.6c2.6-5.3,7-8.7,9.7-7.5l0,0c2.6,1.3,2.6,6.9,0,12.3
		c-1.3,2.6-3.1,4.8-5.6,6.8c-1.3,1-3.1,2.9-4.2,5.1c-1,2-1.5,4.1-1.5,6.1l2,0c0-1.7,0.4-3.5,1.3-5.2c0.9-1.9,2.5-3.6,3.6-4.4
		c2.7-2.1,4.8-4.6,6.2-7.5c3.2-6.5,2.8-12.9-0.7-14.9l-0.2-0.1c-3.7-1.8-9.1,1.9-12.3,8.4c-1.4,2.8-2.1,6-2.1,9.4
		c0,1.4-0.4,3.7-1.3,5.6c-1.3,2.5-3.2,4.5-5.3,5.3l0.7,1.9C27,36.9,29.4,34.5,30.8,31.6z"/>
</g>
</svg>
