<?xml version="1.0" encoding="utf-8"?>
<!-- Generator: Adobe Illustrator 26.0.3, SVG Export Plug-In . SVG Version: 6.00 Build 0)  -->
<svg version="1.0" id="Layer_1" xmlns="http://www.w3.org/2000/svg" xmlns:xlink="http://www.w3.org/1999/xlink" x="0px" y="0px"
	 viewBox="0 0 80 80" enable-background="new 0 0 80 80" xml:space="preserve">
<path fill="#FFFFFF" d="M63,18.2c-2.3-2.6-5.9-5-8.3-2.9c-1.3,1.2-2.4,2.8-3,3.8l0,0c-0.4-0.4-1-0.4-1.4-0.1L47.1,22
	c-0.2,0-0.4,0.1-0.6,0.2c-0.2,0.2-0.3,0.3-0.3,0.6l-6,5.4L26.1,13.3c-0.4-0.4-1-0.4-1.4,0L14,23.4c-0.4,0.4-0.4,1,0,1.4l13.8,14.8
	l-7.1,6.4c0,0,0,0,0,0c-0.1,0.1-0.1,0.2-0.2,0.2c0,0,0,0,0,0c0,0,0,0,0,0l-6.9,16.2c0,0,0,0.1,0,0.1c0,0,0,0.1,0,0.1
	c0,0.1,0,0.1,0,0.2c0,0,0,0.1,0,0.1c0,0.1,0,0.1,0.1,0.2c0,0,0,0,0,0.1c0,0.1,0.1,0.2,0.2,0.2c0,0,0,0,0,0c0,0,0,0,0,0
	c0,0,0.1,0.1,0.1,0.1c0.1,0.1,0.1,0.1,0.2,0.1c0.1,0.1,0.3,0.1,0.4,0.1c0.1,0,0.2,0,0.3,0l16.7-5.3c0,0,0,0,0,0c0,0,0,0,0.1,0
	c0.1,0,0.2-0.1,0.2-0.1c0,0,0,0,0,0l7.1-6.5l14,14.9c0.2,0.2,0.5,0.3,0.7,0.3c0.2,0,0.5-0.1,0.7-0.3l10.7-10.1c0.4-0.4,0.4-1,0-1.4
	L51.4,40.5l10.1-9.2c0.2-0.2,0.3-0.4,0.3-0.7c0-0.3-0.1-0.5-0.3-0.7l0,0c1.5-0.7,2.9-1.6,4.1-2.8C68.4,24.3,64.5,19.9,63,18.2z
	 M16.1,24.1l9.3-8.7l2,2.1l-3.7,3.6c-0.4,0.4-0.4,1,0,1.4c0.2,0.2,0.5,0.3,0.7,0.3c0.3,0,0.5-0.1,0.7-0.3l3.7-3.6l2.6,2.8l-3.8,3.4
	c-0.4,0.4-0.4,1-0.1,1.4c0.2,0.2,0.5,0.3,0.7,0.3c0.2,0,0.5-0.1,0.7-0.3l3.8-3.5l2.3,2.4l-3.8,3.5c-0.4,0.4-0.4,1,0,1.4
	c0.2,0.2,0.5,0.3,0.7,0.3c0.2,0,0.5-0.1,0.7-0.3l3.8-3.5l2.3,2.5l-9.5,8.6L16.1,24.1z M29.7,40.4C29.7,40.4,29.8,40.4,29.7,40.4
	c0.1-0.1,0.1-0.1,0.2-0.1l10.9-9.9c0,0,0,0,0,0c0,0,0,0,0,0l6.4-5.8l2,2.2L24.8,49l-2.1-2.3L29.7,40.4z M52.5,30.4L28,52.6l-1.9-2.1
	l24.4-22.2L52.5,30.4z M55.7,33.9l-6.2,5.7c0,0-0.1,0-0.1,0.1c0,0-0.1,0.1-0.1,0.1l-10.7,9.7c-0.1,0-0.2,0.1-0.2,0.2
	c-0.1,0.1-0.1,0.1-0.1,0.2l-6.9,6.3l-1.8-2l24.4-22.2L55.7,33.9z M16.4,61l2-4.1l2.3,2.5L16.4,61z M23,59l-4-4.4l2.6-6.1l5.4,6
	c0,0.1,0.1,0.2,0.1,0.2c0.1,0.1,0.1,0.1,0.2,0.1l1.9,2.1L23,59z M51.7,43.8l-3.8,3.6c-0.4,0.4-0.4,1,0,1.4c0.2,0.2,0.5,0.3,0.7,0.3
	c0.2,0,0.5-0.1,0.7-0.3l3.8-3.6l2.5,2.7l-3.8,3.6c-0.4,0.4-0.4,1,0,1.4c0.2,0.2,0.5,0.3,0.7,0.3c0.2,0,0.5-0.1,0.7-0.3l3.8-3.6
	l2.3,2.5l-3.8,3.6c-0.4,0.4-0.4,1,0,1.4c0.2,0.2,0.5,0.3,0.7,0.3c0.2,0,0.5-0.1,0.7-0.3l3.8-3.6l2.3,2.5l-9.3,8.7L40.4,50.4l9.5-8.6
	L51.7,43.8z M57.1,32.6l-2-2.2c0.1-0.3,0-0.6-0.2-0.9c-0.2-0.2-0.5-0.3-0.8-0.3l-2.2-2.5c0-0.3,0-0.6-0.2-0.8
	c-0.2-0.2-0.5-0.3-0.8-0.3l-2.1-2.4l2.2-2l8.5,9.3L57.1,32.6z M64.2,25.6c-1.2,1.2-2.4,2-3.9,2.6l-7-7.7c0.5-0.8,1.5-2.4,2.7-3.6
	c1.2-1,3.6,0.6,5.5,2.7C64.9,23.4,64.9,25,64.2,25.6z"/>
</svg>
