<svg width="77" height="50" viewBox="0 0 77 50" fill="none" xmlns="http://www.w3.org/2000/svg">
<g clip-path="url(#clip0_29497_7940)">
<path fill-rule="evenodd" clip-rule="evenodd" d="M38.1999 8.61014C38.5099 7.53014 38.7599 6.43014 39.1099 5.36014C39.1699 6.44014 39.2399 7.52014 39.3199 8.60014C38.9499 8.60014 38.5799 8.60014 38.2099 8.60014L38.1999 8.61014ZM55.3799 37.8901C55.3799 37.8901 55.4199 38.2601 55.4499 38.6101V38.7201C55.4999 39.1001 55.5399 39.4701 55.5499 39.4701C55.6199 40.0401 55.6799 40.6101 55.7299 41.1901L55.7699 41.6201L56.1099 38.4101C56.7899 32.0001 57.4299 25.5801 58.0999 19.1601L58.4399 15.9501C58.4899 15.4701 58.5399 14.9801 58.6099 14.5001C62.9599 14.5001 67.2999 14.5001 71.6499 14.5001C73.1499 14.5001 74.4299 15.5601 75.2599 16.7801C76.5499 18.7601 76.8999 21.2401 76.8599 23.5801C76.8999 27.0301 75.9799 29.9201 73.3299 32.0401L73.2299 32.1201L72.2399 32.8901C72.4399 33.5901 72.6499 34.2801 72.8499 34.9801L74.0799 39.1601C74.8999 41.9501 75.7199 44.7401 76.5199 47.5301C75.8199 47.5301 75.1299 47.5401 74.4399 47.5301C72.1999 47.5101 69.9499 47.5301 67.7099 47.5101C66.6399 43.2301 65.5699 38.9401 64.4899 34.6501C64.2899 36.5701 64.0699 38.4901 63.9099 40.4101C63.6199 42.6401 63.4599 44.8801 63.1799 47.1101C62.6699 47.1101 62.1699 47.1101 61.6599 47.1101C57.1799 47.1101 52.6999 47.1101 48.2199 47.1101C48.1599 45.7501 48.0299 44.4001 47.9899 43.0501C46.3099 43.0501 44.6399 43.0501 42.9599 43.0501C42.8499 43.4201 42.7399 43.7901 42.6299 44.1601C42.3499 45.1301 42.0999 46.1001 41.7999 47.0701C41.3699 47.1901 40.9199 47.1101 40.4799 47.1301C35.7499 47.1301 31.0199 47.1301 26.2899 47.1301C27.1599 39.4401 28.0199 31.7501 28.8799 24.0601C27.4199 24.0401 25.9599 24.0901 24.4899 24.0301C24.6799 21.8601 24.8999 19.6801 25.1099 17.5101C22.0399 17.5101 18.9599 17.5101 15.8899 17.5101C16.1699 14.9601 16.4099 12.4101 16.6899 9.86014C16.7399 9.30014 16.6899 8.61014 16.1899 8.27014C15.3999 7.80014 14.2099 8.02014 13.8299 8.95014C13.3499 10.4901 13.3999 12.1501 13.1799 13.7401C13.1699 13.9601 13.1399 14.1901 13.1099 14.4101L13.0799 14.6801C12.9999 15.3501 12.9099 16.0301 13.0199 16.7001C13.1499 17.4701 13.7799 17.9601 14.3799 18.3501L14.4399 18.3901L14.7699 18.5901C16.7099 19.7301 18.6599 20.8501 20.5999 22.0001C21.4899 22.5201 22.3299 23.1601 23.0199 23.9501C23.3999 24.4101 23.7299 24.9201 23.9999 25.4601C24.6599 26.8401 24.8199 28.4401 24.5999 29.9501C24.1299 34.1601 23.7099 38.3801 23.2199 42.6001C22.9699 44.4201 22.6299 46.3801 21.3499 47.7501C20.7099 48.4901 19.8399 48.9701 18.9399 49.2901C16.6199 50.0001 14.1699 49.9701 11.7699 50.0101H11.5599H10.9799C8.92988 50.0101 6.87988 50.0101 4.84988 49.7101C3.33988 49.4801 1.66989 48.9601 0.789885 47.5601C-0.200115 45.8901 -0.000114802 43.8501 0.0498852 41.9901C0.349885 38.3101 0.829885 34.6501 1.19989 30.9901C1.22989 30.7001 1.26989 30.4201 1.29989 30.1401C5.95989 30.1301 9.92988 30.0901 11.4799 30.0201C11.1799 32.8501 10.8699 35.6701 10.5699 38.5001C10.4699 39.3601 10.3299 40.2601 10.5499 41.1101C10.7099 41.7001 11.3299 41.8701 11.8399 41.9301C12.2699 41.8801 12.7499 41.7901 13.0299 41.4101C13.4099 40.8901 13.4899 40.2101 13.5699 39.5801C13.8299 37.2401 14.0599 34.8901 14.3199 32.5501C14.3199 32.4801 14.3299 32.4001 14.3399 32.3301L14.3599 32.1101C14.4299 31.5201 14.4799 30.9201 14.3399 30.3401C14.1399 29.5901 13.4699 29.1601 12.8699 28.7801C10.7599 27.5101 8.64989 26.2501 6.52989 24.9901C5.39989 24.3401 4.37989 23.4401 3.69989 22.2901C2.74989 20.7201 2.51989 18.8001 2.67989 16.9801C2.87989 14.9501 3.09988 12.9101 3.30989 10.8801C3.49989 9.08014 3.67988 7.27014 4.13988 5.52014C4.41989 4.47014 4.81989 3.42014 5.47989 2.56014C6.46988 1.26014 8.05989 0.660142 9.58989 0.390142C11.4499 0.0501418 13.3499 0.00014182 15.2399 0.00014182C17.7399 0.0201418 20.2699 -0.0998582 22.7499 0.350142C23.9499 0.590142 25.1999 1.04014 25.9999 2.05014C26.9099 3.20014 27.0699 4.76014 27.0499 6.19014C26.8899 8.95014 26.4399 11.6901 26.2699 14.4501C31.5799 14.4601 36.8899 14.4701 42.1999 14.4901C42.0399 15.9601 41.8699 17.4201 41.7999 18.9001C41.5199 20.5901 41.4199 22.3001 41.2099 24.0001C40.9099 24.0201 40.5999 24.0401 40.2999 24.0401C40.0899 24.0401 39.8799 24.0401 39.6799 24.0401C38.7699 24.0201 37.8599 24.0401 36.9499 24.0301C36.8999 24.4901 36.8499 24.9501 36.7999 25.4101C36.3299 29.8301 35.8199 34.2501 35.3699 38.6701C35.1599 40.3401 34.9799 42.0201 34.8099 43.7001C36.8699 37.5301 38.9199 31.3601 40.9799 25.1901L44.0599 15.9401L44.3799 14.9701L44.5399 14.4801C47.4199 14.4801 50.2999 14.4801 53.1899 14.4801C53.2799 15.4601 53.3699 16.4401 53.4699 17.4201C53.6399 19.1701 53.7999 20.9201 53.9699 22.6601C54.1299 24.3701 54.2999 26.0901 54.4599 27.8001C54.6499 29.7701 54.8299 31.7501 54.9999 33.7201C55.1699 34.9501 55.2299 36.2001 55.3399 37.4501L55.3799 37.8601V37.8901ZM46.6399 28.2301C46.1899 29.7601 45.8199 31.3301 45.3999 32.8701C45.1699 33.7401 44.9399 34.6101 44.7099 35.4801C44.9399 35.4801 45.1699 35.4801 45.4099 35.4801C45.9599 35.4801 46.5099 35.4801 47.0699 35.4801C46.9299 33.0601 46.7999 30.6401 46.6499 28.2201L46.6399 28.2301ZM65.6399 23.3901C65.5999 23.8301 65.5599 24.2601 65.4999 24.7001C65.4599 25.1801 65.4099 25.6601 65.3599 26.1401L65.2599 27.1001C65.1899 27.7401 65.1299 28.3801 65.0999 29.0201C65.8299 29.0201 66.5599 29.0201 67.2899 29.0301C68.0799 29.0101 68.6099 28.2701 68.7999 27.5301C69.0499 26.5301 69.1299 25.4401 68.8499 24.4301C68.7099 23.9901 68.4399 23.4901 67.9699 23.4001C67.1999 23.3601 66.4199 23.4001 65.6499 23.3801L65.6399 23.3901ZM30.1299 1.62014C30.2399 1.62014 30.3599 1.62014 30.4699 1.62014H30.6099H30.7499C30.7999 1.62014 30.8399 1.62014 30.8899 1.62014H31.0299C31.4199 1.62014 31.8099 1.62014 32.1399 1.62014H32.2499C32.2499 1.62014 32.2899 1.62014 32.3099 1.62014H32.5699C32.5699 1.62014 32.5999 1.62014 32.6199 1.62014H32.7099C33.0099 1.62014 33.1899 1.62014 33.1699 1.62014H33.5899C33.7299 1.62014 33.8799 1.62014 34.0199 1.62014H34.4499C34.9999 1.84014 35.4199 2.40014 35.6099 3.00014C35.8499 3.82014 35.9499 4.69014 35.9399 5.55014C35.8099 7.62014 35.6699 9.90014 34.3199 11.5201C34.0499 11.7401 33.7499 11.9101 33.4399 12.0501C31.9699 12.1301 30.4999 12.0601 29.0299 12.0701C29.3499 9.11014 29.6299 6.15014 29.9899 3.19014C30.0899 2.67014 30.0499 2.13014 30.1399 1.60014L30.1299 1.62014ZM57.2599 1.61014C56.4199 3.50014 55.4899 5.34014 54.6299 7.22014C54.3899 7.79014 54.0199 8.31014 53.9199 8.94014C53.8099 9.99014 53.7199 11.0401 53.5899 12.0801C53.1899 12.0801 52.7899 12.0801 52.3899 12.0801C52.0399 12.0801 51.6899 12.0801 51.3399 12.0801C51.4499 10.9901 51.5499 9.90014 51.6599 8.82014C51.7299 8.29014 51.5399 7.79014 51.4099 7.29014C50.9999 5.79014 50.6099 4.29014 50.1999 2.79014C50.0899 2.41014 49.9999 2.03014 49.9199 1.65014C50.6899 1.65014 51.4699 1.65014 52.2399 1.64014C52.2899 1.76014 52.3199 1.90014 52.3599 2.01014C52.5299 2.78014 52.7199 3.55014 52.9099 4.32014C52.9999 4.73014 53.0999 5.14014 53.1999 5.55014C53.5699 4.66014 53.9099 3.77014 54.2599 2.87014C54.4199 2.45014 54.5899 2.04014 54.7499 1.63014C55.2499 1.63014 55.7499 1.63014 56.2599 1.63014H56.2399H56.2299C56.2299 1.63014 56.6699 1.63014 57.2299 1.61014H57.2599ZM48.5199 1.67014C48.3299 4.37014 47.9499 7.06014 47.7299 9.76014C48.6399 9.76014 49.5599 9.74014 50.4699 9.76014C50.5599 9.76014 50.6999 9.78014 50.8199 9.79014C50.7799 10.2601 50.7399 11.1701 50.6999 11.7501C50.6999 11.7501 50.6999 11.7601 50.6999 11.7701C50.6899 11.7901 50.6999 11.8101 50.6999 11.8401C50.6999 11.9201 50.6999 11.9801 50.6899 12.0401C50.6499 12.0501 50.5999 12.0601 50.4999 12.0401C50.0199 12.0301 49.2999 12.0201 48.5799 12.0201H48.3399C47.4899 12.0201 46.6699 12.0201 46.2299 12.0201H45.2299C45.5199 8.95014 45.8599 5.88014 46.1599 2.81014C46.1899 2.43014 46.2399 2.05014 46.2899 1.66014C47.0399 1.66014 47.7799 1.66014 48.5299 1.65014L48.5199 1.67014ZM37.8699 1.65014C38.9399 1.65014 40.0099 1.66014 41.0799 1.66014C41.1799 3.07014 41.2599 4.49014 41.3799 5.90014C41.4799 7.94014 41.6499 9.98014 41.7599 12.0201C41.4499 12.0201 41.1299 12.0201 40.8199 12.0201C40.7199 12.0201 40.5299 12.0201 40.4299 12.0201C40.1299 12.0201 39.8299 12.0201 39.5299 12.0101C39.4999 11.6901 39.4799 11.3701 39.4599 11.0401C38.8299 11.0401 38.1999 11.0401 37.5699 11.0401C37.4799 11.3601 37.3999 11.6801 37.3099 12.0101C36.5699 12.0101 35.8299 12.0101 35.0899 12.0101C35.8999 8.94014 36.7299 5.88014 37.5399 2.82014C37.6499 2.42014 37.7499 2.03014 37.8599 1.64014L37.8699 1.65014ZM42.9899 1.67014C43.5599 1.67014 44.1399 1.67014 44.7099 1.67014C44.9099 1.67014 45.1099 1.67014 45.3099 1.67014C45.2899 2.05014 45.2699 2.44014 45.2299 2.82014C44.8999 5.86014 44.6499 8.90014 44.2999 11.9401L44.1899 11.9901C43.8199 12.0301 43.4499 12.0301 43.0799 12.0301C42.6999 12.0301 42.3199 12.0301 41.9399 12.0301C42.2399 8.96014 42.5699 5.89014 42.8799 2.82014C42.9199 2.44014 42.9499 2.06014 42.9899 1.67014ZM33.0499 4.05014C32.7999 3.87014 32.4999 3.95014 32.2199 3.94014C32.1999 4.37014 32.0899 4.83014 32.0699 5.27014C32.0699 5.29014 32.0699 5.30014 32.0699 5.29014L32.0399 5.57014L32.0099 5.85014C32.0099 5.85014 32.0099 5.85014 32.0099 5.84014C31.8699 7.08014 31.7799 8.32014 31.6199 9.55014C31.9599 9.53014 32.3399 9.62014 32.6499 9.41014C33.1099 9.15014 33.2999 8.57014 33.4199 8.06014C33.6099 7.14014 33.7599 6.18014 33.6199 5.23014C33.5399 4.80014 33.4099 4.32014 33.0599 4.05014H33.0499Z" fill="white"/>
</g>
<defs>
<clipPath id="clip0_29497_7940">
<rect width="76.87" height="50" fill="white"/>
</clipPath>
</defs>
</svg>
