<svg width="217" height="50" viewBox="0 0 217 50" fill="none" xmlns="http://www.w3.org/2000/svg">
<g clip-path="url(#clip0_29497_7890)">
<path d="M87.0699 33.7901C87.0599 35.5501 86.4599 37.0101 85.2299 38.2501C84.0199 39.4701 82.5699 40.0701 80.7999 40.0701C79.3799 40.0701 78.1699 39.6601 77.0999 38.8801C78.4599 38.0001 91.0299 29.8501 91.0299 29.8501L90.8099 29.3501C89.9399 27.3601 88.5799 25.7501 86.7399 24.5901C84.9199 23.4101 82.8999 22.8101 80.7399 22.8101C80.5299 22.8101 69.4199 22.8101 69.4199 22.8101C69.4199 24.8401 70.4699 26.2501 72.1699 26.9501C70.5999 28.8901 69.7999 31.1801 69.7999 33.8001C69.7999 36.8201 70.8799 39.4201 73.0099 41.5201C75.1699 43.6101 77.7899 44.6701 80.7899 44.6701C83.7899 44.6701 86.3399 43.6101 88.4699 41.5201C90.5899 39.4101 91.6699 36.8201 91.6999 33.8101V33.1601H87.0599V33.8001L87.0699 33.7901ZM74.4399 33.8101C74.4399 32.0501 75.0399 30.5801 76.2799 29.3101C77.4999 28.0501 78.9699 27.4401 80.7499 27.4401C82.1699 27.4401 83.3799 27.8501 84.4499 28.6301C83.2299 29.4201 75.8099 34.2301 74.5899 35.0301C74.4999 34.6001 74.4399 34.1901 74.4399 33.8001V33.8101Z" fill="white"/>
<path d="M115.48 33.7901C115.47 35.5501 114.87 37.0101 113.64 38.2501C112.43 39.4701 110.98 40.0701 109.21 40.0701C107.79 40.0701 106.58 39.6601 105.51 38.8801C106.87 38.0001 119.44 29.8501 119.44 29.8501L119.22 29.3501C118.35 27.3601 116.99 25.7501 115.16 24.5901C113.34 23.4101 111.32 22.8101 109.16 22.8101C108.94 22.8101 98.2997 22.8101 98.2997 22.8101C98.2997 24.7001 99.2097 26.0601 100.71 26.8001C99.0597 28.7701 98.2197 31.1201 98.2197 33.8001C98.2197 36.8201 99.2997 39.4201 101.43 41.5201C103.59 43.6101 106.21 44.6701 109.21 44.6701C112.21 44.6701 114.76 43.6101 116.89 41.5201C119.01 39.4101 120.09 36.8201 120.12 33.8101V33.1601H115.48V33.8001V33.7901ZM102.85 33.8101C102.85 32.0501 103.45 30.5801 104.69 29.3101C105.91 28.0501 107.37 27.4401 109.16 27.4401C110.58 27.4401 111.79 27.8501 112.86 28.6301C111.64 29.4201 104.22 34.2301 102.99 35.0301C102.9 34.6001 102.84 34.1901 102.84 33.8101H102.85Z" fill="white"/>
<path d="M132 22.7998C129 22.7998 126.4 23.8898 124.25 26.0298C122.12 28.1598 121.04 30.7598 121.04 33.7498V44.3798V49.9998C124.04 49.9998 125.68 47.7098 125.68 44.3798V42.2398C127.55 43.8398 129.78 44.6598 132.34 44.6598C135.28 44.6598 137.81 43.5698 139.86 41.4198C141.92 39.2798 142.96 36.6998 142.96 33.7498C142.96 30.7998 141.87 28.1598 139.73 26.0298C137.59 23.8898 134.99 22.7998 132 22.7998ZM136.45 38.2198C135.2 39.4698 133.75 40.0698 132 40.0698C130.25 40.0698 128.79 39.4598 127.53 38.2198C126.28 36.9698 125.68 35.4998 125.68 33.7598C125.68 32.0198 126.29 30.5598 127.53 29.3198C128.79 28.0598 130.25 27.4498 132 27.4498C133.75 27.4498 135.2 28.0598 136.45 29.3198C137.71 30.5698 138.33 32.0198 138.33 33.7598C138.33 35.4998 137.72 36.9598 136.46 38.2198H136.45Z" fill="white"/>
<path d="M154.03 22.7998C152 22.7998 150.22 23.4398 148.7 24.6798V19.7598C145.73 19.7898 144.06 22.0698 144.06 25.3798V44.3698H148.68V32.0998C148.68 30.7998 149.13 29.7198 150.05 28.7998C150.99 27.8798 152.07 27.4298 153.35 27.4298C154.63 27.4298 155.73 27.8798 156.65 28.7998C157.57 29.7198 158.02 30.7998 158.02 32.0998V44.3698H162.65V32.0898C162.65 29.6398 161.85 27.4798 160.27 25.6698C158.59 23.7598 156.49 22.7998 154.04 22.7998H154.03Z" fill="white"/>
<path d="M174.37 22.7998C174.11 22.7998 163.41 22.7998 163.41 22.7998C163.41 24.7198 164.35 26.0898 165.89 26.8198C164.24 28.7898 163.41 31.1098 163.41 33.7498C163.41 36.6898 164.45 39.2698 166.49 41.4198C168.56 43.5698 171.1 44.6598 174.03 44.6598C176.6 44.6598 178.84 43.8398 180.71 42.2398V44.3798H185.32V33.7598C185.32 30.7598 184.24 28.1598 182.11 26.0398C179.98 23.8998 177.37 22.8098 174.36 22.8098L174.37 22.7998ZM178.84 38.2198C177.57 39.4598 176.11 40.0698 174.37 40.0698C172.63 40.0698 171.18 39.4598 169.91 38.2198C168.65 36.9598 168.04 35.4998 168.04 33.7598C168.04 32.0198 168.65 30.5698 169.91 29.3198C171.17 28.0598 172.63 27.4498 174.37 27.4498C176.11 27.4498 177.58 28.0598 178.84 29.3198C180.1 30.5698 180.71 32.0198 180.71 33.7598C180.71 35.4998 180.1 36.9598 178.84 38.2198Z" fill="white"/>
<path d="M196.04 22.7998C193.59 22.7998 191.4 23.7398 189.54 25.5998C187.68 27.4598 186.74 29.6398 186.74 32.0998V44.3798H196.99C196.99 41.3798 194.7 39.7498 191.37 39.7498V32.1098C191.37 30.8098 191.82 29.7298 192.74 28.8098C193.66 27.8898 194.74 27.4398 196.04 27.4398C197.34 27.4398 198.4 27.8898 199.32 28.8098C200.25 29.7298 200.71 30.8098 200.71 32.1098V44.3798H205.33V32.0998C205.33 29.6498 204.39 27.4598 202.53 25.5998C200.67 23.7398 198.49 22.7998 196.05 22.7998H196.04Z" fill="white"/>
<path d="M92.5 25.35V44.37H97.13V25.35V19.73C94.13 19.73 92.5 22.02 92.5 25.35Z" fill="white"/>
<path d="M211.09 22.82V19.73H206.46V44.38H211.09V27.46C214.42 27.46 216.71 25.83 216.71 22.83H211.09V22.82Z" fill="white"/>
<path d="M15.7299 21.0901L16.8799 20.7201L17.1399 21.5501L15.9999 21.9201L16.7199 22.9101L15.9999 23.4501L15.2599 22.4401L14.5599 23.4001L13.8499 22.8701L14.5799 21.9201L13.4199 21.5101L13.6999 20.6801L14.8399 21.0901V19.8901H15.7299V21.0901Z" fill="white"/>
<path d="M54.6699 34.6002C54.3799 34.1802 54.1999 32.9602 53.9099 31.6702C53.5499 30.0202 53.7599 31.0402 53.1599 27.8802L53.1099 27.5202C53.0399 27.1802 52.8999 26.8102 52.8099 26.6302C52.2699 25.5502 52.4499 25.9102 51.3599 24.2802C50.4799 22.9602 50.1299 22.5902 48.9299 21.4602C47.7699 20.3702 46.5399 20.5302 46.0799 20.2902C45.6199 20.0402 44.0999 19.8502 43.4799 19.8202C42.8599 19.8002 42.1099 19.7702 41.1599 19.4902C40.1999 19.2102 37.6199 19.6002 36.2399 19.8502C34.8599 20.1002 31.9599 20.1102 31.3299 20.0302C30.7099 19.9402 29.4799 19.4102 28.6899 19.1302C27.8999 18.8502 26.4899 19.7802 26.4899 19.7802C26.1199 19.9202 25.7299 20.2402 25.3199 20.7702C24.7699 21.4602 23.9299 21.6002 23.4499 22.0402C23.4499 22.0402 18.8899 25.1002 16.8799 25.5202C14.8699 25.9302 12.1799 26.3802 10.2799 24.9802C9.05987 24.0702 8.98987 22.4202 9.20987 21.7002C9.37987 21.1602 9.62987 20.8802 10.0099 20.7902C10.3899 20.7002 10.6699 20.8402 10.7399 21.0902C10.7399 21.0902 10.8799 21.9002 11.0599 21.8102C11.2299 21.7302 11.2299 21.2202 11.4899 21.1902C11.7499 21.1502 11.9999 21.2802 12.0099 21.0002C12.0199 20.7202 11.6599 20.6902 11.1599 20.3702C10.6599 20.0502 10.4999 19.8402 9.82987 19.9502C8.71987 20.1402 8.15987 21.9302 8.31987 23.0802C8.48987 24.2302 9.19987 25.7302 10.7999 26.4802C12.3899 27.2302 14.0099 27.4302 15.5099 27.3002C17.0099 27.1802 21.0599 26.1302 21.9999 25.7602C22.8499 25.4302 23.3699 25.0702 23.6699 25.3102C23.4899 25.4402 22.7399 26.1802 21.7299 26.8202C20.2999 27.7202 18.6899 28.5102 18.6899 28.5102C18.6899 28.5102 20.4099 28.3202 22.2399 27.4102C23.6599 26.7102 24.4899 25.9302 24.6199 25.8002C24.7599 25.8002 24.9199 25.7702 25.0699 25.7402C25.0699 25.7402 25.3899 25.7802 25.1299 26.0402C24.8799 26.3002 24.2199 26.7302 23.7099 27.5402C23.2099 28.3402 23.2399 28.4802 23.4199 28.5402C23.5899 28.5902 24.8299 27.6002 25.3599 27.7902C25.8799 27.9902 26.7199 28.5402 27.2499 28.5802C27.7799 28.6202 28.1299 28.4002 28.3799 28.5502C28.6299 28.7002 29.2499 29.3202 29.6999 29.7502C29.6999 29.7502 29.9499 29.9402 30.1099 30.3202C30.2599 30.7002 30.5399 31.4402 30.5399 31.4402C30.4799 31.8502 30.0499 33.0302 29.9299 34.0302C29.8099 35.0402 29.9999 36.5502 29.9999 36.5502C29.9999 36.5502 29.7199 37.1402 29.4399 37.7202C29.1599 38.3102 29.2499 38.5002 28.9099 39.2202C28.5899 39.8802 28.2899 39.9502 27.9999 40.6902C27.7799 41.2702 28.8599 41.4902 29.0399 41.5202C29.4799 41.6002 30.2399 41.8402 30.2399 41.8402C30.2399 41.8402 30.0399 42.3302 29.8899 42.7402C29.7499 43.1502 29.9399 43.4302 31.7299 43.4502C33.5299 43.4802 33.2699 43.3702 33.2899 42.8702C33.3099 42.3702 32.9699 42.2602 32.8699 41.7502C32.7599 41.2402 33.1499 37.8602 33.2499 37.3202C33.3599 36.7702 33.3699 36.3202 33.6799 36.1002C33.9899 35.8802 34.4799 35.3502 34.9599 35.0502C35.4399 34.7502 35.7799 33.8402 35.7799 33.8402C36.1199 33.9902 38.2999 34.9002 39.1899 35.3002C40.0699 35.7002 41.2299 35.4702 42.3999 35.2902C43.5599 35.1102 44.8299 35.4302 44.8299 35.4302C44.8199 35.7102 45.4899 37.2502 45.6299 37.8002C45.7799 38.3502 45.3999 40.5402 45.1599 41.2702C44.9199 41.9902 44.1799 42.2402 43.9799 42.8702C43.7899 43.5102 44.1399 43.3302 44.5599 43.3502C44.9899 43.3702 47.0299 43.5802 47.5099 43.2402C47.9899 42.8902 47.9499 40.8302 48.0499 40.2802C48.1599 39.7302 48.5599 37.0902 48.6799 37.2802C48.7999 37.4702 48.8499 37.3302 49.1999 38.1302C49.5499 38.9302 49.6399 42.0002 49.5799 42.5002C49.5199 43.0002 49.1799 43.0402 48.9499 43.3902C48.7199 43.7502 48.4199 43.8802 48.6599 44.2502C48.8999 44.6302 50.3199 44.4502 50.9999 44.3902C51.6899 44.3302 52.2399 44.3902 52.5499 44.2202C52.8499 44.0502 52.7599 43.2202 52.6599 42.4802C52.5599 41.7402 52.5799 39.9102 52.3999 39.1202C52.2199 38.3302 52.2299 36.9602 52.2999 36.2302C52.3699 35.5002 52.0999 34.4002 51.9999 33.6202C51.9299 33.0802 52.5999 30.8402 52.9099 29.0202L53.1199 29.7002C53.3499 30.4602 54.2999 34.4202 54.3399 34.7102C54.3799 35.0002 54.2999 34.9302 54.3799 35.6002C54.4499 36.2602 54.7999 36.2302 54.7999 36.2302C54.7999 36.2302 54.8599 35.8202 54.9899 35.5202C55.1199 35.2202 54.9299 35.0502 54.6499 34.6302L54.6699 34.6002Z" fill="white"/>
<path d="M3.04 44.64H8.72L7.4 42.14C5.93 38.86 5.11 35.24 5.11 31.42C5.11 16.92 16.91 5.12 31.41 5.12C45.91 5.12 57.71 16.92 57.71 31.42C57.71 36.24 56.41 40.75 54.14 44.64H59.92C60.01 44.42 60.12 44.18 60.26 43.91C61.94 40.02 62.83 35.79 62.83 31.43C62.83 23.04 59.56 15.15 53.63 9.21C47.71 3.27 39.82 0 31.42 0C23.02 0 15.14 3.27 9.2 9.2C3.27 15.14 0 23.03 0 31.42C0 35.7 0.85 39.84 2.47 43.67C2.61 44.08 2.81 44.39 3.04 44.64Z" fill="white"/>
</g>
<defs>
<clipPath id="clip0_29497_7890">
<rect width="216.71" height="50" fill="white"/>
</clipPath>
</defs>
</svg>
