<svg width="158" height="50" viewBox="0 0 158 50" fill="none" xmlns="http://www.w3.org/2000/svg">
<g clip-path="url(#clip0_29497_7942)">
<path d="M59.65 10.9802C60.3 11.2402 60.64 10.7502 60.94 10.3202C61.24 9.89016 61.46 9.41016 61.77 8.98016C62.82 7.50016 63.9 6.05016 64.94 4.57016C65.59 3.64016 65.24 2.82016 64.12 2.59016C63.71 2.51016 63.3 2.46016 62.95 2.41016C62.25 3.54016 61.58 4.58016 60.96 5.66016C60.28 6.84016 59.64 8.04016 59.02 9.26016C58.76 9.77016 59.14 10.7802 59.64 10.9802M27.78 36.9102C27.71 36.8702 27.64 36.8402 27.57 36.8102C26.09 36.3202 25.83 36.5802 24.42 36.8402C22.41 37.2102 20.47 38.1002 18.47 38.5702C15.17 39.3502 12.03 40.5302 8.94001 41.8902C7.79001 42.4002 6.62001 42.8502 5.37001 43.3502C5.37001 43.0802 5.34001 42.9702 5.37001 42.9102C6.87001 40.1002 8.39001 37.3002 9.87001 34.4802C10.32 33.6102 10.82 32.8602 11.75 32.3902C18.27 29.1102 25 26.4202 32.21 25.0102C32.89 24.8802 33.62 24.5502 33.67 23.5702C33.51 23.0802 32.77 22.7602 32.24 22.8202C30.55 23.0102 28.61 23.3102 26.95 23.6902C22.57 24.7302 18.22 26.4502 14.14 28.3702C13.86 28.5002 13.55 28.5602 13.26 28.6602C14.36 26.2302 15.63 24.0102 16.83 21.7502C17.33 20.8102 17.9 20.0602 18.95 19.6802C21.73 18.3902 24.23 17.6702 27.19 16.6802C29.64 15.8602 35.84 14.5602 37.09 14.0802C38.03 13.7202 37.31 12.2502 37.06 12.1702C34.66 11.4502 30.78 12.9402 28.53 13.5902C24.94 14.6302 25.34 14.6002 21.8 15.8002C21.43 15.9202 20.73 16.3802 20.36 16.4802L20.22 16.2902C20.71 15.5202 20.6 15.8802 21.05 15.0902C21.49 14.3102 21.21 13.8302 20.1 13.2602C19.33 12.8602 18.78 13.0102 18.39 13.6802C17.5 15.2402 17.28 15.7302 16.27 17.2102C15.79 17.9102 15.03 18.5002 14.27 18.9102C13.01 19.5902 11.64 20.0602 10.35 20.6702C9.83001 20.9202 9.32001 21.1902 8.81001 21.4802C8.10001 21.8702 8.06001 22.9202 8.78001 23.2902C9.15001 23.4802 9.55001 23.3702 10.43 23.1102C11.34 22.8402 12.23 22.4802 13.25 22.1202C13.17 22.4102 13.15 22.5902 13.07 22.7402C11.93 24.8602 10.84 27.0102 9.62001 29.0802C9.05001 30.0402 7.59001 31.0302 6.91001 31.9302C6.76001 32.1202 6.70001 32.3902 6.64001 32.6402C6.55001 33.0302 7.25001 33.3102 7.07001 33.6402C4.61001 38.2502 2.58001 41.8102 0.130009 46.4202C-0.0299911 46.7202 -0.0299911 47.2602 0.140009 47.5502C0.570009 48.2602 1.10001 49.0302 2.09001 48.9402C3.03001 48.8602 3.52001 47.0002 4.21001 46.7102C6.81001 45.6402 9.31001 44.3502 11.95 43.3902C15.78 42.0002 19.68 40.7902 23.57 39.5802C25.32 39.0302 25.94 38.8402 27.71 38.3302C27.74 38.3302 27.78 38.3102 27.81 38.2902C28.37 38.0202 28.33 37.2202 27.8 36.9102" fill="white"/>
<path d="M105.59 9.13988C104.97 8.77988 104.2 8.47988 103.5 8.48988C101.67 8.49988 99.8301 8.63988 98.0101 8.81988C94.7801 9.14988 91.5301 9.40988 88.3301 9.94988C84.1001 10.6599 79.9001 11.5899 75.7001 12.4399C74.7001 12.6399 73.7201 12.9299 72.6301 13.2099C72.6801 12.9999 72.7101 12.8499 72.7701 12.7199C73.5601 11.1599 74.3201 9.57988 75.1901 8.05988C75.5801 7.37988 75.3501 6.91988 74.8301 6.67988C74.2401 6.40988 73.5401 6.32988 72.8901 6.31988C72.7501 6.31988 72.6101 7.00988 72.4701 7.37988C72.4301 7.47988 72.3801 7.58988 72.3301 7.67988C71.2901 9.63988 70.2301 11.5999 69.2201 13.5699C69.2001 13.5999 69.1801 13.6299 69.1601 13.6699C68.8001 14.1799 68.2601 14.4399 67.6701 14.6099C64.7401 15.4299 61.8201 16.2499 58.9001 17.0999C58.7101 17.1599 58.4201 17.5799 58.4601 17.6299C58.8201 18.1399 59.1501 18.8399 59.6701 19.0299C60.2401 19.2399 61.0201 19.0799 61.6601 18.8999C63.0201 18.5299 64.3401 18.0399 65.6901 17.6099C65.8501 17.5599 66.5001 17.2999 66.6901 17.5399C65.6501 19.0199 64.3301 20.8699 63.5701 21.9199C61.6501 24.5999 59.7101 27.2599 57.7801 29.9399C55.7801 32.7099 53.8001 35.4899 51.7901 38.2499C51.0001 39.3299 50.1801 40.3999 49.3301 41.4399C49.1201 41.6999 48.7501 41.8299 48.4501 42.0199C48.3401 41.6699 48.1101 41.2999 48.1601 40.9699C48.3201 39.8799 48.4501 38.7399 48.8501 37.7199C49.6801 35.5899 50.6201 33.4999 51.6301 31.4499C53.0801 28.5199 54.6201 25.6399 56.1401 22.7499C56.4301 22.1999 56.4501 20.6599 55.9301 20.4299C55.2201 20.1099 54.3501 20.1199 53.5501 20.0099C53.4901 20.0099 53.3801 20.1999 53.3201 20.3199C52.8801 21.1999 52.5801 22.1699 52.0001 22.9499C50.7601 24.6399 49.3801 26.2299 48.0501 27.8499C46.9001 29.2499 45.6701 30.6599 44.4201 32.0799C44.4201 32.0799 44.4201 32.0799 44.4201 32.0699C43.0101 33.6399 41.6001 35.2199 40.1901 36.7999C38.0201 39.2399 35.8601 41.6899 33.7001 44.1399C32.7701 45.1899 31.8401 46.2499 30.9101 47.2999L30.6101 47.2199C30.5501 47.0199 30.4201 46.8099 30.4401 46.6099C30.5101 45.8099 30.4801 44.9599 30.7501 44.2099C31.8801 41.0799 32.9601 37.9199 34.3501 34.8899C34.5801 34.4199 34.8101 33.9499 35.0501 33.4799C35.3401 32.8999 35.6501 32.3199 35.8301 31.9699C36.3601 30.9499 36.9101 29.9299 37.4401 28.9199C39.0001 25.9699 40.5901 23.0299 42.2601 20.1399C44.6701 15.9599 47.1501 11.8099 49.6201 7.66988C50.6101 6.01988 51.5901 4.34988 52.7301 2.79988C53.1601 2.20988 53.2401 1.72988 53.0301 1.12988C52.7401 0.269877 52.1101 -0.100123 51.2001 -0.020123C50.3501 0.059877 50.0901 0.619877 49.9701 1.33988C49.9301 1.57988 49.8501 1.81988 49.7301 2.03988C49.1401 3.14988 48.5501 4.25988 47.9301 5.34988C47.3001 6.46988 46.7001 7.60988 45.9801 8.65988C40.0901 18.1999 34.2401 29.1899 33.2301 31.2299C32.9401 31.8199 32.5801 32.6199 32.2001 33.4999C31.5801 34.7499 30.9701 35.9899 30.6801 36.5799C29.3101 39.3499 28.0701 42.1499 27.6401 45.1999C27.3701 47.1199 28.0601 48.6999 29.8401 49.7399C30.3601 50.0499 31.4001 50.0399 31.9601 49.7699C32.7601 49.3799 33.4101 48.6699 33.9901 47.9999C35.0901 46.7199 36.0701 45.3599 37.1501 44.0799C37.2101 43.9999 37.2801 43.9299 37.3401 43.8499C39.8501 40.9499 42.4001 38.0699 44.9501 35.1899C45.8401 34.1699 46.7001 33.1699 47.6101 32.0799C48.1401 31.4399 48.6701 30.7999 49.2101 30.1599C49.2801 30.5399 49.1901 30.8199 49.0801 31.0899C48.0201 33.6999 46.8601 36.2899 45.9201 38.9399C45.3401 40.5799 45.4201 42.1899 47.0501 43.4499C48.2701 44.3799 49.6301 44.6399 50.6701 43.5499C51.9601 42.1999 53.0701 40.6799 54.1601 39.1599C56.4801 35.9099 58.7401 32.6099 61.0301 29.3299C61.1101 29.2199 61.2801 29.1699 61.6301 28.9599C61.5101 29.4499 61.4801 29.7399 61.3701 29.9899C61.1901 30.3899 60.8901 30.7499 60.7401 31.1699C60.1801 32.7099 59.6201 34.2499 59.1201 35.8199C58.4401 37.9699 58.3601 40.1499 58.9301 42.3399C59.2601 43.6199 60.0801 44.4399 61.4001 44.8099C62.6901 45.1699 63.6101 44.5899 64.4201 43.7599C66.2501 41.8999 68.0501 39.9999 69.8701 38.1199C70.3001 37.6799 70.7801 37.2799 71.3301 36.7799C71.4301 37.2299 71.4901 37.4699 71.5501 37.7099C72.6001 42.4299 77.5401 44.7599 81.8001 42.3499C84.6501 40.7399 87.3101 38.7799 90.0101 36.9299C90.4301 36.6399 90.6501 36.0899 90.9601 35.6499C90.9001 35.5599 90.8501 35.4699 90.7901 35.3899C90.4301 35.4199 90.0201 35.3599 89.7001 35.4899C89.1901 35.6999 88.7401 36.0399 88.2501 36.3199C85.4001 37.9599 82.5701 39.6399 79.6701 41.1999C78.5801 41.7899 77.3601 42.1099 76.1401 41.3199C74.3701 40.1699 73.6601 38.4899 73.5901 36.4899C73.5401 35.1599 73.9401 34.0799 75.0201 33.1099C76.9201 31.3999 78.7201 29.5899 80.4101 27.6699C81.5301 26.4099 82.5201 24.9899 83.3001 23.4999C83.8301 22.4999 84.0301 21.2599 83.0801 20.1999C82.2101 19.2299 81.0401 18.9499 79.9401 19.3099C79.0701 19.5899 78.2301 20.2999 77.6401 21.0299C76.4601 22.4499 75.3901 23.9499 74.4201 25.5199C73.0701 27.7199 72.0201 30.0499 71.6501 32.6399C71.5901 33.0899 71.3101 33.5899 70.9801 33.9299C69.0001 35.9599 66.9801 37.9599 64.9601 39.9599C64.0801 40.8299 63.2001 41.6899 62.2901 42.5199C61.7101 43.0499 61.3601 42.9299 61.2001 42.1899C60.8101 40.2999 60.7601 38.3899 61.3901 36.5699C62.4101 33.6299 63.5401 30.7199 64.7201 27.8299C66.2301 24.1499 68.3801 19.8999 70.4101 16.3899C70.6201 16.1599 71.0001 15.9699 71.2601 15.8799C72.2501 15.5699 73.2601 15.2999 74.2701 15.0699C78.4601 14.1499 82.6301 13.0799 86.8601 12.3799C91.1701 11.6599 95.5401 11.2999 99.8901 10.8099C100.59 10.7299 101.51 10.4999 101.97 10.8299C103.11 11.6499 104.13 11.1099 105.19 10.9199C105.5 10.8599 105.98 10.5599 105.99 10.3499C106 9.92988 105.87 9.28988 105.58 9.11988M81.2301 21.3799C81.1401 25.0299 76.8801 28.2999 74.3201 31.0499C74.3601 29.0299 79.3001 21.3299 81.2301 21.3799Z" fill="white"/>
<path d="M93.73 15.2102H102.52C105.95 15.2102 108.07 16.8602 108.07 21.2302V36.2402C108.07 40.5302 106.17 42.5202 102.56 42.5202H93.74V15.2102H93.73ZM99.8 37.2702H100.66C101.55 37.2702 101.81 36.7602 101.81 35.6202V21.8602C101.81 20.7202 101.59 20.2802 100.73 20.2802H99.8V37.2702ZM117.53 38.5102H114.7L114.29 42.5102H108.97L112.51 15.2002H120.07L123.94 42.5102H117.98L117.53 38.5102ZM115.26 33.1202H116.97L116.11 24.8302L115.25 33.1202H115.26ZM125.12 42.5202H131.26V15.2102H125.12V42.5202ZM139.79 15.2102V36.7202H144.82V42.5202H133.65V15.2102H139.79ZM153.23 32.2002V42.5102H147.12V32.3102L142.65 15.2102H148.79L150.32 24.2002L151.77 15.2102H157.28L153.22 32.2002H153.23Z" fill="white"/>
</g>
<defs>
<clipPath id="clip0_29497_7942">
<rect width="157.29" height="50" fill="white"/>
</clipPath>
</defs>
</svg>
