<?xml version="1.0" encoding="utf-8"?>
<!-- Generator: Adobe Illustrator 28.3.0, SVG Export Plug-In . SVG Version: 6.00 Build 0)  -->
<svg version="1.1" id="Layer_1" xmlns="http://www.w3.org/2000/svg" xmlns:xlink="http://www.w3.org/1999/xlink" x="0px" y="0px"
	 viewBox="0 0 60 60" style="enable-background:new 0 0 60 60;" xml:space="preserve">
<style type="text/css">
	.st0{fill:#FFFFFF;}
</style>
<g>
	<path class="st0" d="M28.3,60.1L27,58.8l2.5-2.5L27,53.9l1.3-1.3l3.7,3.7L28.3,60.1z"/>
	<path class="st0" d="M30.8,57.2H30c-10.7,0-18.8-3.7-18.8-8.7c0-2,1-4.8,6-6.6l0.6,1.7c-3.2,1.2-4.9,2.9-4.9,5
		c0,3.3,6.5,6.9,17,6.9h0.8V57.2L30.8,57.2z"/>
	<path class="st0" d="M34.5,57l-0.2-1.8c7.4-0.8,12.6-3.5,12.6-6.7c0-1.9-1.3-3.4-3.9-4.6l0.7-1.6c4.1,1.9,4.9,4.4,4.9,6.2
		C48.8,52.8,43.2,56.1,34.5,57z"/>
	<path class="st0" d="M30.4,48.7c-7,0-10.3-1.9-10.4-2l-0.5-0.3l0.1-0.6c0-0.1,0.9-5.4,0.9-10.2c0-2.2,0-5.6,0-9.5
		c0-5,0-10.8,0-15.4c0-8.7,7.2-10.7,9.9-10.7c2.8,0,9.9,1.9,9.9,10.6c0,4.7,0,10.4,0,15.4c0,3.9,0,7.3,0,9.5
		c0,4.8,0.9,10.2,0.9,10.2l0.1,0.5L41,46.6C40.8,46.7,38,48.7,30.4,48.7L30.4,48.7z M21.4,45.4c1.1,0.5,4,1.5,8.9,1.5
		c5.3,0,8.1-1,9.1-1.5c-0.3-1.6-0.9-5.9-0.9-9.9c0-2.2,0-5.6,0-9.5c0-5,0-10.8,0-15.4c0-8.8-8-8.9-8.1-8.9c-0.1,0-8.1,0.1-8.1,8.9
		c0,4.7,0,10.4,0,15.4c0,3.9,0,7.3,0,9.5C22.3,39.5,21.7,43.8,21.4,45.4L21.4,45.4z"/>
	<path class="st0" d="M29.5,47.3c-0.4-6.2-0.3-11.1,1.2-16.5l0.4-1.4c1.8-6.5,2.9-10.8,2.8-17.5c-0.1-5.4-2.4-9.7-3-10.1L32,0.2
		c1.2,1,3.6,5.9,3.7,11.5c0.1,7-1.1,11.4-2.9,18l-0.4,1.4c-1.2,4.5-1.5,8.9-1.1,15.9L29.5,47.3L29.5,47.3z"/>
	<path class="st0" d="M34.4,46.9c-0.4-7-0.1-11.3,1.2-16.1c0.5-1.9,1-3.4,1.3-4.6c1.1-3.7,1.7-5.5,1.6-10.9l1.8,0
		c0.1,5.6-0.5,7.7-1.7,11.4c-0.4,1.3-0.8,2.7-1.3,4.6c-1.3,4.7-1.6,8.7-1.2,15.6L34.4,46.9L34.4,46.9z"/>
	<path class="st0" d="M24.5,47c-0.4-6.4,0.1-12.1,1.6-17.4c0.2-0.8,0.4-1.6,0.6-2.3c1.6-5.9,2.5-9.1,2.4-15.6
		c-0.1-5.3-2-9.1-2.6-9.6l1.1-1.4c1.3,1,3.2,5.5,3.3,10.9c0.1,6.7-0.9,10.2-2.5,16.1c-0.2,0.7-0.4,1.5-0.6,2.3
		c-1.4,5.2-1.9,10.6-1.5,16.8L24.5,47L24.5,47z"/>
	<path class="st0" d="M20.4,37.5c0-4.7,1.1-9,2.2-13.2c1.2-4.6,2.3-8.9,2.1-13.7c-0.1-2.4-1-4.6-1.7-6.1l1.6-0.8
		c0.8,1.6,1.7,4.1,1.8,6.8c0.2,5-1,9.7-2.1,14.2c-1.1,4.1-2.1,8.3-2.1,12.7L20.4,37.5L20.4,37.5z"/>
</g>
</svg>
