<?xml version="1.0" encoding="utf-8"?>
<!-- Generator: Adobe Illustrator 28.3.0, SVG Export Plug-In . SVG Version: 6.00 Build 0)  -->
<svg version="1.1" id="Layer_1" xmlns="http://www.w3.org/2000/svg" xmlns:xlink="http://www.w3.org/1999/xlink" x="0px" y="0px"
	 viewBox="0 0 60 60" style="enable-background:new 0 0 60 60;" xml:space="preserve">
<style type="text/css">
	.st0{fill:#FFFFFF;}
</style>
<g>
	<path class="st0" d="M25.4,6.2c-8.8,0-13.3,1-13.3,3v45.7c0,3.2,6.9,4.7,13.3,4.7c6.4,0,13.3-1.5,13.3-4.7V9.3
		C38.7,7.3,34.2,6.2,25.4,6.2z M36.8,54.9c0,1-4.3,2.8-11.4,2.8c-7.1,0-11.4-1.8-11.4-2.8V13.6c2.8,1,7.9,1.1,11.4,1.1
		c3.5,0,8.6-0.2,11.4-1.1V54.9z M36.8,11.6c-0.9,0.5-4.8,1.2-11.4,1.2c-6.6,0-10.5-0.7-11.4-1.2V9.5c0.6-0.4,3.5-1.3,11.4-1.3
		c7.9,0,10.8,0.9,11.4,1.3V11.6z"/>
	<path class="st0" d="M17.8,17.8c-0.4,0.4-0.6,0.9-0.6,1.4v29.1c0,1.1,0.8,2.4,2.4,2.6l5.8,0.8h0.1c2,0,3.3-1.3,3.3-2.6V20.6
		c0-1.4-1.4-2.7-3.1-2.8l-5.9-0.6C19.1,17.1,18.3,17.3,17.8,17.8z M25.6,49.9l-5.7-0.8c-0.5-0.1-0.8-0.5-0.8-0.7V19.3
		c0,0,0.2-0.2,0.5-0.2c0,0,0.1,0,0.1,0l1.9,0.2c0,0.6,0,1.3,0,1.9c0,2.9,0,6-0.1,9.1c-0.1,1-0.2,2-0.3,3c-0.4,2.9-0.8,6,0.5,8.8
		c0.8,1.7,1.8,2.9,3.2,3.6c0.9,0.5,1.6,0.7,2.2,0.8v2.6C26.9,49.3,26.5,49.8,25.6,49.9L25.6,49.9z M26.9,20.6v24
		c-0.3-0.1-0.7-0.2-1.3-0.5c-1-0.5-1.7-1.4-2.3-2.7c-1.1-2.3-0.7-5.1-0.3-7.8c0.1-1,0.3-2.1,0.4-3.2c0.2-3.2,0.2-6.3,0.1-9.2
		c0-0.5,0-1.1,0-1.7l2.1,0.2C26.4,19.7,26.9,20.3,26.9,20.6L26.9,20.6z"/>
	<path class="st0" d="M18.1,9.9c-0.1,0.3,0.1,0.7,0.5,0.8c0.2,0,3.3,0.8,7.1,0.8c1.9,0,4-0.2,6-0.7c0.3-0.1,0.5-0.4,0.4-0.8
		c-0.1-0.3-0.4-0.5-0.8-0.4C25.6,11,18.9,9.5,18.9,9.5C18.5,9.4,18.2,9.6,18.1,9.9L18.1,9.9z"/>
	<path class="st0" d="M44.2,0.3h-1.9v3.6h-3.6v1.9h3.6v3.6h1.9V5.8h3.6V3.9h-3.6V0.3z"/>
</g>
</svg>
