<?xml version="1.0" encoding="utf-8"?>
<!-- Generator: Adobe Illustrator 28.3.0, SVG Export Plug-In . SVG Version: 6.00 Build 0)  -->
<svg version="1.1" id="Layer_1" xmlns="http://www.w3.org/2000/svg" xmlns:xlink="http://www.w3.org/1999/xlink" x="0px" y="0px"
	 viewBox="0 0 60 60" style="enable-background:new 0 0 60 60;" xml:space="preserve">
<style type="text/css">
	.st0{fill:#FFFFFF;}
</style>
<g>
	<path class="st0" d="M35,59.2H13.1c-1.6,0-2.9-1.4-2.9-3.1V16c0-1.7,1.3-3.1,2.9-3.1H35c1.6,0,2.9,1.4,2.9,3.1v40.2
		C37.8,57.9,36.5,59.2,35,59.2L35,59.2z M13.1,15.2c-0.2,0-0.5,0.3-0.5,0.7v40.2c0,0.4,0.3,0.7,0.5,0.7H35c0.2,0,0.5-0.3,0.5-0.7V16
		c0-0.4-0.3-0.7-0.5-0.7H13.1z"/>
	<path class="st0" d="M36.6,49.2H11.4v2.3h25.3V49.2z"/>
	<path class="st0" d="M36.6,18.6H11.4V21h25.3V18.6z"/>
	<path class="st0" d="M26.2,15.8h-5.1v2.3h5.1V15.8z"/>
	<path class="st0" d="M42.1,15.3c-0.2-4-3.6-7.1-7.6-6.9l-0.1-2.3c5.3-0.3,9.8,3.8,10.1,9.2L42.1,15.3L42.1,15.3z"/>
	<path class="st0" d="M47.5,13.8c-0.3-6.2-5.6-11-11.7-10.6l-0.1-2.3C43,0.4,49.4,6.2,49.8,13.7L47.5,13.8L47.5,13.8z"/>
</g>
</svg>
