<?xml version="1.0" encoding="utf-8"?>
<!-- Generator: Adobe Illustrator 28.3.0, SVG Export Plug-In . SVG Version: 6.00 Build 0)  -->
<svg version="1.1" id="Layer_1" xmlns="http://www.w3.org/2000/svg" xmlns:xlink="http://www.w3.org/1999/xlink" x="0px" y="0px"
	 viewBox="0 0 60 60" style="enable-background:new 0 0 60 60;" xml:space="preserve">
<style type="text/css">
	.st0{fill:#FFFFFF;}
</style>
<g>
	<path class="st0" d="M42.2,25.8c-0.4-7.9-7.2-13.9-15-13.6l-0.1-2.5c9.2-0.5,17.1,6.7,17.6,15.9L42.2,25.8L42.2,25.8z"/>
	<path class="st0" d="M52,22.9c-0.3-5.7-2.8-11-7-14.9c-4.2-3.9-9.8-5.8-15.5-5.5L29.4,0c6.4-0.3,12.5,1.9,17.3,6.2
		c4.7,4.3,7.5,10.2,7.8,16.6L52,22.9L52,22.9z"/>
	<path class="st0" d="M21,41.3c-3.9,0-7-3.2-7-7s3.2-7,7-7s7,3.2,7,7S24.9,41.3,21,41.3z M21,29.7c-2.5,0-4.5,2-4.5,4.5
		c0,2.5,2,4.5,4.5,4.5s4.5-2,4.5-4.5C25.6,31.8,23.5,29.7,21,29.7z"/>
	<path class="st0" d="M21,60c-8.6,0-15.5-7-15.5-15.5v-10c0-8.6,7-15.5,15.5-15.5c8.6,0,15.5,7,15.5,15.5v10C36.6,53,29.6,60,21,60z
		 M21,21.4c-7.2,0-13,5.8-13,13v10c0,7.2,5.8,13,13,13s13-5.8,13-13v-10C34.1,27.3,28.2,21.4,21,21.4z"/>
</g>
</svg>
