<?xml version="1.0" encoding="utf-8"?>
<!-- Generator: Adobe Illustrator 26.0.3, SVG Export Plug-In . SVG Version: 6.00 Build 0)  -->
<svg version="1.0" id="Layer_1" xmlns="http://www.w3.org/2000/svg" xmlns:xlink="http://www.w3.org/1999/xlink" x="0px" y="0px"
	 viewBox="0 0 80 80" enable-background="new 0 0 80 80" xml:space="preserve">
<g>
	<path fill="#FFFFFF" d="M66.3,25.9c-7.4,3.7-12.1,4.4-15.9,4.9c-5.5,0.8-9,1.3-14.4,9.7c-0.2-0.5-0.4-1-0.6-1.5l-0.6-1l-0.9,0.7
		C26.8,44,21.9,51,19.6,58.8l1.9,0.6c2.1-7,6.4-13.3,12.5-18.3c0.5,1.6,0.5,3.5,0.5,4.2h2c0-0.4,0-1.1-0.1-1.9
		c5.7-9.3,8.7-9.7,14.2-10.5c3.7-0.5,8.2-1.2,15-4.4c-0.1,6.3-0.9,11.8-5.8,17.6c-1.7-0.1-3.7,0.2-5,0.6l0.6,1.9
		c1.4-0.5,3.4-0.7,4.8-0.5l0.3,0.2c0.1-0.1,0.1-0.1,0.2-0.2c0.1,0,0.1,0,0.2,0c-1.3,2.2-7.5,8.4-16.6,12c-0.8-0.5-1.6-0.9-2.5-1.3
		L41,60.7c1.1,0.5,2.1,1,3,1.6l0,0c0,0,0,0,0,0c0.1,0,0.1,0.1,0.2,0.1c-3.9,2-11.1,3.7-18.7,1.5l-0.6,1.9c2.8,0.8,5.5,1.2,8.1,1.2
		c6.3,0,11.3-2.1,13.6-3.6l1.1-0.7l-1-0.9c-0.1-0.1-0.3-0.2-0.4-0.3c9.7-4.2,16.9-11.5,16.9-13.9l0-0.5l-0.5-0.3
		c-0.2-0.1-0.4-0.2-0.6-0.3c5.2-6.4,5.6-12.7,5.6-19.6v-1.6L66.3,25.9z"/>
	<path fill="#FFFFFF" d="M51,39.9C43.8,47.1,26.5,61.6,12.3,65l0.5,1.9c14.6-3.5,32.4-18.3,39.7-25.6L51,39.9z"/>
	<path fill="#FFFFFF" d="M63.8,54c1.5,1.9,1.3,4.6-0.6,6.2c-0.9,0.7-2,1.1-3.2,1c-1.2-0.1-2.2-0.7-2.9-1.6l-1.5,1.3
		c1.1,1.3,2.6,2.1,4.3,2.3c0.2,0,0.4,0,0.6,0c1.5,0,2.9-0.5,4-1.5c2.7-2.2,3.1-6.3,0.8-9L63.8,54z"/>
	<path fill="#FFFFFF" d="M36.9,33.3c-1-1.6-0.5-3.9,1.1-4.9c0.8-0.5,1.7-0.7,2.7-0.5c0.9,0.2,1.7,0.7,2.2,1.5l1.7-1.1
		c-0.8-1.2-2-2.1-3.4-2.4c-1.4-0.3-2.9,0-4.2,0.8c-2.5,1.7-3.3,5.1-1.7,7.7L36.9,33.3z"/>
	<path fill="#FFFFFF" d="M54.6,22.3c2.5,0,4.6-2.1,4.6-4.6S57.1,13,54.6,13S50,15.1,50,17.6S52,22.3,54.6,22.3z M54.6,15
		c1.4,0,2.6,1.2,2.6,2.6s-1.2,2.6-2.6,2.6S52,19.1,52,17.6S53.2,15,54.6,15z"/>
</g>
</svg>
