<?xml version="1.0" encoding="utf-8"?>
<!-- Generator: Adobe Illustrator 26.0.2, SVG Export Plug-In . SVG Version: 6.00 Build 0)  -->
<svg version="1.0" id="Layer_1" xmlns="http://www.w3.org/2000/svg" xmlns:xlink="http://www.w3.org/1999/xlink" x="0px" y="0px"
	 viewBox="0 0 80 80" enable-background="new 0 0 80 80" xml:space="preserve">
<g>
	<path fill="#FFFFFF" d="M30,55H16.2c-0.7,0-1.3-0.6-1.3-1.3V30.8c0-0.7,0.6-1.3,1.3-1.3h16.1v-2H16.2c-1.8,0-3.3,1.5-3.3,3.3v22.9
		c0,1.8,1.5,3.3,3.3,3.3H30V55z"/>
	<path fill="#FFFFFF" d="M64.4,34.3h-2.4v-3.6c0-1.8-1.5-3.3-3.3-3.3H43.7v2h14.9c0.7,0,1.3,0.6,1.3,1.3v22.9c0,0.7-0.6,1.3-1.3,1.3
		H41.4v2h17.2c1.8,0,3.3-1.5,3.3-3.3v-3.6h2.4c1.8,0,3.3-1.5,3.3-3.3v-9.2C67.7,35.8,66.2,34.3,64.4,34.3z M65.7,46.8
		c0,0.7-0.6,1.3-1.3,1.3h-2.4V36.3h2.4c0.7,0,1.3,0.6,1.3,1.3V46.8z"/>
	<path fill="#FFFFFF" d="M40,36.7l3.9-21.6l-22,33.1l11.9-1.7l-3.9,21.6l22-33.1L40,36.7z M36.2,44.2L26,45.6l14.2-21.3l-2.7,14.8
		l10.2-1.5L33.5,59L36.2,44.2z"/>
</g>
</svg>
