<?xml version="1.0" encoding="UTF-8"?>
<svg id="Layer_1" xmlns="http://www.w3.org/2000/svg" xmlns:xlink="http://www.w3.org/1999/xlink" version="1.1" viewBox="0 0 80 80">
  <!-- Generator: Adobe Illustrator 29.2.1, SVG Export Plug-In . SVG Version: 2.1.0 Build 116)  -->
  <defs>
    <style>
      .st0 {
        fill: none;
      }

      .st1 {
        clip-path: url(#clippath-1);
      }

      .st2 {
        fill: #fff;
      }

      .st3 {
        clip-path: url(#clippath);
      }
    </style>
    <clipPath id="clippath">
      <rect class="st0" width="80" height="80"/>
    </clipPath>
    <clipPath id="clippath-1">
      <rect class="st0" x="10" y="10" width="60" height="60"/>
    </clipPath>
  </defs>
  <g class="st3">
    <g class="st1">
      <g>
        <path class="st2" d="M33.9,51h.8c0,.1,0,.3.2.4.1.1.3.2.4.2s.3,0,.4-.2c.1-.1.2-.3.2-.5s0-.4-.2-.5c-.1-.1-.3-.2-.4-.2s-.2,0-.4,0v-.7c.3,0,.5,0,.6-.1.1-.1.2-.2.2-.4s0-.3-.1-.4c0,0-.2-.1-.4-.1s-.3,0-.4.1c-.1.1-.2.2-.2.4h-.8c0-.4.1-.6.2-.8.1-.2.3-.3.5-.4.2,0,.4-.1.7-.1.4,0,.7.1,1,.4.2.2.3.5.3.7,0,.4-.2.7-.6.9.3,0,.5.2.6.4.2.2.2.4.2.7,0,.4-.1.7-.4,1-.3.3-.6.4-1.1.4s-.7-.1-1-.3c-.3-.2-.4-.5-.5-.9h0Z"/>
        <path class="st2" d="M37.4,51h.8c0,.1,0,.3.2.4.1.1.3.2.4.2s.3,0,.4-.2c.1-.1.2-.4.2-.6s0-.5-.2-.6c-.1-.1-.3-.2-.5-.2s-.5.1-.6.3h-.7c0,0,.4-2.4.4-2.4h2.2v.8h-1.6v.7c0,0,.2-.1.4-.1.4,0,.7.1,1,.4.3.3.4.6.4,1.1s-.1.7-.3,1c-.3.4-.7.6-1.2.6s-.7-.1-1-.3c-.3-.2-.4-.5-.5-.9h0Z"/>
        <path class="st2" d="M40.9,51h.8c0,.1,0,.3.2.4.1.1.3.2.4.2s.3,0,.4-.2c.1-.1.2-.3.2-.5s0-.4-.2-.5c-.1-.1-.3-.2-.4-.2s-.2,0-.4,0v-.7c.3,0,.5,0,.6-.1.1-.1.2-.2.2-.4s0-.3-.1-.4c0,0-.2-.1-.4-.1s-.3,0-.4.1c-.1.1-.2.2-.2.4h-.8c0-.4.1-.6.2-.8.1-.2.3-.3.5-.4.2,0,.4-.1.7-.1.4,0,.7.1,1,.4.2.2.3.5.3.7,0,.4-.2.7-.6.9.3,0,.5.2.6.4.2.2.2.4.2.7,0,.4-.1.7-.4,1-.3.3-.6.4-1.1.4s-.7-.1-1-.3c-.3-.2-.4-.5-.5-.9h0Z"/>
        <path class="st2" d="M44.4,51h.8c0,.1,0,.3.2.4.1.1.3.2.4.2s.3,0,.4-.2c.1-.1.2-.3.2-.5s0-.4-.2-.5c-.1-.1-.3-.2-.4-.2s-.2,0-.4,0v-.7c.3,0,.5,0,.6-.1.1-.1.2-.2.2-.4s0-.3-.1-.4c0,0-.2-.1-.4-.1s-.3,0-.4.1c-.1.1-.2.2-.2.4h-.8c0-.4.1-.6.2-.8.1-.2.3-.3.5-.4.2,0,.4-.1.7-.1.4,0,.7.1,1,.4.2.2.3.5.3.7,0,.4-.2.7-.6.9.3,0,.5.2.6.4.2.2.2.4.2.7,0,.4-.1.7-.4,1-.3.3-.6.4-1.1.4s-.7-.1-1-.3c-.3-.2-.4-.5-.5-.9h0Z"/>
        <path class="st2" d="M53,37.1c-.2-.6-.7-1.2-1.4-1.6-1.8-1.1-4.4-1.2-6.2-.2-1,.5-1.6,1.5-1.8,2.5-.4,1.7-.3,3.7,1,4.9,1.5,1.3,3.7,1.6,5.7,1.1,0,0,.4,0,.6-.2h0c.6-.3,1.2-.7,1.6-1.2,1-1.5,1.1-3.6.5-5.3ZM49.8,40.9c0,.3-.3.7-.6.8-.5.2-1.3.2-1.8-.1-.4-.3-.5-.8-.5-1.2,0-.9-.1-1.9.1-2.7.2-.5.8-.7,1.3-.7.5,0,1,0,1.4.5.2.3.2.7.2,1.1,0,.8,0,1.7,0,2.4h0Z"/>
        <path class="st2" d="M33.8,41.7c-.4,0-.9,0-1.4,0v-4.7s0,0,0,0h1.3c0-.8,0-1.6,0-2.3h-5.1s-.8,0-.8,0c0,.7,0,1.5,0,2.2.5,0,.9,0,1.3,0v4.7s-1.3,0-1.3,0c0,.7,0,1.5,0,2.2h6v-2.2Z"/>
        <path class="st2" d="M40.1,41.8c-1.3.3-2.6,0-3.6-.9-.1-.1-.2-.3-.3-.4h-1.8c0,1.1,0,2.3,0,3.4h2s0-.7,0-.7c.2.1.5.2.7.4,1.4.6,3.2.7,4.6,0,1-.6,1.6-1.6,1.4-2.8-.1-1.1-1.2-2.1-2.3-2.4l-3.3-.9h-.2c-.1-.2-.2-.3-.1-.5.3-.4.9-.3,1.3-.3.9.1,1.9.5,2.5,1.3.6,0,1.3,0,1.9,0,0-1.1,0-2,0-3.1-.6,0-1.4,0-2,0,0,.2,0,.4,0,.5l-.6-.3c-1.5-.6-3.6-.7-4.9.3-.9.6-1.1,1.8-.9,2.8.2,1,1.1,1.7,2,2,1.2.4,2.5.7,3.7,1.1.1,0,.3.2.3.3,0,.1-.1.2-.2.2h0Z"/>
        <path class="st2" d="M46.4,30l-.4-1.2-.4,1.2h-1.3l1,.8-.4,1.2,1-.7,1,.7-.4-1.2,1-.8h-1.3Z"/>
        <path class="st2" d="M40,12.5c-15.2,0-27.5,12.3-27.5,27.5s12.3,27.5,27.5,27.5,27.5-12.3,27.5-27.5-12.3-27.5-27.5-27.5ZM20.1,48.9c-.1.2-.3.2-.5.2-.2,0-.4-.2-.4-.3-1.1-2.7-1.8-5.7-1.8-8.8s.6-6.1,1.8-8.8c0-.2.3-.3.5-.3.2,0,.4,0,.5.2.1.2.1.4,0,.5-1.1,2.6-1.7,5.4-1.7,8.4s.6,5.8,1.7,8.4c0,.2,0,.4,0,.6h0ZM53.3,19.7l.8.6-.2,2.1c0,.4,0,.8-.1,1.2.2-.4.5-.7.9-1.2l.8-1.1.8.6-2.6,3.4-.8-.6.2-1.9c0-.5.1-1,.2-1.5-.3.4-.6.9-1,1.3l-.8,1-.8-.6,2.6-3.4h0ZM50.6,18.2l-.4,4.6-.9-.4v-.8c0,0-1.6-.8-1.6-.8l-.5.6-.9-.4,3.2-3.3,1.2.5ZM45.7,16.5l1,.3-1.1,4.2-1-.3,1.1-4.2ZM41.4,15.8h1c0,.1-.4,3.6-.4,3.6l1.9.2v.8c0,0-3-.3-3-.3l.5-4.3ZM38.4,15.9c.9,0,1.5.4,1.5,1.3,0,.8-.4,1.4-1.3,1.5h-1.2c0,.1.1,1.6.1,1.6h-1c0,0-.4-4.2-.4-4.2l2.2-.2h0ZM31.2,17.4l1,1.4c.3.4.6.8.8,1.1,0-.4,0-.9,0-1.4v-1.8c0,0,1.4-.5,1.4-.5l1.4,4.1-.9.3-.7-2.1c-.1-.4-.3-.8-.4-1.2,0,.4,0,.8,0,1.4v2.3c0,0-.7.3-.7.3l-1.4-1.9c-.3-.4-.6-.8-.8-1.1.2.4.3.8.4,1.2l.7,2.1-.9.3-1.4-4.1,1.5-.5h0ZM26.3,19.9c1.1-.8,2.3-.4,3.1.7.7,1.1.6,2.3-.5,3.1-1.1.8-2.4.4-3.1-.6-.7-1.1-.6-2.3.5-3.1ZM22.5,23.2c.5-.5.9-.7,1.6-.8v.9c-.5,0-.7.2-1,.5-.5.5-.4,1.2.2,1.8.6.6,1.4.6,1.8,0,.3-.3.4-.6.4-1.2h.9c0,.8-.2,1.3-.6,1.8-.9,1-2.2.9-3.2,0-.9-.9-1.1-2.1-.1-3.1h0ZM23.4,54.1c-.7.6-.7,1.3-.3,1.8.3.3.6.4,1.2.5v.9c-.8,0-1.4-.3-1.8-.8-.9-1-.7-2.3.3-3.2.9-.8,2.2-.9,3.2.2.5.5.6,1,.6,1.7h-.9c0-.6-.1-.8-.4-1.1-.5-.6-1.2-.6-1.8,0h0ZM26.2,59.9c-1.1-.8-1.2-2.1-.4-3.1.8-1,2-1.3,3.1-.5,1.1.8,1.2,2.1.4,3.1-.8,1-2,1.3-3.1.5h0ZM34,63.6l-.9-.3.8-2.1c.2-.4.3-.8.5-1.2-.2.3-.5.7-.8,1.1l-1.4,1.8-.8-.3v-2.3c.2-.5.2-.9.2-1.4-.1.4-.3.8-.4,1.2l-.8,2.1-.9-.3,1.5-4,1.5.5v1.8c-.1.5-.2.9-.2,1.4.2-.4.5-.7.8-1.1l1.1-1.4,1.4.5-1.5,4h0ZM39.8,61.4c0,.8-.7,1.3-1.6,1.2h-1.2c0-.1-.2,1.4-.2,1.4h-1c0-.1.5-4.4.5-4.4l2.2.2c.9,0,1.4.7,1.3,1.5h0ZM22.4,40c0-9.7,7.9-17.6,17.6-17.6s17.6,7.9,17.6,17.6-7.9,17.6-17.6,17.6-17.6-7.9-17.6-17.6ZM41,64.3l-.4-4.3h1c0-.1.4,3.3.4,3.3l2-.2v.8c0,0-2.9.3-2.9.3h0ZM45.3,63.6l-1.1-4.2,1-.3,1.1,4.2-1,.3ZM50.6,61.7l-.5-.6-1.7.8v.8c0,0-.8.4-.8.4l-.4-4.6,1.2-.5,3.2,3.3-.9.4h0ZM54.8,58.8l-1.8-.7c-.5-.2-1-.4-1.4-.5.3.4.7.8,1.1,1.3l.8,1-.8.6-2.7-3.4.8-.7,2,.7c.4.1.8.3,1.2.4-.3-.3-.6-.7-.9-1.2l-.9-1.1.8-.6,2.7,3.4-.8.6h0ZM57.5,56.1l-2.7-2.2-.8,1-.7-.5,2.2-2.8.7.5-.8,1,2.7,2.2-.6.8ZM59,26.3l-.8-1-2.7,2.2-.6-.8,2.7-2.2-.8-1,.6-.5,2.3,2.7-.6.5h0ZM60.4,49.1c-.2,0-.4,0-.5-.2-.1-.2-.1-.4,0-.6,1.1-2.6,1.7-5.4,1.7-8.4s-.6-5.8-1.7-8.4c0-.2,0-.4,0-.5.1-.2.3-.3.5-.3.2,0,.4.1.5.3,1.1,2.7,1.8,5.7,1.8,8.8s-.6,6.1-1.8,8.8c0,.2-.2.3-.4.3h0Z"/>
        <path class="st2" d="M40,12.5c-15.2,0-27.5,12.3-27.5,27.5s12.3,27.5,27.5,27.5,27.5-12.3,27.5-27.5-12.3-27.5-27.5-27.5ZM20.1,48.9c-.1.2-.3.2-.5.2-.2,0-.4-.2-.4-.3-1.1-2.7-1.8-5.7-1.8-8.8s.6-6.1,1.8-8.8c0-.2.3-.3.5-.3.2,0,.4,0,.5.2.1.2.1.4,0,.5-1.1,2.6-1.7,5.4-1.7,8.4s.6,5.8,1.7,8.4c0,.2,0,.4,0,.6h0ZM53.3,19.7l.8.6-.2,2.1c0,.4,0,.8-.1,1.2.2-.4.5-.7.9-1.2l.8-1.1.8.6-2.6,3.4-.8-.6.2-1.9c0-.5.1-1,.2-1.5-.3.4-.6.9-1,1.3l-.8,1-.8-.6,2.6-3.4h0ZM50.6,18.2l-.4,4.6-.9-.4v-.8c0,0-1.6-.8-1.6-.8l-.5.6-.9-.4,3.2-3.3,1.2.5ZM45.7,16.5l1,.3-1.1,4.2-1-.3,1.1-4.2ZM41.4,15.8h1c0,.1-.4,3.6-.4,3.6l1.9.2v.8c0,0-3-.3-3-.3l.5-4.3ZM38.4,15.9c.9,0,1.5.4,1.5,1.3,0,.8-.4,1.4-1.3,1.5h-1.2c0,.1.1,1.6.1,1.6h-1c0,0-.4-4.2-.4-4.2l2.2-.2h0ZM31.2,17.4l1,1.4c.3.4.6.8.8,1.1,0-.4,0-.9,0-1.4v-1.8c0,0,1.4-.5,1.4-.5l1.4,4.1-.9.3-.7-2.1c-.1-.4-.3-.8-.4-1.2,0,.4,0,.8,0,1.4v2.3c0,0-.7.3-.7.3l-1.4-1.9c-.3-.4-.6-.8-.8-1.1.2.4.3.8.4,1.2l.7,2.1-.9.3-1.4-4.1,1.5-.5h0ZM26.3,19.9c1.1-.8,2.3-.4,3.1.7.7,1.1.6,2.3-.5,3.1-1.1.8-2.4.4-3.1-.6-.7-1.1-.6-2.3.5-3.1ZM22.5,23.2c.5-.5.9-.7,1.6-.8v.9c-.5,0-.7.2-1,.5-.5.5-.4,1.2.2,1.8.6.6,1.4.6,1.8,0,.3-.3.4-.6.4-1.2h.9c0,.8-.2,1.3-.6,1.8-.9,1-2.2.9-3.2,0-.9-.9-1.1-2.1-.1-3.1h0ZM23.4,54.1c-.7.6-.7,1.3-.3,1.8.3.3.6.4,1.2.5v.9c-.8,0-1.4-.3-1.8-.8-.9-1-.7-2.3.3-3.2.9-.8,2.2-.9,3.2.2.5.5.6,1,.6,1.7h-.9c0-.6-.1-.8-.4-1.1-.5-.6-1.2-.6-1.8,0h0ZM26.2,59.9c-1.1-.8-1.2-2.1-.4-3.1.8-1,2-1.3,3.1-.5,1.1.8,1.2,2.1.4,3.1-.8,1-2,1.3-3.1.5h0ZM34,63.6l-.9-.3.8-2.1c.2-.4.3-.8.5-1.2-.2.3-.5.7-.8,1.1l-1.4,1.8-.8-.3v-2.3c.2-.5.2-.9.2-1.4-.1.4-.3.8-.4,1.2l-.8,2.1-.9-.3,1.5-4,1.5.5v1.8c-.1.5-.2.9-.2,1.4.2-.4.5-.7.8-1.1l1.1-1.4,1.4.5-1.5,4h0ZM39.8,61.4c0,.8-.7,1.3-1.6,1.2h-1.2c0-.1-.2,1.4-.2,1.4h-1c0-.1.5-4.4.5-4.4l2.2.2c.9,0,1.4.7,1.3,1.5h0ZM22.4,40c0-9.7,7.9-17.6,17.6-17.6s17.6,7.9,17.6,17.6-7.9,17.6-17.6,17.6-17.6-7.9-17.6-17.6ZM41,64.3l-.4-4.3h1c0-.1.4,3.3.4,3.3l2-.2v.8c0,0-2.9.3-2.9.3h0ZM45.3,63.6l-1.1-4.2,1-.3,1.1,4.2-1,.3ZM50.6,61.7l-.5-.6-1.7.8v.8c0,0-.8.4-.8.4l-.4-4.6,1.2-.5,3.2,3.3-.9.4h0ZM54.8,58.8l-1.8-.7c-.5-.2-1-.4-1.4-.5.3.4.7.8,1.1,1.3l.8,1-.8.6-2.7-3.4.8-.7,2,.7c.4.1.8.3,1.2.4-.3-.3-.6-.7-.9-1.2l-.9-1.1.8-.6,2.7,3.4-.8.6h0ZM57.5,56.1l-2.7-2.2-.8,1-.7-.5,2.2-2.8.7.5-.8,1,2.7,2.2-.6.8ZM59,26.3l-.8-1-2.7,2.2-.6-.8,2.7-2.2-.8-1,.6-.5,2.3,2.7-.6.5h0ZM60.4,49.1c-.2,0-.4,0-.5-.2-.1-.2-.1-.4,0-.6,1.1-2.6,1.7-5.4,1.7-8.4s-.6-5.8-1.7-8.4c0-.2,0-.4,0-.5.1-.2.3-.3.5-.3.2,0,.4.1.5.3,1.1,2.7,1.8,5.7,1.8,8.8s-.6,6.1-1.8,8.8c0,.2-.2.3-.4.3h0Z"/>
        <path class="st2" d="M40,23.2c-9.3,0-16.8,7.5-16.8,16.8s7.5,16.8,16.8,16.8,16.8-7.5,16.8-16.8-7.5-16.8-16.8-16.8ZM40,55.7c-8.7,0-15.7-7-15.7-15.7s7-15.7,15.7-15.7,15.7,7,15.7,15.7-7,15.7-15.7,15.7Z"/>
        <path class="st2" d="M38.2,60.7h-1c0-.1-.1,1-.1,1h1c.4.1.7,0,.7-.4,0-.4-.2-.6-.6-.6h0Z"/>
        <path class="st2" d="M34.4,30l-.4-1.2-.4,1.2h-1.3l1,.8-.4,1.2,1-.7,1,.7-.4-1.2,1-.8h-1.3Z"/>
        <path class="st2" d="M40.5,28.8l-.5-1.5-.5,1.5h-1.6l1.3,1-.5,1.4,1.2-.9,1.2.9-.5-1.4,1.3-1h-1.6Z"/>
        <path class="st2" d="M40,10c-16.6,0-30,13.4-30,30s13.4,30,30,30,30-13.4,30-30-13.4-30-30-30ZM40,68.7c-15.8,0-28.7-12.8-28.7-28.7s12.8-28.7,28.7-28.7,28.7,12.8,28.7,28.7-12.8,28.7-28.7,28.7Z"/>
        <path class="st2" d="M49.5,20.2c0-.5.1-1.1.2-1.6-.3.4-.7.8-1.1,1.2l-.3.4,1.2.5v-.5c0,0,0,0,0,0Z"/>
        <path class="st2" d="M28.4,56.9c-.6-.4-1.3-.3-1.8.4-.5.7-.4,1.4.1,1.8.6.4,1.3.3,1.8-.4.5-.7.5-1.4-.1-1.8h0Z"/>
        <path class="st2" d="M38.4,17.8c.4,0,.6-.3.6-.6,0-.4-.3-.6-.7-.5h-1c0,0,0,1.2,0,1.2h1c0,0,0,0,0,0Z"/>
        <path class="st2" d="M48.2,60.6v.5c0,0,1.2-.5,1.2-.5l-.4-.4c-.3-.4-.7-.8-1.1-1.2,0,.5.1,1.1.2,1.6h0Z"/>
        <path class="st2" d="M28.4,22.9c.6-.4.7-1.1.2-1.8-.5-.7-1.2-.9-1.7-.5-.6.4-.7,1.1-.2,1.8.5.7,1.2.9,1.7.5h0Z"/>
      </g>
    </g>
  </g>
</svg>