<?xml version="1.0" encoding="UTF-8"?>
<svg id="Layer_1" data-name="Layer 1" xmlns="http://www.w3.org/2000/svg" version="1.1" viewBox="0 0 60 60">
  <defs>
    <style>
      .cls-1 {
        fill: #fff;
        stroke-width: 0px;
      }
    </style>
  </defs>
  <g id="Layer_1-2" data-name="Layer 1-2">
    <g>
      <g>
        <path class="cls-1" d="M40.6,31.3l-2.3-4.6-4.6-2.3,4.6-2.3,2.3-4.6,2.3,4.6,4.6,2.3-4.6,2.3-2.3,4.6ZM38.6,24.4l1.3.7.7,1.3.7-1.3,1.3-.7-1.3-.7-.7-1.3-.7,1.3-1.3.7Z"/>
        <path class="cls-1" d="M29.8,41.3c-6.4,0-11.7-5.2-11.7-11.7s5.2-11.7,11.7-11.7,2.9.3,4.3.8l-.8,2c-1.1-.4-2.3-.7-3.5-.7-5.2,0-9.5,4.2-9.5,9.5s4.2,9.5,9.5,9.5,7.7-2.6,9-6.5l2.1.7c-1.6,4.8-6,8-11.1,8h0Z"/>
        <path class="cls-1" d="M29.8,34.6c-2.7,0-5-2.2-5-5s2.2-5,5-5,5,2.2,5,5-2.2,5-5,5ZM29.8,26.9c-1.5,0-2.8,1.2-2.8,2.8s1.2,2.8,2.8,2.8,2.8-1.2,2.8-2.8-1.2-2.8-2.8-2.8Z"/>
      </g>
      <g>
        <path class="cls-1" d="M48,35.9c0,2.4-.5,4.8-1.8,6.9-2.3,3.7-6.4,5.7-10.5,5.6-.4.8-.8,1.7-1.2,2.5,5.3.5,10.8-1.9,13.8-6.7,1.7-2.8,2.4-5.9,2.2-9-.8.3-1.7.5-2.5.7Z"/>
        <path class="cls-1" d="M57.3,33c.5,4.6-.4,9.5-3.1,13.7-4.8,7.6-13.7,11.2-22.1,9.5-.4.8-.7,1.6-1.1,2.4,9.6,2.1,19.8-1.8,25.3-10.6,3.1-4.9,4.2-10.6,3.4-16-.8.3-1.7.6-2.5.9h.1Z"/>
      </g>
      <g>
        <path class="cls-1" d="M12,24.9c-.3-2.4.1-4.8,1.3-7,2-3.9,5.9-6.1,10-6.3.3-.9.7-1.7,1-2.6-5.4-.1-10.6,2.7-13.3,7.7-1.5,2.9-2,6.1-1.5,9.1.8-.3,1.7-.6,2.5-.9h0Z"/>
        <path class="cls-1" d="M3,28.6c-.9-4.6-.3-9.5,2.1-13.9C9.3,6.7,17.9,2.5,26.4,3.5l.9-2.5C17.6-.4,7.6,4.3,2.8,13.4,0,18.6-.6,24.3.6,29.6c.8-.4,1.6-.7,2.4-1.1h0Z"/>
      </g>
    </g>
  </g>
</svg>