<?xml version="1.0" encoding="UTF-8"?>
<svg id="Layer_1" data-name="Layer 1" xmlns="http://www.w3.org/2000/svg" version="1.1" viewBox="0 0 60 60">
  <defs>
    <style>
      .cls-1 {
        fill: #fff;
        stroke-width: 0px;
      }
    </style>
  </defs>
  <path class="cls-1" d="M44.7,26h-2.5c0,.1,0-.3,0-.3-.2-3.8-1.8-7.3-4.7-9.9-2.9-2.6-6.5-3.9-10.3-3.7h-.4s0-2.5,0-2.5h.4c4.5-.3,8.8,1.3,12.1,4.3,3.3,3,5.3,7.2,5.5,11.6v.4Z"/>
  <path class="cls-1" d="M54.5,22.8v.4h-2.5c0,0,0-.3,0-.3-.3-5.7-2.8-11-7-14.8-4.2-3.9-9.8-5.9-15.5-5.6h-.4s-.1-2.5-.1-2.5h.4c6.4-.3,12.5,1.9,17.2,6.2,4.8,4.3,7.5,10.2,7.8,16.6Z"/>
  <g>
    <path class="cls-1" d="M21,19c-8.5,0-15.5,6.9-15.5,15.5v10c0,8.5,7,15.5,15.5,15.5s15.5-7,15.5-15.5v-10c0-8.6-7-15.5-15.5-15.5ZM34.1,44.5c0,7.2-5.8,13-13,13s-13-5.8-13-13v-10c0-7.2,5.8-13,13-13s13,5.8,13,13v10Z"/>
    <path class="cls-1" d="M21,27.3c-3.9,0-7,3.2-7,7s3.2,7,7,7,7-3.2,7-7-3.2-7-7-7ZM21,38.8c-2.5,0-4.5-2-4.5-4.6s2-4.5,4.5-4.5,4.6,2,4.6,4.5-2,4.6-4.6,4.6Z"/>
  </g>
</svg>