<?xml version="1.0" encoding="UTF-8"?><svg id="a" xmlns="http://www.w3.org/2000/svg" viewBox="0 0 80 80"><defs><style>.b{fill:#fff;}</style></defs><path class="b" d="M39.57,71.44l.26,.07,.26-.07c1.15-.31,25.96-14.23,25.96-24.84V19.06h-1c-7.03,0-22.25-7.16-24.39-10.19l-.82-1.16-.82,1.16c-2.22,3.16-18.17,10.19-24.41,10.19h-1v26.22c0,12.55,24.62,25.81,25.96,26.17ZM15.61,21.01c6.52-.58,20.11-6.28,24.23-10.09,4.01,3.75,17.11,9.56,24.21,10.09v25.58c0,3.59-4.09,8.73-11.53,14.48-5.45,4.22-11.26,7.63-12.69,8.31-3-1.38-24.21-13.52-24.21-24.12V21.01Z"/><path class="b" d="M33.5,52.37c.02,2.48,.42,5.08,1.37,7.83l1.89-.65c-3.29-9.5,.4-17.1,3.65-23.8,.58-1.2,1.14-2.36,1.65-3.5l-1.83-.81c-.5,1.12-1.05,2.26-1.62,3.44-2.12,4.37-4.56,9.44-5.03,15.29-3.95-2.29-5.91-7.62-5.23-10.46,1.24-5.17,4.57-7.59,8.1-10.16,2.31-1.68,4.68-3.41,6.4-5.95,4.81,4.2,6.59,12.04,4.23,19.14-1.59,4.79-6.12,6.44-8.68,7l.43,1.95c2.97-.65,8.25-2.6,10.16-8.32,2.76-8.3,.32-17.58-5.8-22.06l-.91-.67-.55,.99c-1.51,2.72-3.91,4.46-6.44,6.3-3.66,2.67-7.45,5.42-8.87,11.31-.89,3.7,1.52,10.62,7.1,13.13Z"/></svg>