<?xml version="1.0" encoding="utf-8"?>
<!-- Generator: Adobe Illustrator 26.0.3, SVG Export Plug-In . SVG Version: 6.00 Build 0)  -->
<svg version="1.0" id="Layer_1" xmlns="http://www.w3.org/2000/svg" xmlns:xlink="http://www.w3.org/1999/xlink" x="0px" y="0px"
	 viewBox="0 0 80 80" enable-background="new 0 0 80 80" xml:space="preserve">
<g>
	<path fill="#FFFFFF" d="M58.6,23.6c-2.5-3-4.8-5.8-5.5-9.8c-0.1-0.5-0.5-0.8-1-0.8c0,0,0,0,0,0c-0.5,0-0.9,0.4-1,0.8
		c-0.6,3.9-2.9,6.7-5.3,9.6c-0.7,0.9-1.4,1.8-2.1,2.7c-0.3,0.4-0.2,1.1,0.2,1.4c0.4,0.3,1.1,0.2,1.4-0.2c0.7-0.9,1.4-1.8,2.1-2.6
		c1.8-2.2,3.6-4.4,4.8-7.2c1.2,2.8,3.1,5.1,4.9,7.3c2.8,3.4,5.4,6.6,5.4,11.3c0,4.4-2.9,8.7-7,10.3c-0.5,0.2-0.8,0.8-0.6,1.3
		c0.2,0.4,0.5,0.6,0.9,0.6c0.1,0,0.2,0,0.4-0.1c4.8-1.9,8.2-6.9,8.2-12.2C64.5,30.8,61.5,27.1,58.6,23.6z"/>
	<path fill="#FFFFFF" d="M35.3,16.2c-0.1-0.5-0.5-0.8-1-0.8c-0.5,0-0.9,0.3-1,0.8c-1.1,5.8-5,10.2-8.7,14.4
		c-4.5,5.1-9.1,10.3-9.1,18c0,9.8,8.8,18.4,18.8,18.4s18.8-8.6,18.8-18.4c0-7.6-4.6-12.8-9-17.8C40.3,26.5,36.4,22.1,35.3,16.2z
		 M34.3,65c-9,0-16.8-7.7-16.8-16.4c0-7,4.2-11.7,8.6-16.7c3.2-3.6,6.4-7.3,8.2-11.9c1.8,4.7,5.1,8.5,8.3,12.1
		c4.4,5,8.5,9.6,8.5,16.5C51.1,57.3,43.3,65,34.3,65z"/>
	<path fill="#FFFFFF" d="M37.1,59.3c-6.9,0-13-6.1-13-13c0-0.6-0.4-1-1-1s-1,0.4-1,1c0,8,7,15,15,15c0.6,0,1-0.4,1-1
		S37.6,59.3,37.1,59.3z"/>
</g>
</svg>
