<?xml version="1.0" encoding="utf-8"?>
<!-- Generator: Adobe Illustrator 26.2.1, SVG Export Plug-In . SVG Version: 6.00 Build 0)  -->
<svg version="1.0" id="Layer_1" xmlns="http://www.w3.org/2000/svg" xmlns:xlink="http://www.w3.org/1999/xlink" x="0px" y="0px"
	 viewBox="0 0 80 80" enable-background="new 0 0 80 80" xml:space="preserve">
<g>
	<path fill="#FFFFFF" d="M65.5,28.6l-1.8,0.8c1.5,3.3,2.3,7,2.3,10.6c0,6.9-2.7,13.5-7.7,18.4C53.5,63.2,47,65.9,40,66
		c-6.9,0.1-12.2-1.8-17.3-6.2c-0.4-0.3-1.3-1.2-2.1-2.1h5.3v-2h-8.7v8.7h2v-5.2c0.8,0.9,1.8,1.8,2.2,2.2c5.3,4.5,11.2,6.7,18.3,6.7
		c0.1,0,0.2,0,0.4,0c7.5-0.1,14.5-3,19.7-8.1C65.1,54.5,68,47.4,68,40C68,36.1,67.1,32.2,65.5,28.6z"/>
	<path fill="#FFFFFF" d="M21.7,21.6C26.5,16.8,33,14.1,40,14c6.9-0.1,12.2,1.8,17.3,6.2c0.4,0.3,1.3,1.2,2.1,2.1h-5.3v2h8.7v-8.7h-2
		v5.2C60,20,59.1,19,58.6,18.7C53.2,14,47.3,12,40,12c-7.5,0.1-14.5,3-19.7,8.1C14.9,25.5,12,32.6,12,40c0,3.9,0.9,7.8,2.5,11.4
		l1.8-0.8c-1.5-3.3-2.3-7-2.3-10.6C14,33.1,16.7,26.5,21.7,21.6z"/>
	<path fill="#FFFFFF" d="M40.6,36.3c-1-0.1-2,0.2-2.8,0.8c-0.8,0.6-1.3,1.6-1.4,2.6v0c-0.2,2.1,1.3,3.9,3.4,4.2c0.1,0,0.3,0,0.4,0
		c1.9,0,3.6-1.5,3.8-3.4c0.1-1-0.2-2-0.8-2.8C42.5,36.9,41.6,36.4,40.6,36.3z M42,40.3c-0.1,1-1,1.7-2,1.6c-1-0.1-1.7-1-1.6-2
		c0-0.5,0.3-0.9,0.7-1.2c0.4-0.3,0.8-0.4,1.3-0.4c0.5,0,0.9,0.3,1.2,0.6C41.9,39.3,42,39.8,42,40.3z"/>
	<path fill="#FFFFFF" d="M31.7,31.9c-4.6,4.5-4.7,11.8-0.2,16.4l1.4-1.4c-1.8-1.8-2.8-4.3-2.7-6.8s1.1-5,2.9-6.8L31.7,31.9z"/>
	<path fill="#FFFFFF" d="M29.4,29.2L28,27.8c-3.3,3.2-5.1,7.5-5.2,12c-0.1,4.6,1.7,8.9,4.9,12.2l1.4-1.4c-2.8-2.9-4.3-6.7-4.3-10.7
		S26.5,32.1,29.4,29.2z"/>
	<path fill="#FFFFFF" d="M48.3,48.1c4.6-4.5,4.7-11.8,0.2-16.4l-1.4,1.4c1.8,1.8,2.8,4.3,2.7,6.8s-1.1,5-2.9,6.8L48.3,48.1z"/>
	<path fill="#FFFFFF" d="M57.2,40.1c0.1-4.6-1.7-8.9-4.9-12.2l-1.4,1.4c2.8,2.9,4.3,6.7,4.3,10.7s-1.7,7.8-4.6,10.6l1.4,1.4
		C55.3,49,57.1,44.7,57.2,40.1z"/>
</g>
</svg>
