<?xml version="1.0" encoding="utf-8"?>
<!-- Generator: Adobe Illustrator 26.0.2, SVG Export Plug-In . SVG Version: 6.00 Build 0)  -->
<svg version="1.0" id="Layer_1" xmlns="http://www.w3.org/2000/svg" xmlns:xlink="http://www.w3.org/1999/xlink" x="0px" y="0px"
	 viewBox="0 0 80 80" enable-background="new 0 0 80 80" xml:space="preserve">
<g>
	<polygon fill="#FFFFFF" points="50.2,22.3 50.2,24.3 55.4,24.3 55.4,29.4 57.4,29.4 57.4,24.3 62.5,24.3 62.5,22.3 57.4,22.3 
		57.4,17.1 55.4,17.1 55.4,22.3 	"/>
	
		<rect x="45.3" y="44.6" transform="matrix(0.2423 -0.9702 0.9702 0.2423 -9.8486 80.0484)" fill="#FFFFFF" width="2" height="3.4"/>
	<polygon fill="#FFFFFF" points="35.4,46.4 37.4,45.1 40.2,45.8 40.7,43.9 38.3,43.3 38.3,41.1 36.3,41.1 36.3,43.5 34.4,44.7 	"/>
	<rect x="30.5" y="46.1" transform="matrix(0.8517 -0.524 0.524 0.8517 -19.8818 23.8951)" fill="#FFFFFF" width="3.5" height="2"/>
	<path fill="#FFFFFF" d="M37.5,27.4c-0.3-0.1-0.5,0-0.8,0.1l-10.2,6.3c-0.3,0.2-0.5,0.5-0.5,0.9v0.8v14.9v0.8c0,0.5,0.3,0.9,0.8,1
		L42.5,56c0.1,0,0.2,0,0.2,0c0.2,0,0.4-0.1,0.5-0.1l10.2-6.3c0.3-0.2,0.5-0.5,0.5-0.9V48V33.1v-0.8c0-0.5-0.3-0.9-0.8-1L37.5,27.4z
		 M36.3,30.2V31h2v-1.4l13,3.3l-8.7,5.4l-13.9-3.5L36.3,30.2z M51.9,46.7l-2.4-0.6L49.1,48l2.2,0.6l-7.5,4.6V39.9l8.2-5V46.7z
		 M29.1,47.9l-1,0.6V36.7l13.7,3.4v13.6l-13-3.3l1.4-0.9L29.1,47.9z"/>
	<rect x="36.3" y="32.3" fill="#FFFFFF" width="2" height="3.1"/>
	<path fill="#FFFFFF" d="M64.7,29.1l-1.8,0.8C64.3,33.1,65,36.5,65,40c0,13.8-11.2,25-25,25S15,53.8,15,40s11.2-25,25-25
		c3.7,0,7.2,0.8,10.6,2.3l0.8-1.8C47.8,13.8,44,13,40,13c-14.9,0-27,12.1-27,27s12.1,27,27,27s27-12.1,27-27
		C67,36.2,66.2,32.6,64.7,29.1z"/>
</g>
</svg>
