<?xml version="1.0" encoding="utf-8"?>
<!-- Generator: Adobe Illustrator 27.2.0, SVG Export Plug-In . SVG Version: 6.00 Build 0)  -->
<svg version="1.1" id="Layer_1" xmlns="http://www.w3.org/2000/svg" xmlns:xlink="http://www.w3.org/1999/xlink" x="0px" y="0px"
	 viewBox="0 0 80 80" style="enable-background:new 0 0 80 80;" xml:space="preserve">
<metadata><?xpacket begin="﻿" id="W5M0MpCehiHzreSzNTczkc9d"?>
<x:xmpmeta xmlns:x="adobe:ns:meta/" x:xmptk="Adobe XMP Core 7.1-c000 79.4d2f597, 2021/09/01-20:51:22        ">
   <rdf:RDF xmlns:rdf="http://www.w3.org/1999/02/22-rdf-syntax-ns#">
      <rdf:Description rdf:about=""
            xmlns:xmp="http://ns.adobe.com/xap/1.0/"
            xmlns:xmpMM="http://ns.adobe.com/xap/1.0/mm/"
            xmlns:stEvt="http://ns.adobe.com/xap/1.0/sType/ResourceEvent#">
         <xmp:MetadataDate>2023-03-14T09:56:42+01:00</xmp:MetadataDate>
         <xmpMM:InstanceID>xmp.iid:061ccd28-757e-4387-8459-b9ba18a73e8a</xmpMM:InstanceID>
         <xmpMM:DocumentID>xmp.did:153f278f-fe04-407a-9192-f75f6f4e94cb</xmpMM:DocumentID>
         <xmpMM:OriginalDocumentID>xmp.did:153f278f-fe04-407a-9192-f75f6f4e94cb</xmpMM:OriginalDocumentID>
         <xmpMM:History>
            <rdf:Seq>
               <rdf:li>
                  <rdf:Description>
                     <stEvt:action>saved</stEvt:action>
                     <stEvt:instanceID>xmp.iid:153f278f-fe04-407a-9192-f75f6f4e94cb</stEvt:instanceID>
                     <stEvt:when>2023-03-14T09:56:41+01:00</stEvt:when>
                     <stEvt:softwareAgent>Adobe Bridge 2022 (Macintosh)</stEvt:softwareAgent>
                     <stEvt:changed>/metadata</stEvt:changed>
                  </rdf:Description>
               </rdf:li>
               <rdf:li>
                  <rdf:Description>
                     <stEvt:action>saved</stEvt:action>
                     <stEvt:instanceID>xmp.iid:061ccd28-757e-4387-8459-b9ba18a73e8a</stEvt:instanceID>
                     <stEvt:when>2023-03-14T09:56:42+01:00</stEvt:when>
                     <stEvt:softwareAgent>Adobe Bridge 2022 (Macintosh)</stEvt:softwareAgent>
                     <stEvt:changed>/metadata</stEvt:changed>
                  </rdf:Description>
               </rdf:li>
            </rdf:Seq>
         </xmpMM:History>
      </rdf:Description>
   </rdf:RDF>
</x:xmpmeta>
                                                                                                    
                                                                                                    
                                                                                                    
                                                                                                    
                                                                                                    
                                                                                                    
                                                                                                    
                                                                                                    
                                                                                                    
                                                                                                    
                                                                                                    
                                                                                                    
                                                                                                    
                                                                                                    
                                                                                                    
                                                              
<?xpacket end="w"?></metadata>
<style type="text/css">
	.st0{fill:#FFFFFF;}
</style>
<g>
	<path class="st0" d="M12,54.3l6.7-12c0.3-0.4,0.3-0.9,0-1.3c-0.3-0.4-0.7-0.7-1.2-0.7h-2.1V40c0-13.4,10.9-24.3,24.3-24.3
		c0.8,0,1.3-0.5,1.3-1.3s-0.5-1.3-1.3-1.3c-14.9,0-26.9,12.1-26.9,26.9v1.8c0,0.8,0.5,1.3,1.3,1.3h1.2l-4.6,8.1l-5.9-8.1h1.1
		c0.8,0,1.3-0.5,1.3-1.3V40C7.1,21.9,21.8,7.1,40,7.1c10.5,0,20.5,5,26.7,13.5c0.4,0.5,1.3,0.7,1.8,0.3c0.5-0.4,0.7-1.3,0.3-1.8
		C62.2,10,51.4,4.5,40.1,4.5C20.5,4.5,4.6,20.4,4.6,40v0.5H2.4c-0.5,0-0.9,0.3-1.2,0.7c-0.3,0.4-0.1,0.9,0.1,1.3l8.4,12
		c0.3,0.4,0.7,0.5,1.1,0.5c0,0,0,0,0.1,0C11.5,55,11.9,54.7,12,54.3z"/>
	<path class="st0" d="M78.8,37.5l-8.5-12C70,25.1,69.6,25,69,25c-0.4,0-0.8,0.3-1.1,0.7l-6.7,12c-0.3,0.4-0.3,0.9,0,1.3
		c0.3,0.4,0.7,0.7,1.2,0.7h2.1V40c0,13.4-10.9,24.3-24.3,24.3c-0.8,0-1.3,0.5-1.3,1.3c0,0.8,0.5,1.3,1.3,1.3
		c14.9,0,26.9-12.1,26.9-26.9v-1.8c0-0.8-0.5-1.3-1.3-1.3h-1.2l4.6-8.1l5.9,8.1h-0.8c-0.8,0-1.3,0.5-1.3,1.3V40
		c0,18.1-14.7,32.9-32.9,32.9c-10.5,0-20.5-5-26.7-13.5c-0.4-0.5-1.3-0.7-1.8-0.3c-0.5,0.4-0.7,1.3-0.3,1.8
		c6.7,9.2,17.5,14.6,28.8,14.6c19.6,0,35.5-15.9,35.5-35.5v-0.5h2.1c0.5,0,0.9-0.3,1.2-0.7C79,38.4,79,37.9,78.8,37.5z"/>
	<path class="st0" d="M56.4,35.7c0.1-0.4,0-0.7-0.1-1.1l-3.5-6c-0.4-0.7-1.2-0.8-1.8-0.5l-2.6,1.4c-1.2-0.9-2.4-1.7-3.7-2.2v-3
		c0-0.8-0.5-1.3-1.3-1.3h-6.7c-0.8,0-1.3,0.5-1.3,1.3v3c-1.2,0.5-2.4,1.2-3.7,2.2L28.9,28c-0.3-0.1-0.7-0.3-1.1-0.1
		c-0.4,0.1-0.7,0.3-0.8,0.7l-3.4,5.9c-0.4,0.7-0.1,1.4,0.5,1.8l2.6,1.4c-0.1,0.7-0.3,1.3-0.3,2c0,0.7,0.1,1.3,0.3,2.2l-2.6,1.4
		c-0.7,0.4-0.8,1.2-0.5,1.8l3.4,5.9c0.1,0.3,0.5,0.5,0.8,0.7c0.4,0.1,0.7,0,1.1-0.1l2.5-1.4c1.2,0.9,2.5,1.6,3.7,2.1v3
		c0,0.8,0.5,1.3,1.3,1.3h6.7c0.8,0,1.3-0.5,1.3-1.3v-3c1.3-0.5,2.5-1.2,3.7-2l2.6,1.4c0.3,0.1,0.7,0.3,1.1,0.1
		c0.4-0.1,0.7-0.3,0.8-0.7l3.4-5.9c0.4-0.7,0.1-1.4-0.5-1.8L53,42.1c0.1-0.8,0.3-1.4,0.3-2.2c0-0.7-0.1-1.3-0.1-2l2.5-1.4
		C56.2,36.3,56.4,36.1,56.4,35.7z M51.2,36.2c-0.5,0.3-0.8,0.9-0.7,1.4s0.3,1.6,0.3,2.4c0,0.8-0.1,1.7-0.4,2.4
		c-0.3,0.7,0,1.3,0.5,1.6l2.2,1.3L51,48.8l-2.2-1.3c-0.5-0.3-1.1-0.3-1.6,0.1c-1.3,1.1-2.8,2-4.3,2.4c-0.5,0.1-0.9,0.7-0.9,1.3v2.6
		h-4.1v-2.6c0-0.5-0.3-1.1-0.8-1.2c-2.1-0.8-3.4-1.6-4.3-2.5c-0.4-0.4-1.1-0.5-1.6-0.3l-2.2,1.3l-2.1-3.5l2.2-1.3
		c0.5-0.3,0.8-0.8,0.7-1.4c-0.3-1.1-0.4-2-0.4-2.6c0-0.8,0.1-1.6,0.4-2.4c0.1-0.5-0.1-1.1-0.7-1.4l-2.2-1.3l2.1-3.5l2.2,1.3
		c0.5,0.3,1.1,0.3,1.6-0.1c1.4-1.3,2.9-2.1,4.3-2.6c0.5-0.1,0.9-0.7,0.9-1.3v-2.6h4.1v2.6c0,0.5,0.4,1.1,0.9,1.3
		c1.4,0.4,2.8,1.3,4.3,2.6c0.4,0.4,1.1,0.4,1.6,0.1l2.2-1.3l2.2,3.8L51.2,36.2z"/>
	<path class="st0" d="M40.1,33.6c-3.5,0-6.4,2.9-6.4,6.4c0,3.5,2.9,6.4,6.4,6.4c3.5,0,6.4-2.9,6.4-6.4
		C46.6,36.5,43.7,33.6,40.1,33.6z M40.1,43.8c-2.1,0-3.8-1.7-3.8-3.8c0-2.1,1.7-3.8,3.8-3.8c2.1,0,3.8,1.7,3.8,3.8
		C43.9,42.1,42.2,43.8,40.1,43.8z"/>
</g>
</svg>
