<?xml version="1.0" encoding="UTF-8"?>
<svg id="Layer_1" data-name="Layer 1" xmlns="http://www.w3.org/2000/svg" version="1.1" viewBox="0 0 60 60">
  <defs>
    <style>
      .cls-1 {
        fill: #fff;
        stroke-width: 0px;
      }
    </style>
  </defs>
  <path class="cls-1" d="M49,23.9c.1,2.5-.7,4.4-2.3,5.6-1.9,1.3-4.6,1.5-7.3.5-3.6-1.4-6.7-4.2-9.5-6.6l-1-.8c-3.1-2.7-6.2-5.2-10.2-5.2h-.1c-2.2,0-5.2,1-6.7,3.1-1.1,1.5-1.2,3.4-.5,5.6,1.6,4.5,6,4.8,9,5h.2c2.6.2,4.8-1.2,4.9-1.2l1-.6.8.9c.2.1,4.2,4.7,6.1,7.1l.7.9-.8.9c-1.4,1.6-2,3.9-1.8,6.6.1,1.1.5,2.5.9,4,.5,1.7,1,3.4,1.2,5.2v.5c0,0-2.7.3-2.7.3v-.5c-.2-1.5-.6-3.1-1.1-4.5v-.3c-.5-1.5-1-3-1.1-4.5-.2-3,.3-5.6,1.7-7.7-1.4-1.7-3.5-4.1-4.5-5.3-1.2.5-3.2,1.3-5.5,1.1h-.1c-3.3-.2-9.3-.6-11.5-6.9-1.3-3.8-.2-6.5.9-8.1,2.2-3.1,6.2-4.3,9-4.3h.1c5.4,0,9.4,3.5,12,5.7l1.2,1.1c2.5,2.2,5.4,4.7,8.5,5.9,1.8.7,3.6.6,4.7-.1,1.1-.7,1.2-2.2,1.2-3.2-.2-5.1-5.5-11.1-12.7-14.7-8-3.9-18.1-2.6-24.6,3.1-6.7,5.9-6.6,12.7-5.9,16.4.7,3.5,2.2,6.7,4.9,10.2,2.9,3.7,6.3,8.9,7.4,15.9v.4c0,0-2.7.4-2.7.4v-.4c-1-6.4-4.2-11.1-6.9-14.5-2.9-3.8-4.7-7.5-5.4-11.4-.8-4.2-1-12.2,6.8-19,7.4-6.5,18.5-7.9,27.6-3.5,8.1,4,14,11,14.2,17Z"/>
  <path class="cls-1" d="M60,20.6l-2.8.3v-.5c-.1-1-.4-2-.7-3-.7-2.2-2-4.2-3.6-5.7l-.3-.3,1.9-2.1.4.3c2,1.8,3.5,4.2,4.4,6.9.4,1.2.6,2.4.8,3.7v.4Z"/>
  <path class="cls-1" d="M54.8,24.8v.4c0,0-2.9-.5-2.9-.5v-.4c.4-1.6.2-3.4-.4-5.1-.9-2.6-2.6-4.7-4.7-5.8l-.4-.2,1.3-2.5.4.2c2.7,1.4,5,4.1,6.1,7.4.7,2.1.9,4.4.6,6.5Z"/>
</svg>