<?xml version="1.0" encoding="utf-8"?>
<!-- Generator: Adobe Illustrator 26.2.1, SVG Export Plug-In . SVG Version: 6.00 Build 0)  -->
<svg version="1.0" id="Layer_1" xmlns="http://www.w3.org/2000/svg" xmlns:xlink="http://www.w3.org/1999/xlink" x="0px" y="0px"
	 viewBox="0 0 80 80" enable-background="new 0 0 80 80" xml:space="preserve">
<g>
	<defs>
		<path id="SVGID_1_" d="M509.9,1144.5l-1.3-3.2c4.7-2,7.8-6.5,7.9-11.6c0-5.3-3-9-6.3-12.9c-2.1-2.4-3.9-5-5.4-7.8
			c-1.5,2.8-3.3,5.4-5.4,7.8c-0.8,1-1.5,1.8-2.2,2.7l-2.7-2.1c0.7-1,1.5-1.9,2.3-2.8c2.9-3.5,5.6-6.8,6.4-11.4
			c0.1-0.8,0.9-1.4,1.7-1.4c0.8,0,1.6,0.6,1.7,1.4c0.8,4.6,3.5,7.9,6.4,11.4c3.5,4.2,7.1,8.6,7.1,15.1
			C519.8,1136.2,515.9,1142,509.9,1144.5z"/>
	</defs>
	<clipPath id="SVGID_00000025402044472536808420000017809527942161069455_">
		<use xlink:href="#SVGID_1_"  overflow="visible"/>
	</clipPath>
	<g clip-path="url(#SVGID_00000025402044472536808420000017809527942161069455_)">
		<defs>
			<rect id="SVGID_00000080922758097162054520000011567782802634148760_" x="-310.6" y="-3980.4" width="1920" height="12072"/>
		</defs>
		<clipPath id="SVGID_00000088105362208518729380000014641512044715970490_">
			<use xlink:href="#SVGID_00000080922758097162054520000011567782802634148760_"  overflow="visible"/>
		</clipPath>
	</g>
</g>
<g>
	<defs>
		<path id="SVGID_00000026844812290357542870000016400199179183466158_" d="M486.8,1158.2c-9.9-0.2-18-8.2-18.2-18.2h3.4
			c0.2,8,6.7,14.5,14.7,14.7V1158.2L486.8,1158.2z M483.6,1110.7c-2.2,5-5.7,9-9.2,13c-5.1,5.8-10,11.2-10,19.2
			c0,10,9,18.7,19.2,18.7c10.2,0,19.1-8.7,19.1-18.7c0-7.9-4.8-13.4-9.9-19.2C489.3,1119.8,485.8,1115.7,483.6,1110.7z M483.6,1165
			c-12.1,0-22.6-10.3-22.6-22.1c0-9.2,5.5-15.4,10.8-21.4c4.6-5.2,8.9-10,10.1-16.8c0.2-0.8,0.9-1.4,1.7-1.4c0.8,0,1.5,0.6,1.7,1.4
			c1.3,6.8,5.6,11.6,10.1,16.8c5.3,6,10.8,12.2,10.8,21.4C506.2,1154.7,495.6,1165,483.6,1165z"/>
	</defs>
	<clipPath id="SVGID_00000163773541517717310910000015311514155597901473_">
		<use xlink:href="#SVGID_00000026844812290357542870000016400199179183466158_"  overflow="visible"/>
	</clipPath>
	<g clip-path="url(#SVGID_00000163773541517717310910000015311514155597901473_)">
		<defs>
			<rect id="SVGID_00000052783817689954793580000002675747088603264654_" x="-310.6" y="-3980.4" width="1920" height="12072"/>
		</defs>
		<clipPath id="SVGID_00000127008545408954370600000003822431606303573388_">
			<use xlink:href="#SVGID_00000052783817689954793580000002675747088603264654_"  overflow="visible"/>
		</clipPath>
	</g>
</g>
<g>
	<path fill="#FFFFFF" d="M48.8,65.5H31.2V52.7h-2v13.8c0,0.6,0.4,1,1,1h19.5c0.6,0,1-0.4,1-1V52.7h-2V65.5z"/>
	<path fill="#FFFFFF" d="M46.2,20.7h-2.3v-8.2h-2v8.2h-3.7v-8.2h-2v8.2h-2.3c-3.8,0-6.8,3.1-6.8,6.8v22.9c0,0.6,0.4,1,1,1h24.1
		c0.6,0,1-0.4,1-1V27.5C53.1,23.8,50,20.7,46.2,20.7z M51.1,49.4H28.9V27.5c0-2.7,2.2-4.8,4.8-4.8h12.4c2.7,0,4.8,2.2,4.8,4.8V49.4z
		"/>
	<rect x="35" y="57.3" fill="#FFFFFF" width="2" height="4.6"/>
	<rect x="43" y="57.3" fill="#FFFFFF" width="2" height="4.6"/>
	<path fill="#FFFFFF" d="M46.3,33.3h-4.6l1-5.7c0.1-0.4-0.2-0.9-0.6-1.1c-0.4-0.2-0.9-0.1-1.2,0.2l-9.2,10.3
		c-0.3,0.3-0.3,0.7-0.2,1.1c0.2,0.4,0.5,0.6,0.9,0.6h4.6l-1,5.7c-0.1,0.4,0.2,0.9,0.6,1.1c0.1,0.1,0.3,0.1,0.4,0.1
		c0.3,0,0.6-0.1,0.7-0.3L47.1,35c0.3-0.3,0.3-0.7,0.2-1.1C47.1,33.6,46.7,33.3,46.3,33.3z M38.7,41.4l0.6-3.5c0-0.3,0-0.6-0.2-0.8
		c-0.2-0.2-0.5-0.4-0.8-0.4h-3.5l5.4-6.1l-0.6,3.5c0,0.3,0,0.6,0.2,0.8c0.2,0.2,0.5,0.4,0.8,0.4h3.5L38.7,41.4z"/>
</g>
</svg>
