<?xml version="1.0" encoding="UTF-8"?>
<svg id="Layer_1" data-name="Layer 1" xmlns="http://www.w3.org/2000/svg" version="1.1" viewBox="0 0 60 60">
  <defs>
    <style>
      .cls-1 {
        fill: #fff;
        stroke-width: 0px;
      }
    </style>
  </defs>
  <path class="cls-1" d="M35.1,12.4H12.6c-1.6,0-2.9,1.4-2.9,3.2v41.2c0,1.7,1.3,3.1,2.9,3.1h22.5c1.6,0,2.9-1.4,2.9-3.1V15.6c0-1.7-1.3-3.2-2.9-3.2ZM35.6,56.9c0,.4-.2.8-.5.8H12.6c-.3,0-.5-.3-.5-.8v-4.7h23.5v4.7ZM35.6,49.8H12.1v-29h23.5v29ZM35.6,18.4H12.1v-2.7c0-.4.2-.8.5-.8h22.5c.3,0,.5.3.5.8v2.7Z"/>
  <rect class="cls-1" x="20.9" y="15.8" width="5.2" height="1.6"/>
  <path class="cls-1" d="M34.5,5.4h-.4v2.4h.5c4.2-.2,7.6,3,7.8,7.1v.4s2.4-.1,2.4-.1v-.4c-.1-2.6-1.3-5-3.2-6.8-2-1.8-4.5-2.7-7.1-2.6Z"/>
  <path class="cls-1" d="M36.4,0h-1.1s.1,2.5.1,2.5h.4s.5,0,.5,0c6.1,0,11.2,4.8,11.5,10.9v.4s2.4-.1,2.4-.1v-.4c-.4-7.4-6.5-13.2-14-13.2Z"/>
</svg>