<?xml version="1.0" encoding="utf-8"?>
<!-- Generator: Adobe Illustrator 26.0.3, SVG Export Plug-In . SVG Version: 6.00 Build 0)  -->
<svg version="1.0" id="Layer_1" xmlns="http://www.w3.org/2000/svg" xmlns:xlink="http://www.w3.org/1999/xlink" x="0px" y="0px"
	 viewBox="0 0 80 80" enable-background="new 0 0 80 80" xml:space="preserve">
<g>
	<defs>
		<path id="SVGID_1_" d="M861.9,115c-1.9,0-3.5,1.6-3.5,3.5c0,2,1.6,3.5,3.5,3.5s3.5-1.6,3.5-3.5C865.4,116.6,863.8,115,861.9,115z
			 M861.9,125.4c-3.8,0-6.8-3.1-6.8-6.9c0-3.8,3-6.9,6.8-6.9c3.8,0,6.8,3.1,6.8,6.9S865.7,125.4,861.9,125.4z"/>
	</defs>
	<clipPath id="SVGID_00000099644861365042690120000016550914775499838358_">
		<use xlink:href="#SVGID_1_"  overflow="visible"/>
	</clipPath>
	<g clip-path="url(#SVGID_00000099644861365042690120000016550914775499838358_)">
		<defs>
			<rect id="SVGID_00000008136113896818687030000003577994485048588988_" x="61.7" y="-4791.7" width="1920" height="12072"/>
		</defs>
		<clipPath id="SVGID_00000156568723896728143410000016592835082480192151_">
			<use xlink:href="#SVGID_00000008136113896818687030000003577994485048588988_"  overflow="visible"/>
		</clipPath>
	</g>
</g>
<g>
	<path fill="#FFFFFF" d="M48.8,66H31.2V53.2h-2V67c0,0.6,0.4,1,1,1h19.5c0.6,0,1-0.4,1-1V53.2h-2V66z"/>
	<path fill="#FFFFFF" d="M46.2,21.2h-2.3V13h-2v8.2h-3.7V13h-2v8.2h-2.3c-3.8,0-6.8,3.1-6.8,6.8v22.9c0,0.6,0.4,1,1,1h24.1
		c0.6,0,1-0.4,1-1V28C53.1,24.3,50,21.2,46.2,21.2z M51.1,49.9H28.9V28c0-2.7,2.2-4.8,4.8-4.8h12.4c2.7,0,4.8,2.2,4.8,4.8V49.9z"/>
	<rect x="35" y="57.8" fill="#FFFFFF" width="2" height="4.6"/>
	<rect x="43" y="57.8" fill="#FFFFFF" width="2" height="4.6"/>
	<path fill="#FFFFFF" d="M46.3,33.8h-4.6l1-5.7c0.1-0.4-0.2-0.9-0.6-1.1c-0.4-0.2-0.9-0.1-1.2,0.2l-9.2,10.3
		c-0.3,0.3-0.3,0.7-0.2,1.1c0.2,0.4,0.5,0.6,0.9,0.6h4.6l-1,5.7c-0.1,0.4,0.2,0.9,0.6,1.1c0.1,0.1,0.3,0.1,0.4,0.1
		c0.3,0,0.6-0.1,0.7-0.3l9.2-10.3c0.3-0.3,0.3-0.7,0.2-1.1C47.1,34.1,46.7,33.8,46.3,33.8z M38.7,41.9l0.6-3.5c0-0.3,0-0.6-0.2-0.8
		c-0.2-0.2-0.5-0.4-0.8-0.4h-3.5l5.4-6.1l-0.6,3.5c0,0.3,0,0.6,0.2,0.8c0.2,0.2,0.5,0.4,0.8,0.4h3.5L38.7,41.9z"/>
</g>
</svg>
