<?xml version="1.0" encoding="utf-8"?>
<!-- Generator: Adobe Illustrator 27.2.0, SVG Export Plug-In . SVG Version: 6.00 Build 0)  -->
<svg version="1.1" id="Layer_1" xmlns="http://www.w3.org/2000/svg" xmlns:xlink="http://www.w3.org/1999/xlink" x="0px" y="0px"
	 viewBox="0 0 80 80" style="enable-background:new 0 0 80 80;" xml:space="preserve">
<metadata><?xpacket begin="﻿" id="W5M0MpCehiHzreSzNTczkc9d"?>
<x:xmpmeta xmlns:x="adobe:ns:meta/" x:xmptk="Adobe XMP Core 7.1-c000 79.4d2f597, 2021/09/01-20:51:22        ">
   <rdf:RDF xmlns:rdf="http://www.w3.org/1999/02/22-rdf-syntax-ns#">
      <rdf:Description rdf:about=""
            xmlns:xmp="http://ns.adobe.com/xap/1.0/"
            xmlns:xmpMM="http://ns.adobe.com/xap/1.0/mm/"
            xmlns:stEvt="http://ns.adobe.com/xap/1.0/sType/ResourceEvent#">
         <xmp:MetadataDate>2023-03-14T09:56:42+01:00</xmp:MetadataDate>
         <xmpMM:InstanceID>xmp.iid:99cccead-9d8d-409c-bf86-6ccf8c9bce3e</xmpMM:InstanceID>
         <xmpMM:DocumentID>xmp.did:f71d75b0-bd26-4058-8bcb-50f5a87d39b0</xmpMM:DocumentID>
         <xmpMM:OriginalDocumentID>xmp.did:f71d75b0-bd26-4058-8bcb-50f5a87d39b0</xmpMM:OriginalDocumentID>
         <xmpMM:History>
            <rdf:Seq>
               <rdf:li>
                  <rdf:Description>
                     <stEvt:action>saved</stEvt:action>
                     <stEvt:instanceID>xmp.iid:f71d75b0-bd26-4058-8bcb-50f5a87d39b0</stEvt:instanceID>
                     <stEvt:when>2023-03-14T09:56:40+01:00</stEvt:when>
                     <stEvt:softwareAgent>Adobe Bridge 2022 (Macintosh)</stEvt:softwareAgent>
                     <stEvt:changed>/metadata</stEvt:changed>
                  </rdf:Description>
               </rdf:li>
               <rdf:li>
                  <rdf:Description>
                     <stEvt:action>saved</stEvt:action>
                     <stEvt:instanceID>xmp.iid:99cccead-9d8d-409c-bf86-6ccf8c9bce3e</stEvt:instanceID>
                     <stEvt:when>2023-03-14T09:56:42+01:00</stEvt:when>
                     <stEvt:softwareAgent>Adobe Bridge 2022 (Macintosh)</stEvt:softwareAgent>
                     <stEvt:changed>/metadata</stEvt:changed>
                  </rdf:Description>
               </rdf:li>
            </rdf:Seq>
         </xmpMM:History>
      </rdf:Description>
   </rdf:RDF>
</x:xmpmeta>
                                                                                                    
                                                                                                    
                                                                                                    
                                                                                                    
                                                                                                    
                                                                                                    
                                                                                                    
                                                                                                    
                                                                                                    
                                                                                                    
                                                                                                    
                                                                                                    
                                                                                                    
                                                                                                    
                                                                                                    
                                                              
<?xpacket end="w"?></metadata>
<style type="text/css">
	.st0{fill:#FFFFFF;}
</style>
<g>
	<path class="st0" d="M40.7,22.8c-5.1-0.5-10.6,1.8-13.4,5.7c-2.8-3.9-8.3-6.2-13.4-5.7c-3.7,0.4-6.8,2.3-9.1,5.3
		c-2.4,3.2-3.2,7.4-2.4,11.4c1.4,6.6,6.6,10.8,13.1,16c3.2,2.6,7,5.5,10.7,9.2c0.3,0.3,0.7,0.4,0.9,0.4c0.3,0,0.7-0.1,0.9-0.4
		c3.7-3.7,7.4-6.6,10.7-9.2c6.6-5.1,11.8-9.3,13.1-16c0.8-3.9-0.1-8.1-2.4-11.4C47.6,25.1,44.3,23.2,40.7,22.8z M49.5,38.9
		c-1.2,5.7-6.1,9.6-12.2,14.5c-3.1,2.4-6.5,5.1-10,8.5c-3.5-3.4-6.9-6.1-10-8.5c-6.1-4.9-11-8.7-12.2-14.5c-0.7-3.2,0-6.6,2-9.2
		c1.8-2.4,4.3-3.9,7.2-4.2c0.4,0,0.8,0,1.2,0c4.5,0,9.1,2.6,10.7,6.2c0.3,0.5,0.7,0.8,1.2,0.8s0.9-0.3,1.2-0.8
		c1.8-3.9,7-6.6,11.9-6.1c2.8,0.3,5.4,1.8,7.2,4.2C49.5,32.4,50.2,35.8,49.5,38.9z"/>
	<path class="st0" d="M75.6,19.3c-1.8-2.4-4.5-4.1-7.3-4.3c-4.1-0.4-8.4,1.4-10.8,4.5c-2.4-3.1-6.6-4.9-10.8-4.5
		c-2.6,0.3-4.7,1.5-6.5,3.4l2,1.8c1.4-1.5,3-2.3,4.9-2.6c3.8-0.4,7.8,1.8,9.2,4.9c0.3,0.5,0.7,0.8,1.2,0.8s1.1-0.3,1.2-0.8
		c1.4-3.1,5.4-5.3,9.2-4.9c2.2,0.3,4.1,1.4,5.4,3.2c1.5,2.2,2.2,4.9,1.6,7.4c-0.9,4.6-4.7,7.7-9.7,11.6c-2.4,1.9-5.1,4.2-7.8,6.8
		c-0.8-0.8-1.9-1.9-2.4-2.4l-1.9,2c0.8,0.7,2.6,2.4,3.4,3.2c0.3,0.3,0.5,0.4,0.9,0.4s0.7-0.1,0.9-0.4c3-3,6-5.4,8.5-7.6
		c5.1-4.1,9.5-7.7,10.7-13.3C78.3,25.5,77.6,22,75.6,19.3z"/>
	<path class="st0" d="M8.5,36.9h2.7c0-2.7,2.3-5,5-5v-2.7C12,29.2,8.5,32.6,8.5,36.9z"/>
</g>
</svg>
