<?xml version="1.0" encoding="utf-8"?>
<!-- Generator: Adobe Illustrator 27.2.0, SVG Export Plug-In . SVG Version: 6.00 Build 0)  -->
<svg version="1.1" id="Layer_1" xmlns="http://www.w3.org/2000/svg" xmlns:xlink="http://www.w3.org/1999/xlink" x="0px" y="0px"
	 viewBox="0 0 80 80" style="enable-background:new 0 0 80 80;" xml:space="preserve">
<metadata><?xpacket begin="﻿" id="W5M0MpCehiHzreSzNTczkc9d"?>
<x:xmpmeta xmlns:x="adobe:ns:meta/" x:xmptk="Adobe XMP Core 7.1-c000 79.4d2f597, 2021/09/01-20:51:22        ">
   <rdf:RDF xmlns:rdf="http://www.w3.org/1999/02/22-rdf-syntax-ns#">
      <rdf:Description rdf:about=""
            xmlns:xmp="http://ns.adobe.com/xap/1.0/"
            xmlns:xmpMM="http://ns.adobe.com/xap/1.0/mm/"
            xmlns:stEvt="http://ns.adobe.com/xap/1.0/sType/ResourceEvent#">
         <xmp:MetadataDate>2023-03-14T09:56:42+01:00</xmp:MetadataDate>
         <xmpMM:InstanceID>xmp.iid:68a5655f-6abc-46d1-928f-7e550c33b71a</xmpMM:InstanceID>
         <xmpMM:DocumentID>xmp.did:1d11ad1c-c606-4c64-91c7-bc2840939cf9</xmpMM:DocumentID>
         <xmpMM:OriginalDocumentID>xmp.did:1d11ad1c-c606-4c64-91c7-bc2840939cf9</xmpMM:OriginalDocumentID>
         <xmpMM:History>
            <rdf:Seq>
               <rdf:li>
                  <rdf:Description>
                     <stEvt:action>saved</stEvt:action>
                     <stEvt:instanceID>xmp.iid:1d11ad1c-c606-4c64-91c7-bc2840939cf9</stEvt:instanceID>
                     <stEvt:when>2023-03-14T09:56:40+01:00</stEvt:when>
                     <stEvt:softwareAgent>Adobe Bridge 2022 (Macintosh)</stEvt:softwareAgent>
                     <stEvt:changed>/metadata</stEvt:changed>
                  </rdf:Description>
               </rdf:li>
               <rdf:li>
                  <rdf:Description>
                     <stEvt:action>saved</stEvt:action>
                     <stEvt:instanceID>xmp.iid:68a5655f-6abc-46d1-928f-7e550c33b71a</stEvt:instanceID>
                     <stEvt:when>2023-03-14T09:56:42+01:00</stEvt:when>
                     <stEvt:softwareAgent>Adobe Bridge 2022 (Macintosh)</stEvt:softwareAgent>
                     <stEvt:changed>/metadata</stEvt:changed>
                  </rdf:Description>
               </rdf:li>
            </rdf:Seq>
         </xmpMM:History>
      </rdf:Description>
   </rdf:RDF>
</x:xmpmeta>
                                                                                                    
                                                                                                    
                                                                                                    
                                                                                                    
                                                                                                    
                                                                                                    
                                                                                                    
                                                                                                    
                                                                                                    
                                                                                                    
                                                                                                    
                                                                                                    
                                                                                                    
                                                                                                    
                                                                                                    
                                                              
<?xpacket end="w"?></metadata>
<style type="text/css">
	.st0{fill:#FFFFFF;}
</style>
<g>
	<path class="st0" d="M60.1,19.7c-7.2,0-12.4,3.3-12.4,7.8c0,1.8,0.8,3.5,2.3,4.9c2,1.9,5.2,3,8.7,3c0.5,0,1,0,1.5,0
		c4-0.3,6-2.9,5.9-5.2c-0.1-1.9-1.8-4-5.2-4V29c1.5,0,2.5,0.5,2.5,1.4c0,0.8-1,2.2-3.4,2.3c-3.4,0.3-6.4-0.5-8.2-2.2
		c-1-0.8-1.4-1.9-1.4-2.9c0-2.5,3.7-5,9.7-5c7.5,0,15.4,2.2,15.4,8.2v1.6c0,3.3-5.7,6.7-16.2,6.7c-6.4,0-11.5-2-16.5-4.1
		c-4.8-1.9-9.7-4-15.5-4c-11.7,0-24,4.6-24.5,4.9c-0.5,0.1-0.8,0.7-0.8,1.2v32c0,0.4,0.3,0.8,0.5,1.1c0.4,0.3,0.8,0.3,1.2,0.1
		c0.1,0,12.3-4.8,23.5-4.8c5.3,0,9.8,1.8,14.6,3.7c5.2,2,10.5,4.2,17.5,4.2c11.2,0,19-3.8,19-9.4V32.4v-1.6
		C78.2,23.9,71.2,19.7,60.1,19.7z M75.5,64.3c0,2.5-3.5,5.2-10.1,6.1v-11h-2.7v11.2h1.1c-1.4,0.1-2.9,0.3-4.5,0.3
		c-4,0-7.4-0.8-10.5-1.8h0.7V56.4h-2.7v12.1c-1.4-0.5-2.6-1-3.8-1.5c-3-1.2-6.1-2.5-9.4-3.3V51.6h-2.7v11.6
		c-1.1-0.1-2.3-0.3-3.4-0.3c-3.3,0-6.7,0.4-9.8,1V51.5h-2.7v12.8h0.4c-4.5,1-8.3,2.2-10.5,2.9v-29c3-1.1,13.2-4.4,22.6-4.4
		c5.3,0,9.8,1.8,14.6,3.7c5.2,2,10.5,4.2,17.5,4.2c7.2,0,13.1-1.6,16.2-4.2v26.9H75.5z"/>
	<polygon class="st0" points="35.5,21.1 38.2,21.1 38.2,15.7 43.7,15.7 43.7,13 38.2,13 38.2,7.7 35.5,7.7 35.5,13 30.2,13 
		30.2,15.7 35.5,15.7 	"/>
	<rect x="49.7" y="6.3" class="st0" width="4.5" height="2.7"/>
</g>
</svg>
