<?xml version="1.0" encoding="utf-8"?>
<!-- Generator: Adobe Illustrator 27.2.0, SVG Export Plug-In . SVG Version: 6.00 Build 0)  -->
<svg version="1.1" id="Layer_1" xmlns="http://www.w3.org/2000/svg" xmlns:xlink="http://www.w3.org/1999/xlink" x="0px" y="0px"
	 viewBox="0 0 80 80" style="enable-background:new 0 0 80 80;" xml:space="preserve">
<metadata><?xpacket begin="﻿" id="W5M0MpCehiHzreSzNTczkc9d"?>
<x:xmpmeta xmlns:x="adobe:ns:meta/" x:xmptk="Adobe XMP Core 7.1-c000 79.4d2f597, 2021/09/01-20:51:22        ">
   <rdf:RDF xmlns:rdf="http://www.w3.org/1999/02/22-rdf-syntax-ns#">
      <rdf:Description rdf:about=""
            xmlns:xmp="http://ns.adobe.com/xap/1.0/"
            xmlns:xmpMM="http://ns.adobe.com/xap/1.0/mm/"
            xmlns:stEvt="http://ns.adobe.com/xap/1.0/sType/ResourceEvent#">
         <xmp:MetadataDate>2023-03-14T09:56:42+01:00</xmp:MetadataDate>
         <xmpMM:InstanceID>xmp.iid:385ed922-c682-46b6-854a-6925e012467a</xmpMM:InstanceID>
         <xmpMM:DocumentID>xmp.did:c3c99505-21b8-489d-a938-a060c0836bcf</xmpMM:DocumentID>
         <xmpMM:OriginalDocumentID>xmp.did:c3c99505-21b8-489d-a938-a060c0836bcf</xmpMM:OriginalDocumentID>
         <xmpMM:History>
            <rdf:Seq>
               <rdf:li>
                  <rdf:Description>
                     <stEvt:action>saved</stEvt:action>
                     <stEvt:instanceID>xmp.iid:c3c99505-21b8-489d-a938-a060c0836bcf</stEvt:instanceID>
                     <stEvt:when>2023-03-14T09:56:41+01:00</stEvt:when>
                     <stEvt:softwareAgent>Adobe Bridge 2022 (Macintosh)</stEvt:softwareAgent>
                     <stEvt:changed>/metadata</stEvt:changed>
                  </rdf:Description>
               </rdf:li>
               <rdf:li>
                  <rdf:Description>
                     <stEvt:action>saved</stEvt:action>
                     <stEvt:instanceID>xmp.iid:385ed922-c682-46b6-854a-6925e012467a</stEvt:instanceID>
                     <stEvt:when>2023-03-14T09:56:42+01:00</stEvt:when>
                     <stEvt:softwareAgent>Adobe Bridge 2022 (Macintosh)</stEvt:softwareAgent>
                     <stEvt:changed>/metadata</stEvt:changed>
                  </rdf:Description>
               </rdf:li>
            </rdf:Seq>
         </xmpMM:History>
      </rdf:Description>
   </rdf:RDF>
</x:xmpmeta>
                                                                                                    
                                                                                                    
                                                                                                    
                                                                                                    
                                                                                                    
                                                                                                    
                                                                                                    
                                                                                                    
                                                                                                    
                                                                                                    
                                                                                                    
                                                                                                    
                                                                                                    
                                                                                                    
                                                                                                    
                                                              
<?xpacket end="w"?></metadata>
<style type="text/css">
	.st0{fill:#FFFFFF;}
</style>
<g>
	<g>
		<defs>
			<path id="SVGID_1_" d="M-295.1,1505.5l-1.3-3.2c4.7-2,7.8-6.5,7.9-11.6c0-5.3-3-9-6.3-12.9c-2.1-2.4-3.9-5-5.4-7.8
				c-1.5,2.8-3.3,5.4-5.4,7.8c-0.8,1-1.5,1.8-2.2,2.7l-2.7-2.1c0.7-1,1.5-1.9,2.3-2.8c2.9-3.5,5.6-6.8,6.4-11.4
				c0.1-0.8,0.9-1.4,1.7-1.4c0.8,0,1.6,0.6,1.7,1.4c0.8,4.6,3.5,7.9,6.4,11.4c3.5,4.2,7.1,8.6,7.1,15.1
				C-285.2,1497.2-289.1,1503-295.1,1505.5z"/>
		</defs>
		<clipPath id="SVGID_00000170985561148201900040000010881914725057196725_">
			<use xlink:href="#SVGID_1_"  style="overflow:visible;"/>
		</clipPath>
	</g>
</g>
<g>
	<g>
		<defs>
			<path id="SVGID_00000043417693288722456570000007273597688665135753_" d="M-318.2,1519.1c-9.9-0.2-18-8.2-18.2-18.2h3.4
				c0.2,8,6.7,14.5,14.7,14.7v3.5H-318.2z M-321.4,1471.7c-2.2,5-5.7,9-9.2,13c-5.1,5.8-10,11.2-10,19.2c0,10,9,18.7,19.2,18.7
				s19.1-8.7,19.1-18.7c0-7.9-4.8-13.4-9.9-19.2C-315.7,1480.7-319.2,1476.7-321.4,1471.7z M-321.4,1526
				c-12.1,0-22.6-10.3-22.6-22.1c0-9.2,5.5-15.4,10.8-21.4c4.6-5.2,8.9-10,10.1-16.8c0.2-0.8,0.9-1.4,1.7-1.4c0.8,0,1.5,0.6,1.7,1.4
				c1.3,6.8,5.6,11.6,10.1,16.8c5.3,6,10.8,12.2,10.8,21.4C-298.8,1515.7-309.4,1526-321.4,1526z"/>
		</defs>
		<clipPath id="SVGID_00000083776303858097132240000013650983963526550155_">
			<use xlink:href="#SVGID_00000043417693288722456570000007273597688665135753_"  style="overflow:visible;"/>
		</clipPath>
	</g>
</g>
<g>
	<g>
		<defs>
			<path id="SVGID_00000000916655373953127340000007455358339515664810_" d="M205.1,1307l-11.8-16.8l6,0.1c-0.2-7.4,2.8-14.9,8.4-21
				c6.2-6.8,14.5-10.6,22.7-10.3c16.5,0.4,24.5,12.2,24.8,12.7l-2.8,1.8c-0.1-0.1-7.4-10.9-22.1-11.3c-7.2-0.2-14.7,3.3-20.2,9.2
				c-5.4,5.8-8,13.2-7.4,20.2l0.2,1.9h-3.1l5.1,7.3l4.1-7.1l-3.5,0.1l0.1-1.8c0-0.4,0.6-10.4,7-17.5c7.4-8.3,17.3-7.9,17.7-7.8
				l-0.2,3.4c-0.1,0-8.8-0.3-15.1,6.7c-4.1,4.6-5.5,10.7-6,13.7l5.7-0.1L205.1,1307z"/>
		</defs>
		<clipPath id="SVGID_00000129892125090890544260000011198624717727745183_">
			<use xlink:href="#SVGID_00000000916655373953127340000007455358339515664810_"  style="overflow:visible;"/>
		</clipPath>
	</g>
</g>
<g>
	<g>
		<defs>
			<path id="SVGID_00000129200850308771472400000002492564434084399800_" d="M230.8,1322.8c-0.2,0-0.4,0-0.6,0
				c-16.5-0.4-24.5-12.2-24.8-12.7l2.8-1.8c0.1,0.1,7.4,10.9,22.1,11.3c7.2,0.2,14.7-3.3,20.2-9.2c5.4-5.8,8-13.2,7.4-20.2l-0.2-1.9
				h3.1l-5.1-7.3l-4.1,7.1l3.5-0.1l-0.1,1.8c0,0.4-0.6,10.4-7,17.5c-7.4,8.3-17.3,7.9-17.7,7.8l0.2-3.4c0.1,0,8.8,0.3,15.1-6.7
				c4.1-4.6,5.5-10.7,6-13.7l-5.7,0.1l9.8-16.7l11.8,16.8l-6-0.1c0.2,7.4-2.8,14.9-8.4,21C246.8,1319.1,238.8,1322.8,230.8,1322.8z"
				/>
		</defs>
		<clipPath id="SVGID_00000019677415316982833430000012688696249123046037_">
			<use xlink:href="#SVGID_00000129200850308771472400000002492564434084399800_"  style="overflow:visible;"/>
		</clipPath>
	</g>
</g>
<g>
	<g>
		<defs>
			<path id="SVGID_00000005266731647932903270000018204410707554866616_" d="M230.4,1287.3c-1.9,0-3.5,1.6-3.5,3.5
				c0,2,1.6,3.5,3.5,3.5s3.5-1.6,3.5-3.5S232.3,1287.3,230.4,1287.3z M230.4,1297.7c-3.8,0-6.8-3.1-6.8-6.9s3-6.9,6.8-6.9
				s6.8,3.1,6.8,6.9S234.1,1297.7,230.4,1297.7z"/>
		</defs>
		<clipPath id="SVGID_00000160890872654986256810000014260011414927463577_">
			<use xlink:href="#SVGID_00000005266731647932903270000018204410707554866616_"  style="overflow:visible;"/>
		</clipPath>
	</g>
</g>
<g>
	<path class="st0" d="M46.6,17.4H17.5c-2,0-3.7,1.7-3.7,4v53.3c0,2.2,1.6,4,3.7,4h29.1c2,0,3.7-1.7,3.7-4V21.4
		C50.2,19.2,48.6,17.4,46.6,17.4z M16.7,28h30.7v37.8H16.7V28z M17.5,20.2h29.1c0.4,0,0.9,0.6,0.9,1.1V25H16.7v-3.6
		C16.7,20.8,17.1,20.2,17.5,20.2z M46.6,75.8H17.5c-0.4,0-0.9-0.6-0.9-1.1v-6.2h30.7v6.2C47.3,75.3,47,75.8,46.6,75.8z"/>
	<path class="st0" d="M32.1,71.1C32,71.1,32,71,31.9,71c-0.3-0.1-0.7-0.1-1.1,0c-0.1,0-0.3,0.1-0.4,0.3c-0.3,0.3-0.4,0.6-0.4,1
		c0,0.1,0,0.4,0.1,0.6c0.1,0.1,0.1,0.3,0.3,0.4s0.3,0.3,0.4,0.3c0.1,0,0.3,0.1,0.6,0.1c0.3,0,0.4,0,0.6-0.1c0.1,0,0.3-0.1,0.4-0.3
		c0.1-0.1,0.3-0.3,0.3-0.4c0.1-0.1,0.1-0.3,0.1-0.6c0-0.4-0.1-0.7-0.4-1C32.3,71.1,32.3,71.1,32.1,71.1z"/>
	<path class="st0" d="M28.3,24.1H35c0.9,0,1.4-0.6,1.4-1.4c0-0.9-0.6-1.4-1.4-1.4h-6.7c-0.9,0-1.4,0.6-1.4,1.4
		C26.8,23.5,27.4,24.1,28.3,24.1z"/>
	<path class="st0" d="M45.9,8.3c-0.9,0-1.4,0.7-1.4,1.4c0,0.9,0.7,1.4,1.4,1.4c5.3-0.3,10,3.9,10.3,9.3c0,0.7,0.7,1.4,1.4,1.4l0,0
		c0.9,0,1.4-0.7,1.4-1.4C58.8,13.3,52.8,8,45.9,8.3z"/>
	<path class="st0" d="M47.5,1.3C46.6,1.3,46,2,46,2.7c0,0.9,0.7,1.4,1.4,1.4c8.3-0.4,15.3,6,15.8,14.2c0,0.7,0.7,1.4,1.4,1.4l0,0
		c0.9,0,1.4-0.7,1.4-1.4C65.7,8.5,57.4,0.9,47.5,1.3z"/>
</g>
</svg>
