<?xml version="1.0" encoding="utf-8"?>
<!-- Generator: Adobe Illustrator 26.0.2, SVG Export Plug-In . SVG Version: 6.00 Build 0)  -->
<svg version="1.0" id="Layer_1" xmlns="http://www.w3.org/2000/svg" xmlns:xlink="http://www.w3.org/1999/xlink" x="0px" y="0px"
	 viewBox="0 0 80 80" enable-background="new 0 0 80 80" xml:space="preserve">
<g>
	<path fill="#FFFFFF" d="M48.8,65.5H31.2V52.7h-2v13.8c0,0.6,0.4,1,1,1h19.5c0.6,0,1-0.4,1-1V52.7h-2V65.5z"/>
	<path fill="#FFFFFF" d="M46.2,20.7h-2.3v-8.2h-2v8.2h-3.7v-8.2h-2v8.2h-2.3c-3.8,0-6.8,3.1-6.8,6.8v22.9c0,0.6,0.4,1,1,1h24.1
		c0.6,0,1-0.4,1-1V27.5C53.1,23.8,50,20.7,46.2,20.7z M51.1,49.4H28.9V27.5c0-2.7,2.2-4.8,4.8-4.8h12.4c2.7,0,4.8,2.2,4.8,4.8V49.4z
		"/>
	<rect x="35" y="57.3" fill="#FFFFFF" width="2" height="4.6"/>
	<rect x="43" y="57.3" fill="#FFFFFF" width="2" height="4.6"/>
	<path fill="#FFFFFF" d="M46.3,33.3h-4.6l1-5.7c0.1-0.4-0.2-0.9-0.6-1.1c-0.4-0.2-0.9-0.1-1.2,0.2l-9.2,10.3
		c-0.3,0.3-0.3,0.7-0.2,1.1c0.2,0.4,0.5,0.6,0.9,0.6h4.6l-1,5.7c-0.1,0.4,0.2,0.9,0.6,1.1c0.1,0.1,0.3,0.1,0.4,0.1
		c0.3,0,0.6-0.1,0.7-0.3L47.1,35c0.3-0.3,0.3-0.7,0.2-1.1C47.1,33.6,46.7,33.3,46.3,33.3z M38.7,41.4l0.6-3.5c0-0.3,0-0.6-0.2-0.8
		s-0.5-0.4-0.8-0.4h-3.5l5.4-6.1l-0.6,3.5c0,0.3,0,0.6,0.2,0.8s0.5,0.4,0.8,0.4h3.5L38.7,41.4z"/>
</g>
</svg>
