<?xml version="1.0" encoding="utf-8"?>
<!-- Generator: Adobe Illustrator 26.2.1, SVG Export Plug-In . SVG Version: 6.00 Build 0)  -->
<svg version="1.0" id="Layer_1" xmlns="http://www.w3.org/2000/svg" xmlns:xlink="http://www.w3.org/1999/xlink" x="0px" y="0px"
	 viewBox="0 0 80 80" enable-background="new 0 0 80 80" xml:space="preserve">
<g>
	<path fill="#FFFFFF" d="M64.7,52l-0.8-1.8c1.4-0.6,2.6-1.9,4.1-4.5c-1.6-0.7-3.3-0.9-4.9-0.5c-2.3,0.6-4.4,2.5-6,5.3l-1.7-1
		c1.9-3.3,4.4-5.5,7.3-6.3c2.4-0.6,4.9-0.3,7.3,1.1l0.8,0.5l-0.5,0.9C68.6,48.8,67,51.1,64.7,52z"/>
	<path fill="#FFFFFF" d="M56.1,61.2c-0.1,0-0.3,0-0.4,0c-2.3-0.1-4.6-1.2-6.8-3.3l-0.7-0.7l0.7-0.7c4.9-5.1,11.2-5.6,15.8-1.2
		l0.7,0.7l-0.7,0.7C61.8,59.7,58.9,61.2,56.1,61.2z M51,57.2c1.6,1.3,3.1,2,4.7,2.1c2.2,0.1,4.4-1,6.8-3.2
		C59,53.3,54.8,53.7,51,57.2z"/>
	<path fill="#FFFFFF" d="M60.7,42.2l-2-0.1c0.5-7,5-11.5,11.4-11.1l1,0.1L71,32c-0.3,4.5-1.8,7.7-4.3,9.5l-1.1-1.6
		c1.9-1.3,3-3.6,3.4-6.9C64.2,33.1,61.1,36.6,60.7,42.2z"/>
	<path fill="#FFFFFF" d="M58.5,33.6c-2.2-6.7,0.4-12.5,6.5-14.5l1-0.3l0.3,1c1.4,4.3,1.2,7.8-0.5,10.4L64,29
		c1.3-1.9,1.4-4.5,0.6-7.7c-4.3,1.9-6,6.2-4.2,11.6L58.5,33.6z"/>
	<path fill="#FFFFFF" d="M15.3,52c-2.3-1-3.9-3.2-5.6-6.2l-0.5-0.9l0.8-0.5c2.4-1.4,4.9-1.8,7.3-1.1c2.9,0.8,5.4,2.9,7.3,6.3l-1.7,1
		c-1.6-2.9-3.7-4.7-6-5.3c-1.6-0.4-3.3-0.3-4.9,0.5c1.5,2.6,2.7,3.9,4.1,4.5L15.3,52z"/>
	<path fill="#FFFFFF" d="M23.9,61.2c-2.9,0-5.8-1.5-8.7-4.5L14.6,56l0.7-0.7c2.2-2.1,4.9-3.2,7.8-3c2.8,0.2,5.6,1.6,8.1,4.2l0.7,0.7
		l-0.7,0.7c-2.2,2.1-4.4,3.2-6.8,3.3C24.2,61.2,24.1,61.2,23.9,61.2z M17.5,56.1c2.3,2.2,4.6,3.3,6.8,3.2c1.6-0.1,3.1-0.8,4.7-2.1
		c-1.9-1.7-4-2.7-6-2.9C21,54.2,19.1,54.8,17.5,56.1z"/>
	<path fill="#FFFFFF" d="M19.3,42.2c-0.4-5.6-3.5-9.1-8.2-9.2c0.4,3.3,1.5,5.6,3.4,6.9l-1.1,1.6c-2.6-1.8-4-5-4.3-9.5l-0.1-1l1-0.1
		c6.3-0.4,10.9,4,11.4,11.1L19.3,42.2z"/>
	<path fill="#FFFFFF" d="M21.5,33.6L19.6,33c1.7-5.4,0.1-9.7-4.2-11.6c-0.9,3.2-0.7,5.8,0.6,7.7l-1.7,1.1c-1.7-2.6-1.9-6.1-0.5-10.4
		l0.3-1l1,0.3C21.1,21,23.7,26.8,21.5,33.6z"/>
	<path fill="#FFFFFF" d="M47.4,50.5c-0.2,0-0.3,0-0.5-0.1l-7-3.6l-7,3.6c-0.3,0.2-0.8,0.1-1.1-0.1c-0.3-0.2-0.5-0.6-0.4-1l1.5-7.4
		l-5.8-5.6c-0.3-0.3-0.4-0.7-0.2-1.1c0.1-0.4,0.5-0.6,0.9-0.7l7.8-0.6l3.3-7.5c0.2-0.4,0.5-0.6,0.9-0.6s0.8,0.2,0.9,0.6l3.3,7.5
		l7.8,0.6c0.4,0,0.7,0.3,0.9,0.7c0.1,0.4,0,0.8-0.2,1.1l-5.8,5.6l1.5,7.4c0.1,0.4-0.1,0.8-0.4,1C47.8,50.5,47.6,50.5,47.4,50.5z
		 M40,44.7c0.2,0,0.3,0,0.5,0.1l5.6,2.9l-1.2-5.9c-0.1-0.3,0-0.7,0.3-0.9l4.6-4.4l-6.2-0.5c-0.4,0-0.7-0.3-0.8-0.6l-2.7-6l-2.7,6
		c-0.1,0.3-0.5,0.6-0.8,0.6l-6.2,0.5l4.6,4.5c0.2,0.2,0.4,0.6,0.3,0.9L34,47.6l5.6-2.9C39.7,44.7,39.8,44.7,40,44.7z"/>
</g>
</svg>
