<?xml version="1.0" encoding="utf-8"?>
<!-- Generator: Adobe Illustrator 26.0.2, SVG Export Plug-In . SVG Version: 6.00 Build 0)  -->
<svg version="1.0" id="Layer_1" xmlns="http://www.w3.org/2000/svg" xmlns:xlink="http://www.w3.org/1999/xlink" x="0px" y="0px"
	 viewBox="0 0 80 80" enable-background="new 0 0 80 80" xml:space="preserve">
<g>
	<path fill="#FFFFFF" d="M18.7,50.9l5.1-9.1c0.2-0.3,0.2-0.7,0-1c-0.2-0.3-0.5-0.5-0.9-0.5h-1.6V40c0-10.2,8.3-18.5,18.5-18.5
		c0.6,0,1-0.4,1-1s-0.4-1-1-1c-11.3,0-20.5,9.2-20.5,20.5v1.4c0,0.6,0.4,1,1,1h0.9l-3.5,6.2l-4.5-6.2h0.8c0.6,0,1-0.4,1-1V40
		c0-13.8,11.2-25,25-25c8,0,15.6,3.8,20.3,10.3c0.3,0.4,1,0.5,1.4,0.2c0.4-0.3,0.5-1,0.2-1.4C56.9,17.2,48.7,13,40.1,13
		c-14.9,0-27,12.1-27,27v0.4h-1.7c-0.4,0-0.7,0.2-0.9,0.5c-0.2,0.3-0.1,0.7,0.1,1L17,51c0.2,0.3,0.5,0.4,0.8,0.4c0,0,0,0,0.1,0
		C18.3,51.4,18.6,51.2,18.7,50.9z"/>
	<path fill="#FFFFFF" d="M69.5,38.1L63,29c-0.2-0.3-0.5-0.4-0.9-0.4c-0.3,0-0.6,0.2-0.8,0.5l-5.1,9.1c-0.2,0.3-0.2,0.7,0,1
		s0.5,0.5,0.9,0.5h1.6V40c0,10.2-8.3,18.5-18.5,18.5c-0.6,0-1,0.4-1,1s0.4,1,1,1c11.3,0,20.5-9.2,20.5-20.5v-1.4c0-0.6-0.4-1-1-1
		h-0.9l3.5-6.2l4.5,6.2h-0.6c-0.6,0-1,0.4-1,1V40c0,13.8-11.2,25-25,25c-8,0-15.6-3.8-20.3-10.3c-0.3-0.4-1-0.5-1.4-0.2
		c-0.4,0.3-0.5,1-0.2,1.4c5.1,7,13.3,11.1,21.9,11.1c14.9,0,27-12.1,27-27v-0.4h1.6c0.4,0,0.7-0.2,0.9-0.5
		C69.7,38.8,69.7,38.4,69.5,38.1z"/>
	<path fill="#FFFFFF" d="M52.5,36.7c0.1-0.3,0-0.5-0.1-0.8l-2.7-4.6c-0.3-0.5-0.9-0.6-1.4-0.4l-2,1.1c-0.9-0.7-1.8-1.3-2.8-1.7v-2.3
		c0-0.6-0.4-1-1-1h-5.1c-0.6,0-1,0.4-1,1v2.3c-0.9,0.4-1.8,0.9-2.8,1.7l-2-1.1c-0.2-0.1-0.5-0.2-0.8-0.1c-0.3,0.1-0.5,0.2-0.6,0.5
		l-2.6,4.5c-0.3,0.5-0.1,1.1,0.4,1.4l2,1.1c-0.1,0.5-0.2,1-0.2,1.5c0,0.5,0.1,1,0.2,1.7l-2,1.1c-0.5,0.3-0.6,0.9-0.4,1.4l2.6,4.5
		c0.1,0.2,0.4,0.4,0.6,0.5c0.3,0.1,0.5,0,0.8-0.1l1.9-1.1c0.9,0.7,1.9,1.2,2.8,1.6v2.3c0,0.6,0.4,1,1,1h5.1c0.6,0,1-0.4,1-1v-2.3
		c1-0.4,1.9-0.9,2.8-1.5l2,1.1c0.2,0.1,0.5,0.2,0.8,0.1c0.3-0.1,0.5-0.2,0.6-0.5l2.6-4.5c0.3-0.5,0.1-1.1-0.4-1.4l-1.9-1.1
		c0.1-0.6,0.2-1.1,0.2-1.7c0-0.5-0.1-1-0.1-1.5l1.9-1.1C52.3,37.2,52.5,37,52.5,36.7z M48.5,37.1c-0.4,0.2-0.6,0.7-0.5,1.1
		c0.1,0.4,0.2,1.2,0.2,1.8c0,0.6-0.1,1.3-0.3,1.8c-0.2,0.5,0,1,0.4,1.2l1.7,1l-1.6,2.7l-1.7-1c-0.4-0.2-0.8-0.2-1.2,0.1
		c-1,0.8-2.1,1.5-3.3,1.8c-0.4,0.1-0.7,0.5-0.7,1v2h-3.1v-2c0-0.4-0.2-0.8-0.6-0.9c-1.6-0.6-2.6-1.2-3.3-1.9
		c-0.3-0.3-0.8-0.4-1.2-0.2l-1.7,1l-1.6-2.7l1.7-1c0.4-0.2,0.6-0.6,0.5-1.1c-0.2-0.8-0.3-1.5-0.3-2c0-0.6,0.1-1.2,0.3-1.8
		c0.1-0.4-0.1-0.8-0.5-1.1l-1.7-1l1.6-2.7l1.7,1c0.4,0.2,0.8,0.2,1.2-0.1c1.1-1,2.2-1.6,3.3-2c0.4-0.1,0.7-0.5,0.7-1v-2h3.1v2
		c0,0.4,0.3,0.8,0.7,1c1.1,0.3,2.1,1,3.3,2c0.3,0.3,0.8,0.3,1.2,0.1l1.7-1l1.7,2.9L48.5,37.1z"/>
	<path fill="#FFFFFF" d="M40.1,35.1c-2.7,0-4.9,2.2-4.9,4.9s2.2,4.9,4.9,4.9S45,42.7,45,40S42.8,35.1,40.1,35.1z M40.1,42.9
		c-1.6,0-2.9-1.3-2.9-2.9s1.3-2.9,2.9-2.9c1.6,0,2.9,1.3,2.9,2.9S41.7,42.9,40.1,42.9z"/>
</g>
</svg>
