<?xml version="1.0" encoding="utf-8"?>
<!-- Generator: Adobe Illustrator 26.0.3, SVG Export Plug-In . SVG Version: 6.00 Build 0)  -->
<svg version="1.0" id="Layer_1" xmlns="http://www.w3.org/2000/svg" xmlns:xlink="http://www.w3.org/1999/xlink" x="0px" y="0px"
	 viewBox="0 0 80 80" enable-background="new 0 0 80 80" xml:space="preserve">
<g>
	<path fill="#FFFFFF" d="M65.9,43.6c-2.1-1.2-4.3-1.6-6.4-1c-2.5,0.7-4.7,2.5-6.4,5.4c-0.3,0.5-0.1,1.1,0.4,1.4
		c0.5,0.3,1.1,0.1,1.4-0.4c1.4-2.4,3.2-4,5.1-4.5c1.3-0.3,2.7-0.2,4,0.4c-1.2,2.1-2.2,3.2-3.4,3.6c-0.5,0.2-0.8,0.8-0.6,1.3
		c0.2,0.4,0.5,0.6,0.9,0.6c0.1,0,0.2,0,0.4-0.1c2.1-0.8,3.5-2.8,4.9-5.4C66.6,44.5,66.4,43.9,65.9,43.6z"/>
	<path fill="#FFFFFF" d="M55,50.4c-2.6,0.1-5.2,1.3-7.5,3.7c-0.4,0.4-0.4,1,0,1.4c2,1.9,4.1,2.9,6.3,2.9c0.1,0,0.1,0,0.2,0
		c2.5-0.1,4.9-1.4,7.4-4c0.4-0.4,0.4-1,0-1.4C59.5,51.3,57.3,50.3,55,50.4z M54,56.4c-1.5,0-2.9-0.5-4.3-1.7
		c1.7-1.5,3.5-2.3,5.3-2.4c1.5,0,2.9,0.5,4.2,1.4C57.4,55.5,55.7,56.4,54,56.4z"/>
	<path fill="#FFFFFF" d="M56.1,41.6c0,0.6,0.4,1,0.9,1.1c0,0,0.1,0,0.1,0c0.5,0,1-0.4,1-0.9c0.4-4.8,2.9-7.7,6.8-7.9
		c-0.4,2.8-1.3,4.7-2.8,5.8c-0.5,0.3-0.6,0.9-0.3,1.4c0.3,0.5,0.9,0.6,1.4,0.3c2.2-1.5,3.5-4.3,3.8-8.3c0-0.3-0.1-0.5-0.2-0.7
		c-0.2-0.2-0.4-0.3-0.7-0.3C60.5,31.5,56.6,35.3,56.1,41.6z"/>
	<path fill="#FFFFFF" d="M56.7,35c0.1,0,0.2,0,0.3,0c0.5-0.2,0.8-0.7,0.6-1.3c-0.8-2.5-0.8-4.9,0.2-6.7c0.7-1.3,1.8-2.4,3.3-3.1
		c0.7,2.7,0.6,4.8-0.5,6.4c-0.3,0.5-0.2,1.1,0.3,1.4c0.5,0.3,1.1,0.2,1.4-0.3c1.6-2.3,1.7-5.3,0.5-9.1c-0.2-0.5-0.7-0.8-1.3-0.6
		c-2.5,0.8-4.3,2.3-5.4,4.4c-1.2,2.4-1.3,5.2-0.3,8.3C55.9,34.7,56.3,35,56.7,35z"/>
	<path fill="#FFFFFF" d="M19,50.5c0.4,0,0.8-0.2,0.9-0.6c0.2-0.5,0-1.1-0.6-1.3c-1.2-0.5-2.2-1.5-3.4-3.6c1.3-0.6,2.7-0.7,4-0.4
		c2,0.5,3.7,2.1,5.1,4.5c0.3,0.5,0.9,0.6,1.4,0.4c0.5-0.3,0.6-0.9,0.4-1.4c-1.7-2.9-3.9-4.8-6.4-5.4c-2.1-0.6-4.3-0.2-6.4,1
		c-0.5,0.3-0.6,0.9-0.4,1.3c1.4,2.7,2.8,4.6,4.9,5.4C18.7,50.5,18.9,50.5,19,50.5z"/>
	<path fill="#FFFFFF" d="M25,50.4c-2.3,0-4.5,0.9-6.4,2.7c-0.4,0.4-0.4,1,0,1.4c2.4,2.6,4.9,3.9,7.4,4c0.1,0,0.1,0,0.2,0
		c2.2,0,4.3-1,6.3-2.9c0.4-0.4,0.4-1,0-1.4C30.2,51.7,27.6,50.4,25,50.4z M26,56.4c-1.7,0-3.4-0.9-5.2-2.6c1.3-1,2.7-1.5,4.2-1.4
		c1.8,0,3.6,0.9,5.3,2.4C28.9,55.9,27.4,56.5,26,56.4z"/>
	<path fill="#FFFFFF" d="M16.8,41.3c0.5,0.3,1.1,0.2,1.4-0.3c0.3-0.5,0.2-1.1-0.3-1.4c-1.5-1-2.5-2.9-2.8-5.8
		c3.9,0.2,6.5,3.1,6.8,7.9c0,0.5,0.5,0.9,1,0.9c0,0,0.1,0,0.1,0c0.6,0,1-0.5,0.9-1.1c-0.5-6.3-4.4-10.1-10-9.7
		c-0.3,0-0.5,0.1-0.7,0.3c-0.2,0.2-0.3,0.5-0.2,0.7C13.3,37,14.6,39.7,16.8,41.3z"/>
	<path fill="#FFFFFF" d="M19.1,31.6c0.5-0.3,0.6-0.9,0.3-1.4c-1.1-1.5-1.2-3.6-0.5-6.4c1.5,0.7,2.6,1.7,3.3,3.1c1,1.9,1,4.2,0.2,6.7
		c-0.2,0.5,0.1,1.1,0.6,1.3c0.1,0,0.2,0,0.3,0c0.4,0,0.8-0.3,1-0.7c1-3.1,0.9-5.9-0.3-8.3c-1.1-2.1-3-3.6-5.4-4.4
		c-0.5-0.2-1.1,0.1-1.3,0.6c-1.3,3.9-1.1,6.9,0.5,9.1C18,31.8,18.6,32,19.1,31.6z"/>
	<path fill="#FFFFFF" d="M47.4,47.9l-1.4-6.4l5-4.8c0.3-0.3,0.4-0.7,0.2-1.1c-0.1-0.4-0.5-0.6-0.9-0.7l-6.7-0.5l-2.8-6.5
		c-0.2-0.4-0.5-0.6-0.9-0.6s-0.8,0.2-0.9,0.6l-2.8,6.5L29.5,35c-0.4,0-0.7,0.3-0.9,0.7c-0.1,0.4,0,0.8,0.2,1.1l5,4.8l-1.4,6.4
		c-0.1,0.4,0.1,0.8,0.4,1c0.2,0.1,0.4,0.2,0.6,0.2c0.2,0,0.3,0,0.5-0.1l6-3.1l6,3.1c0.3,0.2,0.8,0.1,1.1-0.1
		C47.4,48.7,47.5,48.3,47.4,47.9z M44,41.4l1,4.8l-4.6-2.4c-0.3-0.2-0.6-0.2-0.9,0L35,46.2l1-4.8c0.1-0.3,0-0.7-0.3-0.9l-3.8-3.7
		l5.1-0.4c0.4,0,0.7-0.3,0.8-0.6L40,31l2.1,4.9c0.1,0.3,0.5,0.6,0.8,0.6l5.1,0.4l-3.8,3.7C44,40.7,43.9,41.1,44,41.4z"/>
</g>
<g>
	<defs>
		<path id="SVGID_1_" d="M861.9-88.3c-1.9,0-3.5,1.6-3.5,3.5c0,2,1.6,3.5,3.5,3.5s3.5-1.6,3.5-3.5C865.4-86.7,863.8-88.3,861.9-88.3
			z M861.9-77.9c-3.8,0-6.8-3.1-6.8-6.9c0-3.8,3-6.9,6.8-6.9c3.8,0,6.8,3.1,6.8,6.9S865.7-77.9,861.9-77.9z"/>
	</defs>
	<clipPath id="SVGID_00000039850310633687405740000002621927107063590325_">
		<use xlink:href="#SVGID_1_"  overflow="visible"/>
	</clipPath>
	<g clip-path="url(#SVGID_00000039850310633687405740000002621927107063590325_)">
		<defs>
			<rect id="SVGID_00000008136113896818687030000003577994485048588988_" x="61.7" y="-4995" width="1920" height="12072"/>
		</defs>
		<clipPath id="SVGID_00000080167208475722627070000000700714344440509595_">
			<use xlink:href="#SVGID_00000008136113896818687030000003577994485048588988_"  overflow="visible"/>
		</clipPath>
	</g>
</g>
</svg>
