<?xml version="1.0" encoding="utf-8"?>
<!-- Generator: Adobe Illustrator 26.2.1, SVG Export Plug-In . SVG Version: 6.00 Build 0)  -->
<svg version="1.0" id="Layer_1" xmlns="http://www.w3.org/2000/svg" xmlns:xlink="http://www.w3.org/1999/xlink" x="0px" y="0px"
	 viewBox="0 0 80 80" enable-background="new 0 0 80 80" xml:space="preserve">
<g>
	<path fill="#FFFFFF" d="M44.8,23.7H23.7c-1.4,0-2.6,1.3-2.6,2.8v38.7c0,1.6,1.2,2.8,2.6,2.8h21.1c1.4,0,2.6-1.3,2.6-2.8V26.5
		C47.4,24.9,46.2,23.7,44.8,23.7z M23.7,25.7h21.1c0.3,0,0.6,0.4,0.6,0.8v2.7H23.1v-2.7C23.1,26.1,23.4,25.7,23.7,25.7z M45.4,31.2
		v27.4H23.1V31.2H45.4z M44.8,66H23.7c-0.3,0-0.6-0.4-0.6-0.8v-4.5h22.3v4.5C45.4,65.6,45.1,66,44.8,66z"/>
	<rect x="31.5" y="26.4" fill="#FFFFFF" width="4.9" height="2"/>
	<path fill="#FFFFFF" d="M50.8,19.4c-1.8-1.6-4.1-2.5-6.6-2.4l0.1,2c1.9-0.1,3.7,0.6,5.1,1.8c1.4,1.3,2.2,3,2.3,4.9l2-0.1
		C53.7,23.3,52.6,21.1,50.8,19.4z"/>
	<path fill="#FFFFFF" d="M54.7,15.3c-2.6-2.3-5.9-3.5-9.3-3.3l0.1,2c2.9-0.1,5.7,0.9,7.9,2.8s3.4,4.6,3.6,7.6l2-0.1
		C58.8,20.8,57.3,17.7,54.7,15.3z"/>
</g>
</svg>
