<?xml version="1.0" encoding="utf-8"?>
<!-- Generator: Adobe Illustrator 27.2.0, SVG Export Plug-In . SVG Version: 6.00 Build 0)  -->
<svg version="1.1" id="Layer_1" xmlns="http://www.w3.org/2000/svg" xmlns:xlink="http://www.w3.org/1999/xlink" x="0px" y="0px"
	 viewBox="0 0 80 80" style="enable-background:new 0 0 80 80;" xml:space="preserve">
<metadata><?xpacket begin="﻿" id="W5M0MpCehiHzreSzNTczkc9d"?>
<x:xmpmeta xmlns:x="adobe:ns:meta/" x:xmptk="Adobe XMP Core 7.1-c000 79.4d2f597, 2021/09/01-20:51:22        ">
   <rdf:RDF xmlns:rdf="http://www.w3.org/1999/02/22-rdf-syntax-ns#">
      <rdf:Description rdf:about=""
            xmlns:xmp="http://ns.adobe.com/xap/1.0/"
            xmlns:xmpMM="http://ns.adobe.com/xap/1.0/mm/"
            xmlns:stEvt="http://ns.adobe.com/xap/1.0/sType/ResourceEvent#">
         <xmp:MetadataDate>2023-03-14T09:56:42+01:00</xmp:MetadataDate>
         <xmpMM:InstanceID>xmp.iid:256673f2-c736-4372-8056-4645ae75f471</xmpMM:InstanceID>
         <xmpMM:DocumentID>xmp.did:c46a1450-e5a5-49b7-a505-623e2523b6b5</xmpMM:DocumentID>
         <xmpMM:OriginalDocumentID>xmp.did:c46a1450-e5a5-49b7-a505-623e2523b6b5</xmpMM:OriginalDocumentID>
         <xmpMM:History>
            <rdf:Seq>
               <rdf:li>
                  <rdf:Description>
                     <stEvt:action>saved</stEvt:action>
                     <stEvt:instanceID>xmp.iid:c46a1450-e5a5-49b7-a505-623e2523b6b5</stEvt:instanceID>
                     <stEvt:when>2023-03-14T09:56:41+01:00</stEvt:when>
                     <stEvt:softwareAgent>Adobe Bridge 2022 (Macintosh)</stEvt:softwareAgent>
                     <stEvt:changed>/metadata</stEvt:changed>
                  </rdf:Description>
               </rdf:li>
               <rdf:li>
                  <rdf:Description>
                     <stEvt:action>saved</stEvt:action>
                     <stEvt:instanceID>xmp.iid:256673f2-c736-4372-8056-4645ae75f471</stEvt:instanceID>
                     <stEvt:when>2023-03-14T09:56:42+01:00</stEvt:when>
                     <stEvt:softwareAgent>Adobe Bridge 2022 (Macintosh)</stEvt:softwareAgent>
                     <stEvt:changed>/metadata</stEvt:changed>
                  </rdf:Description>
               </rdf:li>
            </rdf:Seq>
         </xmpMM:History>
      </rdf:Description>
   </rdf:RDF>
</x:xmpmeta>
                                                                                                    
                                                                                                    
                                                                                                    
                                                                                                    
                                                                                                    
                                                                                                    
                                                                                                    
                                                                                                    
                                                                                                    
                                                                                                    
                                                                                                    
                                                                                                    
                                                                                                    
                                                                                                    
                                                                                                    
                                                              
<?xpacket end="w"?></metadata>
<style type="text/css">
	.st0{fill:#FFFFFF;}
</style>
<g>
	<path class="st0" d="M65.8,17.3c-3.5-4.2-6.7-8-7.6-13.6C58,3,57.5,2.6,56.8,2.6l0,0c-0.7,0-1.2,0.6-1.4,1.1
		c-0.8,5.4-4,9.3-7.3,13.3c-1,1.2-1.9,2.5-2.9,3.7c-0.4,0.6-0.3,1.5,0.3,1.9c0.6,0.4,1.5,0.3,1.9-0.3c1-1.2,1.9-2.5,2.9-3.6
		c2.5-3,5-6.1,6.7-10c1.7,3.9,4.3,7.1,6.8,10.1c3.9,4.7,7.5,9.1,7.5,15.7c0,6.1-4,12.1-9.7,14.3c-0.7,0.3-1.1,1.1-0.8,1.8
		c0.3,0.6,0.7,0.8,1.2,0.8c0.1,0,0.3,0,0.6-0.1c6.7-2.6,11.4-9.6,11.4-16.9C74,27.2,69.8,22.1,65.8,17.3z"/>
	<path class="st0" d="M33.5,7c-0.1-0.7-0.7-1.1-1.4-1.1c-0.7,0-1.2,0.4-1.4,1.1c-1.5,8-6.9,14.1-12.1,20C12.4,34,6.1,41.2,6.1,51.9
		c0,13.6,12.2,25.5,26.1,25.5s26.1-11.9,26.1-25.5c0-10.5-6.4-17.7-12.5-24.7C40.4,21.3,35,15.2,33.5,7z M32.1,74.7
		C19.6,74.7,8.8,64,8.8,51.9c0-9.7,5.8-16.2,11.9-23.2c4.4-5,8.9-10.1,11.4-16.5c2.5,6.5,7.1,11.8,11.5,16.8
		c6.1,6.9,11.8,13.3,11.8,22.9C55.4,64,44.6,74.7,32.1,74.7z"/>
	<path class="st0" d="M36,66.8c-9.6,0-18-8.5-18-18c0-0.8-0.6-1.4-1.4-1.4c-0.8,0-1.4,0.6-1.4,1.4c0,11.1,9.7,20.8,20.8,20.8
		c0.8,0,1.4-0.6,1.4-1.4S36.7,66.8,36,66.8z"/>
</g>
</svg>
