<?xml version="1.0" encoding="utf-8"?>
<!-- Generator: Adobe Illustrator 26.0.2, SVG Export Plug-In . SVG Version: 6.00 Build 0)  -->
<svg version="1.0" id="Layer_1" xmlns="http://www.w3.org/2000/svg" xmlns:xlink="http://www.w3.org/1999/xlink" x="0px" y="0px"
	 viewBox="0 0 80 80" enable-background="new 0 0 80 80" xml:space="preserve">
<g>
	<path fill="#FFFFFF" d="M61.5,22c-6,0-18.8-6.1-20.7-8.6C40.6,13.2,40.3,13,40,13s-0.6,0.2-0.8,0.4C37.3,16.1,23.8,22,18.5,22
		c-0.6,0-1,0.4-1,1v21.5c0,11,21,22.1,22.2,22.4c0.1,0,0.2,0,0.3,0c0.1,0,0.2,0,0.3,0c1-0.3,22.2-12.2,22.2-21.3V23
		C62.5,22.5,62,22,61.5,22z M60.5,45.7c0,7-17.6,17.9-20.5,19.3c-2.7-1.3-20.5-11.4-20.5-20.4V24c5.6-0.6,16.9-5.3,20.5-8.5
		c3.5,3.2,14.4,8,20.5,8.5V45.7z"/>
	<path fill="#FFFFFF" d="M35.7,26.1l-4.5,14.7c-0.1,0.3,0,0.6,0.2,0.9c0.2,0.3,0.5,0.4,0.8,0.4h3.4l-1,10.2c0,0.4,0.2,0.9,0.6,1
		c0.1,0,0.3,0.1,0.4,0.1c0.3,0,0.6-0.1,0.8-0.4l13.6-17c0.2-0.3,0.3-0.7,0.1-1.1c-0.2-0.3-0.5-0.6-0.9-0.6h-5.3l2.9-7.7
		c0.1-0.3,0.1-0.7-0.1-0.9c-0.2-0.3-0.5-0.4-0.8-0.4h-9C36.2,25.4,35.8,25.7,35.7,26.1z M44.2,27.4l-2.9,7.7
		c-0.1,0.3-0.1,0.7,0.1,0.9c0.2,0.3,0.5,0.4,0.8,0.4H47L36.8,49.2l0.8-7.9c0-0.3-0.1-0.6-0.3-0.8c-0.2-0.2-0.5-0.3-0.7-0.3h-3.2
		l3.9-12.7H44.2z"/>
</g>
</svg>
