<svg width="350" height="50" viewBox="0 0 350 50" fill="none" xmlns="http://www.w3.org/2000/svg">
<g clip-path="url(#clip0_29497_7946)">
<path d="M26.91 12.85H14L12.52 22.46H24.64L23.5 29.87H11.38L8.36 49.08H0L6.77 5.44H28.05L26.91 12.85ZM50.38 36.17H32.01C31.5 39.76 32.18 43.81 36.33 43.81C38.95 43.81 40.88 42.19 42.3 39.93L49.47 41.15C46.63 46.82 41.22 50 35.36 50C26.71 50 22.45 43.75 23.76 35.13C25.13 26.51 30.64 19.74 39.69 19.74C48.74 19.74 51.86 26.63 50.56 35.19L50.39 36.17H50.38ZM33.03 31.13H43.67C43.73 28.24 42.36 25.4 39.29 25.4C36.22 25.4 33.89 28.18 33.03 31.13ZM61.96 20.66L61.56 23.21H61.67C63.55 20.95 66.45 19.74 69.01 19.74C72.48 19.74 74.98 21.19 76.35 24.2C78.51 21.42 81.92 19.74 85.17 19.74C92.28 19.74 93.19 25.18 92.22 31.37L89.49 49.08H81.53L83.86 34.15C84.26 31.37 85.28 26.22 81.36 26.22C77.04 26.22 76.13 32.18 75.67 35.13L73.51 49.08H65.55L67.77 34.67C68.23 31.89 69.48 26.22 65.32 26.22C60.88 26.22 60.14 32.12 59.69 35.13L57.53 49.08H49.57L54.01 20.67H61.97L61.96 20.66ZM105.06 20.66L104.66 23.21H104.77C106.65 20.95 109.55 19.74 112.11 19.74C115.58 19.74 118.08 21.19 119.45 24.2C121.61 21.42 125.02 19.74 128.27 19.74C135.38 19.74 136.29 25.18 135.32 31.37L132.59 49.08H124.63L126.96 34.15C127.36 31.37 128.38 26.22 124.46 26.22C120.14 26.22 119.23 32.18 118.77 35.13L116.61 49.08H108.65L110.87 34.67C111.33 31.89 112.58 26.22 108.42 26.22C103.98 26.22 103.24 32.12 102.79 35.13L100.63 49.08H92.67L97.11 20.67H105.07L105.06 20.66ZM162.55 36.17H144.18C143.67 39.76 144.35 43.81 148.5 43.81C151.12 43.81 153.05 42.19 154.47 39.93L161.64 41.15C158.8 46.82 153.39 50 147.53 50C138.88 50 134.62 43.75 135.93 35.13C137.3 26.51 142.81 19.74 151.86 19.74C160.91 19.74 164.03 26.63 162.73 35.19L162.56 36.17H162.55ZM145.2 31.13H155.84C155.9 28.24 154.53 25.4 151.46 25.4C148.39 25.4 146.06 28.18 145.2 31.13ZM200.96 39.87H186.06L181.11 49.07H172.29L196.01 4.28H202.5L211.77 49.07H202.84L200.96 39.87ZM199.71 32.93L196.87 17.07H196.76L189.54 32.93H199.72H199.71ZM251.26 20.66H258.29L255.9 36.05C255.39 39.29 255.27 43.17 259.31 43.17C263.35 43.17 264.49 39.29 265 36.05L267.39 20.66H275.35L272.73 37.38C271.42 45.66 266.53 50 258.22 50C249.91 50 246.39 45.66 247.7 37.38L249.25 27.48H245.28L241.92 49.07H233.96L237.32 27.48H234.59L235.67 20.65H238.4L239.88 11.04H247.84L246.36 20.65H251.25L251.26 20.66ZM234.84 21.53L233.65 29.34C232.23 27.6 230.69 26.56 228.25 26.56C223.76 26.56 220.51 30.84 219.83 35.01C219.15 39.47 221.37 43.17 225.92 43.17C228.08 43.17 230.24 42.07 231.95 40.45L230.7 48.26C228.37 49.48 225.98 50 223.53 50C215.28 50 210.5 43.11 211.81 34.95C213.12 26.5 220.23 19.73 228.65 19.73C230.87 19.73 233.14 20.31 234.85 21.52L234.84 21.53ZM300.76 36.17H282.39C281.88 39.76 282.56 43.81 286.71 43.81C289.33 43.81 291.26 42.19 292.68 39.93L299.85 41.15C297.01 46.82 291.6 50 285.74 50C277.09 50 272.83 43.75 274.14 35.13C275.51 26.51 281.02 19.74 290.07 19.74C299.12 19.74 302.24 26.63 300.94 35.19L300.77 36.17H300.76ZM283.41 31.13H294.05C294.11 28.24 292.74 25.4 289.67 25.4C286.6 25.4 284.27 28.18 283.41 31.13ZM315.53 0L307.91 49.07H299.95L307.57 0H315.53ZM326.6 0L318.98 49.07H311.02L318.64 0H326.6ZM348.88 36.17H330.51C330 39.76 330.68 43.81 334.83 43.81C337.45 43.81 339.38 42.19 340.8 39.93L347.97 41.15C345.13 46.82 339.72 50 333.86 50C325.21 50 320.95 43.75 322.26 35.13C323.63 26.51 329.14 19.74 338.19 19.74C347.24 19.74 350.36 26.63 349.06 35.19L348.89 36.17H348.88ZM331.53 31.13H342.17C342.23 28.24 340.86 25.4 337.79 25.4C334.72 25.4 332.39 28.18 331.53 31.13Z" fill="white"/>
</g>
<defs>
<clipPath id="clip0_29497_7946">
<rect width="349.34" height="50" fill="white"/>
</clipPath>
</defs>
</svg>
