<svg width="389" height="50" viewBox="0 0 389 50" fill="none" xmlns="http://www.w3.org/2000/svg">
<path fill-rule="evenodd" clip-rule="evenodd" d="M5.57895 5.48779H31.7553C34.8405 5.48779 37.3342 7.99179 37.3342 11.0718C37.3342 14.1598 34.8325 16.6558 31.7553 16.6558H5.57895C2.49374 16.6558 0 14.1518 0 11.0718C0 7.99179 2.50174 5.48779 5.57895 5.48779Z" fill="white"/>
<path fill-rule="evenodd" clip-rule="evenodd" d="M5.57895 19.2881H20.6133C23.6985 19.2881 26.1923 21.7921 26.1923 24.8721C26.1923 27.9601 23.6906 30.4561 20.6133 30.4561H5.57895C2.49374 30.4561 0 27.9521 0 24.8721C0 21.7841 2.50174 19.2881 5.57895 19.2881Z" fill="white"/>
<path d="M5.57096 44.2637C8.64771 44.2637 11.1419 41.7637 11.1419 38.6797C11.1419 35.5957 8.64771 33.0957 5.57096 33.0957C2.4942 33.0957 0 35.5957 0 38.6797C0 41.7637 2.4942 44.2637 5.57096 44.2637Z" fill="white"/>
<path d="M63.4225 33.96H57.4999V44.264H46.6377V5.488H64.1898C67.6667 5.488 70.6799 6.072 73.2456 7.232C75.8033 8.392 77.7775 10.056 79.1682 12.216C80.559 14.376 81.2544 16.912 81.2544 19.832C81.2544 22.752 80.6069 25.088 79.3041 27.176C78.0093 29.264 76.147 30.896 73.7332 32.08L82.0137 44.272H70.3842L63.4145 33.968L63.4225 33.96ZM69.0894 19.296C69.0894 17.544 68.5459 16.192 67.4668 15.224C66.3878 14.264 64.7813 13.776 62.6472 13.776H56.8844V24.752H62.6472C64.7733 24.752 66.3798 24.28 67.4668 23.336C68.5459 22.392 69.0894 21.04 69.0894 19.296ZM116.662 36.736H100.597L97.6155 44.272H86.6575L103.426 5.488H114.009L130.833 44.272H119.652L116.67 36.736H116.662ZM113.257 28.168L108.502 15.976L103.746 28.168H113.265H113.257ZM174.993 5.488V44.272H166.034L149.049 23.608V44.272H138.387V5.488H147.347L164.331 26.152V5.488H174.993ZM185.112 5.488H203.128C207.3 5.488 211.001 6.28 214.23 7.872C217.459 9.464 219.961 11.712 221.743 14.632C223.518 17.552 224.413 20.968 224.413 24.88C224.413 28.792 223.526 32.208 221.743 35.128C219.969 38.048 217.459 40.296 214.23 41.888C211.001 43.48 207.3 44.272 203.128 44.272H185.112V5.488ZM349.515 5.488H367.531C371.703 5.488 375.404 6.28 378.633 7.872C381.862 9.464 384.364 11.712 386.146 14.632C387.921 17.552 388.816 20.968 388.816 24.88C388.816 28.792 387.929 32.208 386.146 35.128C384.372 38.048 381.862 40.296 378.633 41.888C375.404 43.48 371.703 44.272 367.531 44.272H349.515V5.488ZM202.233 35.488C205.534 35.488 208.179 34.528 210.178 32.608C212.176 30.688 213.175 28.032 213.175 24.64C213.175 21.248 212.176 18.592 210.178 16.672C208.179 14.752 205.534 13.792 202.233 13.792H195.359V35.496H202.233V35.488ZM366.636 35.488C369.937 35.488 372.583 34.528 374.581 32.608C376.579 30.688 377.578 28.032 377.578 24.64C377.578 21.248 376.579 18.592 374.581 16.672C372.583 14.752 369.937 13.792 366.636 13.792H359.762V35.496H366.636V35.488ZM250.709 33.96H244.786V44.264H233.924V5.488H251.476C254.953 5.488 257.966 6.072 260.532 7.232C263.09 8.392 265.064 10.056 266.455 12.216C267.845 14.376 268.541 16.912 268.541 19.832C268.541 22.752 267.893 25.088 266.591 27.176C265.296 29.264 263.433 30.896 261.02 32.08L269.3 44.272H257.671L250.701 33.968L250.709 33.96ZM257.103 19.296C257.103 17.544 256.56 16.192 255.481 15.224C254.402 14.264 252.795 13.776 250.661 13.776H244.898V24.752H250.661C252.787 24.752 254.394 24.28 255.481 23.336C256.568 22.392 257.103 21.04 257.103 19.296ZM297.786 45C293.774 45 290.161 44.136 286.964 42.416C283.767 40.696 281.249 38.312 279.419 35.272C277.589 32.232 276.677 28.808 276.677 25C276.677 21.192 277.589 17.768 279.419 14.728C281.249 11.688 283.759 9.304 286.964 7.584C290.169 5.864 293.774 5 297.786 5C301.799 5 305.411 5.864 308.608 7.584C311.814 9.304 314.323 11.688 316.154 14.728C317.984 17.768 318.895 21.192 318.895 25C318.895 28.808 317.984 32.232 316.154 35.272C314.323 38.312 311.814 40.696 308.608 42.416C305.403 44.136 301.799 45 297.786 45ZM297.858 35.976C299.777 35.976 301.511 35.512 303.062 34.576C304.62 33.64 305.843 32.32 306.746 30.624C307.649 28.92 308.105 26.968 308.105 24.76C308.105 22.552 307.649 20.6 306.746 18.896C305.843 17.192 304.612 15.88 303.062 14.944C301.511 14.008 299.769 13.544 297.858 13.544C295.948 13.544 294.206 14.008 292.655 14.944C291.104 15.88 289.873 17.2 288.97 18.896C288.067 20.592 287.612 22.552 287.612 24.76C287.612 26.968 288.067 28.92 288.97 30.624C289.873 32.328 291.104 33.64 292.655 34.576C294.214 35.512 295.948 35.976 297.858 35.976ZM328.415 5.488H339.397V44.272H328.415V5.488Z" fill="white"/>
</svg>
