<svg width="60" height="60" viewBox="0 0 60 60" fill="none" xmlns="http://www.w3.org/2000/svg">
<g clip-path="url(#clip0_6428_5325)">
<path d="M51.6416 38.8163L50.7099 36.4738C54.7028 34.8899 57.4978 30.764 57.4978 26.4383C57.4978 21.8598 54.9024 18.7054 52.1473 15.3647C50.3905 13.2351 48.5937 11.0523 47.3825 8.43029C46.1713 11.0523 44.3745 13.2351 42.6176 15.3647C41.9921 16.1233 41.3665 16.8819 40.7676 17.6672L38.7578 16.1366C39.3701 15.3381 40.0089 14.5527 40.6611 13.7675C43.1234 10.7728 45.4526 7.95117 46.1314 4.05143C46.2378 3.4525 46.7569 3 47.3692 3C47.9814 3 48.5005 3.43919 48.607 4.05143C49.2858 7.95117 51.615 10.7728 54.0772 13.7675C56.9921 17.3079 60.0001 20.9681 60.0001 26.4516C60.0001 31.9352 56.5528 36.8731 51.615 38.8296L51.6416 38.8163Z" fill="white"/>
<path d="M29.6806 57.3434C19.5786 57.3434 10.7144 48.6656 10.7144 38.7765C10.7144 31.0169 15.3328 25.7862 19.8049 20.7286C23.5183 16.536 27.3514 12.197 28.4295 6.40733C28.536 5.8084 29.0684 5.36914 29.6673 5.36914C30.2663 5.36914 30.7986 5.8084 30.9051 6.40733C31.9832 12.1837 35.8164 16.5227 39.5298 20.7286C44.0018 25.7862 48.6203 31.0169 48.6203 38.7765C48.6203 48.6656 39.7561 57.3434 29.654 57.3434H29.6806ZM29.6806 11.0391C27.8572 15.4446 24.7427 18.9716 21.6948 22.4055C17.3426 27.3301 13.2432 31.9752 13.2432 38.7765C13.2432 47.3213 20.9229 54.8146 29.6806 54.8146C38.4384 54.8146 46.1181 47.3213 46.1181 38.7765C46.1181 31.9752 42.0187 27.3301 37.6664 22.4055C34.6318 18.9716 31.5174 15.4446 29.6939 11.0391H29.6806ZM32.4491 51.5271C28.5892 51.5271 24.7161 49.8634 21.8279 46.9885C18.9397 44.1003 17.2893 40.2272 17.2893 36.3674H19.8182C19.8182 39.5617 21.2024 42.7826 23.6247 45.205C26.0471 47.614 29.268 49.0116 32.4624 49.0116V51.5404L32.4491 51.5271Z" fill="white"/>
<path d="M13.8286 3.06665H11.2998V7.00634H13.8286V3.06665Z" fill="white"/>
<path d="M13.8286 12.2634H11.2998V16.2031H13.8286V12.2634Z" fill="white"/>
<path d="M19.1259 8.3772H15.1863V10.9061H19.1259V8.3772Z" fill="white"/>
<path d="M9.92892 8.3772H5.98926V10.9061H9.92892V8.3772Z" fill="white"/>
<path d="M5.20413 19.1047H2.67529V21.74H5.20413V19.1047Z" fill="white"/>
<path d="M5.20413 24.3621H2.67529V26.984H5.20413V24.3621Z" fill="white"/>
<path d="M2.63531 21.7935H0V24.3222H2.63531V21.7935Z" fill="white"/>
<path d="M7.89264 21.7935H5.25732V24.3222H7.89264V21.7935Z" fill="white"/>
</g>
<defs>
<clipPath id="clip0_6428_5325">
<rect width="60" height="60" fill="white"/>
</clipPath>
</defs>
</svg>
