<svg width="249" height="50" viewBox="0 0 249 50" fill="none" xmlns="http://www.w3.org/2000/svg">
<g clip-path="url(#clip0_29497_8014)">
<path d="M24.26 42.65H32.09V19.6C32.09 11.03 26.97 7.16 19.47 7.16C16.91 7.16 14.68 7.66 12.87 8.63C9.06 10.8 8.25 15.39 8.25 15.39H7.84V14.51V0H0V42.67H7.83V22.39C7.83 18.19 11.53 14.58 15.9 14.58C21.1 14.58 24.26 17.01 24.26 21.32V42.67V42.65ZM56.04 33.59L65.97 7.41H58.05L49.93 30.6L40.87 7.41H32.75L44.72 36.92H47.1L46.82 37.73C45.9 40.31 43.63 43.53 39.64 43.53H37.13V50C48.18 50 50.19 48.29 56.03 33.59M94.53 25.63C94.53 37.22 84.91 36.32 84.91 36.32H84.8C79.22 36.32 76.66 31.84 76.66 28.27V21.66C76.66 18.14 79.22 13.66 84.8 13.66H85.48C87.54 13.68 94.53 14.47 94.53 24.36V25.63ZM101.53 33.01C102.14 31.09 102.6 28.77 102.6 25.92V24.11C102.6 21.59 102.21 19.49 101.75 17.7C100 11.09 95.36 6.98 87.67 7.16C85.75 7.22 83.8 7.64 82.22 8.38C81.72 8.6 81.28 8.88 80.88 9.17C78.47 10.98 77.51 13.74 77.2 14.88C77.2 14.88 77.18 14.95 77.16 14.99C77.16 14.99 77.16 15.06 77.14 15.08V15.15V15.28H76.73V7.3H68.9V49.89H76.73V34.53H77.14C77.14 34.53 77.18 34.7 77.23 34.95V35.01C77.32 35.34 77.45 35.8 77.67 36.34C78.28 37.87 79.49 40.02 81.78 41.3C83.4 42.18 85.28 42.72 87.91 42.72C94.78 42.72 99.57 39.13 101.56 32.88M130.88 20.69H113.32C113.32 14.81 118.44 13.62 122.11 13.62C125.78 13.62 130.9 14.8 130.9 20.69M138.96 27.54C138.96 27.54 139.03 23.03 138.81 21.15C138.02 14.3 132.93 7.04 122.41 7.04C111.89 7.04 105.53 13.6 105.53 23.79C105.53 23.79 105.51 25.43 105.53 25.98C106.01 36.2 110.45 42.71 122.85 42.76C132.89 42.8 136.91 37.33 138.07 32.44C138.13 32.22 138.29 31.56 138.29 31.56L130.81 30.47C130.81 30.47 130.77 30.67 130.77 30.73C129.94 34.69 127.21 36.31 122.37 36.4C115.9 36.51 113.25 34.02 113.25 27.54H138.97H138.95H138.96ZM167.76 25.59C167.76 35.48 160.76 36.28 158.71 36.29H158.03C152.45 36.29 149.89 32.03 149.89 28.52V21.69C149.89 18.12 152.45 13.64 158.03 13.64H158.14C158.14 13.64 167.76 12.74 167.76 24.33V25.6V25.59ZM174.96 32.28C175.44 30.49 175.81 28.39 175.81 25.87V24.06C175.81 21.2 175.35 18.88 174.74 16.97C172.77 10.74 167.96 7.13 161.09 7.13C158.46 7.13 156.58 7.66 154.96 8.55C152.68 9.84 151.46 11.98 150.85 13.51C150.63 14.04 150.5 14.52 150.41 14.84V14.9C150.34 15.18 150.32 15.32 150.32 15.32H149.91V0.13H142.08V42.72H149.91V34.74H150.32C150.32 34.74 151.02 38.65 154.12 40.95C154.53 41.24 154.97 41.52 155.46 41.74C157.04 42.48 158.98 42.92 160.91 42.96C168.59 43.14 173.23 39.05 174.99 32.42M204.53 28.5C204.53 32.07 201.97 36.33 196.39 36.33H196.28C196.28 36.33 186.66 37.23 186.66 25.64V24.41C186.66 14.52 193.66 13.72 195.71 13.71H196.39C201.97 13.71 204.53 18.19 204.53 21.71V28.54V28.5ZM204.53 42.76H212.36V7.41H204.53V15.39H204.12C204.12 15.39 203.42 11.48 200.32 9.18C199.91 8.89 199.47 8.61 198.98 8.39C197.4 7.65 195.46 7.21 193.53 7.17C185.85 6.99 181.21 11.08 179.45 17.71C178.97 19.5 178.6 21.6 178.6 24.12V25.93C178.6 28.79 179.06 31.11 179.67 33.02C181.64 39.25 186.45 42.86 193.32 42.86C195.95 42.86 197.83 42.33 199.45 41.44C201.73 40.15 202.95 38.01 203.56 36.48C203.78 35.95 203.91 35.47 204 35.15V35.09C204.07 34.81 204.09 34.67 204.09 34.67H204.5V42.78L204.52 42.76H204.53ZM240.66 20.84H223.1C223.1 14.96 228.22 13.77 231.89 13.77C235.56 13.77 240.68 14.95 240.68 20.84M248.6 21.3C247.81 14.45 242.72 7.19 232.2 7.19C221.68 7.19 215.32 13.75 215.32 23.94C215.32 23.94 215.3 25.58 215.32 26.13C215.8 36.35 220.24 42.86 232.64 42.91C242.68 42.95 246.7 37.48 247.86 32.59C247.92 32.37 248.08 31.71 248.08 31.71L240.6 30.62C240.6 30.62 240.56 30.82 240.56 30.88C239.73 34.84 237 36.46 232.16 36.55C225.69 36.66 223.04 34.17 223.04 27.69H248.76C248.76 27.69 248.83 23.18 248.61 21.3" fill="white"/>
</g>
<defs>
<clipPath id="clip0_29497_8014">
<rect width="248.78" height="50" fill="white"/>
</clipPath>
</defs>
</svg>
