<svg xmlns="http://www.w3.org/2000/svg" width="24" height="24" viewBox="0 0 24 24">
    <g fill="none" fill-rule="evenodd">
        <path stroke="#0B0C0D" d="M0.5 0.5H23.5V23.5H0.5z"/>
        <path fill="#0B0C0D" d="M22 0H2C.894 0 0 .894 0 2v20c0 1.106.894 2 2 2h20c1.106 0 2-.894 2-2V2c0-1.106-.894-2-2-2zm-3.281 8.406L10.362 16.8h-.006c-.106.106-.393.344-.725.344-.237 0-.506-.131-.731-.356l-3.5-3.5c-.1-.1-.1-.257 0-.357l1.112-1.112c.05-.05.113-.075.175-.075.063 0 .125.025.175.075l2.775 2.775 7.625-7.682c.05-.05.113-.075.175-.075.07 0 .132.025.175.075l1.094 1.132c.113.106.113.262.013.362z"/>
    </g>
</svg>
