<svg width="20" height="20" viewBox="0 0 20 20" xmlns="http://www.w3.org/2000/svg">
    <path d="m17.266 4.18 1.484 1.445v5l-7.445 7.02c-.336.335-.914.48-1.227.48-.312 0-.812-.168-1.125-.48l8.313-7.957V4.18zM15 1.875l1.25 1.25v6.25l-7.336 7.012c-.336.336-.91.488-1.223.488-.312 0-.812-.176-1.125-.488L1.73 11.559a1.708 1.708 0 0 1-.48-1.246c.012-.415.168-.797.48-1.11l7.02-7.328H15zm-1.563 1.562c-.69 0-1.25.56-1.25 1.25 0 .81.766 1.438 1.614 1.2.402-.114.722-.434.836-.836a1.253 1.253 0 0 0-1.2-1.614z" fill="#DE1738" fill-rule="nonzero"/>
</svg>
