<svg width="180" height="60" viewBox="0 0 180 60" fill="none" xmlns="http://www.w3.org/2000/svg">
<path opacity="0.85" d="M58.9998 37.1939C58.5469 40.2642 57.1171 43.1098 54.8805 45.3516C54.8366 45.3949 54.7927 45.4382 54.7515 45.4788C51.9495 48.2161 48.2337 49.7242 44.29 49.7242C40.9693 49.7242 37.7667 48.633 35.165 46.6376C35.8127 46.1692 36.8473 45.1377 36.9406 45.0429C36.9406 45.0429 36.9406 45.0429 36.9434 45.0402L36.9461 45.0375C39.0703 46.5618 41.6362 47.3876 44.29 47.3876C47.6052 47.3876 50.731 46.1205 53.0857 43.8191C53.1213 43.7839 53.157 43.7487 53.19 43.7163C55.4348 41.469 56.7082 38.5016 56.7851 35.3556V35.342V35.2581V35.2391C56.7851 35.2391 56.7851 35.2148 56.7851 35.2039C56.7851 35.1931 56.7851 35.1823 56.7851 35.1714V35.1038V35.0604V34.9332C56.7247 33.0867 55.4239 31.584 53.6785 31.186C55.4101 31.4866 58.9751 32.6535 58.997 37.1966L58.9998 37.1939Z" fill="white"/>
<path opacity="0.85" d="M30.2606 20.8255C31.4435 19.6802 32.1818 18.0723 32.1818 16.2965C32.1818 12.8248 29.3658 10 25.9048 10C22.4437 10 19.6277 12.8248 19.6277 16.2965C19.6277 18.1053 20.3907 19.738 21.6121 20.886C19.3724 21.5854 17.3139 22.816 15.5985 24.5147C15.5574 24.556 15.5189 24.5946 15.4778 24.6359L15.4723 24.6414C13.2216 26.9238 11.7862 29.8283 11.3306 32.9615C11.3306 37.975 15.3982 38.9441 16.9681 39.1313C15.0661 38.8477 13.6086 37.2509 13.5455 35.2631V34.9878C13.5455 34.974 13.5455 34.9603 13.5455 34.9437V34.908C13.5455 34.908 13.5455 34.8997 13.5455 34.8942V34.8226C13.6251 31.6179 14.9041 28.5977 17.152 26.3153C17.1877 26.2795 17.2234 26.2437 17.2591 26.2079C19.614 23.876 22.7319 22.593 26.0393 22.593C28.6934 22.593 31.2569 23.4355 33.384 24.9828C33.384 24.9828 34.8442 23.5979 35.1653 23.3529C33.6914 22.2021 32.0254 21.3486 30.2523 20.8255H30.2606ZM25.9048 12.3787C28.0593 12.3787 29.8104 14.1353 29.8104 16.2965C29.8104 18.4577 28.0593 20.2143 25.9048 20.2143C23.7502 20.2143 21.9991 18.4577 21.9991 16.2965C21.9991 14.1353 23.7502 12.3787 25.9048 12.3787Z" fill="white"/>
<path d="M59 34.8698V34.8343C59 34.8343 59 34.8289 59 34.8261V34.7961C59 34.7961 59 34.7715 59 34.7606V34.6486V34.6322C59 34.624 59 34.6186 59 34.6104C59 34.594 59 34.5803 58.9973 34.5639C58.9046 30.7813 57.3917 27.2144 54.7311 24.5215L54.7175 24.5078C54.6793 24.4696 54.6439 24.4341 54.6084 24.3986C52.9047 22.7135 50.8629 21.4927 48.6358 20.799C49.8488 19.6573 50.6067 18.0405 50.6067 16.2461C50.6067 12.8022 47.8098 10 44.3723 10C40.9348 10 38.138 12.8022 38.138 16.2461C38.138 18.0077 38.8685 19.6 40.0434 20.7389C38.2825 21.2605 36.6278 22.1072 35.1639 23.2488C34.845 23.4919 33.3947 24.8656 33.3947 24.8656L20.4054 37.8795C19.6639 38.5651 18.7017 38.942 17.6903 38.942C17.6903 38.942 17.6794 38.942 17.663 38.942C17.4695 38.942 17.276 38.9256 17.0906 38.8983C17.0906 38.8983 17.0906 38.8983 17.0879 38.8983C15.5286 38.7125 11.4887 37.7539 11.4887 32.7778C11.4151 33.2885 11.366 33.8074 11.3442 34.3291L11.3306 34.3427V34.99C11.3306 34.99 11.3306 35.0009 11.3306 35.0064V35.0419C11.3306 35.0583 11.3306 35.0774 11.3306 35.0992V35.5799L11.3442 35.5936C11.505 39.2533 13.0016 42.6946 15.5804 45.3192C15.6213 45.3602 15.6622 45.4039 15.7031 45.4421C18.4863 48.2033 22.1773 49.7245 26.0973 49.7245C29.3957 49.7245 32.577 48.6266 35.1612 46.611L36.9249 45.0024C36.9249 45.0024 36.9249 45.0024 36.9276 44.9996L36.9304 44.9969L49.9197 31.983C50.6612 31.2975 51.6235 30.9206 52.6348 30.9206C52.6348 30.9206 52.643 30.9206 52.6621 30.9206C52.9674 30.9206 53.2645 30.9588 53.5507 31.0244C55.2708 31.3275 58.8119 32.5046 58.8337 37.0875C58.9046 36.5932 58.9537 36.0934 58.9755 35.5908L58.9891 35.5772V35.0883C58.9891 35.0883 58.9891 35.0829 58.9891 35.0801V35.0719C58.9891 35.0719 58.9891 35.0719 58.9891 35.0692V35.0337C58.9891 35.0337 58.9891 35.02 58.9891 35.0146V34.9709C58.9891 34.9709 58.9891 34.9463 58.9891 34.9326C58.9891 34.9108 58.9891 34.8889 58.9891 34.8698H59Z" fill="white"/>
<path d="M78.8824 23.8263H74.9404V5.17188H78.8824V23.8263Z" fill="white"/>
<path d="M96.1162 16.9696C96.1162 21.3337 93.1212 24.2717 88.9168 24.2717C84.7125 24.2717 81.689 21.328 81.689 16.9696C81.689 12.6112 84.6839 9.69043 88.9168 9.69043C93.1497 9.69043 96.1162 12.6341 96.1162 16.9696ZM85.6823 16.9696C85.6823 19.4398 86.9943 20.9344 88.9168 20.9344C90.8393 20.9344 92.1229 19.4341 92.1229 16.9696C92.1229 14.5052 90.8108 13.0277 88.9168 13.0277C87.0229 13.0277 85.6823 14.5794 85.6823 16.9696Z" fill="white"/>
<path d="M111.33 10.1636L106.732 23.8263H101.974L97.3989 10.1636H101.552L102.79 14.3965C103.446 16.6327 103.971 18.5495 104.393 20.2837C104.815 18.5495 105.34 16.6327 105.996 14.3965L107.234 10.1636H111.33Z" fill="white"/>
<path d="M123.966 19.2059L126.122 21.676C124.074 23.6441 122.129 24.2773 119.95 24.2773C115.432 24.2773 112.619 21.4421 112.619 17.0495C112.619 12.6569 115.169 9.69043 119.636 9.69043C124.103 9.69043 126.128 12.3431 126.128 16.6273C126.128 17.1294 126.099 17.8367 126.077 18.1277H116.43C116.801 19.8334 118.004 20.9401 120.058 20.9401C121.581 20.9401 122.528 20.4153 123.971 19.2059H123.966ZM116.504 15.3666H122.363C122.203 13.7636 121.256 12.7653 119.55 12.7653C117.845 12.7653 116.869 13.8663 116.504 15.3666Z" fill="white"/>
<path d="M107.229 43.7704C107.229 47.7352 104.861 50.4164 101.632 50.4164C99.5329 50.4164 98.0325 49.5493 97.1369 48.0261V50.1026H95.5054V31.4482H97.2396V39.412C98.1352 37.9402 99.607 37.1016 101.627 37.1016C104.912 37.1016 107.223 39.7828 107.223 43.7761L107.229 43.7704ZM105.443 43.7704C105.443 40.667 103.868 38.5392 101.472 38.5392C99.0765 38.5392 97.1654 40.456 97.1654 43.7704C97.1654 47.0848 99.0023 48.9446 101.472 48.9446C103.943 48.9446 105.443 46.8167 105.443 43.7704Z" fill="white"/>
<path d="M117.656 37.6486L117.314 39.0406C116.681 38.858 116.184 38.7782 115.659 38.7782C113.954 38.7782 112.613 40.2785 112.613 43.0339V50.102H110.879V37.409H112.51V39.3829C113.087 38.0936 114.193 37.2778 115.665 37.2778C116.452 37.2778 117.165 37.4604 117.662 37.6486H117.656Z" fill="white"/>
<path d="M122.232 34.5951H120.498V32.125H122.232V34.5951ZM122.232 50.1005H120.498V37.4076H122.232V50.1005Z" fill="white"/>
<path d="M137.601 31.4482V50.1026H135.969V47.9462C135.073 49.5207 133.55 50.4164 131.474 50.4164C128.216 50.4164 125.877 47.7352 125.877 43.7704C125.877 39.8056 128.296 37.0959 131.525 37.0959C133.522 37.0959 134.965 37.9117 135.861 39.3321V31.4482H137.595H137.601ZM135.946 43.7704C135.946 40.4617 134.132 38.5392 131.611 38.5392C129.243 38.5392 127.669 40.667 127.669 43.7704C127.669 46.8738 129.22 48.9446 131.611 48.9446C134.001 48.9446 135.946 47.0506 135.946 43.7704Z" fill="white"/>
<path d="M152.814 37.4102V49.9719C152.814 53.1494 150.766 55.1232 147.269 55.1232C145.09 55.1232 143.276 54.4159 141.645 53.2578L142.54 51.9685C144.063 52.9383 145.404 53.6514 147.269 53.6514C149.369 53.6514 151.103 52.5733 151.103 49.8407V47.7357C150.236 49.179 148.815 50.0232 146.847 50.0232C143.51 50.0232 141.302 47.2907 141.302 43.5598C141.302 39.8289 143.51 37.0679 146.847 37.0679C148.895 37.0679 150.344 37.9863 151.183 39.5095V37.4044H152.814V37.4102ZM151.131 43.5598C151.131 40.6447 149.528 38.5169 147.03 38.5169C144.531 38.5169 143.088 40.6447 143.088 43.5598C143.088 46.4749 144.48 48.5514 147.03 48.5514C149.58 48.5514 151.131 46.4521 151.131 43.5598Z" fill="white"/>
<path d="M168 47.7357C166.134 49.7608 164.583 50.4397 162.506 50.4397C158.747 50.4397 156.408 47.787 156.408 43.8451C156.408 39.9031 158.747 37.0679 162.318 37.0679C165.889 37.0679 167.943 39.4296 167.943 43.0863C167.943 43.2689 167.914 43.7196 167.891 43.9021H158.17C158.25 46.4749 159.483 49.0021 162.506 49.0021C164.212 49.0021 165.267 48.3689 166.893 46.6917L168 47.7414V47.7357ZM158.222 42.59H166.208C166.129 40.1484 164.737 38.4883 162.318 38.4883C160.082 38.4883 158.536 39.8575 158.216 42.59H158.222Z" fill="white"/>
</svg>
