<svg width="45" height="14" viewBox="0 0 45 14" fill="none" xmlns="http://www.w3.org/2000/svg">
<path fill-rule="evenodd" clip-rule="evenodd" d="M10.0025 0.256154C10.4916 0.604524 10.4916 1.18282 10.0121 1.53815L4.18129 5.7813L43.7629 5.7813C44.4438 5.7813 45 6.18541 45 6.68706C45 7.18871 44.4438 7.59282 43.7629 7.59282L4.19088 7.59282L10.0217 11.836C10.5012 12.1913 10.4916 12.7626 10.0121 13.118C9.52298 13.4663 8.74619 13.4663 8.25709 13.111L0.354839 7.32806C0.249348 7.24445 0.163036 7.15388 0.0959053 7.0424C0.0287743 6.93092 3.8147e-06 6.81247 3.8147e-06 6.69403C3.8147e-06 6.45714 0.124676 6.23418 0.354839 6.05999L8.25709 0.277056C8.72701 -0.0852481 9.51339 -0.0922155 10.0025 0.256154Z" fill="#3D3D3D"/>
</svg>
