<?xml version="1.0" encoding="UTF-8"?>
<svg width="32px" height="32px" viewBox="0 0 32 32" version="1.1" xmlns="http://www.w3.org/2000/svg" xmlns:xlink="http://www.w3.org/1999/xlink">
    <title>Icon/Group/ios-more0</title>
    <g id="Icon/Group/ios-more" stroke="none" stroke-width="1" fill="none" fill-rule="evenodd">
        <g id="Icon/48/Group/ios-more" transform="translate(6.000000, 6.000000)" fill="#FFFFFF">
            <path d="M9.9921875,8.515625 C10.8125,8.515625 11.4765625,9.1796875 11.4765625,10 C11.4765625,10.8203125 10.8125,11.484375 9.9921875,11.484375 C9.171875,11.484375 8.5078125,10.8203125 8.5078125,10 C8.5078125,9.1796875 9.171875,8.515625 9.9921875,8.515625 Z M3.98437499,8.515625 C4.80468749,8.515625 5.46874999,9.1796875 5.46874999,10 C5.46874999,10.8203125 4.80468749,11.484375 3.98437499,11.484375 C3.16406249,11.484375 2.49999998,10.8203125 2.49999998,10 C2.49999998,9.1796875 3.16406249,8.515625 3.98437499,8.515625 Z M16.015625,8.515625 C16.8359375,8.515625 17.5,9.1796875 17.5,10 C17.5,10.8203125 16.8359375,11.484375 16.015625,11.484375 C15.1953125,11.484375 14.53125,10.8203125 14.53125,10 C14.53125,9.1796875 15.1953125,8.515625 16.015625,8.515625 Z" id="Combined-Shape"></path>
        </g>
    </g>
</svg>
