<svg width="141" height="50" viewBox="0 0 141 50" fill="none" xmlns="http://www.w3.org/2000/svg">
<g clip-path="url(#clip0_29497_7967)">
<path d="M15.4 49.9598C5.91002 49.3998 0.670016 44.2698 0.190016 34.7398C-0.0699836 29.6798 -0.0499837 23.7898 0.190016 18.7198C0.520016 11.8998 3.43002 6.2098 10.29 4.2498C17.15 2.2898 29.55 2.4698 33.68 9.7698C35.53 13.0398 35.52 16.6998 35.76 20.3498H25.2C24.97 19.8798 25.12 19.1898 25.09 18.6498C24.95 16.1498 24.7 13.2598 22.06 12.1598C20.41 11.4698 16.9 11.4698 15.18 11.9298C11.98 12.7898 11.43 15.7598 11.32 18.6498C11.13 23.2498 11.28 28.2498 11.4 32.8598C11.47 35.5598 11.28 38.6598 13.63 40.5298C15.65 42.1298 20.47 42.1898 22.67 40.9398C25.52 39.3098 25.01 35.7698 25.48 32.9698H18.21V25.0398H35.5C35.61 25.1098 35.6 25.1898 35.62 25.2998C35.78 26.6198 35.62 28.5898 35.62 29.9898C35.62 34.2298 35.63 38.5098 33.82 42.4698C31.02 48.5898 25.21 49.7298 19.05 49.9798C17.93 50.0298 16.53 50.0498 15.42 49.9798L15.4 49.9598Z" fill="white"/>
<path d="M140.04 48.8998C139.87 48.9198 139.72 48.9698 139.55 48.9798C135.97 49.1898 132.18 48.8098 128.57 48.9798C128.04 48.9298 127.86 48.7898 127.61 48.3498L122.25 37.3798C121.76 36.7998 121.01 37.1198 120.4 37.1198C120.02 37.1198 119.39 36.8998 119.03 37.1198C118.98 37.1498 118.77 37.4298 118.77 37.4698V48.9198H107.95V4.08984H118.77V28.1898C119.88 28.2698 120.96 28.2298 122.06 28.1898C122.26 28.1498 122.4 27.8798 122.49 27.7098C124.27 24.5598 125.58 20.8198 127.26 17.5798C127.6 16.9198 127.76 16.6198 128.57 16.5498C129.67 16.4598 130.81 16.6198 131.9 16.6298C134.39 16.6498 136.87 16.5298 139.36 16.5498C139.42 16.5998 138.77 17.8098 138.69 17.9598C136.44 22.2098 133.85 26.3998 131.68 30.6798C131.34 31.3498 130.9 32.0198 131.23 32.7998L140.04 48.8198V48.8998Z" fill="white"/>
<path d="M50.9701 35.5999C50.6401 37.7199 51.2901 39.9099 53.1901 41.0499C55.8501 42.6399 60.5401 42.0099 63.4701 41.3899C65.0701 41.0499 66.6201 40.5299 68.2201 40.1999V47.2699C68.2201 47.5799 67.9201 47.7499 67.6701 47.8599C60.2701 51.0499 45.1401 51.4699 41.3401 42.6799C39.6201 38.7099 39.8101 30.3699 40.3801 26.0499C41.6401 16.4699 50.6301 14.5999 58.9401 15.8099C66.4201 16.8999 68.8001 20.4199 69.1301 27.6999C69.2301 29.9199 69.5001 33.0299 69.2901 35.1899C69.2801 35.2999 69.2301 35.5999 69.1001 35.5999H50.9701ZM59.7501 29.7099C59.2901 26.9199 60.1101 23.6899 56.3801 23.2099C55.2201 23.0599 53.8501 23.0399 52.8101 23.6499C50.7201 24.8799 50.9001 27.5899 50.8901 29.7099H59.7401H59.7501Z" fill="white"/>
<path d="M102.57 35.5098L102.17 35.6098H85.0599C84.7799 35.6698 84.3399 35.6098 84.2699 35.9498C84.1099 36.7698 84.4199 38.3698 84.7799 39.1398C86.6499 43.1298 93.4099 42.1298 96.8999 41.3898C98.4799 41.0598 100.01 40.5398 101.59 40.2198L101.52 47.2898C101.52 47.5198 101.3 47.6798 101.12 47.7898C100.11 48.3998 97.3099 49.0298 96.0899 49.2598C86.7999 50.9998 74.7399 49.8598 73.5999 38.2898C73.2399 34.6798 73.2399 29.2698 73.7599 25.6798C74.7599 18.7398 79.8599 16.1898 86.3499 15.6598C92.3999 15.1598 99.7299 16.1898 101.85 22.7798C102.84 25.8498 102.89 31.7698 102.67 35.0398C102.66 35.1998 102.67 35.3698 102.57 35.5098ZM92.9699 29.7098V26.8798C92.9699 26.5098 92.6599 25.5198 92.5099 25.1498C91.6399 23.1298 89.4599 22.9198 87.5099 23.2298C84.5399 23.7098 84.3399 26.1398 84.2699 28.6798C84.2699 28.8998 84.2399 29.4198 84.3399 29.5798C84.8599 29.9398 85.4399 29.7098 85.9699 29.6998C88.2999 29.6798 90.6399 29.7198 92.9699 29.6998V29.7098Z" fill="white"/>
<path d="M92.9699 8.84992H91.5699C91.3099 8.84992 91.2099 8.08992 91.1199 8.08992C90.8399 8.23992 90.6799 8.47992 90.3999 8.64992C89.3199 9.28992 87.5199 9.04992 87.1299 7.69992C86.8999 6.90992 86.9099 4.26992 87.2099 3.49992C87.7599 2.11992 89.6999 2.05992 90.8599 2.64992V0.0899232H92.4099C92.5599 0.0899232 92.8599 -0.160077 92.9999 0.189923C93.0499 0.249923 92.9799 0.329923 92.9799 0.359923V8.85992L92.9699 8.84992ZM90.8399 4.02992C90.2999 3.84992 89.3999 3.62992 89.1699 4.33992C89.0599 4.66992 89.0599 6.29992 89.1099 6.69992C89.1899 7.38992 89.7599 7.43992 90.3599 7.33992C90.7199 7.27992 90.8299 6.94992 90.8599 6.62992C90.9399 5.80992 90.7999 4.85992 90.8499 4.02992H90.8399Z" fill="white"/>
<path d="M80.4099 7.42023V8.78023C79.7599 9.01023 79.2299 9.08023 78.5699 8.84023C78.3299 8.75023 78.2199 8.60023 78.0299 8.47023C77.1299 9.23023 74.6799 9.30023 74.1499 8.11023C73.7699 7.27023 73.9299 6.00023 74.8099 5.56023C75.0699 5.43023 75.7999 5.22023 76.0599 5.22023H77.6899C77.6099 4.31023 77.7999 3.60023 76.5999 3.79023C76.0599 3.88023 76.0799 4.40023 76.0999 4.84023H74.2099C74.0999 3.63023 74.4799 2.69023 75.7199 2.38023C76.5699 2.17023 77.8599 2.20023 78.6699 2.53023C80.4599 3.27023 79.5399 5.72023 79.8099 7.14023C79.8699 7.45023 80.1499 7.42023 80.4099 7.41023V7.42023ZM77.5899 7.55023C77.7099 7.46023 77.7399 6.48023 77.6099 6.39023C77.1399 6.36023 76.1799 6.25023 76.0899 6.85023C75.9599 7.78023 76.9599 7.76023 77.5799 7.55023H77.5899Z" fill="white"/>
<path d="M57.5499 2.5V6.69C57.5499 6.69 57.6599 7.09 57.6999 7.15C58.0099 7.66 59.2199 7.41 59.2199 6.77V2.5H61.3399V8.85H59.6399C59.4599 8.78 59.4399 8.17 59.2599 8.25C59.1899 8.28 58.9599 8.54 58.8099 8.63C57.8599 9.2 56.0699 9.28 55.5899 8.07C55.5699 8.01 55.4399 7.56 55.4399 7.54V2.5H57.5599H57.5499Z" fill="white"/>
<path d="M96.3798 2.5V6.69C96.3798 7.41 97.2598 7.61 97.7698 7.25C97.8398 7.2 98.0398 6.89 98.0398 6.84V2.5H100.16V8.73L100.05 8.84H98.4598L98.1998 8.21L98.0498 8.16C97.5198 9.2 95.3298 9.3 94.6398 8.42C94.5098 8.25 94.2598 7.63 94.2598 7.44V2.5H96.3798Z" fill="white"/>
<path d="M72.9901 8.78013H70.8701V4.36013C70.8701 4.27013 70.5801 3.97013 70.4701 3.93013C69.9801 3.73013 69.2001 4.02013 69.2001 4.59013V8.78013H67.0801V2.54013L67.1901 2.43013H68.7801L69.1601 3.11013C69.8401 2.14013 71.9501 1.89013 72.6401 2.89013C72.7301 3.02013 72.9901 3.63013 72.9901 3.75013V8.77013V8.78013Z" fill="white"/>
<path d="M51.0299 2.30013C52.0699 2.21013 53.5599 2.50013 54.0899 3.51013C54.5799 4.46013 54.5799 7.02013 54.0199 7.92013C53.0699 9.43013 49.4599 9.41013 48.6899 7.69013C48.2899 6.79013 48.2699 4.48013 48.6899 3.58013C49.1099 2.68013 50.1399 2.37013 51.0299 2.29013V2.30013ZM50.7699 7.32013C51.2099 7.72013 52.0499 7.54013 52.2299 6.97013C52.3299 6.65013 52.3199 4.82013 52.2599 4.44013C52.1399 3.66013 50.8699 3.65013 50.6399 4.24013C50.4599 4.71013 50.4199 6.99013 50.7799 7.32013H50.7699Z" fill="white"/>
<path d="M47.2602 0.0898438V6.54984C47.2602 6.74984 47.0802 7.50984 46.9902 7.71984C46.4802 9.01984 44.3502 9.27984 43.2102 8.84984C42.7002 8.65984 43.0402 7.58984 42.9402 7.10984C43.0702 6.98984 44.3002 7.50984 44.8302 6.84984C44.8802 6.78984 45.0502 6.43984 45.0502 6.38984V0.0898438H47.2402H47.2602Z" fill="white"/>
<path d="M83.2802 0.00976562H81.2402V8.77977H83.2802V0.00976562Z" fill="white"/>
<path d="M66.4101 2.34984V4.46984C65.9701 4.46984 65.3001 4.55984 65.0101 4.92984C64.9601 4.98984 64.7401 5.44984 64.7401 5.48984V8.84984H62.6201V2.49984H64.4001L64.7001 3.24984C65.0501 2.66984 65.7401 2.38984 66.4001 2.33984L66.4101 2.34984Z" fill="white"/>
</g>
<defs>
<clipPath id="clip0_29497_7967">
<rect width="140.04" height="50" fill="white"/>
</clipPath>
</defs>
</svg>
