<svg width="150" height="135" viewBox="0 0 150 135" fill="none" xmlns="http://www.w3.org/2000/svg">
<g clip-path="url(#clip0_5399_2654)">
<path d="M139.1 65.2998V63.9998L137.8 64.0998C137.7 64.0998 136.4 64.1998 134.8 64.7998C132.5 65.4998 130.6 66.5998 129.2 67.8998C127.4 69.5998 126.3 71.6998 125.8 73.0998C125.5 73.8998 125.3 74.4998 125.1 74.9998C125.1 75.0998 125 75.1998 125 75.3998L124.9 75.4998C124.8 75.4998 124.8 75.5998 124.7 75.5998C125.9 71.2998 126.5 66.7998 126.6 62.3998C126.9 62.0998 127.1 61.7998 127.5 61.3998L128.6 60.0998L128.7 59.9998C129.2 59.8998 130.2 59.5998 131.2 59.1998C133.5 58.1998 135.3 56.6998 136.3 54.8998C136.9 53.8998 137.3 52.6998 137.6 51.3998C137.8 50.1998 137.8 49.0998 137.7 48.0998V47.9998C137.6 46.9998 137.5 46.0998 137.4 45.5998C137.3 44.8998 137.1 44.5998 137.1 44.4998L136.6 43.2998L135.4 43.7998C135.4 43.7998 134.2 44.2998 132.7 45.3998C131.4 46.3998 129.5 47.9998 128.4 50.1998C128.1 50.6998 128 51.0998 127.8 51.5998L127.7 51.7998C127.5 52.2998 127.3 52.8998 127.2 53.3998C127 54.2998 126.8 55.2998 126.8 56.2998V58.5998L126.7 58.6998L126.6 58.7998C126.4 54.3998 125.6 49.8998 124.2 45.6998L124.7 44.5998C124.9 44.1998 125 43.7998 125.2 43.3998C125.3 43.2998 125.3 43.0998 125.4 42.8998C125.4 42.8998 125.4 42.7998 125.5 42.7998C126 42.4998 126.8 41.9998 127.6 41.1998C128.4 40.4998 129.1 39.6998 129.6 38.8998C130.4 37.7998 130.8 36.5998 131 35.4998C131.4 33.1998 131.1 30.4998 130.1 28.4998C129.3 26.6998 128.5 25.4998 128.4 25.4998L127.6 24.3998L126.6 25.2998C126.6 25.2998 125.6 26.1998 124.5 27.6998C123.5 28.9998 122.3 31.1998 121.9 33.5998C121.7 34.8998 121.7 35.9998 121.8 36.9998C121.9 38.0998 122.1 38.9998 122.3 39.7998C122.5 40.7998 122.8 41.6998 123 42.1998V42.2998C123 42.3665 122.967 42.4331 122.9 42.4998C121.3 38.3998 119.1 34.3998 116.5 30.7998L116.6 29.5998L116.7 28.6998V27.5998C117.1 27.1998 117.6 26.3998 118.2 25.3998C119.4 23.1998 119.9 20.9998 119.7 18.8998C119.5 17.6998 119.1 16.4998 118.5 15.2998C118.2 14.7998 118 14.2998 117.6 13.7998C117.3 13.2998 117 12.9998 116.7 12.5998L116.6 12.4998C115.3 10.9998 114.1 10.1998 114 10.0998L112.9 9.2998L112.2 10.4998C112.2 10.4998 111.5 11.6998 111 13.3998C110.5 14.9998 110 17.3998 110.5 19.7998C110.7 20.8998 111 21.9998 111.4 23.0998C111.7 23.7998 112 24.3998 112.4 24.8998C112.5 25.0998 112.7 25.3998 112.8 25.5998C113.4 26.4998 113.9 27.1998 114.3 27.5998V27.8998C112 25.1998 109.4 22.6998 106.7 20.4998C106.7 20.3998 106.6 20.1998 106.6 19.9998V19.8998C106.5 19.3998 106.2 18.4998 105.8 17.5998C105.3 16.3998 104.7 15.4998 104.1 14.5998C103.2 13.5998 102.2 12.6998 101.1 12.0998C100.8 11.8998 100.5 11.7998 100.2 11.5998H100.1C99.7999 11.4998 99.4999 11.3998 99.0999 11.2998C98.4999 11.0998 97.8999 10.9998 97.1999 10.8998C95.7999 10.7998 94.7 10.7998 93.8 10.9998C91.8 11.3998 90.4999 11.9998 90.4999 12.0998L89.4 12.5998L89.9 13.6998C89.9 13.7998 90.4999 15.0998 91.5999 16.4998C91.6999 16.6998 91.8999 16.8998 92.0999 17.0998C92.4999 17.6998 92.9999 18.2998 93.4999 18.7998C93.8999 19.1998 94.3 19.5998 94.8 19.8998C95 20.0998 95.3 20.1998 95.5 20.3998C95.7 20.5998 95.9999 20.6998 96.1999 20.8998C97.1999 21.4998 98.3 21.7998 99.5 21.9998C100.5 22.1998 101.6 22.2998 102.5 22.2998H103C103.6 22.2998 104.2 22.2998 104.9 22.1998H105.3C112.6 27.9998 118.4 35.9998 121.5 44.7998C125.2 55.1998 125.3 66.7998 121.8 77.3998C118.4 87.8998 111.4 97.0998 102 103.3C97.5 106.3 92.4999 108.6 86.9999 110.1H86.9C85.8 110.5 84.4999 110.9 83.1999 111.3C76.1999 113.6 67.5999 116.4 63.1999 123.7C62.8999 124.3 62.9999 125 63.5999 125.4C63.7999 125.5 63.9999 125.6 64.1999 125.6C64.5999 125.6 64.9999 125.4 65.2999 125C69.1999 118.5 77.3999 115.8 83.9999 113.7C85.2999 113.3 86.3999 112.9 87.5999 112.5C88.3999 112.9 89.3 113.3 90.4 113.8L90.4999 113.9C90.7999 114.4 91.2999 115.2 91.9999 116.1C93.5999 118 95.5 119.3 97.5 119.8C98.3 120 99.2 120.1 100 120.1C101.9 120.1 103.6 119.6 104.6 119.3C105.4 119 106.2 118.7 106.9 118.3C107.4 118 107.7 117.8 107.8 117.8L108.9 117.1L108.1 116.1C108.1 116.1 107.2 115 105.8 114C105 113.4 104.2 112.8 103.3 112.4C102.2 111.8 101.1 111.4 100 111.2C98.1 110.8 96.1 110.8 93.8 111.3L93.4 111.4C92.7 111.6 92.1999 111.7 91.6999 111.8C91.5999 111.8 91.5 111.9 91.4 111.9H91.3C91.2 111.9 91.0999 111.8 91.0999 111.8C95.3999 110.3 99.4999 108.4 103.1 105.9C104.2 106 105.2 106.2 106.3 106.2C106.7 106.6 107.4 107.2 108.4 107.8C109.3 108.4 110.2 108.8 111.2 109.1C112.2 109.4 113.2 109.6 114.1 109.6H114.8C116.1 109.5 117.3 109.2 118.5 108.6C119.6 108.1 120.6 107.5 121.4 106.8C123 105.6 123.9 104.3 123.9 104.3L124.7 103.2L123.6 102.5C123.6 102.5 122.4 101.8 120.8 101.2C118.5 100.4 116.4 100.1 114.5 100.3C113.4 100.4 112.3 100.7 111.2 101.1C110.3 101.4 109.5 101.8 108.6 102.4C108 102.7 107.4 103.1 106.8 103.6C106.7 103.7 106.6 103.7 106.6 103.8H106.2C109.8 101.1 113 97.8998 115.7 94.4998L116.5 93.6998L118.3 93.2998H118.5C119 93.4998 119.9 93.8998 121 94.1998C122 94.3998 122.9 94.4998 123.8 94.4998C125.1 94.4998 126.4 94.2998 127.6 93.7998C128.7 93.2998 129.8 92.5998 130.8 91.6998C131.6 90.8998 132.3 89.9998 133 89.0998C133.5 88.1998 133.9 87.3998 134.2 86.8998C134.5 86.2998 134.6 85.8998 134.6 85.8998L135 84.6998L133.7 84.3998C133.6 84.3998 132.4 84.0998 130.6 84.0998C129 84.0998 126.6 84.1998 124.3 85.2998C122.6 86.0998 120.9 87.3998 119.4 89.0998C118.8 89.6998 118.4 90.2998 118.1 90.7998C118 90.8998 118 90.9998 117.9 91.0998L117.6 91.1998C120.1 87.4998 122.1 83.4998 123.6 79.2998C124.4 78.7998 125.4 78.2998 126.3 77.6998L126.4 77.5998C126.7 77.5998 127.2 77.6998 127.7 77.6998C128.1 77.6998 128.5 77.6998 129 77.5998C130.1 77.4998 131.1 77.2998 132 76.9998C133.2 76.5998 134.2 75.9998 135.1 75.1998C136 74.3998 136.8 73.4998 137.4 72.1998C137.9 71.2998 138.3 70.2998 138.6 68.9998C138.9 67.9998 139 67.0998 139 66.4998C139.1 65.6998 139.1 65.2998 139.1 65.2998ZM129.2 56.0998C129.2 55.2998 129.3 54.4998 129.5 53.6998C129.6 53.2998 129.8 52.7998 129.9 52.3998L130 52.1998C130.2 51.7998 130.3 51.3998 130.5 51.0998C131.4 49.2998 133 47.9998 134.1 47.1998C134.4 46.9998 134.7 46.7998 135 46.5998C135.1 46.9998 135.1 47.4998 135.2 47.9998V48.0998C135.2 48.9998 135.3 49.8998 135.1 50.7998C134.9 51.8998 134.6 52.7998 134.1 53.5998C133.3 54.9998 132 56.0998 130.2 56.8998C129.8 57.0998 129.5 57.1998 129.2 57.2998C129.1 56.7998 129.2 56.3998 129.2 56.0998ZM112.8 18.9998C112.4 16.9998 112.9 14.9998 113.3 13.6998C113.4 13.2998 113.5 12.9998 113.7 12.6998C114 12.9998 114.4 13.2998 114.7 13.6998L114.8 13.7998C115.1 14.0998 115.3 14.3998 115.5 14.6998C115.8 15.0998 116 15.5998 116.2 15.9998C116.7 16.9998 117 17.8998 117.1 18.7998C117.3 20.7998 116.6 22.5998 115.9 23.7998C115.7 24.1998 115.5 24.4998 115.3 24.6998C115.1 24.3998 114.9 24.1998 114.7 23.7998C114.6 23.5998 114.4 23.2998 114.3 23.0998C114 22.5998 113.7 22.1998 113.5 21.5998C113.2 20.7998 112.9 19.8998 112.8 18.9998ZM102.3 19.6998C101.5 19.6998 100.6 19.5998 99.6999 19.3998H99.5999C98.5999 19.1998 97.7999 18.9998 97.0999 18.5998C96.8999 18.4998 96.7 18.3998 96.5 18.1998V18.0998C96.3 17.9998 96.1 17.8998 96 17.6998C95.7 17.4998 95.2999 17.1998 94.9999 16.7998C94.5999 16.3998 94.2 15.7998 93.8 15.2998C93.6 15.0998 93.5 14.8998 93.3 14.6998C93 14.1998 92.6999 13.7998 92.4999 13.3998C92.8999 13.2998 93.4999 13.0998 94.0999 12.9998C94.7999 12.7998 95.7 12.7998 96.8 12.8998C97.3 12.9998 97.8 13.0998 98.3 13.1998C98.5 13.2998 98.8 13.2998 99 13.3998C99.2 13.4998 99.3999 13.5998 99.6999 13.6998C100.6 14.1998 101.4 14.8998 102.1 15.6998C102.6 16.3998 103.1 17.0998 103.5 18.0998C103.7 18.5998 103.9 19.0998 104 19.4998C103.4 19.6998 102.9 19.6998 102.3 19.6998ZM93.6999 113.2L93.9999 113.1C95.9999 112.7 97.6999 112.7 99.1999 113C99.9999 113.2 100.9 113.5 101.8 114C102.5 114.4 103.2 114.8 103.9 115.4C104.2 115.6 104.5 115.9 104.7 116.1C104.3 116.3 103.8 116.5 103.4 116.7C102.2 117.1 100 117.8 97.8 117.2C96.2 116.8 94.7999 115.8 93.5999 114.3C93.2999 114 93.1 113.7 92.9 113.4C93.2 113.3 93.3999 113.3 93.6999 113.2ZM109.4 104.1C110.2 103.6 110.9 103.3 111.6 103C112.5 102.6 113.4 102.4 114.3 102.3C115.8 102.1 117.6 102.4 119.6 103C120 103.1 120.3 103.3 120.6 103.4C120.3 103.7 119.9 104 119.5 104.4C118.8 104.9 118 105.4 117.1 105.9C116.2 106.3 115.3 106.6 114.3 106.7C113.4 106.8 112.5 106.7 111.6 106.4C110.9 106.2 110.1 105.8 109.4 105.4C109.1 105.2 108.7 105 108.5 104.8C108.7 104.5 109 104.3 109.4 104.1ZM121.1 90.4998C122.4 88.9998 123.8 87.8998 125.2 87.2998C127.1 86.3998 129.1 86.2998 130.5 86.2998C130.9 86.2998 131.3 86.2998 131.6 86.3998C131.4 86.7998 131.2 87.1998 130.9 87.5998C130.4 88.3998 129.8 89.0998 129.1 89.7998C128.4 90.4998 127.5 90.9998 126.7 91.3998C125.2 91.9998 123.5 92.0998 121.6 91.6998C121.2 91.5998 120.8 91.4998 120.5 91.3998C120.6 91.0998 120.9 90.7998 121.1 90.4998ZM124.3 33.5998C124.6 31.6998 125.6 29.8998 126.4 28.7998C126.6 28.4998 126.9 28.1998 127.1 27.8998C127.3 28.2998 127.5 28.6998 127.7 29.1998C128.5 30.7998 128.7 32.9998 128.4 34.7998C128.3 35.5998 127.9 36.3998 127.3 37.2998C126.9 37.9998 126.3 38.5998 125.7 39.1998C125.4 39.4998 125.1 39.6998 124.8 39.8998C124.7 39.5998 124.6 39.2998 124.5 38.8998C124.3 38.1998 124.1 37.3998 124 36.4998C124.1 35.5998 124.1 34.6998 124.3 33.5998ZM136.2 68.1998C135.9 69.1998 135.6 70.0998 135.2 70.7998C134.7 71.7998 134.1 72.4998 133.4 73.0998C132.7 73.6998 131.9 74.1998 131 74.4998C130.3 74.7998 129.4 74.8998 128.6 74.9998C128.2 74.9998 127.8 75.0998 127.5 74.9998C127.6 74.6998 127.7 74.3998 127.9 73.9998C128.4 72.7998 129.3 71.0998 130.8 69.5998C131.9 68.4998 133.5 67.6998 135.4 66.9998C135.8 66.8998 136.2 66.7998 136.5 66.6998C136.5 67.0998 136.4 67.5998 136.2 68.1998Z" fill="#FCFCFC"/>
<path d="M86 123.6C81.6 116.3 73 113.5 66 111.2C64.7 110.8 63.5 110.4 62.3 110H62.2C56.7 108.5 51.6 106.2 47.1 103.2C37.9 96.9 30.9 87.7 27.4 77.2C23.9 66.6 24 55 27.7 44.6C30.8 35.8 36.5 27.8 43.9 22H44.3C44.9 22.1 45.6 22.1 46.2 22.1H46.7C47.7 22.1 48.7 22 49.7 21.8C51 21.6 52.1 21.2 53 20.7C53.2 20.6 53.5 20.4 53.7 20.2C53.9 20.1 54.2 19.9 54.4 19.7C54.8 19.4 55.3 19 55.7 18.6C56.3 18 56.7 17.4 57.1 16.9C57.3 16.7 57.4 16.5 57.6 16.3C58.7 14.8 59.3 13.5 59.3 13.5L59.8 12.4L58.8 11.7C58.7 11.7 57.4 11 55.5 10.7C54.5 10.5 53.4 10.4 52 10.6C51.4 10.7 50.7 10.8 50.1 11C49.8 11.1 49.4 11.2 49.1 11.3H49C48.7 11.4 48.4 11.6 48.1 11.8C47 12.4 46 13.3 45.1 14.3C44.5 15.1 43.9 16.1 43.4 17.3C43 18.3 42.7 19.1 42.6 19.6V19.7C42.6 19.9 42.5 20 42.5 20.2C39.7 22.4 37.2 24.9 34.9 27.6V27.3C35.3 26.9 35.8 26.2 36.4 25.3C36.5 25.1 36.7 24.9 36.8 24.6C37.1 24.1 37.5 23.5 37.7 22.8C38.2 21.7 38.5 20.6 38.6 19.5C39 17.1 38.5 14.7 38.1 13.1C37.6 11.4 36.9 10.2 36.9 10.2L36.2 9L35.1 9.7C35 9.7 33.9 10.6 32.5 12.1L32.4 12.2C32.1 12.5 31.8 12.9 31.5 13.4C31.2 13.9 30.9 14.4 30.6 14.9C30 16.1 29.6 17.3 29.4 18.5C29.2 20.6 29.7 22.8 30.9 25C31.5 26 32 26.7 32.4 27.2V28.3L32.6 30.5C30 34.1 27.8 38 26.1 42.2V42C26.3 41.5 26.6 40.7 26.8 39.6C27 38.8 27.2 37.9 27.3 36.8C27.4 35.8 27.4 34.7 27.2 33.4C26.8 31 25.6 28.9 24.6 27.5C23.6 26 22.6 25.2 22.5 25.1L21.5 24.2L20.7 25.3C20.7 25.4 19.8 26.5 19 28.3C18 30.4 17.7 33 18.1 35.3C18.3 36.4 18.8 37.6 19.5 38.7C20 39.5 20.7 40.3 21.5 41C22.3 41.8 23.1 42.3 23.6 42.6L23.7 42.8C23.8 42.9 23.8 43.1 23.9 43.2C24 43.6 24.2 44 24.4 44.4L24.9 45.5C23.5 49.7 22.7 54.1 22.5 58.6L22.4 58.5L22.3 58.4V56C22.3 55 22.1 54 21.9 53.1C21.8 52.6 21.6 52 21.4 51.5L21.3 51.3C21.1 50.9 21 50.4 20.7 49.9C19.6 47.7 17.7 46.1 16.4 45.1C14.9 44 13.8 43.5 13.7 43.5L12.5 43.1L12 44.3C12 44.4 11.8 44.8 11.7 45.4C11.6 46 11.4 46.8 11.4 47.9V48C11.3 49 11.3 50.1 11.5 51.3C11.8 52.6 12.2 53.8 12.8 54.8C13.8 56.6 15.6 58.1 17.9 59.1C19 59.6 19.9 59.8 20.4 59.9L20.5 60L21.6 61.3C21.9 61.7 22.2 62 22.5 62.3C22.6 66.7 23.2 71.2 24.4 75.5C24.3 75.5 24.3 75.4 24.2 75.4L24.1 75.3C24.1 75.2 24 75.1 24 75C23.9 74.5 23.6 73.9 23.3 73.1C22.7 71.7 21.7 69.6 19.9 67.9C18.5 66.6 16.6 65.5 14.3 64.8C12.6 64.3 11.3 64.1 11.3 64.1L10 64V66.3C10 67 10.2 67.9 10.4 68.8C10.7 70 11.1 71.1 11.6 72C12.3 73.3 13.1 74.3 13.9 75C14.8 75.8 15.9 76.4 17 76.8C17.9 77.1 18.9 77.3 20 77.4C20.5 77.4 20.9 77.5 21.3 77.5C21.9 77.5 22.3 77.5 22.6 77.4L22.7 77.5C23.6 78.1 24.5 78.6 25.3 79.1C26.8 83.3 28.8 87.3 31.3 91H31C30.9 90.9 30.9 90.8 30.8 90.7C30.5 90.3 30.1 89.7 29.5 89.1C27.9 87.3 26.3 86.1 24.6 85.3C22.3 84.2 19.9 84.1 18.3 84.1C16.5 84.1 15.3 84.4 15.2 84.4L13.9 84.7L14.3 85.9C14.3 85.9 14.4 86.3 14.7 86.9C14.9 87.4 15.3 88.2 15.9 89.1C16.5 90 17.2 90.9 18.1 91.7C19 92.6 20.1 93.3 21.3 93.8C22.5 94.3 23.8 94.5 25.1 94.5C26 94.5 27 94.4 27.9 94.2C29 93.9 29.9 93.6 30.4 93.3L32.2 93.8L33.5 94C36.2 97.5 39.4 100.6 43 103.3H42.6C42.5 103.2 42.4 103.2 42.3 103.1C41.7 102.7 41.2 102.3 40.5 101.9C39.7 101.4 38.8 101 37.9 100.6C36.8 100.2 35.7 99.9 34.6 99.8C32.7 99.6 30.5 99.9 28.2 100.7C26.5 101.3 25.4 102 25.4 102L24.3 102.7L25.1 103.8C25.1 103.9 26 105.1 27.6 106.3C28.4 107 29.4 107.6 30.5 108.1C31.6 108.7 32.9 109 34.2 109.1H34.9C35.9 109.1 36.8 108.9 37.8 108.6C38.7 108.3 39.7 107.9 40.6 107.3C41.6 106.7 42.3 106.1 42.7 105.7C43.8 105.6 44.9 105.5 45.9 105.4C49.5 107.8 53.6 109.8 57.9 111.3C57.8 111.3 57.8 111.4 57.7 111.4H57.6C57.5 111.4 57.4 111.3 57.3 111.3C56.9 111.1 56.3 111 55.6 110.9L55.5 110.7C53.2 110.2 51.1 110.2 49.3 110.6C48.2 110.8 47.1 111.2 46.1 111.8C45.2 112.3 44.4 112.8 43.6 113.4C42.2 114.5 41.4 115.5 41.3 115.6L40.5 116.6L41.6 117.3C41.6 117.3 41.9 117.5 42.5 117.8C43.3 118.2 44 118.6 44.8 118.8C45.8 119.2 47.5 119.7 49.4 119.7C50.2 119.7 51.1 119.6 51.9 119.4C54 118.9 55.9 117.6 57.4 115.7C58.1 114.8 58.6 114 58.9 113.5L59.1 113.4C60.1 113 61.1 112.5 61.9 112.1C63 112.5 64.2 112.9 65.5 113.3C72.1 115.5 80.3 118.1 84.2 124.6C84.4 125 84.8 125.2 85.3 125.2C85.5 125.2 85.7 125.1 85.9 125C86.2 124.9 86.4 124.2 86 123.6ZM45.6 18.2C46 17.2 46.5 16.4 47 15.8C47.7 15 48.5 14.3 49.4 13.8C49.6 13.7 49.9 13.6 50.1 13.5C50.3 13.4 50.6 13.3 50.8 13.3C51.3 13.2 51.8 13.1 52.3 13C53.4 12.9 54.3 12.9 55 13.1C55.6 13.2 56.1 13.4 56.5 13.5C56.3 13.9 56 14.3 55.7 14.8C55.5 15 55.4 15.2 55.2 15.4C54.8 15.9 54.4 16.4 54 16.9C53.7 17.2 53.3 17.5 53 17.8C52.8 17.9 52.6 18.1 52.5 18.2L52.4 18.3C52.2 18.4 52 18.6 51.8 18.7C51.1 19.1 50.3 19.4 49.3 19.5H49.2C48.3 19.7 47.4 19.8 46.6 19.8H45C45.2 19.2 45.4 18.7 45.6 18.2ZM31.9 18.8C32 17.9 32.3 17 32.8 16C33 15.6 33.3 15.1 33.5 14.7C33.7 14.4 34 14.1 34.2 13.8L34.3 13.7C34.7 13.3 35 12.9 35.3 12.7C35.4 13 35.5 13.4 35.7 13.7C36.1 15 36.5 17 36.2 18.9V19C36.1 19.9 35.8 20.8 35.4 21.7C35.2 22.2 34.9 22.7 34.6 23.2C34.4 23.5 34.3 23.7 34.2 23.9C34 24.2 33.8 24.5 33.6 24.8C33.4 24.5 33.2 24.2 33 23.9C32.4 22.6 31.6 20.8 31.9 18.8ZM18.9 56.8C17.1 56 15.7 54.9 15 53.5C14.5 52.7 14.2 51.8 14 50.7C13.8 49.8 13.9 48.9 13.9 48C13.9 47.5 14 47 14.1 46.6C14.4 46.8 14.7 47 15 47.2C16.1 48 17.7 49.4 18.6 51.1C18.8 51.4 18.9 51.8 19.1 52.2L19.2 52.4C19.4 52.8 19.5 53.2 19.6 53.7C19.8 54.5 19.9 55.3 19.9 56.1V57.2C19.6 57.1 19.2 57 18.9 56.8ZM21.6 37.3C21 36.4 20.7 35.6 20.5 34.8C20.2 33 20.5 30.8 21.2 29.2C21.4 28.7 21.6 28.3 21.8 27.9C22 28.2 22.2 28.4 22.5 28.8C23.3 29.9 24.3 31.7 24.6 33.6C24.8 34.7 24.8 35.6 24.7 36.4C24.6 37.3 24.4 38.1 24.2 38.8C24.1 39.2 24 39.5 23.9 39.8C23.6 39.6 23.3 39.4 23 39.1C22.6 38.6 22.1 38 21.6 37.3ZM20.3 75C19.4 74.9 18.6 74.8 17.9 74.5C17 74.2 16.2 73.7 15.5 73.1C14.8 72.5 14.3 71.8 13.7 70.8C13.3 70.1 13 69.2 12.7 68.2C12.6 67.7 12.5 67.2 12.4 66.8C12.7 66.9 13.1 67 13.5 67.1C15.4 67.7 17 68.6 18.1 69.7C19.6 71.1 20.4 72.8 21 74C21.1 74.4 21.3 74.7 21.4 75H20.3ZM27.5 91.7C25.6 92.1 23.9 92.1 22.4 91.4C21.5 91 20.7 90.5 20 89.8C19.3 89.1 18.7 88.4 18.2 87.6C17.9 87.1 17.7 86.7 17.5 86.3C17.8 86.3 18.2 86.2 18.6 86.2C19.9 86.2 21.9 86.3 23.8 87.2C25.2 87.9 26.6 88.9 27.9 90.4C28.2 90.7 28.4 91 28.6 91.2C28.2 91.5 27.9 91.6 27.5 91.7ZM39.6 105.3C38.9 105.8 38.1 106.1 37.4 106.3C36.5 106.6 35.6 106.7 34.7 106.6C33.7 106.5 32.8 106.3 31.9 105.8C31 105.4 30.2 104.9 29.5 104.3C29.1 104 28.7 103.6 28.4 103.4C28.7 103.3 29 103.1 29.4 103C31.3 102.3 33.1 102.1 34.7 102.3C35.6 102.4 36.4 102.6 37.3 103C38 103.3 38.8 103.6 39.5 104.1C39.8 104.3 40.2 104.5 40.4 104.7C40.3 104.8 40 105 39.6 105.3ZM55.4 114.3C54.2 115.8 52.7 116.8 51.2 117.2C49 117.8 46.7 117.2 45.5 116.7C45.1 116.6 44.6 116.4 44.2 116.2C44.4 116 44.7 115.7 45 115.5C45.7 115 46.4 114.5 47.1 114.1C48 113.6 48.9 113.3 49.7 113.1C51.2 112.8 52.9 112.8 54.9 113.2L55.2 113.3C55.5 113.4 55.7 113.4 56 113.5C55.9 113.7 55.7 114 55.4 114.3Z" fill="#FCFCFC"/>
<path d="M49.4 58.2999C49.3 57.9999 49.2999 57.6999 49.2999 57.3999C49.0999 57.3999 48.9999 57.3999 48.7999 57.2999C48.3999 57.1999 48 57.0999 47.7 56.8999V57.0999C47.7 57.2999 47.8 57.5999 47.9 57.7999C48 57.9999 48.1 58.1999 48.2 58.2999C48.3 58.4999 48.5 58.5999 48.7 58.6999L49.0999 58.9999C49.2999 59.0999 49.5 59.1999 49.7 59.1999C49.7 59.1999 49.6666 59.1666 49.5999 59.0999C49.5999 58.8999 49.5 58.5999 49.4 58.2999Z" fill="#FCFCFC"/>
<path d="M51.5999 57.3999C51.3999 57.3999 51.2 57.3999 51 57.4999C50.5 57.4999 50.1 57.4999 49.7 57.3999C49.7 57.6999 49.6999 57.9999 49.7999 58.2999C49.8999 58.5999 49.9999 58.7999 50.0999 58.9999C50.1999 59.0999 50.2999 59.1999 50.2999 59.2999H50.4C50.7 59.2999 50.9999 59.3999 51.2999 59.3999V59.0999C51.1999 58.5999 51.2999 57.9999 51.5999 57.3999Z" fill="#FCFCFC"/>
<path d="M48.7999 52.5999C48.2999 52.5999 47.8999 52.4999 47.4999 52.3999C47.1999 53.0999 46.9999 53.6999 46.8999 54.2999V54.3999C47.0999 54.5999 47.3999 54.6999 47.7999 54.8999C47.8999 54.4999 47.9999 54.1999 48.1999 53.7999C48.3999 53.3999 48.5999 52.9999 48.7999 52.5999Z" fill="#FCFCFC"/>
<path d="M46.5 51.6001C46.4 51.9001 46.3 52.3001 46.3 52.6001V53.0001C46.3 53.1001 46.3001 53.4001 46.4001 53.8001C46.5001 53.9001 46.6001 54.1001 46.7001 54.2001C46.7001 54.2001 46.8 54.2001 46.8 54.3001C46.9 53.7001 47.1001 53.1001 47.4001 52.4001C46.9001 52.1001 46.6 51.9001 46.5 51.6001Z" fill="#FCFCFC"/>
<path d="M59.7 60.0999C59.6 60.0999 59.4 60.0999 59.3 59.9999C59.1 59.8999 59 59.7999 58.9 59.6999C58.8 59.5999 58.8 59.4999 58.8 59.3999C58.2 59.6999 57.6 59.8999 57 60.0999C57 60.1999 57.1 60.2999 57.1 60.3999C57.2 60.5999 57.5 60.7999 57.8 60.8999H57.9C58 60.8999 58.2 60.7999 58.3 60.7999V60.8999C58.6 60.7999 58.9 60.6999 59.1 60.5999C59.4 60.3999 59.8 60.2999 60.1 60.0999H59.7Z" fill="#FCFCFC"/>
<path d="M53.6 59.2999C53.6 58.7999 53.7 58.1999 53.9 57.5999C54 57.3999 54.1 57.1999 54.2 56.8999C54 56.9999 53.7 56.9999 53.5 57.0999C52.9 57.1999 52.3 57.2999 51.8 57.3999C51.6 57.9999 51.5 58.5999 51.5 59.0999V59.3999H52.2C52.7 59.3999 53.1 59.2999 53.6 59.2999Z" fill="#FCFCFC"/>
<path d="M56.9 60.5002C56.8 60.4002 56.8 60.3002 56.8 60.2002C56.4 60.3002 56 60.4002 55.6 60.5002C55.2 60.6002 54.8 60.7002 54.5 60.7002C54.7 60.8002 54.9 61.0002 55.1 61.1002C55.5 61.2002 56 61.3002 56.5 61.2002C56.8 61.2002 57.2 61.1002 57.5 61.0002C57.3 60.9002 57.1 60.7002 56.9 60.5002Z" fill="#FCFCFC"/>
<path d="M48.2 48.1001C48.3 47.9001 48.5 47.8001 48.6 47.6001C48.4 47.5001 48.2 47.4001 48.2 47.2001V47.1001C48 47.3001 47.8 47.6001 47.6 47.9001C47.3 48.3001 47.1 48.7001 47 49.1001C47 49.2001 47.1 49.3001 47.2 49.4001C47.5 49.1001 47.8 48.6001 48.2 48.1001Z" fill="#FCFCFC"/>
<path d="M54.2001 60.7998H52.1001C52.1668 60.8665 52.2334 60.9331 52.3001 60.9998C52.6001 61.1998 52.9001 61.3998 53.2001 61.4998C53.5001 61.5998 53.9001 61.5998 54.4001 61.6998H55.2001L55.7001 61.5998C55.5001 61.5998 55.3001 61.4998 55.1001 61.4998C54.7001 61.1998 54.4001 60.9998 54.2001 60.7998Z" fill="#FCFCFC"/>
<path d="M56.3999 43.5002C56.4999 43.7002 56.4999 43.9002 56.3999 44.1002C56.3999 44.1002 56.2999 44.2002 56.2999 44.3002C56.7999 44.1002 57.1999 44.0002 57.5999 44.0002H58.5999C58.5999 43.9002 58.4999 43.8002 58.3999 43.7002C58.3332 43.6335 58.2666 43.5669 58.1999 43.5002C57.8999 43.4002 57.5999 43.3002 57.2999 43.3002C57.0999 43.3002 56.6999 43.2002 56.2999 43.2002H55.8999C56.1999 43.2002 56.3999 43.3002 56.3999 43.5002Z" fill="#FCFCFC"/>
<path d="M54.1 48.9002C54.9 48.5002 55.7 48.1002 56.3 47.6002C57 47.1002 57.5 46.6002 57.9 46.1002C58.2 45.8002 58.4 45.5002 58.5 45.2002C58 45.3002 57.5 45.4002 56.9 45.7002C56.1 46.0002 55.3 46.4002 54.5 47.0002C53.6 47.6002 52.7 48.3002 51.9 49.0002C51.6 49.3002 51.3 49.6002 51 50.0002C51.2 50.0002 51.3 49.9002 51.5 49.9002C52.4 49.6002 53.3 49.3002 54.1 48.9002Z" fill="#FCFCFC"/>
<path d="M49.1001 52.5999C48.9001 52.9999 48.7001 53.3999 48.5001 53.7999C48.3001 54.1999 48.2001 54.4999 48.1001 54.8999C48.6001 54.9999 49.2001 55.0999 49.9001 55.0999C49.9001 55.0332 49.9334 54.9666 50.0001 54.8999C50.3001 54.0999 50.8001 53.2999 51.4001 52.4999L51.5001 52.3999C50.8001 52.5999 50.1001 52.6999 49.5001 52.6999C49.3001 52.6999 49.2001 52.5999 49.1001 52.5999Z" fill="#FCFCFC"/>
<path d="M47.3999 49.7002C47.4999 49.8002 47.5999 49.9002 47.6999 49.9002C47.8999 50.0002 48.1999 50.1002 48.5999 50.1002C48.6999 49.9002 48.8999 49.7002 48.9999 49.5002C49.4999 48.9002 50.0999 48.3002 50.6999 47.7002C50.3999 47.8002 50.0999 47.8002 49.7999 47.8002C49.3999 47.8002 49.0999 47.8002 48.7999 47.7002C48.5999 47.9002 48.4999 48.1002 48.2999 48.2002C47.9999 48.8002 47.6999 49.2002 47.3999 49.7002Z" fill="#FCFCFC"/>
<path d="M55.2 51.0998C54.2 51.5998 53.1 51.9998 52 52.2998H51.7999C51.6999 52.3998 51.6 52.4998 51.5 52.6998C50.9 53.4998 50.5 54.2998 50.2 55.0998V55.1998C51 55.1998 51.8 54.9998 52.7 54.7998C52.8 54.7998 52.9999 54.6998 53.0999 54.6998C53.5999 53.9998 54.3 53.2998 54.9 52.5998C55.6 51.8998 56.3999 51.2998 57.2999 50.7998C58.0999 50.2998 58.9999 49.8998 59.7999 49.5998C60.5999 49.3998 61.2 49.1998 61.9 49.1998C62.3 48.5998 62.6 47.9998 62.7 47.3998L62.5999 47.2998C62.1999 46.9998 61.6 46.8998 60.9 46.7998H60.5C60.4 46.9998 60.2 47.2998 60 47.4998C59.5 48.0998 58.8 48.7998 58 49.3998C57.1 50.0998 56.2 50.5998 55.2 51.0998Z" fill="#FCFCFC"/>
<path d="M62.1 57.6999V57.5999C62.1 57.5332 62.0667 57.4666 62 57.3999C61.1 58.0999 60.1 58.6999 59 59.1999C59 59.2999 59 59.3999 59.1 59.4999C59.2 59.5999 59.3 59.6999 59.4 59.6999C59.5 59.6999 59.7 59.7999 59.9 59.6999C60.1 59.6999 60.3 59.5999 60.5 59.4999C60.7 59.3999 60.9 59.2999 61.1 59.0999C61.3 58.8999 61.5 58.7999 61.6 58.5999C61.7 58.3999 61.9 58.1999 61.9 58.0999C62.1 58.0999 62.1 57.8999 62.1 57.6999Z" fill="#FCFCFC"/>
<path d="M50.2001 45.7999C50.3001 45.7999 50.4 45.7999 50.5 45.8999C51.2 45.2999 51.9 44.7999 52.6 44.2999C53 43.9999 53.5001 43.7999 53.9001 43.5999C53.8334 43.5332 53.7334 43.4666 53.6 43.3999H53C52.3 43.4999 51.3 44.1999 50.8 44.4999C50.4 44.7999 50.1 45.0999 49.8 45.2999V45.4999C50 45.6999 50.1001 45.6999 50.2001 45.7999Z" fill="#FCFCFC"/>
<path d="M51 45.7998C51.2 45.7998 51.4 45.7998 51.6 45.6998C51.9 45.5998 52.2 45.4998 52.4 45.3998C52.7 45.2998 52.9 45.0998 53.2 44.9998C53.4 44.7998 53.6 44.6998 53.8 44.4998C54 44.2998 54.1 44.1998 54.1 43.9998V43.7998C53.7 43.9998 53.3 44.1998 52.8 44.4998C52.2 44.8998 51.5 45.2998 51 45.7998Z" fill="#FCFCFC"/>
<path d="M51.3999 47.6001H51.1999C50.4999 48.2001 49.7999 48.9001 49.1999 49.6001C49.0999 49.8001 48.9999 49.9001 48.8999 50.1001H49.2999C49.6999 50.1001 50.1999 50.0001 50.6999 49.9001C51.0999 49.5001 51.4999 49.1001 51.8999 48.7001C52.6999 47.9001 53.5999 47.2001 54.4999 46.6001C55.2999 46.1001 56.1999 45.6001 56.9999 45.3001C57.5999 45.1001 58.1999 44.9001 58.7999 44.8001C58.7999 44.7001 58.8999 44.7001 58.8999 44.6001C58.8999 44.4001 58.9999 44.2001 58.8999 44.1001H57.7999C57.2999 44.2001 56.7999 44.3001 56.2999 44.5001C56.1999 44.7001 56.0999 44.8001 55.8999 45.0001C55.5999 45.3001 55.1999 45.7001 54.6999 46.0001C54.1999 46.3001 53.6999 46.6001 53.1999 46.9001C52.5999 47.2001 51.9999 47.4001 51.3999 47.6001Z" fill="#FCFCFC"/>
<path d="M60.9001 46.6001C61.6001 46.6001 62.2001 46.8001 62.7001 47.1001V46.5001L62.5001 46.1001C62.3001 45.7001 61.9001 45.4001 61.3001 45.2001C61.2001 45.2001 61.1001 45.1001 60.9001 45.1001V45.8001C60.8001 46.1001 60.7001 46.3001 60.6001 46.6001H60.9001Z" fill="#FCFCFC"/>
<path d="M60.1999 55.6998C59.7999 55.8998 59.2999 56.1998 58.8999 56.4998C58.4999 56.7998 58.1999 57.0998 57.8999 57.4998C57.6999 57.6998 57.4999 57.9998 57.3999 58.1998C57.6999 58.0998 57.9999 57.8998 58.2999 57.7998C59.4999 57.1998 60.5999 56.4998 61.5999 55.7998C61.7999 55.5998 61.9999 55.4998 62.1999 55.2998H62.0999C61.8999 55.2998 61.6999 55.2998 61.4999 55.3998C61.0999 55.2998 60.6999 55.4998 60.1999 55.6998Z" fill="#FCFCFC"/>
<path d="M61.7001 49.3999C61.1001 49.3999 60.5001 49.4999 59.9001 49.6999C59.1001 49.9999 58.3001 50.3999 57.5001 50.8999C56.7001 51.3999 55.9001 51.9999 55.2001 52.6999C54.6001 53.2999 54.1001 53.7999 53.6001 54.4999C54.6001 54.1999 55.5001 53.8999 56.4001 53.3999C57.6001 52.7999 58.6001 52.1999 59.6001 51.4999C60.3001 50.7999 61.1001 50.0999 61.7001 49.3999Z" fill="#FCFCFC"/>
<path d="M60.7001 53.6999C59.7001 54.4999 58.6001 55.0999 57.4001 55.6999C56.5001 56.0999 55.5 56.4999 54.5 56.7999C54.3 57.0999 54.2 57.3999 54.1 57.6999C53.9 58.2999 53.8 58.7999 53.8 59.2999C54 59.2999 54.2 59.1999 54.5 59.1999C55.4 58.9999 56.2 58.6999 57 58.3999C57.2 58.0999 57.4001 57.6999 57.7001 57.3999C58.0001 56.9999 58.4 56.6999 58.8 56.3999C59.2 56.0999 59.7 55.7999 60.1 55.5999C60.6 55.3999 61.0001 55.1999 61.4001 55.1999C61.7001 55.0999 62.1001 55.0999 62.4001 55.1999C63.0001 54.6999 63.5 54.0999 63.8 53.5999C63.9 53.4999 64 53.3999 64 53.1999C63.9 52.7999 63.7 52.3999 63.3 52.1999C63.1 52.0999 62.9 51.9999 62.6 51.8999C62.2 52.3999 61.5001 52.9999 60.7001 53.6999Z" fill="#FCFCFC"/>
<path d="M63.4 57.5C63.7 57 63.7 56.7 63.7 56.4C63.7 56.3 63.7 56.1 63.6 56C63.2 56.4 62.8 56.9 62.2 57.3C62.3 57.4 62.3 57.6 62.4 57.7V57.8C62.4 57.9 62.4 58.1 62.3 58.3C62.2 58.5 62.1 58.6 62 58.8C62.5 58.4 62.9 58 63.3 57.6C63.3 57.6 63.3 57.5 63.4 57.5Z" fill="#FCFCFC"/>
<path d="M64.3001 52.7999C64.5001 52.3999 64.7001 51.8999 64.8001 51.4999C64.8001 51.2999 64.8001 51.0999 64.9001 50.9999V50.7999C64.7001 50.3999 64.5001 50.1999 64.1001 49.8999H64.0001C63.8001 50.3999 63.6001 50.8999 63.2001 51.3999L63.1001 51.4999C63.3001 51.5999 63.6001 51.6999 63.8001 51.7999C63.9001 51.9999 64.1001 52.3999 64.3001 52.7999Z" fill="#FCFCFC"/>
<path d="M79.0598 79.3898C79.0598 79.4898 79.1198 79.5998 79.2398 79.5998C79.4498 79.5998 79.6098 79.3598 79.6098 79.1598V79.0698H79.5498C79.3598 79.0698 79.0598 79.1598 79.0598 79.3898Z" fill="#FCFCFC"/>
<path d="M74.28 78.3701C74.14 78.3701 74.03 78.4301 73.98 78.5601C73.97 78.5901 73.96 78.6301 73.96 78.6601H74.58C74.58 78.4901 74.45 78.3701 74.28 78.3701Z" fill="#FCFCFC"/>
<path d="M88.3298 79.3898C88.3298 79.4898 88.3898 79.5998 88.5098 79.5998C88.7198 79.5998 88.8798 79.3598 88.8798 79.1598V79.0698H88.8198C88.6298 79.0698 88.3298 79.1598 88.3298 79.3898Z" fill="#FCFCFC"/>
<path d="M82.5098 71.6797C82.2298 71.6797 81.9898 71.8197 81.8798 72.0797C81.8498 72.1397 81.8298 72.2197 81.8298 72.2897H83.1298C83.1298 71.9197 82.8698 71.6797 82.5098 71.6797Z" fill="#FCFCFC"/>
<path d="M87.0998 78.3701C86.9598 78.3701 86.8498 78.4301 86.7998 78.5601C86.7898 78.5901 86.7798 78.6301 86.7798 78.6601H87.3998C87.3998 78.4901 87.2698 78.3701 87.0998 78.3701Z" fill="#FCFCFC"/>
<path d="M82.7399 78.3699C82.4499 78.3699 82.4199 78.7699 82.4199 78.9799C82.4199 79.1899 82.4399 79.5899 82.7399 79.5899C83.0199 79.5899 83.0899 79.1799 83.0899 78.9699C83.0899 78.7399 83.0299 78.3599 82.7299 78.3599L82.7399 78.3699Z" fill="#FCFCFC"/>
<path d="M63.55 78.3701C63.41 78.3701 63.3 78.4301 63.25 78.5601C63.24 78.5901 63.23 78.6301 63.23 78.6601H63.85C63.85 78.4901 63.72 78.3701 63.55 78.3701Z" fill="#FCFCFC"/>
<path d="M85.5399 78.3701C85.2799 78.3701 85.1899 78.7801 85.1899 78.9801C85.1899 79.2001 85.1899 79.6001 85.4999 79.6001C85.8099 79.6001 85.8399 79.2201 85.8399 78.9901C85.8399 78.8001 85.7999 78.3701 85.5399 78.3701Z" fill="#FCFCFC"/>
<path d="M69.1999 78.3701C69.0599 78.3701 68.9499 78.4301 68.8999 78.5601C68.8899 78.5901 68.8799 78.6301 68.8799 78.6601H69.4999C69.4999 78.4901 69.3699 78.3701 69.1999 78.3701Z" fill="#FCFCFC"/>
<path d="M52.4598 78.3701C52.1198 78.3701 52.0798 78.7201 52.0798 78.9801C52.0798 79.2401 52.1198 79.5901 52.4598 79.5901C52.7998 79.5901 52.8398 79.2301 52.8398 78.9801C52.8398 78.7301 52.7998 78.3701 52.4598 78.3701Z" fill="#FCFCFC"/>
<path d="M49.64 71.6797C49.36 71.6797 49.12 71.8197 49.01 72.0797C48.98 72.1397 48.96 72.2197 48.96 72.2897H50.26C50.26 71.9197 50 71.6797 49.64 71.6797Z" fill="#FCFCFC"/>
<path d="M46.86 78.3701C46.58 78.3701 46.51 78.7801 46.51 78.9901C46.51 79.2201 46.56 79.6001 46.87 79.6001C47.16 79.6001 47.19 79.2001 47.19 78.9801C47.19 78.7601 47.17 78.3701 46.86 78.3701Z" fill="#FCFCFC"/>
<path d="M60.1799 71.6797C59.4699 71.6797 59.3799 72.4197 59.3799 72.9697C59.3799 73.5197 59.4699 74.2597 60.1799 74.2597C60.8899 74.2597 60.9699 73.5097 60.9699 72.9697C60.9699 72.4297 60.8899 71.6797 60.1799 71.6797Z" fill="#FCFCFC"/>
<path d="M52.8599 71.6797C52.2499 71.6797 52.1899 72.5097 52.1899 72.9697C52.1899 73.4297 52.2399 74.2597 52.8699 74.2597C53.4499 74.2597 53.6099 73.4097 53.6099 72.9697C53.6099 72.4997 53.4699 71.6897 52.8599 71.6897V71.6797Z" fill="#FCFCFC"/>
<path d="M55.5798 79.3898C55.5798 79.4898 55.6398 79.5998 55.7598 79.5998C55.9698 79.5998 56.1298 79.3598 56.1298 79.1598V79.0698H56.0698C55.8798 79.0698 55.5798 79.1598 55.5798 79.3898Z" fill="#FCFCFC"/>
<path d="M60.5298 79.3898C60.5298 79.4898 60.5898 79.5998 60.7098 79.5998C60.9198 79.5998 61.0798 79.3598 61.0798 79.1598V79.0698H61.0198C60.8298 79.0698 60.5298 79.1598 60.5298 79.3898Z" fill="#FCFCFC"/>
<path d="M56.4598 71.6797C55.8498 71.6797 55.7898 72.5097 55.7898 72.9697C55.7898 73.4297 55.8398 74.2597 56.4698 74.2597C57.0498 74.2597 57.2098 73.4097 57.2098 72.9697C57.2098 72.4997 57.0698 71.6897 56.4598 71.6897V71.6797Z" fill="#FCFCFC"/>
<path d="M48.4499 78.3701C48.3099 78.3701 48.1999 78.4301 48.1499 78.5601C48.1399 78.5901 48.1299 78.6301 48.1299 78.6601H48.7499C48.7499 78.4901 48.6199 78.3701 48.4499 78.3701Z" fill="#FCFCFC"/>
<path d="M95.7499 78.3699C95.4599 78.3699 95.4299 78.7699 95.4299 78.9799C95.4299 79.1899 95.4499 79.5899 95.7499 79.5899C96.0299 79.5899 96.0999 79.1799 96.0999 78.9699C96.0999 78.7399 96.0399 78.3599 95.7399 78.3599L95.7499 78.3699Z" fill="#FCFCFC"/>
<path d="M94.3699 70.5498C93.4699 70.5498 93.4299 71.7598 93.4299 72.3998C93.4299 73.0398 93.4699 74.2498 94.3699 74.2498C95.2699 74.2498 95.3299 73.0498 95.3299 72.3998C95.3299 71.7498 95.2699 70.5498 94.3699 70.5498Z" fill="#FCFCFC"/>
<path d="M97.4499 78.3701C97.3099 78.3701 97.1999 78.4301 97.1499 78.5601C97.1399 78.5901 97.1299 78.6301 97.1299 78.6601H97.7499C97.7499 78.4901 97.6199 78.3701 97.4499 78.3701Z" fill="#FCFCFC"/>
<path d="M74.5999 22.3999C52.9999 22.3999 35.3999 39.9999 35.3999 61.5999C35.3999 83.1999 52.9999 100.8 74.5999 100.8C96.1999 100.8 113.8 83.1999 113.8 61.5999C113.8 39.9999 96.1999 22.3999 74.5999 22.3999ZM88.9599 74.1499C89.6499 73.5799 91.1399 72.1699 91.1399 71.2299C91.1399 70.7999 90.8799 70.5399 90.4399 70.5399C90.0599 70.5399 89.7599 70.7599 89.7599 71.1599H88.9699C89.0599 70.3399 89.6799 70.0299 90.4499 70.0299C91.2199 70.0299 91.8599 70.4499 91.8599 71.2699C91.8599 72.5199 90.6899 73.4099 89.8299 74.1599H91.8999V74.6599H88.9699V74.1299L88.9599 74.1499ZM72.0899 69.7199H72.8699V70.4499H72.0899V69.7199ZM72.7999 71.2599V74.6799H72.1499V71.2599H72.7999ZM46.7999 71.9399C46.9599 71.4599 47.3399 71.1699 47.8599 71.1699V71.8699C47.0399 71.8699 46.7899 72.4599 46.7899 73.2099V74.6599H46.1399V71.2399H46.7899V71.9299H46.8099L46.7999 71.9399ZM46.9599 79.8399C46.7799 79.8399 46.5999 79.7599 46.5199 79.5799V80.5399H46.2099V78.1699H46.5199V78.4199C46.5899 78.2399 46.7899 78.1299 46.9699 78.1299C47.4199 78.1299 47.5299 78.5899 47.5299 78.9599C47.5299 79.3299 47.4199 79.8399 46.9499 79.8399H46.9599ZM49.0599 78.8599H48.1099C48.1099 79.2299 48.2999 79.5899 48.7099 79.5899C48.8199 79.5899 48.9199 79.5699 49.0199 79.5299V79.7699C48.8799 79.7999 48.7499 79.8299 48.6099 79.8299C48.0299 79.8299 47.7999 79.4299 47.7999 78.8999C47.7999 78.4499 47.9999 78.1199 48.4599 78.1199C48.8599 78.1199 49.0499 78.3999 49.0499 78.7799V78.8599H49.0599ZM50.1899 74.2499C50.4199 74.2499 50.6299 74.2099 50.8299 74.1299V74.6399C50.5399 74.6999 50.2699 74.7499 49.9799 74.7499C48.7599 74.7499 48.2899 73.9099 48.2899 72.7899C48.2899 71.8599 48.6999 71.1699 49.6899 71.1699C50.5299 71.1699 50.9299 71.7599 50.9299 72.5399V72.7099H48.9499C48.9499 73.4799 49.3399 74.2499 50.2099 74.2499H50.1899ZM50.2599 78.4699C49.8699 78.4699 49.7499 78.7599 49.7499 79.1099V79.7999H49.4399V78.1699H49.7499V78.4999C49.8299 78.2699 50.0099 78.1299 50.2499 78.1299V78.4699H50.2599ZM50.8899 79.8399C50.7399 79.8399 50.5999 79.8199 50.4499 79.7799V79.5099C50.5699 79.5699 50.7399 79.6099 50.8599 79.6099C50.9999 79.6099 51.1899 79.5799 51.1899 79.3999C51.1899 79.1299 50.4499 79.0699 50.4499 78.5999C50.4499 78.2699 50.7399 78.1399 51.0299 78.1399C51.1699 78.1399 51.2699 78.1699 51.3999 78.1999V78.4799C51.2799 78.4199 51.1599 78.3799 51.0299 78.3799C50.9299 78.3799 50.7599 78.4299 50.7599 78.5599C50.7599 78.8299 51.4999 78.8699 51.4999 79.3599C51.4999 79.7299 51.2199 79.8499 50.8899 79.8499V79.8399ZM52.4599 79.8399C51.9299 79.8399 51.7399 79.4599 51.7399 78.9899C51.7399 78.5199 51.9399 78.1399 52.4599 78.1399C52.9799 78.1399 53.1799 78.5199 53.1799 78.9899C53.1799 79.4599 52.9799 79.8399 52.4599 79.8399ZM52.6499 74.7599C51.6999 74.7599 51.4799 73.7999 51.4799 73.0299C51.4799 72.2599 51.7099 71.1799 52.6899 71.1799C53.0599 71.1799 53.4699 71.3699 53.5999 71.7299H53.6199V69.7199H54.2699V74.6799H53.6299V74.1499H53.6099C53.4699 74.5399 53.0499 74.7599 52.6599 74.7599H52.6499ZM54.8399 79.7999H54.5299V78.9099C54.5299 78.8499 54.5299 78.7799 54.5299 78.7099C54.5299 78.5599 54.4899 78.4399 54.3099 78.4399C54.0099 78.4399 53.8799 78.8699 53.8799 79.1099V79.7999H53.5699V78.1699H53.8799V78.5199C53.9699 78.2899 54.1399 78.1299 54.3999 78.1299C54.7299 78.1299 54.8399 78.3799 54.8399 78.6699V79.7999ZM54.4999 61.7999H54.1999C53.6999 61.7999 53.2999 61.6999 52.8999 61.5999C52.4999 61.4999 52.1999 61.2999 51.8999 61.0999C51.7999 60.9999 51.5999 60.7999 51.4999 60.6999C51.1999 60.6999 50.9999 60.5999 50.7999 60.4999C50.3999 60.3999 50.0999 60.1999 49.7999 59.9999L49.4999 59.5999L48.9999 59.1999L48.7999 58.9999L48.5999 58.8999C48.3999 58.7999 48.1999 58.5999 48.0999 58.3999C47.9999 58.1999 47.7999 57.9999 47.6999 57.7999C47.5999 57.5999 47.4999 57.2999 47.4999 57.0999V56.6999C47.4999 56.6999 47.3999 56.6999 47.3999 56.5999C47.2999 56.4999 47.0999 56.3999 46.9999 56.1999H46.8999C46.8999 56.1999 46.8999 56.0999 46.7999 56.0999L46.4999 55.5999C46.4999 55.5999 46.2999 55.1999 46.1999 54.8999C46.0999 54.6999 46.0999 54.5999 46.0999 54.3999V54.2999C45.9999 53.7999 45.7999 52.8999 45.8999 52.7999V52.3999C45.9999 51.9999 46.0999 51.5999 46.1999 51.0999C46.0999 50.7999 46.0999 50.4999 46.1999 50.1999V49.9999L46.3999 49.2999L46.5999 48.6999L46.7999 48.1999L46.9999 47.7999C47.2999 47.2999 47.4999 46.9999 47.8999 46.4999C47.9999 46.2999 48.0999 46.1999 48.2999 46.0999C48.3999 45.9999 48.3999 45.8999 48.4999 45.7999C48.5999 45.6999 48.6999 45.5999 48.7999 45.4999C48.8999 45.3999 48.9999 45.2999 49.0999 45.1999L49.3999 44.9999L49.6999 44.7999L49.9999 44.5999L50.2999 44.3999L50.5999 44.1999L50.7999 43.9999L50.9999 43.8999C50.9999 43.8999 50.4999 44.2999 50.2999 44.5999C50.5999 44.3999 50.7999 44.2999 51.0999 44.0999C51.4999 43.7999 51.7999 43.6999 52.1999 43.4999C52.5999 43.2999 52.8999 43.1999 53.2999 43.0999C53.6999 42.9999 53.8999 42.8999 54.1999 42.8999C54.5999 42.7999 54.8999 42.7999 55.1999 42.8999H55.4999C55.5999 42.8999 55.6999 42.8999 55.7999 42.7999C56.2999 42.6999 56.8999 42.7999 57.3999 42.7999C57.7999 42.7999 58.0999 42.9999 58.3999 43.0999L58.5999 43.1999L59.1999 43.4999L59.4999 43.6999L59.5999 43.7999L59.8999 43.8999L60.0999 43.9999C60.2999 44.0999 60.3999 44.1999 60.4999 44.2999C60.5999 44.3999 60.6999 44.5999 60.7999 44.6999V44.7999C60.9999 44.7999 61.1999 44.8999 61.2999 44.8999C61.8999 45.0999 62.3999 45.4999 62.5999 45.8999L62.6999 46.0999L63.0999 46.5999L63.4999 47.1999L63.6999 47.4999C63.7999 47.5999 63.7999 47.6999 63.7999 47.7999C63.7999 47.8999 63.8999 47.9999 63.8999 48.0999V48.8999C63.8999 49.0999 63.7999 49.2999 63.7999 49.3999C63.7999 49.3999 63.8999 49.3999 63.8999 49.4999C64.2999 49.7999 64.5999 49.9999 64.7999 50.3999C64.7999 50.4999 64.8999 50.4999 64.8999 50.5999V50.6999C64.8999 50.7999 64.8999 50.9999 64.7999 51.2999C64.8999 51.8999 64.8999 52.1999 64.7999 52.7999C64.6999 53.6999 64.3999 54.1999 63.8999 54.9999C63.7999 55.1999 63.6999 55.2999 63.4999 55.4999C63.5999 55.6999 63.6999 55.8999 63.6999 56.0999C63.6999 56.4999 63.5999 56.8999 63.3999 57.2999C63.2999 57.5999 62.9999 57.7999 62.7999 58.0999L62.4999 58.3999C62.4999 59.0999 62.0999 59.3999 61.5999 59.7999L61.4999 59.8999C61.0999 60.1999 60.6999 60.4999 60.2999 60.6999C60.1999 60.6999 60.0999 60.7999 59.9999 60.7999C59.5999 60.9999 59.2999 61.0999 58.8999 61.1999C58.8999 61.1999 58.7999 61.1999 58.7999 61.2999C58.2999 61.4999 57.7999 61.5999 57.2999 61.6999C57.1999 61.6999 57.0999 61.6999 56.9999 61.7999H54.4999ZM56.4399 79.7999H56.1299V79.5999C56.0599 79.7499 55.8699 79.8399 55.7099 79.8399C55.4399 79.8399 55.2499 79.6799 55.2499 79.3999C55.2499 78.9399 55.7899 78.8599 56.1399 78.8599V78.6099C56.1399 78.4399 56.0299 78.3699 55.8899 78.3699C55.7299 78.3699 55.6299 78.4599 55.6299 78.6199H55.2999C55.2999 78.2599 55.5899 78.1299 55.9099 78.1299C56.2699 78.1299 56.4499 78.3099 56.4499 78.6599V79.7999H56.4399ZM57.2699 79.7999H56.9599V77.4299H57.2699V79.7999ZM57.2099 74.6699V74.1399H57.1899C57.0499 74.5299 56.6299 74.7499 56.2399 74.7499C55.2899 74.7499 55.0699 73.7899 55.0699 73.0199C55.0699 72.2499 55.2999 71.1699 56.2799 71.1699C56.6499 71.1699 57.0599 71.3599 57.1899 71.7199H57.2099V69.7099H57.8599V74.6699H57.2199H57.2099ZM59.6999 79.5999C59.7899 79.5999 59.8799 79.5999 59.9599 79.5699V79.7799C59.8099 79.8199 59.6599 79.8399 59.5099 79.8399C58.9599 79.8399 58.7099 79.4299 58.7099 78.9299C58.7099 78.4799 58.9199 78.1299 59.4099 78.1299C59.7799 78.1299 59.9899 78.3299 59.9899 78.6999H59.6399C59.6399 78.5299 59.5899 78.3699 59.3899 78.3699C59.1299 78.3699 59.0599 78.6599 59.0599 78.8699C59.0599 79.2799 59.2599 79.5999 59.7099 79.5999H59.6999ZM61.3899 79.7999H61.0799V79.5999C61.0099 79.7499 60.8199 79.8399 60.6599 79.8399C60.3899 79.8399 60.1999 79.6799 60.1999 79.3999C60.1999 78.9399 60.7399 78.8599 61.0899 78.8599V78.6099C61.0899 78.4399 60.9799 78.3699 60.8399 78.3699C60.6799 78.3699 60.5799 78.4599 60.5799 78.6199H60.2499C60.2499 78.2599 60.5399 78.1299 60.8599 78.1299C61.2199 78.1299 61.3999 78.3099 61.3999 78.6599V79.7999H61.3899ZM60.1799 74.7499C59.0799 74.7499 58.6599 73.9599 58.6599 72.9599C58.6599 71.9599 59.0799 71.1699 60.1799 71.1699C61.2799 71.1699 61.6899 71.9599 61.6899 72.9599C61.6899 73.9599 61.2699 74.7499 60.1799 74.7499ZM62.6999 78.4699C62.3099 78.4699 62.1899 78.7599 62.1899 79.1099V79.7999H61.8799V78.1699H62.1899V78.4999C62.2699 78.2699 62.4499 78.1299 62.6899 78.1299V78.4699H62.6999ZM64.1599 78.8599H63.2099C63.2099 79.2299 63.3999 79.5899 63.8099 79.5899C63.9199 79.5899 64.0199 79.5699 64.1199 79.5299V79.7699C63.9799 79.7999 63.8499 79.8299 63.7099 79.8299C63.1299 79.8299 62.8999 79.4299 62.8999 78.8999C62.8999 78.4499 63.0999 78.1199 63.5599 78.1199C63.9599 78.1199 64.1499 78.3999 64.1499 78.7799V78.8599H64.1599ZM64.3799 71.7499H63.4299V73.5799C63.4299 73.9599 63.5199 74.2499 63.9699 74.2499C64.0799 74.2499 64.2099 74.2399 64.3099 74.1999V74.6999C64.1399 74.7299 63.9699 74.7499 63.7999 74.7499C63.1899 74.7499 62.7699 74.5699 62.7699 73.9199V71.7599H62.1599V71.2599H62.7699V70.4499L63.4199 70.0499V71.2599H64.3699V71.7599L64.3799 71.7499ZM64.7699 80.1199H64.4799L64.5299 79.3299H64.9099L64.7699 80.1199ZM67.9099 79.7999H67.5899L67.2499 78.6699L66.9199 79.7999H66.5899L66.2099 78.1699H66.5099L66.7699 79.3499L67.1299 78.1699H67.3599L67.7199 79.3499L67.9799 78.1699H68.2799L67.9099 79.7999ZM67.7099 74.6699L66.9199 71.2499H67.5399L68.0799 73.7299H68.0999L68.8499 71.2499H69.3399L70.0899 73.7299H70.1099L70.6499 71.2499H71.2699L70.4999 74.6699H69.8099L69.0999 72.2999H69.0799L68.3899 74.6699H67.7099ZM69.8099 78.8599H68.8599C68.8599 79.2299 69.0499 79.5899 69.4599 79.5899C69.5699 79.5899 69.6699 79.5699 69.7699 79.5299V79.7699C69.6299 79.7999 69.4999 79.8299 69.3599 79.8299C68.7799 79.8299 68.5499 79.4299 68.5499 78.8999C68.5499 78.4499 68.7499 78.1199 69.2099 78.1199C69.6099 78.1199 69.7999 78.3999 69.7999 78.7799V78.8599H69.8099ZM70.5399 79.7999H70.2299V77.4299H70.5399V79.7999ZM71.4199 79.7999H71.1099V77.4299H71.4199V79.7999ZM73.2399 79.7999H72.9299V78.9099C72.9299 78.8499 72.9299 78.7799 72.9299 78.7099C72.9299 78.5599 72.8899 78.4399 72.7099 78.4399C72.4099 78.4399 72.2799 78.8699 72.2799 79.1099V79.7999H71.9699V78.1699H72.2799V78.5199C72.3699 78.2899 72.5399 78.1299 72.7999 78.1299C73.1299 78.1299 73.2399 78.3799 73.2399 78.6699V79.7999ZM74.8899 78.8599H73.9399C73.9399 79.2299 74.1299 79.5899 74.5399 79.5899C74.6499 79.5899 74.7499 79.5699 74.8499 79.5299V79.7699C74.7099 79.7999 74.5799 79.8299 74.4399 79.8299C73.8599 79.8299 73.6299 79.4299 73.6299 78.8999C73.6299 78.4499 73.8299 78.1199 74.2899 78.1199C74.6899 78.1199 74.8799 78.3999 74.8799 78.7799V78.8599H74.8899ZM74.5899 73.2199V74.6699H73.9399V71.2499H74.5899V71.9799H74.6099C74.7999 71.4899 75.1499 71.1699 75.6999 71.1699C76.3799 71.1699 76.6199 71.6999 76.6199 72.2999V74.6699H75.9699V72.7999C75.9699 72.6599 75.9699 72.5199 75.9699 72.3799C75.9499 72.0699 75.8799 71.8199 75.5099 71.8199C74.8799 71.8199 74.6099 72.7199 74.6099 73.2199H74.5899ZM75.5799 79.8399C75.4299 79.8399 75.2899 79.8199 75.1399 79.7799V79.5099C75.2599 79.5699 75.4299 79.6099 75.5499 79.6099C75.6899 79.6099 75.8799 79.5799 75.8799 79.3999C75.8799 79.1299 75.1399 79.0699 75.1399 78.5999C75.1399 78.2699 75.4299 78.1399 75.7199 78.1399C75.8599 78.1399 75.9599 78.1699 76.0899 78.1999V78.4799C75.9699 78.4199 75.8499 78.3799 75.7199 78.3799C75.6199 78.3799 75.4499 78.4299 75.4499 78.5599C75.4499 78.8299 76.1899 78.8699 76.1899 79.3599C76.1899 79.7299 75.9099 79.8499 75.5799 79.8499V79.8399ZM76.8499 79.8399C76.6999 79.8399 76.5599 79.8199 76.4099 79.7799V79.5099C76.5299 79.5699 76.6999 79.6099 76.8199 79.6099C76.9599 79.6099 77.1499 79.5799 77.1499 79.3999C77.1499 79.1299 76.4099 79.0699 76.4099 78.5999C76.4099 78.2699 76.6999 78.1399 76.9899 78.1399C77.1299 78.1399 77.2299 78.1699 77.3599 78.1999V78.4799C77.2399 78.4199 77.1199 78.3799 76.9899 78.3799C76.8899 78.3799 76.7199 78.4299 76.7199 78.5599C76.7199 78.8299 77.4599 78.8699 77.4599 79.3599C77.4599 79.7299 77.1799 79.8499 76.8499 79.8499V79.8399ZM79.9199 79.7999H79.6099V79.5999C79.5399 79.7499 79.3499 79.8399 79.1899 79.8399C78.9199 79.8399 78.7299 79.6799 78.7299 79.3999C78.7299 78.9399 79.2699 78.8599 79.6199 78.8599V78.6099C79.6199 78.4399 79.5099 78.3699 79.3699 78.3699C79.2099 78.3699 79.1099 78.4599 79.1099 78.6199H78.7799C78.7799 78.2599 79.0699 78.1299 79.3899 78.1299C79.7499 78.1299 79.9299 78.3099 79.9299 78.6599V79.7999H79.9199ZM80.3399 74.6699H79.6899V72.7999C79.6899 72.6599 79.6899 72.5199 79.6899 72.3799C79.6699 72.0699 79.5999 71.8199 79.2299 71.8199C78.5999 71.8199 78.3299 72.7199 78.3299 73.2199V74.6699H77.6799V71.2499H78.3299V71.9799H78.3499C78.5399 71.4899 78.8899 71.1699 79.4399 71.1699C80.1199 71.1699 80.3599 71.6999 80.3599 72.2999V74.6699H80.3399ZM81.6799 79.7999H81.3699V78.9099C81.3699 78.8499 81.3699 78.7799 81.3699 78.7099C81.3699 78.5599 81.3299 78.4399 81.1499 78.4399C80.8499 78.4399 80.7199 78.8699 80.7199 79.1099V79.7999H80.4099V78.1699H80.7199V78.5199C80.8099 78.2899 80.9799 78.1299 81.2399 78.1299C81.5699 78.1299 81.6799 78.3799 81.6799 78.6699V79.7999ZM83.3999 79.7999H83.0899V79.5499C83.0299 79.7299 82.8199 79.8399 82.6399 79.8399C82.1899 79.8399 82.0799 79.3799 82.0799 79.0099C82.0799 78.6399 82.1899 78.1299 82.6599 78.1299C82.8399 78.1299 83.0299 78.2199 83.0999 78.3899V77.4299H83.4099V79.7999H83.3999ZM83.7899 72.7099H81.8099C81.8099 73.4799 82.1999 74.2499 83.0699 74.2499C83.2999 74.2499 83.5099 74.2099 83.7099 74.1299V74.6399C83.4199 74.6999 83.1499 74.7499 82.8599 74.7499C81.6399 74.7499 81.1699 73.9099 81.1699 72.7899C81.1699 71.8599 81.5799 71.1699 82.5699 71.1699C83.4099 71.1699 83.8099 71.7599 83.8099 72.5399V72.7099H83.7899ZM85.5199 79.8399C85.0499 79.8399 84.8899 79.5499 84.8899 79.1299V77.4399H85.1999V78.3999C85.2799 78.2299 85.4399 78.1399 85.6199 78.1399C86.0999 78.1399 86.1799 78.6399 86.1799 79.0099C86.1799 79.4599 86.0299 79.8499 85.5199 79.8499V79.8399ZM86.3099 71.8799C85.4899 71.8799 85.2399 72.4699 85.2399 73.2199V74.6699H84.5899V71.2499H85.2399V71.9399H85.2599C85.4199 71.4599 85.7999 71.1699 86.3199 71.1699V71.8699L86.3099 71.8799ZM87.7099 78.8599H86.7599C86.7599 79.2299 86.9499 79.5899 87.3599 79.5899C87.4699 79.5899 87.5699 79.5699 87.6699 79.5299V79.7699C87.5299 79.7999 87.3999 79.8299 87.2599 79.8299C86.6799 79.8299 86.4499 79.4299 86.4499 78.8999C86.4499 78.4499 86.6499 78.1199 87.1099 78.1199C87.5099 78.1199 87.6999 78.3999 87.6999 78.7799V78.8599H87.7099ZM89.1899 79.7999H88.8799V79.5999C88.8099 79.7499 88.6199 79.8399 88.4599 79.8399C88.1899 79.8399 87.9999 79.6799 87.9999 79.3999C87.9999 78.9399 88.5399 78.8599 88.8899 78.8599V78.6099C88.8899 78.4399 88.7799 78.3699 88.6399 78.3699C88.4799 78.3699 88.3799 78.4599 88.3799 78.6199H88.0499C88.0499 78.2599 88.3399 78.1299 88.6599 78.1299C89.0199 78.1299 89.1999 78.3099 89.1999 78.6599V79.7999H89.1899ZM90.9299 79.7999H90.6199V79.4499C90.5399 79.6799 90.3599 79.8399 90.0999 79.8399C89.7699 79.8399 89.6599 79.5899 89.6599 79.2999V78.1699H89.9699V79.0599C89.9699 79.1299 89.9699 79.1899 89.9699 79.2599C89.9699 79.4099 90.0099 79.5299 90.1899 79.5299C90.4899 79.5299 90.6199 79.0999 90.6199 78.8599V78.1699H90.9299V79.7999ZM92.3499 78.4099H91.8999V79.2799C91.8999 79.4599 91.9399 79.5999 92.1599 79.5999C92.2199 79.5999 92.2699 79.5999 92.3299 79.5799V79.8199C92.2499 79.8399 92.1699 79.8399 92.0899 79.8399C91.7999 79.8399 91.5999 79.7499 91.5999 79.4399V78.4099H91.3099V78.1699H91.5999V77.7899L91.9099 77.5999V78.1799H92.3599V78.4199L92.3499 78.4099ZM93.1199 80.4999H92.8199L93.0499 79.8099L92.4299 78.1699H92.7699L93.1999 79.3499L93.5799 78.1699H93.9199L93.1099 80.4999H93.1199ZM92.7099 72.3999C92.7099 71.2799 93.0099 70.0399 94.3699 70.0399C95.7299 70.0399 96.0499 71.2699 96.0499 72.3999C96.0499 73.5299 95.7399 74.7599 94.3699 74.7599C92.9999 74.7599 92.7099 73.5199 92.7099 72.3999ZM96.4199 79.7999H96.1099V79.5499C96.0499 79.7299 95.8399 79.8399 95.6599 79.8399C95.2099 79.8399 95.0999 79.3799 95.0999 79.0099C95.0999 78.6399 95.2099 78.1299 95.6799 78.1299C95.8599 78.1299 96.0499 78.2199 96.1199 78.3899V77.4299H96.4299V79.7999H96.4199ZM98.0599 78.8699H97.1099C97.1099 79.2399 97.2999 79.5999 97.7099 79.5999C97.8199 79.5999 97.9199 79.5799 98.0199 79.5399V79.7799C97.8799 79.8099 97.7499 79.8399 97.6099 79.8399C97.0299 79.8399 96.7999 79.4399 96.7999 78.9099C96.7999 78.4599 96.9999 78.1299 97.4599 78.1299C97.8599 78.1299 98.0499 78.4099 98.0499 78.7899V78.8699H98.0599ZM98.7499 79.8399C98.5999 79.8399 98.4599 79.8199 98.3099 79.7799V79.5099C98.4299 79.5699 98.5999 79.6099 98.7199 79.6099C98.8599 79.6099 99.0499 79.5799 99.0499 79.3999C99.0499 79.1299 98.3099 79.0699 98.3099 78.5999C98.3099 78.2699 98.5999 78.1399 98.8899 78.1399C99.0299 78.1399 99.1299 78.1699 99.2599 78.1999V78.4799C99.1399 78.4199 99.0199 78.3799 98.8899 78.3799C98.7899 78.3799 98.6199 78.4299 98.6199 78.5599C98.6199 78.8299 99.3599 78.8699 99.3599 79.3599C99.3599 79.7299 99.0799 79.8499 98.7499 79.8499V79.8399ZM99.4799 74.6699H96.5499V74.1399C97.2399 73.5699 98.7299 72.1599 98.7299 71.2199C98.7299 70.7899 98.4699 70.5299 98.0299 70.5299C97.6499 70.5299 97.3499 70.7499 97.3499 71.1499H96.5599C96.6499 70.3299 97.2699 70.0199 98.0399 70.0199C98.8099 70.0199 99.4499 70.4399 99.4499 71.2599C99.4499 72.5099 98.2799 73.3999 97.4199 74.1499H99.4899V74.6499L99.4799 74.6699ZM100.06 79.7999H99.7499V78.1699H100.06V79.7999ZM100.09 77.7899H99.7199V77.4399H100.09V77.7899ZM101.81 79.8699C101.81 80.3599 101.51 80.5399 101.06 80.5399C100.89 80.5399 100.72 80.5199 100.56 80.4799V80.1699C100.71 80.2399 100.86 80.2999 101.03 80.2999C101.4 80.2999 101.51 80.1199 101.51 79.7799V79.5299C101.44 79.7099 101.24 79.8099 101.06 79.8099C100.61 79.8099 100.5 79.3699 100.5 78.9899C100.5 78.6099 100.62 78.1399 101.08 78.1399C101.26 78.1399 101.44 78.2399 101.51 78.3999V78.1699H101.82V79.8699H101.81ZM102.01 74.7599C101.29 74.7599 100.54 74.4999 100.49 73.6799H101.28C101.28 74.0599 101.66 74.2499 102.01 74.2499C102.66 74.2499 102.87 73.8799 102.87 73.2599C102.87 72.7499 102.6 72.3899 102.06 72.3899C101.77 72.3899 101.56 72.4599 101.39 72.7199H100.68L100.81 70.1299H103.25V70.6299H101.47L101.41 72.1199C101.64 71.9499 101.91 71.8999 102.2 71.8999C103.11 71.8999 103.6 72.4799 103.6 73.3699C103.6 74.3199 102.91 74.7699 102.03 74.7699L102.01 74.7599ZM103.59 79.7999H103.28V78.9099C103.28 78.8499 103.28 78.7799 103.28 78.7099C103.28 78.5599 103.24 78.4399 103.06 78.4399C102.76 78.4399 102.63 78.8699 102.63 79.1099V79.7999H102.32V78.1699H102.63V78.5199C102.72 78.2899 102.89 78.1299 103.15 78.1299C103.48 78.1299 103.59 78.3799 103.59 78.6699V79.7999Z" fill="#FCFCFC"/>
<path d="M101.15 78.3701C100.86 78.3701 100.83 78.7701 100.83 78.9801C100.83 79.1901 100.87 79.5601 101.15 79.5601C101.43 79.5601 101.51 79.1701 101.51 78.9501C101.51 78.7301 101.44 78.3701 101.15 78.3701Z" fill="#FCFCFC"/>
</g>
<defs>
<clipPath id="clip0_5399_2654">
<rect width="129.1" height="116.6" fill="white" transform="translate(10 9)"/>
</clipPath>
</defs>
</svg>
