<svg width="478" height="50" viewBox="0 0 478 50" fill="none" xmlns="http://www.w3.org/2000/svg">
<g clip-path="url(#clip0_29497_7981)">
<path d="M218.66 8.91309C205.268 8.91309 199.22 16.6826 199.22 26.4366C199.22 36.1905 205.34 44.2802 218.66 44.2802C231.98 44.2802 238.092 36.4066 238.092 26.4366C238.092 16.4666 232.052 8.91309 218.66 8.91309ZM218.7 18.1309C223.484 18.1309 225.5 21.8837 225.5 26.4366C225.5 31.2295 223.396 35.0623 218.7 35.0623C214.004 35.0623 211.804 31.2616 211.804 26.4366C211.804 21.8837 213.924 18.1309 218.7 18.1309Z" fill="white"/>
<path d="M100.434 9.90527V43.2319H117.146C130.634 43.2319 136.794 35.8945 136.794 26.5166C136.794 17.1387 130.634 9.90527 117.146 9.90527H100.434ZM117.762 19.2591C121.458 19.2912 124.434 22.3078 124.402 26.0045C124.402 26.1725 124.394 26.3406 124.378 26.5086C124.378 30.7414 122.074 33.8461 117.146 33.8461H112.858V19.2751H117.146C117.346 19.2591 117.554 19.2511 117.762 19.2511V19.2591Z" fill="white"/>
<path d="M65.3533 9.90527L50.249 43.2319H62.4652L64.3932 38.303H79.1215L81.0495 43.2319H93.2497L78.2095 9.90527H65.3533ZM71.7774 19.5472L76.1694 30.7494H67.3853L71.7774 19.5472Z" fill="white"/>
<path d="M478.495 34.5502V43.2319H447.383V9.90527H478.079V18.2109H459.599V23.0359H472.511V29.8373H459.599V34.5502H478.495Z" fill="white"/>
<path d="M433.766 33.478V43.2319H406.678V9.90527H418.238V33.478H433.774H433.766Z" fill="white"/>
<path d="M393.054 33.478V43.2319H365.966V9.90527H377.534V33.478H393.054Z" fill="white"/>
<path d="M352.558 34.5502V43.2319H321.397V9.90527H352.198V18.2109H333.662V23.0359H346.558V29.8373H333.662V34.5502H352.558Z" fill="white"/>
<path d="M306.453 28.9008C301.093 29.5329 298.42 32.5975 295.58 36.2302L285.148 32.6535V32.3575L303.109 21.6433C306.829 20.131 311.949 15.6581 311.949 11.1052C311.949 7.23245 308.317 5.24805 304.717 5H304.205L300.885 14.6739C298.092 8.52871 292.956 5.008 286.58 5.008C279.748 4.83197 274.02 10.121 273.644 16.9384C273.644 20.6591 275.828 24.6679 280.604 24.6679C283.34 24.796 285.924 23.3877 287.3 21.0112L287.516 20.6351L282.748 13.6817C283.028 13.1856 283.524 12.8576 284.084 12.7856C285.828 12.9776 287.492 13.6177 288.916 14.6499C291.732 16.4343 294.884 17.6505 298.172 18.2106V18.4907L279.428 29.5169C275.132 31.2452 270.54 34.6059 270.54 38.8948C270.54 42.7515 274.172 44.7519 277.756 45H278.252L281.596 36.2943C284.06 41.5433 289.324 44.92 295.124 44.96C302.045 44.96 306.389 40.2871 308.373 30.6851L308.453 30.3091L306.781 28.7568L306.461 28.9008H306.453Z" fill="white"/>
<path d="M247.748 9.90527H260.5V43.2319H247.748V9.90527Z" fill="white"/>
<path d="M189.507 9.90505V43.2317H177.723V25.3401L168.131 37.8786L158.234 25.8202V43.2317H146.45V9.90505H158.234L168.131 22.4116L177.723 9.87305L189.507 9.89705V9.90505Z" fill="white"/>
<path d="M43.0567 9.90505V43.2317H31.2885V25.3401L21.6964 37.8786L11.7842 25.8202V43.2317H0V9.90505H11.7842L21.6964 22.4116L31.2885 9.87305L43.0567 9.89705V9.90505Z" fill="white"/>
</g>
<defs>
<clipPath id="clip0_29497_7981">
<rect width="478" height="50" fill="white"/>
</clipPath>
</defs>
</svg>
