<svg width="187" height="50" viewBox="0 0 187 50" fill="none" xmlns="http://www.w3.org/2000/svg">
<g clip-path="url(#clip0_29497_8174)">
<path d="M131.02 15.0302C131.46 15.4402 139.39 12.9502 141.25 13.3702C143.47 13.8602 139.87 15.4502 139.3 15.6502C137.92 16.1302 131.01 17.3502 130.55 18.0302L129.48 29.3202C129.6 30.5502 129.89 34.1702 131.7 33.6402C131.81 33.6102 133.37 32.3602 133.43 32.2702C134.43 30.6602 134.53 24.9002 135.36 24.0502C135.88 23.5202 136.58 23.6402 137 24.2302C138.43 26.2802 134.9 30.6302 137.07 33.1802C137.34 33.4902 137.38 33.8002 137.92 33.6802C138.35 33.3702 138.3 25.2302 138.88 23.6602C139.09 23.1002 139.62 23.0302 140.17 23.1402C141.18 23.3302 140.81 24.3102 141.26 25.0702C141.99 26.3002 143.45 27.3002 143.33 29.1702C144.43 28.5402 144.35 23.2602 146.6 24.7002C147.61 25.3502 146.68 31.2202 148.63 32.1702C151.45 31.2102 148.99 27.0302 150.22 25.4502C150.8 24.7102 151.99 25.6902 152.22 26.4502C152.53 27.4702 152.37 34.9302 151.78 35.3602C150.79 35.9602 150.39 34.9102 149.76 34.6802C149.22 34.4802 148.41 34.7902 147.44 34.2402C146.47 33.6902 145.54 32.4002 145.44 31.2702C144.26 31.0702 145.33 32.7002 144.24 33.2402C142.02 34.3302 142.16 30.7902 140.93 30.0702L140.28 34.9902L139.83 35.4602C137.73 35.2102 135.79 36.1002 134.75 33.6802C133.78 33.6802 133.35 35.7302 131.98 36.0302C128.72 36.7402 127.6 32.7002 127.39 30.2202C127.09 26.6202 128.06 22.2902 128.29 18.6402L119.69 21.6502C118.26 21.8302 117.56 20.5902 118.57 19.5202L128.55 15.8902C129 14.7502 128.67 9.10019 129.23 8.75019C129.53 8.57019 130.35 8.70019 130.7 8.86019C132.44 9.70019 131.07 13.5802 131 15.0202L131.02 15.0302Z" fill="white"/>
<path d="M57.9101 15.3302C65.0601 16.4402 66.1701 24.8302 62.2501 30.0502C59.3601 33.9002 50.8001 37.6902 46.0401 36.9702C44.6901 36.7702 43.3701 35.7802 42.5801 34.6902C43.1901 32.5802 45.1301 35.2402 46.7701 34.5802C45.6401 31.8702 46.5901 29.0802 46.7701 26.3102C47.0001 22.6502 47.2001 18.9902 47.3701 15.3302C44.6301 16.3302 44.8701 11.6402 45.4101 9.91021C47.8301 2.18021 63.6101 4.12021 59.7701 12.5402C59.5601 12.9902 57.6001 15.0702 57.9001 15.3302H57.9101ZM49.4801 16.5302C50.4301 16.3302 51.2201 15.7802 52.1701 15.4602C53.3101 15.0702 53.6301 15.5102 54.9001 14.5802C58.3001 12.0902 59.6101 7.50021 53.8401 7.48021C50.2101 7.47021 46.7001 10.2002 47.3701 14.1202L48.4401 10.5402L49.1701 9.76021L50.0501 9.95021C50.2401 12.1702 49.9401 14.3702 49.4801 16.5302ZM49.1801 20.1502C49.8101 22.9802 47.5801 31.6702 49.0401 33.6802C49.2601 33.9902 49.4401 34.2402 49.8701 34.2302C50.6501 34.2102 53.6001 32.9502 54.5001 32.5302C58.6901 30.6102 62.6701 27.5302 62.1201 22.4002C61.7901 19.3002 59.5001 17.6902 56.5101 17.4602C54.5001 17.3102 51.6701 20.5902 49.1801 20.1502Z" fill="white"/>
<path d="M82.5002 11.49C82.7902 11.79 83.1602 14.54 83.1902 15.16C83.3702 20.22 82.4202 22.51 83.7102 27.88C84.0002 29.07 83.5402 31.26 85.2802 31.57C85.1802 30.37 86.6402 30.5 86.7902 30.36C86.9602 30.21 85.6002 26.6 87.3702 26.27C89.4202 25.89 88.9902 29.76 89.5702 31.33C90.4702 33.76 91.4602 32.54 91.8302 30.74C92.2002 28.94 91.0202 26.27 93.2402 25.55C95.5802 25.95 94.5902 28.67 94.5902 30.19C94.5902 37.06 95.6802 51.56 84.6002 49.84C82.5102 49.51 78.6902 47.49 78.6602 45.1C80.5502 45.47 81.9402 46.91 83.9502 47.18C87.1002 47.6 88.9302 46.94 90.5302 44.18C92.3002 41.12 91.6102 38.41 92.2002 35.18C89.9702 36.14 87.9802 34.61 87.3802 32.47C87.0002 32.17 86.3602 35.47 83.9702 34.24C81.4302 32.93 81.6602 30.01 80.7102 28.17C79.4002 25.65 74.8302 31.57 77.0102 33.37C78.7902 33.04 79.5802 29.44 81.2402 31.27C80.5002 33.68 78.9702 37.05 75.8502 35.45C71.5602 33.25 75.4102 24.08 80.1802 24.96L80.4702 11.62C80.6002 11.09 82.1302 11.05 82.5202 11.49H82.5002Z" fill="white"/>
<path d="M18.1901 23.75C18.7701 23.91 18.9701 23.15 19.4901 23.19C21.8801 23.38 21.4101 30.77 23.6101 31.71C24.3501 32.03 25.3201 31.63 25.8601 32.46C26.9001 31.63 25.9901 30.28 26.0101 29.31C26.0701 26.34 28.2701 21.42 32.0101 22.71C35.7501 24 33.0601 30.99 30.5301 32.62C31.6001 34.2 35.9001 31.73 36.5301 32.18C37.2201 34.78 34.2701 35.74 32.1401 35.75C30.6301 35.75 28.1001 34.69 26.6201 34.12C26.3201 34 25.9801 33.39 25.8601 33.38C25.6901 33.38 25.1201 34.29 24.7901 34.44C23.6601 34.95 21.7001 33.39 21.0701 32.45L19.0901 27.96L18.4401 35.29C18.1401 36.2 16.4001 35.91 16.1501 34.68C14.8301 28.11 16.4601 21.15 16.6901 14.57C16.7201 13.76 16.2501 13.02 16.3701 12.2C16.5801 10.8 18.4901 10.7 18.7701 12.19C19.0301 13.54 18.8701 17.26 18.7901 18.81C18.7501 19.58 18.0001 23.56 18.1801 23.76L18.1901 23.75ZM28.7301 30.37C28.9901 30.58 33.1601 26.41 31.2801 25.26C29.8301 24.84 27.8801 29.15 28.7301 30.37Z" fill="white"/>
<path d="M102.54 33.5799C99.07 29.8599 99.65 17.4799 101.39 12.9299C104.76 4.1199 114.7 0.879903 116.54 12.8099C117.44 18.6199 115.35 31.6099 109.64 34.7199C107.27 36.0099 104.39 35.5599 102.54 33.5799ZM109.55 31.4699C113.97 27.2099 115.61 15.6499 113.58 10.0499C111.39 3.9899 104.67 11.0599 103.41 14.3599C102.86 15.7999 102.21 19.3499 102.13 20.8999C102.03 22.9399 102.77 29.6399 103.79 31.2599C105.34 33.7199 107.7 33.2399 109.54 31.4699H109.55Z" fill="white"/>
<path d="M13.0801 6.31016C14.1901 7.48016 14.3601 8.17016 14.3001 9.78016C13.9701 18.1302 12.3901 26.5502 13.0801 35.0402C13.0201 36.2602 11.2801 35.7502 11.0201 34.9902C10.8901 34.6202 10.6901 31.2902 10.6601 30.5402C10.4501 25.9102 10.9701 20.1902 11.2801 15.4902C11.4701 12.5402 11.8001 9.54016 12.1801 6.61016L2.85007 10.8402C4.68007 16.0502 -2.17993 12.2302 0.720075 9.15016C3.32007 6.39016 18.4201 1.93016 22.6401 0.980156C23.8401 0.710156 26.0401 0.0401562 27.1101 0.000156249C27.6101 -0.0198437 27.8201 0.0201563 28.1201 0.440156C27.7201 1.19016 27.5201 2.25016 26.6201 2.55016L13.0701 6.31016H13.0801Z" fill="white"/>
<path d="M165.92 12.0199C169.25 11.4899 172.64 10.8499 176 10.5199C178.2 10.2999 181.08 9.96995 183.22 9.90995C183.7 9.89995 186.61 9.97995 186.69 10.3999C186.69 11.1599 186.52 12.1699 185.62 12.3199L165.64 14.4599L164.69 23.8899C164.56 25.7199 164.98 33.7699 167.27 33.9899C167.86 34.0499 169.44 33.1699 170.03 32.8399C171.11 32.2299 171.33 30.9399 172.52 32.3499C171.52 34.5499 168.53 37.2099 165.98 36.1599C160.76 34.0099 163.09 19.5799 162.89 15.0299C161.5 15.2599 157.36 15.9899 157.16 13.9599C156.94 11.8099 161.83 13.0099 163.2 12.3099L163.18 9.20995C163.24 8.94995 163.78 8.79995 164.02 8.76995C165.77 8.56995 165.83 10.6199 165.9 12.0199H165.92Z" fill="white"/>
<path d="M119.02 23.1201C119.25 23.2901 122.03 21.4201 124.38 22.7201C125.02 23.0801 126.02 24.3301 126.28 25.0301C128.26 30.4401 122.44 35.0401 117.83 36.4201C117.45 37.9601 118.76 45.5101 117.81 46.1801C116.02 47.4401 115.49 44.5501 115.39 43.4501C115.08 40.0001 115.44 33.8101 115.69 30.2201C115.85 27.8701 116.53 25.5601 116.82 23.2201L117.96 22.2301C119.03 22.1201 118.83 22.9601 119.04 23.1201H119.02ZM118.08 33.6801C120.36 33.1401 123.92 30.4201 124.32 28.0401C125.27 22.4801 118.94 24.5001 118.39 27.8301C118.11 29.5201 118.49 31.8601 118.07 33.6801H118.08Z" fill="white"/>
<path d="M65.5101 35.0998C62.5501 32.7198 64.8901 25.3198 67.0701 22.8398C68.1301 21.6398 70.5501 20.0298 72.1201 20.8098C75.0301 22.2498 74.4601 28.5398 73.4701 31.0398C72.4001 33.7298 68.4401 37.4498 65.5101 35.0898V35.0998ZM66.3701 33.0398C71.0601 34.6898 73.4701 26.9398 71.7501 23.5998C69.7401 22.9498 68.2401 25.3198 67.4701 26.8698C66.4901 28.8498 65.8601 30.8498 66.3701 33.0498V33.0398Z" fill="white"/>
<path d="M159.59 22.55C155.45 25.45 163.89 32.67 159.89 35.33C156.78 37.39 150.86 33.51 153.27 32.01C154.08 31.51 154.54 32.55 155.17 32.84C156.26 33.35 157.69 33.75 158.72 32.89C158.14 29.84 155.83 27.46 155.97 24.2C156.18 19.3 162.29 17.46 162 21.78C161.9 23.23 159.93 24.39 159.6 22.55H159.59Z" fill="white"/>
<path d="M136.37 19.31L137.59 21.56C137.71 22.89 134.95 21.96 134.67 21.16C134.2 19.8 134.93 18.85 136.37 19.32V19.31Z" fill="white"/>
<path d="M150.75 20.16C151.43 20.04 151.91 21.36 152.01 21.86C150.35 24.93 148.73 20.52 150.75 20.16Z" fill="white"/>
</g>
<defs>
<clipPath id="clip0_29497_8174">
<rect width="186.69" height="50" fill="white"/>
</clipPath>
</defs>
</svg>
