<svg width="204" height="50" viewBox="0 0 204 50" fill="none" xmlns="http://www.w3.org/2000/svg">
<g clip-path="url(#clip0_29497_8008)">
<path d="M6.82 1.20996H16.74L25.14 19.72L33.8 1.20996H43.72L50.27 48.82H37.58L34.81 29.25H34.67L25.16 49.14L15.65 29.25H15.49L12.72 48.82H0L6.82 1.20996Z" fill="white"/>
<path d="M54.4805 1.20996H80.0005L81.9305 13.76H66.9305V18.73H76.7105V31.28H66.9305V36.25H83.5905L80.3605 48.8H54.5205V1.20996H54.4905H54.4805Z" fill="white"/>
<path d="M85.1098 1.20996H114.46L115.71 13.25H105.98V48.82H93.5298V13.25H83.7998L85.0998 1.20996H85.1098Z" fill="white"/>
<path d="M119.29 1.20996H135.62C140.51 1.20996 144.4 2.50996 147.3 5.14996C150.18 7.78996 151.62 11.56 151.62 16.48C151.62 21.4 149.45 25.31 145.15 28.19L154.28 48.81H140.26L131.86 29.16H131.72V48.81H119.27V1.20996H119.29ZM131.74 23.57C134.16 23.57 136.01 23.11 137.28 22.18C138.55 21.25 139.21 19.76 139.21 17.7C139.21 15.64 138.56 14.14 137.28 13.19C136 12.27 134.16 11.8 131.74 11.8V23.57Z" fill="white"/>
<path d="M201.88 34.6598C200.63 37.6498 198.84 40.3898 196.55 42.6998C194.29 45.0098 191.63 46.8298 188.67 48.0798C182.69 50.6298 175.93 50.6298 169.95 48.0798C166.99 46.8298 164.32 44.9798 162.07 42.6998C159.81 40.3898 158.02 37.6498 156.77 34.6598C154.22 28.4598 154.22 21.5398 156.77 15.3398C158.02 12.3498 159.81 9.60982 162.1 7.29982C164.36 4.98982 167.02 3.16982 169.98 1.91982C175.96 -0.630176 182.72 -0.630176 188.7 1.91982C191.66 3.16982 194.33 5.01982 196.58 7.29982C198.86 9.60982 200.66 12.3498 201.91 15.3398C204.46 21.5398 204.46 28.4598 201.91 34.6598H201.88ZM190.22 20.4198C189.62 18.9498 188.78 17.6198 187.67 16.4798C186.58 15.3398 185.31 14.4398 183.87 13.7898C182.46 13.1598 180.91 12.8398 179.36 12.8398C177.81 12.8398 176.26 13.1398 174.82 13.7598C173.41 14.3598 172.13 15.2498 171.04 16.3698C169.95 17.5098 169.08 18.8198 168.49 20.2598C167.27 23.2798 167.27 26.6698 168.49 29.6898C169.09 31.1598 169.96 32.4898 171.04 33.6298C172.1 34.7398 173.38 35.6398 174.82 36.2398C176.26 36.8598 177.78 37.1598 179.36 37.1598C180.94 37.1598 182.46 36.8298 183.9 36.2098C185.34 35.5898 186.62 34.6598 187.7 33.5198C191.04 30.0698 192.05 24.9098 190.23 20.4198H190.22Z" fill="white"/>
</g>
<defs>
<clipPath id="clip0_29497_8008">
<rect width="203.82" height="50" fill="white"/>
</clipPath>
</defs>
</svg>
