<svg width="158" height="50" viewBox="0 0 158 50" fill="none" xmlns="http://www.w3.org/2000/svg">
<g clip-path="url(#clip0_29497_8016)">
<path d="M0 0V50H157.38V0H0ZM31.07 42.52H22.98L15.82 21.85V42.52H6.56V5.78H20.55L27.03 25.37L33.49 5.78H47.5V42.52H38.33V21.85L31.07 42.52ZM60.05 15.72V42.5H50.8V15.72H60.05ZM50.79 13.09V5.79H59.97V13.09H50.79ZM71.85 20.66C73.44 17.27 75.76 15.11 79.77 15.11C80.85 15.11 82.18 15.28 83.1 15.44L82.05 23.14C81.02 22.83 80.39 22.82 79.31 22.82C74.99 22.82 72.58 25.96 72.58 31.2V42.51H63.33V15.72H71.76V20.65H71.86L71.85 20.66ZM92.36 20.66C93.95 17.27 96.27 15.11 100.28 15.11C101.36 15.11 102.49 15.26 103.42 15.42L102.33 23.14C101.27 22.85 100.66 22.81 99.58 22.8C95.53 22.77 93.09 25.95 93.09 31.2V42.51H83.84V15.72H92.27V20.65H92.37L92.36 20.66ZM116.93 15.1C125.77 15.1 132.51 20.24 132.51 29.13C132.51 38.02 125.78 43.11 116.93 43.11C108.08 43.11 101.35 37.97 101.35 29.13C101.35 20.24 108.08 15.1 116.93 15.1ZM152.17 23.13C151.14 22.82 150.71 22.81 149.63 22.81C145.31 22.81 142.88 25.94 142.88 31.18V42.49H133.64V15.72H142.07V20.65H142.17C143.76 17.26 146.08 15.1 150.09 15.1C151.17 15.1 152.3 15.25 153.23 15.41L152.17 23.13Z" fill="white"/>
<path d="M116.93 36.6398C121.2 36.6398 122.94 33.0898 122.94 29.1298C122.94 25.1698 121.19 21.5698 116.93 21.5698C112.67 21.5698 110.92 25.1198 110.92 29.1298C110.92 33.1398 112.67 36.6398 116.93 36.6398Z" fill="white"/>
</g>
<defs>
<clipPath id="clip0_29497_8016">
<rect width="157.38" height="50" fill="white"/>
</clipPath>
</defs>
</svg>
