<svg width="233" height="50" viewBox="0 0 233 50" fill="none" xmlns="http://www.w3.org/2000/svg">
<g clip-path="url(#clip0_29497_8019)">
<path d="M209.26 38.2001C209.71 38.3401 210.66 40.8201 213.1 41.3401C219.81 42.7501 223.06 38.2101 222.32 31.9701C215.62 37.6401 206.03 36.2901 200.61 29.5801C195.19 22.8701 195.45 12.8101 200.78 6.30006C206.11 -0.209938 215.84 -2.08994 222.31 4.10006V0.800062H232.25V36.5501C232.25 38.5201 230.54 42.2801 229.3 43.8801C221.62 53.6901 200.71 51.6601 198.02 38.2101H209.25L209.26 38.2001ZM220.36 11.5601C212.35 3.57006 200.5 17.3801 209.64 24.6201C218.29 31.4701 227.46 18.6401 220.36 11.5601Z" fill="white"/>
<path d="M156.81 35.2698H146.87V15.2798C146.87 12.5598 144.2 10.2998 141.53 10.2998C138.7 10.2998 135.82 12.7598 135.82 15.6498V35.2698H125.88V14.1798C125.88 14.0798 125.23 12.6298 125.09 12.3998C123.48 9.82979 118.98 9.81979 116.86 11.7898C116.45 12.1698 115.21 14.5398 115.21 14.9098V35.2598H105.27V13.4498C105.27 13.1398 106.02 10.4998 106.2 9.97978C109.88 -0.570215 123.07 -3.01021 131.22 4.11979C136.52 -0.920215 145.53 -1.42021 151.29 3.17979C153.84 5.21979 156.8 10.5698 156.8 13.8198V35.2698H156.81Z" fill="white"/>
<path d="M51.53 35.2702H41.59V15.2802C41.59 12.5602 38.92 10.3002 36.25 10.3002C33.42 10.3002 30.54 12.7602 30.54 15.6502V35.2702H20.6V14.1802C20.6 14.0802 19.95 12.6302 19.81 12.4002C18.2 9.83023 13.7 9.82023 11.58 11.7902C11.17 12.1702 9.93 14.5402 9.93 14.9102V35.2602H0V13.4502C0 12.8502 0.99 10.0102 1.29 9.24023C5.29 -0.689774 18.48 -3.11977 25.95 4.46023C32.32 -2.58977 45.08 -1.03977 49.52 7.38023C50.19 8.65023 51.53 12.5102 51.53 13.8102V35.2602V35.2702Z" fill="white"/>
<path d="M185.52 35.2699V31.5999C170.41 43.8599 151.47 25.3799 160.8 8.98994C164.74 2.05994 174.42 -2.39006 181.86 1.69994C183.19 2.42994 183.75 3.74994 185.15 4.09994V0.799938H195.46V35.2699H185.52ZM175.86 9.32994C167.39 10.4099 165.61 22.7899 174.27 25.7499C187.94 30.4299 189.61 7.56994 175.86 9.32994Z" fill="white"/>
<path d="M79.6901 0.799805L85.4001 9.5998L91.4701 0.799805H101.96L91.0401 17.4798L103.8 35.2698H91.4701L83.9301 24.6298L77.6701 35.2698H65.8901L78.3901 16.3798L67.7301 0.799805H79.6901Z" fill="white"/>
<path d="M64.78 35.2699H54.48V12.8999H64.23L64.78 13.4499V35.2699Z" fill="white"/>
<path d="M58.8098 0.880196C66.0798 -0.169804 66.6898 10.7502 59.7898 11.0502C53.7398 11.3102 52.4498 1.8002 58.8098 0.880196Z" fill="white"/>
</g>
<defs>
<clipPath id="clip0_29497_8019">
<rect width="232.27" height="50" fill="white"/>
</clipPath>
</defs>
</svg>
