<svg width="60" height="60" viewBox="0 0 60 60" fill="none" xmlns="http://www.w3.org/2000/svg">
<g clip-path="url(#clip0_6428_5277)">
<path d="M7.89251 56.0665H5.49707V46.636H14.9149V49.0314H7.89251V56.0665Z" fill="white"/>
<path d="M29.628 60.0001C21.9878 60.0001 15.747 57.7307 10.0232 52.8516C9.05241 52.0321 5.95094 48.792 5.81226 48.6533L7.5395 47.0017C8.40942 47.9094 10.8427 50.4183 11.5613 51.0361C16.9952 55.6505 22.6686 57.6299 29.9684 57.6046C37.4069 57.529 44.3158 54.6797 49.4093 49.5862C54.6919 44.3036 57.5916 37.3442 57.579 30.0066C57.579 26.2117 56.7091 22.3412 55.0953 18.7985L57.2764 17.8025C59.0289 21.6478 59.9619 25.8713 59.9745 29.994C59.9871 37.9746 56.8352 45.5266 51.0987 51.2757C45.5514 56.823 38.0499 59.9245 29.981 60.0001C29.8549 60.0001 29.7289 60.0001 29.5902 60.0001H29.628Z" fill="white"/>
<path d="M2.69806 42.1981C0.945607 38.3527 0.0126453 34.1292 3.76767e-05 30.0065C-0.0125699 22.0259 3.13933 14.4614 8.87578 8.72492C14.4231 3.17758 21.9246 0.0761181 29.9809 0.000472533C37.848 -0.0373502 44.1518 2.19418 49.9639 7.13635C50.9347 7.95585 54.0362 11.196 54.1749 11.3347L52.4476 12.9863C51.5777 12.0785 49.1444 9.56962 48.4258 8.95185C42.9919 4.33747 37.3185 2.34548 30.0061 2.38331C22.5676 2.45895 15.6587 5.30827 10.5652 10.4017C5.28262 15.6843 2.38287 22.6437 2.39548 29.9813C2.39548 33.7762 3.2654 37.6467 4.87918 41.1895L2.69806 42.1855V42.1981Z" fill="white"/>
<path d="M54.5153 13.3644H45.0974V10.969H52.1198V3.94653H54.5153V13.3644Z" fill="white"/>
<path d="M39.3232 45.7408L36.4234 39.9287L30.6113 37.029L36.4234 34.1292L39.3232 28.3171L42.2229 34.1292L48.035 37.029L42.2229 39.9287L39.3232 45.7408ZM35.9696 37.029L38.2137 38.1511L39.3358 40.3952L40.4579 38.1511L42.702 37.029L40.4579 35.9069L39.3358 33.6628L38.2137 35.9069L35.9696 37.029Z" fill="white"/>
<path d="M21.1681 38.0378L17.5623 30.8136L10.3381 27.2078L17.5623 23.6021L21.1681 16.3779L24.7738 23.6021L31.998 27.2078L24.7738 30.8136L21.1681 38.0378ZM15.6964 27.2078L19.3526 29.036L21.1807 32.6922L23.0088 29.036L26.665 27.2078L23.0088 25.3797L21.1807 21.7236L19.3526 25.3797L15.6964 27.2078Z" fill="white"/>
<path d="M36.5871 16.0122H34.1917V18.6346H36.5871V16.0122Z" fill="white"/>
<path d="M36.5871 21.2695H34.1917V23.8919H36.5871V21.2695Z" fill="white"/>
<path d="M34.0657 18.7605H31.4434V21.156H34.0657V18.7605Z" fill="white"/>
<path d="M39.3354 18.7605H36.7004V21.156H39.3354V18.7605Z" fill="white"/>
<path d="M26.4382 43.0681H24.0427V45.6905H26.4382V43.0681Z" fill="white"/>
</g>
<defs>
<clipPath id="clip0_6428_5277">
<rect width="60" height="60" fill="white"/>
</clipPath>
</defs>
</svg>
