<svg width="60" height="60" viewBox="0 0 60 60" fill="none" xmlns="http://www.w3.org/2000/svg">
<path d="M25.2223 18.2435C23.5151 18.2435 21.808 17.8907 20.2374 17.1396C19.7594 16.912 19.5546 16.3316 19.7822 15.8536C20.0098 15.3756 20.5902 15.1707 21.0682 15.3983C25.4043 17.4583 30.9696 15.9674 33.4848 12.0523C33.7693 11.5971 34.3725 11.4719 34.8277 11.7564C35.283 12.041 35.4081 12.6441 35.1236 13.088C33.0182 16.3657 29.1487 18.2322 25.2336 18.2322L25.2223 18.2435Z" fill="white"/>
<path d="M26.2924 22.2724C24.5511 22.2724 22.7984 21.9082 21.1937 21.1457C20.7157 20.9181 20.5109 20.3376 20.7385 19.8596C20.9661 19.3816 21.5465 19.1768 22.0245 19.4044C26.4858 21.5326 32.2104 19.9848 34.7939 15.9674C35.0784 15.5121 35.6816 15.387 36.1368 15.6715C36.5921 15.956 36.7173 16.5592 36.4327 17.003C34.2817 20.3604 30.3098 22.2724 26.3037 22.2724H26.2924Z" fill="white"/>
<path d="M27.453 26.6541C25.6206 26.6541 23.7769 26.2671 22.0812 25.4591C21.6032 25.2315 21.3983 24.651 21.6259 24.173C21.8536 23.6951 22.434 23.4902 22.912 23.7178C27.6464 25.9712 33.7352 24.3324 36.478 20.0646C36.7625 19.6093 37.3657 19.4841 37.8209 19.7686C38.2762 20.0532 38.4014 20.6564 38.1168 21.1002C35.852 24.6283 31.6753 26.6427 27.4643 26.6427L27.453 26.6541Z" fill="white"/>
<path d="M30.9811 60C30.9128 60 30.8331 60 30.7648 59.9772C30.2413 59.852 29.9226 59.3399 30.0365 58.8164C30.9014 55.0948 32.1874 51.3391 33.428 47.6973C35.9431 40.3566 38.538 32.7655 37.7641 25.0379C37.1154 18.6191 33.8263 10.0493 28.1472 6.38466C26.349 5.23519 24.0387 4.41577 23.2876 5.15552C20.4993 7.9097 21.2732 17.0144 22.6616 22.3065C23.3104 24.742 24.1639 26.893 24.9947 28.9757C26.9067 33.7671 28.7163 38.2853 27.214 44.9317C27.0205 45.7739 25.9962 50.0417 24.4257 51.157C23.6518 51.7033 22.8096 51.8854 21.9674 51.6919C20.3741 51.3164 19.3498 49.6661 18.9742 48.9719C17.3923 45.9901 17.9613 43.0311 18.5076 40.1745C18.9515 37.8756 19.3612 35.6904 18.6897 33.5508C18.3711 32.5493 17.3126 31.0584 16.8346 30.9332C16.2314 30.7739 15.6852 30.8877 15.1389 31.2746C13.17 32.6973 12.0888 37.0334 11.9636 38.934C11.6791 43.5319 12.9082 47.4924 16.2201 52.6024C16.4249 52.9211 16.7777 53.4105 17.1874 53.9795C19.0539 56.5516 19.9075 57.8376 20.0099 58.6798C20.0782 59.2147 19.7026 59.6927 19.1791 59.761C18.6556 59.8179 18.1662 59.4651 18.0979 58.9302C17.9727 58.3498 16.3908 56.1646 15.6283 55.1062C15.1844 54.503 14.8088 53.9795 14.5926 53.6495C12.1229 49.8255 9.6533 45.0683 10.0402 38.8088C10.1768 36.6806 11.3149 31.6502 14.0122 29.7041C15.0251 28.9757 16.1745 28.7481 17.3354 29.0554C18.9629 29.4878 20.2717 32.1054 20.5448 32.959C21.3642 35.5652 20.8862 38.0918 20.4196 40.5273C19.9189 43.179 19.4409 45.6715 20.7041 48.0614C21.2049 49.0061 21.865 49.6661 22.4226 49.8027C22.6047 49.8482 22.8893 49.871 23.3104 49.5751C23.9363 49.1312 24.8582 46.5933 25.3361 44.4992C26.7019 38.4446 25.0858 34.3816 23.2079 29.6813C22.3544 27.5531 21.478 25.3452 20.8066 22.7845C19.7709 18.8353 17.9386 7.71622 21.9333 3.76706C24.0387 1.68436 28.0334 3.98329 29.1943 4.73443C35.4538 8.76326 38.9704 17.7314 39.6874 24.8217C40.5069 32.9704 37.8437 40.7663 35.2603 48.3004C34.0311 51.8854 32.7565 55.5956 31.9257 59.2261C31.8233 59.6699 31.4249 59.9772 30.9811 59.9772V60Z" fill="white"/>
<path d="M44.6952 35.5992L41.8842 30.8534C41.611 30.3982 41.759 29.795 42.2256 29.5219C42.6808 29.2487 43.284 29.3967 43.5458 29.8633L45.3781 32.9475L48.4623 31.1152C48.9175 30.842 49.5207 30.99 49.7825 31.4566C50.0556 31.9118 49.9077 32.515 49.4411 32.7882L44.6952 35.5992Z" fill="white"/>
<path d="M46.7322 31.5933L44.8202 31.286C44.8998 30.7739 44.9681 30.2618 45.025 29.7269L46.9484 29.9431C46.8915 30.5008 46.8118 31.0584 46.7208 31.5933H46.7322ZM47.0964 28.2815L45.1616 28.1677C45.1957 27.6442 45.2071 27.1206 45.2185 26.5971L47.1533 26.6199C47.1533 27.1775 47.1305 27.7352 47.0964 28.2815ZM45.2071 25.0266C45.1958 24.503 45.1616 23.9795 45.1161 23.456L47.0395 23.2967C47.085 23.8543 47.1191 24.4006 47.1305 24.9583L45.1957 25.0266H45.2071ZM44.9454 21.8854C44.8771 21.3619 44.786 20.8498 44.695 20.3376L46.5956 19.9735C46.698 20.5197 46.7891 21.066 46.8574 21.6237L44.9454 21.8854ZM44.3649 18.824C44.2398 18.3232 44.0918 17.8225 43.9325 17.3331L45.7762 16.7299C45.9469 17.2534 46.1062 17.7997 46.2428 18.346L44.3649 18.824ZM43.3976 15.8763C43.2041 15.3983 42.9879 14.9317 42.7489 14.4879L44.4674 13.6002C44.7291 14.1009 44.9681 14.6131 45.1844 15.148L43.3976 15.8877V15.8763ZM41.9863 13.1791C41.7132 12.758 41.4173 12.3483 41.0986 11.9613L42.5895 10.7322C42.9537 11.176 43.2951 11.6426 43.6024 12.1206L41.9863 13.1791Z" fill="white"/>
<path d="M17.5859 6.46434C17.1876 6.46434 16.8234 6.22534 16.6755 5.83839L15.4236 2.48103L12.0662 3.73293C11.5654 3.91502 11.0078 3.66464 10.8257 3.16388C10.6436 2.66313 10.894 2.10546 11.3947 1.92337L16.573 0L18.4964 5.16692C18.6785 5.66768 18.4281 6.22534 17.9274 6.40743C17.8135 6.45296 17.6997 6.46434 17.5859 6.46434Z" fill="white"/>
<path d="M14.1831 24.8444C13.9099 24.3436 13.6595 23.8315 13.4319 23.2966L15.2187 22.5454C15.4122 23.012 15.6398 23.4673 15.8788 23.9111L14.1944 24.8557L14.1831 24.8444ZM12.8515 21.6691C12.6808 21.1342 12.5442 20.5765 12.419 20.0189L14.3083 19.6205C14.4107 20.1213 14.5473 20.622 14.6952 21.1L12.8515 21.6691ZM12.1345 18.3686C12.0548 17.811 11.9979 17.2533 11.9638 16.6956L13.8985 16.5591C13.9327 17.0826 13.9896 17.5947 14.0579 18.1069L12.1459 18.3686H12.1345ZM13.8303 14.9999H11.8955V14.7837C11.8955 14.2829 11.8955 13.8163 11.9297 13.3383L13.8644 13.4293C13.8416 13.8732 13.8303 14.317 13.8303 14.7609V14.9999ZM13.9782 11.8701L12.0548 11.6767C12.1117 11.119 12.18 10.5727 12.2597 10.0264L14.1717 10.311C14.092 10.8231 14.0351 11.3466 13.9782 11.8701ZM14.4334 8.76317L12.5328 8.3876C12.6353 7.84132 12.7605 7.29503 12.897 6.76013L14.7749 7.21537C14.6497 7.71613 14.5359 8.23965 14.4334 8.75179V8.76317ZM15.1846 5.70171L13.3295 5.15543C13.4888 4.60915 13.6595 4.08563 13.8416 3.57349L15.6626 4.21082C15.4919 4.70019 15.3325 5.18957 15.1846 5.70171Z" fill="white"/>
</svg>
