<svg width="424" height="50" viewBox="0 0 424 50" fill="none" xmlns="http://www.w3.org/2000/svg">
<path d="M423.911 42.5822V43.9499H408.445L407.582 39.8468C401.971 45.4536 392.372 47.4452 386.857 40.5186C383.508 36.3115 383.556 30.0088 386.857 25.7617C391.709 19.5151 400.988 18.3793 408.269 16.8756C404.585 10.325 396.648 13.0044 391.94 16.8756C390.997 15.1 388.895 12.8045 388.16 11.0528C388.008 10.6929 387.816 10.429 388.072 10.037C388.416 9.50915 393.027 7.42959 393.914 7.09366C400.197 4.78215 408.437 4.11029 414.679 6.79772C421.497 9.73311 422.488 15.1 422.832 21.9225C423.175 28.7691 421.992 35.9276 423.919 42.5742L423.911 42.5822ZM408.261 24.538C405.056 24.9539 398.926 26.5616 398.167 30.2008C397.375 34.016 400.492 37.0074 404.257 35.4477C408.477 33.6961 408.237 28.3532 408.261 24.538Z" fill="white"/>
<path d="M325.625 11.413L330.101 7.26183C336.008 4.12648 344.112 3.81455 348.532 9.51735C348.94 10.0452 349.195 11.421 349.923 11.421C355.118 3.16669 371.415 2.34286 375.06 12.3648C375.475 13.5165 376.146 16.4279 376.146 17.5717V43.9581H361.049V18.6674C361.049 18.5235 360.577 17.3237 360.457 17.0678C358.611 13.3565 352.888 14.0924 351.377 17.7796C351.29 17.9876 350.89 19.3873 350.89 19.4833V43.9501H335.792C335.504 36.7836 336.168 29.3372 335.8 22.2027C335.736 20.931 335.56 18.1795 335.105 17.1557C333.45 13.4765 327.44 14.1324 326.065 17.7316C325.977 17.9556 325.625 19.1073 325.625 19.2113V43.9581H310.527V5.9501H325.625V11.421V11.413Z" fill="white"/>
<path d="M119.706 11.4127C125.021 3.83832 139.4 1.97472 143.732 11.4127C144.043 11.4127 146.185 8.86927 146.753 8.40537C154.937 1.80675 170.219 4.86211 170.219 17.0116V43.9419H155.393V21.9305C155.393 21.3227 155.169 19.1471 155.049 18.4433C154.306 13.9562 148.199 13.3323 146.001 16.9556C145.674 17.4915 144.954 19.2111 144.954 19.739V43.9339H129.856C129.505 36.4395 130.32 28.5371 129.864 21.0907C129.808 20.1069 129.617 18.1233 129.313 17.2595C128.21 14.0602 122.919 13.9962 120.945 16.3317C120.633 16.6996 119.69 18.8032 119.69 19.1791V43.9259H104.592V5.94988H119.69V11.4207L119.706 11.4127Z" fill="white"/>
<path d="M16.201 10.3254C20.6209 5.61437 26.943 4.10269 33.2332 5.52639C40.5224 7.17404 41.9451 13.1568 42.2968 19.7394C42.7124 27.6577 41.9851 35.96 42.2568 43.9183L26.3596 43.9503V19.4835C26.3596 19.3635 25.9679 18.0518 25.872 17.7878C24.3055 13.4847 18.8066 13.9726 16.9203 17.7318C16.7844 17.9958 16.209 19.6114 16.209 19.7554V43.8143L15.7934 44.2223H0.959111C0.815244 44.2223 0.351674 43.7983 0 43.9503V5.9503H16.201V10.3254Z" fill="white"/>
<path d="M66.714 5.9502V28.7774C66.714 29.0893 67.0097 30.9689 67.1056 31.3929C68.2485 36.4318 75.0582 36.5678 77.0723 32.2567C77.2802 31.8088 77.9675 29.6732 77.9675 29.3213V5.9502H93.0655V44.2302H77.9675V38.7593L73.9393 42.2626C65.6829 47.9574 51.8877 44.6941 51.8877 33.1525V5.9502H66.714Z" fill="white"/>
<path d="M300.641 43.9499H285.128L284.304 39.8468C282.138 41.8704 279.453 43.678 276.536 44.4138C262.445 47.9571 255.347 31.1926 266.617 22.7784C271.612 19.0432 278.765 18.2353 284.712 16.8756C281.611 10.197 273.035 13.1244 268.663 16.8756L264.515 10.309C272.307 4.5742 288.349 2.39066 295.702 9.62114C301.169 14.996 299.091 29.401 299.538 36.6954C299.69 39.1189 300.298 41.5504 300.633 43.9419L300.641 43.9499ZM284.712 24.538C280.7 25.4098 274.601 26.5616 274.809 31.7925C275.017 37.0234 282.042 36.8554 284.025 32.4643C284.136 32.2084 284.712 30.5207 284.712 30.4088V24.53V24.538Z" fill="white"/>
<path d="M217.718 26.73H194.108C194.396 37.7037 206.065 37.4877 213.466 33.3206L217.438 40.799C214.105 42.5187 210.245 43.8464 206.512 44.4223C191.191 46.7818 177.331 39.0394 178.442 22.2109C179.338 8.6458 194.595 2.39911 206.52 6.03035C215.504 8.77377 218.174 18.2598 217.718 26.73ZM204.818 20.4353V16.4682C204.818 16.2442 204.131 14.3966 203.963 14.0447C203.307 12.6849 202.404 11.6692 200.814 11.4372C195.011 10.5974 194.196 15.9563 194.108 20.4353H204.818Z" fill="white"/>
<path d="M241.336 14.7003C242.231 13.9245 242.511 12.4928 243.119 11.413C247.051 4.3345 251.231 3.17475 258.113 8.03773L254.22 19.0434C251.495 18.5795 249.385 17.8437 246.611 18.7155C241.696 20.2512 241.52 25.866 241.328 30.1291C241.128 34.7121 241.504 39.3591 241.336 43.9502H226.238V5.95017H241.336V14.7003Z" fill="white"/>
</svg>
