<svg width="323" height="41" viewBox="0 0 323 41" fill="none" xmlns="http://www.w3.org/2000/svg">
<g clip-path="url(#clip0_29497_8027)">
<path d="M143.03 10.5L137.79 29.61C136.64 33.78 130.68 33.78 131.82 29.61L137.06 10.5C138.1 6.37003 144.07 6.37003 143.03 10.5ZM128.66 8.08003L122.13 32.05C119.52 42.67 143.12 42.9 146.31 32.05L152.84 8.08003C155.45 -2.34997 131.85 -2.67997 128.66 8.08003Z" fill="white"/>
<path d="M201.76 1.43018L190.32 14.7202L194 1.43018H185.09L175.03 38.2102H183.94L188.43 21.7702H188.51L191.78 38.2102H201.42L197.5 17.8902H197.33L211.48 1.45018L201.76 1.43018Z" fill="white"/>
<path d="M169.8 13.6701C168.99 16.5101 167.84 16.8201 165.79 16.8201H162.12L164.5 8.08012H168.17C170.13 8.08012 171.19 8.33012 170.55 11.0001C170.72 10.3501 169.82 13.6701 169.82 13.6701H169.8ZM173.22 20.0801C178.04 18.9501 178.6 15.3001 179.75 10.9201C181.21 5.66012 182.94 1.37012 174.51 1.37012H157.36L147.43 38.1501H156.34L160.51 23.2501H163.53C165.62 23.2501 166.64 23.5001 165.82 26.4001L162.52 38.1501H172.07L174.51 29.1601C175.91 23.8001 177.28 20.9601 173.22 20.0601L173.2 20.0801H173.22Z" fill="white"/>
<path d="M80.2102 19.5802L81.1102 1.59018V1.43018H74.0802L74.0002 1.59018L65.0902 19.5802L66.4902 1.43018H38.1602L28.1802 38.2102H47.5402L49.3402 31.5702H38.8902L41.2402 22.8102H51.7002L53.4902 16.1802H43.0402L45.2502 8.08018H57.0202L54.7202 38.2102H63.8002L72.7902 19.2602L71.3902 38.2102H80.4602L97.6102 1.43018H88.7102L80.2102 19.5802Z" fill="white"/>
<path d="M27.2 1.43018L21.97 20.6202L20.01 1.43018H10.06L0 38.2102H7.93L13.64 17.2202L15.83 38.2102H25.08L35.13 1.43018H27.2Z" fill="white"/>
<path d="M122.61 1.43018L113.86 14.4002L112.22 1.43018H104.14L107 23.3102L103 38.2102H111.82L115.91 23.3102L130.68 1.43018H122.61Z" fill="white"/>
<path d="M262.09 10.5L256.85 29.69C255.7 33.86 249.74 33.86 250.88 29.69L256.12 10.58C257.27 6.41003 263.23 6.41003 262.09 10.58V10.5ZM247.72 8.08003L241.19 32.05C238.58 42.67 262.18 42.9 265.37 32.05L271.9 8.08003C274.51 -2.34997 250.91 -2.67997 247.72 8.08003Z" fill="white"/>
<path d="M287.92 13.76H296.83C297.31 11.9 298.37 8.09001 298.37 8.09001C300.46 -0.729992 286.29 -2.33999 278.45 3.31001C276.42 4.77001 274.86 6.79001 273.96 9.13001C270.6 19.81 286.48 24.44 282.78 30.76C280.99 33.51 276.17 32.85 277.06 29.55L277.87 26.46H268.96L267.42 32.13C264.73 43.06 288.16 42.56 292.25 31.73C297.63 18.04 279.92 15.46 283.76 8.97001C285.55 6.22001 289.56 7.34001 288.66 10.74L287.91 13.74L287.92 13.76Z" fill="white"/>
<path d="M301.73 1.43018L299.85 8.08018H305.82L297.64 38.2102H306.55L314.7 8.08018H320.67L322.46 1.43018H301.73Z" fill="white"/>
<path d="M234.99 14.1502C234.51 15.8602 234.01 17.7202 234.09 17.3802C233.28 19.9702 232.13 20.3002 230.17 20.3002H226.89L230.25 8.0702H233.53C235.49 8.0702 236.55 8.3202 235.91 10.9902C235.51 12.0202 235.21 13.0802 235.01 14.1602L234.99 14.1402V14.1502ZM243.9 14.1502C244.23 13.1702 244.46 12.0602 244.8 11.0002C246.28 5.7402 246.76 1.4502 238.35 1.4502H223.08L213.02 38.1502H221.93L225.04 26.8802H231.4C239.74 26.8802 241.6 22.7102 243 17.3302C243.33 16.2002 243.65 15.0602 243.9 14.1002V14.1602V14.1502Z" fill="white"/>
</g>
<defs>
<clipPath id="clip0_29497_8027">
<rect width="322.46" height="40.1" fill="white"/>
</clipPath>
</defs>
</svg>
