<svg width="20" height="22" viewBox="0 0 20 22" fill="none" xmlns="http://www.w3.org/2000/svg">
<g id="Isolation_Mode" clip-path="url(#clip0_9788_26039)">
<path id="Vector" d="M2.18381 10.8223C2.4153 11.0555 2.55893 11.3766 2.55893 11.7304C2.55893 12.7451 2.75893 13.7111 3.12129 14.5898C3.49743 15.5018 4.05054 16.3249 4.73821 17.015C5.42589 17.7057 6.24484 18.261 7.1531 18.639C8.02864 19.0027 8.9904 19.2044 10.0007 19.2044C12.0557 19.2044 13.9157 18.3672 15.2624 17.0152C15.9501 16.3252 16.503 15.502 16.8793 14.59C17.2415 13.7113 17.4417 12.7453 17.4417 11.7306C17.4417 10.7159 17.2417 9.74997 16.8793 8.87124C16.5032 7.95924 15.9503 7.1361 15.2624 6.44606C14.5747 5.75539 13.7558 5.19947 12.8477 4.8221C11.9722 4.45775 11.0104 4.25688 10.0007 4.25688C9.4005 4.25688 8.81776 4.32776 8.26075 4.46127C7.69036 4.59663 7.14261 4.80164 6.62634 5.06576C6.35575 5.20401 6.09793 5.35632 5.85532 5.51917L5.81973 5.54377L8.32721 5.75229C8.67887 5.78163 8.98567 5.95213 9.1974 6.20281C9.40914 6.4535 9.52519 6.78519 9.49659 7.13776C9.46737 7.49094 9.29823 7.79908 9.04863 8.01111C8.8013 8.22191 8.47536 8.33867 8.12885 8.31284L2.83198 7.87162C2.48032 7.84227 2.17352 7.67239 1.96241 7.42171C1.75067 7.17103 1.634 6.83872 1.66322 6.48677L2.10089 1.17822C2.13011 0.82607 2.29925 0.517522 2.54884 0.304866C2.79618 0.0942769 3.1217 -0.0222809 3.4676 0.00355195L3.48035 0.00417194C3.83139 0.033518 4.13819 0.203395 4.35013 0.454077C4.55961 0.701865 4.67566 1.02881 4.65056 1.37683L4.48779 3.35169L4.65405 3.2434C4.91723 3.07518 5.18843 2.91936 5.46725 2.77717C6.15492 2.42502 6.89281 2.15036 7.66793 1.96395C8.42042 1.78292 9.20193 1.68682 10.0005 1.68682C11.3526 1.68682 12.644 1.95755 13.8233 2.44837C15.0486 2.958 16.1505 3.70426 17.0709 4.62887C17.9913 5.55327 18.7343 6.65995 19.242 7.89125C19.7307 9.07522 20.0002 10.3729 20.0002 11.7306C20.0002 13.0884 19.7307 14.3856 19.242 15.57C18.7345 16.8013 17.9913 17.908 17.0709 18.8324C16.1505 19.7568 15.0486 20.5026 13.8233 21.0123C12.6438 21.5031 11.3524 21.7744 10.0005 21.7744C8.64862 21.7744 7.35661 21.5033 6.17715 21.0129C4.95159 20.5026 3.84991 19.757 2.92951 18.8326C2.00912 17.9082 1.26609 16.8015 0.75846 15.5702C0.269556 14.3854 0 13.0884 0 11.7304C0 11.3872 0.134778 11.0749 0.354538 10.8434L0.374291 10.8217C0.60578 10.5892 0.925955 10.445 1.27885 10.445C1.63174 10.445 1.95191 10.589 2.1834 10.8221L2.18381 10.8223Z" fill="white"/>
</g>
<defs>
<clipPath id="clip0_9788_26039">
<rect width="20" height="21.7742" fill="white"/>
</clipPath>
</defs>
</svg>
