<svg width="103" height="50" viewBox="0 0 103 50" fill="none" xmlns="http://www.w3.org/2000/svg">
<g clip-path="url(#clip0_29497_8096)">
<path d="M59.24 2.8599C59.18 2.9499 58.6 3.0799 58.45 3.0799C51.94 2.9699 45.42 3.1999 38.91 3.0799C38.44 3.0799 37.51 2.6999 37.42 3.4099L37.48 17.5399C37.61 17.7399 37.79 17.8599 38.05 17.8399C44.57 17.7399 51.08 17.9399 57.59 17.8399C58.1 17.8399 58.55 17.5399 59.01 17.9499C59.55 18.4199 59.11 19.3499 59.37 19.9899C59.14 21.1099 58.37 20.7199 57.6 20.7099C52.54 20.6199 47.41 20.6899 42.37 20.7099C41.15 20.7099 39.94 20.7799 38.73 20.8199C38.36 20.8299 37.57 20.4799 37.44 21.1499C37.35 21.6299 37.37 23.8599 37.44 24.4099C37.48 24.7199 37.57 24.9299 37.89 25.0099C40.03 24.9499 42.15 24.9799 44.29 25.0399C48.64 24.8699 52.98 25.0299 57.31 25.0399C57.93 25.0399 58.4 24.5899 58.98 25.0899C59.39 25.4399 59.33 26.6499 59.28 27.1899C59.17 28.4099 58.09 27.8199 57.31 27.7999C56.06 27.7699 54.65 27.9099 53.39 27.9099C48.62 27.8999 43.78 27.6899 39.03 27.9099C38.46 27.9399 37.55 27.5799 37.44 28.4299C37.37 28.9999 37.36 30.9399 37.44 31.4999C37.48 31.8099 37.65 32.0899 37.96 32.1199C40.16 32.3899 42.89 31.8999 45.15 32.1199C45.34 32.1199 45.52 32.0299 45.72 32.0299C47.91 32.0299 50.13 32.0499 52.33 32.0499C54.32 32.0499 56.19 32.2199 58.18 31.9299C58.74 31.8499 59.31 32.2999 59.35 32.8599C59.36 33.0699 59.26 33.2699 59.27 33.5099C59.29 34.0899 59.62 34.5599 58.93 34.9799C58.34 35.3399 58.17 35.0299 57.61 34.9899C57.1 34.9499 56.59 35.0699 56.1 35.0699C49.56 34.9899 42.99 34.9499 36.44 34.9899C35.55 34.9899 34.41 35.3899 34.38 33.9899C34.37 33.4599 34.49 32.7499 34.49 32.1799C34.52 22.4399 34.49 12.6999 34.49 2.9699C34.49 2.5299 34.38 0.449902 34.5 0.259902L58.95 0.149902C59.17 0.169902 59.25 0.389902 59.28 0.589902C59.32 0.819902 59.36 2.7799 59.27 2.9099L59.24 2.8599Z" fill="white"/>
<path d="M101.52 0.550163C101.74 0.740163 102.81 1.59016 102.87 1.73016C103.15 2.34016 101.93 3.20016 101.53 3.64016C97.56 8.03016 93.39 12.3102 89.47 16.7602C89.26 16.9902 88.74 17.2602 88.77 17.5602C88.78 17.7002 89.76 18.7502 89.95 18.9602C92.17 21.4202 94.51 23.8002 96.75 26.2302C98.73 28.3902 100.55 30.7202 102.78 32.6502C103.01 32.9402 102.98 33.3802 102.74 33.6502C101.7 34.1802 101.46 35.6302 100.28 34.4302C99.51 33.6502 98.75 32.5102 98 31.6902C94.72 28.0902 91.3 24.5902 87.94 21.0602C87.39 20.4802 86.96 19.3402 86.08 20.2702C82.27 24.3302 78.48 28.4502 74.72 32.5402C74.36 32.9402 72.97 34.7702 72.6 34.8102C72.22 34.8602 71.7 34.3702 71.41 34.1202C71.12 33.8702 70.24 33.0902 70.54 32.6802C71.91 31.5602 73.02 30.1802 74.23 28.9002C77.3 25.6602 80.58 22.3902 83.52 19.0402C83.69 18.8402 84.67 17.7202 84.68 17.5602C84.7 17.2402 84.01 16.7802 83.76 16.5102C79.74 12.1402 75.79 7.69016 71.75 3.34016C71.47 3.04016 70.48 2.30016 70.59 1.90016C70.89 1.48016 71.39 1.14016 71.79 0.790164C72.19 0.440164 72.3 -0.109837 72.9 0.370163C76.92 4.88016 81.01 9.32016 85.17 13.7202C85.45 14.0102 86.33 15.2302 86.68 15.2002C87.12 15.1602 87.6 14.3202 87.89 14.0202C88.42 13.4702 88.94 12.9002 89.47 12.3402C93.27 8.33016 97.08 4.37016 100.67 0.170163C101.14 -0.139837 101.29 0.320163 101.52 0.530163V0.550163Z" fill="white"/>
<path d="M19.7699 3.00992C20.6299 3.82992 21.7299 5.34992 22.2399 6.42992C22.7699 7.56992 21.9099 7.54992 21.1499 7.80992C20.9299 7.87992 20.7099 8.07992 20.4999 8.11992C19.4499 8.33992 19.5499 7.57992 19.1799 6.89992C17.9299 4.57992 15.4099 2.97992 12.7599 2.87992C9.82994 2.76992 6.84994 3.43992 5.29994 6.13992C4.23994 7.98992 4.32994 10.6299 5.81994 12.2199C11.0299 17.7799 23.5999 16.4799 23.0599 26.6799C22.7599 32.2699 16.9799 35.5899 11.7999 35.2499C7.78994 34.9899 3.10994 32.4899 1.37994 28.7199C0.789936 27.4299 1.09994 27.7299 1.95994 27.3099C2.66994 26.9699 3.15994 26.2299 3.84994 27.1099C4.74994 28.2499 4.97994 29.0999 6.24994 30.1699C7.76994 31.4399 9.49994 31.8799 11.4299 32.1699C15.1899 32.7299 20.4199 30.5499 20.1799 26.0999C19.9999 22.7199 18.1899 21.5499 15.3599 20.2899C11.5699 18.5999 6.59994 17.3099 3.70994 14.1299C0.819936 10.9499 1.27994 5.15992 4.68994 2.44992C8.99994 -0.980078 15.7499 -0.830077 19.7799 2.99992L19.7699 3.00992Z" fill="white"/>
<path d="M40.0399 49.5798C39.7499 49.2698 40.0099 48.4898 40.0199 48.1198C40.0399 46.8698 39.9999 45.6198 40.0199 44.3798C40.0199 44.1398 40.2799 43.3698 39.7899 43.4098C39.4899 43.4298 39.0799 44.2598 38.8299 44.5198C38.5399 44.8398 37.6999 45.3298 37.7699 45.8598C37.8799 46.6898 38.7599 46.7498 38.2699 47.8898C37.6799 49.2598 36.5399 49.3398 35.6699 48.1498C34.8899 47.0798 35.4199 47.2298 35.8299 46.3998C36.3899 45.2598 35.6799 45.2598 35.0899 44.6098C34.8899 44.3898 34.2599 43.2398 33.8899 43.4998C33.5599 43.7398 33.8899 44.8498 33.8899 45.2298C33.9099 45.9598 33.9899 49.1698 33.7699 49.6198C33.5899 49.9798 33.0999 49.8298 32.9199 49.5498C32.6499 49.1298 32.9199 47.6098 32.9299 47.0598C32.9399 45.7098 32.9099 44.3798 32.9299 43.0298C32.9299 42.6298 32.6399 42.1898 33.0099 41.8698C33.2899 41.6298 33.5799 41.7098 33.8799 41.8798C34.2099 42.0798 35.0699 43.1498 35.4099 43.5098C35.5799 43.6798 35.7899 43.7698 35.9399 43.9298C36.2299 44.2198 36.4799 44.9498 36.9899 44.8898C37.3099 44.8598 37.7499 44.0398 37.9999 43.7798C38.3699 43.3898 38.8999 42.9698 39.2899 42.5798C39.4499 42.4198 39.5699 42.1198 39.7399 41.9798C40.2199 41.5698 40.9299 41.6498 40.9799 42.3498C40.8699 44.5998 41.0999 46.8898 41.0399 49.1298C41.0399 49.2898 40.9899 49.6998 40.8199 49.7598C40.6499 49.8198 40.1599 49.6798 40.0399 49.5498V49.5798ZM37.2099 46.7598C36.6099 46.1498 35.8399 47.7198 36.9699 47.7698C37.3899 47.7598 37.4199 46.9798 37.2099 46.7598Z" fill="white"/>
<path d="M56.4001 45.4102C56.8801 45.1402 57.4001 45.4102 57.8601 45.3902C58.7001 45.3702 59.4101 45.1802 60.3601 45.3102C61.0701 45.4102 61.1801 46.1602 61.0801 46.7802C60.9901 47.3502 60.3401 47.6002 60.3601 48.2302C60.3801 48.7102 61.4201 49.2702 61.0401 49.8102C60.7501 50.2302 59.5501 49.2802 59.2201 49.1402C58.8501 49.1502 58.8301 49.5102 58.5301 49.6902C58.0701 49.9702 56.7101 49.9502 56.1601 49.8802C54.2601 49.6502 52.4401 47.1702 52.7901 45.2902C53.0501 43.9002 54.8201 41.8902 56.2401 41.7502C57.0501 41.6702 57.7101 41.7402 58.4601 42.0202C59.2101 42.3002 60.2501 42.7502 59.5001 43.6402C58.4901 43.3102 57.9101 42.6102 56.7201 42.7102C56.3301 42.7402 55.2701 43.1102 55.0001 43.3802C54.8001 43.5802 54.4301 44.0102 54.2301 44.2402C53.8601 44.6602 53.8401 45.8402 53.9001 46.4002C53.9801 47.2102 54.9501 48.4302 55.7201 48.7002C56.2401 48.8802 58.4201 49.0602 58.5001 48.3202C58.5801 47.5302 56.0801 46.4802 56.4001 45.4202V45.4102ZM58.6601 46.0802C58.0201 46.2102 58.5501 46.9002 58.8301 47.2102C59.4401 47.8802 60.0401 46.9502 59.7401 46.4902C59.5601 46.2202 58.9701 46.0202 58.6601 46.0802Z" fill="white"/>
<path d="M95.8599 42.8298C95.5699 43.0898 95.5299 45.2298 95.9299 45.5298C96.4899 45.9498 99.0199 45.4498 99.8999 45.5798C100.33 45.6498 100.67 46.0798 100.44 46.4898C100.11 47.0598 99.5999 46.7298 99.1499 46.7198C98.6299 46.7198 98.1299 46.7798 97.6199 46.7898C97.1799 46.7898 95.5099 46.4598 95.8899 47.1998C96.0899 47.5798 97.6399 47.2998 98.0899 47.2898C98.3399 47.2898 98.5499 47.3898 98.7599 47.3898C99.1499 47.3898 100.66 46.9698 100.54 47.9198C100.45 48.5798 99.3199 48.2598 98.9599 48.2498C98.6499 48.2498 98.3399 48.3298 98.0899 48.3298C97.8399 48.3298 95.4199 47.9298 95.9499 48.7198C97.2699 48.9398 98.6999 48.7998 100.04 48.7898C100.71 49.0798 100.95 49.7998 100.01 49.8798C98.9099 49.9698 96.8899 49.9698 95.7899 49.8798C95.5099 49.8598 95.0399 49.7998 94.8799 49.5498V41.9698C95.1999 41.5398 98.0099 41.7898 98.6699 41.7798C99.2699 41.7798 99.8799 41.4298 100.48 41.8498C100.92 42.1498 100.55 42.7198 100.1 42.7898C99.2499 42.9198 97.6899 42.8098 96.7499 42.7998C96.4999 42.7998 96.0899 42.6198 95.8699 42.8198L95.8599 42.8298Z" fill="white"/>
<path d="M90.8899 49.5801C90.6799 49.3601 90.2499 48.7001 89.9999 48.3801C89.1299 47.2801 88.2899 46.0401 87.4099 44.9601C87.2299 44.7301 86.3499 43.6601 86.0799 44.0601V44.2001C86.1299 44.7401 86.3699 45.3901 86.3699 45.9201C86.3699 46.2201 86.2599 46.4801 86.2599 46.7801C86.2599 47.3801 86.5699 49.2901 86.2199 49.7001C85.9099 50.0601 84.8999 49.7601 84.9299 48.9901C84.9999 47.1501 84.9799 45.2601 85.1099 43.4301C85.1399 43.0001 84.9599 42.1101 85.3599 41.8601C85.6199 41.6901 86.0199 41.6801 86.2199 41.9401C87.0299 42.9501 87.7599 44.0401 88.5599 45.0601C88.7599 45.3201 89.0598 45.5201 89.2698 45.7901C89.5299 46.1201 90.5699 47.8001 90.9099 47.8001C91.4799 47.5801 91.0699 46.7201 91.0499 46.2201C91.0199 45.5801 91.1399 45.0101 91.1499 44.4001C91.1599 43.7901 91.0299 42.9001 91.0699 42.4101C91.0899 42.2001 91.2899 41.8401 91.4999 41.7801C92.2199 41.5701 92.2099 42.5001 92.2299 42.9601C92.3399 45.0801 92.1099 47.2501 92.1899 49.3701C92.0799 50.0601 91.2799 50.0101 90.8799 49.5901L90.8899 49.5801Z" fill="white"/>
<path d="M66.7002 41.7701C67.3702 41.5701 67.8202 42.6701 68.1102 43.2001C68.9602 44.7601 69.6202 46.6501 70.5202 48.1601C70.8602 48.7301 71.6002 49.1101 71.0402 49.8501C70.1302 50.0301 69.7602 48.3201 69.0802 48.2701C68.8502 48.2501 68.3902 48.4201 68.1202 48.4301C67.6002 48.4401 67.0202 48.4501 66.4902 48.4501C65.8402 48.4501 64.5202 48.0801 64.1002 48.6401C63.8702 48.9501 63.9502 49.4201 63.6702 49.6401C63.2502 49.9801 62.3702 49.8901 62.5602 49.3001C62.6202 49.1201 63.1602 48.5501 63.3402 48.2501C64.3802 46.5201 65.0802 44.4101 66.1502 42.6301C66.3102 42.3701 66.3002 41.8801 66.7102 41.7501L66.7002 41.7701ZM65.9802 45.5601L67.6302 45.7801C67.8402 45.7601 67.9502 45.5201 67.9602 45.3401C67.9802 45.1101 67.4802 44.0101 67.3302 43.7801C67.0502 43.3501 66.6802 43.4001 66.4402 43.8301C66.3702 43.9501 65.9102 45.1001 65.8902 45.2001C65.8702 45.3401 65.8902 45.4501 65.9702 45.5601H65.9802ZM65.1202 47.2901C65.4402 47.6001 67.0602 47.3101 67.5402 47.3101C67.8802 47.3101 68.2802 47.5401 68.6402 47.3701C68.8302 47.1901 68.8502 46.9701 68.6402 46.8001C68.3102 46.5301 67.1502 46.8001 66.6702 46.8201C66.3002 46.8301 65.2402 46.5401 65.0402 46.9401L65.1202 47.3001V47.2901Z" fill="white"/>
<path d="M51.1001 49.7698C50.5001 50.3699 50.0401 48.9598 49.7801 48.6898C49.1201 47.9998 48.7701 48.3998 48.0101 48.4499C47.1401 48.5099 46.1801 48.3698 45.3201 48.3498C44.9301 48.3498 44.3601 48.3098 44.0801 48.6398C43.7701 48.9998 43.8401 50.0098 43.0501 49.8698C41.9901 49.6798 43.1701 48.4899 43.4001 48.0599C44.1501 46.6299 44.7701 45.0998 45.5201 43.6598C45.6501 43.3998 46.5101 41.8499 46.6201 41.7899C47.2601 41.4699 47.7701 42.5698 48.0401 43.0498C48.9301 44.6398 49.7101 46.5498 50.5601 48.1898C50.7201 48.4998 51.5501 49.3098 51.1001 49.7598V49.7698ZM47.1701 43.4098C47.0901 43.3298 46.9301 43.2699 46.8201 43.3299C46.4901 43.5799 45.6401 45.3998 46.0601 45.6698C46.8301 45.5498 48.2801 46.2698 47.9201 44.9098C47.8401 44.6198 47.5801 44.4499 47.4701 44.2199C47.3601 44.0099 47.3501 43.5698 47.1801 43.4098H47.1701ZM45.1001 46.8398C44.8501 47.2098 45.4301 47.3798 45.7101 47.4098C46.5601 47.4998 47.5201 47.3198 48.3901 47.4098C48.7901 47.3298 48.8301 46.9399 48.4901 46.7399C48.1001 46.4999 47.2101 46.9098 46.6601 46.8898C46.3701 46.8798 45.3101 46.5198 45.0901 46.8498L45.1001 46.8398Z" fill="white"/>
<path d="M17.09 47.0801C16.11 48.9501 14.76 50.1801 12.49 49.9701C11.66 49.8901 10.81 49.3701 10.23 48.7901C8.78001 47.3401 8.41001 45.2101 9.62001 43.4801C11.13 41.3201 14.06 41.0101 15.94 42.8901C16.99 43.9401 17.87 45.6001 17.1 47.0801H17.09ZM12.31 42.7301C10.59 43.0501 9.79001 44.7801 9.94001 46.3901C10.12 48.2501 12.33 49.4201 14.04 48.8601C17.81 47.6201 16.45 41.9601 12.31 42.7201V42.7301Z" fill="white"/>
<path d="M79.2601 42.9802C78.5801 43.1302 78.4001 43.7502 77.9801 44.2402C77.0701 45.3102 75.8701 46.8302 74.9001 47.7702C74.5901 48.0702 73.7001 48.3802 74.4301 48.8302L78.9101 48.8502C79.5601 49.3902 79.2001 49.8302 78.4501 49.8902C76.8601 50.0202 74.9601 49.9802 73.3701 49.8902C72.6801 49.8502 72.1101 49.5402 72.5501 48.7702C72.6901 48.5202 73.6701 47.5802 73.9401 47.2902C74.9401 46.2302 76.4901 44.8302 77.2801 43.6302C77.4501 43.3702 77.7001 43.0102 77.5201 42.7202C77.3001 42.5402 76.2901 42.7902 75.9701 42.8002C75.2401 42.8202 73.5501 42.9102 72.9201 42.7702C72.4401 42.6702 72.4801 42.1402 72.6501 41.7802L78.7301 41.7402C79.2901 41.7902 79.2801 42.5102 79.2501 42.9602L79.2601 42.9802Z" fill="white"/>
<path d="M25.3199 43.3401C24.8899 43.8101 24.3799 44.2401 23.9699 44.7201C23.5599 45.2001 22.8799 45.9401 22.8699 46.5901C22.8699 47.0501 22.8699 47.5501 22.8699 48.0201C22.8699 48.5401 23.2399 49.4201 22.5599 49.7201C21.9499 49.9801 21.5599 49.5801 21.5299 48.9701C21.4899 48.0601 21.9199 46.8601 21.5499 45.9901C21.4199 45.6901 20.5999 44.7101 20.3399 44.4301C19.6599 43.7101 18.1899 42.9601 18.5799 41.8601C18.9699 41.5201 20.0299 42.7601 20.2899 43.0501C20.6999 43.5001 20.8999 43.7801 21.3899 44.2401C21.6799 44.5201 21.8699 45.1601 22.4199 44.9901C23.1599 44.1801 23.9999 43.4301 24.7399 42.6101C25.0399 42.2801 25.1999 41.6101 25.7799 41.8501C26.4399 42.4901 25.7399 42.8901 25.3199 43.3401Z" fill="white"/>
<path d="M4.13008 42.8301C3.81008 43.0101 3.92008 44.2001 3.91008 44.5801C3.90008 45.0801 3.91008 45.4501 3.91008 45.9201C3.91008 47.0601 3.86008 48.2001 3.95008 49.3401C3.51008 50.1701 2.69008 49.9301 2.68008 48.9901C2.65008 47.4801 2.76008 45.8901 2.76008 44.4001C2.76008 44.0301 2.84008 42.8901 2.41008 42.7401C1.90008 42.5601 1.10008 43.0101 0.410082 42.7401C-0.00991789 42.5701 -0.189918 42.0301 0.280082 41.8201C0.790082 41.5901 3.09008 41.8901 3.87008 41.8701C4.49008 41.8501 5.91008 41.5401 6.40008 41.8201C6.80008 42.0601 6.69008 42.4801 6.36008 42.7301C5.75008 43.1701 4.74008 42.5001 4.13008 42.8501V42.8301Z" fill="white"/>
<path d="M81.9299 41.8701C83.0099 41.7201 82.6399 43.1201 82.6299 43.7101C82.6099 45.2201 82.6199 46.8001 82.6299 48.3101C82.6299 48.8801 83.0799 50.1301 81.9199 49.7801C81.0299 49.5101 81.5299 48.1401 81.5699 47.5501C81.6399 46.4001 81.5599 44.9501 81.5299 43.7801C81.5099 43.0901 81.0199 42.0001 81.9299 41.8701Z" fill="white"/>
</g>
<defs>
<clipPath id="clip0_29497_8096">
<rect width="102.93" height="50" fill="white"/>
</clipPath>
</defs>
</svg>
