<svg width="303" height="50" viewBox="0 0 303 50" fill="none" xmlns="http://www.w3.org/2000/svg">
<g clip-path="url(#clip0_29497_7993)">
<path d="M249.34 40.6598C249.34 40.6598 244.43 37.6498 241.59 35.2798C239.22 33.2198 237.16 32.7498 236.37 32.7498C234.31 32.7498 234 34.6498 233.21 34.6498C232.42 34.6498 231.47 32.4298 229.25 32.7498C227.98 32.9098 226.72 33.2198 223.87 35.4398C220.55 37.9698 215.8 40.6598 215.8 40.6598C215.8 40.6598 223.55 49.9998 232.57 49.9998C242.54 49.9998 249.34 40.6598 249.34 40.6598Z" fill="white"/>
<path d="M0.79 45.89C0.32 45.73 0.16 45.42 0.16 44.62C0.16 43.2 0.95 38.61 0.95 28.16C0.95 27.37 1.58 27.37 1.58 28C1.74 34.17 3.16 39.55 6.17 43.03C8.86 46.35 13.13 48.25 18.83 48.25C26.58 48.25 30.06 44.45 30.06 39.07C30.06 32.9 22.94 30.53 15.66 28.15C7.91 25.47 0 22.63 0 14.72C0 4.91 9.97 0 18.51 0C25.95 0 29.11 0.63 34.02 1.58C34.65 1.74 34.81 1.9 34.81 2.37C34.81 5.22 34.34 14.55 34.34 18.51C34.34 19.3 33.71 19.3 33.55 18.51C33.39 13.45 32.28 9.33 30.23 6.33C27.54 2.69 23.58 0.79 18.05 0.79C10.93 0.79 6.34 3.95 6.34 8.38C6.34 14.55 13.3 16.92 20.58 19.46C28.33 22.15 36.56 25 36.56 33.54C36.56 42.08 28.97 49.05 18.36 49.05C8.55 48.89 4.59 46.83 0.8 45.89H0.79Z" fill="white"/>
<path d="M43.0398 26.42C43.0398 12.5 56.1698 0 70.2598 0C83.5498 0 87.3498 7.44 86.8698 12.18C86.7098 14.24 85.7598 15.5 81.3298 15.5H51.8998C51.5798 17.24 51.2698 19.3 51.2698 21.35C51.2698 33.38 60.6098 41.76 73.2598 41.76C84.4898 41.76 91.7698 34.48 96.1998 22.46C96.5198 21.51 97.3098 21.67 96.8298 22.62C93.8198 31.01 88.2898 39.71 81.1698 44.46C76.8998 47.31 72.1498 49.05 66.6098 49.05C52.3698 48.89 43.0298 39.56 43.0298 26.42H43.0398ZM51.8998 14.87C60.7598 14.71 66.6198 14.55 71.9898 14.4C73.5698 14.24 75.3098 13.77 75.7898 13.45C76.5798 12.66 76.8998 11.55 76.8998 10.13C76.8998 6.49 73.8898 1.9 67.2498 1.9C59.4998 1.74 53.7998 6.33 51.8998 14.87Z" fill="white"/>
<path d="M90.1899 47.1499C93.1999 47.3099 98.0999 42.8799 106.17 32.9099L112.02 25.7899L103.95 13.7599C96.1999 2.04994 95.2499 1.57994 90.9799 1.72994C90.3499 1.72994 90.1899 0.939941 90.8199 0.939941C91.4499 0.939941 100.16 1.09994 101.42 1.09994C102.68 1.09994 110.76 0.939941 112.97 0.939941C113.76 0.939941 113.92 1.72994 113.13 1.72994C107.28 1.72994 106.96 2.83994 112.5 10.9099L118.67 20.0899L122.47 15.3399C126.27 10.5899 127.53 7.10994 127.53 5.05994C127.37 2.83994 125.79 1.73994 122.31 1.73994C121.68 1.73994 121.68 0.949941 122.31 0.949941C124.68 0.949941 130.7 1.10994 131.96 1.10994C133.22 1.10994 139.71 0.949941 140.35 0.949941C140.99 0.949941 140.98 1.73994 140.35 1.73994C135.92 1.57994 130.22 7.27994 123.26 15.9799L119.3 20.8899L128.95 35.1299C136.7 46.8399 137.81 47.3099 141.61 47.1599C142.24 47.1599 142.4 47.9499 141.77 47.9499C141.14 47.9499 132.59 47.7899 131.49 47.7899C130.22 47.7899 121.36 47.9499 119.15 47.9499C118.36 47.9499 118.2 47.1599 118.99 47.1599C124.84 47.1599 125.79 46.0499 120.26 37.9799L112.67 26.5899L106.97 33.5499C103.81 37.5099 102.54 40.5099 102.54 42.7299C102.54 45.4199 104.44 47.1599 107.76 47.1599C108.55 47.1599 108.55 47.9499 107.76 47.9499C105.39 47.9499 98.5799 47.7899 97.4799 47.7899C96.2099 47.7899 90.8299 47.9499 90.3599 47.9499C89.4099 47.9499 89.4099 47.1599 90.1999 47.1599L90.1899 47.1499Z" fill="white"/>
<path d="M184.94 2.21973L180.19 19.1497H176.55L174.02 9.65973C173.7 8.54973 173.55 7.43973 173.55 6.96973C173.55 7.43973 173.23 8.54973 172.92 9.65973L170.23 19.1497H166.59L161.84 2.21973H165.16L168.01 13.9297C168.17 14.7197 168.33 15.5097 168.48 15.9897C168.64 15.5197 168.8 14.7197 168.95 13.9297L171.96 2.21973H174.81L177.82 13.9297C177.98 14.7197 178.14 15.3497 178.29 15.9897C178.45 15.5197 178.61 14.7197 178.76 13.9297L181.61 2.21973H184.93H184.94Z" fill="white"/>
<path d="M195.86 1.10986H198.87L191.75 24.5299H188.74L195.86 1.10986Z" fill="white"/>
<path d="M220.22 4.90973V9.17973H227.02V11.7097H220.22V16.4597H227.97V19.1497H216.89V2.21973H227.97V4.90973H220.22Z" fill="white"/>
<path d="M254.08 19.2997H250.92V9.95973C250.92 9.16973 250.92 8.05973 251.08 7.89973H250.92C250.92 8.05973 250.6 9.16973 250.29 9.63973L246.02 19.6097H244.28L239.85 9.63973C239.53 9.00973 239.38 8.21973 239.38 8.05973H239.22C239.22 8.21973 239.38 9.32973 239.38 10.1197V19.4597H236.22V2.21973H239.7L244.13 11.8697C244.6 12.8197 245.08 14.2397 245.24 14.7197C245.4 14.2497 245.87 12.8197 246.35 11.8697L250.78 2.21973H254.1V19.3097L254.08 19.2997Z" fill="white"/>
<path d="M262.63 2.21973H265.79V19.1497H262.63V2.21973Z" fill="white"/>
<path d="M285.57 16.6097V19.2997H274.49V2.21973H277.65V16.4597H285.56V16.6197L285.57 16.6097Z" fill="white"/>
<path d="M297.44 13.1296V19.2996H294.28V13.2896L288.43 2.36963H291.91L295.07 8.37963C295.54 9.16963 295.86 10.1196 295.86 10.4396C295.86 9.96963 296.33 9.16963 296.65 8.37963L299.66 2.36963H302.98L297.44 13.1296Z" fill="white"/>
</g>
<defs>
<clipPath id="clip0_29497_7993">
<rect width="302.98" height="50" fill="white"/>
</clipPath>
</defs>
</svg>
