<svg width="425" height="50" viewBox="0 0 425 50" fill="none" xmlns="http://www.w3.org/2000/svg">
<g clip-path="url(#clip0_29497_8066)">
<path d="M16.22 50C25.07 50 31.94 44.33 31.94 35.84C31.94 27.35 25.35 24.15 19.19 21.75L15.22 20.19C10.19 18.28 7.5 16.01 7.5 11.76C7.5 8.08 10.83 5.39 15.64 5.39C20.17 5.39 23.36 7.59 24.71 12.83H31.01C29.53 5.24 24.22 0 16.08 0C7.94 0 1.35 5.03 1.35 12.46C1.35 19.47 6.87 23.51 12.4 25.56L16.37 27.12C21.61 29.17 25.79 31.44 25.79 36.68C25.79 41.92 21.68 44.75 16.37 44.75C11.06 44.75 7.16 41.63 6.38 35.47H0C0.85 44.18 7.15 49.99 16.22 49.99V50ZM55.74 49.15V26.42H83.22V49.15H89.1V1.13H83.22V21.24H55.74V1.13H49.86V49.15H55.74ZM136.19 49.15V43.98H116.15V26.42H135.56V21.25H116.15V6.3H136.19V1.13H110.27V49.15H136.19ZM181.02 49.15V43.98H160.98V26.42H180.39V21.25H160.98V6.3H181.02V1.13H155.1V49.15H181.02ZM205.81 49.15V27.97H211.12L228.05 49.15H235.49L217.64 26.77C222.67 25.07 227.27 21.32 227.27 14.52C227.27 7.72 222.81 1.06 210.56 1.06H200.01V49.08H205.82V49.15H205.81ZM210.41 22.73H205.81V6.3H210.41C216.78 6.3 221.03 8.78 221.03 14.59C221.03 20.4 216.78 22.73 210.41 22.73ZM275.14 49.15V43.98H255.1V1.13H249.22V49.15H275.14ZM307.22 50C318.48 50 325.99 43.34 325.99 32.22V1.13H320.11V32.72C320.11 40.58 314.52 44.69 307.22 44.69C299.92 44.69 294.33 40.58 294.33 32.72V1.13H288.45V32.22C288.45 43.34 296.03 50 307.22 50ZM347.17 49.15L362.11 29.04L376.91 49.15H384.13L365.72 24.15L382.79 1.06H376.06L362.32 19.54L348.65 1.06H341.43L358.71 24.5L340.37 49.08H347.17V49.15ZM424.93 49.15V43.98H404.89V26.42H424.3V21.25H404.89V6.3H424.93V1.13H399.01V49.15H424.93Z" fill="white"/>
</g>
<defs>
<clipPath id="clip0_29497_8066">
<rect width="424.93" height="50" fill="white"/>
</clipPath>
</defs>
</svg>
