<svg width="60" height="60" viewBox="0 0 60 60" fill="none" xmlns="http://www.w3.org/2000/svg">
<g clip-path="url(#clip0_6428_5289)">
<path d="M6.88647 57.2806C6.09336 57.2806 5.43872 56.6385 5.43872 55.8328V46.2273H15.0443C15.8374 46.2273 16.492 46.8693 16.492 47.675C16.492 48.4807 15.85 49.1228 15.0443 49.1228H8.33423V55.8328C8.33423 56.6259 7.69218 57.2806 6.88647 57.2806Z" fill="white"/>
<path d="M29.6349 60C21.9933 60 15.7617 57.7213 10.0336 52.8619C9.07683 52.0562 6.18132 49.0222 5.854 48.6823C5.30008 48.1032 5.32526 47.1842 5.89177 46.6303C6.47087 46.0764 7.38988 46.1015 7.9438 46.6681C8.81246 47.5745 11.2044 50.042 11.9094 50.6462C17.2346 55.1783 22.8997 57.1926 29.9874 57.0919C37.2891 57.0163 44.0747 54.2215 49.0852 49.2236C54.2719 44.0369 57.1297 37.201 57.1171 30C57.1171 26.2862 56.261 22.4717 54.6748 18.9971C54.3475 18.2669 54.6748 17.4108 55.3924 17.0835C56.1099 16.7562 56.9786 17.0835 57.3059 17.8011C59.0558 21.6534 59.9874 25.8708 60 30C60.0126 37.9815 56.8653 45.535 51.1246 51.2757C45.5728 56.8275 38.0823 59.9244 30.0126 60C29.8867 60 29.7608 60 29.6349 60Z" fill="white"/>
<path d="M4.01598 43.0424C3.47465 43.0424 2.9459 42.7277 2.69412 42.1989C0.944225 38.3467 0.0126268 34.1293 3.76215e-05 30C-0.0125515 22.0185 3.13474 14.465 8.8754 8.72433C14.4272 3.17251 21.9178 0.0755886 29.9874 5.36345e-05C37.8934 -0.0125355 44.1628 2.19058 49.979 7.13812C50.9358 7.94383 53.8313 10.9778 54.1712 11.3177C54.7251 11.8968 54.6999 12.8158 54.1334 13.3697C53.5669 13.9237 52.6353 13.8985 52.0814 13.332C51.2127 12.4256 48.8208 9.95807 48.1032 9.35379C42.778 4.82169 37.1507 2.85779 30.0252 2.90815C22.7235 2.98368 15.9379 5.77848 10.94 10.7764C5.75328 15.9631 2.89554 22.799 2.90813 30C2.90813 33.7264 3.7642 37.5283 5.33784 41.003C5.66516 41.7331 5.33784 42.5892 4.62026 42.9165C4.43142 43.0046 4.21741 43.0424 4.01598 43.0424Z" fill="white"/>
<path d="M54.5616 13.7728H44.9561C44.1629 13.7728 43.5083 13.1307 43.5083 12.325C43.5083 11.5193 44.1503 10.8773 44.9561 10.8773H51.6661V4.16723C51.6661 3.37411 52.3081 2.71948 53.1138 2.71948C53.9195 2.71948 54.5616 3.36152 54.5616 4.16723V13.7728Z" fill="white"/>
<path d="M45.9 27.2808L44.3893 19.5259L36.9239 22.0941L39.3914 23.5166C38.7997 24.6622 38.145 25.7827 37.4274 26.8528C34.4816 31.2842 30.3398 34.8846 25.5559 37.3018C20.8853 39.6559 17.5114 41.1037 12.2617 41.2422C15.472 41.5821 16.6679 41.4058 19.853 40.8897C24.511 40.1217 29.0683 38.4852 33.0842 35.9673C33.1723 35.917 33.3989 35.7659 33.487 35.7155C33.5752 35.6526 34.041 35.3504 34.1417 35.2875C34.3809 35.1238 34.6704 34.9098 34.9222 34.7462C35.1362 34.5951 35.4132 34.3811 35.6146 34.23C35.9293 33.9908 36.37 33.6509 36.6721 33.3991C39.3032 31.2464 41.5945 28.6908 43.5206 25.8834L45.9 27.2556V27.2808Z" fill="white"/>
</g>
<defs>
<clipPath id="clip0_6428_5289">
<rect width="60" height="60" fill="white"/>
</clipPath>
</defs>
</svg>
