<svg width="167" height="50" viewBox="0 0 167 50" fill="none" xmlns="http://www.w3.org/2000/svg">
<g clip-path="url(#clip0_29497_8072)">
<path fill-rule="evenodd" clip-rule="evenodd" d="M164.08 24.45C162.59 24.45 161.38 23.24 161.35 21.75V21.72C161.35 20.23 162.56 18.99 164.08 18.99C165.6 18.99 166.78 20.2 166.81 21.69V21.72C166.81 23.21 165.57 24.42 164.08 24.45ZM164.08 19.25C162.73 19.25 161.64 20.31 161.64 21.66V21.72C161.64 23.07 162.67 24.16 164.08 24.16C165.49 24.16 166.52 23.1 166.52 21.75V21.69C166.55 20.37 165.49 19.25 164.13 19.25H164.07M164.68 21.98L165.46 23.07H164.8L164.11 22.09H163.51V23.07H162.96V20.23H164.22C164.88 20.23 165.31 20.57 165.31 21.15C165.34 21.58 165.08 21.87 164.68 21.98ZM164.22 20.69H163.5V21.58H164.22C164.56 21.58 164.79 21.41 164.79 21.12C164.79 20.86 164.59 20.69 164.22 20.69ZM130.2 11.35C128.68 11.35 127.44 12.59 127.41 14.11C127.41 15.63 128.65 16.87 130.17 16.9C131.69 16.9 132.96 15.66 132.96 14.11C132.99 12.59 131.72 11.35 130.2 11.35ZM132.13 19.02H128.28C128.14 19.02 127.99 19.13 127.99 19.31V36.18C127.99 36.35 128.1 36.47 128.28 36.47H132.16C132.3 36.47 132.45 36.36 132.45 36.18V19.31C132.42 19.14 132.28 19.02 132.13 19.02ZM140.72 19.02V18.5C140.72 16.92 141.32 16.23 142.67 16.23C143.47 16.23 144.11 16.4 144.85 16.63C144.99 16.69 145.17 16.6 145.19 16.46C145.19 16.43 145.22 16.4 145.22 16.37V13.12C145.22 13.01 145.13 12.89 145.02 12.86C143.99 12.54 142.89 12.37 141.8 12.4C138.24 12.4 136.34 14.41 136.34 18.2V19H134.47C134.33 19 134.18 19.11 134.18 19.29V22.62C134.18 22.76 134.29 22.91 134.47 22.91H136.34V36.16C136.34 36.3 136.45 36.45 136.63 36.45H140.51C140.65 36.45 140.8 36.34 140.8 36.16V22.91H144.39L149.91 36.16C149.28 37.54 148.67 37.83 147.81 37.83C147.12 37.83 146.4 37.63 145.68 37.23C145.62 37.2 145.54 37.17 145.45 37.2C145.36 37.23 145.31 37.29 145.28 37.34L143.96 40.21C143.9 40.35 143.96 40.5 144.07 40.58C145.45 41.33 146.68 41.64 148.21 41.64C151.05 41.64 152.64 40.32 154.04 36.73L160.74 19.4C160.8 19.26 160.74 19.08 160.6 19.03C160.57 19.03 160.54 19 160.49 19H156.47C156.36 19 156.24 19.09 156.21 19.2L152.07 30.98L147.56 19.2C147.53 19.09 147.42 19.03 147.3 19.03H140.72M125.89 19.02H121.64V14.65C121.64 14.51 121.53 14.36 121.35 14.36H117.47C117.33 14.36 117.18 14.47 117.18 14.65V18.99H115.31C115.17 18.99 115.02 19.1 115.02 19.28V22.61C115.02 22.75 115.13 22.9 115.31 22.9H117.18V31.49C117.18 34.97 118.9 36.72 122.32 36.72C123.7 36.72 124.85 36.43 125.94 35.83C126.03 35.77 126.08 35.69 126.08 35.57V32.41C126.08 32.27 125.97 32.12 125.79 32.12C125.73 32.12 125.7 32.12 125.65 32.15C124.9 32.52 124.18 32.7 123.38 32.7C122.14 32.7 121.6 32.13 121.6 30.89V22.9H125.85C125.99 22.9 126.14 22.79 126.14 22.61V19.28C126.17 19.14 126.05 19.02 125.88 19.02M105.52 18.65C100.32 18.65 96.24 22.67 96.24 27.79C96.24 32.91 100.29 36.81 105.46 36.81C110.63 36.81 114.77 32.82 114.77 27.7C114.77 22.64 110.69 18.65 105.52 18.65ZM105.52 32.9C102.76 32.9 100.66 30.69 100.66 27.73C100.66 24.77 102.67 22.62 105.46 22.62C108.25 22.62 110.35 24.83 110.35 27.79C110.35 30.78 108.31 32.9 105.52 32.9ZM86.87 18.65C84.69 18.65 82.9 19.51 81.44 21.26V19.28C81.44 19.14 81.33 18.99 81.15 18.99H77.27C77.13 18.99 76.98 19.1 76.98 19.28V41.26C76.98 41.4 77.09 41.55 77.27 41.55H81.15C81.29 41.55 81.44 41.44 81.44 41.26V34.33C82.91 35.97 84.69 36.8 86.87 36.8C90.92 36.8 95 33.7 95 27.72C95 21.74 90.92 18.64 86.87 18.64M90.52 27.73C90.52 30.75 88.65 32.87 85.98 32.87C83.31 32.87 81.35 30.66 81.35 27.73C81.35 24.8 83.33 22.59 85.98 22.59C88.63 22.59 90.52 24.75 90.52 27.73ZM68.1 22.93C63.79 21.9 63.01 21.18 63.01 19.65C63.01 18.21 64.36 17.24 66.37 17.24C68.38 17.24 70.25 17.96 72.26 19.48C72.37 19.57 72.58 19.54 72.66 19.42L74.76 16.46C74.85 16.35 74.82 16.17 74.7 16.09C72.29 14.16 69.59 13.22 66.4 13.22C61.74 13.22 58.47 16.01 58.47 20.03C58.47 24.31 61.29 25.83 66.14 27.01C70.28 27.96 70.97 28.76 70.97 30.2C70.97 31.78 69.56 32.76 67.29 32.76C64.76 32.76 62.72 31.9 60.42 29.92C60.36 29.86 60.28 29.83 60.22 29.86C60.13 29.86 60.08 29.89 60.02 29.97L57.66 32.79C57.57 32.9 57.57 33.08 57.69 33.19C60.3 35.55 63.7 36.84 67.2 36.84C72.23 36.84 75.48 34.08 75.48 29.86C75.48 26.18 73.35 24.2 68.09 22.93M25 0C11.18 0 0 11.21 0 25C0 38.79 11.21 50 25 50C38.79 50 50 38.79 50 25C50 11.21 38.79 0 25 0ZM36.47 36.06C36.01 36.81 35.06 37.04 34.34 36.58C28.48 32.99 21.09 32.18 12.39 34.17C11.56 34.37 10.72 33.83 10.52 32.99C10.32 32.15 10.86 31.32 11.7 31.12C21.21 28.94 29.4 29.88 35.98 33.91C36.67 34.37 36.9 35.32 36.47 36.07M39.51 29.25C38.94 30.17 37.76 30.46 36.84 29.88C30.12 25.74 19.89 24.56 11.93 26.98C10.87 27.24 9.83 26.58 9.57 25.54C9.34 24.59 9.86 23.61 10.78 23.27C19.86 20.51 31.15 21.86 38.88 26.6C39.8 27.12 40.09 28.32 39.51 29.24M39.8 22.16C31.73 17.36 18.45 16.93 10.75 19.26C9.51 19.66 8.19 18.97 7.82 17.74C7.45 16.51 8.11 15.18 9.34 14.81C9.34 14.81 9.36 14.8 9.4 14.78C18.22 12.11 32.91 12.62 42.19 18.11C43.31 18.77 43.66 20.21 42.99 21.33C42.33 22.45 40.89 22.82 39.8 22.16Z" fill="white"/>
</g>
<defs>
<clipPath id="clip0_29497_8072">
<rect width="166.81" height="50" fill="white"/>
</clipPath>
</defs>
</svg>
