<svg width="172" height="50" viewBox="0 0 172 50" fill="none" xmlns="http://www.w3.org/2000/svg">
<g clip-path="url(#clip0_29497_8074)">
<path d="M10.12 30.7301C8.29 30.7501 6.48 30.4301 4.76 29.8001C3 29.1301 1.39 28.1501 0 26.8801L2.55 23.8201C3.62 24.7701 4.82 25.5401 6.12 26.1401C7.42 26.7001 8.81 26.9801 10.21 26.9501C11.3 27.0201 12.39 26.7201 13.32 26.1101C14.06 25.6201 14.5 24.7901 14.48 23.9001V23.8101C14.48 23.4201 14.41 23.0201 14.25 22.6501C14.06 22.2801 13.76 21.9501 13.41 21.7201C12.9 21.3701 12.34 21.0901 11.74 20.8801C10.83 20.5801 9.93 20.3001 9 20.0901C7.84 19.8301 6.68 19.4901 5.54 19.0901C4.63 18.7701 3.78 18.3001 3.01 17.7001C2.34 17.1701 1.8 16.4901 1.45 15.7001C1.08 14.7901 0.89 13.8401 0.92 12.8701V12.8001C0.9 10.8501 1.76 8.99006 3.24 7.72006C4.01 7.07006 4.89 6.58006 5.84 6.28006C6.91 5.93006 8.02 5.75006 9.16 5.77006C10.78 5.75006 12.41 6.00006 13.97 6.56006C15.41 7.09006 16.78 7.86006 17.96 8.83006L15.71 12.0601C14.69 11.2901 13.6 10.6901 12.41 10.2001C11.37 9.78006 10.25 9.57006 9.11 9.55006C8.09 9.48006 7.07 9.78006 6.23 10.3601C5.58 10.8501 5.19 11.6101 5.21 12.4301V12.5001C5.19 12.9201 5.28 13.3401 5.44 13.7301C5.65 14.1201 5.97 14.4501 6.37 14.6601C6.9 15.0101 7.48 15.2901 8.09 15.4701C8.83 15.7301 9.78 15.9801 10.95 16.2601C12.11 16.5401 13.22 16.9101 14.34 17.3301C15.22 17.6501 16.06 18.1401 16.78 18.7701C17.43 19.3301 17.94 20.0001 18.27 20.7901C18.62 21.6301 18.8 22.5101 18.78 23.3901V23.4601C18.8 24.5001 18.57 25.5501 18.13 26.5001C17.71 27.3801 17.11 28.1701 16.37 28.8001C15.56 29.4501 14.63 29.9401 13.63 30.2201C12.52 30.5701 11.33 30.7301 10.12 30.7301Z" fill="white"/>
<path d="M22.26 12.0902H26.48V15.1302C27.15 14.1602 27.99 13.3402 28.96 12.6902C30.07 11.9902 31.37 11.6502 32.67 11.6902C34.88 11.6902 36.99 12.5702 38.52 14.1502C39.36 15.0102 40.01 16.0102 40.45 17.1202C40.96 18.4202 41.19 19.7902 41.17 21.1802V21.2502C41.19 22.6202 40.96 24.0102 40.47 25.2902C40.05 26.4002 39.43 27.4002 38.61 28.2802C37.82 29.0902 36.87 29.7202 35.82 30.1402C34.82 30.5602 33.73 30.7702 32.66 30.7402C31.36 30.7902 30.06 30.4602 28.95 29.8102C28 29.1802 27.14 28.3902 26.47 27.4902V35.8202H22.25V12.0902H22.26ZM31.71 27.1102C32.41 27.1102 33.1 26.9702 33.73 26.6902C34.36 26.4102 34.91 26.0202 35.4 25.5302C35.89 25.0002 36.28 24.3702 36.51 23.6702C36.79 22.8802 36.95 22.0702 36.93 21.2302V21.1602C36.93 20.3502 36.79 19.5102 36.51 18.7502C36.25 18.0502 35.88 17.4302 35.4 16.8902C33.45 14.8502 30.22 14.7802 28.18 16.7302C28.11 16.8002 28.04 16.8502 27.99 16.9202C27.5 17.4502 27.11 18.0802 26.83 18.7802C26.53 19.5502 26.39 20.3602 26.39 21.1702V21.2602C26.39 22.0702 26.53 22.8802 26.83 23.6502C27.09 24.3502 27.48 24.9702 27.99 25.5102C28.48 26.0202 29.06 26.4202 29.68 26.6902C30.33 26.9702 31 27.1102 31.7 27.1102H31.71Z" fill="white"/>
<path d="M44.4302 12.0902H48.6502V16.2202C49.1602 14.9202 50.0202 13.7602 51.1102 12.9002C52.2702 12.0602 53.6902 11.6502 55.1302 11.7902V16.2202H54.9002C54.0402 16.2202 53.1802 16.3602 52.3702 16.6602C51.6002 16.9602 50.9302 17.4302 50.4002 18.0102C49.8202 18.6602 49.3802 19.4502 49.1202 20.2802C48.8002 21.3002 48.6302 22.3702 48.6602 23.4402V30.4002H44.4602V12.0902H44.4402H44.4302Z" fill="white"/>
<path d="M66.0599 30.7799C64.7799 30.7999 63.5299 30.5499 62.3499 30.0799C61.2399 29.6399 60.2099 28.9899 59.3799 28.1499C58.5499 27.3099 57.8499 26.2699 57.3799 25.1599C56.8899 23.9299 56.6399 22.6299 56.6599 21.3099V21.2399C56.6399 19.9599 56.8699 18.7099 57.3099 17.5299C57.7299 16.4199 58.3499 15.3699 59.1699 14.4899C59.9599 13.6299 60.8899 12.9299 61.9599 12.4499C63.0999 11.9399 64.3299 11.6799 65.5599 11.7099C66.8799 11.6899 68.1799 11.9699 69.3899 12.4999C70.4599 13.0099 71.4099 13.7299 72.1799 14.6599C72.9499 15.5899 73.5299 16.6599 73.8699 17.7899C74.2399 18.9999 74.4299 20.2699 74.4299 21.5499V22.1299C74.4299 22.3399 74.4299 22.5499 74.3799 22.7299H60.9199C61.0599 24.0499 61.7099 25.2799 62.7099 26.1699C63.6799 26.9799 64.9199 27.3999 66.1899 27.3499C67.1199 27.3699 68.0499 27.1899 68.8799 26.7899C69.6899 26.3699 70.4599 25.8199 71.1099 25.1699L73.5699 27.3499C72.6899 28.3699 71.6399 29.2299 70.4399 29.8299C69.0699 30.4999 67.5799 30.8299 66.0799 30.7799H66.0599ZM70.2199 19.9399C70.1499 19.3099 69.9899 18.6899 69.7599 18.0799C69.5499 17.5199 69.2299 16.9899 68.8299 16.5499C68.4399 16.1299 67.9699 15.7799 67.4399 15.5299C65.7199 14.7599 63.7299 15.1399 62.3799 16.4599C61.4999 17.4099 60.9599 18.6399 60.8199 19.9399H70.2199Z" fill="white"/>
<path d="M88.74 30.36V28.11C88.07 28.88 87.25 29.5 86.35 29.97C85.26 30.5 84.03 30.76 82.82 30.74C81.98 30.74 81.13 30.65 80.34 30.39C79.6 30.16 78.9 29.81 78.27 29.32C77.67 28.83 77.2 28.21 76.85 27.53C76.48 26.76 76.29 25.93 76.32 25.09V25.02C76.3 24.11 76.48 23.21 76.88 22.37C77.25 21.65 77.76 21 78.41 20.51C79.13 20 79.92 19.63 80.78 19.4C81.75 19.14 82.73 19.03 83.73 19.05C84.68 19.03 85.61 19.12 86.56 19.26C87.33 19.4 88.07 19.58 88.79 19.82V19.5C88.84 18.97 88.74 18.41 88.53 17.92C88.32 17.41 88.02 16.97 87.62 16.6C86.67 15.88 85.48 15.51 84.28 15.58C83.35 15.58 82.4 15.67 81.49 15.9C80.65 16.13 79.84 16.41 79.03 16.74L77.87 13.37C78.87 12.91 79.91 12.53 81 12.26C82.25 11.96 83.55 11.8 84.85 11.82C87.57 11.82 89.59 12.49 90.91 13.84C92.3 15.4 93.02 17.46 92.88 19.55V30.39L88.72 30.37L88.74 30.36ZM88.86 22.73C88.26 22.5 87.63 22.34 87 22.22C86.23 22.08 85.47 22.01 84.7 22.01C83.63 21.96 82.56 22.22 81.64 22.78C81.29 23.01 81.01 23.31 80.8 23.69C80.61 24.06 80.52 24.46 80.52 24.87V24.94C80.47 25.75 80.87 26.5 81.54 26.94C82.28 27.43 83.16 27.66 84.05 27.64C84.7 27.64 85.35 27.55 85.98 27.36C86.51 27.2 87.02 26.97 87.49 26.64C87.91 26.32 88.28 25.9 88.51 25.43C88.74 24.94 88.88 24.41 88.88 23.85L88.86 22.74V22.73Z" fill="white"/>
<path d="M96.8401 5.10986H101.06V20.2199L108.65 12.1199H113.73L106.44 19.5199L113.96 30.3599H109.11L103.61 22.4699L101.03 25.1399V30.3599H96.8101V5.10986H96.8301H96.8401Z" fill="white"/>
<path d="M124.35 30.7798C123.07 30.7998 121.82 30.5498 120.64 30.0798C118.37 29.1998 116.58 27.4098 115.67 25.1398C115.18 23.9098 114.93 22.6098 114.95 21.2898V21.2198C114.93 19.9398 115.16 18.6898 115.6 17.5098C116.02 16.3998 116.64 15.3498 117.46 14.4698C118.25 13.6098 119.18 12.9098 120.25 12.4298C121.39 11.9198 122.59 11.6598 123.85 11.6898C125.17 11.6698 126.5 11.9498 127.68 12.4998C128.75 13.0098 129.68 13.7298 130.42 14.6598C131.16 15.5898 131.72 16.6598 132.07 17.7898C132.44 18.9998 132.63 20.2698 132.63 21.5498V22.1298C132.63 22.3398 132.63 22.5498 132.58 22.7298H119.19C119.33 24.0498 119.98 25.2798 120.98 26.1698C121.95 26.9798 123.19 27.3998 124.46 27.3498C125.39 27.3698 126.32 27.1898 127.15 26.7898C128.01 26.3698 128.77 25.8398 129.45 25.1698L131.91 27.3498C131.05 28.3698 129.98 29.2298 128.78 29.8298C127.39 30.4998 125.88 30.8298 124.37 30.7798H124.35ZM128.48 19.9398C128.41 19.3098 128.25 18.6898 128.02 18.0798C127.81 17.5198 127.49 16.9898 127.09 16.5498C126.69 16.1098 126.23 15.7398 125.7 15.4598C123.98 14.6698 121.94 15.0398 120.64 16.4098C119.76 17.3598 119.22 18.5898 119.08 19.8898L128.48 19.9398Z" fill="white"/>
<path d="M135.89 12.0898H140.11V16.2198C140.62 14.9198 141.48 13.7598 142.57 12.8998C143.71 12.0598 145.12 11.6698 146.54 11.7898V16.2198H146.31C145.45 16.2198 144.59 16.3598 143.78 16.6598C143.04 16.9598 142.36 17.4298 141.81 18.0098C141.23 18.6598 140.79 19.3998 140.53 20.2398C140.21 21.2598 140.04 22.3298 140.07 23.3998V30.3598H135.89V12.0898Z" fill="white"/>
<path d="M155.04 13.3898L146.15 22.2798L155.04 19.5898L161.96 27.3698L162.4 17.1798L171.62 13.4198L162.59 9.63977L161.45 0.00976562L155.6 7.34977L146.15 5.65977L155.04 13.4098V13.3898Z" fill="white"/>
<path d="M117.08 35.96C115.43 35.98 113.92 36.8 112.99 38.17C112.08 36.8 110.55 35.99 108.93 35.96C106.24 35.96 104.06 38.14 104.06 40.83C104.06 42.55 105.13 43.78 106.27 44.92L110.68 49.1C110.68 49.1 110.8 49.19 110.87 49.19C110.94 49.19 111.01 49.19 111.08 49.17C111.15 49.15 111.2 49.1 111.24 49.03C111.29 48.96 111.31 48.89 111.29 48.82V45.57C111.29 44.62 112.06 43.88 112.98 43.88C113.9 43.88 114.67 44.65 114.67 45.57V48.82C114.67 48.96 114.76 49.1 114.88 49.17C114.95 49.19 115.02 49.22 115.09 49.19C115.16 49.17 115.23 49.14 115.28 49.1L119.69 44.92C120.83 43.78 121.9 42.55 121.9 40.83C121.95 38.14 119.76 35.96 117.09 35.96H117.08ZM108.61 44.57C108.61 44.57 108.54 44.64 108.49 44.66C108.44 44.68 108.4 44.68 108.35 44.68C108.26 44.68 108.19 44.66 108.12 44.59C106.84 43.64 106.05 42.18 105.94 40.6C105.96 39.37 106.59 38.21 107.59 37.51C107.64 37.49 107.66 37.46 107.71 37.46H107.85C107.85 37.46 107.94 37.48 107.97 37.51C108.02 37.53 108.04 37.56 108.06 37.6C108.08 37.65 108.11 37.67 108.11 37.72C108.13 37.86 108.06 38 107.97 38.07C107.58 38.37 107.23 38.74 107 39.18C106.77 39.62 106.63 40.11 106.63 40.6C106.75 41.99 107.47 43.27 108.6 44.11C108.62 44.13 108.67 44.18 108.67 44.23C108.69 44.28 108.69 44.32 108.69 44.35C108.69 44.4 108.69 44.44 108.67 44.47C108.67 44.54 108.65 44.56 108.62 44.59L108.61 44.57ZM110.77 43.34C110.77 43.34 110.7 43.43 110.65 43.46C110.6 43.49 110.53 43.51 110.49 43.51C110.44 43.53 110.37 43.53 110.33 43.51C109.33 42.95 108.71 41.93 108.68 40.82C108.68 39.8 109.24 38.87 110.14 38.41C110.21 38.36 110.3 38.36 110.4 38.39C110.59 38.44 110.68 38.62 110.61 38.81C110.59 38.9 110.52 38.97 110.45 39.02C110.1 39.21 109.82 39.46 109.64 39.79C109.46 40.12 109.34 40.49 109.36 40.88C109.38 41.32 109.5 41.74 109.73 42.11C109.96 42.48 110.29 42.78 110.66 42.99C110.78 43.06 110.82 43.22 110.78 43.36L110.77 43.34ZM113.02 42.46C112.72 42.46 112.44 42.37 112.21 42.23C111.72 41.91 111.47 41.3 111.58 40.72C111.69 40.14 112.16 39.68 112.74 39.56C113.53 39.4 114.32 39.93 114.48 40.72C114.5 40.81 114.5 40.91 114.5 41C114.5 41.19 114.45 41.37 114.38 41.56C114.12 42.12 113.59 42.47 113.01 42.47L113.02 42.46ZM115.74 43.45C115.74 43.45 115.62 43.47 115.58 43.45C115.51 43.45 115.46 43.43 115.42 43.4C115.38 43.37 115.33 43.33 115.3 43.28C115.25 43.21 115.25 43.12 115.28 43.02C115.3 42.93 115.35 42.86 115.44 42.81C116.23 42.39 116.72 41.58 116.76 40.7C116.78 39.91 116.34 39.19 115.65 38.84C115.6 38.82 115.58 38.79 115.56 38.75C115.54 38.73 115.51 38.68 115.49 38.63C115.47 38.58 115.47 38.54 115.47 38.49C115.47 38.44 115.49 38.4 115.52 38.37C115.54 38.32 115.57 38.3 115.59 38.25C115.61 38.23 115.66 38.2 115.71 38.18C115.76 38.16 115.8 38.16 115.85 38.16C115.9 38.16 115.94 38.18 115.97 38.21C116.85 38.7 117.41 39.6 117.43 40.62C117.38 41.8 116.76 42.85 115.76 43.43L115.74 43.45ZM120.15 40.6C120.03 42.18 119.24 43.64 117.94 44.59C117.92 44.61 117.87 44.64 117.82 44.66C117.73 44.68 117.66 44.68 117.56 44.66C117.51 44.64 117.49 44.61 117.44 44.59C117.42 44.57 117.39 44.52 117.37 44.47C117.35 44.42 117.35 44.38 117.35 44.35C117.35 44.3 117.35 44.26 117.37 44.23C117.39 44.18 117.42 44.16 117.44 44.11C118.58 43.27 119.27 42 119.41 40.6C119.36 39.6 118.88 38.65 118.06 38.07C118.01 38.05 117.99 38.02 117.97 37.98C117.92 37.91 117.9 37.82 117.9 37.72C117.9 37.67 117.92 37.63 117.95 37.6C118 37.53 118.07 37.46 118.16 37.46H118.3C118.3 37.46 118.39 37.48 118.42 37.51C119.44 38.23 120.04 39.37 120.09 40.62L120.14 40.57L120.15 40.6Z" fill="white"/>
<path d="M127.95 39H130.43V42.34H133.61V39H136.09V47.96H133.61V44.55H130.43V47.96H127.95V39Z" fill="white"/>
<path d="M136.82 44.5199C136.77 43.5699 137.12 42.6399 137.79 41.9699C138.11 41.6199 138.51 41.3699 138.95 41.1799C139.39 40.9899 139.86 40.8999 140.32 40.8999C142.69 40.8999 143.8 42.6399 143.8 44.6799V45.1399H139.16C139.3 45.8599 139.95 46.3499 140.67 46.2999C141.25 46.2999 141.81 46.0399 142.2 45.5999L143.55 46.7099C142.83 47.6399 141.69 48.1499 140.53 48.0999C139.56 48.1699 138.58 47.8199 137.88 47.1299C137.18 46.4399 136.79 45.5099 136.84 44.5099H136.82V44.5199ZM141.5 43.8999C141.5 43.7399 141.48 43.5799 141.43 43.4399C141.31 43.1399 141.08 42.9099 140.78 42.7699C140.64 42.6999 140.48 42.6799 140.32 42.6799C139.65 42.6999 139.11 43.2399 139.11 43.9099H141.5V43.8999Z" fill="white"/>
<path d="M151.93 41.0399H154.37V42.4299C154.65 41.4799 155.58 40.8498 156.55 40.9198V43.4699H156.34C155.09 43.4699 154.37 44.1899 154.37 45.7899V47.9499H151.93V41.0298V41.0399Z" fill="white"/>
<path d="M158.05 45.7998V43.0098H157.24V41.0398H158.05V39.2998H160.49V41.0398H162.11V42.9898H160.49V45.3098C160.49 45.7998 160.72 46.0098 161.16 46.0098C161.48 46.0098 161.81 45.9198 162.09 45.7798V47.6398C161.58 47.9198 161 48.0598 160.4 48.0298C159.29 48.1898 158.26 47.4498 158.08 46.3398C158.06 46.1798 158.03 45.9898 158.06 45.8098L158.05 45.7998Z" fill="white"/>
<path d="M125.56 38.3701C125.05 38.3701 124.56 38.6901 124.38 39.1601C124.29 39.3901 124.26 39.6501 124.31 39.9001C124.36 40.1501 124.47 40.3901 124.66 40.5501C125.03 40.9201 125.57 41.0101 126.05 40.8301C126.7 40.5501 127.02 39.8101 126.75 39.1401C126.54 38.6801 126.08 38.3701 125.57 38.3701H125.56Z" fill="white"/>
<path d="M150.97 44.4798C150.99 43.5098 150.62 42.5498 149.93 41.8598C149.58 41.5098 149.16 41.2598 148.7 41.0898C148.24 40.9298 147.75 40.8598 147.26 40.8798C146.08 40.8598 144.96 41.3898 144.27 42.3398L145.62 43.4498C145.81 43.2398 146.06 43.0598 146.32 42.9398C146.58 42.8198 146.88 42.7498 147.16 42.7498C147.86 42.6998 148.51 43.1698 148.65 43.8598V43.9098H147.05C145.05 43.9098 144.03 44.6798 144.03 46.0698C144.03 47.4598 144.96 48.1398 146.63 48.1398C147.4 48.1598 148.14 47.8598 148.7 47.2998V47.9698H151V44.4598L150.97 44.4798ZM147.35 46.5598C146.72 46.5598 146.35 46.2398 146.35 45.7898C146.35 45.3398 146.67 45.1398 147.28 45.1398H148.67V45.2098C148.67 45.3698 148.65 45.5598 148.58 45.7198C148.51 45.8798 148.42 46.0198 148.3 46.1598C148.18 46.2798 148.02 46.3898 147.88 46.4398C147.72 46.5298 147.53 46.5598 147.35 46.5598Z" fill="white"/>
<path d="M125.6 41.5498H125.51C125.35 41.5498 125.19 41.5698 125.02 41.6398C124.86 41.7098 124.72 41.7998 124.6 41.9198C124.48 42.0398 124.39 42.1798 124.32 42.3398C124.25 42.4998 124.23 42.6598 124.23 42.8298V47.9598H126.85V42.8098C126.85 42.6498 126.83 42.4898 126.76 42.3198C126.69 42.1798 126.6 42.0398 126.5 41.9298C126.38 41.8098 126.24 41.7198 126.08 41.6498C125.94 41.5998 125.78 41.5598 125.59 41.5598L125.6 41.5498Z" fill="white"/>
<path d="M76.32 38.86C76.32 38.79 76.34 38.7 76.37 38.63C76.4 38.56 76.44 38.49 76.51 38.42C76.56 38.37 76.63 38.33 76.72 38.28C76.79 38.26 76.88 38.23 76.95 38.23H80.99C81.06 38.23 81.15 38.23 81.22 38.25C81.29 38.27 81.36 38.32 81.43 38.37C81.5 38.42 81.55 38.49 81.57 38.56C81.59 38.63 81.62 38.72 81.62 38.79C81.62 38.86 81.6 38.95 81.57 39.02C81.54 39.09 81.5 39.16 81.43 39.21C81.36 39.26 81.29 39.3 81.22 39.33C81.15 39.36 81.06 39.35 80.99 39.35H77.58V41.21H80.55C80.69 41.21 80.83 41.26 80.94 41.37C81.06 41.46 81.1 41.63 81.1 41.76C81.1 42.06 80.84 42.32 80.54 42.32H77.55V44.57C77.55 44.64 77.53 44.73 77.5 44.8C77.47 44.87 77.43 44.94 77.36 44.99C77.31 45.04 77.24 45.08 77.15 45.13C77.08 45.15 76.99 45.18 76.92 45.18C76.85 45.18 76.76 45.16 76.69 45.13C76.62 45.1 76.55 45.06 76.48 44.99C76.43 44.94 76.39 44.87 76.34 44.78C76.32 44.71 76.29 44.62 76.29 44.55L76.31 38.86H76.32Z" fill="white"/>
<path d="M82.6802 40.4801C82.6802 40.4101 82.6802 40.3201 82.7302 40.2501C82.7502 40.1801 82.8002 40.1101 82.8502 40.0601C82.9002 40.0101 82.9702 39.9701 83.0402 39.9201C83.1802 39.8501 83.3602 39.8501 83.5002 39.9201C83.5702 39.9401 83.6402 39.9901 83.6902 40.0601C83.8102 40.1801 83.8802 40.3401 83.8802 40.4801V41.0101C84.0702 40.4101 84.5802 39.9701 85.2002 39.8501C85.2702 39.8501 85.3602 39.8501 85.4302 39.8701C85.5002 39.8901 85.5702 39.9401 85.6402 39.9901C85.6902 40.0401 85.7302 40.1101 85.7602 40.2001C85.7802 40.2701 85.8102 40.3601 85.7802 40.4301C85.7802 40.5701 85.7302 40.7101 85.6602 40.8001C85.5702 40.9201 85.4502 40.9901 85.3102 41.0101C84.4502 41.1501 83.8702 41.8001 83.8702 43.0501V44.5801C83.8702 44.9001 83.5902 45.1801 83.2702 45.1601C82.9502 45.1601 82.6902 44.9001 82.6902 44.5801V40.4701L82.6802 40.4801Z" fill="white"/>
<path d="M86.3 42.5998C86.18 41.0698 87.34 39.7398 88.88 39.6298C90.42 39.5198 91.74 40.6698 91.85 42.2098V42.5998C91.83 44.1098 90.57 45.3198 89.06 45.3198C87.57 45.3698 86.32 44.1798 86.27 42.6998C86.27 42.6498 86.27 42.6298 86.29 42.6098L86.3 42.5998ZM90.67 42.5998C90.67 42.3898 90.65 42.1598 90.58 41.9698C90.28 41.1298 89.35 40.7198 88.51 41.0198C88.49 41.0198 88.46 41.0398 88.44 41.0398C88.05 41.1998 87.72 41.5298 87.58 41.9498C87.51 42.1598 87.46 42.3698 87.49 42.5798C87.49 42.7898 87.51 43.0198 87.58 43.2098C87.65 43.4198 87.77 43.5998 87.93 43.7398C88.07 43.8998 88.25 44.0198 88.46 44.1098C88.67 44.1998 88.88 44.2498 89.09 44.2498C89.95 44.2498 90.67 43.5498 90.67 42.6898V42.5998Z" fill="white"/>
<path d="M93.0801 40.4802C93.0801 40.4102 93.0801 40.3202 93.1301 40.2502C93.1501 40.1802 93.2001 40.1102 93.2501 40.0402C93.3001 39.9902 93.3701 39.9502 93.4401 39.9002C93.5101 39.8802 93.6001 39.8502 93.6701 39.8502C93.7401 39.8502 93.8301 39.8702 93.9001 39.9002C93.9701 39.9302 94.0401 39.9702 94.0901 40.0402C94.2101 40.1602 94.2801 40.3202 94.2801 40.4602V40.7202C94.4401 40.4402 94.6701 40.2102 94.9501 40.0502C95.2301 39.8902 95.5501 39.7902 95.8801 39.7902C96.2001 39.7702 96.5301 39.8602 96.8101 40.0202C97.0901 40.1802 97.3001 40.4402 97.4601 40.7202C97.8501 40.1402 98.5001 39.7902 99.2201 39.7902C99.4801 39.7702 99.7301 39.8102 99.9901 39.9102C100.22 40.0002 100.45 40.1702 100.64 40.3502C100.8 40.5402 100.94 40.7702 101.01 41.0202C101.08 41.2702 101.1 41.5302 101.08 41.7902V44.5802C101.03 44.8802 100.78 45.1102 100.48 45.1102C100.18 45.1102 99.9201 44.8802 99.8801 44.5802V42.1902C99.8801 41.3502 99.4901 40.9102 98.8101 40.9102C98.1301 40.9102 97.7001 41.3702 97.7001 42.2102V44.6002C97.6501 44.9202 97.3501 45.1602 97.0301 45.1102C96.7501 45.0602 96.5401 44.8502 96.5201 44.6002V42.1902C96.5201 41.3802 96.1301 40.9102 95.4501 40.9102C94.7701 40.9102 94.3401 41.4002 94.3401 42.2102V44.6002C94.3401 44.6702 94.3201 44.7602 94.2901 44.8302C94.2201 44.9702 94.1001 45.0902 93.9701 45.1502C93.8301 45.2002 93.6501 45.2002 93.5101 45.1502C93.4401 45.1302 93.3701 45.0802 93.3201 45.0302C93.2701 44.9802 93.2301 44.9102 93.2001 44.8402C93.1701 44.7702 93.1501 44.6802 93.1501 44.6102L93.1001 40.4802H93.0801Z" fill="white"/>
</g>
<defs>
<clipPath id="clip0_29497_8074">
<rect width="171.61" height="49.2" fill="white"/>
</clipPath>
</defs>
</svg>
