<svg width="220" height="49" viewBox="0 0 220 49" fill="none" xmlns="http://www.w3.org/2000/svg">
<g clip-path="url(#clip0_29497_8133)">
<path d="M208.82 46.55C206.59 44.88 205.82 42.57 205.81 39.99C205.77 33.81 205.79 27.63 205.79 21.46C205.79 21.13 205.79 20.8 205.79 20.34H203.3C203.3 20.27 203.3 20.2 203.3 20.12H205.75V18.03C209.31 17.73 212.49 16.88 214.12 13.23V20.07H219.04C219.04 20.13 219.04 20.2 219.04 20.26H214.24C214.21 20.56 214.17 20.79 214.17 21.02C214.17 27.96 214.15 34.89 214.19 41.82C214.19 42.96 214.32 44.12 214.56 45.24C215.02 47.44 216.16 48.13 218.38 47.69C218.64 47.64 218.9 47.58 219.25 47.51C217.66 48.92 211.56 48.33 208.83 46.54L208.82 46.55Z" fill="white"/>
<path d="M11.6301 47.95C12.3801 47.73 13.1701 47.59 13.8701 47.27C17.1601 45.78 17.6801 41.75 14.7501 39.63C13.1801 38.5 11.3301 37.74 9.59015 36.84C7.83015 35.92 5.96015 35.17 4.29015 34.1C1.10015 32.05 -0.149851 28.78 0.710149 25.32C1.16015 23.49 2.23015 22.12 3.82015 21.14C6.11015 19.72 9.55015 19.13 12.3001 19.74C11.6701 19.78 11.0301 19.78 10.4101 19.87C8.63015 20.13 7.38015 21.05 6.93015 22.85C6.50015 24.57 7.08015 26.06 8.83015 27.07C10.7801 28.2 12.8901 29.05 14.8801 30.13C16.6201 31.08 18.4601 31.97 19.9501 33.24C24.2801 36.95 23.4801 43.63 18.5001 46.42C16.4301 47.58 14.1701 48.08 11.7401 48.14C11.6201 48.05 11.6101 48 11.6401 47.93L11.6301 47.95Z" fill="white"/>
<path d="M141.63 47.9599C142.44 47.7299 143.29 47.5799 144.04 47.2399C147.24 45.7899 147.77 41.7899 144.93 39.7099C143.32 38.5299 141.41 37.7599 139.62 36.8199C137.86 35.8999 135.99 35.1399 134.33 34.0599C130.99 31.8899 129.76 28.1499 131.02 24.6399C131.55 23.1599 132.51 22.0199 133.83 21.1899C136.5 19.5199 139.43 19.3099 142.47 19.7299C141.75 19.7899 141.02 19.7899 140.3 19.9099C138.6 20.1999 137.45 21.1399 137.03 22.8799C136.61 24.6399 137.24 26.0699 138.72 26.9299C140.75 28.1099 142.93 29.0099 144.99 30.1499C146.75 31.1199 148.57 32.0699 150.13 33.3299C154.05 36.4899 153.84 43.6799 148.49 46.4999C146.39 47.6099 144.14 48.1099 141.73 48.1699C141.65 48.0799 141.63 48.0199 141.62 47.9599H141.63Z" fill="white"/>
<path d="M83.1301 32.4702C83.1101 29.9002 83.1001 27.4102 83.0801 24.9302C83.0801 24.5102 83.0601 24.0802 83.0001 23.6602C82.6501 21.1902 82.1201 20.6502 79.7001 20.1602H92.3101C92.1301 20.9302 91.9201 21.7302 91.7801 22.5402C91.7301 22.8202 91.8501 23.1202 91.8901 23.4202C91.9001 23.5202 91.9201 23.6302 91.9101 23.7402C91.8201 24.4102 91.6301 25.0802 91.6201 25.7602C91.5601 30.1202 91.5101 34.4802 91.4901 38.8402C91.4901 40.4102 91.4901 41.9902 91.6101 43.5602C91.8601 46.8002 92.5901 47.2502 94.9801 47.6802H79.6601C79.6601 47.6802 79.6401 47.6202 79.6401 47.5902C79.8201 47.5502 79.9901 47.4902 80.1701 47.4702C81.8101 47.2702 82.6101 46.5602 82.8601 44.9102C83.0301 43.8102 83.1001 42.6802 83.1101 41.5702C83.1401 38.5702 83.1201 35.5802 83.1201 32.4902L83.1301 32.4702Z" fill="white"/>
<path d="M173.14 44.5602C173.7 43.8302 173.81 42.9802 173.81 42.0802C173.79 36.3302 173.81 30.5702 173.79 24.8202C173.79 24.1902 173.71 23.5502 173.61 22.9202C173.34 21.1802 172.65 20.6102 170.42 20.1602H183.2C182.35 21.9302 182.36 23.8602 182.35 25.7702C182.31 31.6702 182.33 37.5802 182.35 43.4802C182.35 43.9902 182.44 44.5102 182.54 45.0102C182.85 46.5702 183.6 47.2302 185.17 47.4002C185.37 47.4202 185.56 47.4802 185.74 47.6502H173.14C173.31 46.6302 173.48 45.6002 173.65 44.5802C173.65 44.5602 173.62 44.5102 173.62 44.5102C173.55 44.5302 173.48 44.5602 173.31 44.6002C173.21 44.6002 173.15 44.5602 173.15 44.5602H173.14Z" fill="white"/>
<path d="M199.5 46.5901C200.27 46.9301 201 47.2301 201.77 47.5401H186.86C187.03 47.4401 187.1 47.3701 187.18 47.3601C189.15 47.1101 189.86 46.4101 190.13 44.4301C190.19 43.9801 190.26 43.5301 190.26 43.0701C190.25 36.7401 190.32 30.4101 190.16 24.0801C190.08 20.9201 189.26 20.7001 186.98 20.1401H201.76C201.71 20.2101 201.69 20.2901 201.65 20.3001C199.36 20.6301 198.62 21.3801 198.54 23.8501C198.44 26.9401 198.46 30.0301 198.46 33.1201C198.46 36.5701 198.43 40.0301 198.56 43.4801C198.6 44.5101 199.14 45.5201 199.5 46.5901Z" fill="white"/>
<path d="M107.72 23.1C109.24 25.32 109.51 27.79 109.53 30.3C109.57 34.66 109.57 39.02 109.6 43.38C109.6 43.83 109.67 44.29 109.75 44.73C110.09 46.6 110.72 47.17 112.61 47.41C112.75 47.43 112.88 47.48 113 47.65H97.6601L97.6301 47.54C97.8101 47.49 97.9801 47.42 98.1601 47.4C99.8401 47.1901 100.58 46.5 100.86 44.85C100.97 44.17 101.06 43.47 101.06 42.77C101.07 37.05 101.08 31.32 101.04 25.6C101.04 24.64 100.89 23.66 100.65 22.73C100.13 20.75 98.9501 19.97 96.9001 20.1C96.6201 20.12 96.3401 20.1 95.8701 20.1C99.5101 18.78 105.35 19.39 107.71 23.09L107.72 23.1Z" fill="white"/>
<path d="M127.49 29.9299C127.53 34.5899 127.55 39.1699 127.62 43.7399C127.62 44.3899 127.8 45.0599 128 45.6899C128.32 46.7099 129.09 47.2499 130.14 47.3899C130.42 47.4299 130.7 47.4499 130.97 47.6799H115.42C115.78 47.5399 115.91 47.4499 116.06 47.4299C117.89 47.1899 118.62 46.5099 118.88 44.6899C119 43.8199 119.09 42.9399 119.09 42.0699C119.1 36.6499 119.1 31.2199 119.06 25.7999C119.06 24.8399 118.91 23.8599 118.69 22.9299C118.19 20.8499 117.01 20.0199 114.88 20.1299C114.67 20.1299 114.46 20.1499 114.21 19.9799C114.75 19.8499 115.29 19.6099 115.83 19.6199C117.57 19.6699 119.38 19.5599 121.05 19.9599C125 20.9099 127.19 23.9899 127.44 28.4999C127.47 28.9499 127.48 29.4099 127.5 29.9499L127.49 29.9299Z" fill="white"/>
<path d="M168.1 48.0902C165.75 48.4902 163.48 48.4102 161.3 47.6402C157.96 46.4602 156.3 43.8802 155.8 40.5002C155.64 39.4302 155.62 38.3302 155.6 37.2402C155.54 32.8202 155.59 28.3902 155.44 23.9702C155.35 21.2902 154.77 20.7702 152.21 20.1602H164.9C164 21.9702 164.05 23.9302 164.03 25.8502C163.96 31.2102 163.98 36.5802 164.01 41.9402C164.01 42.9602 164.16 44.0002 164.39 44.9902C164.87 46.9902 166.09 47.8402 168.15 47.7502C168.42 47.7402 168.69 47.7502 168.98 47.8502C168.71 47.9302 168.43 48.0002 168.08 48.0902H168.1Z" fill="white"/>
<path d="M38.1298 38.3499C37.1498 41.5199 36.1798 44.6199 35.2098 47.6999C34.3298 47.9499 33.8998 47.6899 33.5398 46.8399C30.2598 39.2499 26.9198 31.6899 23.5998 24.1299C23.5898 24.0999 23.5798 24.0699 23.5698 24.0499C22.7298 22.3899 22.0298 20.5799 19.8198 20.1899H32.7598C32.7598 20.1899 32.7398 20.3199 32.7098 20.3299C31.1198 20.7499 30.8398 21.1199 31.4198 22.6899C32.3198 25.1199 33.3498 27.4999 34.3298 29.8999C35.4098 32.5199 36.4898 35.1399 37.5998 37.7499C37.6898 37.9699 37.9398 38.1099 38.1198 38.3599L38.1298 38.3499Z" fill="white"/>
<path d="M150.18 6.48987C149.85 6.48987 149.61 6.48987 149.37 6.48987C147.86 6.53987 147.11 7.29987 147.09 8.82987C147.08 10.6099 147.09 12.3899 147.09 14.2299H141.88V3.61987H147.03V5.63987C148 4.97987 148.87 3.99987 149.91 3.75987C153.09 3.01987 156.33 3.18987 159.5 3.91987C160.58 4.16987 161.24 5.04987 161.25 6.19987C161.29 8.73987 161.27 11.2899 161.26 13.8299C161.26 13.9399 161.22 14.0599 161.18 14.2099C161.02 14.2399 160.88 14.2799 160.73 14.2799C157.62 14.2299 154.5 14.1999 151.39 14.1099C149.84 14.0699 148.6 13.0399 148.37 11.7099C148.07 9.99987 148.73 8.73987 150.39 8.11987C151.02 7.87987 151.74 7.79987 152.42 7.75987C153.51 7.69987 154.6 7.72987 155.69 7.71987C155.74 7.71987 155.8 7.67987 155.98 7.59987C155.98 7.11987 155.98 6.58987 155.98 6.04987C155.98 5.16987 155.4 4.92987 154.67 4.87987C153.8 4.82987 154.06 5.49987 154.01 5.96987C153.99 6.10987 153.96 6.25987 153.92 6.49987C152.69 6.49987 151.48 6.49987 150.19 6.49987M154.21 12.0399C154.63 12.6399 155.21 12.7199 155.98 12.5499C155.98 11.7599 155.98 10.9799 155.98 10.2099C155.98 9.22987 155.78 9.04987 154.88 9.39987C154.57 9.51987 154.25 9.93987 154.17 10.2699C154.06 10.7899 154.15 11.3499 154.21 12.0399Z" fill="white"/>
<path d="M51.0099 44.5898C50.6399 45.6798 50.2999 46.7098 49.9799 47.6998C49.1299 47.9498 48.6999 47.6798 48.3699 46.8898C46.0799 41.4798 43.7799 36.0598 41.3499 30.7098C40.8799 29.6798 40.9299 28.9098 41.2399 27.9498C42.0899 25.3798 42.8699 22.7798 43.6699 20.2298C44.4999 19.9298 44.8199 20.2898 45.1099 20.9998C47.4399 26.7898 49.7799 32.5698 52.2199 38.3198C52.5899 39.1998 52.5999 39.8998 52.2899 40.7398C51.8299 41.9798 51.4599 43.2598 51.0199 44.5898H51.0099Z" fill="white"/>
<path d="M4.71994 1.37978C7.32994 1.05978 9.86994 0.979784 12.3699 1.57978C14.3799 2.05978 15.3299 3.55978 14.9399 5.52978H9.29994C9.27994 5.16978 9.26995 4.83978 9.24994 4.51978C9.21994 3.84978 8.90995 3.44978 8.20995 3.37978C7.50995 3.30978 7.14995 3.63978 6.97995 4.29978C6.69994 5.38978 7.18994 6.15978 8.43994 6.46978C9.45994 6.72978 10.4999 6.92978 11.5099 7.22978C12.2899 7.45978 13.0399 7.78978 13.7899 8.09978C14.7699 8.50978 15.2099 9.31978 15.2299 10.3198C15.2499 11.0998 15.2399 11.8998 15.0499 12.6498C14.6499 14.1898 13.3399 14.7198 11.9699 14.9798C8.96994 15.5698 5.95995 15.5098 2.97995 14.8198C1.13995 14.3898 0.139945 12.8498 0.459945 11.0798H6.45995C6.47995 11.4498 6.48994 11.7798 6.51995 12.0998C6.59995 12.8998 7.13995 13.1898 7.83995 13.1598C8.52995 13.1398 8.81994 12.6698 8.85994 11.9998C8.91994 10.8098 8.43995 10.2398 7.15995 9.94978C5.92994 9.66978 4.69995 9.35978 3.47995 9.01978C0.429945 8.16978 0.559945 6.84978 0.749945 4.27978C0.849945 2.87978 1.85995 2.18978 3.06995 1.76978C3.57995 1.58978 4.11995 1.50978 4.72995 1.36978L4.71994 1.37978Z" fill="white"/>
<path d="M198.51 10.6599C198.51 11.8899 198.51 13.0399 198.51 14.2299C198.22 14.2599 198.01 14.2999 197.81 14.2999C195.08 14.2999 192.35 14.3599 189.63 14.2599C188.77 14.2299 187.89 13.8399 187.08 13.4899C186.28 13.1499 185.97 12.3999 185.97 11.5599C185.96 9.85986 185.94 8.16986 185.97 6.46986C185.99 4.99986 187.29 3.87986 189.08 3.73986C190.43 3.63986 191.78 3.55986 193.24 3.45986C193.24 2.72986 193.25 2.00986 193.24 1.28986C193.24 0.859863 193.33 0.609863 193.84 0.609863C195.35 0.629863 196.86 0.609863 198.53 0.609863V10.6299M191.26 10.7199C191.26 12.5699 191.51 12.8299 193.02 12.5499V5.45986C191.59 5.25986 191.26 5.54986 191.26 6.90986C191.26 8.11986 191.26 9.32986 191.26 10.7199Z" fill="white"/>
<path d="M16.9999 16.54C16.9399 12.34 16.9399 8.19996 16.9399 4.06996C17.0699 4.01996 17.1499 3.95996 17.2299 3.95996C20.3399 4.00996 23.4599 3.99996 26.5699 4.12996C28.6099 4.20996 29.4399 5.21996 29.4399 7.25996C29.4399 8.46996 29.3899 9.68996 29.4499 10.89C29.5799 13.27 28.8199 14.29 25.7799 14.65C24.6199 14.79 23.4499 14.82 22.2099 14.9C22.1799 15.45 22.1499 15.98 22.1099 16.6C20.4099 16.6 18.7299 16.6 16.9899 16.54M22.1799 6.10996C22.1799 8.16996 22.1799 10.23 22.1799 12.29C22.1799 13.13 22.5099 13.36 23.3099 13.14C24.0599 12.94 24.2799 12.36 24.3099 11.69C24.3399 10.93 24.3199 10.18 24.3099 9.41996C24.3099 8.53996 24.3799 7.64996 24.2699 6.78996C24.2199 6.38996 23.8699 5.83996 23.5299 5.70996C23.1699 5.56996 22.6399 5.84996 22.1699 6.10996H22.1799Z" fill="white"/>
<path d="M66.9398 33.9299C66.9198 31.0599 66.9198 28.1899 66.8798 25.3099C66.8698 24.5299 66.7998 23.7399 66.6798 22.9599C66.4198 21.3299 65.7498 20.6599 64.1398 20.3399C63.9498 20.2999 63.7598 20.2599 63.5898 20.1099H78.3398C78.2898 20.1999 78.2698 20.2799 78.2298 20.2899C76.0098 20.6699 75.4598 21.1199 75.2398 23.3299C75.0498 25.2799 75.0998 27.2499 75.0698 29.2199C75.0498 30.7299 75.0698 32.2399 74.9598 33.8399C72.2198 33.9199 69.5798 33.9199 66.9398 33.9199V33.9299Z" fill="white"/>
<path d="M66.9201 34.0102C69.5801 33.9302 72.2201 33.9302 74.9401 33.9302C75.0401 36.7802 75.0301 39.6202 75.0801 42.4702C75.0901 43.3402 75.2101 44.2202 75.3601 45.0802C75.6001 46.3902 76.3901 47.1602 77.7601 47.2702C77.9501 47.2902 78.1401 47.3502 78.3001 47.5302H63.5601C63.6101 47.4602 63.6301 47.3802 63.6701 47.3802C65.8001 47.0802 66.5601 46.4602 66.6901 44.3502C66.8701 41.4502 66.8401 38.5402 66.8901 35.6402C66.8901 35.1302 66.8901 34.6102 66.9101 34.0102H66.9201Z" fill="white"/>
<path d="M109.98 8.29009C109.98 9.26009 109.98 10.1401 109.98 11.0101C109.98 12.3901 110.26 12.6101 111.79 12.3601V3.81009H117.18V14.2201C117 14.2401 116.83 14.2801 116.66 14.2801C114.09 14.2801 111.51 14.3001 108.94 14.2801C108.28 14.2801 107.61 14.2001 106.96 14.0701C105.48 13.7801 104.69 12.7801 104.69 11.2701C104.69 9.03009 104.71 6.79009 104.68 4.55009C104.68 3.94009 104.83 3.69009 105.49 3.71009C106.94 3.75009 108.39 3.72009 109.98 3.72009V8.29009Z" fill="white"/>
<path d="M171.62 9.74017C171.67 8.51017 171.71 7.36017 171.79 6.22017C171.85 5.32017 172.36 4.73017 173.15 4.33017C175.27 3.26017 177.53 3.24017 179.79 3.50017C180.82 3.62017 181.84 3.98017 182.81 4.37017C183.81 4.76017 184.22 5.69017 184.31 6.69017C184.39 7.53017 184.33 8.38017 184.33 9.35017H177.05C177.05 10.2802 176.99 11.0902 177.08 11.8902C177.11 12.1702 177.46 12.5702 177.73 12.6402C178.17 12.7602 178.76 12.8002 178.89 12.1302C179.01 11.5202 179.05 10.8802 179.13 10.1902H184.23C184.56 11.9702 183.88 13.2902 182.23 13.9102C181.45 14.2002 180.6 14.3802 179.77 14.4402C178.57 14.5302 177.35 14.5202 176.14 14.4602C173.45 14.3302 171.29 13.2902 171.61 9.73017M178.04 5.01017C177 5.18017 176.73 6.01017 177.21 7.48017H179.07C178.91 6.54017 179.46 5.48017 178.03 5.01017H178.04Z" fill="white"/>
<path d="M33.3498 4.3502C36.0298 3.4602 38.6598 3.5702 41.2598 4.2902C43.2098 4.8302 43.9698 5.9502 43.9798 7.9502C43.9798 8.9502 43.9798 9.9502 43.9798 10.9502C43.9798 12.6602 43.2998 13.6802 41.6798 14.2402C39.8498 14.8702 37.9498 14.9602 36.0498 14.7602C35.2198 14.6702 34.3698 14.5302 33.5698 14.2902C32.1798 13.8802 31.2198 13.0002 31.1598 11.4702C31.0998 9.9602 31.0698 8.4502 31.1598 6.9402C31.2398 5.6202 32.1298 4.8502 33.3598 4.3502M36.5198 10.0202C36.5198 10.6502 36.5098 11.2902 36.5198 11.9202C36.5198 12.5402 36.5498 13.1702 37.4198 13.2002C38.2698 13.2302 38.6498 12.7202 38.6698 11.9702C38.7098 10.2202 38.7098 8.4702 38.6698 6.7202C38.6598 6.0102 38.3298 5.5202 37.4998 5.5302C36.6598 5.5402 36.5298 6.1002 36.5298 6.7502C36.5298 7.7802 36.5298 8.8002 36.5298 10.0102L36.5198 10.0202Z" fill="white"/>
<path d="M69.8698 5.82009C69.5698 7.00009 69.8098 7.45009 70.8898 7.78009C72.1598 8.16009 73.4598 8.46009 74.7198 8.88009C75.6498 9.20009 76.6598 9.54009 76.7298 10.8001C76.8398 12.8501 76.4598 13.6801 74.9498 14.2601C74.1498 14.5701 73.2598 14.8001 72.4098 14.8201C70.7198 14.8601 69.0298 14.7501 67.3498 14.6601C66.9098 14.6301 66.4598 14.4601 66.0498 14.2901C64.8098 13.7801 64.4398 13.1101 64.5898 11.6501H69.5598C69.6098 11.8001 69.6998 11.9701 69.7198 12.1401C69.7898 12.7601 70.0698 13.2301 70.7398 13.1501C71.0498 13.1101 71.5098 12.8101 71.5798 12.5401C71.7598 11.9201 71.7198 11.2201 70.9698 10.9301C70.3298 10.6801 69.6398 10.5401 68.9898 10.3001C67.8598 9.90009 66.7098 9.53009 65.6298 9.02009C64.4798 8.48009 64.4298 7.39009 64.5098 6.28009C64.5798 5.33009 65.2098 4.82009 65.9798 4.49009C68.1398 3.57009 70.4098 3.61009 72.6698 3.85009C73.5798 3.95009 74.4898 4.26009 75.3398 4.62009C76.2698 5.02009 76.6198 5.84009 76.4598 6.99009C74.9898 6.99009 73.5198 7.01009 72.0498 6.96009C71.8998 6.96009 71.6898 6.61009 71.6398 6.39009C71.3698 5.32009 70.7898 5.09009 69.8698 5.81009V5.82009Z" fill="white"/>
<path d="M128.67 8.4901C128.88 8.5601 129.03 8.6001 129.17 8.6601C130.77 9.2301 131.24 9.7601 131.24 11.0301C131.24 12.7401 130.68 13.6501 129.12 14.1201C126.3 14.9701 123.46 14.9501 120.64 14.1201C119.32 13.7201 118.79 12.7901 118.98 11.4401H123.93C124.18 11.9201 124.31 12.5401 124.66 12.7201C124.98 12.8801 125.73 12.7001 125.95 12.4101C126.35 11.9001 126.24 11.1901 125.59 10.8601C124.95 10.5301 124.23 10.3701 123.56 10.1201C122.35 9.6601 121.07 9.3101 119.96 8.6901C118.3 7.7601 118.4 5.3301 120.1 4.4501C120.84 4.0701 121.68 3.8001 122.5 3.7001C124.63 3.4601 126.79 3.3101 128.89 3.9801C130.54 4.5001 131 5.2001 130.79 6.6901C129.4 6.6901 127.99 6.7201 126.58 6.6601C126.39 6.6601 126.22 6.2201 126.02 5.9901C125.74 5.6801 125.5 5.2601 125.14 5.1201C124.94 5.0401 124.35 5.3901 124.3 5.6201C124.21 6.0701 124.22 6.6901 124.47 7.0301C124.74 7.3901 125.32 7.5601 125.8 7.7101C126.72 8.0001 127.66 8.2301 128.66 8.5001L128.67 8.4901Z" fill="white"/>
<path d="M81.7798 8.84C81.7798 5.85 81.7798 2.95 81.7798 0H87.5598V14.39H81.7798C81.7798 12.54 81.7798 10.74 81.7798 8.84Z" fill="white"/>
<path d="M57.0898 2.29985C58.0598 2.29985 58.9398 2.34985 59.8098 2.27985C60.6598 2.20985 60.9898 2.52985 60.8798 3.35985C60.8598 3.49985 60.9098 3.64985 60.9398 3.87985C61.5498 3.90985 62.1398 3.93985 62.7998 3.96985V6.79985C62.1798 6.82985 61.5898 6.85985 60.8898 6.89985C60.8898 8.35985 60.8298 9.77985 60.9398 11.1798C60.9598 11.5098 61.5198 11.8498 61.8998 12.0698C62.1298 12.2098 62.4798 12.1398 62.8298 12.1598V14.7598C60.9198 14.6398 59.0298 14.6198 57.1698 14.3698C56.1598 14.2398 55.6398 13.3498 55.6198 12.2898C55.5598 9.47985 55.5098 6.66985 55.4698 3.86985C55.4498 2.11985 55.3198 2.30985 57.0998 2.29985H57.0898Z" fill="white"/>
<path d="M169.32 11.7401C169.9 11.6901 170.21 11.8201 170.16 12.4201C170.12 12.9901 170.16 13.5601 170.16 14.2901C168.19 14.2401 166.25 14.5601 164.38 13.9901C163.57 13.7401 162.9 13.1101 162.9 12.1301C162.88 8.86006 162.88 5.60006 162.88 2.33006C162.88 2.24006 162.92 2.16006 162.98 1.94006C164.51 1.94006 166.07 1.92006 167.63 1.96006C167.8 1.96006 168.06 2.26006 168.11 2.46006C168.19 2.76006 168.13 3.11006 168.13 3.51006C168.81 3.54006 169.4 3.57006 170.07 3.60006V6.43006C169.45 6.46006 168.86 6.49006 168.16 6.52006C168.16 7.98006 168.09 9.40006 168.21 10.8001C168.24 11.1301 168.88 11.4201 169.32 11.7301V11.7401Z" fill="white"/>
<path d="M138.17 6.90002C138.17 8.01002 138.17 9.04002 138.17 10.07C138.17 11.4 138.41 11.65 139.71 11.75C139.83 11.75 139.94 11.79 140.1 11.82V14.39C138.22 14.28 136.35 14.3 134.53 14.02C133.65 13.89 132.92 13.11 132.91 12.07C132.88 8.75002 132.9 5.42002 132.9 2.02002H138.1C138.14 2.50002 138.17 2.97002 138.21 3.52002C138.83 3.55002 139.42 3.58002 140.09 3.61002V6.30002C139.42 6.48002 138.8 6.65002 138.18 6.91002L138.17 6.90002Z" fill="white"/>
<path d="M49.42 14.6702C48.07 14.6702 46.81 14.6702 45.5 14.6702V3.95016C47.15 3.95016 48.77 3.93016 50.39 3.97016C50.55 3.97016 50.78 4.29016 50.84 4.50016C50.92 4.78016 50.86 5.09016 50.86 5.56016C51.78 4.81016 52.52 3.98016 53.75 3.91016V6.91016C53.18 7.01016 52.63 7.03016 52.14 7.20016C51.34 7.48016 50.86 8.04016 50.87 8.97016C50.9 10.8102 50.87 12.6502 50.87 14.6702C50.37 14.6702 49.94 14.6702 49.41 14.6702H49.42Z" fill="white"/>
<path d="M91.8 14.4598C91.17 14.4598 90.64 14.4598 90.04 14.4598V2.00977H94.99V14.4698C93.98 14.4698 92.93 14.4698 91.8 14.4698V14.4598Z" fill="white"/>
<path d="M102.52 8.83977V14.4198H97.5V2.00977H102.52V8.82977V8.83977Z" fill="white"/>
<path d="M135.38 47.2598C133.5 46.4598 131.94 45.3598 130.8 43.7198C130.13 42.7598 129.87 41.6998 130.16 40.5398C130.47 39.3098 131.52 38.7098 132.82 38.9998C133.9 39.2398 134.69 40.4598 134.38 41.5798C134.21 42.2098 133.86 42.7898 133.58 43.3898C133.05 44.4798 133.09 45.0998 134.03 45.8698C134.81 46.5098 135.72 46.9898 136.78 47.6698C136.2 47.4998 135.82 47.3898 135.37 47.2598H135.38Z" fill="white"/>
<path d="M3.37015 43.6002C2.91015 44.6202 3.21015 45.4102 3.99015 45.9802C4.76015 46.5402 5.60015 47.0002 6.45015 47.5302C6.31015 47.5302 6.15015 47.5902 6.02015 47.5402C3.83015 46.7702 1.87015 45.6202 0.650152 43.5902C0.200152 42.8402 0.060152 41.8402 0.000152021 40.9402C-0.059848 40.1202 0.420152 39.3902 1.24015 39.1002C2.10015 38.8002 2.98015 38.8302 3.68015 39.5602C4.31015 40.2302 4.54015 41.0202 4.19015 41.9002C3.97015 42.4602 3.67015 42.9902 3.37015 43.5902V43.6002Z" fill="white"/>
<path d="M147.09 27.5501C146.31 26.6701 146.21 25.6801 146.75 24.8101C148.21 22.4601 147.45 21.4801 144.93 20.4001C144.8 20.3401 144.68 20.2901 144.54 20.2301C144.6 20.1601 144.63 20.0801 144.66 20.0801C147.25 20.3701 150.23 22.7301 150.79 24.9401C151.09 26.1301 150.73 27.3301 149.91 27.8701C149.12 28.3901 148.11 28.2901 147.08 27.5601L147.09 27.5501Z" fill="white"/>
<path d="M20.4601 24.2198C20.5801 24.9298 20.7701 25.5998 20.7201 26.2398C20.6101 27.6398 19.4601 28.4098 18.0801 28.1298C16.7801 27.8698 16.0301 26.5998 16.4501 25.2898C16.6201 24.7498 16.9101 24.2398 17.1401 23.7198C17.6001 22.6298 17.4301 21.9998 16.4601 21.2998C16.1401 21.0698 15.8101 20.8598 15.4701 20.6698C15.1301 20.4898 14.7701 20.3698 14.3701 20.1998C16.1101 19.9298 19.4501 22.1298 20.4601 24.2098V24.2198Z" fill="white"/>
<path d="M56.2299 27.9202C56.3899 26.4002 56.6899 24.8802 56.6699 23.3602C56.6499 21.9002 56.0399 20.6202 54.3999 20.1602H62.7799C62.7399 20.2402 62.7199 20.3602 62.6699 20.3702C60.1099 21.0702 58.6799 22.9502 57.6299 25.2102C57.2399 26.0502 56.9299 26.9402 56.4799 27.8602C56.3299 27.9202 56.2899 27.9202 56.2399 27.9202H56.2299Z" fill="white"/>
<path d="M56.1902 27.9699C56.2702 27.9199 56.3202 27.9199 56.4402 27.9199C55.8402 29.9699 55.1602 32.0099 54.4902 34.0599L54.2202 33.9799C54.8702 31.9899 55.5102 30.0099 56.2002 27.9699H56.1902Z" fill="white"/>
<path d="M11.5398 47.9302C11.5998 48.0102 11.6098 48.0602 11.6598 48.1502C10.7898 48.1902 9.9198 48.1902 9.0498 48.1902C9.0498 48.1002 9.0498 48.0002 9.0498 47.9102C9.8498 47.9102 10.6498 47.9102 11.5398 47.9302Z" fill="white"/>
<path d="M141.55 47.9399C141.64 48.0199 141.66 48.0699 141.67 48.1699C140.81 48.2099 139.97 48.2099 139.12 48.2099C139.12 48.1099 139.12 48.0199 139.12 47.9199C139.9 47.9199 140.68 47.9199 141.55 47.9399Z" fill="white"/>
<path d="M173.23 44.6401C173.22 44.7301 173.17 44.8001 173.13 44.8701C173.11 44.8001 173.08 44.7301 173.1 44.6101C173.14 44.5601 173.21 44.6101 173.24 44.6401H173.23Z" fill="white"/>
</g>
<defs>
<clipPath id="clip0_29497_8133">
<rect width="219.24" height="48.32" fill="white"/>
</clipPath>
</defs>
</svg>
