<?xml version="1.0" encoding="utf-8"?>
<!-- Generator: Adobe Illustrator 26.0.2, SVG Export Plug-In . SVG Version: 6.00 Build 0)  -->
<svg version="1.0" id="Layer_1" xmlns="http://www.w3.org/2000/svg" xmlns:xlink="http://www.w3.org/1999/xlink" x="0px" y="0px"
	 viewBox="0 0 60 60" enable-background="new 0 0 60 60" xml:space="preserve">
<g>
	<path fill="#FFFFFF" d="M21.5,37.5c-0.1-0.5-0.7-0.9-1.2-0.8c-0.5,0.1-0.9,0.7-0.8,1.2l0.2,1.1l-4.6-2.6c-0.3-0.2-0.7-0.2-1,0
		L9.5,39l1.1-5.1c0.1-0.3,0-0.7-0.3-1l-4-3.7l5.3-0.4c0.4,0,0.7-0.3,0.9-0.6l2.1-5.1l2.1,5.1c0.2,0.4,0.5,0.6,0.9,0.6
		c0.1,0,0.3,0,0.4-0.1c0.5-0.2,0.7-0.8,0.5-1.3l-3.1-7.2c0,0,0-0.1-0.1-0.1c0-0.1-0.1-0.2-0.2-0.2c0,0-0.1-0.1-0.2-0.1
		c-0.1,0-0.1-0.1-0.1-0.1c0,0,0,0,0,0c-0.1,0-0.2,0-0.2,0c0,0-0.1,0-0.1,0c0,0-0.1,0-0.1,0c-0.1,0-0.2,0-0.2,0c0,0,0,0,0,0
		c-0.1,0-0.1,0.1-0.1,0.1c-0.1,0-0.1,0.1-0.2,0.1c-0.1,0.1-0.1,0.1-0.1,0.2c0,0-0.1,0.1-0.1,0.1l-2.8,6.7l-7,0.5
		c-0.4,0-0.7,0.3-0.9,0.7c-0.1,0.4,0,0.8,0.3,1.1l5.3,4.9l-1.5,6.7c-0.1,0.4,0.1,0.8,0.4,1c0.2,0.1,0.4,0.2,0.6,0.2
		c0.2,0,0.3,0,0.5-0.1l6.1-3.4l6.1,3.4c0.3,0.2,0.8,0.2,1.1-0.1c0.3-0.2,0.5-0.6,0.4-1L21.5,37.5z"/>
	<path fill="#FFFFFF" d="M56.9,28.1c-0.1-0.4-0.5-0.6-0.9-0.7l-7-0.5l-2.8-6.7c0,0,0-0.1-0.1-0.1c0-0.1-0.1-0.2-0.2-0.2
		c0,0-0.1-0.1-0.2-0.1c-0.1,0-0.1-0.1-0.1-0.1c0,0,0,0,0,0c-0.1,0-0.2,0-0.2,0c0,0-0.1,0-0.1,0c0,0-0.1,0-0.1,0c-0.1,0-0.2,0-0.2,0
		c0,0,0,0,0,0c-0.1,0-0.1,0.1-0.1,0.1c-0.1,0-0.1,0.1-0.2,0.1c-0.1,0.1-0.1,0.1-0.2,0.2c0,0-0.1,0.1-0.1,0.1l-2,4.8
		c-0.2,0.5,0,1.1,0.5,1.3c0.1,0.1,0.3,0.1,0.4,0.1c0.4,0,0.8-0.2,0.9-0.6l1.1-2.6l2.1,5.1c0.1,0.3,0.5,0.6,0.9,0.6l5.3,0.4l-4,3.7
		c-0.3,0.2-0.4,0.6-0.3,1l1.1,5.1l-4.6-2.6c-0.3-0.2-0.7-0.2-1,0L40.2,39l1.1-5.1c0.1-0.5-0.2-1.1-0.8-1.2c-0.5-0.1-1.1,0.2-1.2,0.8
		l-1.6,7.2c-0.1,0.4,0.1,0.8,0.4,1c0.3,0.2,0.7,0.3,1.1,0.1l6.1-3.4l6.1,3.4c0.2,0.1,0.3,0.1,0.5,0.1c0.2,0,0.4-0.1,0.6-0.2
		c0.3-0.2,0.5-0.6,0.4-1l-1.5-6.7l5.3-4.9C57,28.9,57.1,28.4,56.9,28.1z"/>
	<path fill="#FFFFFF" d="M40.4,25.4c-0.2-0.3-0.6-0.5-1-0.5l-7,1l2.3-12.5c0.1-0.5-0.2-0.9-0.6-1.1c-0.4-0.2-0.9,0-1.2,0.4L19,33.5
		c-0.2,0.3-0.2,0.8,0,1.1c0.2,0.3,0.6,0.5,1,0.5l7-1l-2.3,12.5c-0.1,0.5,0.2,0.9,0.6,1.1c0.1,0,0.2,0.1,0.4,0.1
		c0.3,0,0.6-0.2,0.8-0.4l13.8-20.8C40.7,26.2,40.7,25.8,40.4,25.4z M27.6,42.2l1.7-9.1c0.1-0.3,0-0.6-0.3-0.9
		c-0.2-0.2-0.5-0.3-0.7-0.3c0,0-0.1,0-0.1,0l-6.2,0.9l9.9-14.9L30.2,27c-0.1,0.3,0,0.6,0.3,0.9c0.2,0.2,0.5,0.3,0.9,0.3l6.2-0.9
		L27.6,42.2z"/>
</g>
</svg>
