<?xml version="1.0" encoding="utf-8"?>
<!-- Generator: Adobe Illustrator 26.0.3, SVG Export Plug-In . SVG Version: 6.00 Build 0)  -->
<svg version="1.0" id="Layer_1" xmlns="http://www.w3.org/2000/svg" xmlns:xlink="http://www.w3.org/1999/xlink" x="0px" y="0px"
	 viewBox="0 0 60 60" enable-background="new 0 0 60 60" xml:space="preserve">
<g>
	<path fill="#FFFFFF" d="M56.7,15.9c-7.4,3.7-12.1,4.4-15.9,4.9c-5.5,0.8-9,1.3-14.4,9.7c-0.2-0.5-0.4-1-0.6-1.5l-0.6-1l-0.9,0.7
		C17.2,34,12.3,41,10,48.8l1.9,0.6C14,42.3,18.3,36,24.4,31c0.5,1.6,0.5,3.5,0.5,4.2h2c0-0.4,0-1.1-0.1-1.9
		c5.7-9.3,8.7-9.7,14.2-10.5c3.7-0.5,8.2-1.2,15-4.4C56,24.7,55.2,30.2,50.3,36c-1.7-0.1-3.7,0.2-5,0.6l0.6,1.9
		c1.4-0.5,3.4-0.7,4.8-0.5l0.3,0.2c0.1-0.1,0.1-0.1,0.2-0.2c0.1,0,0.1,0,0.2,0c-1.3,2.2-7.5,8.4-16.6,12c-0.8-0.5-1.6-0.9-2.5-1.3
		l-0.8,1.8c1.1,0.5,2.1,1,3,1.6l0,0c0,0,0,0,0,0c0.1,0,0.1,0.1,0.2,0.1c-3.9,2-11.1,3.7-18.7,1.5l-0.6,1.9c2.8,0.8,5.5,1.2,8.1,1.2
		c6.3,0,11.3-2.1,13.5-3.6l1.1-0.7l-1-0.9c-0.1-0.1-0.3-0.2-0.4-0.3c9.7-4.2,16.9-11.5,16.9-13.9l0-0.5l-0.5-0.3
		c-0.2-0.1-0.4-0.2-0.6-0.3c5.2-6.4,5.6-12.7,5.6-19.6v-1.6L56.7,15.9z"/>
	<path fill="#FFFFFF" d="M41.4,29.9C34.2,37.1,16.8,51.6,2.7,55L3.1,57c14.6-3.5,32.4-18.3,39.7-25.6L41.4,29.9z"/>
	<path fill="#FFFFFF" d="M54.2,43.9c1.5,1.9,1.3,4.6-0.6,6.2c-0.9,0.7-2,1.1-3.2,1c-1.2-0.1-2.2-0.7-2.9-1.6l-1.5,1.3
		c1.1,1.3,2.6,2.1,4.3,2.3c0.2,0,0.4,0,0.6,0c1.5,0,2.9-0.5,4-1.5c2.7-2.2,3.1-6.3,0.8-9L54.2,43.9z"/>
	<path fill="#FFFFFF" d="M27.3,23.3c-1-1.6-0.5-3.9,1.1-4.9c0.8-0.5,1.7-0.7,2.7-0.5c0.9,0.2,1.7,0.7,2.2,1.5l1.7-1.1
		c-0.8-1.2-2-2.1-3.4-2.4c-1.4-0.3-2.9,0-4.2,0.8c-2.5,1.7-3.3,5.1-1.7,7.7L27.3,23.3z"/>
	<path fill="#FFFFFF" d="M45,12.3c2.5,0,4.6-2.1,4.6-4.6S47.5,3,45,3s-4.6,2.1-4.6,4.6S42.4,12.3,45,12.3z M45,5
		c1.4,0,2.6,1.2,2.6,2.6s-1.2,2.6-2.6,2.6s-2.6-1.2-2.6-2.6S43.5,5,45,5z"/>
</g>
</svg>
