<?xml version="1.0" encoding="utf-8"?>
<!-- Generator: Adobe Illustrator 26.0.3, SVG Export Plug-In . SVG Version: 6.00 Build 0)  -->
<svg version="1.0" id="Layer_1" xmlns="http://www.w3.org/2000/svg" xmlns:xlink="http://www.w3.org/1999/xlink" x="0px" y="0px"
	 viewBox="0 0 60 60" enable-background="new 0 0 60 60" xml:space="preserve">
<g>
	<path fill="#FFFFFF" d="M44,15.8c-5.1,0-8.8,2.3-8.8,5.5c0,1.2,0.6,2.5,1.6,3.4c1.5,1.3,3.7,2.1,6.2,2.1c0.4,0,0.7,0,1.1,0
		c2.8-0.2,4.2-2.1,4.1-3.7c-0.1-1.4-1.2-2.8-3.7-2.8c-0.6,0-1,0.4-1,1s0.4,1,1,1c1,0,1.6,0.4,1.7,0.9c0,0.6-0.7,1.5-2.3,1.6
		c-2.4,0.2-4.5-0.4-5.7-1.5c-0.6-0.6-1-1.3-1-2c0-1.7,2.5-3.5,6.8-3.5c5.2,0,10.8,1.5,10.8,5.7v1.1c0,2.2-4,4.6-11.3,4.6
		c-4.5,0-8.1-1.4-11.5-2.9c-3.3-1.4-6.8-2.8-10.9-2.8c-8.2,0-16.8,3.3-17.2,3.4l-0.6,0.2v24.6l1.4-0.5c0.1,0,8.6-3.3,16.5-3.3
		c3.8,0,6.9,1.3,10.2,2.6c3.6,1.5,7.4,3,12.3,3c7.9,0,13.3-2.7,13.3-6.6V24.6v-1.1C56.8,18.7,51.9,15.8,44,15.8z M54.8,47.1
		c0,1.7-2.4,3.6-7,4.3v-7.6h-2v7.9h0.4c-0.9,0.1-1.8,0.1-2.7,0.1c-2.7,0-5-0.5-7.2-1.2h0.4v-9h-2v8.4c-0.9-0.3-1.8-0.7-2.7-1
		c-2.1-0.9-4.2-1.7-6.6-2.2v-8.5h-2v8.1c-0.8-0.1-1.5-0.2-2.4-0.2c-2.3,0-4.7,0.3-6.9,0.6v-8.6h-2v9h0.1c-3,0.6-5.6,1.4-7.1,1.9
		V28.7c2.1-0.8,9.2-3.1,15.8-3.1c3.8,0,6.9,1.3,10.2,2.6c3.6,1.5,7.4,3,12.3,3c5,0,9.1-1.1,11.3-2.9V47.1z"/>
	<polygon fill="#FFFFFF" points="26.8,16.8 28.8,16.8 28.8,13.1 32.6,13.1 32.6,11.1 28.8,11.1 28.8,7.3 26.8,7.3 26.8,11.1 
		23.1,11.1 23.1,13.1 26.8,13.1 	"/>
	<rect x="36.7" y="6.3" fill="#FFFFFF" width="3.2" height="2"/>
</g>
</svg>
