<?xml version="1.0" encoding="utf-8"?>
<!-- Generator: Adobe Illustrator 25.0.0, SVG Export Plug-In . SVG Version: 6.00 Build 0)  -->
<svg version="1.1" id="Layer_1" xmlns="http://www.w3.org/2000/svg" xmlns:xlink="http://www.w3.org/1999/xlink" x="0px" y="0px"
	 viewBox="0 0 60 60" style="enable-background:new 0 0 60 60;" xml:space="preserve">
<style type="text/css">
	.st0{fill:#FFFFFF;}
</style>
<g>
	<path class="st0" d="M49.4,25.3c-0.1-0.5-0.7-0.9-1.2-0.8c-0.5,0.1-0.9,0.6-0.8,1.2c0.3,1.5,0.5,2.9,0.5,4.3
		c0,9.9-8,17.9-17.9,17.9s-17.9-8-17.9-17.9s8-17.9,17.9-17.9c3.5,0,7,1,9.9,3c0.5,0.3,1.1,0.2,1.4-0.3c0.3-0.5,0.2-1.1-0.3-1.4
		c-3.3-2.2-7.1-3.4-11.1-3.4C19,10.1,10.1,19,10.1,30S19,49.9,30,49.9S49.9,41,49.9,30C49.9,28.5,49.7,26.9,49.4,25.3z"/>
	<path class="st0" d="M28.7,23.5c0.5-0.3,0.6-0.9,0.3-1.4c-0.3-0.5-0.9-0.6-1.4-0.3c-3.3,2.2-5.2,6-4.8,10c0.3,4,2.7,7.4,6.3,9.1
		c0.1,0.1,0.3,0.1,0.4,0.1c0.4,0,0.7-0.2,0.9-0.6c0.2-0.5,0-1.1-0.5-1.3c-3-1.4-4.9-4.1-5.1-7.5C24.5,28.4,26.1,25.3,28.7,23.5z"/>
	<path class="st0" d="M31.3,36.6c-0.5,0.3-0.6,0.9-0.3,1.4c0.2,0.3,0.5,0.4,0.8,0.4c0.2,0,0.4-0.1,0.6-0.2c3.3-2.3,5.1-6.1,4.8-10
		c-0.3-3.9-2.7-7.4-6.3-9.1c-0.5-0.2-1.1,0-1.3,0.5c-0.2,0.5,0,1.1,0.5,1.3c2.9,1.4,4.9,4.3,5.1,7.5C35.6,31.6,34,34.7,31.3,36.6z"
		/>
	<path class="st0" d="M39.1,20.2c-0.6,0-1,0.4-1,1s0.4,1,1,1h3.1v3.1c0,0.6,0.4,1,1,1s1-0.4,1-1v-3.1h3.1c0.6,0,1-0.4,1-1
		s-0.4-1-1-1h-3.1v-3.1c0-0.6-0.4-1-1-1s-1,0.4-1,1v3.1H39.1z"/>
</g>
</svg>
