<?xml version="1.0" encoding="utf-8"?>
<!-- Generator: Adobe Illustrator 26.0.3, SVG Export Plug-In . SVG Version: 6.00 Build 0)  -->
<svg version="1.0" id="Layer_1" xmlns="http://www.w3.org/2000/svg" xmlns:xlink="http://www.w3.org/1999/xlink" x="0px" y="0px"
	 viewBox="0 0 60 60" enable-background="new 0 0 60 60" xml:space="preserve">
<g>
	<rect x="21.7" y="3" fill="#FFFFFF" width="16.5" height="2"/>
	<rect x="21.7" y="55" fill="#FFFFFF" width="16.5" height="2"/>
	<polygon fill="#FFFFFF" points="43.1,25.8 46.3,29 31,29 31,13.7 34.2,16.9 35.6,15.5 30,9.8 24.4,15.5 25.8,16.9 29,13.7 29,29 
		13.7,29 16.9,25.8 15.5,24.4 9.8,30 15.5,35.6 16.9,34.2 13.7,31 29,31 29,46.3 25.8,43.1 24.4,44.5 30,50.2 35.6,44.5 34.2,43.1 
		31,46.3 31,31 46.3,31 43.1,34.2 44.5,35.6 50.2,30 44.5,24.4 	"/>
	<rect x="55" y="21.7" fill="#FFFFFF" width="2" height="16.5"/>
	<rect x="3" y="21.7" fill="#FFFFFF" width="2" height="16.5"/>
</g>
</svg>
