<?xml version="1.0" encoding="utf-8"?>
<!-- Generator: Adobe Illustrator 26.0.2, SVG Export Plug-In . SVG Version: 6.00 Build 0)  -->
<svg version="1.0" id="Layer_1" xmlns="http://www.w3.org/2000/svg" xmlns:xlink="http://www.w3.org/1999/xlink" x="0px" y="0px"
	 viewBox="0 0 60 60" enable-background="new 0 0 60 60" xml:space="preserve">
<g>
	<path fill="#FFFFFF" d="M55.2,16.4c-7.1,3.5-11.6,4.2-15.2,4.7c-5.3,0.8-8.6,1.3-13.8,9.2c-0.2-0.5-0.3-0.9-0.6-1.4l-0.6-1L24,28.7
		C17.3,33.8,12.6,40.5,10.4,48l1.9,0.6c2-6.7,6.1-12.7,11.9-17.5c0.5,1.5,0.5,3.3,0.5,3.9h2c0-0.4,0-1-0.1-1.8
		c5.4-8.9,8.2-9.3,13.6-10.1c3.3-0.5,7.8-1.2,14.4-4.2c-0.1,6-0.8,11.3-5.6,16.7c-1.7-0.1-3.6,0.2-4.8,0.6l0.6,1.9
		c1.4-0.4,3.3-0.7,4.6-0.5l0.2,0.2c0,0,0.1-0.1,0.1-0.1c0,0,0.1,0,0.1,0c-1.3,2.1-7.3,8-15.9,11.4c-0.8-0.5-1.5-0.9-2.4-1.2
		l-0.8,1.8c1.1,0.4,2,1,2.9,1.6l0,0c0,0,0,0,0,0c0,0,0.1,0,0.1,0.1c-3.7,1.9-10.6,3.5-17.9,1.4l-0.6,1.9c2.7,0.8,5.3,1.1,7.7,1.1
		c6,0,10.9-2,13-3.5l1.1-0.7l-1-0.9c-0.1-0.1-0.2-0.2-0.4-0.3c8.8-3.8,16.2-10.7,16.2-13.3l0-0.5l-0.5-0.3c-0.2-0.1-0.3-0.2-0.5-0.3
		c4.9-6.2,5.4-12.2,5.4-18.8v-1.6L55.2,16.4z"/>
	<path fill="#FFFFFF" d="M40.5,29.9C33.6,36.8,17,50.7,3.4,54l0.5,1.9c14-3.4,31-17.6,38.1-24.6L40.5,29.9z"/>
	<path fill="#FFFFFF" d="M52.8,43.4c1.5,1.8,1.2,4.4-0.5,5.9c-0.8,0.7-1.9,1-3,0.9c-1.1-0.1-2.1-0.6-2.8-1.5L44.9,50
		c1,1.3,2.5,2,4.2,2.2c0.2,0,0.4,0,0.6,0c1.4,0,2.8-0.5,3.9-1.4c2.6-2.2,3-6.1,0.8-8.7L52.8,43.4z"/>
	<path fill="#FFFFFF" d="M27.1,23.6c-1-1.6-0.5-3.7,1-4.7c0.8-0.5,1.6-0.7,2.5-0.5c0.8,0.2,1.6,0.7,2,1.4l1.7-1.1
		c-0.8-1.2-1.9-2-3.3-2.3c-1.4-0.3-2.8,0-4,0.8c-2.5,1.6-3.2,5-1.6,7.4L27.1,23.6z"/>
	<path fill="#FFFFFF" d="M44,13.1c2.5,0,4.5-2,4.5-4.5c0-2.5-2-4.5-4.5-4.5s-4.5,2-4.5,4.5C39.5,11,41.5,13.1,44,13.1z M44,6.1
		c1.4,0,2.5,1.1,2.5,2.5s-1.1,2.5-2.5,2.5s-2.5-1.1-2.5-2.5S42.6,6.1,44,6.1z"/>
</g>
</svg>
