<?xml version="1.0" encoding="utf-8"?>
<!-- Generator: Adobe Illustrator 26.2.1, SVG Export Plug-In . SVG Version: 6.00 Build 0)  -->
<svg version="1.0" id="Layer_1" xmlns="http://www.w3.org/2000/svg" xmlns:xlink="http://www.w3.org/1999/xlink" x="0px" y="0px"
	 viewBox="0 0 60 60" enable-background="new 0 0 60 60" xml:space="preserve">
<g>
	<path fill="#FFFFFF" d="M31,45.2v2.2H6.4v-0.8c0-7.9,4.5-10.9,10.8-14.8c5-3.1,10.9-5,10.9-11.3c0-5.1-4.1-7.7-8.4-7.7
		c-5,0-7.6,2.2-11.4,6.8l-1.9-1.4c3.4-4.6,7.3-7.6,13.2-7.6c6.3,0,11.2,3.9,11.2,9.7c0,7.5-6.6,9.8-12.2,13.4
		c-5.4,3.4-9.3,5.7-9.6,11.6H31z"/>
	<path fill="#FFFFFF" d="M52.8,47.4L45,35.8l-7.9,11.6h-2.9l9.2-13.1l-8.5-12.1h2.9L45,32.6l7.1-10.4h2.8l-8.3,12l9.1,13.2H52.8z"/>
</g>
</svg>
