<?xml version="1.0" encoding="utf-8"?>
<!-- Generator: Adobe Illustrator 26.0.3, SVG Export Plug-In . SVG Version: 6.00 Build 0)  -->
<svg version="1.0" id="Layer_1" xmlns="http://www.w3.org/2000/svg" xmlns:xlink="http://www.w3.org/1999/xlink" x="0px" y="0px"
	 viewBox="0 0 60 60" enable-background="new 0 0 60 60" xml:space="preserve">
<g>
	<path fill="#FFFFFF" d="M27.5,12.4l0.1,1.9c3.3-0.2,6.6,1,9,3.2c2.5,2.3,3.9,5.3,4.1,8.7l1.9-0.1c-0.2-3.9-1.9-7.4-4.7-10
		C35.1,13.6,31.4,12.2,27.5,12.4z"/>
	<path fill="#FFFFFF" d="M44.4,9.4C40.3,5.7,35,3.8,29.5,4l0.1,1.9c5-0.3,9.8,1.5,13.6,4.9s5.9,8,6.1,13l1.9-0.1
		C50.9,18.2,48.5,13.1,44.4,9.4z"/>
	<path fill="#FFFFFF" d="M22.2,27.7c-3.3,0-6,2.7-6,6c0,3.3,2.7,6,6,6c3.3,0,6-2.7,6-6C28.2,30.4,25.5,27.7,22.2,27.7z M22.2,37.8
		c-2.2,0-4.1-1.8-4.1-4.1c0-2.2,1.8-4.1,4.1-4.1c2.2,0,4.1,1.8,4.1,4.1C26.3,36,24.5,37.8,22.2,37.8z"/>
	<path fill="#FFFFFF" d="M22.2,20.5c-7.4,0-13.4,6-13.4,13.4v8.7c0,7.4,6,13.4,13.4,13.4c7.4,0,13.4-6,13.4-13.4v-8.7
		C35.6,26.5,29.6,20.5,22.2,20.5z M33.7,42.6c0,6.3-5.1,11.5-11.5,11.5s-11.5-5.1-11.5-11.5v-8.7c0-6.3,5.1-11.5,11.5-11.5
		s11.5,5.1,11.5,11.5V42.6z"/>
</g>
</svg>
