<?xml version="1.0" encoding="utf-8"?>
<!-- Generator: Adobe Illustrator 26.0.2, SVG Export Plug-In . SVG Version: 6.00 Build 0)  -->
<svg version="1.0" id="Layer_1" xmlns="http://www.w3.org/2000/svg" xmlns:xlink="http://www.w3.org/1999/xlink" x="0px" y="0px"
	 viewBox="0 0 60 60" enable-background="new 0 0 60 60" xml:space="preserve">
<path fill="#FFFFFF" d="M40.6,19.8l-0.4,2c3.9,0.9,5.7,2.3,5.7,3.2c0,1.4-3.9,3.3-10.2,3.8c0.1-0.4,0.2-0.8,0.3-1.2
	c0.1-0.5,3.5-12,3.1-20.4l0-0.4l-0.2-0.3C36.5,4,34,2.7,32,3.1l-0.6,0.1l-0.2,0.7c-0.7,2.2-1,3.1-0.8,7c0.1,1,0.2,2.1,0.3,3.1
	c0.2,2.5,0.5,4.9,0,7.2c-0.6,2.4-1.8,4.6-3.7,7.3c-4.6-0.7-7.4-2.3-7.4-3.5c0-0.8,1.6-2.1,4.4-2.6l-0.9,0.9l1.4,1.4l3.5-3.5
	l-3.5-3.5l-1.4,1.4l1.2,1.2c-4,0.5-6.7,2.4-6.7,4.6c0,2.6,3.5,4.4,8.1,5.3c-0.1,0.1-0.2,0.2-0.2,0.3c-2.8,3.7-6.5,9.2-6.6,9.2
	l-0.4,0.6l0.4,0.6c0.3,0.4,0.5,1,0.4,1.3c-0.2,0.4-0.4,0.4-1.2,0.4l-0.2,0c-1.3,0-1.8,0.5-2.7,1.9c-0.1,0.2-0.3,0.4-0.5,0.6
	c-1.1,1.5-2.9,4.1-2.3,6.7c0.7,2.9,3.3,5.1,6,5.1c0.2,0,0.4,0,0.6,0c2.6-0.4,5-2.9,6.2-4.9c1-1.6,1.7-2.8,0.8-4.3
	c-0.2-0.4-0.3-0.6-0.3-0.6c0,0,0,0,0-0.1c0.2-0.1,1.1-0.4,1.9-0.5l0.4-0.1l0.2-0.4c0,0,0.6-0.9,1.3-2.2c0.9-1.8,3.7-7.5,5.5-13
	c6.7-0.4,12.8-2.4,12.8-5.8C47.8,22.7,45.2,20.9,40.6,19.8z M27.7,42.9L27.7,42.9c-0.4,0.8-0.7,1.3-0.9,1.7c-0.8,0.2-2,0.5-2.4,1
	c-1.2,1.2-0.4,2.6-0.1,3.1c0.2,0.4,0.3,0.5-0.8,2.3c-1.1,1.8-3,3.7-4.8,4c-1.8,0.2-3.9-1.5-4.4-3.6c-0.4-1.8,1-3.8,2-5.1
	c0.2-0.3,0.4-0.5,0.5-0.7c0.1-0.2,0.6-0.9,0.7-1c0,0,0,0,0.2,0c0,0,0.1,0,0.1,0l0.2,0c0.8,0,2.2,0.1,3-1.4c0.6-1,0.2-2.1-0.1-2.8
	c1-1.4,3.9-5.6,6.2-8.6c0.3-0.4,0.6-0.8,0.9-1.2c1.6,0.2,3.2,0.3,4.8,0.3c0.1,0,0.1,0,0.2,0C31.1,36,28.6,41.2,27.7,42.9z M34,27.1
	c-0.1,0.6-0.3,1.2-0.5,1.8c-0.3,0-0.6,0-0.9,0c-1.2,0-2.4-0.1-3.5-0.2c1.7-2.5,2.8-4.7,3.4-7.2c0.6-2.6,0.3-5.1,0.1-7.8
	c-0.1-1-0.2-2-0.2-3c-0.2-3.2,0-4.1,0.5-5.7c1.1,0.1,2.7,1.1,4.1,2.7C37.4,15.7,34.1,26.9,34,27.1z"/>
</svg>
