<?xml version="1.0" encoding="UTF-8"?><svg id="a" xmlns="http://www.w3.org/2000/svg" viewBox="0 0 55 55"><defs><style>.b{fill:#fff;}</style></defs><path class="b" d="M53.95,44.04h-16.58v-11.59c0-.58-.47-1.06-1.05-1.06H18.68c-.58,0-1.05,.47-1.05,1.06v6.53H1.05c-.58,0-1.05,.47-1.05,1.06v13.91c0,.58,.47,1.06,1.05,1.06H53.95c.58,0,1.05-.47,1.05-1.06v-8.85c0-.58-.47-1.06-1.05-1.06Zm-1.05,2.11v6.74h-15.53v-6.74h15.53Zm-33.16-12.65h15.53v19.39h-15.53v-19.39Zm-2.1,7.59v11.8H2.1v-11.8h15.53Z"/><path class="b" d="M21.18,14.66l-1.32,6.59c-.08,.4,.07,.8,.39,1.05,.32,.25,.75,.28,1.11,.1l6.13-3.13,6.13,3.13c.15,.08,.31,.11,.48,.11,.22,0,.45-.07,.64-.21,.32-.24,.47-.65,.39-1.05l-1.32-6.59,5.11-5.06c.29-.29,.39-.72,.25-1.11-.14-.39-.49-.66-.9-.69l-6.88-.59L28.46,.62c-.17-.38-.54-.62-.96-.62s-.79,.24-.96,.62l-2.95,6.58-6.88,.59c-.41,.04-.76,.31-.9,.69-.14,.39-.04,.82,.25,1.11l5.11,5.06Zm3.21-5.41c.38-.03,.71-.27,.87-.62l2.24-5.01,2.24,5.01c.16,.35,.49,.59,.87,.62l5.22,.45-3.89,3.85c-.25,.25-.36,.61-.29,.96l1,5.01-4.68-2.39c-.15-.08-.31-.11-.48-.11s-.33,.04-.48,.11l-4.68,2.39,1-5.01c.07-.35-.04-.71-.29-.96l-3.89-3.85,5.22-.45Z"/></svg>