<?xml version="1.0" encoding="utf-8"?>
<!-- Generator: Adobe Illustrator 26.0.2, SVG Export Plug-In . SVG Version: 6.00 Build 0)  -->
<svg version="1.0" id="Layer_1" xmlns="http://www.w3.org/2000/svg" xmlns:xlink="http://www.w3.org/1999/xlink" x="0px" y="0px"
	 viewBox="0 0 60 60" enable-background="new 0 0 60 60" xml:space="preserve">
<g>
	<path fill="#FFFFFF" d="M5,41.9V19.3C5,18.6,5.6,18,6.3,18h15.8v-2H6.3C4.5,16,3,17.5,3,19.3v22.6c0,1.8,1.5,3.3,3.3,3.3h13.6v-2
		H6.3C5.6,43.1,5,42.6,5,41.9z"/>
	<path fill="#FFFFFF" d="M53.7,22.8h-2.4v-3.5c0-1.8-1.5-3.3-3.3-3.3H33.4v2h14.7c0.7,0,1.3,0.6,1.3,1.3v22.6c0,0.7-0.6,1.3-1.3,1.3
		h-17v2h17c1.8,0,3.3-1.5,3.3-3.3v-3.5l2.4,0c1.8,0,3.3-1.5,3.3-3.3v-9C57,24.2,55.5,22.8,53.7,22.8z M55,35.1
		c0,0.7-0.6,1.3-1.3,1.3l-2.4,0V24.8h2.4c0.7,0,1.3,0.6,1.3,1.3V35.1z"/>
	<path fill="#FFFFFF" d="M40.2,24.3c-0.2-0.3-0.6-0.5-1-0.5l-9.5,1.4l3-16.6c0.1-0.5-0.2-0.9-0.6-1.1c-0.4-0.2-0.9,0-1.2,0.4
		L13,34.7c-0.2,0.3-0.2,0.8,0,1.1c0.2,0.3,0.6,0.5,1,0.5l9.5-1.4l-3,16.6c-0.1,0.5,0.2,0.9,0.6,1.1c0.1,0,0.2,0.1,0.4,0.1
		c0.3,0,0.6-0.2,0.8-0.4l17.8-26.8C40.4,25,40.4,24.6,40.2,24.3z M23.3,47l2.4-13.2c0.1-0.3,0-0.6-0.3-0.9c-0.2-0.2-0.5-0.3-0.7-0.3
		c0,0-0.1,0-0.1,0l-8.7,1.2L29.9,13l-2.4,13.2c-0.1,0.3,0,0.6,0.3,0.9c0.2,0.2,0.5,0.3,0.9,0.3l8.7-1.2L23.3,47z"/>
</g>
</svg>
