<svg width="220" height="50" viewBox="0 0 220 50" fill="none" xmlns="http://www.w3.org/2000/svg">
<g clip-path="url(#clip0_29497_8111)">
<path d="M0 49.4998V0.529785H12.91C17.67 0.819785 19.86 3.83979 20.11 8.40979V41.1598C19.72 46.6098 17.37 49.2698 11.85 49.4998H0ZM7.46 42.4198C8.39 42.3998 9.39 42.4798 10.31 42.3398C12.16 42.0698 12.4 40.8298 12.56 39.1798V10.2398C12.51 8.86979 12.01 6.99979 10.31 6.99979H7.45V42.4098L7.46 42.4198Z" fill="white"/>
<path d="M189.31 0C193.08 0.2 195.95 1.48 196.75 5.47C197.32 8.28 196.87 11.53 196.97 14.4L189.85 16.45V8.72C189.85 8.48 189.64 7.69 189.51 7.46C188.85 6.23 186.64 6.21 185.92 7.38C185.2 8.55 185.41 11.65 185.61 12.97C185.92 14.95 187.15 16.63 188.3 18.2C192.19 23.5 197.07 27.73 197.62 34.7C198.17 41.67 197.34 49.51 188.9 49.97C182.88 50.3 178.14 48.77 177.59 42.01V30.93H184.9V40.26C184.9 41.45 185.77 42.72 187.02 42.87C189.27 43.13 189.74 41.35 189.85 39.5C190.14 34.67 189.55 33 186.76 29.27C182.58 23.68 178.31 20.2 177.97 12.63C177.67 6.06 178.63 0.48 186.35 0.02H189.32L189.31 0Z" fill="white"/>
<path d="M219.31 0.529785V7.61979H213.3V49.4998H205.99V7.53979H199.97V0.529785H219.31Z" fill="white"/>
<path d="M109.66 0.529785H122.34C126.54 0.769785 128.83 3.06979 129.08 7.26978C129.28 10.6498 129 14.2998 128.99 17.6898C128.72 19.5298 127.96 21.2598 126.36 22.2898C126.13 22.4398 125.81 22.5198 125.6 22.6698C125.53 22.7198 125.46 22.6698 125.5 22.8398C126.99 23.3398 128.25 24.4298 128.92 25.8598C129.41 26.8998 129.64 28.2798 129.7 29.4298C129.92 33.7598 129.65 38.4198 129.53 42.7498C128.89 46.9998 126.26 49.4598 121.89 49.5098H109.66V0.529785ZM116.97 19.8798H119.29C119.52 19.8798 120.13 19.7498 120.36 19.6498C121.43 19.1998 121.7 17.9998 121.77 16.9498C121.9 14.8898 121.91 11.7698 121.77 9.70979C121.7 8.73979 121.42 7.61979 120.39 7.27979C120.23 7.21979 119.65 7.08979 119.52 7.08979H116.97V19.8798ZM116.97 42.5698H119.52C119.74 42.5698 120.36 42.4198 120.59 42.3398C121.63 41.9898 122 41.0398 122.07 40.0198C122.33 36.4698 121.95 32.4898 121.97 28.9198C121.77 28.1098 121.38 27.5498 120.57 27.2798C120.45 27.2398 119.99 27.1098 119.9 27.1098H116.97V42.5698Z" fill="white"/>
<path d="M154.05 49.4998L159.99 0.529785H168.71L175.22 49.4998H168.06L167.07 40.2098H161.51L160.56 49.4998H154.05ZM166.24 32.9698L164.34 14.9998L162.36 32.9698H166.24Z" fill="white"/>
<path d="M23.8398 49.4998L29.7798 0.529785H38.5698L45.0098 49.4898H37.8898L36.8598 40.1998H31.2998L30.3898 49.4898H23.8398V49.4998ZM36.0198 32.9698L33.9998 14.9198L32.1298 32.9698H36.0098H36.0198Z" fill="white"/>
<path d="M151.08 0.459961V7.53996H141.79V20.41H149.56V27.87H141.79V42.04H151.46V49.5H134.48V0.459961H151.08Z" fill="white"/>
<path d="M84.91 0.609863L88.37 18.8099L91.61 0.609863H98.31L91.84 29.1299V49.4999H84.45V28.9799L77.75 0.609863H84.91Z" fill="white"/>
<path d="M69.91 0.609863V41.9599H80.19V49.4999H62.63L62.52 49.3799V0.609863H69.91Z" fill="white"/>
<path d="M56.2001 0.529785H48.8101V49.4898H56.2001V0.529785Z" fill="white"/>
</g>
<defs>
<clipPath id="clip0_29497_8111">
<rect width="219.31" height="50" fill="white"/>
</clipPath>
</defs>
</svg>
