<svg width="320" height="50" viewBox="0 0 320 50" fill="none" xmlns="http://www.w3.org/2000/svg">
<g clip-path="url(#clip0_29497_8172)">
<path d="M223.61 42.08C223.61 43.19 223.05 43.89 222.08 43.89C221.11 43.89 220.55 43.2 220.55 42.08V7.92C220.55 6.81 221.11 6.11 222.08 6.11C223.05 6.11 223.61 6.8 223.61 7.92V42.09V42.08ZM222.08 0C218.06 0 214.86 3.47 214.86 8.33V41.66C214.86 46.66 218.19 49.99 222.08 49.99C225.97 49.99 229.3 46.66 229.3 41.66V8.33C229.31 3.47 226.11 0 222.08 0ZM13.61 25.56H8.05C7.63 25.56 7.36 25.84 7.36 26.25V30C7.36 30.42 7.64 30.69 8.05 30.69H8.61V42.5C8.61 43.75 8.05 44.44 7.08 44.44C6.11 44.44 5.55 43.75 5.55 42.63V7.92C5.55 6.81 6.24 6.11 7.08 6.11C8.05 6.11 8.75 6.8 8.75 7.92V17.64C8.75 18.06 9.03 18.33 9.44 18.33H13.19C13.61 18.33 13.88 18.05 13.88 17.64V8.33C13.89 3.47 10.97 0 7.08 0C3.19 0 0 3.47 0 8.33V41.66C0 47.22 2.5 49.99 6.39 49.99C7.92 49.99 9.45 49.3 10.28 47.63L10.84 49.44H13.62C14.04 49.44 14.31 49.16 14.31 48.75V26.39C14.31 25.83 14.03 25.56 13.62 25.56M29.17 6.53C29.59 6.53 29.86 6.25 29.86 5.84V1.39C29.86 0.97 29.58 0.7 29.17 0.7H18.75C18.33 0.7 18.06 0.98 18.06 1.39V48.61C18.06 49.03 18.34 49.3 18.75 49.3H29.17C29.59 49.3 29.86 49.02 29.86 48.61V44.17C29.86 43.75 29.58 43.48 29.17 43.48H23.75V27.23H27.22C27.64 27.23 27.91 26.95 27.91 26.54V22.1C27.91 21.68 27.63 21.41 27.22 21.41H23.75V6.39L29.17 6.53ZM96.11 6.53C96.53 6.53 96.8 6.25 96.8 5.84V1.39C96.8 0.97 96.52 0.7 96.11 0.7H85.83C85.41 0.7 85.14 0.98 85.14 1.39V48.61C85.14 49.03 85.42 49.3 85.83 49.3H96.25C96.67 49.3 96.94 49.02 96.94 48.61V44.17C96.94 43.75 96.66 43.48 96.25 43.48H90.83V27.23H94.16C94.58 27.23 94.85 26.95 94.85 26.54V22.1C94.85 21.68 94.57 21.41 94.16 21.41H90.69V6.39L96.11 6.53ZM80.83 43.75H75.83V1.39C75.83 0.97 75.55 0.7 75.14 0.7H70.97C70.55 0.7 70.28 0.98 70.28 1.39V48.61C70.28 49.03 70.56 49.3 70.97 49.3H80.97C81.39 49.3 81.66 49.02 81.66 48.61V44.44C81.52 44.02 81.24 43.75 80.83 43.75ZM246.67 0.69H242.64C242.22 0.69 241.95 0.97 241.95 1.38V42.07C241.95 43.18 241.39 43.88 240.42 43.88C239.59 43.88 238.89 43.19 238.89 42.07V1.39C238.89 0.97 238.61 0.7 238.2 0.7H234.03C233.61 0.7 233.34 0.98 233.34 1.39V41.67C233.34 46.67 236.53 50 240.42 50C244.31 50 247.36 46.67 247.36 41.67V1.39C247.36 0.97 247.08 0.7 246.67 0.7M318.19 43.75H313.19V1.39C313.19 0.97 312.91 0.7 312.5 0.7H308.33C307.91 0.7 307.64 0.98 307.64 1.39V48.61C307.64 49.03 307.92 49.3 308.33 49.3H318.33C318.75 49.3 319.02 49.02 319.02 48.61V44.44C318.88 44.02 318.46 43.75 318.19 43.75ZM210.14 0.69H205.97C205.55 0.69 205.28 0.97 205.28 1.38V42.07C205.28 43.18 204.72 43.88 203.75 43.88C202.78 43.88 202.22 43.19 202.22 42.07V30.68C202.22 30.26 201.94 29.99 201.53 29.99H197.78C197.36 29.99 197.09 30.27 197.09 30.68V42.07C197.09 46.79 200.15 49.99 204.17 49.99C208.19 49.99 210.84 46.8 210.84 42.07V1.39C210.98 0.97 210.56 0.7 210.15 0.7M177.64 22.92C175 16.53 173.89 14.45 173.89 8.06C173.89 6.53 174.72 5.84 175.83 5.84C176.8 5.84 177.5 6.53 177.5 8.06V14.73C177.5 15.15 177.78 15.42 178.19 15.42H181.66C182.08 15.42 182.35 15.14 182.35 14.73V8.9C182.36 2.78 179.72 0 175.69 0C170.42 0 168.06 4.03 168.06 9.72C168.06 14.72 171.25 22.5 173.34 27.5C175.84 33.19 176.95 37.08 176.95 41.94C176.95 43.47 176.26 44.44 175.01 44.44C173.48 44.44 172.93 43.47 172.93 41.94V35.83C172.93 35.41 172.65 35.14 172.24 35.14H168.77C168.35 35.14 168.08 35.42 168.08 35.83V41.11C168.08 46.94 170.72 50 175.3 50C178.22 50 182.52 48.19 182.52 40.69C182.52 35.41 180.3 29.16 177.66 22.91M158.06 0.69H154.73C154.31 0.69 154.04 0.97 154.04 1.38V31.1L153.21 24.43L149.32 1.24C149.32 0.96 149.04 0.68 148.63 0.68H144.19C143.77 0.68 143.5 0.96 143.5 1.37V48.59C143.5 49.01 143.78 49.28 144.19 49.28H147.52C147.94 49.28 148.21 49 148.21 48.59V18.73L149.32 25.4L153.9 48.87C153.9 49.15 154.32 49.43 154.59 49.43H158.06C158.48 49.43 158.75 49.15 158.75 48.74V1.39C158.75 0.97 158.47 0.7 158.06 0.7M48.19 0.69H44.86C44.44 0.69 44.17 0.97 44.17 1.38V31.1L43.34 24.43L39.59 1.24C39.59 0.96 39.31 0.68 38.9 0.68H34.32C33.9 0.68 33.63 0.96 33.63 1.37V48.59C33.63 49.01 33.91 49.28 34.32 49.28H37.65C38.07 49.28 38.34 49 38.34 48.59V18.73L39.45 25.4L44.17 48.87C44.17 49.15 44.59 49.43 44.86 49.43H48.33C48.75 49.43 49.02 49.15 49.02 48.74V1.39C49.02 0.97 48.6 0.7 48.19 0.7M259.86 20.83C259.86 22.36 259.44 22.77 258.89 22.77H257.36V6.53H258.89C259.58 6.53 259.86 7.09 259.86 8.47V20.83ZM265.56 41.25V30.83C265.56 28.47 264.31 27.08 262.78 25.83C264.31 24.58 265.42 23.05 265.42 20.83V8.33C265.42 2.08 261.81 0.69 259.03 0.69H252.36C251.94 0.69 251.67 0.97 251.67 1.38V48.74C251.67 49.16 251.95 49.43 252.36 49.43H256.67C257.09 49.43 257.36 49.15 257.36 48.74V28.46H258.75C259.58 28.46 260 29.29 260 30.4V41.93C260 44.43 260.56 49.43 261.39 49.43H266.39V49.15C265.97 46.79 265.56 44.29 265.56 41.23M295 34.31L296.39 12.78L297.92 34.31H295ZM303.89 48.61L299.58 1.25C299.58 0.83 299.3 0.56 298.89 0.56H294.03C293.61 0.56 293.34 0.84 293.34 1.25L288.76 48.61C288.76 49.03 289.04 49.3 289.45 49.3H293.2C293.62 49.3 293.89 49.02 293.89 48.61L294.45 40.42H298.2L298.48 48.61C298.48 49.03 298.76 49.3 299.17 49.3H303.06C303.62 49.3 303.89 49.02 303.89 48.61ZM130.97 34.31L132.36 12.78L133.89 34.31H130.97ZM139.86 48.61L135.55 1.25C135.55 0.83 135.27 0.56 134.86 0.56H130C129.58 0.56 129.31 0.84 129.31 1.25L124.87 48.61C124.87 49.03 125.15 49.3 125.56 49.3H129.31C129.73 49.3 130 49.02 130 48.61L130.56 40.42H134.31L134.59 48.61C134.59 49.03 134.87 49.3 135.28 49.3H139.17C139.59 49.3 140 49.02 139.86 48.61ZM284.58 0.69H281.25C280.83 0.69 280.56 0.97 280.56 1.38V31.1L279.73 24.43L275.84 1.24C275.84 0.96 275.56 0.68 275.15 0.68H270.57C270.15 0.68 269.88 0.96 269.88 1.37V48.73C269.88 49.15 270.16 49.42 270.57 49.42H273.9C274.32 49.42 274.59 49.14 274.59 48.73V18.73L275.7 25.4L280.28 48.87C280.28 49.15 280.7 49.43 280.97 49.43H284.44C284.86 49.43 285.13 49.15 285.13 48.74V1.39C285.27 0.97 284.99 0.7 284.57 0.7M65.97 0.69H53.19C52.77 0.69 52.5 0.97 52.5 1.38V6.24C52.5 6.66 52.78 6.93 53.19 6.93H56.66V48.6C56.66 49.02 56.94 49.29 57.35 49.29H61.66C62.08 49.29 62.35 49.01 62.35 48.6V6.81H65.82C66.24 6.81 66.51 6.53 66.51 6.12V1.39C66.65 0.97 66.23 0.7 65.95 0.7M162.78 8.06C163.61 7.92 164.17 7.78 164.72 7.5C165.27 7.22 165.69 6.81 165.97 6.39C166.25 5.97 166.53 5.56 166.66 5C166.79 4.44 166.94 3.89 166.94 3.33C166.94 2.91 166.94 2.5 166.8 2.08C166.66 1.66 166.52 1.39 166.24 1.11C165.96 0.83 165.68 0.55 165.27 0.42C164.99 0.14 164.58 0 164.02 0C163.6 0 163.19 0 162.91 0.28C162.49 0.42 162.22 0.7 161.94 0.97C161.66 1.24 161.52 1.53 161.25 1.94C160.98 2.35 160.97 2.63 160.97 3.05C160.97 3.47 160.97 3.88 161.25 4.16C161.53 4.44 161.67 4.85 161.94 5.13C162.21 5.41 162.5 5.55 162.91 5.82C163.33 5.96 163.6 6.1 164.02 6.1C164.58 6.1 165.13 5.96 165.69 5.68C166.25 5.4 166.52 4.99 166.8 4.43C166.66 5.4 166.24 6.24 165.55 6.93C164.86 7.49 164.02 7.9 162.77 8.18V8.04L162.78 8.06ZM120.56 0.69H114.73C114.31 0.69 114.04 0.97 114.04 1.38L112.1 19.85L111.27 32.21L110.3 19.85L108.22 1.24C108.22 0.82 107.94 0.55 107.53 0.55H101.42C101 0.55 100.73 0.83 100.73 1.24V48.6C100.73 49.02 101.01 49.29 101.42 49.29H104.75C105.17 49.29 105.44 49.01 105.44 48.6V10L106 20.69L108.5 48.61C108.5 49.03 108.78 49.3 109.19 49.3H111.83C112.25 49.3 112.52 49.02 112.52 48.61L115.3 20.69L115.86 10V48.61C115.86 49.03 116.14 49.3 116.55 49.3H120.58C121 49.3 121.27 49.02 121.27 48.61V1.39C121.27 0.97 120.99 0.7 120.58 0.7" fill="white"/>
</g>
<defs>
<clipPath id="clip0_29497_8172">
<rect width="319.03" height="50" fill="white"/>
</clipPath>
</defs>
</svg>
