<svg width="318" height="50" viewBox="0 0 318 50" fill="none" xmlns="http://www.w3.org/2000/svg">
<g clip-path="url(#clip0_29497_8187)">
<path d="M65.57 21.77C65.52 19.28 63.19 15.78 58.68 15.89C54.5 15.94 52.27 19.07 52.17 21.77H65.57ZM51.96 27.49C52.07 29.03 52.49 30.3 53.44 31.41C55.03 33.32 57.2 33.85 59.58 33.9C62.65 33.95 64.77 32.36 66.52 30.03C66.68 29.82 66.78 29.66 67 29.39L72.61 32.83C71.92 33.84 71.29 34.9 70.54 35.74C67.31 39.34 63.18 40.77 58.36 40.51C55.82 40.35 53.38 39.77 51.16 38.55C47.72 36.64 45.6 33.73 44.59 29.97C43.53 25.73 43.69 21.55 45.6 17.58C47.88 12.92 51.64 10.22 56.78 9.64C60.81 9.16 64.62 9.85 67.9 12.29C70.92 14.46 72.61 17.53 73.09 21.19C73.35 22.99 73.3 24.9 73.35 26.75C73.4 27.33 73.14 27.54 72.56 27.54H52.75C52.86 27.49 51.96 27.49 51.96 27.49ZM34.16 40.1V21.67C34.16 20.82 34.05 19.98 33.9 19.18C33.42 17.22 31.99 16.21 29.93 16.37C27.71 16.53 26.33 17.8 26.06 20.08C26.01 20.72 25.95 21.4 25.95 22.04V39.36C25.95 39.89 25.84 40.1 25.26 40.1C23.25 40.05 21.18 40.05 19.17 40.1C18.64 40.1 18.48 39.94 18.48 39.41V6.09C18.48 5.51 18.59 5.3 19.22 5.3C21.23 5.35 23.3 5.3 25.31 5.3C25.52 5.3 25.68 5.3 25.95 5.35V12.02C26.16 11.91 26.27 11.91 26.37 11.86C27.59 10.43 29.28 9.95 31.03 9.74C33.47 9.42 35.9 9.74 38.02 11.28C39.87 12.66 40.99 14.51 41.3 16.74C41.56 18.49 41.67 20.24 41.67 21.98C41.72 27.75 41.67 33.53 41.72 39.3C41.72 39.94 41.51 40.09 40.93 40.09C38.65 40.04 36.43 40.09 34.15 40.09M2.81 16.37C2.07 16.37 1.38 16.32 0.69 16.37C0.16 16.42 0 16.16 0 15.68V10.65C0 10.17 0.16 9.96 0.64 9.96C1.33 10.01 2.02 9.96 2.81 9.96C2.81 8.64 2.86 7.31 2.81 6.04C2.81 5.4 2.97 5.25 3.6 5.25C5.61 5.3 7.63 5.3 9.64 5.25C10.22 5.25 10.38 5.41 10.38 5.99C10.33 7.26 10.38 8.59 10.38 9.91H14.88V16.27H10.43C10.38 16.48 10.32 16.64 10.32 16.75C10.32 21.46 10.32 26.18 10.37 30.89C10.37 32.74 11.22 33.49 13.07 33.54H14.87V39.47C14.87 39.68 14.66 40 14.5 40.05C11.85 40.53 9.26 40.63 6.66 39.68C4.75 38.99 3.69 37.51 3.22 35.6C2.9 34.43 2.8 33.16 2.8 31.89C2.75 27.02 2.8 22.09 2.8 17.22V16.37H2.81Z" fill="white"/>
<path d="M248.2 16.3699C245.08 16.1099 242.48 17.0099 240.73 19.7599C239.3 21.9799 238.98 24.3699 239.41 26.9099C240.1 31.0399 243.22 33.6899 247.41 33.7399C250.48 33.7399 252.65 32.6299 254.24 30.0899C255.41 28.2399 255.67 26.1699 255.51 23.9999C255.19 19.9699 252.07 16.6899 248.2 16.3699Z" fill="white"/>
<path d="M279.34 17.8C278.6 17.8 277.86 17.75 277.12 17.8C274.68 17.91 273.57 19.02 273.57 21.45C273.52 27.38 273.57 33.31 273.57 39.25V40.04H266.1C266.1 39.83 266.05 39.62 266.05 39.4V10.7C266.05 10.12 266.21 9.96 266.79 9.96C268.8 10.01 270.87 10.01 272.88 9.96C273.46 9.96 273.62 10.17 273.57 10.7C273.52 11.18 273.57 11.65 273.57 12.29C275.53 10.12 277.75 9.8 279.4 10.01L279.35 17.8H279.34ZM258.9 35.91C256.52 38.45 253.55 39.83 250.11 40.36C249.16 40.52 248.2 40.52 247.25 40.57C243.54 40.62 240.21 39.56 237.35 37.29C234.33 34.91 232.58 31.73 231.95 27.97C231.47 25.06 231.63 22.2 232.69 19.44C234.28 15.31 237.03 12.24 241.22 10.65C246.41 8.69 251.5 9.01 256.26 11.92C260.07 14.25 262.19 17.75 262.83 22.14C263.68 27.33 262.57 31.99 258.91 35.91H258.9ZM229.4 40.04C226.8 40.46 224.26 40.57 221.77 39.67C219.76 38.98 218.65 37.5 218.12 35.54C217.8 34.32 217.7 33.05 217.7 31.78C217.65 26.91 217.65 21.98 217.7 17.11C217.7 16.53 217.54 16.32 216.96 16.37C216.43 16.42 215.9 16.37 215.42 16.37C215.05 16.37 214.89 16.21 214.89 15.84V10.49C214.89 10.01 215.15 9.96 215.47 9.96H217.69C217.69 8.58 217.74 7.31 217.69 6.04C217.69 5.46 217.8 5.25 218.43 5.25C220.44 5.3 222.46 5.3 224.47 5.25C225.05 5.25 225.26 5.41 225.26 5.99C225.21 7.26 225.26 8.59 225.26 9.91H229.76V16.32H225.79C225.37 16.32 225.21 16.43 225.21 16.85C225.21 21.51 225.21 26.23 225.26 30.89C225.26 32.74 226.11 33.49 227.96 33.54H229.76V39.42C229.81 39.74 229.76 40 229.39 40.06L229.4 40.04ZM212.29 39.19C212.29 39.7567 211.99 40.04 211.39 40.04H204.77V21.82C204.77 20.71 204.56 19.65 204.29 18.59C203.87 17.16 202.7 16.58 201.27 16.42C198.25 16.1 196.71 18.11 196.66 20.6C196.61 22.72 196.61 24.84 196.61 26.96V39.14C196.61 39.7733 196.293 40.09 195.66 40.09H189.15V10.06H196.67V12.07C199.53 9.42 202.81 9.16 206.31 10.06C209.33 10.8 211.66 13.61 212.08 17C212.29 18.59 212.4 20.23 212.4 21.87C212.35 27.64 212.29 33.42 212.29 39.19ZM185.49 26.91C185.49 27.55 185.07 27.49 184.64 27.49H163.98C164.09 29.03 164.51 30.35 165.46 31.46C167.68 33.95 170.54 34.21 173.56 33.63C175.73 33.21 177.16 31.67 178.49 30.03C178.65 29.82 178.81 29.66 178.97 29.34L184.48 32.73C183.74 34.32 182.68 35.75 181.36 36.91C178.66 39.35 175.37 40.51 171.83 40.51C167.17 40.56 162.98 39.29 159.7 35.74C157.69 33.52 156.63 30.87 156.2 27.95C155.78 24.88 155.94 21.86 157.05 18.95C158.9 14.02 162.4 10.85 167.59 9.79C171.62 9 175.53 9.53 179.08 11.7C181.78 13.34 183.53 15.78 184.59 18.74C185.6 21.39 185.54 24.14 185.49 26.9V26.91ZM146.35 39.35C146.19 39.88 145.93 40.09 145.34 40.09C142.85 40.04 140.36 40.09 137.82 40.09L127.01 10.06C127.22 10.01 127.38 10.01 127.54 10.01H134.58C135.11 10.01 135.37 10.17 135.53 10.7C137.65 17.16 139.77 23.57 141.89 29.98C141.94 30.09 142 30.19 142.1 30.46C142.26 30.14 142.31 29.98 142.42 29.77C144.54 23.41 146.6 17.06 148.67 10.65C148.83 10.12 149.09 9.96 149.62 9.96C151.95 10.01 154.23 9.96 156.72 9.96C156.35 11.07 155.93 12.18 155.55 13.3C152.43 22.04 149.41 30.73 146.33 39.36L146.35 39.35ZM126.01 39.14C126.01 39.7733 125.693 40.09 125.06 40.09H118.55C118.55 39.83 118.5 39.56 118.5 39.3V21.72C118.5 20.4 118.45 19.02 117.65 17.91C117.44 17.59 117.12 17.27 116.8 17.06C114.31 15.68 110.44 16.37 110.34 20.77C110.23 26.91 110.29 33.06 110.29 39.15C110.29 39.8233 109.953 40.16 109.28 40.16H102.77V10.06H110.24V12.07C110.4 11.96 110.5 11.91 110.56 11.86C113.47 8.84 120.09 8.89 123.11 11.86C124.43 13.13 125.33 14.83 125.6 16.63C125.81 18.06 125.97 19.49 125.97 20.92C126.02 27.06 126.02 33.1 126.02 39.14H126.01ZM97.0899 0V40.04H89.4099V0H79.6099V49.89H289.14C289.67 48.2 290.25 46.55 290.83 44.91C291.47 43.11 292.15 41.36 292.79 39.56C292.9 39.19 292.95 38.71 292.79 38.34C289.19 29.18 285.53 20.01 281.88 10.85C281.77 10.64 281.72 10.43 281.62 10.16C281.94 10.16 282.15 10.11 282.41 10.11C284.63 10.11 286.86 10.16 289.08 10.11C289.77 10.11 290.03 10.37 290.25 10.96C292.37 16.63 294.49 22.29 296.66 27.96C296.71 28.12 296.82 28.33 297.08 28.49C297.45 27.54 297.82 26.53 298.19 25.58C299.99 20.6 301.79 15.68 303.65 10.7C303.7 10.49 304.02 10.22 304.23 10.22C306.56 10.17 308.89 10.22 311.22 10.22C310.64 12.55 309.79 14.78 308.94 17C306.34 23.78 303.8 30.56 301.21 37.34C299.67 41.37 298.14 45.44 296.6 49.47C296.49 49.68 296.44 49.95 296.23 50H317.84V0H97.0899Z" fill="white"/>
<path d="M170.87 15.89C166.69 15.78 164.41 18.91 164.25 21.77H177.65C177.7 18.59 174.63 16 170.87 15.89Z" fill="white"/>
</g>
<defs>
<clipPath id="clip0_29497_8187">
<rect width="317.85" height="50" fill="white"/>
</clipPath>
</defs>
</svg>
