<?xml version="1.0" encoding="utf-8"?>
<!-- Generator: Adobe Illustrator 27.0.0, SVG Export Plug-In . SVG Version: 6.00 Build 0)  -->
<svg version="1.0" id="Layer_1" xmlns="http://www.w3.org/2000/svg" xmlns:xlink="http://www.w3.org/1999/xlink" x="0px" y="0px"
	 viewBox="0 0 150 135" enable-background="new 0 0 150 135" xml:space="preserve">
<g>
	<defs>
		<path id="SVGID_1_" d="M472.9-212.1l-1.3-3.2c4.7-2,7.8-6.5,7.9-11.6c0-5.3-3-9-6.3-12.9c-2.1-2.4-3.9-5-5.4-7.8
			c-1.5,2.8-3.3,5.4-5.4,7.8c-0.8,1-1.5,1.8-2.2,2.7l-2.7-2.1c0.7-1,1.5-1.9,2.3-2.8c2.9-3.5,5.6-6.8,6.4-11.4
			c0.1-0.8,0.9-1.4,1.7-1.4c0.8,0,1.6,0.6,1.7,1.4c0.8,4.6,3.5,7.9,6.4,11.4c3.5,4.2,7.1,8.6,7.1,15.1
			C482.8-220.4,478.9-214.6,472.9-212.1z"/>
	</defs>
	<clipPath id="SVGID_00000007420197857823256110000013659474571489709230_">
		<use xlink:href="#SVGID_1_"  overflow="visible"/>
	</clipPath>
	<g clip-path="url(#SVGID_00000007420197857823256110000013659474571489709230_)">
		<defs>
			<rect id="SVGID_00000162337277765474176000000007982631208890348428_" x="-347.6" y="-5337" width="1920" height="12072"/>
		</defs>
		<clipPath id="SVGID_00000019666178817123291530000004015187478245587330_">
			<use xlink:href="#SVGID_00000162337277765474176000000007982631208890348428_"  overflow="visible"/>
		</clipPath>
	</g>
</g>
<g>
	<defs>
		<path id="SVGID_00000078751914827899384700000002071737520748772498_" d="M449.8-198.5c-9.9-0.2-18-8.2-18.2-18.2h3.4
			c0.2,8,6.7,14.5,14.7,14.7V-198.5L449.8-198.5z M446.6-245.9c-2.2,5-5.7,9-9.2,13c-5.1,5.8-10,11.2-10,19.2c0,10,9,18.7,19.2,18.7
			c10.2,0,19.1-8.7,19.1-18.7c0-7.9-4.8-13.4-9.9-19.2C452.3-236.9,448.8-240.9,446.6-245.9z M446.6-191.6
			c-12.1,0-22.6-10.3-22.6-22.1c0-9.2,5.5-15.4,10.8-21.4c4.6-5.2,8.9-10,10.1-16.8c0.2-0.8,0.9-1.4,1.7-1.4c0.8,0,1.5,0.6,1.7,1.4
			c1.3,6.8,5.6,11.6,10.1,16.8c5.3,6,10.8,12.2,10.8,21.4C469.2-201.9,458.6-191.6,446.6-191.6z"/>
	</defs>
	<clipPath id="SVGID_00000126321346741485484380000009676859502519918244_">
		<use xlink:href="#SVGID_00000078751914827899384700000002071737520748772498_"  overflow="visible"/>
	</clipPath>
	<g clip-path="url(#SVGID_00000126321346741485484380000009676859502519918244_)">
		<defs>
			<rect id="SVGID_00000178178112704381044910000012428321559832685991_" x="-347.6" y="-5337" width="1920" height="12072"/>
		</defs>
		<clipPath id="SVGID_00000085937520178838256530000009854290168170128788_">
			<use xlink:href="#SVGID_00000178178112704381044910000012428321559832685991_"  overflow="visible"/>
		</clipPath>
	</g>
</g>
<g>
	<path fill="#FCFCFC" d="M139.6,65.6l0-1.3l-1.3,0.1c-0.1,0-1.4,0.1-3,0.7c-2.3,0.7-4.2,1.8-5.6,3.1c-1.8,1.7-2.9,3.8-3.4,5.2l0,0
		c-0.3,0.8-0.5,1.4-0.7,1.9c0,0.1-0.1,0.2-0.1,0.4l-0.1,0.1c-0.1,0-0.1,0.1-0.2,0.1c1.2-4.3,1.8-8.8,1.9-13.2c0.3-0.3,0.5-0.6,0.9-1
		l1.1-1.3c0,0,0.1-0.1,0.1-0.1c0.5-0.1,1.5-0.4,2.5-0.8c2.3-1,4.1-2.5,5.1-4.3c0.6-1,1-2.2,1.3-3.5c0.2-1.2,0.2-2.3,0.1-3.3l0-0.1
		c-0.1-1-0.2-1.9-0.3-2.4c-0.1-0.7-0.3-1-0.3-1.1l-0.5-1.2l-1.2,0.5c0,0-1.2,0.5-2.7,1.6c-1.3,1-3.2,2.6-4.3,4.8
		c-0.3,0.5-0.4,0.9-0.6,1.4l-0.1,0.2c-0.2,0.5-0.4,1.1-0.5,1.6c-0.2,0.9-0.4,1.9-0.4,2.9c0,0.4,0,0.7,0,1c0,0.3,0,0.6,0,0.9
		c0,0.1,0,0.3,0,0.4c0,0-0.1,0.1-0.1,0.1l-0.1,0.1c-0.2-4.4-1-8.9-2.4-13.1l0.5-1.1c0.2-0.4,0.3-0.8,0.5-1.2
		c0.1-0.1,0.1-0.3,0.2-0.5c0,0,0-0.1,0.1-0.1c0.5-0.3,1.3-0.8,2.1-1.6c0.8-0.7,1.5-1.5,2-2.3c0.8-1.1,1.2-2.3,1.4-3.4
		c0.4-2.3,0.1-5-0.9-7c-0.8-1.8-1.6-3-1.7-3l-0.8-1.1l-1,0.9c0,0-1,0.9-2.1,2.4c-1,1.3-2.2,3.5-2.6,5.9c-0.2,1.3-0.2,2.4-0.1,3.4
		c0.1,1.1,0.3,2,0.5,2.8c0.2,1,0.5,1.9,0.7,2.4c0,0,0,0.1,0,0.1c0,0.1,0,0.1-0.1,0.2c-1.6-4.1-3.8-8.1-6.4-11.7l0.1-1.2l0.1-0.9
		l0-0.9c0,0,0-0.1,0-0.2c0.4-0.4,0.9-1.2,1.5-2.2c1.2-2.2,1.7-4.4,1.5-6.5l0,0c-0.2-1.2-0.6-2.4-1.2-3.6c-0.3-0.5-0.5-1-0.9-1.5
		c-0.3-0.5-0.6-0.8-0.9-1.2l-0.1-0.1c-1.3-1.5-2.5-2.3-2.6-2.4l-1.1-0.8l-0.7,1.2c0,0-0.7,1.2-1.2,2.9c-0.5,1.6-1,4-0.5,6.4
		c0.2,1.1,0.5,2.2,0.9,3.3c0.3,0.7,0.6,1.3,1,1.8c0.1,0.2,0.3,0.5,0.4,0.7l0,0c0.6,0.9,1.1,1.6,1.5,2c0,0,0,0.1,0,0.1l0,0.2
		c-2.3-2.7-4.9-5.2-7.6-7.4c0-0.1-0.1-0.3-0.1-0.5l0-0.1c-0.1-0.5-0.4-1.4-0.8-2.3c-0.5-1.2-1.1-2.1-1.7-3l0,0c-0.9-1-1.9-1.9-3-2.5
		c-0.3-0.2-0.6-0.3-0.9-0.5l-0.1,0c-0.3-0.1-0.6-0.2-1-0.3c-0.6-0.2-1.2-0.3-1.9-0.4c-1.4-0.1-2.5-0.1-3.4,0.1c-2,0.4-3.3,1-3.3,1.1
		l-1.1,0.5l0.5,1.1c0,0.1,0.6,1.4,1.7,2.8l0,0c0.1,0.2,0.3,0.4,0.5,0.6c0.4,0.6,0.9,1.2,1.4,1.7c0.4,0.4,0.8,0.8,1.3,1.1
		c0.2,0.2,0.5,0.3,0.7,0.5c0.2,0.2,0.5,0.3,0.7,0.5c1,0.6,2.1,0.9,3.3,1.1c1,0.2,2.1,0.3,3,0.3c0.2,0,0.3,0,0.5,0
		c0.6,0,1.2,0,1.9-0.1c0.2,0,0.3,0,0.4,0c7.3,5.8,13.1,13.8,16.2,22.6c3.7,10.4,3.8,22,0.3,32.6c-3.4,10.5-10.4,19.7-19.8,25.9
		c-4.5,3-9.5,5.3-15,6.8l-0.1,0c-1.1,0.4-2.4,0.8-3.7,1.2c-7,2.3-15.6,5.1-20,12.4c-0.3,0.6-0.2,1.3,0.4,1.7
		c0.2,0.1,0.4,0.2,0.6,0.2c0.4,0,0.8-0.2,1.1-0.6c3.9-6.5,12.1-9.2,18.7-11.3c1.3-0.4,2.4-0.8,3.6-1.2c0.8,0.4,1.7,0.8,2.8,1.3
		l0.1,0.1c0.3,0.5,0.8,1.3,1.5,2.2c1.6,1.9,3.5,3.2,5.5,3.7c0.8,0.2,1.7,0.3,2.5,0.3c1.9,0,3.6-0.5,4.6-0.8c0.8-0.3,1.6-0.6,2.3-1
		c0.5-0.3,0.8-0.5,0.9-0.5l1.1-0.7l-0.8-1c0,0-0.9-1.1-2.3-2.1c-0.8-0.6-1.6-1.2-2.5-1.6c-1.1-0.6-2.2-1-3.3-1.2
		c-1.9-0.4-3.9-0.4-6.2,0.1l-0.4,0.1c-0.7,0.2-1.2,0.3-1.7,0.4c-0.1,0-0.2,0.1-0.3,0.1l-0.1,0c-0.1,0-0.2-0.1-0.2-0.1
		c4.3-1.5,8.4-3.4,12-5.9c1.1,0.1,2.1,0.3,3.2,0.3c0.4,0.4,1.1,1,2.1,1.6c0.9,0.6,1.8,1,2.8,1.3c1,0.3,2,0.5,2.9,0.5
		c0.2,0,0.5,0,0.7,0c1.3-0.1,2.5-0.4,3.7-1c1.1-0.5,2.1-1.1,2.9-1.8c1.6-1.2,2.5-2.5,2.5-2.5l0.8-1.1l-1.1-0.7c0,0-1.2-0.7-2.8-1.3
		c-2.3-0.8-4.4-1.1-6.3-0.9c-1.1,0.1-2.2,0.4-3.3,0.8c-0.9,0.3-1.7,0.7-2.6,1.3c-0.6,0.3-1.2,0.7-1.8,1.2c-0.1,0.1-0.2,0.1-0.2,0.2
		c-0.1,0-0.2,0-0.4,0c3.6-2.7,6.8-5.9,9.5-9.3L117,94l1.8-0.4l0.2,0c0.5,0.2,1.4,0.6,2.5,0.9c1,0.2,1.9,0.3,2.8,0.3
		c1.3,0,2.6-0.2,3.8-0.7l0,0c1.1-0.5,2.2-1.2,3.2-2.1c0.8-0.8,1.5-1.7,2.2-2.6c0.5-0.9,0.9-1.7,1.2-2.2c0.3-0.6,0.4-1,0.4-1l0.4-1.2
		l-1.3-0.3c-0.1,0-1.3-0.3-3.1-0.3c-1.6,0-4,0.1-6.3,1.2c-1.7,0.8-3.4,2.1-4.9,3.8c-0.6,0.6-1,1.2-1.3,1.7c-0.1,0.1-0.1,0.2-0.2,0.3
		l-0.3,0.1c2.5-3.7,4.5-7.7,6-11.9c0.8-0.5,1.8-1,2.7-1.6l0.1-0.1c0.3,0,0.8,0.1,1.3,0.1c0.4,0,0.8,0,1.3-0.1c1.1-0.1,2.1-0.3,3-0.6
		c1.2-0.4,2.2-1,3.1-1.8c0.9-0.8,1.7-1.7,2.3-3c0.5-0.9,0.9-1.9,1.2-3.2c0.3-1,0.4-1.9,0.4-2.5C139.6,66,139.6,65.6,139.6,65.6z
		 M129.7,56.4c0-0.8,0.1-1.6,0.3-2.4c0.1-0.4,0.3-0.9,0.4-1.3l0.1-0.2c0.2-0.4,0.3-0.8,0.5-1.1c0.9-1.8,2.5-3.1,3.6-3.9
		c0.3-0.2,0.6-0.4,0.9-0.6c0.1,0.4,0.1,0.9,0.2,1.4l0,0.1c0,0.9,0.1,1.8-0.1,2.7c-0.2,1.1-0.5,2-1,2.8l0,0c-0.8,1.4-2.1,2.5-3.9,3.3
		c-0.4,0.2-0.7,0.3-1,0.4C129.6,57.1,129.7,56.7,129.7,56.4z M113.3,19.3L113.3,19.3c-0.4-2,0.1-4,0.5-5.3c0.1-0.4,0.2-0.7,0.4-1
		c0.3,0.3,0.7,0.6,1,1l0.1,0.1c0.3,0.3,0.5,0.6,0.7,0.9c0.3,0.4,0.5,0.9,0.7,1.3c0.5,1,0.8,1.9,0.9,2.8c0.2,2-0.5,3.8-1.2,5
		c-0.2,0.4-0.4,0.7-0.6,0.9c-0.2-0.3-0.4-0.5-0.6-0.9c-0.1-0.2-0.3-0.5-0.4-0.7c-0.3-0.5-0.6-0.9-0.8-1.5
		C113.7,21.1,113.4,20.2,113.3,19.3z M102.8,20c-0.8,0-1.7-0.1-2.6-0.3l-0.1,0c-1-0.2-1.8-0.4-2.5-0.8c-0.2-0.1-0.4-0.2-0.6-0.4
		L97,18.4c-0.2-0.1-0.4-0.2-0.5-0.4c-0.3-0.2-0.7-0.5-1-0.9c-0.4-0.4-0.8-1-1.2-1.5c-0.2-0.2-0.3-0.4-0.5-0.6
		c-0.3-0.5-0.6-0.9-0.8-1.3c0.4-0.1,1-0.3,1.6-0.4c0.7-0.2,1.6-0.2,2.7-0.1c0.5,0.1,1,0.2,1.5,0.3c0.2,0.1,0.5,0.1,0.7,0.2
		c0.2,0.1,0.4,0.2,0.7,0.3c0.9,0.5,1.7,1.2,2.4,2c0.5,0.7,1,1.4,1.4,2.4c0.2,0.5,0.4,1,0.5,1.4C103.9,20,103.4,20,102.8,20z
		 M94.2,113.5l0.3-0.1c2-0.4,3.7-0.4,5.2-0.1c0.8,0.2,1.7,0.5,2.6,1c0.7,0.4,1.4,0.8,2.1,1.4c0.3,0.2,0.6,0.5,0.8,0.7
		c-0.4,0.2-0.9,0.4-1.3,0.6c-1.2,0.4-3.4,1.1-5.6,0.5l0,0c-1.6-0.4-3-1.4-4.2-2.9c-0.3-0.3-0.5-0.6-0.7-0.9
		C93.7,113.6,93.9,113.6,94.2,113.5z M109.9,104.4L109.9,104.4c0.8-0.5,1.5-0.8,2.2-1.1l0,0c0.9-0.4,1.8-0.6,2.7-0.7
		c1.5-0.2,3.3,0.1,5.3,0.7c0.4,0.1,0.7,0.3,1,0.4c-0.3,0.3-0.7,0.6-1.1,1c-0.7,0.5-1.5,1-2.4,1.5c-0.9,0.4-1.8,0.7-2.8,0.8l0,0
		c-0.9,0.1-1.8,0-2.7-0.3c-0.7-0.2-1.5-0.6-2.2-1c-0.3-0.2-0.7-0.4-0.9-0.6C109.2,104.8,109.5,104.6,109.9,104.4z M121.6,90.8
		c1.3-1.5,2.7-2.6,4.1-3.2c1.9-0.9,3.9-1,5.3-1c0.4,0,0.8,0,1.1,0.1c-0.2,0.4-0.4,0.8-0.7,1.2c-0.5,0.8-1.1,1.5-1.8,2.2
		c-0.7,0.7-1.6,1.2-2.4,1.6c-1.5,0.6-3.2,0.7-5.1,0.3c-0.4-0.1-0.8-0.2-1.1-0.3C121.1,91.4,121.4,91.1,121.6,90.8z M124.8,33.9
		c0.3-1.9,1.3-3.7,2.1-4.8c0.2-0.3,0.5-0.6,0.7-0.9c0.2,0.4,0.4,0.8,0.6,1.3l0,0c0.8,1.6,1,3.8,0.7,5.6l0,0
		c-0.1,0.8-0.5,1.6-1.1,2.5c-0.4,0.7-1,1.3-1.6,1.9c-0.3,0.3-0.6,0.5-0.9,0.7c-0.1-0.3-0.2-0.6-0.3-1l0,0c-0.2-0.7-0.4-1.5-0.5-2.4
		C124.6,35.9,124.6,35,124.8,33.9z M136.7,68.5c-0.3,1-0.6,1.9-1,2.6c-0.5,1-1.1,1.7-1.8,2.3l0,0c-0.7,0.6-1.5,1.1-2.4,1.4
		c-0.7,0.3-1.6,0.4-2.4,0.5c-0.4,0-0.8,0.1-1.1,0c0.1-0.3,0.2-0.6,0.4-1c0.5-1.2,1.4-2.9,2.9-4.4c1.1-1.1,2.7-1.9,4.6-2.6
		c0.4-0.1,0.8-0.2,1.1-0.3C137,67.4,136.9,67.9,136.7,68.5z"/>
	<path fill="#FCFCFC" d="M86.5,123.9c-4.4-7.3-13-10.1-20-12.4c-1.3-0.4-2.5-0.8-3.7-1.2l-0.1,0c-5.5-1.5-10.6-3.8-15.1-6.8
		C38.4,97.2,31.4,88,27.9,77.5c-3.5-10.6-3.4-22.2,0.3-32.6c3.1-8.8,8.8-16.8,16.2-22.6c0.1,0,0.3,0,0.4,0c0.6,0.1,1.3,0.1,1.9,0.1
		c0.2,0,0.3,0,0.5,0c1,0,2-0.1,3-0.3c1.3-0.2,2.4-0.6,3.3-1.1c0.2-0.1,0.5-0.3,0.7-0.5c0.2-0.1,0.5-0.3,0.7-0.5
		c0.4-0.3,0.9-0.7,1.3-1.1c0.6-0.6,1-1.2,1.4-1.7c0.2-0.2,0.3-0.4,0.5-0.6l0,0c1.1-1.5,1.7-2.8,1.7-2.8l0.5-1.1L59.3,12
		c-0.1,0-1.4-0.7-3.3-1c-1-0.2-2.1-0.3-3.5-0.1c-0.6,0.1-1.3,0.2-1.9,0.4c-0.3,0.1-0.7,0.2-1,0.3l-0.1,0c-0.3,0.1-0.6,0.3-0.9,0.5
		c-1.1,0.6-2.1,1.5-3,2.5l0,0c-0.6,0.8-1.2,1.8-1.7,3c-0.4,1-0.7,1.8-0.8,2.3l0,0.1c0,0.2-0.1,0.3-0.1,0.5c-2.8,2.2-5.3,4.7-7.6,7.4
		l0-0.2c0,0,0-0.1,0-0.1c0.4-0.4,0.9-1.1,1.5-2l0,0c0.1-0.2,0.3-0.4,0.4-0.7c0.3-0.5,0.7-1.1,0.9-1.8c0.5-1.1,0.8-2.2,0.9-3.3
		c0.4-2.4-0.1-4.8-0.5-6.4c-0.5-1.7-1.2-2.9-1.2-2.9l-0.7-1.2L35.6,10c-0.1,0-1.2,0.9-2.6,2.4l-0.1,0.1c-0.3,0.3-0.6,0.7-0.9,1.2
		c-0.3,0.5-0.6,1-0.9,1.5c-0.6,1.2-1,2.4-1.2,3.6l0,0c-0.2,2.1,0.3,4.3,1.5,6.5c0.6,1,1.1,1.7,1.5,2.2c0,0.1,0,0.1,0,0.2l0,0.9
		l0.2,2.2c-2.6,3.6-4.8,7.5-6.5,11.7c0,0,0-0.1,0-0.1l0-0.1c0.2-0.5,0.5-1.3,0.7-2.4c0.2-0.8,0.4-1.7,0.5-2.8c0.1-1,0.1-2.1-0.1-3.4
		c-0.4-2.4-1.6-4.5-2.6-5.9c-1-1.5-2-2.3-2.1-2.4l-1-0.9l-0.8,1.1c0,0.1-0.9,1.2-1.7,3c-1,2.1-1.3,4.7-0.9,7
		c0.2,1.1,0.7,2.3,1.4,3.4c0.5,0.8,1.2,1.6,2,2.3c0.8,0.8,1.6,1.3,2.1,1.6l0.1,0.2c0.1,0.1,0.1,0.3,0.2,0.4c0.1,0.4,0.3,0.8,0.5,1.2
		l0.5,1.1C24,50,23.2,54.4,23,58.9l-0.1-0.1c0,0-0.1-0.1-0.1-0.1c0-0.1,0-0.2,0-0.4c0-0.3,0-0.6,0-1c0-0.3,0-0.7,0-1
		c0-1-0.2-2-0.4-2.9c-0.1-0.5-0.3-1.1-0.5-1.6l-0.1-0.2c-0.2-0.4-0.3-0.9-0.6-1.4c-1.1-2.2-3-3.8-4.3-4.8c-1.5-1.1-2.6-1.6-2.7-1.6
		L13,43.4l-0.5,1.2c0,0.1-0.2,0.5-0.3,1.1c-0.1,0.6-0.3,1.4-0.3,2.5l0,0.1c-0.1,1-0.1,2.1,0.1,3.3c0.3,1.3,0.7,2.5,1.3,3.5
		c1,1.8,2.8,3.3,5.1,4.3c1.1,0.5,2,0.7,2.5,0.8c0,0,0.1,0.1,0.1,0.1l1.1,1.3c0.3,0.4,0.6,0.7,0.9,1c0.1,4.4,0.7,8.9,1.9,13.2
		c-0.1,0-0.1-0.1-0.2-0.1l-0.1-0.1c0-0.1-0.1-0.2-0.1-0.3c-0.1-0.5-0.4-1.1-0.7-1.9l0,0c-0.6-1.4-1.6-3.5-3.4-5.2
		c-1.4-1.3-3.3-2.4-5.6-3.1c-1.7-0.5-3-0.7-3-0.7l-1.3-0.1l0,1.3c0,0,0,0.4,0,1c0,0.7,0.2,1.6,0.4,2.5c0.3,1.2,0.7,2.3,1.2,3.2
		c0.7,1.3,1.5,2.3,2.3,3c0.9,0.8,2,1.4,3.1,1.8c0.9,0.3,1.9,0.5,3,0.6c0.5,0,0.9,0.1,1.3,0.1c0.6,0,1,0,1.3-0.1l0.1,0.1
		c0.9,0.6,1.8,1.1,2.6,1.6c1.5,4.2,3.5,8.2,6,11.9l-0.2,0l-0.1,0c-0.1-0.1-0.1-0.2-0.2-0.3c-0.3-0.4-0.7-1-1.3-1.6
		c-1.6-1.8-3.2-3-4.9-3.8c-2.3-1.1-4.7-1.2-6.3-1.2c-1.8,0-3,0.3-3.1,0.3l-1.3,0.3l0.4,1.2c0,0,0.1,0.4,0.4,1
		c0.2,0.5,0.6,1.3,1.2,2.2c0.6,0.9,1.3,1.8,2.2,2.6c0.9,0.9,2,1.6,3.2,2.1l0,0c1.2,0.5,2.5,0.7,3.8,0.7c0.9,0,1.9-0.1,2.8-0.3
		c1.1-0.3,2-0.6,2.5-0.9l1.8,0.5l1.3,0.2c2.7,3.5,5.9,6.6,9.5,9.3c-0.1,0-0.2,0-0.4,0c-0.1-0.1-0.2-0.1-0.3-0.2
		c-0.6-0.4-1.1-0.8-1.8-1.2c-0.8-0.5-1.7-0.9-2.6-1.3c-1.1-0.4-2.2-0.7-3.3-0.8c-1.9-0.2-4.1,0.1-6.4,0.9c-1.7,0.6-2.8,1.3-2.8,1.3
		l-1.1,0.7l0.8,1.1c0,0.1,0.9,1.3,2.5,2.5c0.8,0.7,1.8,1.3,2.9,1.8c1.1,0.6,2.4,0.9,3.7,1c0.2,0,0.5,0,0.7,0c1,0,1.9-0.2,2.9-0.5
		c0.9-0.3,1.9-0.7,2.8-1.3c1-0.6,1.7-1.2,2.1-1.6c1.1-0.1,2.2-0.2,3.2-0.3c3.6,2.4,7.7,4.4,12,5.9c-0.1,0-0.1,0.1-0.2,0.1l-0.1,0
		c-0.1,0-0.2-0.1-0.3-0.1c-0.4-0.2-1-0.3-1.7-0.4L56,111c-2.3-0.5-4.4-0.5-6.2-0.1c-1.1,0.2-2.2,0.6-3.2,1.2c-0.9,0.5-1.7,1-2.5,1.6
		c-1.4,1.1-2.2,2.1-2.3,2.2l-0.8,1l1.1,0.7c0,0,0.3,0.2,0.9,0.5c0.8,0.4,1.5,0.8,2.3,1c1,0.4,2.7,0.9,4.6,0.9c0.8,0,1.7-0.1,2.5-0.3
		c2.1-0.5,4-1.8,5.5-3.7c0.7-0.9,1.2-1.7,1.5-2.2l0.2-0.1c1-0.4,2-0.9,2.8-1.3c1.1,0.4,2.3,0.8,3.6,1.2c6.6,2.2,14.8,4.8,18.7,11.3
		c0.2,0.4,0.6,0.6,1.1,0.6c0.2,0,0.4-0.1,0.6-0.2C86.7,125.2,86.9,124.5,86.5,123.9z M46.1,18.5c0.4-1,0.9-1.8,1.4-2.4
		c0.7-0.8,1.5-1.5,2.4-2c0.2-0.1,0.5-0.2,0.7-0.3c0.2-0.1,0.5-0.2,0.7-0.2c0.5-0.1,1-0.2,1.5-0.3c1.1-0.1,2-0.1,2.7,0.1
		c0.6,0.1,1.1,0.3,1.5,0.4c-0.2,0.4-0.5,0.8-0.8,1.3c-0.2,0.2-0.3,0.4-0.5,0.6c-0.4,0.5-0.8,1-1.2,1.5c-0.3,0.3-0.7,0.6-1,0.9
		c-0.2,0.1-0.4,0.3-0.5,0.4l-0.1,0.1c-0.2,0.1-0.4,0.3-0.6,0.4c-0.7,0.4-1.5,0.7-2.5,0.8l-0.1,0c-0.9,0.2-1.8,0.3-2.6,0.3
		c-0.5,0-1.1,0-1.6,0C45.7,19.5,45.9,19,46.1,18.5z M32.4,19.1c0.1-0.9,0.4-1.8,0.9-2.8c0.2-0.4,0.5-0.9,0.7-1.3
		c0.2-0.3,0.5-0.6,0.7-0.9l0.1-0.1c0.4-0.4,0.7-0.8,1-1c0.1,0.3,0.2,0.7,0.4,1c0.4,1.3,0.8,3.3,0.5,5.2l0,0.1
		c-0.1,0.9-0.4,1.8-0.8,2.7c-0.2,0.5-0.5,1-0.8,1.5c-0.2,0.3-0.3,0.5-0.4,0.7c-0.2,0.3-0.4,0.6-0.6,0.9c-0.2-0.3-0.4-0.6-0.6-0.9
		C32.9,22.9,32.1,21.1,32.4,19.1z M19.4,57.1c-1.8-0.8-3.2-1.9-3.9-3.3l0,0c-0.5-0.8-0.8-1.7-1-2.8c-0.2-0.9-0.1-1.8-0.1-2.7l0,0
		c0-0.5,0.1-1,0.2-1.4c0.3,0.2,0.6,0.4,0.9,0.6c1.1,0.8,2.7,2.2,3.6,3.9c0.2,0.3,0.3,0.7,0.5,1.1l0.1,0.2c0.2,0.4,0.3,0.8,0.4,1.3
		c0.2,0.8,0.3,1.6,0.3,2.4c0,0.4,0,0.8,0,1.1c0,0,0,0,0,0C20.1,57.4,19.7,57.3,19.4,57.1z M22.1,37.6c-0.6-0.9-0.9-1.7-1.1-2.5l0,0
		c-0.3-1.8,0-4,0.7-5.6l0,0c0.2-0.5,0.4-0.9,0.6-1.3c0.2,0.3,0.4,0.5,0.7,0.9c0.8,1.1,1.8,2.9,2.1,4.8c0.2,1.1,0.2,2,0.1,2.8
		c-0.1,0.9-0.3,1.7-0.5,2.4l0,0c-0.1,0.4-0.2,0.7-0.3,1c-0.3-0.2-0.6-0.4-0.9-0.7C23.1,38.9,22.6,38.3,22.1,37.6z M20.8,75.3
		c-0.9-0.1-1.7-0.2-2.4-0.5c-0.9-0.3-1.7-0.8-2.4-1.4l0,0c-0.7-0.6-1.2-1.3-1.8-2.3c-0.4-0.7-0.7-1.6-1-2.6c-0.1-0.5-0.2-1-0.3-1.4
		c0.3,0.1,0.7,0.2,1.1,0.3c1.9,0.6,3.5,1.5,4.6,2.6c1.5,1.4,2.3,3.1,2.9,4.3c0.1,0.4,0.3,0.7,0.4,1C21.6,75.3,21.2,75.3,20.8,75.3z
		 M28,92c-1.9,0.4-3.6,0.4-5.1-0.3c-0.9-0.4-1.7-0.9-2.4-1.6c-0.7-0.7-1.3-1.4-1.8-2.2c-0.3-0.5-0.5-0.9-0.7-1.3
		c0.3,0,0.7-0.1,1.1-0.1c1.3,0,3.3,0.1,5.2,1c1.4,0.7,2.8,1.7,4.1,3.2c0.3,0.3,0.5,0.6,0.7,0.8C28.7,91.8,28.4,91.9,28,92z
		 M40.1,105.6c-0.7,0.5-1.5,0.8-2.2,1c-0.9,0.3-1.8,0.4-2.7,0.3l0,0c-1-0.1-1.9-0.3-2.8-0.8c-0.9-0.4-1.7-0.9-2.4-1.5
		c-0.4-0.3-0.8-0.7-1.1-0.9c0.3-0.1,0.6-0.3,1-0.4c1.9-0.7,3.7-0.9,5.3-0.7c0.9,0.1,1.7,0.3,2.6,0.7l0,0c0.7,0.3,1.5,0.6,2.2,1.1
		l0,0c0.3,0.2,0.7,0.4,0.9,0.6C40.8,105.1,40.5,105.3,40.1,105.6z M55.9,114.6c-1.2,1.5-2.7,2.5-4.2,2.9l0,0c-2.2,0.6-4.5,0-5.7-0.5
		c-0.4-0.1-0.9-0.3-1.3-0.5c0.2-0.2,0.5-0.5,0.8-0.7c0.7-0.5,1.4-1,2.1-1.4c0.9-0.5,1.8-0.8,2.6-1c1.5-0.3,3.2-0.3,5.2,0.1l0.3,0.1
		c0.3,0.1,0.5,0.1,0.8,0.2C56.4,114,56.2,114.3,55.9,114.6z"/>
</g>
<g>
	<path fill="#FCFCFC" d="M49.9,58.6c-0.1-0.3-0.1-0.6-0.1-0.9c-0.2,0-0.3,0-0.5-0.1c-0.4-0.1-0.8-0.2-1.1-0.4c0,0.1,0,0.1,0,0.2
		c0,0.2,0.1,0.5,0.2,0.7c0.1,0.2,0.2,0.4,0.3,0.5c0.1,0.2,0.3,0.3,0.5,0.4l0.4,0.3c0.2,0.1,0.4,0.2,0.6,0.2c0,0,0,0-0.1-0.1
		C50.1,59.2,50,58.9,49.9,58.6z"/>
	<path fill="#FCFCFC" d="M52.1,57.7c-0.2,0-0.4,0-0.6,0.1c-0.5,0-0.9,0-1.3-0.1c0,0.3,0,0.6,0.1,0.9c0.1,0.3,0.2,0.5,0.3,0.7
		c0.1,0.1,0.2,0.2,0.2,0.3c0,0,0.1,0,0.1,0c0.3,0,0.6,0.1,0.9,0.1c0-0.1,0-0.2,0-0.3C51.7,58.9,51.8,58.3,52.1,57.7z"/>
	<path fill="#FCFCFC" d="M49.3,52.9c-0.5,0-0.9-0.1-1.3-0.2c-0.3,0.7-0.5,1.3-0.6,1.9c0,0,0,0.1,0,0.1c0.2,0.2,0.5,0.3,0.9,0.5
		c0.1-0.4,0.2-0.7,0.4-1.1C48.9,53.7,49.1,53.3,49.3,52.9z"/>
	<path fill="#FCFCFC" d="M47,51.9c-0.1,0.3-0.2,0.7-0.2,1c0,0.1,0,0.1,0,0.2c0,0.1,0,0.1,0,0.2c0,0.1,0,0.4,0.1,0.8
		c0.1,0.1,0.2,0.3,0.3,0.4c0,0,0.1,0,0.1,0.1c0.1-0.6,0.3-1.2,0.6-1.9C47.4,52.4,47.1,52.2,47,51.9z"/>
	<path fill="#FCFCFC" d="M60.2,60.4c-0.1,0-0.3,0-0.4-0.1c-0.2-0.1-0.3-0.2-0.4-0.3c-0.1-0.1-0.1-0.2-0.1-0.3
		c-0.6,0.3-1.2,0.5-1.8,0.7c0,0.1,0.1,0.2,0.1,0.3c0.1,0.2,0.4,0.4,0.7,0.5c0,0,0,0,0.1,0c0.1,0,0.3-0.1,0.4-0.1l0,0.1
		c0.3-0.1,0.6-0.2,0.8-0.3c0.3-0.2,0.7-0.3,1-0.5c0,0-0.1,0-0.1,0C60.4,60.4,60.3,60.4,60.2,60.4z"/>
	<path fill="#FCFCFC" d="M54.1,59.6c0-0.5,0.1-1.1,0.3-1.7c0.1-0.2,0.2-0.4,0.3-0.7c-0.2,0.1-0.5,0.1-0.7,0.2
		c-0.6,0.1-1.2,0.2-1.7,0.3c-0.2,0.6-0.3,1.2-0.3,1.7c0,0.1,0,0.2,0,0.3c0.2,0,0.5,0,0.7,0C53.2,59.7,53.6,59.6,54.1,59.6z"/>
	<path fill="#FCFCFC" d="M57.4,60.8c-0.1-0.1-0.1-0.2-0.1-0.3c-0.4,0.1-0.8,0.2-1.2,0.3C55.7,60.9,55.3,61,55,61
		c0.2,0.1,0.4,0.3,0.6,0.4c0.4,0.1,0.9,0.2,1.4,0.1c0.3,0,0.7-0.1,1-0.2C57.8,61.2,57.6,61,57.4,60.8z"/>
	<path fill="#FCFCFC" d="M48.7,48.4c0.1-0.2,0.3-0.3,0.4-0.5c-0.2-0.1-0.4-0.2-0.4-0.4c0,0,0-0.1,0-0.1c-0.2,0.2-0.4,0.5-0.6,0.8
		c-0.3,0.4-0.5,0.8-0.6,1.2c0,0.1,0.1,0.2,0.2,0.3C48,49.4,48.3,48.9,48.7,48.4z"/>
	<path fill="#FCFCFC" d="M54.7,61.1c-0.1,0-0.3,0-0.4,0c-0.5,0-1.1,0-1.5,0c-0.1,0-0.1,0-0.2,0c0.1,0.1,0.1,0.1,0.2,0.2
		c0.3,0.2,0.6,0.4,0.9,0.5c0.3,0.1,0.7,0.1,1.2,0.2h0.1l0.7,0l0.5-0.1c-0.2,0-0.4-0.1-0.6-0.1C55.2,61.5,54.9,61.3,54.7,61.1z"/>
	<path fill="#FCFCFC" d="M56.9,43.8c0.1,0.2,0.1,0.4,0,0.6l0,0c0,0-0.1,0.1-0.1,0.2c0.5-0.2,0.9-0.3,1.3-0.3c0.4,0,0.7,0,1,0
		c0-0.1-0.1-0.2-0.2-0.3c-0.1-0.1-0.1-0.1-0.2-0.2l0,0c-0.3-0.1-0.6-0.2-0.9-0.2c-0.2,0-0.6-0.1-1-0.1c-0.1,0-0.3,0-0.4,0
		C56.7,43.5,56.9,43.6,56.9,43.8z"/>
	<path fill="#FCFCFC" d="M54.6,49.2c0.8-0.4,1.6-0.8,2.2-1.3c0.7-0.5,1.2-1,1.6-1.5c0.3-0.3,0.5-0.6,0.6-0.9c-0.5,0.1-1,0.2-1.6,0.5
		c-0.8,0.3-1.6,0.7-2.4,1.3c-0.9,0.6-1.8,1.3-2.6,2c-0.3,0.3-0.6,0.6-0.9,1c0.2,0,0.3-0.1,0.5-0.1C52.9,49.9,53.8,49.6,54.6,49.2z"
		/>
	<path fill="#FCFCFC" d="M49.6,52.9c-0.2,0.4-0.4,0.8-0.6,1.2c-0.2,0.4-0.3,0.7-0.4,1.1c0.5,0.1,1.1,0.2,1.8,0.2
		c0-0.1,0-0.1,0.1-0.2c0.3-0.8,0.8-1.6,1.4-2.4c0,0,0.1-0.1,0.1-0.1c-0.7,0.2-1.4,0.3-2,0.3C49.8,53,49.7,52.9,49.6,52.9z"/>
	<path fill="#FCFCFC" d="M47.9,50c0.1,0.1,0.2,0.2,0.3,0.2c0.2,0.1,0.5,0.2,0.9,0.2c0.1-0.2,0.3-0.4,0.4-0.6
		c0.5-0.6,1.1-1.2,1.7-1.8c-0.3,0.1-0.6,0.1-0.9,0.1c-0.4,0-0.7,0-1-0.1c-0.2,0.2-0.3,0.4-0.5,0.5C48.5,49.1,48.2,49.5,47.9,50z"/>
	<path fill="#FCFCFC" d="M55.7,51.4c-1,0.5-2.1,0.9-3.2,1.2c-0.1,0-0.1,0-0.2,0c-0.1,0.1-0.2,0.2-0.3,0.4c-0.6,0.8-1,1.6-1.3,2.4
		c0,0,0,0,0,0.1c0.8,0,1.6-0.2,2.5-0.4c0.1,0,0.3-0.1,0.4-0.1c0.5-0.7,1.2-1.4,1.8-2.1c0.7-0.7,1.5-1.3,2.4-1.8
		c0.8-0.5,1.7-0.9,2.5-1.2c0.8-0.2,1.4-0.4,2.1-0.4c0.4-0.6,0.7-1.2,0.8-1.8c0,0-0.1-0.1-0.1-0.1c-0.4-0.3-1-0.4-1.7-0.5
		c0,0,0,0,0,0c-0.1,0-0.2,0-0.4,0c-0.1,0.2-0.3,0.5-0.5,0.7c-0.5,0.6-1.2,1.3-2,1.9C57.6,50.4,56.7,50.9,55.7,51.4z"/>
	<path fill="#FCFCFC" d="M62.6,58l0-0.1c0-0.1,0-0.1-0.1-0.2c0,0,0,0,0,0c-0.9,0.7-1.9,1.3-3,1.8c0,0.1,0,0.2,0.1,0.3
		c0.1,0.1,0.2,0.2,0.3,0.2c0.1,0,0.3,0.1,0.5,0c0.2,0,0.4-0.1,0.6-0.2c0.2-0.1,0.4-0.2,0.6-0.4c0.2-0.2,0.4-0.3,0.5-0.5
		c0.1-0.2,0.3-0.4,0.3-0.5C62.6,58.4,62.6,58.2,62.6,58z"/>
	<path fill="#FCFCFC" d="M50.7,46.1c0.1,0,0.2,0,0.3,0.1c0.7-0.6,1.4-1.1,2.1-1.6c0.4-0.3,0.9-0.5,1.3-0.7c-0.1-0.1-0.1-0.1-0.3-0.2
		c-0.1,0-0.3,0-0.5,0c0,0-0.1,0-0.1,0c-0.7,0.1-1.7,0.8-2.2,1.1c-0.4,0.3-0.7,0.6-1,0.8c0,0.1,0,0.1,0,0.2
		C50.5,46,50.6,46,50.7,46.1z"/>
	<path fill="#FCFCFC" d="M51.5,46.1c0.2,0,0.4,0,0.6-0.1c0.3-0.1,0.6-0.2,0.8-0.3c0.3-0.1,0.5-0.3,0.8-0.4c0.2-0.2,0.4-0.3,0.6-0.5
		c0.2-0.2,0.3-0.3,0.3-0.5c0-0.1,0-0.1,0-0.2c-0.4,0.2-0.8,0.4-1.3,0.7C52.7,45.2,52,45.6,51.5,46.1z"/>
	<path fill="#FCFCFC" d="M51.9,47.9c-0.1,0-0.1,0-0.2,0c-0.7,0.6-1.4,1.3-2,2c-0.1,0.2-0.2,0.3-0.3,0.5c0.1,0,0.2,0,0.4,0
		c0.4,0,0.9-0.1,1.4-0.2c0.4-0.4,0.8-0.8,1.2-1.2c0.8-0.8,1.7-1.5,2.6-2.1c0.8-0.5,1.7-1,2.5-1.3c0.6-0.2,1.2-0.4,1.8-0.5
		c0-0.1,0.1-0.1,0.1-0.2c0-0.2,0.1-0.4,0-0.5c-0.3,0-0.7,0-1.1,0c-0.5,0.1-1,0.2-1.5,0.4c-0.1,0.2-0.2,0.3-0.4,0.5
		c-0.3,0.3-0.7,0.7-1.2,1c-0.5,0.3-1,0.6-1.5,0.9C53.1,47.5,52.5,47.7,51.9,47.9z"/>
	<path fill="#FCFCFC" d="M61.4,46.9c0.7,0,1.3,0.2,1.8,0.5c0,0,0,0,0,0c0-0.1,0-0.2,0-0.4c0-0.1,0-0.1,0-0.2l0,0L63,46.4
		c-0.2-0.4-0.6-0.7-1.2-0.9c-0.1,0-0.2-0.1-0.4-0.1c0,0,0,0.1,0,0.1c0,0.2,0,0.4,0,0.6c-0.1,0.3-0.2,0.5-0.3,0.8
		C61.2,46.9,61.3,46.9,61.4,46.9C61.4,46.9,61.4,46.9,61.4,46.9z"/>
	<path fill="#FCFCFC" d="M84.5,71.8c-0.3,0-0.5,0.1-0.7,0.4c0,0.1-0.1,0.1-0.1,0.2h1.4C85.2,72.1,84.9,71.8,84.5,71.8z"/>
	<path fill="#FCFCFC" d="M57.4,71.8c-0.6,0-0.7,0.9-0.7,1.3c0,0.5,0.1,1.3,0.7,1.3l0,0c0.6,0,0.8-0.9,0.8-1.3
		C58.2,72.7,58.1,71.8,57.4,71.8z"/>
	<path fill="#FCFCFC" d="M96.9,70.6c-0.9,0-1,1.3-1,1.9s0,1.9,1,1.9c0.9,0,1-1.2,1-1.9S97.8,70.6,96.9,70.6z"/>
	<path fill="#FCFCFC" d="M75.1,22.7c-21.6,0-39.2,17.6-39.2,39.2c0,21.6,17.6,39.2,39.2,39.2s39.2-17.6,39.2-39.2
		C114.3,40.3,96.7,22.7,75.1,22.7z M48.5,72c-0.9,0-1.1,0.6-1.1,1.4v1.5h-0.7v-3.6h0.7v0.7h0c0.2-0.5,0.6-0.8,1.1-0.8V72z
		 M51.7,72.9h-2.1c0,0.8,0.4,1.6,1.3,1.6c0.2,0,0.5,0,0.7-0.1v0h0c0,0,0,0,0,0v0.5C51.3,75,51,75,50.7,75c-1.3,0-1.8-0.9-1.8-2
		c0-1,0.4-1.7,1.5-1.7c0.9,0,1.3,0.6,1.3,1.4V72.9z M55.1,74.9h-0.7v-0.5h0c-0.1,0.4-0.6,0.6-1,0.6c-1,0-1.2-1-1.2-1.8
		s0.2-1.9,1.3-1.9c0.4,0,0.8,0.2,0.9,0.6h0v-2.1h0.7V74.9z M58.9,74.9h-0.7v-0.5h0c-0.1,0.4-0.6,0.6-1,0.6c-1,0-1.2-1-1.2-1.8
		s0.2-1.9,1.3-1.9c0.4,0,0.8,0.2,0.9,0.6h0v-2.1h0.7V74.9z M61.3,75c-1.1,0-1.6-0.8-1.6-1.9c0-1,0.4-1.9,1.6-1.9
		c1.1,0,1.6,0.8,1.6,1.9C62.9,74.2,62.4,75,61.3,75z M62.1,60.1L62,60.2c-0.4,0.3-0.8,0.6-1.2,0.8c-0.1,0-0.2,0.1-0.3,0.1
		c-0.4,0.2-0.7,0.3-1.1,0.4c0,0-0.1,0-0.1,0.1c-0.5,0.2-1,0.3-1.5,0.4c-0.1,0-0.2,0-0.3,0.1c-0.1,0-0.2,0-0.3,0s-0.2,0-0.3,0
		c-0.1,0-0.2,0-0.3,0l-0.5,0h-0.1l-0.6,0l-0.4,0l-0.3,0c-0.5,0-0.9-0.1-1.3-0.2c-0.4-0.1-0.7-0.3-1-0.5c-0.1-0.1-0.3-0.3-0.4-0.4
		c-0.3,0-0.5-0.1-0.7-0.2c-0.4-0.1-0.7-0.3-1-0.5L50,59.9l-0.5-0.4c0,0-0.1-0.1-0.2-0.2l-0.2-0.1c-0.2-0.1-0.4-0.3-0.5-0.5
		c-0.1-0.2-0.3-0.4-0.4-0.6c-0.1-0.2-0.2-0.5-0.2-0.7c0-0.1,0-0.3,0-0.4c0,0-0.1,0-0.1-0.1c-0.1-0.1-0.3-0.2-0.4-0.4l-0.1,0
		c0,0,0-0.1-0.1-0.1l-0.3-0.5c0,0-0.2-0.4-0.3-0.7c-0.1-0.2-0.1-0.3-0.1-0.5l0-0.1c-0.1-0.5-0.3-1.4-0.2-1.5c0-0.1,0-0.1,0-0.2
		c0-0.1,0-0.2,0-0.2c0.1-0.4,0.2-0.8,0.3-1.3c-0.1-0.3-0.1-0.6,0-0.9l0-0.2l0.2-0.7l0.2-0.6l0.2-0.5l0.2-0.4l0,0.1c0,0,0-0.1,0-0.1
		c0.3-0.5,0.5-0.8,0.9-1.3c0.1-0.2,0.2-0.3,0.4-0.4c0,0,0,0,0,0c0.1-0.1,0.1-0.2,0.2-0.3s0.2-0.2,0.3-0.3c0.1-0.1,0.2-0.2,0.3-0.3
		l0.3-0.2l0.3-0.2l0.3-0.2l0.3-0.2l0.3-0.2l0.2-0.2l0.2-0.1c0,0-0.5,0.4-0.7,0.7c0,0,0,0,0,0c0.3-0.2,0.5-0.3,0.8-0.5v0
		c0.4-0.3,0.7-0.4,1.1-0.6c0,0,0,0,0,0c0.4-0.2,0.7-0.3,1.1-0.4c0.4-0.1,0.6-0.2,0.9-0.2c0.4-0.1,0.7-0.1,1,0c0.1,0,0.2,0,0.3,0
		c0.1,0,0.2,0,0.3-0.1c0.5-0.1,1.1,0,1.6,0c0.4,0,0.7,0.2,1,0.3l0.2,0.1l0.6,0.3L60,44l0.1,0.1l0.3,0.1l0.2,0.1
		c0.2,0.1,0.3,0.2,0.4,0.3c0.1,0.1,0.2,0.3,0.3,0.4c0,0,0,0.1,0,0.1c0.2,0,0.4,0.1,0.5,0.1c0.6,0.2,1.1,0.6,1.3,1l0.1,0.2l0.4,0.5
		l0.4,0.6l0.2,0.3c0.1,0.1,0.1,0.2,0.1,0.3c0,0.1,0.1,0.2,0.1,0.3c0,0.1,0,0.2,0,0.4c0,0.1,0,0.3,0,0.4c0,0.2-0.1,0.4-0.1,0.5
		c0,0,0.1,0,0.1,0.1c0.4,0.3,0.7,0.5,0.9,0.9c0,0.1,0.1,0.1,0.1,0.2c0,0,0,0.1,0,0.1l0,0l0,0c0,0.1,0,0.3-0.1,0.6c0,0,0,0,0,0l0,0
		c0.1,0.6,0.1,0.9,0,1.5c-0.1,0.9-0.4,1.4-0.9,2.2c-0.1,0.2-0.2,0.3-0.4,0.5c0.1,0.2,0.2,0.4,0.2,0.6h0c0,0.4-0.1,0.8-0.3,1.2
		c-0.1,0.3-0.4,0.5-0.6,0.8c-0.1,0.1-0.2,0.2-0.3,0.3C63,59.4,62.6,59.7,62.1,60.1z M65.7,71.9h-1v1.9c0,0.4,0.1,0.7,0.6,0.7
		c0.1,0,0.2,0,0.4-0.1h0V75c-0.2,0-0.4,0.1-0.5,0.1c-0.6,0-1.1-0.2-1.1-0.9v-2.3h-0.6v-0.5H64v-0.8l0.7-0.4v1.3h1V71.9z M72,74.9
		h-0.7l-0.7-2.5h0l-0.7,2.5h-0.7l-0.8-3.6H69l0.6,2.6h0l0.8-2.6h0.5l0.8,2.6h0l0.6-2.6h0.7L72,74.9z M74.4,74.9h-0.7v-3.6h0.7V74.9z
		 M74.5,70.5h-0.8v-0.8h0.8V70.5z M78.4,74.9h-0.7V73c0-0.1,0-0.3,0-0.4c0-0.3-0.1-0.6-0.5-0.6c-0.7,0-0.9,0.9-0.9,1.5v1.5h-0.7
		v-3.6h0.7v0.8h0c0.2-0.5,0.6-0.8,1.1-0.8c0.7,0,1,0.5,1,1.2V74.9z M82.3,74.9h-0.7V73c0-0.1,0-0.3,0-0.4c0-0.3-0.1-0.6-0.5-0.6
		c-0.7,0-0.9,0.9-0.9,1.5v1.5h-0.7v-3.6h0.7v0.8h0c0.2-0.5,0.6-0.8,1.1-0.8c0.7,0,1,0.5,1,1.2V74.9z M85.9,72.9h-2.1
		c0,0.8,0.4,1.6,1.3,1.6c0.2,0,0.5,0,0.7-0.1v0h0c0,0,0,0,0,0v0.5C85.5,75,85.2,75,84.9,75c-1.3,0-1.8-0.9-1.8-2
		c0-1,0.4-1.7,1.5-1.7c0.9,0,1.3,0.6,1.3,1.4V72.9z M88.5,72c-0.9,0-1.1,0.6-1.1,1.4v1.5h-0.7v-3.6h0.7v0.7h0
		c0.2-0.5,0.6-0.8,1.1-0.8V72z M94.3,74.9h-3v-0.5c0.7-0.6,2.3-2.1,2.3-3c0-0.5-0.3-0.7-0.7-0.7c-0.4,0-0.7,0.2-0.7,0.6h-0.8
		c0.1-0.9,0.7-1.2,1.5-1.2s1.5,0.4,1.5,1.3c0,1.3-1.2,2.2-2.1,3h2.2V74.9z M98.6,72.6c0,1.2-0.3,2.5-1.7,2.5s-1.7-1.3-1.7-2.5
		c0,0,0,0,0,0s0,0,0,0c0-1.2,0.3-2.5,1.7-2.5S98.6,71.4,98.6,72.6C98.6,72.6,98.6,72.6,98.6,72.6C98.6,72.6,98.6,72.6,98.6,72.6z
		 M102.2,74.9h-3v-0.5c0.7-0.6,2.3-2.1,2.3-3c0-0.5-0.3-0.7-0.7-0.7c-0.4,0-0.7,0.2-0.7,0.6h-0.8c0.1-0.9,0.7-1.2,1.5-1.2
		s1.5,0.4,1.5,1.3c0,1.3-1.2,2.2-2.1,3h2.2V74.9z M105.8,73.7v1.2h-0.7v-1.2h-2v-0.5l2-3h0.8v3h0.8v0.5H105.8z"/>
	<path fill="#FCFCFC" d="M53.7,71.8c-0.6,0-0.7,0.9-0.7,1.3c0,0.5,0.1,1.3,0.7,1.3v0c0.6,0,0.8-0.9,0.8-1.3
		C54.5,72.7,54.3,71.8,53.7,71.8z"/>
	<path fill="#FCFCFC" d="M50.3,71.8c-0.3,0-0.5,0.1-0.7,0.4c0,0.1-0.1,0.1-0.1,0.2H51C51,72.1,50.7,71.8,50.3,71.8z"/>
	<polygon fill="#FCFCFC" points="103.7,73.2 105.1,73.2 105.1,71 105,71 	"/>
	<path fill="#FCFCFC" d="M60.7,56c-0.4,0.2-0.9,0.5-1.3,0.8c-0.4,0.3-0.7,0.6-1,1c-0.2,0.2-0.4,0.5-0.5,0.7c0.3-0.1,0.6-0.3,0.9-0.4
		c1.2-0.6,2.3-1.3,3.3-2c0.2-0.2,0.4-0.3,0.6-0.5c0,0-0.1,0-0.1,0c-0.2,0-0.4,0-0.6,0.1C61.6,55.6,61.2,55.8,60.7,56z"/>
	<path fill="#FCFCFC" d="M62.2,49.7c-0.6,0-1.2,0.1-1.8,0.3c-0.8,0.3-1.6,0.7-2.4,1.2c-0.8,0.5-1.6,1.1-2.3,1.8
		c-0.6,0.6-1.1,1.1-1.6,1.8c1-0.3,1.9-0.6,2.8-1.1c1.2-0.6,2.2-1.2,3.2-1.9C60.8,51.1,61.6,50.4,62.2,49.7z"/>
	<path fill="#FCFCFC" d="M61.2,54c-1,0.8-2.1,1.4-3.3,2C57,56.4,56,56.8,55,57.1c-0.2,0.3-0.3,0.6-0.4,0.9c-0.2,0.6-0.3,1.1-0.3,1.6
		c0.2,0,0.4-0.1,0.7-0.1c0.9-0.2,1.7-0.5,2.5-0.8c0.2-0.3,0.4-0.7,0.7-1c0.3-0.4,0.7-0.7,1.1-1c0.4-0.3,0.9-0.6,1.3-0.8
		c0.5-0.2,0.9-0.4,1.3-0.4c0.3-0.1,0.7-0.1,1,0c0.6-0.5,1.1-1.1,1.4-1.6c0.1-0.1,0.2-0.2,0.2-0.4c-0.1-0.4-0.3-0.8-0.7-1
		c-0.2-0.1-0.4-0.2-0.7-0.3C62.7,52.7,62,53.3,61.2,54z"/>
	<path fill="#FCFCFC" d="M61.3,71.8c-0.7,0-0.8,0.8-0.8,1.3c0,0.6,0.1,1.3,0.8,1.3c0.7,0,0.8-0.8,0.8-1.3S62,71.8,61.3,71.8z"/>
	<path fill="#FCFCFC" d="M63.9,57.8C63.9,57.8,63.9,57.8,63.9,57.8c0.3-0.5,0.3-0.8,0.3-1.1h0c0-0.1,0-0.3-0.1-0.4
		c-0.4,0.4-0.8,0.9-1.4,1.3c0.1,0.1,0.1,0.3,0.2,0.4l0,0.1h0c0,0.1,0,0.3-0.1,0.5c-0.1,0.2-0.2,0.3-0.3,0.5c0.5-0.4,0.9-0.8,1.3-1.2
		C63.8,57.9,63.8,57.8,63.9,57.8z"/>
	<path fill="#FCFCFC" d="M64.8,53.1c0.2-0.4,0.4-0.9,0.5-1.3c0-0.2,0-0.4,0.1-0.5c0,0,0-0.1,0-0.1c0,0,0-0.1,0-0.1
		c-0.2-0.4-0.4-0.6-0.8-0.9c0,0,0,0-0.1,0c-0.2,0.5-0.4,1-0.8,1.5c0,0-0.1,0.1-0.1,0.1c0.2,0.1,0.5,0.2,0.7,0.3
		C64.4,52.3,64.6,52.7,64.8,53.1z"/>
</g>
</svg>
