<svg width="236" height="50" viewBox="0 0 236 50" fill="none" xmlns="http://www.w3.org/2000/svg">
<g clip-path="url(#clip0_29497_8192)">
<path d="M148.43 8.69002L138.41 8.79002L141.5 9.81002C152.77 15.5 146.69 28.63 135.15 27.96C133.6 27.87 130.39 26.73 129.17 27.28C127.87 27.86 129.7 28.88 130.28 29.14C136.11 31.75 148.17 31.69 148.62 40.29C149.18 50.98 131.06 52.25 124.89 47C121.86 44.42 121.88 39.67 125.68 37.86C126.5 37.47 127.19 37.39 128.05 37.21C128.16 37.19 128.28 37.16 128.29 37.03C126.21 36.18 124.24 34.33 124.04 31.97C123.74 28.45 126.81 26.56 129.99 26.59C124.78 24.01 122.4 17.9 126.21 12.99C128.15 10.5 131.37 9.02002 134.48 8.69002C135.23 8.61002 136.1 8.67002 136.83 8.58002C139.45 8.28002 142.05 7.01002 144.33 5.77002L144.63 5.80002L148.42 8.68002L148.43 8.69002ZM135.46 9.37002C134.58 9.55002 134.01 10.75 133.74 11.53C132.69 14.54 132.66 22.84 133.96 25.76C134.76 27.56 136.48 28.15 137.62 26.27C139.27 23.55 139.1 15.33 138.32 12.24C137.97 10.86 137.24 9.01002 135.47 9.37002H135.46ZM130.7 47.02C133.43 49.73 140.67 50.15 142.98 46.93C144.98 44.15 142.41 42.16 140.06 41.11C136.77 39.64 133 38.89 129.6 37.7C127.51 40.45 128.36 44.68 130.71 47.01L130.7 47.02Z" fill="white"/>
<path d="M234.55 0.569805V35.5698C234.55 35.6298 234.82 36.1798 234.89 36.2698C235.1 36.5698 235.47 36.5998 235.4 36.9298L226.23 39.3898V35.8898L225.24 37.2098C222.55 40.0898 218.07 40.0798 214.99 37.8098C207.54 32.3298 206.59 15.8698 214.38 10.3898C217.89 7.9198 223.21 7.8298 226.23 11.1298V4.2798C226.23 3.8398 225.51 3.1798 225.19 2.9098L234.55 0.549805V0.569805ZM222.81 10.3198C219.99 10.4898 218.75 14.0298 218.24 16.3398C217.16 21.2198 217.1 31.0298 220.56 34.9998C222.15 36.8298 224.75 37.0798 226.23 34.9998V12.2298C225.81 10.9898 224.06 10.2498 222.81 10.3198Z" fill="white"/>
<path d="M18.3602 28.8102L19.5602 24.8602C20.7602 20.1202 22.5202 12.4902 16.6602 10.1902C16.4802 9.96018 18.4902 9.27018 18.6702 9.22018C25.9602 7.08018 30.1402 11.4102 32.4702 17.7702C33.7002 21.1302 34.2702 24.6902 34.6702 28.2402C35.2802 23.0102 35.4402 16.5502 38.3602 12.0002C39.7802 9.79018 42.6702 7.85018 45.3602 8.95018C45.7002 9.09018 46.4502 9.43018 45.9102 9.73018C42.4602 11.6102 40.4902 15.1402 38.9402 18.6402C36.0702 25.1102 34.6502 32.1602 32.9302 38.9902L32.7602 39.1102L31.0902 39.0502C29.8302 34.3502 28.2502 29.7102 26.4502 25.1902C25.2402 22.1802 23.8902 19.0202 22.3302 16.1802C22.0802 15.7302 21.8002 15.2102 21.4602 14.8302C21.8602 18.2702 21.1802 21.5702 20.3002 24.8602C19.0102 29.6502 17.1402 34.2502 15.5902 38.9502C15.5102 39.1802 14.7902 39.1502 14.6602 39.0602C13.2902 34.1302 11.6802 29.2702 9.70018 24.5602C8.21018 21.0202 4.21018 12.0502 0.790179 10.4102C0.550179 10.2902 0.300179 10.1802 0.0101786 10.1902C-0.219821 9.97018 1.16018 9.48018 1.28018 9.43018C7.02018 7.34018 11.4702 9.52018 14.3902 14.5602C16.8502 18.8002 17.8202 23.9602 18.3402 28.7902L18.3602 28.8102Z" fill="white"/>
<path d="M162.88 8.62996C169.24 8.47996 174.5 13.17 176.18 19.09C179.03 29.14 173.26 40.58 161.72 39.4C144.48 37.64 146.1 9.02996 162.88 8.62996ZM161.32 37.95C162.81 39.39 164.54 38.82 165.62 37.26C168.74 32.75 168.48 20.73 167.29 15.5C166.81 13.39 164.92 7.36996 161.76 9.87996C159.42 11.74 158.57 17.61 158.36 20.46C158.06 24.63 158.16 34.9 161.32 37.95Z" fill="white"/>
<path d="M192.65 8.63008C199.49 8.49008 204.97 13.9501 206.24 20.4101C208.3 30.9101 201.62 41.5001 190.02 39.1701C174.2 35.9901 176.4 8.98008 192.65 8.63008ZM192.36 9.37008C190.36 9.78008 189.14 13.9801 188.76 15.7001C187.64 20.8301 187.39 32.8001 190.45 37.2101C192.08 39.5701 194.24 39.1101 195.61 36.8101C198.42 32.0801 198.21 20.9001 197.04 15.6001C196.58 13.4901 195.25 8.78008 192.35 9.37008H192.36Z" fill="white"/>
<path d="M50.3098 18.0398C50.1098 22.4298 50.9398 27.3998 54.4698 30.3698C57.9698 33.3098 63.4598 32.3498 66.4798 29.1898C65.7398 33.7898 63.1698 38.4298 58.1798 39.2698C42.3398 41.9498 37.6398 18.4598 49.2998 10.7398C54.8298 7.07981 64.8598 7.81981 65.7998 15.7298C65.8798 16.4198 65.9898 17.4698 65.5798 18.0298H50.3098V18.0398ZM50.4098 16.5298H54.9898C55.7098 16.5298 56.9298 16.0998 57.4998 15.6298C59.4398 14.0198 58.5098 9.56981 55.8298 9.25981C52.0698 8.82981 50.6098 13.5998 50.3998 16.5198L50.4098 16.5298Z" fill="white"/>
<path d="M92.2802 0V37.74C92.2802 37.8 92.5502 38.34 92.6202 38.44L93.2302 39.11H83.0202C83.3902 38.65 83.8902 38.29 83.9702 37.65V4.96C83.9202 4.21 83.7302 3.79 83.2102 3.26C83.0702 3.12 82.8602 3.18 82.9202 2.94L92.2802 0.01V0Z" fill="white"/>
<path d="M78.2902 0V37.55C78.2902 37.68 78.5902 38.34 78.6802 38.48L79.2302 39.11H69.0202C69.4002 38.62 70.0002 38.27 69.9702 37.56V4.86C69.9102 4.06 69.7602 3.8 69.2102 3.25C69.0702 3.11 68.8602 3.17 68.9202 2.93L78.2802 0H78.2902Z" fill="white"/>
<path d="M109.96 9.44994V16.7199H119.22V22.8099C119.22 22.8599 118.84 23.4899 118.75 23.5699C118.64 23.6699 118.04 23.9899 117.94 23.9899H109.95V30.0799C109.95 30.1499 109.72 30.5399 109.65 30.6299C109.05 31.4799 107.82 31.6099 107.07 30.8799C106.94 30.7499 106.55 30.1299 106.55 29.9799V23.9799H98.5598C98.1198 23.9799 97.2798 23.0699 97.2798 22.6099V16.7099H106.54V9.43994H109.94L109.96 9.44994Z" fill="white"/>
</g>
<defs>
<clipPath id="clip0_29497_8192">
<rect width="235.41" height="50" fill="white"/>
</clipPath>
</defs>
</svg>
