<svg width="305" height="50" viewBox="0 0 305 50" fill="none" xmlns="http://www.w3.org/2000/svg">
<g clip-path="url(#clip0_29497_8202)">
<path d="M0 15.75H17.78V22.25H17.06C16.21 22.25 15.68 22.32 15.42 22.51C15.09 22.71 14.96 23.03 14.96 23.43C14.96 23.76 15.09 24.22 15.29 24.87L19.88 39.37L23.95 28.02L22.9 24.87C22.57 23.95 22.18 23.3 21.72 22.9C21.26 22.5 20.6 22.31 19.69 22.24V15.74H36.55V22.24H35.17C34.38 22.24 33.86 22.37 33.6 22.57C33.34 22.77 33.14 23.09 33.14 23.55C33.14 23.94 33.27 24.53 33.53 25.32L37.6 37.33L41.67 25.32C41.93 24.53 42.06 23.94 42.06 23.55C42.06 23.16 41.93 22.83 41.6 22.57C41.27 22.37 40.62 22.24 39.57 22.24H38.78V15.74H53.87V22.24C52.75 22.24 52.1 22.31 51.77 22.44C51.44 22.57 51.11 22.77 50.92 23.1C50.59 23.49 50.26 24.28 49.87 25.33L40.82 49.28H31.96L26.97 35.83L21.92 49.28H12.93L4.07 25.33C3.74 24.48 3.35 23.76 2.95 23.23C2.69 22.84 2.43 22.57 2.1 22.51C1.77 22.31 1.12 22.25 0 22.25V15.75ZM72.05 14.96V39.76C72.05 40.94 72.12 41.66 72.25 41.93C72.38 42.19 72.64 42.39 72.97 42.52C73.3 42.65 74.09 42.72 75.33 42.72H77.17V49.22H56.44V42.72H58.21C59.39 42.72 60.11 42.65 60.44 42.52C60.77 42.39 61.03 42.19 61.16 41.93C61.29 41.67 61.42 41.08 61.42 40.16V24.22H56.43V17.92C58.2 17.85 59.91 17.66 61.48 17.33C64.04 16.87 66.54 16.07 68.89 14.97H72.04L72.05 14.96ZM66.67 3.25897e-05C68.3 -0.0299674 69.86 0.610033 71 1.77003C72.18 2.95003 72.77 4.39003 72.77 6.10003C72.84 9.43003 70.2 12.19 66.87 12.27C66.8 12.27 66.74 12.27 66.67 12.27C65.04 12.3 63.48 11.66 62.34 10.5C61.16 9.32003 60.57 7.88003 60.57 6.17003C60.57 4.46003 61.16 3.02003 62.41 1.84003C63.58 0.590033 65.02 3.25897e-05 66.67 3.25897e-05ZM96.39 3.25897e-05V30.25L102.82 24.8L104.07 23.68L104.27 23.22C104.27 22.96 104.14 22.76 103.81 22.56C103.48 22.36 102.89 22.3 101.91 22.3H100.66V15.74H121.2V22.24C119.76 22.24 118.71 22.37 118.18 22.57C117.46 22.83 116.28 23.62 114.64 24.8L108.14 29.59L117.39 40.35C118.31 41.47 119.1 42.19 119.69 42.38C120.28 42.64 121.46 42.77 123.17 42.77V49.27H102.37V42.77H103.55C104.4 42.77 104.93 42.7 105.19 42.51C105.45 42.38 105.58 42.18 105.58 41.92C105.58 41.59 105.25 41 104.53 40.02L100.66 35.1L96.46 38.25V40.09C96.46 40.94 96.53 41.53 96.66 41.8C96.79 42.13 97.05 42.32 97.32 42.52C97.65 42.72 98.17 42.78 98.83 42.78H100.01V49.28H80.72V42.78L82.29 42.71C83.11 42.78 83.93 42.69 84.72 42.45C85.06 42.25 85.34 41.95 85.51 41.6C85.64 41.34 85.71 40.35 85.71 38.65V9.32003H80.72V2.76003C84.53 2.56003 88.66 1.64003 93.12 3.25897e-05H96.4H96.39ZM142.19 14.96V39.76C142.19 40.94 142.26 41.66 142.39 41.93C142.52 42.2 142.78 42.39 143.11 42.52C143.44 42.65 144.23 42.72 145.47 42.72H147.31V49.22H126.58V42.72H128.35C129.53 42.72 130.25 42.65 130.58 42.52C130.88 42.42 131.14 42.21 131.3 41.93C131.43 41.67 131.56 41.08 131.56 40.16V24.22H126.57V17.92C128.34 17.85 130.05 17.66 131.62 17.33C134.18 16.87 136.68 16.07 139.03 14.97H142.18L142.19 14.96ZM136.74 3.25897e-05C138.45 3.25897e-05 139.89 0.590033 141.07 1.77003C142.25 2.95003 142.84 4.39003 142.84 6.10003C142.91 9.43003 140.27 12.19 136.94 12.27C136.87 12.27 136.81 12.27 136.74 12.27C135.03 12.27 133.59 11.68 132.41 10.5C131.23 9.32003 130.64 7.88003 130.64 6.17003C130.64 4.46003 131.23 3.02003 132.48 1.84003C133.66 0.590033 135.1 3.25897e-05 136.74 3.25897e-05Z" fill="white"/>
<path d="M155.84 2.43018H178.67V8.93018H176.57C175.77 8.88018 174.96 8.99018 174.21 9.26018C173.82 9.50018 173.51 9.84018 173.29 10.2402C173.09 10.7002 173.03 11.6202 173.03 13.0602V21.2002H190.09V12.5402C190.12 11.8102 190.06 11.0802 189.89 10.3702C189.69 9.85018 189.43 9.45018 188.97 9.25018C188.58 9.05018 187.59 8.92018 186.15 8.92018H184.38V2.43018H207.28V8.93018H205.38C204.07 8.93018 203.21 9.06018 202.82 9.26018C202.43 9.46018 202.1 9.78018 201.9 10.1802C201.7 10.5802 201.64 11.5602 201.64 13.1302V38.5202C201.64 40.0902 201.77 41.0802 201.97 41.5402C202.17 42.0002 202.49 42.3302 202.95 42.5202C203.41 42.7102 204.39 42.7802 205.97 42.7802H207.28V49.2802H184.38V42.7802H185.89C187.27 42.7802 188.25 42.6502 188.78 42.4502C189.31 42.2502 189.63 41.9302 189.83 41.4702C190.03 41.0802 190.09 40.0302 190.09 38.4502V28.6102H173.03V38.5202C173.03 40.0902 173.1 41.0802 173.23 41.4702C173.43 42.0602 173.82 42.3902 174.28 42.5902C174.74 42.7902 175.72 42.8502 177.1 42.8502H178.67V49.3502H155.84V42.8502H157.41C158.72 42.8502 159.64 42.7202 160.17 42.5202C160.7 42.3202 161.02 42.0002 161.22 41.6002C161.42 41.2002 161.48 40.2902 161.48 38.9802V13.4502C161.48 11.8802 161.41 10.8302 161.22 10.3702C161.02 9.91018 160.76 9.52017 160.3 9.32018C159.54 9.05018 158.74 8.94018 157.94 8.99018H155.84V2.43018ZM228.93 14.9602C232.74 14.9602 236.08 15.6802 238.9 17.1902C241.72 18.7002 243.95 20.7302 245.46 23.2902C246.97 25.8502 247.76 28.9302 247.76 32.3402C247.76 37.5902 246.05 41.8502 242.64 45.0702C239.23 48.3502 234.7 49.9902 228.99 49.9902C223.28 49.9902 218.56 48.3502 215.15 45.0702C211.87 41.9202 210.16 37.7202 210.16 32.3402C210.16 28.8002 210.95 25.7802 212.46 23.2902C214.04 20.6902 216.31 18.5702 219.02 17.1902C221.91 15.7502 225.19 14.9602 228.93 14.9602ZM229.06 22.3102C227.81 22.3102 226.57 22.7002 225.45 23.4302C224.33 24.2202 223.48 25.3302 222.83 26.7802C222.24 28.2902 221.91 30.1302 221.91 32.4202C221.91 34.7102 222.24 36.6902 222.83 38.2602C223.42 39.8302 224.27 40.9502 225.32 41.6702C226.34 42.3902 227.55 42.7802 228.8 42.7902C230.77 42.7902 232.47 41.9402 233.85 40.3002C235.23 38.6602 235.95 36.0302 235.95 32.5602C235.95 29.0902 235.29 26.5902 233.98 24.8802C232.88 23.2502 231.03 22.2902 229.06 22.3202M250.19 15.7502H267.97V22.2502H267.25C266.4 22.2502 265.87 22.3202 265.61 22.5102C265.28 22.7102 265.15 23.0302 265.15 23.4302C265.15 23.7602 265.28 24.2202 265.48 24.8702L270.14 39.3702L274.21 28.0202L273.16 24.8702C272.94 24.1202 272.53 23.4502 271.98 22.9002C271.52 22.5102 270.86 22.3102 269.95 22.2402V15.7402H286.75V22.2402H285.37C284.58 22.2402 284.06 22.3702 283.8 22.5702C283.54 22.7702 283.34 23.0902 283.34 23.5502C283.34 23.9402 283.47 24.5302 283.73 25.3202L287.8 37.3302L291.87 25.3202C292.13 24.5302 292.26 23.9402 292.26 23.5502C292.26 23.1602 292.13 22.8302 291.8 22.5702C291.47 22.3702 290.82 22.2402 289.77 22.2402H288.98V15.7402H304.07V22.2402C302.95 22.2402 302.3 22.3102 301.97 22.4402C301.64 22.5702 301.31 22.7702 301.12 23.1002C300.79 23.4902 300.46 24.2802 300.07 25.3302L291.02 49.2802H282.16L277.17 35.8302L272.12 49.2802H263.13L254.27 25.3302C253.94 24.4802 253.55 23.7602 253.15 23.2302C252.89 22.8402 252.63 22.5702 252.3 22.5102C251.97 22.3802 251.32 22.3102 250.2 22.3102V15.7502H250.19Z" fill="white"/>
</g>
<defs>
<clipPath id="clip0_29497_8202">
<rect width="304.06" height="50" fill="white"/>
</clipPath>
</defs>
</svg>
